<svg width="346" height="49" viewBox="0 0 346 49" fill="none" xmlns="http://www.w3.org/2000/svg">
<path d="M46.0903 48.7554H3.67791C3.1658 48.7554 2.74679 48.4768 2.56057 48.0589C2.37435 47.5946 2.46746 47.0374 2.8399 46.6659L18.0171 31.6678H31.8442L46.9283 46.6659C47.2542 46.9909 47.3938 47.5946 47.2076 48.0589C47.0214 48.5233 46.6024 48.7554 46.0903 48.7554ZM18.5292 32.8287L3.67791 47.5017C3.67791 47.5481 3.63135 47.5946 3.67791 47.641H46.1368C46.2299 47.5946 46.1834 47.5481 46.1834 47.5017L31.4252 32.8287H18.5292ZM1.1639 46.7588C0.977672 46.7588 0.838005 46.7123 0.698337 46.6659C0.279335 46.4802 0 46.0623 0 45.5515V3.25036C0 2.73959 0.279335 2.32169 0.698337 2.13595C1.1639 1.95022 1.72257 2.04308 2.09501 2.41455L17.1325 17.5519V31.3428L2.09501 46.3873C1.81568 46.6195 1.48979 46.7588 1.1639 46.7588ZM1.1639 3.1575H1.11734V45.5051C1.1639 45.5979 1.21045 45.5515 1.25701 45.5515L15.9686 30.832V17.9699L1.25701 3.1575C1.21045 3.20393 1.21045 3.1575 1.1639 3.1575ZM31.7511 17.0876H17.9705L2.88646 2.08952C2.56057 1.76448 2.4209 1.16084 2.60713 0.696506C2.79335 0.278602 3.21235 0 3.72447 0H46.1368C46.6489 0 47.0679 0.278602 47.2542 0.696506C47.4404 1.16084 47.3473 1.71805 46.9748 2.08952L31.7511 17.0876ZM18.4361 15.9268H31.2855L46.1368 1.25371C46.1368 1.20728 46.1834 1.16084 46.1368 1.11441H3.67791C3.5848 1.16084 3.63136 1.20728 3.63136 1.25371L18.4361 15.9268Z" fill="#716F6F"/>
<path d="M284.224 20.7095C284.224 20.1523 284.829 19.5022 285.62 19.5022H294.512C295.304 19.5022 295.863 20.1523 295.863 20.7095V24.7492H284.224V20.7095ZM284.224 35.8933V33.8502H309.503V16.9484C309.503 12.63 305.732 8.8689 301.403 8.8689H277.799C273.423 8.8689 269.698 12.5836 269.698 16.9484V40.676C269.698 45.1801 273.236 48.8019 277.799 48.8019H309.457V37.2863H285.527C284.782 37.2863 284.224 36.6363 284.224 35.8933Z" fill="#B41F1B"/>
<path d="M345.165 8.86882V23.8669H330.174H329.103C328.311 23.8669 327.706 24.4706 327.706 25.2599V48.7554H313.46V18.2949C313.46 13.4193 319 8.82239 323.702 8.82239H345.165V8.86882Z" fill="#B41F1B"/>
<path d="M175.748 16.9019V48.7554H160.012V25.6314C160.012 24.7492 159.407 23.8205 158.569 23.8205H150.794V48.7554H134.686V8.82239H167.647C171.837 8.82239 175.748 12.63 175.748 16.9019Z" fill="#B41F1B"/>
<path d="M265.788 16.9019V48.7554H250.052V25.6314C250.052 24.7492 249.447 23.8205 248.609 23.8205H240.834V48.7554H224.726V8.82239H257.687C261.877 8.82239 265.788 12.63 265.788 16.9019Z" fill="#B41F1B"/>
<path d="M130.636 8.82239H115.878V48.7554H130.636V8.82239Z" fill="#B41F1B"/>
<path d="M130.636 0H115.878V5.47918H130.636V0Z" fill="#B41F1B"/>
<path d="M70.5322 0H85.3835V33.2466C85.3835 34.0359 86.0353 34.6396 86.7802 34.6396H111.92V48.7554H80.1693C75.374 48.7554 70.5322 43.462 70.5322 38.7722V0Z" fill="#B41F1B"/>
<path d="M205.078 34.686H196.605C195.72 34.686 195.022 34.1288 195.022 32.3179V22.799C195.022 21.0809 195.674 20.4773 196.605 20.4773H205.078V34.686ZM220.721 48.7554V0H205.078V8.82241C204.193 8.82241 203.262 8.82241 202.378 8.82241C201.773 8.82241 201.121 8.82241 200.516 8.82241C199.538 8.82241 198.56 8.82241 197.583 8.82241C196.512 8.82241 195.488 8.82241 194.417 8.82241C186.456 8.82241 179.705 11.2834 179.705 20.8023V34.0359C179.705 34.5003 179.705 36.1254 179.705 36.5898C179.705 37.0541 179.705 37.5185 179.705 37.9364C179.705 38.2614 179.705 38.54 179.705 38.8186C179.705 39.0043 179.705 39.1436 179.705 39.3294C179.752 40.7224 179.845 42.0225 180.497 43.6477C181.102 45.2265 182.219 46.6195 183.709 47.3624C185.525 48.2447 187.526 48.7554 189.575 48.7554C190.273 48.7554 190.972 48.7554 191.716 48.7554C192.415 48.7554 193.113 48.7554 193.811 48.7554C194.603 48.7554 195.394 48.7554 196.139 48.7554C196.093 48.7554 220.721 48.7554 220.721 48.7554Z" fill="#B41F1B"/>
</svg>
