<svg xmlns="http://www.w3.org/2000/svg" viewBox="0 0 113.39 39.45"><defs><style>.cls-1{fill:#231f20;}.cls-2{fill:#ed1c24;fill-rule:evenodd;}</style></defs><g id="Layer_2" data-name="Layer 2"><g id="Ebene_1" data-name="Ebene 1"><rect class="cls-1" x="0.69" width="112.7" height="6.02"/><rect class="cls-1" x="0.69" y="33.43" width="112.7" height="6.02"/><path class="cls-2" d="M13,11.93a13.26,13.26,0,0,0-5.82-1.46c-3.73,0-6.42,2.35-6.42,6,0,3.43,2,4.19,5,5,1,.28,2.93.73,2.93,2S7.5,25.24,6.37,25.24a6.8,6.8,0,0,1-4.3-1.84L0,27.12a11.88,11.88,0,0,0,6.54,2,8.38,8.38,0,0,0,5.28-1.67,5.88,5.88,0,0,0,1.93-4.77c0-2.87-2-4.12-4.59-4.85L7.92,17.5c-.84-.26-2.14-.66-2.14-1.69S7,14.33,7.85,14.33a5.28,5.28,0,0,1,3.21,1.17Z"/><polygon class="cls-2" points="22.37 14.85 26.37 14.85 26.37 10.94 13.53 10.94 13.53 14.85 17.53 14.85 17.53 28.67 22.37 28.67 22.37 14.85"/><path class="cls-2" d="M36.67,21.41a4.82,4.82,0,0,0,4.07-5c0-3.79-2.78-5.46-6.46-5.46H27V28.67h4.84V21.85h.05l4.57,6.82h6Zm-4.79-6.94h.47c1.58,0,3.36.28,3.36,2.21s-1.78,2.21-3.36,2.21h-.47Z"/><path class="cls-2" d="M54.16,25.59l1.2,3.08h5.16l-7-17.73H48.23L41.07,28.67h5.14l1.28-3.08Zm-1.31-3.53h-4l2-5.64h0Z"/><path class="cls-2" d="M65.78,21.34h.5c1.58,0,4-.22,4,1.92,0,1.95-2.42,1.88-3.85,1.88h-.62Zm2.62,7.33c3.41,0,6.74-1.22,6.74-4.94,0-2.47-1.14-4.18-3.8-4.51v0a3.65,3.65,0,0,0,2-3.62c0-3.39-2.23-4.61-5.53-4.61H61V28.67Zm-2.62-14.2h.35c1.31,0,2.81.09,2.81,1.72s-1.33,1.71-2.61,1.71h-.55Z"/><path class="cls-2" d="M88,25.59l1.21,3.08h5.16l-7-17.73H82.05L74.9,28.67H80l1.28-3.08Zm-1.31-3.53h-4l2-5.64h0Z"/><path class="cls-2" d="M103.73,18.77v3.62h4c-.2,2.05-1.8,3.08-3.9,3.08-3.19,0-4.91-2.8-4.91-5.55s1.65-5.59,4.83-5.59a4.2,4.2,0,0,1,4,2.82l4.59-1.83c-1.61-3.32-4.57-5-8.39-5-6,0-10.1,3.79-10.1,9.55,0,5.57,4.07,9.36,9.92,9.36a9.18,9.18,0,0,0,7.68-3.48c1.65-2.21,1.85-4.42,1.9-7Z"/></g></g></svg>