<?xml version="1.0" encoding="utf-8"?>
<!-- Generator: Adobe Illustrator 23.0.4, SVG Export Plug-In . SVG Version: 6.00 Build 0)  -->
<svg version="1.1" id="Layer_1" xmlns="http://www.w3.org/2000/svg" xmlns:xlink="http://www.w3.org/1999/xlink" x="0px" y="0px"
	 viewBox="0 0 390.7 143.9" style="enable-background:new 0 0 390.7 143.9;" xml:space="preserve">
<style type="text/css">
	.st0{fill:#1964AC;}
	.st1{fill:#FFFFFF;}
	.st2{fill:#54626C;}
	.st3{fill:#254182;}
</style>
<g>
	<rect x="19.6" y="17.9" class="st0" width="82.5" height="82.5"/>
	<g>
		<polygon class="st1" points="79,57.5 62.5,57.5 62.5,41 59.2,41 59.2,57.5 42.7,57.5 42.7,60.8 59.2,60.8 59.2,77.3 62.5,77.3 
			62.5,60.8 79,60.8 		"/>
		<rect x="82.3" y="41" class="st1" width="3.3" height="36.3"/>
		<polygon class="st1" points="55.9,74 39.4,74 39.4,44.3 55.9,44.3 55.9,41 36.1,41 36.1,77.3 55.9,77.3 		"/>
	</g>
</g>
<polygon class="st2" points="118.6,45.6 133.5,45.6 133.1,48.3 121.9,48.3 121.9,57.3 131.2,57.3 131.2,60.1 121.9,60.1 121.9,70.2 
	133.9,70.2 133.9,73.1 118.6,73.1 "/>
<path class="st2" d="M138.7,45.4h3.2v17.7c0,1.9,0.1,3.5,0.3,4.2c0.5,2.2,2.5,3.4,5.5,3.4c2.3,0,4-0.6,4.8-1.7c0.8-1.1,1-2.1,1-4.7
	V45.4h3.2v19.3c0,4-0.4,5.3-2.1,6.8c-1.7,1.5-3.9,2.1-7.2,2.1c-4.2,0-6.8-1.4-8.1-4c-0.6-1.2-0.8-1.8-0.8-4.9V45.4z"/>
<polygon class="st2" points="163.4,45.4 166.7,45.4 166.7,70.3 177.5,70.3 177,73.1 163.4,73.1 "/>
<polygon class="st2" points="181,45.6 196,45.6 195.5,48.3 184.3,48.3 184.3,57.3 193.7,57.3 193.7,60.1 184.3,60.1 184.3,70.2 
	196.4,70.2 196.4,73.1 181,73.1 "/>
<path class="st2" d="M201.6,45.4h6.4c3.8,0,5.6,0.7,6.9,1.8c1.2,1,2.7,2.9,2.7,5.8c0,4.6-2.9,7.6-7.3,7.6c-0.1,0-0.2,0-0.4,0
	c1.3,1,2.2,2.3,2.7,3.1c0.6,0.8,1.3,1.9,2.2,3.2c1,1.5,4.1,6.1,4.1,6.1h-4.1c-0.6-1.5-0.9-2-2.1-3.8c-1.7-2.6-3.4-5-4.9-6.9
	c-1.1-1.4-1.7-1.7-3-1.8v12.5h-3.3V45.4 M204.9,48.2v10.3h2.9c2.4,0,3.9-0.4,4.9-1.4c0.9-0.9,1.4-2.3,1.4-4.2c0-1.8-1.1-3.6-2.7-4.2
	c-0.9-0.4-2-0.6-3.4-0.6H204.9z"/>
<polygon class="st2" points="233.5,45.4 236.7,45.4 236.7,56.9 248.2,56.9 248.2,45.4 251.5,45.4 251.5,73.1 248.2,73.1 248.2,59.7 
	236.7,59.7 236.7,73.1 233.5,73.1 "/>
<polygon class="st2" points="259.5,45.6 274.4,45.6 274,48.3 262.8,48.3 262.8,57.3 272.2,57.3 272.2,60.1 262.8,60.1 262.8,70.2 
	274.8,70.2 274.8,73.1 259.5,73.1 "/>
<path class="st2" d="M280.9,45.4h6.4c3.7,0,5.6,0.7,6.9,1.8c1.2,1,2.7,2.9,2.7,5.8c0,4.6-2.9,7.6-7.2,7.6c-0.1,0-0.2,0-0.4,0
	c1.3,1,2.2,2.3,2.8,3.1c0.6,0.8,1.3,1.9,2.2,3.2c1,1.5,4.1,6.1,4.1,6.1h-4.1c-0.6-1.5-0.9-2-2.1-3.8c-1.7-2.6-3.4-5-4.9-6.9
	c-1.1-1.4-1.7-1.7-3-1.8v12.5h-3.3V45.4 M284.2,48.2v10.3h2.9c2.4,0,3.9-0.4,4.9-1.4c0.9-0.9,1.4-2.3,1.4-4.2c0-1.8-1.1-3.6-2.7-4.2
	c-0.9-0.4-2-0.6-3.4-0.6H284.2z"/>
<path class="st2" d="M305,45.4h4.8l5,18.1c0.5,1.9,0.7,2.7,1.1,4.9c0.4-2.3,0.6-3.1,1-4.5l5.1-18.4h4.8l2.4,27.7h-3.3l-1.6-20.3
	c-0.1-1.8-0.2-4.7-0.2-4.7c-0.3,1.4-0.8,3.3-1.1,4.4l-5.9,20.7h-2.8L309,53.4c-0.6-2.1-1-3.5-1.4-5.4c0,0-0.2,3.7-0.3,5.4l-1.5,19.7
	h-3.1L305,45.4z"/>
<polygon class="st2" points="335.3,45.6 350.3,45.6 349.8,48.3 338.6,48.3 338.6,57.3 348,57.3 348,60.1 338.6,60.1 338.6,70.2 
	350.7,70.2 350.7,73.1 335.3,73.1 "/>
<path class="st2" d="M372.4,47.4l-1.4,2.4c-2.6-1.7-4.3-2.3-6.7-2.3c-3.4,0-5.5,1.7-5.5,4.6c0,2.2,1.3,3.5,4.5,4.5l3.1,1
	c2.4,0.8,3.8,1.5,4.8,2.8c1.1,1.3,1.8,3.1,1.8,4.9c0,2.6-1.4,5-3.8,6.7c-1.8,1.2-3.6,1.7-6.1,1.7c-3.3,0-6.1-0.8-8.8-2.5l1.4-2.6
	c2.3,1.7,4.6,2.4,7.3,2.4c2.1,0,3.2-0.3,4.3-1.2c1.3-1,2-2.3,2-4c0-2.5-1.6-4.2-4.9-5.2l-2.7-0.8c-2.5-0.8-3.8-1.3-4.9-2.5
	c-1.1-1.2-1.7-2.7-1.7-4.5c0-4.7,3.5-8,8.8-8C367.1,44.7,369.8,45.6,372.4,47.4z"/>
<g>
	<g>
		<path class="st3" d="M269.2,121l1.3-4.2h5l1.2,4.2h4.6l-4.6-16.1c-0.3-0.9-0.8-1.4-1.8-1.4h-6.5v1.5h0.5c0.7,0,1,0.3,1,0.8
			c0,0.3-0.1,0.6-0.3,1.4l-4.6,13.7H269.2z M274.8,113.9h-3.7l2-6.4L274.8,113.9z"/>
		<path class="st3" d="M286.5,121v-16.1c0-0.8-0.5-1.3-1.3-1.3h-4v1.5h0.3c0.7,0,1,0.3,1,1v15H286.5z"/>
		<path class="st3" d="M293.5,121v-16.1c0-0.8-0.5-1.3-1.3-1.3h-4v1.5h0.3c0.7,0,1,0.3,1,1v15H293.5z"/>
		<path class="st3" d="M300.6,121v-11.8c0-0.8-0.5-1.3-1.3-1.3h-4v1.5h0.2c0.7,0,1,0.3,1,1V121H300.6z M300.6,105.1
			c0-1.2-0.9-1.9-2.4-1.9c-1.5,0-2.4,0.7-2.4,1.9c0,1.2,0.9,1.9,2.4,1.9C299.8,107,300.6,106.3,300.6,105.1"/>
		<path class="st3" d="M304,111.6c1.4-0.7,2.9-1,4-1c1.1,0,1.5,0.4,1.5,1.5v0.3c-1.7,0.3-2.2,0.4-3.1,0.6c-0.5,0.1-1.1,0.3-1.5,0.5
			c-1.7,0.7-2.4,1.9-2.4,3.9c0,2.5,1.1,3.7,3.3,3.7c0.8,0,1.5-0.2,2.2-0.4c0.6-0.3,0.9-0.5,1.8-1.1v0.2c0,0.8,0.4,1.2,1.2,1.2h3.7
			v-1.4h-0.2c-0.7,0-1-0.3-1-1.2v-6.2c0-3.3-1.2-4.5-4.5-4.5c-1.1,0-2.1,0.1-3.1,0.4c-1,0.2-1.6,0.4-2.8,1L304,111.6z M309.6,114.7
			v2.5c-0.7,0.7-1.5,1.1-2.2,1.1c-0.7,0-1-0.4-1-1.3c0-1,0.2-1.4,0.9-1.7C307.8,115.1,308.5,114.9,309.6,114.7"/>
		<path class="st3" d="M320.6,121v-8.8c0.7-0.8,1.4-1.1,2.2-1.1c0.9,0,1.1,0.3,1.1,1.7v8.3h4.1v-8.9c0-2.1-0.2-2.7-0.8-3.4
			c-0.6-0.6-1.4-0.9-2.5-0.9c-1.6,0-2.7,0.5-4.2,1.9v-0.5c0-0.8-0.4-1.2-1.3-1.2h-3.9v1.5h0.2c0.7,0,1,0.3,1,1V121H320.6z"/>
		<path class="st3" d="M340.1,118.2h-5.7l5.4-7.6v-2.7h-8.5c-1,0-1.4,0.4-1.4,1.4v2.4h1.5v-0.2c0-0.6,0.3-0.9,1-0.9h2.9l-5.5,7.7
			v2.7h10.3V118.2z"/>
		<path class="st3" d="M373,113.1c0-7.7-5.7-13.4-13.4-13.4c-7.7,0-13.4,5.7-13.4,13.4c0,7.7,5.7,13.4,13.4,13.4
			C367.3,126.5,373,120.8,373,113.1 M370.7,113.1c0,6.5-4.7,11.3-11.1,11.3c-6.4,0-11.1-4.7-11.1-11.3c0-6.5,4.7-11.3,11.1-11.3
			C366,101.9,370.7,106.6,370.7,113.1 M356,120.6v-13.1h-2.3c-1.1,0-1.6,0.4-1.6,1.6v11.5H356z M363.2,120.6h3.8v-11.5
			c0-1.2-0.4-1.6-1.6-1.6h-2.3V120.6z M361.5,120.6v-14.8c0-1.2-0.4-1.6-1.6-1.6h-3.5v1.7h0.2c0.8,0,0.9,0.2,0.9,1.1v13.6H361.5z"/>
	</g>
	<path class="st3" d="M254.6,107.4c0-1.5,0.6-2.1,1.7-2.1c0.4,0,0.9,0.1,1.3,0.2l0.3-1.7c-0.5-0.2-1.2-0.3-1.8-0.3
		c-2.3,0-3.5,1.4-3.5,3.8v2h-1.7v1.9h1.7v9.8h2v-9.8h3.2v-1.9h-3.2V107.4z M244.1,119.4c-2.3,0-3.9-1.7-3.9-4.3
		c0-2.5,1.6-4.2,3.9-4.2c2.3,0,3.9,1.7,3.9,4.2C248,117.6,246.4,119.4,244.1,119.4 M244.1,121.3c3.5,0,5.9-2.5,5.9-6.1
		c0-3.6-2.4-6.1-5.9-6.1c-3.5,0-5.9,2.5-5.9,6.1C238.2,118.8,240.6,121.3,244.1,121.3 M227,121.1l4.7-11.8h-2.1l-3.6,9.3l-3.6-9.3
		h-2.1l4.8,11.6c-0.9,2.3-1.5,2.7-2.6,2.7c-0.4,0-1-0.1-1.4-0.2l-0.2,1.9c0.5,0.1,1.1,0.2,1.7,0.2c1.9,0,3.2-0.9,4.4-3.9L227,121.1
		L227,121.1z M214.7,109.1c-1.6,0-3,0.6-3.8,2v-1.7H209V121h2v-6.6c0-2.2,1.2-3.5,3.2-3.5c1.9,0,3,1.2,3,3.6v6.5h2v-6.8
		C219.2,110.9,217.4,109.1,214.7,109.1 M200.2,119.4c-2.3,0-3.8-1.7-3.8-4.2c0-2.5,1.6-4.2,3.8-4.2c2.2,0,3.7,1.6,3.7,4.2
		C203.9,117.8,202.3,119.4,200.2,119.4 M199.8,121.2c1.7,0,3.2-0.7,4.2-2.1v1.9h1.8v-11.7H204v1.9c-1-1.4-2.5-2.1-4.2-2.1
		c-3.2,0-5.4,2.5-5.4,6.1C194.3,118.8,196.6,121.2,199.8,121.2 M186.8,119.4c-2.2,0-3.7-1.6-3.7-4.2c0-2.6,1.5-4.2,3.7-4.2
		c2.3,0,3.8,1.7,3.8,4.2C190.6,117.6,189.1,119.4,186.8,119.4 M187.1,109.1c-1.7,0-3.1,0.7-4.2,2.1v-1.9h-1.8v16h2v-6
		c1,1.3,2.4,1.9,4,1.9c3.2,0,5.5-2.5,5.5-6.1C192.6,111.5,190.4,109.1,187.1,109.1 M173.8,109.1c-1.6,0-3,0.7-3.8,2.2
		c-0.7-1.4-2-2.2-3.6-2.2c-1.5,0-2.7,0.6-3.4,1.8v-1.6h-1.8V121h2v-6.8c0-2.1,1.1-3.3,2.8-3.3s2.8,1.1,2.8,3.4v6.7h2v-6.8
		c0-2.1,1.1-3.3,2.8-3.3c1.7,0,2.7,1.1,2.7,3.4v6.7h2v-7C178.1,110.9,176.3,109.1,173.8,109.1 M152.8,119.4c-2.3,0-3.9-1.7-3.9-4.3
		c0-2.5,1.6-4.2,3.9-4.2c2.3,0,3.9,1.7,3.9,4.2C156.7,117.6,155,119.4,152.8,119.4 M152.8,121.3c3.5,0,5.9-2.5,5.9-6.1
		c0-3.6-2.4-6.1-5.9-6.1c-3.5,0-5.9,2.5-5.9,6.1C146.8,118.8,149.2,121.3,152.8,121.3 M142,121.3c1.4,0,2.7-0.4,3.7-1.2l-0.5-1.8
		c-0.9,0.7-2,1.2-3.2,1.2c-2.4,0-3.9-1.7-3.9-4.3c0-2.6,1.5-4.2,3.9-4.2c1.2,0,2.3,0.4,3.2,1.2l0.5-1.8c-1-0.8-2.3-1.2-3.7-1.2
		c-3.4,0-5.8,2.4-5.8,6.1C136.1,118.9,138.5,121.3,142,121.3 M119.2,114.2l2.9-7.4l2.9,7.4H119.2z M127.6,121h2.2l-6.5-16.4h-2.4
		l-6.5,16.4h2.2l1.8-4.7h7.3L127.6,121z"/>
</g>
</svg>
