<svg xmlns="http://www.w3.org/2000/svg" viewBox="0 0 123.65 52.04"><defs><style>.cls-1{fill:none;}.cls-2{fill:#124191;}</style></defs><g id="Layer_2" data-name="Layer 2"><g id="Nokia_Logo" data-name="Nokia Logo"><rect class="cls-1" width="123.65" height="52.04"/><path class="cls-2" d="M34.51,29.34l-8.13-10H19.3V32.76h4.09V22.54l8.27,10.22H38.6V19.3H34.51ZM52.72,19.08h-7c-2.44,0-3.7.28-4.57,1.2-.56.62-.91,1.26-.91,3.13V28.6c0,1.87.35,2.51.91,3.13.87.93,2.13,1.2,4.57,1.2h7c2.43,0,3.7-.27,4.57-1.2.56-.62.91-1.26.91-3.13V23.41c0-1.87-.35-2.51-.91-3.13C56.42,19.36,55.15,19.08,52.72,19.08Zm1.62,9c0,.78-.09,1-.3,1.21s-.56.25-1.49.25H45.9c-.94,0-1.27-.06-1.5-.25s-.29-.43-.29-1.21V24c0-.79.09-1,.29-1.21s.56-.25,1.5-.25h6.65c.93,0,1.27.05,1.49.25s.3.42.3,1.21ZM77,19.3H71.38l-7.23,6.44,7.8,7h6l-8.6-7.17Zm-17.15,0V32.76h4.28V19.3ZM78.79,32.76h4.28V19.3H78.79Zm18-13.46H91.44L83.86,32.76h4.72l1.26-2.34h8.28l1.26,2.34h5Zm-5.43,8.2L94,22.62l2.66,4.88Z"/></g></g></svg>