<svg xmlns="http://www.w3.org/2000/svg" viewBox="0 0 359.21 159.37"><defs><style>.cls-1{fill:none;}.cls-2{fill:#002065;}.cls-3{fill:#0782bc;}</style></defs><g id="Schonbereich"><rect class="cls-1" width="359.21" height="159.37"/></g><g id="Claim"><path class="cls-2" d="M323.83,131.5a1.76,1.76,0,0,0-1.77-1.85,1.88,1.88,0,1,0,1.77,1.85m-5.8,1.67v-2h-.87c-1.08,0-1.44-.34-1.44-2.21v-6.66H318V120h-2.31v-3.8h-2.21l-.67,3.8h-1.46v2.23h1.46v7.66c0,2.77,1.21,3.54,3,3.54a8,8,0,0,0,2.24-.28m-8,0v-2h-.87c-1.08,0-1.44-.34-1.44-2.21v-6.66H310V120h-2.31v-3.8h-2.21l-.66,3.8h-1.47v2.23h1.47v7.66c0,2.77,1.2,3.54,2.95,3.54a8,8,0,0,0,2.23-.28m-8.78,0V120h-4.39v2.23h1.52V133.2Zm.28-17.16a1.77,1.77,0,1,0-3.54,0,1.77,1.77,0,1,0,3.54,0m-6,3.85a3.93,3.93,0,0,0-1.16-.2c-1.1,0-1.72.72-2.75,2.51l-.25-2.18h-2.21V133.2H292v-8.58c1.06-1.65,1.55-2.26,2.14-2.26a2.84,2.84,0,0,1,1,.23Zm-9.43,13.31v-8.63c0-2.78-1.1-4.88-3.64-4.88a3.78,3.78,0,0,0-3.24,1.85v-7.6h-2.87V133.2h2.87V124c.92-1.36,1.57-1.93,2.42-1.93,1.2,0,1.59,1.13,1.59,3.06v8.07Zm-12-.44-.48-2.23a3.86,3.86,0,0,1-2,.54c-1.72,0-2.51-1.52-2.51-4.52,0-2.7.77-4.45,2.46-4.45a4.2,4.2,0,0,1,1.88.49l.59-2.21a5.48,5.48,0,0,0-2.67-.64c-3.19,0-5.24,2.46-5.24,7.09,0,4.06,1.59,6.65,4.9,6.65a6.28,6.28,0,0,0,3.08-.72m-9.78-3.18c0-1.78-.74-2.85-2.95-4.19-1.31-.82-1.6-1.36-1.6-2.16a1.37,1.37,0,0,1,1.52-1.33,5.77,5.77,0,0,1,2.08.46l.33-2.26a8.67,8.67,0,0,0-2.66-.41c-2.65,0-4.16,1.56-4.16,3.82,0,1.8.82,2.83,2.69,4,1.41.9,1.8,1.47,1.8,2.29s-.59,1.46-1.67,1.46a6.32,6.32,0,0,1-2.47-.59l-.38,2.36a9.64,9.64,0,0,0,3.1.49c2.81,0,4.37-1.62,4.37-3.95M255,133.17v-2h-.88c-1.08,0-1.43-.34-1.43-2.21v-6.66H255V120h-2.31v-3.8h-2.21l-.67,3.8h-1.46v2.23h1.46v7.66c0,2.77,1.21,3.54,2.95,3.54a8,8,0,0,0,2.24-.28m-7.78-13.28a4,4,0,0,0-1.16-.2c-1.1,0-1.72.72-2.75,2.51L243,120h-2.21V133.2h2.87v-8.58c1.06-1.65,1.54-2.26,2.13-2.26a2.85,2.85,0,0,1,1,.23Zm-11.92,6.86c0,2.67-.69,4.45-2.31,4.45s-2.39-1.62-2.39-4.71c0-2.64.69-4.47,2.31-4.47s2.39,1.65,2.39,4.73m3-.26c0-4.26-1.77-6.8-5.26-6.8s-5.42,2.64-5.42,7.11c0,4.24,1.77,6.73,5.24,6.73s5.44-2.64,5.44-7M226,117.66v-2.39h-8V133.2h3v-7.76h4.44v-2.36H221v-5.42ZM208.83,133.2v-8.63c0-2.78-1.1-4.88-3.72-4.88a4.26,4.26,0,0,0-3.6,2l-.23-1.72h-2.2V133.2H202V124c.92-1.36,1.57-1.93,2.42-1.93,1.2,0,1.59,1.13,1.59,3.06v8.07Zm-15.25-8h-4.14c.08-1.75.65-3.44,2.24-3.44,1.31,0,1.95,1.31,1.9,3.44m2.82.54c0-3.8-1.28-6.06-4.62-6.06s-5.29,2.67-5.29,7c0,4.57,1.75,6.83,5.32,6.83a12.93,12.93,0,0,0,4.26-.72l-.31-2.21a11,11,0,0,1-3.54.62c-2.06,0-2.75-1.49-2.75-4h6.91c0-.49,0-1.13,0-1.44m-11.07-5.86a3.86,3.86,0,0,0-1.15-.2c-1.11,0-1.72.72-2.75,2.51l-.26-2.18H179V133.2h2.87v-8.58c1-1.65,1.54-2.26,2.13-2.26a2.89,2.89,0,0,1,1,.23Zm-11.86,5.32h-4.14c.08-1.75.65-3.44,2.24-3.44,1.31,0,2,1.31,1.9,3.44m2.82.54c0-3.8-1.28-6.06-4.62-6.06s-5.29,2.67-5.29,7c0,4.57,1.75,6.83,5.32,6.83a12.89,12.89,0,0,0,4.26-.72l-.31-2.21a11,11,0,0,1-3.54.62c-2.06,0-2.75-1.49-2.75-4h6.91c0-.49,0-1.13,0-1.44m-12.45,7.45V120h-4.39v2.23H161V133.2Zm.28-17.16a1.77,1.77,0,1,0-3.54,0,1.77,1.77,0,1,0,3.54,0M158,133.2v-2.34h-4.64l4.36-8.61V120h-7.31v2.34h4.13l-4.42,8.6v2.24Zm-10.24,0v-8.63c0-2.78-1.11-4.88-3.72-4.88a4.23,4.23,0,0,0-3.6,2l-.23-1.72H138V133.2h2.87V124c.93-1.36,1.57-1.93,2.42-1.93,1.21,0,1.59,1.13,1.59,3.06v8.07Zm-15.72-3.39c-.64.87-1.31,1.56-2.18,1.56-1,0-1.54-.77-1.54-1.9a2,2,0,0,1,2.26-2.21h1.46Zm2.83,3.39v-9.12c0-2.67-1.34-4.39-4.57-4.39a9.75,9.75,0,0,0-4,.9l.48,2.08a7.59,7.59,0,0,1,3.14-.77c1.64,0,2.1.79,2.1,2.49v1h-1.28c-3.21,0-5.27,1.3-5.27,4.26,0,2.51,1.52,3.9,3.65,3.9a4.14,4.14,0,0,0,3.34-1.74l.18,1.41Zm-11.77,0v-8.63c0-2.78-1.1-4.88-3.72-4.88a4.26,4.26,0,0,0-3.6,2l-.23-1.72h-2.2V133.2h2.87V124c.93-1.36,1.57-1.93,2.42-1.93,1.2,0,1.59,1.13,1.59,3.06v8.07Zm-12.89,0V120h-6.7v-1.31c0-1.49.08-2.8,1.54-2.8h.85v-2a5.92,5.92,0,0,0-1.65-.21c-2.72,0-3.61,2-3.61,5.14V120H99.15v2.23h1.52V133.2h2.87V122.25h3.83V133.2ZM110.5,116a1.76,1.76,0,1,0-1.77,1.82A1.73,1.73,0,0,0,110.5,116m-18.24,3.85a3.86,3.86,0,0,0-1.15-.2c-1.11,0-1.72.72-2.75,2.51L88.1,120H85.9V133.2h2.87v-8.58c1-1.65,1.54-2.26,2.13-2.26a2.85,2.85,0,0,1,1,.23ZM82.74,133.2V120H78.35v2.23h1.51V133.2ZM83,116a1.77,1.77,0,1,0-3.54,0A1.77,1.77,0,1,0,83,116m-6-.77H74c-.49,4.5-1.28,9.5-2.31,14.59h0L69,115.27H65.53l-2.64,14.59h0c-.87-4.47-1.74-9.86-2.31-14.59H57.24c.79,5.81,1.92,11.87,3.34,17.93h4.08l2.41-13.69h0l2.51,13.69h4c1.43-6.27,2.54-12.07,3.39-17.93" transform="translate(0 0)"/></g><g id="Bildmarke"><polygon class="cls-2" points="78.86 75.75 91.13 75.75 103.76 56.81 91.13 37.87 78.86 37.87 91.48 56.81 78.86 75.75"/><polygon class="cls-3" points="78.72 56.81 58.3 87.45 37.87 56.81 58.3 26.17 78.72 56.81"/></g><g id="BayernLB"><path class="cls-3" d="M137.86,75.75h-9.55V37.87h9.17c6.89,0,10.79,3.2,10.79,9.44,0,4-1.62,6.79-4.39,8,3.58.76,6.13,4.23,6.13,9.06C150,72.27,144.42,75.75,137.86,75.75Zm-.66-33h-2.71v11h3.2c3,0,4.18-2.28,4.18-5.54S140.46,42.7,137.2,42.7Zm.55,15.79h-3.26V70.81h3.85c3.21,0,5-2.12,5-6.13C143.39,60.88,141.71,58.49,137.75,58.49Z" transform="translate(0 0)"/><path class="cls-3" d="M168.78,75.75l-.38-3a8.7,8.7,0,0,1-7.05,3.69c-4.5,0-7.71-2.93-7.71-8.25,0-6.24,4.35-9,11.13-9h2.71V57.14c0-3.59-1-5.27-4.45-5.27a16.07,16.07,0,0,0-6.62,1.63l-1-4.4a20.93,20.93,0,0,1,8.41-1.89c6.84,0,9.66,3.63,9.66,9.27V75.75Zm-1.3-12.54h-3.09c-3.15,0-4.78,1.69-4.78,4.67,0,2.39,1.09,4,3.26,4,1.84,0,3.25-1.46,4.61-3.3Z" transform="translate(0 0)"/><path class="cls-3" d="M191.41,75.75c-3.69,9.33-6.73,11.66-10.69,11.66a8.72,8.72,0,0,1-3.14-.54l.21-4.45h2.55c1.69,0,2.72-1.3,4.56-6.46a176.07,176.07,0,0,1-7.65-28h6.35c1.3,7.54,3,14.49,4.83,21.27h.11a193.29,193.29,0,0,0,4-21.27h6C196.24,60.39,193.91,69.51,191.41,75.75Z" transform="translate(0 0)"/><path class="cls-3" d="M222.18,63.05h-14.6c0,5.37,1.47,8.52,5.81,8.52a23.31,23.31,0,0,0,7.49-1.3l.65,4.66a27.3,27.3,0,0,1-9,1.52c-7.54,0-11.23-4.77-11.23-14.43,0-9.17,3.85-14.81,11.17-14.81,7.06,0,9.77,4.77,9.77,12.8C222.23,60.66,222.18,62,222.18,63.05ZM212.25,51.6c-3.37,0-4.56,3.58-4.72,7.27h8.73C216.37,54.37,215,51.6,212.25,51.6Z" transform="translate(0 0)"/><path class="cls-3" d="M240.35,53.34a6.21,6.21,0,0,0-2.17-.49c-1.25,0-2.28,1.3-4.5,4.77V75.75H227.6V47.91h4.67l.54,4.61c2.17-3.79,3.47-5.31,5.81-5.31a7.79,7.79,0,0,1,2.44.43Z" transform="translate(0 0)"/><path class="cls-3" d="M260,75.75v-17c0-4.07-.81-6.46-3.36-6.46-1.79,0-3.14,1.2-5.1,4.07V75.75h-6.08V47.91h4.67l.49,3.64c2.06-2.82,4.34-4.34,7.59-4.34,5.54,0,7.87,4.45,7.87,10.31V75.75Z" transform="translate(0 0)"/><path class="cls-3" d="M278.84,75.75V38.34h6.27V70.55h10v5.2Z" transform="translate(0 0)"/><path class="cls-3" d="M309.33,75.75H299.9V38.34H309c6.81,0,10.67,3.16,10.67,9.32,0,4-1.61,6.7-4.34,7.88,3.54.75,6.05,4.18,6.05,8.95C321.33,72.32,315.81,75.75,309.33,75.75Zm-.64-32.64H306V54h3.16c3,0,4.13-2.25,4.13-5.47S311.9,43.11,308.69,43.11Zm.53,15.59H306V70.87h3.8c3.16,0,5-2.09,5-6.06C314.8,61.06,313.13,58.7,309.22,58.7Z" transform="translate(0 0)"/></g></svg>