<svg width="627" height="137" viewBox="0 0 627 137" fill="none" xmlns="http://www.w3.org/2000/svg">
<path d="M0 136.709H139.02V-4.48603e-05H0V136.709Z" fill="url(#paint0_linear)"/>
<path d="M10.8613 2.44826C8.16421 2.44826 6.40209 4.72363 5.98363 7.91439C5.56517 11.1051 2.51172 26.1632 2.51172 64.9133C2.51172 103.683 5.98363 129.049 5.98363 129.049C6.30402 132.115 8.16421 134.512 10.8613 134.512H131.192C133.879 134.512 136.017 132.38 136.063 129.049C136.108 125.718 134.726 99.3382 134.726 70.3206C134.726 41.2997 136.063 7.91439 136.063 7.91439C136.128 4.94593 133.879 2.44826 131.192 2.44826H10.8613Z" fill="url(#paint1_linear)"/>
<path d="M78.4378 16.3955C82.2333 17.9876 97.4875 26.2359 99.3575 28.8709C91.6814 29.8843 76.6266 33.8041 68.5189 37.7501L68.0449 38.7047C76.9862 36.7366 89.4845 35.7068 98.1021 35.2393C94.8852 39.9601 92.7537 42.2093 87.8597 47.5512L87.4052 48.5876C96.7323 42.9841 99.3575 42.582 107.956 37.5474C111.202 42.3499 111.983 53.4162 112.107 62.1875C114.906 56.6233 118.303 35.6611 116.89 31.872C122.592 27.9588 123.363 24.8072 123.363 24.8072C118.136 25.2584 115.252 25.3467 112.434 26.2359C105.755 22.1396 90.4391 16.7355 78.8791 15.4278L78.4378 16.3955Z" fill="url(#paint2_linear)"/>
<path d="M21.4884 81.5377C20.7332 88.5207 20.4292 93.5161 21.4296 99.1032C18.6017 99.8845 16.1236 99.9957 13.845 100.967L13.4102 101.925C17.0357 104.161 19.9878 105.874 24.0874 107.786C26.2811 112.497 28.5467 115.675 32.2213 119.304L32.6691 118.333C32.0088 115.655 31.1522 113.442 31.4759 110.516C36.0332 111.843 39.9432 112.546 45.138 112.703L45.576 111.732C41.0089 109.96 36.4451 108.564 32.7509 105.079C33.9114 101.849 35.242 99.3157 37.4128 96.1119L37.8705 95.1311C33.9474 95.7228 30.3905 97.158 26.997 97.8184C24.3228 93.1173 23.2832 86.6867 21.9363 80.5602L21.4884 81.5377Z" fill="url(#paint3_linear)"/>
<path d="M44.7663 49.6659C44.7663 49.6659 41.8306 49.3847 36.9725 49.5318C32.8664 49.7215 26.7431 50.0876 23.7648 50.9637L23.33 51.9184C28.0639 52.1211 34.55 53.3928 37.0313 55.8839C39.5127 58.3751 29.8456 62.3668 22.722 76.5552C15.5983 90.7436 35.6354 64.4395 41.2323 61.4351C46.8292 58.4307 44.1615 71.1904 46.195 76.0746L46.6429 75.1004C47.2052 71.962 48.6077 63.4489 50.9876 58.241C53.3676 53.0332 51.8311 57.7278 55.9601 57.3256C60.099 56.9562 65.9509 56.7372 77.063 58.6889L77.5141 57.7343C74.9772 56.237 64.8655 51.902 54.1621 50.4603H54.5119C55.9797 46.1384 57.8171 42.879 57.8171 42.879C55.5482 43.1993 49.0882 46.2201 44.7663 49.6659" fill="url(#paint4_linear)"/>
<path d="M71.8147 109.522C71.6489 107.646 71.5235 105.767 71.4387 103.886C69.3607 106.735 67.1436 109.48 64.7956 112.111C62.177 112.84 59.1824 112.811 56.4526 112.782C55.4261 112.762 54.3994 112.765 53.373 112.788L52.9316 113.759C55.4718 115.067 57.9662 115.871 60.6274 116.417C58.4697 118.382 55.5863 119.876 53.5593 121.246L53.1147 122.2C57.4562 121.174 63.1741 119.33 67.4339 116.816C69.6504 116.914 71.7199 116.767 73.24 116.466C74.7602 116.165 73.6945 115.475 73.6945 115.498C73.4166 114.518 72.5437 113.919 72.2887 112.546C76.2804 109.447 79.1737 106.622 82.5115 103.265L82.9758 102.291C79.6772 104.566 75.6723 107.695 71.8147 109.522" fill="url(#paint5_linear)"/>
<path d="M108.398 36.5657C99.8197 41.6101 97.1912 42.0351 87.8609 47.619C93.2943 41.7246 95.1839 39.2138 98.5447 34.2806C89.9434 34.7382 77.4451 35.7713 68.5202 37.7492C76.2878 33.6005 91.6891 28.9877 99.8197 27.8892C97.9334 25.2869 82.6759 17.0223 78.8803 15.4302C90.9601 16.3685 105.724 20.8833 112.883 25.2608C115.698 24.3813 118.628 24.3388 123.868 23.8713C122.534 26.1631 122.475 27.4904 117.333 30.9002C118.758 34.7088 115.355 55.6613 112.544 61.2091C112.442 52.4443 111.677 41.3748 108.398 36.5657V36.5657ZM45.5768 111.732C40.6468 109.904 37.0964 107.776 33.1864 104.121C34.3568 100.891 35.6939 98.3671 37.8712 95.1306C34.388 95.6268 30.9153 96.1947 27.4555 96.8338C24.6439 91.9169 23.369 87.1668 21.937 80.5597C21.172 87.5623 20.8811 92.5642 21.8684 98.1383C18.6972 99.0209 16.4545 99.7892 13.8457 100.963C17.5007 103.199 20.4495 104.922 24.5328 106.825C26.7232 111.532 28.992 114.707 32.6731 118.332C31.8101 115.243 31.5812 112.788 31.9343 109.548C36.4949 110.875 40.3983 111.575 45.5768 111.732ZM58.4117 42.0482C56.8752 44.0424 55.0935 47.7563 54.6129 49.4824C67.3204 51.2086 77.5171 57.7339 77.5171 57.7339C66.4017 55.7626 60.5498 56.0078 56.4044 56.3805C52.2852 56.7662 51.4352 57.2501 51.4352 57.2501C48.4406 63.8212 46.6425 75.1 46.6425 75.1C44.6222 70.2256 41.6995 60.4637 41.6995 60.4637C36.0928 63.4583 23.1957 75.5904 23.1957 75.5904C30.2866 61.3922 37.4822 54.9289 37.4822 54.9289C35.0074 52.4214 28.5147 51.1693 23.7645 50.9601C26.2295 49.9532 32.5555 48.7763 37.4135 48.554C42.2781 48.4134 45.2204 48.6913 45.2204 48.6913C49.5587 45.2651 56.1396 42.3817 58.4117 42.045V42.0482ZM71.8907 102.928C69.8103 105.776 67.5877 108.518 65.2313 111.143C61.3809 112.27 57.3856 112.824 53.3739 112.788C55.8072 114.031 58.4017 114.93 61.0827 115.459C58.7518 117.605 56.2356 119.542 53.5635 121.245C57.9083 120.215 63.6196 118.371 67.8729 115.857C70.0959 115.942 72.1719 115.799 73.6921 115.498C73.2965 114.21 73.0546 113.249 72.7309 111.575C76.7357 108.472 79.6421 105.664 82.9767 102.29C79.6008 104.694 76.0152 106.79 72.2634 108.551C72.0905 106.68 71.9662 104.805 71.8907 102.928" fill="white"/>
<path d="M189.732 52.3993C198.242 52.4712 201.357 54.2006 201.357 58.8331C201.357 60.1113 200.965 61.2458 200.213 62.1121C198.582 64.0737 195.407 65.0871 191.36 64.8321H191.151L188.774 71.024H191.151C195.849 70.8932 199.932 72.3709 202.031 74.934C202.998 76.1011 203.485 77.5069 203.485 78.9388C203.485 83.7838 199.219 86.2847 190.804 86.2847C189.389 86.2847 187.084 86.2847 185.652 86.239C185.45 80.291 185.333 74.3404 185.302 68.389C185.302 65.3356 185.501 58.5356 185.652 52.7294C186.623 52.5268 188.235 52.4025 189.732 52.4025V52.3993ZM173.974 47.9466C174.236 52.5398 174.501 64.1521 174.501 68.3857C174.501 72.2892 174.501 85.353 173.814 90.9859L173.771 91.4272H194.181C204.218 91.4272 214.823 88.3084 214.823 79.3965C214.823 73.8225 210.786 69.7 203.234 67.4442C208.837 65.9404 212.567 62.1154 212.567 57.7346C212.567 50.4606 204.214 47.7243 196.362 47.5347H173.853L173.974 47.9466ZM261.929 47.5347H251.997L252.4 58.6042C252.596 64.0736 252.779 69.7 253.165 75.1628C252.524 73.4498 251.925 72.5703 248.905 68.1765C248.895 68.0229 238.574 52.1443 234.988 47.636L234.89 47.5347H223.362V47.9466C223.728 52.5398 223.876 64.1554 223.876 68.389C223.876 72.2925 223.876 85.353 223.326 90.9859L223.228 91.4305H233.497V90.9859C232.912 80.2726 232.912 69.4613 232.912 58.9737C233.271 60.2454 233.722 61.3373 235.341 63.7336C235.475 64.0181 253.165 89.7697 254.024 91.2441L254.113 91.4305H262.341L262.328 90.9859C261.7 85.353 261.648 72.2925 261.648 68.389C261.648 64.1554 261.929 52.5398 262.197 47.9466L262.328 47.5347H261.929ZM288.868 52.8308C294.589 52.7262 298.587 53.8835 300.487 56.2863C301.356 57.3194 301.837 58.6827 301.837 60.2454C301.837 66.5975 294.69 67.9771 288.717 67.9771L286.292 67.8398L285.294 67.7417C285.252 66.2706 285.252 64.3352 285.252 62.1644C285.252 59.4019 285.252 56.1229 285.379 53.0858C286.535 52.9254 287.701 52.8402 288.868 52.8308V52.8308ZM273.806 47.9466C274.208 52.5398 274.362 64.1521 274.362 68.389C274.362 72.2892 274.362 85.3563 273.761 90.9859V91.4305H285.978L285.925 90.9859C285.507 86.932 285.294 79.2036 285.252 73.2994L287.56 73.4138L289.286 73.4498C305.358 73.4498 313.174 69.1998 313.174 60.2454C313.174 50.0618 302.209 47.7243 293.069 47.5347H273.806V47.9466ZM351.535 52.8308C357.273 52.7262 361.265 53.8835 363.187 56.2863C364.07 57.3194 364.511 58.6827 364.511 60.2454C364.511 66.5975 357.374 67.9771 351.477 67.9771L349.057 67.8398C349.057 67.8398 348.417 67.7842 348.044 67.7417C347.978 66.2706 347.978 64.3254 347.978 62.1644C347.978 59.3758 347.979 56.1229 348.09 53.0858C348.855 52.9746 350.175 52.8308 351.535 52.8308V52.8308ZM336.497 47.9466C336.883 52.5398 337.105 64.1521 337.105 68.389C337.105 72.2892 337.066 85.3563 336.432 90.9859V91.4305H348.658L348.587 90.9859C348.198 86.932 347.975 79.2036 347.975 73.2994C348.544 73.3255 350.175 73.4138 350.175 73.4138L351.947 73.4498C368.012 73.4498 375.898 69.1998 375.898 60.2454C375.898 50.0618 364.871 47.7243 355.694 47.5347H336.497V47.9466ZM395.212 60.4611C396.183 62.5534 398.707 68.389 401.545 75.3525C401.107 75.3721 400.557 75.3721 400.557 75.3721L395.212 75.444C395.212 75.444 389.681 75.3721 388.755 75.3525C391.064 69.785 393.349 64.7536 395.212 60.4611V60.4611ZM392.24 47.5347H392.08L391.995 47.7537C389.72 54.0012 375.064 85.984 372.743 90.8813L372.55 91.4305H382.956L383.044 91.1886C383.96 88.1776 385.192 84.7842 386.532 81.1619C386.948 81.1619 395.212 81.0376 395.212 81.0376L402.401 81.0899C402.401 81.0899 403.559 81.1619 403.905 81.1619C405.755 85.8793 407.178 89.4363 407.795 91.2441L407.913 91.4305H419.973L400.492 47.5347H400.25H392.24ZM424.874 47.9466C425.224 52.5398 425.4 64.1554 425.4 68.389C425.4 72.2925 425.4 85.353 424.733 90.9859V91.4305H437.026L436.973 90.9859C436.323 85.3138 436.277 72.2925 436.277 68.389C436.277 65.3388 436.375 58.5389 436.676 53.04C437.611 52.9746 439.03 52.8308 439.991 52.8308C445.679 52.7262 449.7 53.8998 451.577 56.2863C452.479 57.3227 452.885 58.7154 452.885 60.2421C452.885 65.3159 448.154 67.8856 443.744 68.1144C442.266 68.1765 441.168 67.9836 441.168 67.9836L440.311 67.8398L440.782 68.644C445.146 75.0092 451.672 86.0297 454.369 91.2441L454.444 91.4305H467.576L467.249 90.8388C466.713 90.0999 458.161 77.5101 454.526 72.1323C454.526 72.1323 454.369 71.9786 454.209 71.8053C460.943 69.785 464.196 66.0188 464.196 60.2454C464.196 50.137 453.231 47.7308 443.973 47.5347H424.838L424.874 47.9466ZM484.956 47.5347H473.252L473.317 47.9466C473.618 52.5398 473.853 64.1554 473.853 68.389C473.853 72.2729 473.801 85.3138 473.249 90.9859L473.203 91.4305H485.338L485.276 90.9859C484.808 85.3138 484.665 72.2729 484.665 68.389C484.665 64.1554 484.959 52.5398 485.276 47.9466V47.5347H484.956ZM512.156 52.3993C520.727 52.4712 523.846 54.2006 523.846 58.8331C523.846 60.1113 523.454 61.2458 522.673 62.1121C521.126 64.0737 517.828 65.0871 513.806 64.8321H513.61L511.247 71.024H513.607C518.321 70.8932 522.369 72.3709 524.464 74.934C525.487 76.1011 525.975 77.5069 525.975 78.9388C525.975 83.7838 521.692 86.2847 513.228 86.2847C511.871 86.2847 509.583 86.2847 508.151 86.239C507.801 79.7724 507.801 71.024 507.801 68.389C507.801 65.3356 507.909 58.5356 508.151 52.7294C509.076 52.5268 510.681 52.4025 512.156 52.4025V52.3993ZM496.401 47.9466C496.751 52.5398 496.963 64.1521 496.963 68.3857C496.963 72.2892 496.963 85.353 496.349 90.9859L496.251 91.4272H516.693C526.687 91.4272 537.332 88.3084 537.332 79.3965C537.332 73.8225 533.284 69.7 525.667 67.4442C531.28 65.9404 535.056 62.1154 535.056 57.7346C535.056 50.4606 526.687 47.7243 518.906 47.5347H496.349L496.401 47.9466ZM562.338 60.4383C563.319 62.4815 565.826 68.3269 568.667 75.3067C568.236 75.3067 567.706 75.3525 567.706 75.3525L562.338 75.4244C562.338 75.4244 556.741 75.3067 555.911 75.3067C557.956 70.309 560.099 65.352 562.338 60.4383V60.4383ZM567.389 47.5347H559.17L559.121 47.7308C556.666 54.3771 541.183 88.0468 539.882 90.8388L539.653 91.4272H550.114L550.18 91.1657C551.053 88.158 552.269 84.7842 553.629 81.0899C553.962 81.0899 562.273 80.9592 562.273 80.9592L569.475 81.0736L571.005 81.0899C572.894 85.8074 574.297 89.3938 574.908 91.1689L575.019 91.4305H587.122L567.654 47.5347H567.389ZM590.545 58.8854C590.545 66.5975 598.27 69.7 605.109 72.5377C610.438 74.6594 616.006 76.8923 616.006 80.5701C616.006 81.6817 615.787 82.6167 615.165 83.2738C613.884 84.7842 611.291 85.4184 607.175 85.1895C603.102 85.0261 598.505 83.7413 593.334 81.358L591.307 80.3838V89.9463L592.686 90.2993L593.49 90.4366C596.044 91.0709 600.977 92.2314 605.874 92.2314C618.768 92.2314 626.461 87.089 626.461 78.589C626.461 70.6055 618.516 67.5031 611.501 64.7046C606.332 62.609 600.98 60.5331 600.98 57.1102C600.98 56.1229 600.98 53.2427 607.659 53.2427C612.579 53.2427 617.362 55.2467 620.079 56.2831L622.557 57.3227L622.541 55.675V47.7243L620.079 47.2797C617.575 46.7729 613.397 45.9393 609.094 45.9393C597.973 45.9393 590.548 51.1929 590.548 58.8854" fill="black"/>
<defs>
<linearGradient id="paint0_linear" x1="69.5102" y1="-3.41638" x2="69.5102" y2="143.338" gradientUnits="userSpaceOnUse">
<stop stop-color="#007348"/>
<stop offset="0.6" stop-color="#8DC9AB"/>
<stop offset="1" stop-color="#00925B"/>
</linearGradient>
<linearGradient id="paint1_linear" x1="69.2921" y1="-34.5332" x2="69.2921" y2="130.378" gradientUnits="userSpaceOnUse">
<stop stop-color="#00925B"/>
<stop offset="0.3" stop-color="#8DC9AB"/>
<stop offset="0.55" stop-color="#00925B"/>
<stop offset="0.835" stop-color="#007348"/>
<stop offset="1" stop-color="#009C6D"/>
</linearGradient>
<linearGradient id="paint2_linear" x1="95.7058" y1="121.272" x2="95.7058" y2="14.555" gradientUnits="userSpaceOnUse">
<stop stop-color="#00A678"/>
<stop offset="1" stop-color="#00925B"/>
</linearGradient>
<linearGradient id="paint3_linear" x1="29.4947" y1="121.278" x2="29.4947" y2="14.5289" gradientUnits="userSpaceOnUse">
<stop stop-color="#00A678"/>
<stop offset="1" stop-color="#00925B"/>
</linearGradient>
<linearGradient id="paint4_linear" x1="50.1213" y1="121.255" x2="50.1213" y2="14.576" gradientUnits="userSpaceOnUse">
<stop stop-color="#00A678"/>
<stop offset="1" stop-color="#00925B"/>
</linearGradient>
<linearGradient id="paint5_linear" x1="67.9504" y1="121.268" x2="67.9504" y2="14.5524" gradientUnits="userSpaceOnUse">
<stop stop-color="#00A678"/>
<stop offset="1" stop-color="#00925B"/>
</linearGradient>
</defs>
</svg>
