<svg xmlns="http://www.w3.org/2000/svg" viewBox="0 0 100 21.62"><defs><style>.cls-1{fill:#002065;}.cls-2{fill:#0782bc;}</style></defs><g id="Layer_2" data-name="Layer 2"><g id="Bildmarke"><polygon class="cls-1" points="14.46 17.49 18.79 17.49 23.24 10.81 18.79 4.13 14.46 4.13 18.91 10.81 14.46 17.49"/><polygon class="cls-2" points="14.41 10.81 7.21 21.62 0 10.81 7.21 0 14.41 10.81"/></g><g id="BayernLB"><path class="cls-2" d="M35.27,17.49H31.9V4.13h3.24C37.57,4.13,39,5.26,39,7.46a2.81,2.81,0,0,1-1.55,2.81,3,3,0,0,1,2.16,3.2C39.56,16.26,37.59,17.49,35.27,17.49ZM35,5.83h-.95V9.72h1.13c1.07,0,1.47-.81,1.47-2S36.19,5.83,35,5.83Zm.19,5.57H34.09v4.35h1.35c1.13,0,1.79-.75,1.79-2.17S36.63,11.4,35.23,11.4Z"/><path class="cls-2" d="M46.18,17.49l-.13-1a3.1,3.1,0,0,1-2.49,1.3,2.62,2.62,0,0,1-2.72-2.91c0-2.2,1.53-3.18,3.93-3.18h.95v-.73c0-1.26-.34-1.85-1.57-1.85a5.69,5.69,0,0,0-2.33.57l-.37-1.55a7.39,7.39,0,0,1,3-.67c2.41,0,3.41,1.28,3.41,3.27v6.8Zm-.46-4.42H44.63A1.49,1.49,0,0,0,43,14.71c0,.85.38,1.42,1.15,1.42s1.14-.52,1.62-1.17Z"/><path class="cls-2" d="M54.17,17.49c-1.31,3.29-2.38,4.11-3.77,4.11a3,3,0,0,1-1.12-.19l.08-1.57h.9c.59,0,1-.46,1.61-2.27a62.51,62.51,0,0,1-2.7-9.9h2.24c.46,2.66,1.05,5.11,1.7,7.5h0a66.94,66.94,0,0,0,1.42-7.5h2.12A55.36,55.36,0,0,1,54.17,17.49Z"/><path class="cls-2" d="M65,13H59.87c0,1.9.52,3,2.05,3a8.43,8.43,0,0,0,2.64-.46l.23,1.64a9.58,9.58,0,0,1-3.18.54c-2.66,0-4-1.69-4-5.09,0-3.24,1.36-5.23,3.94-5.23S65,9.11,65,11.94C65,12.17,65,12.65,65,13Zm-3.5-4c-1.19,0-1.61,1.26-1.67,2.57h3.08C63,10,62.49,9,61.52,9Z"/><path class="cls-2" d="M71.43,9.58a2.3,2.3,0,0,0-.76-.17c-.45,0-.81.46-1.59,1.69v6.39H66.93V7.67h1.65l.19,1.63c.77-1.34,1.23-1.88,2-1.88a2.88,2.88,0,0,1,.86.15Z"/><path class="cls-2" d="M78.36,17.49v-6c0-1.44-.29-2.28-1.19-2.28-.63,0-1.11.42-1.79,1.44v6.85H73.23V7.67h1.65L75.05,9a3.17,3.17,0,0,1,2.68-1.53c2,0,2.77,1.57,2.77,3.64v6.43Z"/><path class="cls-2" d="M85,17.49V4.29h2.21V15.66h3.53v1.83Z"/><path class="cls-2" d="M95.76,17.49H92.44V4.29h3.19c2.4,0,3.76,1.12,3.76,3.29a2.76,2.76,0,0,1-1.53,2.78A3,3,0,0,1,100,13.52C100,16.28,98.05,17.49,95.76,17.49ZM95.54,6h-1V9.81h1.12c1.06,0,1.45-.79,1.45-1.93S96.67,6,95.54,6Zm.19,5.5H94.59v4.29h1.35c1.11,0,1.75-.74,1.75-2.14S97.11,11.48,95.73,11.48Z"/></g></g></svg>