<svg width="1411" height="650" viewBox="0 0 1411 650" fill="none" xmlns="http://www.w3.org/2000/svg">
<rect x="179" y="226" width="397" height="54" fill="#5279DF"/>
<path d="M607 253.404L573 298.404L573 209L607 253.404Z" fill="#5279DF"/>
<path d="M316.928 261L318.223 257.02H324.522L325.817 261H329.772L323.755 243.545H318.999L312.973 261H316.928ZM319.161 254.139L321.309 247.534H321.445L323.593 254.139H319.161ZM342.368 247.909H338.525L335.814 257.276H335.678L332.959 247.909H329.124L333.701 261H337.792L342.368 247.909ZM347.584 261.247C349.519 261.247 350.772 260.403 351.411 259.185H351.513V261H354.956V252.17C354.956 249.051 352.314 247.739 349.4 247.739C346.263 247.739 344.201 249.239 343.698 251.625L347.056 251.898C347.303 251.028 348.078 250.389 349.382 250.389C350.618 250.389 351.326 251.011 351.326 252.085V252.136C351.326 252.98 350.431 253.091 348.155 253.312C345.564 253.551 343.238 254.42 343.238 257.344C343.238 259.935 345.087 261.247 347.584 261.247ZM348.624 258.741C347.507 258.741 346.706 258.222 346.706 257.224C346.706 256.202 347.55 255.699 348.828 255.52C349.621 255.409 350.917 255.222 351.351 254.932V256.321C351.351 257.693 350.218 258.741 348.624 258.741ZM361.404 243.545H357.773V261H361.404V243.545ZM368.045 261.247C369.98 261.247 371.233 260.403 371.872 259.185H371.974V261H375.417V252.17C375.417 249.051 372.775 247.739 369.86 247.739C366.724 247.739 364.662 249.239 364.159 251.625L367.517 251.898C367.764 251.028 368.539 250.389 369.843 250.389C371.079 250.389 371.787 251.011 371.787 252.085V252.136C371.787 252.98 370.892 253.091 368.616 253.312C366.025 253.551 363.699 254.42 363.699 257.344C363.699 259.935 365.548 261.247 368.045 261.247ZM369.085 258.741C367.968 258.741 367.167 258.222 367.167 257.224C367.167 256.202 368.011 255.699 369.289 255.52C370.082 255.409 371.377 255.222 371.812 254.932V256.321C371.812 257.693 370.679 258.741 369.085 258.741ZM381.865 253.432C381.873 251.744 382.879 250.756 384.345 250.756C385.802 250.756 386.68 251.71 386.672 253.312V261H390.302V252.665C390.302 249.614 388.512 247.739 385.785 247.739C383.842 247.739 382.436 248.693 381.848 250.219H381.694V247.909H378.234V261H381.865V253.432ZM400.127 247.909H397.664V244.773H394.033V247.909H392.243V250.636H394.033V257.455C394.016 260.02 395.763 261.29 398.397 261.179C399.334 261.145 399.999 260.957 400.365 260.838L399.794 258.136C399.615 258.17 399.232 258.256 398.891 258.256C398.167 258.256 397.664 257.983 397.664 256.977V250.636H400.127V247.909ZM402.492 261H406.123V253.594C406.123 251.983 407.299 250.875 408.901 250.875C409.404 250.875 410.094 250.96 410.435 251.071V247.849C410.111 247.773 409.659 247.722 409.293 247.722C407.827 247.722 406.625 248.574 406.148 250.193H406.012V247.909H402.492V261ZM415.67 261.247C417.605 261.247 418.858 260.403 419.497 259.185H419.599V261H423.042V252.17C423.042 249.051 420.4 247.739 417.485 247.739C414.349 247.739 412.287 249.239 411.784 251.625L415.142 251.898C415.389 251.028 416.164 250.389 417.468 250.389C418.704 250.389 419.412 251.011 419.412 252.085V252.136C419.412 252.98 418.517 253.091 416.241 253.312C413.65 253.551 411.324 254.42 411.324 257.344C411.324 259.935 413.173 261.247 415.67 261.247ZM416.71 258.741C415.593 258.741 414.792 258.222 414.792 257.224C414.792 256.202 415.636 255.699 416.914 255.52C417.707 255.409 419.002 255.222 419.437 254.932V256.321C419.437 257.693 418.304 258.741 416.71 258.741ZM431.757 266.182C435.498 266.182 438.157 264.477 438.157 261.128V247.909H434.552V250.108H434.416C433.93 249.043 432.865 247.739 430.674 247.739C427.802 247.739 425.373 249.972 425.373 254.429C425.373 258.784 427.734 260.812 430.683 260.812C432.771 260.812 433.939 259.764 434.416 258.682H434.569V261.077C434.569 262.875 433.419 263.574 431.842 263.574C430.24 263.574 429.43 262.875 429.132 262.082L425.774 262.534C426.208 264.597 428.228 266.182 431.757 266.182ZM431.833 258.085C430.052 258.085 429.081 256.67 429.081 254.412C429.081 252.188 430.035 250.628 431.833 250.628C433.598 250.628 434.586 252.119 434.586 254.412C434.586 256.722 433.581 258.085 431.833 258.085Z" fill="white"/>
<rect width="400" height="54" transform="matrix(-1 0 0 1 1234 420)" fill="#5279DF"/>
<path d="M806 447.404L840 492.404L840 403L806 447.404Z" fill="#5279DF"/>
<path d="M896.504 446.273C896.504 450.509 897.62 454.028 899.947 457.062H903.416C901.635 454.812 900.279 450.312 900.279 446.273C900.279 442.241 901.635 437.741 903.416 435.491H899.947C897.62 438.526 896.504 442.037 896.504 446.273ZM904.926 440.588H910.27V455H913.918V440.588H919.262V437.545H904.926V440.588ZM925.622 455.256C928.86 455.256 931.042 453.679 931.554 451.25L928.196 451.028C927.829 452.026 926.892 452.545 925.681 452.545C923.866 452.545 922.716 451.344 922.716 449.392V449.384H931.63V448.386C931.63 443.938 928.937 441.739 925.477 441.739C921.625 441.739 919.127 444.474 919.127 448.514C919.127 452.665 921.591 455.256 925.622 455.256ZM922.716 447.134C922.792 445.642 923.926 444.449 925.537 444.449C927.113 444.449 928.204 445.574 928.213 447.134H922.716ZM934 455H937.63V441.909H934V455ZM935.824 440.222C936.906 440.222 937.792 439.395 937.792 438.381C937.792 437.375 936.906 436.548 935.824 436.548C934.75 436.548 933.863 437.375 933.863 438.381C933.863 439.395 934.75 440.222 935.824 440.222ZM944.169 437.545H940.539V455H944.169V437.545ZM955.234 446.392H947.274V449.273H955.234V446.392ZM964.447 448.003C964.447 443.767 963.331 440.247 961.004 437.213H957.535C959.316 439.463 960.672 443.963 960.672 448.003C960.672 452.034 959.316 456.534 957.535 458.784H961.004C963.331 455.75 964.447 452.239 964.447 448.003ZM971.907 437.545H968.216V455H971.907V437.545ZM978.505 447.432C978.514 445.744 979.52 444.756 980.985 444.756C982.443 444.756 983.321 445.71 983.312 447.312V455H986.943V446.665C986.943 443.614 985.153 441.739 982.426 441.739C980.483 441.739 979.076 442.693 978.488 444.219H978.335V441.909H974.875V455H978.505V447.432ZM993.537 455.247C995.472 455.247 996.725 454.403 997.364 453.185H997.466V455H1000.91V446.17C1000.91 443.051 998.267 441.739 995.353 441.739C992.216 441.739 990.154 443.239 989.651 445.625L993.009 445.898C993.256 445.028 994.032 444.389 995.336 444.389C996.571 444.389 997.279 445.011 997.279 446.085V446.136C997.279 446.98 996.384 447.091 994.108 447.312C991.517 447.551 989.191 448.42 989.191 451.344C989.191 453.935 991.04 455.247 993.537 455.247ZM994.577 452.741C993.461 452.741 992.659 452.222 992.659 451.224C992.659 450.202 993.503 449.699 994.782 449.52C995.574 449.409 996.87 449.222 997.304 448.932V450.321C997.304 451.693 996.171 452.741 994.577 452.741ZM1007.36 447.432C1007.37 445.744 1008.37 444.756 1009.84 444.756C1011.29 444.756 1012.17 445.71 1012.16 447.312V455H1015.79V446.665C1015.79 443.614 1014 441.739 1011.28 441.739C1009.33 441.739 1007.93 442.693 1007.34 444.219H1007.19V441.909H1003.73V455H1007.36V447.432ZM1029.55 445.642C1029.22 443.23 1027.28 441.739 1023.97 441.739C1020.62 441.739 1018.42 443.29 1018.43 445.812C1018.42 447.773 1019.65 449.043 1022.21 449.554L1024.48 450.006C1025.62 450.236 1026.14 450.653 1026.16 451.31C1026.14 452.085 1025.3 452.639 1024.03 452.639C1022.73 452.639 1021.87 452.085 1021.65 451.02L1018.08 451.207C1018.42 453.713 1020.55 455.256 1024.02 455.256C1027.41 455.256 1029.84 453.526 1029.85 450.943C1029.84 449.051 1028.6 447.918 1026.06 447.398L1023.69 446.92C1022.47 446.656 1022.02 446.239 1022.03 445.608C1022.02 444.824 1022.91 444.312 1024.03 444.312C1025.3 444.312 1026.05 445.003 1026.22 445.847L1029.55 445.642ZM1032.13 459.909H1035.76V452.903H1035.87C1036.38 453.994 1037.48 455.213 1039.59 455.213C1042.57 455.213 1044.9 452.852 1044.9 448.472C1044.9 443.972 1042.47 441.739 1039.6 441.739C1037.41 441.739 1036.36 443.043 1035.87 444.108H1035.71V441.909H1032.13V459.909ZM1035.69 448.455C1035.69 446.119 1036.68 444.628 1038.44 444.628C1040.24 444.628 1041.19 446.188 1041.19 448.455C1041.19 450.739 1040.22 452.324 1038.44 452.324C1036.69 452.324 1035.69 450.79 1035.69 448.455ZM1047.32 455H1050.95V447.594C1050.95 445.983 1052.13 444.875 1053.73 444.875C1054.23 444.875 1054.92 444.96 1055.26 445.071V441.849C1054.94 441.773 1054.49 441.722 1054.12 441.722C1052.66 441.722 1051.45 442.574 1050.98 444.193H1050.84V441.909H1047.32V455ZM1065.54 449.426C1065.54 451.182 1064.34 452.102 1063.04 452.102C1061.67 452.102 1060.78 451.139 1060.77 449.597V441.909H1057.14V450.244C1057.15 453.304 1058.94 455.17 1061.57 455.17C1063.54 455.17 1064.96 454.156 1065.54 452.622H1065.68V455H1069.17V441.909H1065.54V449.426ZM1077.98 455.256C1081.47 455.256 1083.66 453.21 1083.83 450.202H1080.41C1080.19 451.599 1079.27 452.384 1078.03 452.384C1076.33 452.384 1075.23 450.96 1075.23 448.455C1075.23 445.983 1076.34 444.568 1078.03 444.568C1079.36 444.568 1080.21 445.446 1080.41 446.75H1083.83C1083.68 443.724 1081.39 441.739 1077.97 441.739C1074 441.739 1071.54 444.491 1071.54 448.506C1071.54 452.486 1073.95 455.256 1077.98 455.256ZM1089.79 447.432C1089.8 445.744 1090.83 444.756 1092.31 444.756C1093.78 444.756 1094.65 445.702 1094.64 447.312V455H1098.28V446.665C1098.28 443.597 1096.48 441.739 1093.75 441.739C1091.76 441.739 1090.43 442.676 1089.84 444.219H1089.68V437.545H1086.16V455H1089.79V447.432ZM1104.76 447.432C1104.77 445.744 1105.78 444.756 1107.24 444.756C1108.7 444.756 1109.58 445.71 1109.57 447.312V455H1113.2V446.665C1113.2 443.614 1111.41 441.739 1108.68 441.739C1106.74 441.739 1105.33 442.693 1104.75 444.219H1104.59V441.909H1101.13V455H1104.76V447.432ZM1119.8 455.247C1121.73 455.247 1122.98 454.403 1123.62 453.185H1123.72V455H1127.17V446.17C1127.17 443.051 1124.53 441.739 1121.61 441.739C1118.47 441.739 1116.41 443.239 1115.91 445.625L1119.27 445.898C1119.51 445.028 1120.29 444.389 1121.59 444.389C1122.83 444.389 1123.54 445.011 1123.54 446.085V446.136C1123.54 446.98 1122.64 447.091 1120.37 447.312C1117.78 447.551 1115.45 448.42 1115.45 451.344C1115.45 453.935 1117.3 455.247 1119.8 455.247ZM1120.83 452.741C1119.72 452.741 1118.92 452.222 1118.92 451.224C1118.92 450.202 1119.76 449.699 1121.04 449.52C1121.83 449.409 1123.13 449.222 1123.56 448.932V450.321C1123.56 451.693 1122.43 452.741 1120.83 452.741ZM1133.61 447.432C1133.62 445.744 1134.65 444.756 1136.14 444.756C1137.61 444.756 1138.48 445.702 1138.47 447.312V455H1142.1V446.665C1142.11 443.597 1140.31 441.739 1137.58 441.739C1135.59 441.739 1134.26 442.676 1133.67 444.219H1133.51V437.545H1129.98V455H1133.61V447.432ZM1144.96 455H1148.59V447.142C1148.59 445.693 1149.51 444.73 1150.72 444.73C1151.92 444.73 1152.72 445.548 1152.72 446.835V455H1156.24V447.006C1156.24 445.651 1157.01 444.73 1158.33 444.73C1159.49 444.73 1160.36 445.455 1160.36 446.912V455H1163.98V446.196C1163.98 443.358 1162.3 441.739 1159.86 441.739C1157.94 441.739 1156.45 442.719 1155.91 444.219H1155.78C1155.36 442.702 1154.02 441.739 1152.22 441.739C1150.46 441.739 1149.12 442.676 1148.57 444.219H1148.42V441.909H1144.96V455ZM1172.82 455.256C1176.06 455.256 1178.24 453.679 1178.75 451.25L1175.39 451.028C1175.02 452.026 1174.09 452.545 1172.88 452.545C1171.06 452.545 1169.91 451.344 1169.91 449.392V449.384H1178.83V448.386C1178.83 443.938 1176.13 441.739 1172.67 441.739C1168.82 441.739 1166.32 444.474 1166.32 448.514C1166.32 452.665 1168.79 455.256 1172.82 455.256ZM1169.91 447.134C1169.99 445.642 1171.12 444.449 1172.73 444.449C1174.31 444.449 1175.4 445.574 1175.41 447.134H1169.91Z" fill="white"/>
<rect width="400" height="54" transform="matrix(-1 0 0 1 1234 541)" fill="#5279DF"/>
<path d="M806 568.404L840 613.404L840 524L806 568.404Z" fill="#5279DF"/>
<path d="M918.876 576H922.567V568.79H930.058V576H933.74V558.545H930.058V565.747H922.567V558.545H918.876V576ZM940.447 576.247C942.382 576.247 943.635 575.403 944.274 574.185H944.376V576H947.82V567.17C947.82 564.051 945.178 562.739 942.263 562.739C939.126 562.739 937.064 564.239 936.561 566.625L939.919 566.898C940.166 566.028 940.942 565.389 942.246 565.389C943.482 565.389 944.189 566.011 944.189 567.085V567.136C944.189 567.98 943.294 568.091 941.018 568.312C938.428 568.551 936.101 569.42 936.101 572.344C936.101 574.935 937.95 576.247 940.447 576.247ZM941.487 573.741C940.371 573.741 939.57 573.222 939.57 572.224C939.57 571.202 940.413 570.699 941.692 570.52C942.484 570.409 943.78 570.222 944.214 569.932V571.321C944.214 572.693 943.081 573.741 941.487 573.741ZM957.676 562.909H955.077V562.031C955.077 561.145 955.435 560.625 956.5 560.625C956.935 560.625 957.378 560.719 957.668 560.812L958.307 558.085C957.855 557.949 956.858 557.727 955.741 557.727C953.278 557.727 951.446 559.116 951.446 561.963V562.909H949.597V565.636H951.446V576H955.077V565.636H957.676V562.909ZM966.857 562.909H964.394V559.773H960.763V562.909H958.974V565.636H960.763V572.455C960.746 575.02 962.494 576.29 965.127 576.179C966.065 576.145 966.729 575.957 967.096 575.838L966.525 573.136C966.346 573.17 965.962 573.256 965.621 573.256C964.897 573.256 964.394 572.983 964.394 571.977V565.636H966.857V562.909ZM977.617 570.426C977.626 572.182 976.424 573.102 975.12 573.102C973.748 573.102 972.862 572.139 972.853 570.597V562.909H969.222V571.244C969.231 574.304 971.021 576.17 973.654 576.17C975.623 576.17 977.038 575.156 977.626 573.622H977.762V576H981.248V562.909H977.617V570.426ZM987.783 568.432C987.791 566.744 988.797 565.756 990.263 565.756C991.72 565.756 992.598 566.71 992.589 568.312V576H996.22V567.665C996.22 564.614 994.43 562.739 991.703 562.739C989.76 562.739 988.354 563.693 987.766 565.219H987.612V562.909H984.152V576H987.783V568.432ZM1004.98 581.182C1008.72 581.182 1011.38 579.477 1011.38 576.128V562.909H1007.77V565.108H1007.64C1007.15 564.043 1006.09 562.739 1003.9 562.739C1001.02 562.739 998.596 564.972 998.596 569.429C998.596 573.784 1000.96 575.812 1003.91 575.812C1005.99 575.812 1007.16 574.764 1007.64 573.682H1007.79V576.077C1007.79 577.875 1006.64 578.574 1005.06 578.574C1003.46 578.574 1002.65 577.875 1002.35 577.082L998.996 577.534C999.431 579.597 1001.45 581.182 1004.98 581.182ZM1005.06 573.085C1003.27 573.085 1002.3 571.67 1002.3 569.412C1002.3 567.188 1003.26 565.628 1005.06 565.628C1006.82 565.628 1007.81 567.119 1007.81 569.412C1007.81 571.722 1006.8 573.085 1005.06 573.085ZM1025.16 566.642C1024.84 564.23 1022.89 562.739 1019.59 562.739C1016.24 562.739 1014.03 564.29 1014.04 566.812C1014.03 568.773 1015.27 570.043 1017.82 570.554L1020.09 571.006C1021.23 571.236 1021.75 571.653 1021.77 572.31C1021.75 573.085 1020.91 573.639 1019.64 573.639C1018.34 573.639 1017.48 573.085 1017.26 572.02L1013.69 572.207C1014.03 574.713 1016.16 576.256 1019.63 576.256C1023.02 576.256 1025.45 574.526 1025.46 571.943C1025.45 570.051 1024.22 568.918 1021.68 568.398L1019.31 567.92C1018.09 567.656 1017.64 567.239 1017.64 566.608C1017.64 565.824 1018.52 565.312 1019.65 565.312C1020.91 565.312 1021.66 566.003 1021.84 566.847L1025.16 566.642ZM1033.71 576.256C1036.95 576.256 1039.13 574.679 1039.64 572.25L1036.29 572.028C1035.92 573.026 1034.98 573.545 1033.77 573.545C1031.96 573.545 1030.81 572.344 1030.81 570.392V570.384H1039.72V569.386C1039.72 564.938 1037.03 562.739 1033.57 562.739C1029.71 562.739 1027.22 565.474 1027.22 569.514C1027.22 573.665 1029.68 576.256 1033.71 576.256ZM1030.81 568.134C1030.88 566.642 1032.02 565.449 1033.63 565.449C1035.2 565.449 1036.29 566.574 1036.3 568.134H1030.81ZM1045.72 568.432C1045.73 566.744 1046.73 565.756 1048.2 565.756C1049.66 565.756 1050.54 566.71 1050.53 568.312V576H1054.16V567.665C1054.16 564.614 1052.37 562.739 1049.64 562.739C1047.7 562.739 1046.29 563.693 1045.7 565.219H1045.55V562.909H1042.09V576H1045.72V568.432ZM1063.98 562.909H1061.52V559.773H1057.89V562.909H1056.1V565.636H1057.89V572.455C1057.87 575.02 1059.62 576.29 1062.25 576.179C1063.19 576.145 1063.85 575.957 1064.22 575.838L1063.65 573.136C1063.47 573.17 1063.09 573.256 1062.75 573.256C1062.02 573.256 1061.52 572.983 1061.52 571.977V565.636H1063.98V562.909ZM1070.26 558.545H1066.63V576H1070.26V558.545ZM1076.9 576.247C1078.84 576.247 1080.09 575.403 1080.73 574.185H1080.83V576H1084.27V567.17C1084.27 564.051 1081.63 562.739 1078.72 562.739C1075.58 562.739 1073.52 564.239 1073.01 566.625L1076.37 566.898C1076.62 566.028 1077.39 565.389 1078.7 565.389C1079.93 565.389 1080.64 566.011 1080.64 567.085V567.136C1080.64 567.98 1079.75 568.091 1077.47 568.312C1074.88 568.551 1072.55 569.42 1072.55 572.344C1072.55 574.935 1074.4 576.247 1076.9 576.247ZM1077.94 573.741C1076.82 573.741 1076.02 573.222 1076.02 572.224C1076.02 571.202 1076.87 570.699 1078.14 570.52C1078.94 570.409 1080.23 570.222 1080.67 569.932V571.321C1080.67 572.693 1079.53 573.741 1077.94 573.741ZM1097.98 566.642C1097.66 564.23 1095.71 562.739 1092.41 562.739C1089.06 562.739 1086.85 564.29 1086.86 566.812C1086.85 568.773 1088.09 570.043 1090.64 570.554L1092.91 571.006C1094.05 571.236 1094.57 571.653 1094.59 572.31C1094.57 573.085 1093.73 573.639 1092.46 573.639C1091.16 573.639 1090.3 573.085 1090.08 572.02L1086.51 572.207C1086.85 574.713 1088.98 576.256 1092.45 576.256C1095.84 576.256 1098.27 574.526 1098.28 571.943C1098.27 570.051 1097.04 568.918 1094.5 568.398L1092.13 567.92C1090.91 567.656 1090.46 567.239 1090.46 566.608C1090.46 565.824 1091.34 565.312 1092.47 565.312C1093.73 565.312 1094.48 566.003 1094.66 566.847L1097.98 566.642ZM1111.46 566.642C1111.13 564.23 1109.19 562.739 1105.88 562.739C1102.53 562.739 1100.33 564.29 1100.34 566.812C1100.33 568.773 1101.56 570.043 1104.12 570.554L1106.39 571.006C1107.53 571.236 1108.05 571.653 1108.07 572.31C1108.05 573.085 1107.21 573.639 1105.94 573.639C1104.64 573.639 1103.78 573.085 1103.56 572.02L1099.99 572.207C1100.33 574.713 1102.46 576.256 1105.93 576.256C1109.32 576.256 1111.75 574.526 1111.76 571.943C1111.75 570.051 1110.51 568.918 1107.97 568.398L1105.6 567.92C1104.38 567.656 1103.93 567.239 1103.94 566.608C1103.93 565.824 1104.82 565.312 1105.94 565.312C1107.21 565.312 1107.96 566.003 1108.13 566.847L1111.46 566.642ZM1122.44 570.426C1122.45 572.182 1121.24 573.102 1119.94 573.102C1118.57 573.102 1117.68 572.139 1117.67 570.597V562.909H1114.04V571.244C1114.05 574.304 1115.84 576.17 1118.47 576.17C1120.44 576.17 1121.86 575.156 1122.45 573.622H1122.58V576H1126.07V562.909H1122.44V570.426ZM1132.6 568.432C1132.61 566.744 1133.62 565.756 1135.08 565.756C1136.54 565.756 1137.42 566.71 1137.41 568.312V576H1141.04V567.665C1141.04 564.614 1139.25 562.739 1136.52 562.739C1134.58 562.739 1133.17 563.693 1132.59 565.219H1132.43V562.909H1128.97V576H1132.6V568.432ZM1149.8 581.182C1153.54 581.182 1156.2 579.477 1156.2 576.128V562.909H1152.6V565.108H1152.46C1151.97 564.043 1150.91 562.739 1148.72 562.739C1145.85 562.739 1143.42 564.972 1143.42 569.429C1143.42 573.784 1145.78 575.812 1148.73 575.812C1150.81 575.812 1151.98 574.764 1152.46 573.682H1152.61V576.077C1152.61 577.875 1151.46 578.574 1149.88 578.574C1148.28 578.574 1147.47 577.875 1147.17 577.082L1143.82 577.534C1144.25 579.597 1146.27 581.182 1149.8 581.182ZM1149.88 573.085C1148.1 573.085 1147.12 571.67 1147.12 569.412C1147.12 567.188 1148.08 565.628 1149.88 565.628C1151.64 565.628 1152.63 567.119 1152.63 569.412C1152.63 571.722 1151.62 573.085 1149.88 573.085Z" fill="white"/>
<rect x="179" y="330" width="397" height="54" fill="#5279DF"/>
<path d="M607 357.404L573 402.404L573 313L607 357.404Z" fill="#5279DF"/>
<path d="M276.744 365L278.04 361.02H284.338L285.634 365H289.588L283.571 347.545H278.815L272.79 365H276.744ZM278.977 358.139L281.125 351.534H281.261L283.409 358.139H278.977ZM278.594 345.756C279.582 345.756 280.366 344.963 280.366 344.017C280.366 343.054 279.582 342.287 278.594 342.287C277.614 342.287 276.804 343.054 276.804 344.017C276.804 344.963 277.614 345.756 278.594 345.756ZM283.81 345.756C284.798 345.756 285.582 344.963 285.582 344.017C285.582 343.054 284.798 342.287 283.81 342.287C282.83 342.287 282.02 343.054 282.02 344.017C282.02 344.963 282.83 345.756 283.81 345.756ZM295.251 357.432C295.26 355.744 296.266 354.756 297.732 354.756C299.189 354.756 300.067 355.71 300.058 357.312V365H303.689V356.665C303.689 353.614 301.899 351.739 299.172 351.739C297.229 351.739 295.822 352.693 295.234 354.219H295.081V351.909H291.621V365H295.251V357.432ZM311.374 365.213C313.488 365.213 314.587 363.994 315.09 362.903H315.244V365H318.823V347.545H315.201V354.108H315.09C314.604 353.043 313.556 351.739 311.366 351.739C308.494 351.739 306.065 353.972 306.065 358.472C306.065 362.852 308.391 365.213 311.374 365.213ZM312.525 362.324C310.744 362.324 309.772 360.739 309.772 358.455C309.772 356.188 310.727 354.628 312.525 354.628C314.289 354.628 315.278 356.119 315.278 358.455C315.278 360.79 314.272 362.324 312.525 362.324ZM327.774 365.256C331.013 365.256 333.195 363.679 333.706 361.25L330.348 361.028C329.982 362.026 329.044 362.545 327.834 362.545C326.018 362.545 324.868 361.344 324.868 359.392V359.384H333.783V358.386C333.783 353.938 331.089 351.739 327.629 351.739C323.777 351.739 321.28 354.474 321.28 358.514C321.28 362.665 323.743 365.256 327.774 365.256ZM324.868 357.134C324.945 355.642 326.078 354.449 327.689 354.449C329.266 354.449 330.357 355.574 330.365 357.134H324.868ZM336.152 365H339.783V357.594C339.783 355.983 340.959 354.875 342.561 354.875C343.064 354.875 343.754 354.96 344.095 355.071V351.849C343.771 351.773 343.32 351.722 342.953 351.722C341.487 351.722 340.286 352.574 339.808 354.193H339.672V351.909H336.152V365ZM354.367 359.426C354.376 361.182 353.174 362.102 351.87 362.102C350.498 362.102 349.612 361.139 349.603 359.597V351.909H345.972V360.244C345.981 363.304 347.771 365.17 350.404 365.17C352.373 365.17 353.788 364.156 354.376 362.622H354.512V365H357.998V351.909H354.367V359.426ZM364.533 357.432C364.541 355.744 365.547 354.756 367.013 354.756C368.47 354.756 369.348 355.71 369.339 357.312V365H372.97V356.665C372.97 353.614 371.18 351.739 368.453 351.739C366.51 351.739 365.104 352.693 364.516 354.219H364.362V351.909H360.902V365H364.533V357.432ZM381.729 370.182C385.471 370.182 388.13 368.477 388.13 365.128V351.909H384.525V354.108H384.388C383.903 353.043 382.837 351.739 380.647 351.739C377.775 351.739 375.346 353.972 375.346 358.429C375.346 362.784 377.707 364.812 380.656 364.812C382.744 364.812 383.911 363.764 384.388 362.682H384.542V365.077C384.542 366.875 383.391 367.574 381.815 367.574C380.212 367.574 379.403 366.875 379.104 366.082L375.746 366.534C376.181 368.597 378.201 370.182 381.729 370.182ZM381.806 362.085C380.025 362.085 379.053 360.67 379.053 358.412C379.053 356.188 380.008 354.628 381.806 354.628C383.57 354.628 384.559 356.119 384.559 358.412C384.559 360.722 383.553 362.085 381.806 362.085ZM401.911 355.642C401.587 353.23 399.644 351.739 396.337 351.739C392.988 351.739 390.781 353.29 390.789 355.812C390.781 357.773 392.016 359.043 394.573 359.554L396.84 360.006C397.982 360.236 398.502 360.653 398.519 361.31C398.502 362.085 397.658 362.639 396.388 362.639C395.093 362.639 394.232 362.085 394.011 361.02L390.44 361.207C390.781 363.713 392.911 365.256 396.38 365.256C399.772 365.256 402.201 363.526 402.21 360.943C402.201 359.051 400.965 357.918 398.425 357.398L396.056 356.92C394.837 356.656 394.386 356.239 394.394 355.608C394.386 354.824 395.272 354.312 396.397 354.312C397.658 354.312 398.408 355.003 398.587 355.847L401.911 355.642ZM408.229 365.247C410.163 365.247 411.416 364.403 412.055 363.185H412.158V365H415.601V356.17C415.601 353.051 412.959 351.739 410.044 351.739C406.908 351.739 404.845 353.239 404.342 355.625L407.7 355.898C407.947 355.028 408.723 354.389 410.027 354.389C411.263 354.389 411.97 355.011 411.97 356.085V356.136C411.97 356.98 411.075 357.091 408.8 357.312C406.209 357.551 403.882 358.42 403.882 361.344C403.882 363.935 405.732 365.247 408.229 365.247ZM409.268 362.741C408.152 362.741 407.351 362.222 407.351 361.224C407.351 360.202 408.195 359.699 409.473 359.52C410.266 359.409 411.561 359.222 411.996 358.932V360.321C411.996 361.693 410.862 362.741 409.268 362.741ZM422.048 357.432C422.057 355.744 423.062 354.756 424.528 354.756C425.986 354.756 426.864 355.71 426.855 357.312V365H430.486V356.665C430.486 353.614 428.696 351.739 425.969 351.739C424.026 351.739 422.619 352.693 422.031 354.219H421.878V351.909H418.418V365H422.048V357.432ZM440.31 351.909H437.847V348.773H434.217V351.909H432.427V354.636H434.217V361.455C434.2 364.02 435.947 365.29 438.58 365.179C439.518 365.145 440.183 364.957 440.549 364.838L439.978 362.136C439.799 362.17 439.415 362.256 439.075 362.256C438.35 362.256 437.847 361.983 437.847 360.977V354.636H440.31V351.909ZM442.675 365H446.306V357.594C446.306 355.983 447.482 354.875 449.085 354.875C449.587 354.875 450.278 354.96 450.619 355.071V351.849C450.295 351.773 449.843 351.722 449.477 351.722C448.011 351.722 446.809 352.574 446.332 354.193H446.195V351.909H442.675V365ZM455.854 365.247C457.788 365.247 459.041 364.403 459.68 363.185H459.783V365H463.226V356.17C463.226 353.051 460.584 351.739 457.669 351.739C454.533 351.739 452.47 353.239 451.967 355.625L455.325 355.898C455.572 355.028 456.348 354.389 457.652 354.389C458.888 354.389 459.595 355.011 459.595 356.085V356.136C459.595 356.98 458.7 357.091 456.425 357.312C453.834 357.551 451.507 358.42 451.507 361.344C451.507 363.935 453.357 365.247 455.854 365.247ZM456.893 362.741C455.777 362.741 454.976 362.222 454.976 361.224C454.976 360.202 455.82 359.699 457.098 359.52C457.891 359.409 459.186 359.222 459.621 358.932V360.321C459.621 361.693 458.487 362.741 456.893 362.741ZM471.94 370.182C475.682 370.182 478.341 368.477 478.341 365.128V351.909H474.736V354.108H474.599C474.114 353.043 473.048 351.739 470.858 351.739C467.986 351.739 465.557 353.972 465.557 358.429C465.557 362.784 467.918 364.812 470.866 364.812C472.955 364.812 474.122 363.764 474.599 362.682H474.753V365.077C474.753 366.875 473.602 367.574 472.026 367.574C470.423 367.574 469.614 366.875 469.315 366.082L465.957 366.534C466.392 368.597 468.412 370.182 471.94 370.182ZM472.017 362.085C470.236 362.085 469.264 360.67 469.264 358.412C469.264 356.188 470.219 354.628 472.017 354.628C473.781 354.628 474.77 356.119 474.77 358.412C474.77 360.722 473.764 362.085 472.017 362.085Z" fill="white"/>
<rect x="1091" width="320" height="150" fill="#B6CEFF"/>
<path d="M1151.43 87H1161.37C1166.6 87 1169.38 84.2727 1169.38 80.5682C1169.38 77.125 1166.92 75.0455 1164.27 74.9205V74.6932C1166.69 74.1477 1168.47 72.4318 1168.47 69.6932C1168.47 66.2045 1165.88 63.7273 1160.75 63.7273H1151.43V87ZM1156.35 82.9773V76.7955H1160.47C1162.84 76.7955 1164.3 78.1591 1164.3 80.0795C1164.3 81.8295 1163.11 82.9773 1160.36 82.9773H1156.35ZM1156.35 73.4659V67.7045H1160.09C1162.27 67.7045 1163.51 68.8295 1163.51 70.5114C1163.51 72.3523 1162.01 73.4659 1160 73.4659H1156.35ZM1180.45 87.3409C1184.77 87.3409 1187.68 85.2386 1188.36 82L1183.88 81.7045C1183.39 83.0341 1182.14 83.7273 1180.53 83.7273C1178.11 83.7273 1176.57 82.125 1176.57 79.5227V79.5114H1188.46V78.1818C1188.46 72.25 1184.87 69.3182 1180.26 69.3182C1175.12 69.3182 1171.79 72.9659 1171.79 78.3523C1171.79 83.8864 1175.07 87.3409 1180.45 87.3409ZM1176.57 76.5114C1176.68 74.5227 1178.19 72.9318 1180.34 72.9318C1182.44 72.9318 1183.89 74.4318 1183.9 76.5114H1176.57ZM1199.48 93.9091C1204.47 93.9091 1208.02 91.6364 1208.02 87.1705V69.5455H1203.21V72.4773H1203.03C1202.38 71.0568 1200.96 69.3182 1198.04 69.3182C1194.21 69.3182 1190.97 72.2955 1190.97 78.2386C1190.97 84.0455 1194.12 86.75 1198.05 86.75C1200.84 86.75 1202.39 85.3523 1203.03 83.9091H1203.23V87.1023C1203.23 89.5 1201.7 90.4318 1199.6 90.4318C1197.46 90.4318 1196.38 89.5 1195.98 88.4432L1191.51 89.0455C1192.09 91.7955 1194.78 93.9091 1199.48 93.9091ZM1199.59 83.1136C1197.21 83.1136 1195.91 81.2273 1195.91 78.2159C1195.91 75.25 1197.19 73.1705 1199.59 73.1705C1201.94 73.1705 1203.26 75.1591 1203.26 78.2159C1203.26 81.2955 1201.91 83.1136 1199.59 83.1136ZM1223.06 79.5682C1223.07 81.9091 1221.47 83.1364 1219.73 83.1364C1217.9 83.1364 1216.72 81.8523 1216.71 79.7955V69.5455H1211.87V80.6591C1211.88 84.7386 1214.27 87.2273 1217.78 87.2273C1220.4 87.2273 1222.29 85.875 1223.07 83.8295H1223.26V87H1227.9V69.5455H1223.06V79.5682ZM1216.45 67.1591C1217.77 67.1591 1218.81 66.1023 1218.81 64.8409C1218.81 63.5568 1217.77 62.5341 1216.45 62.5341C1215.14 62.5341 1214.06 63.5568 1214.06 64.8409C1214.06 66.1023 1215.14 67.1591 1216.45 67.1591ZM1223.4 67.1591C1224.72 67.1591 1225.77 66.1023 1225.77 64.8409C1225.77 63.5568 1224.72 62.5341 1223.4 62.5341C1222.1 62.5341 1221.02 63.5568 1221.02 64.8409C1221.02 66.1023 1222.1 67.1591 1223.4 67.1591ZM1236.62 76.9091C1236.63 74.6591 1237.97 73.3409 1239.92 73.3409C1241.87 73.3409 1243.04 74.6136 1243.03 76.75V87H1247.87V75.8864C1247.87 71.8182 1245.48 69.3182 1241.84 69.3182C1239.25 69.3182 1237.38 70.5909 1236.59 72.625H1236.39V69.5455H1231.78V87H1236.62V76.9091ZM1266.2 74.5227C1265.77 71.3068 1263.18 69.3182 1258.77 69.3182C1254.31 69.3182 1251.36 71.3864 1251.38 74.75C1251.36 77.3636 1253.01 79.0568 1256.42 79.7386L1259.44 80.3409C1260.97 80.6477 1261.66 81.2045 1261.68 82.0795C1261.66 83.1136 1260.53 83.8523 1258.84 83.8523C1257.11 83.8523 1255.97 83.1136 1255.67 81.6932L1250.91 81.9432C1251.36 85.2841 1254.2 87.3409 1258.83 87.3409C1263.35 87.3409 1266.59 85.0341 1266.6 81.5909C1266.59 79.0682 1264.94 77.5568 1261.56 76.8636L1258.4 76.2273C1256.77 75.875 1256.17 75.3182 1256.18 74.4773C1256.17 73.4318 1257.35 72.75 1258.85 72.75C1260.53 72.75 1261.53 73.6705 1261.77 74.7955L1266.2 74.5227ZM1278.93 69.5455H1275.65V65.3636H1270.81V69.5455H1268.42V73.1818H1270.81V82.2727C1270.79 85.6932 1273.12 87.3864 1276.63 87.2386C1277.88 87.1932 1278.76 86.9432 1279.25 86.7841L1278.49 83.1818C1278.25 83.2273 1277.74 83.3409 1277.29 83.3409C1276.32 83.3409 1275.65 82.9773 1275.65 81.6364V73.1818H1278.93V69.5455ZM1282.09 87H1286.93V69.5455H1282.09V87ZM1284.52 67.2955C1285.96 67.2955 1287.14 66.1932 1287.14 64.8409C1287.14 63.5 1285.96 62.3977 1284.52 62.3977C1283.09 62.3977 1281.91 63.5 1281.91 64.8409C1281.91 66.1932 1283.09 67.2955 1284.52 67.2955ZM1298.67 93.9091C1303.66 93.9091 1307.2 91.6364 1307.2 87.1705V69.5455H1302.4V72.4773H1302.22C1301.57 71.0568 1300.15 69.3182 1297.23 69.3182C1293.4 69.3182 1290.16 72.2955 1290.16 78.2386C1290.16 84.0455 1293.31 86.75 1297.24 86.75C1300.02 86.75 1301.58 85.3523 1302.22 83.9091H1302.42V87.1023C1302.42 89.5 1300.89 90.4318 1298.78 90.4318C1296.65 90.4318 1295.57 89.5 1295.17 88.4432L1290.69 89.0455C1291.27 91.7955 1293.97 93.9091 1298.67 93.9091ZM1298.77 83.1136C1296.4 83.1136 1295.1 81.2273 1295.1 78.2159C1295.1 75.25 1296.38 73.1705 1298.77 73.1705C1301.12 73.1705 1302.44 75.1591 1302.44 78.2159C1302.44 81.2955 1301.1 83.1136 1298.77 83.1136ZM1320.34 69.5455H1317.06V65.3636H1312.22V69.5455H1309.83V73.1818H1312.22V82.2727C1312.19 85.6932 1314.52 87.3864 1318.03 87.2386C1319.28 87.1932 1320.17 86.9432 1320.66 86.7841L1319.9 83.1818C1319.66 83.2273 1319.15 83.3409 1318.69 83.3409C1317.73 83.3409 1317.06 82.9773 1317.06 81.6364V73.1818H1320.34V69.5455ZM1331.26 87.3409C1335.58 87.3409 1338.49 85.2386 1339.17 82L1334.69 81.7045C1334.2 83.0341 1332.95 83.7273 1331.34 83.7273C1328.92 83.7273 1327.39 82.125 1327.39 79.5227V79.5114H1339.27V78.1818C1339.27 72.25 1335.68 69.3182 1331.07 69.3182C1325.93 69.3182 1322.6 72.9659 1322.6 78.3523C1322.6 83.8864 1325.89 87.3409 1331.26 87.3409ZM1327.39 76.5114C1327.49 74.5227 1329 72.9318 1331.15 72.9318C1333.25 72.9318 1334.7 74.4318 1334.72 76.5114H1327.39ZM1342.43 87H1347.27V77.125C1347.27 74.9773 1348.84 73.5 1350.98 73.5C1351.65 73.5 1352.57 73.6136 1353.02 73.7614V69.4659C1352.59 69.3636 1351.99 69.2955 1351.5 69.2955C1349.55 69.2955 1347.94 70.4318 1347.31 72.5909H1347.12V69.5455H1342.43V87Z" fill="#001540"/>
<line x1="1252" y1="154" x2="1252" y2="640" stroke="#001540" stroke-width="2" stroke-dasharray="12 12"/>
<line x1="161" y1="154" x2="161" y2="640" stroke="#001540" stroke-width="2" stroke-dasharray="12 12"/>
<rect width="320" height="150" fill="#B6CEFF"/>
<path d="M60.0497 87L61.777 81.6932H70.1747L71.902 87H77.1747L69.152 63.7273H62.8111L54.777 87H60.0497ZM63.027 77.8523L65.8906 69.0455H66.0724L68.9361 77.8523H63.027ZM91.0781 79.5682C91.0895 81.9091 89.4872 83.1364 87.7486 83.1364C85.919 83.1364 84.7372 81.8523 84.7259 79.7955V69.5455H79.8849V80.6591C79.8963 84.7386 82.2827 87.2273 85.794 87.2273C88.419 87.2273 90.3054 85.875 91.0895 83.8295H91.2713V87H95.919V69.5455H91.0781V79.5682ZM109.178 69.5455H105.712V68.375C105.712 67.1932 106.189 66.5 107.609 66.5C108.189 66.5 108.78 66.625 109.166 66.75L110.018 63.1136C109.416 62.9318 108.087 62.6364 106.598 62.6364C103.314 62.6364 100.871 64.4886 100.871 68.2841V69.5455H98.4048V73.1818H100.871V87H105.712V73.1818H109.178V69.5455ZM121.419 69.5455H118.135V65.3636H113.294V69.5455H110.908V73.1818H113.294V82.2727C113.271 85.6932 115.601 87.3864 119.112 87.2386C120.362 87.1932 121.249 86.9432 121.737 86.7841L120.976 83.1818C120.737 83.2273 120.226 83.3409 119.771 83.3409C118.805 83.3409 118.135 82.9773 118.135 81.6364V73.1818H121.419V69.5455ZM124.572 87H129.413V77.125C129.413 74.9773 130.982 73.5 133.118 73.5C133.788 73.5 134.709 73.6136 135.163 73.7614V69.4659C134.732 69.3636 134.129 69.2955 133.641 69.2955C131.686 69.2955 130.084 70.4318 129.447 72.5909H129.266V69.5455H124.572V87ZM142.143 87.3295C144.723 87.3295 146.393 86.2045 147.246 84.5795H147.382V87H151.973V75.2273C151.973 71.0682 148.45 69.3182 144.564 69.3182C140.382 69.3182 137.632 71.3182 136.962 74.5L141.439 74.8636C141.768 73.7045 142.803 72.8523 144.541 72.8523C146.189 72.8523 147.132 73.6818 147.132 75.1136V75.1818C147.132 76.3068 145.939 76.4545 142.905 76.75C139.45 77.0682 136.348 78.2273 136.348 82.125C136.348 85.5795 138.814 87.3295 142.143 87.3295ZM143.53 83.9886C142.041 83.9886 140.973 83.2955 140.973 81.9659C140.973 80.6023 142.098 79.9318 143.803 79.6932C144.859 79.5455 146.587 79.2955 147.166 78.9091V80.7614C147.166 82.5909 145.655 83.9886 143.53 83.9886ZM163.592 93.9091C168.581 93.9091 172.126 91.6364 172.126 87.1705V69.5455H167.32V72.4773H167.138C166.49 71.0568 165.07 69.3182 162.149 69.3182C158.32 69.3182 155.081 72.2955 155.081 78.2386C155.081 84.0455 158.229 86.75 162.161 86.75C164.945 86.75 166.501 85.3523 167.138 83.9091H167.342V87.1023C167.342 89.5 165.808 90.4318 163.706 90.4318C161.57 90.4318 160.49 89.5 160.092 88.4432L155.615 89.0455C156.195 91.7955 158.888 93.9091 163.592 93.9091ZM163.695 83.1136C161.32 83.1136 160.024 81.2273 160.024 78.2159C160.024 75.25 161.297 73.1705 163.695 73.1705C166.047 73.1705 167.365 75.1591 167.365 78.2159C167.365 81.2955 166.024 83.1136 163.695 83.1136ZM183.842 93.9091C188.831 93.9091 192.376 91.6364 192.376 87.1705V69.5455H187.57V72.4773H187.388C186.74 71.0568 185.32 69.3182 182.399 69.3182C178.57 69.3182 175.331 72.2955 175.331 78.2386C175.331 84.0455 178.479 86.75 182.411 86.75C185.195 86.75 186.751 85.3523 187.388 83.9091H187.592V87.1023C187.592 89.5 186.058 90.4318 183.956 90.4318C181.82 90.4318 180.74 89.5 180.342 88.4432L175.865 89.0455C176.445 91.7955 179.138 93.9091 183.842 93.9091ZM183.945 83.1136C181.57 83.1136 180.274 81.2273 180.274 78.2159C180.274 75.25 181.547 73.1705 183.945 73.1705C186.297 73.1705 187.615 75.1591 187.615 78.2159C187.615 81.2955 186.274 83.1136 183.945 83.1136ZM204.183 87.3409C208.501 87.3409 211.411 85.2386 212.092 82L207.615 81.7045C207.126 83.0341 205.876 83.7273 204.263 83.7273C201.842 83.7273 200.308 82.125 200.308 79.5227V79.5114H212.195V78.1818C212.195 72.25 208.604 69.3182 203.99 69.3182C198.854 69.3182 195.524 72.9659 195.524 78.3523C195.524 83.8864 198.808 87.3409 204.183 87.3409ZM200.308 76.5114C200.411 74.5227 201.922 72.9318 204.07 72.9318C206.172 72.9318 207.626 74.4318 207.638 76.5114H200.308ZM215.445 87H220.217V84.2045H220.433C221.104 85.6591 222.57 87.2841 225.388 87.2841C229.365 87.2841 232.467 84.1364 232.467 78.2955C232.467 72.2955 229.229 69.3182 225.399 69.3182C222.479 69.3182 221.081 71.0568 220.433 72.4773H220.286V63.7273H215.445V87ZM220.183 78.2727C220.183 75.1591 221.501 73.1705 223.854 73.1705C226.251 73.1705 227.524 75.25 227.524 78.2727C227.524 81.3182 226.229 83.4318 223.854 83.4318C221.524 83.4318 220.183 81.3864 220.183 78.2727ZM243.652 87.3409C247.97 87.3409 250.879 85.2386 251.561 82L247.084 81.7045C246.595 83.0341 245.345 83.7273 243.732 83.7273C241.311 83.7273 239.777 82.125 239.777 79.5227V79.5114H251.663V78.1818C251.663 72.25 248.072 69.3182 243.459 69.3182C238.322 69.3182 234.993 72.9659 234.993 78.3523C234.993 83.8864 238.277 87.3409 243.652 87.3409ZM239.777 76.5114C239.879 74.5227 241.391 72.9318 243.538 72.9318C245.641 72.9318 247.095 74.4318 247.107 76.5114H239.777ZM254.822 87H259.663V77.125C259.663 74.9773 261.232 73.5 263.368 73.5C264.038 73.5 264.959 73.6136 265.413 73.7614V69.4659C264.982 69.3636 264.379 69.2955 263.891 69.2955C261.936 69.2955 260.334 70.4318 259.697 72.5909H259.516V69.5455H254.822V87Z" fill="#001540"/>
<rect x="627" y="193" width="147" height="447" rx="3" fill="#001540"/>
<path d="M760.966 413.598C760.966 413.505 760.966 413.413 760.966 413.29C760.997 411.074 759.892 409.442 757.654 408.765C755.966 408.242 754.157 407.841 752.378 407.78C747.379 407.626 742.379 407.687 737.379 407.626C736.306 407.595 735.201 407.441 734.159 407.195C733.606 407.072 733.024 406.672 732.717 406.241C731.521 404.394 732.625 401.87 734.895 401.408C736.521 401.1 738.177 400.915 739.833 400.915C745.691 400.854 751.58 400.885 757.439 400.854C757.868 400.854 758.42 400.731 758.666 400.484C759.218 399.838 759.617 399.038 760.107 398.237H737.287C735.753 398.237 734.189 398.391 732.656 398.637C728.178 399.284 726.184 401.931 726.889 406.025C727.227 407.965 728.392 409.288 730.447 409.719C732.073 410.058 733.729 410.304 735.385 410.335C740.079 410.427 744.802 410.366 749.495 410.458C750.752 410.489 752.041 410.643 753.237 410.95C754.893 411.381 755.445 412.52 755.384 414.644C755.322 416.245 754.678 417.138 753.083 417.507C751.887 417.784 750.66 417.907 749.433 417.907C742.501 417.938 735.6 417.938 728.668 417.938C728.331 417.938 727.81 417.938 727.687 418.123C727.073 418.923 726.583 419.785 726 420.739H749.158C750.783 420.739 752.409 420.708 754.034 420.524C758.175 420.093 761.365 418.831 760.966 413.598Z" fill="white"/>
<path d="M699.654 420.742L708.365 420.773C709.592 420.773 710.726 420.095 711.309 419.018C714.867 412.4 721.431 400.025 722.382 398.209C720.327 398.209 721.676 398.147 719.867 398.24C719.468 398.271 718.977 398.702 718.732 399.071C714.959 405.689 713.763 407.659 710.021 414.277C709.285 415.57 708.549 416.894 707.782 418.248C707.414 418.864 706.77 419.264 706.034 419.264H705.113C704.408 419.264 703.733 418.864 703.365 418.248C702.598 416.894 701.862 415.601 701.126 414.277C697.384 407.628 696.065 405.689 692.292 399.071C692.078 398.702 691.556 398.271 691.158 398.24C689.379 398.147 687.569 398.209 685.514 398.209C686.496 400.025 693.151 412.4 696.679 418.987C697.292 420.064 698.427 420.742 699.654 420.742Z" fill="white"/>
<path d="M671.279 398.331H643L645.392 401.132L668.764 401.501C672.384 401.563 675.297 404.518 675.297 408.15L675.328 411.136C675.328 414.799 672.414 417.785 668.734 417.816L651.404 418.031C651.158 418.031 650.974 417.847 650.974 417.6V407.688L645.362 401.101V420.063C645.362 420.432 645.668 420.771 646.067 420.771H671.249C677.015 420.771 681.708 416.061 681.708 410.274V408.797C681.708 403.009 677.046 398.331 671.279 398.331Z" fill="white"/>
<path d="M650.867 434.991C650.614 435.322 650.262 435.573 649.813 435.743C649.364 435.913 648.854 435.999 648.282 435.999C647.695 435.999 647.175 435.866 646.723 435.599C646.27 435.332 645.921 434.951 645.674 434.456C645.43 433.958 645.303 433.378 645.293 432.716V432.166C645.293 431.106 645.547 430.278 646.054 429.683C646.561 429.086 647.268 428.787 648.176 428.787C648.956 428.787 649.576 428.98 650.035 429.365C650.494 429.751 650.769 430.307 650.862 431.033H649.669C649.534 430.188 649.045 429.765 648.201 429.765C647.655 429.765 647.239 429.963 646.954 430.358C646.672 430.75 646.526 431.327 646.516 432.089V432.629C646.516 433.387 646.675 433.977 646.992 434.398C647.313 434.816 647.758 435.025 648.326 435.025C648.948 435.025 649.391 434.883 649.654 434.601V433.227H648.21V432.301H650.867V434.991Z" fill="white"/>
<path d="M659.305 428.884V433.574C659.305 434.32 659.066 434.912 658.588 435.349C658.113 435.782 657.48 436 656.687 436C655.885 436 655.248 435.786 654.776 435.358C654.304 434.927 654.068 434.331 654.068 433.57V428.884H655.281V433.579C655.281 434.049 655.4 434.407 655.637 434.654C655.875 434.902 656.225 435.026 656.687 435.026C657.624 435.026 658.092 434.531 658.092 433.541V428.884H659.305Z" fill="white"/>
<path d="M666.398 434.269H663.684L663.115 435.903H661.85L664.497 428.884H665.59L668.242 435.903H666.971L666.398 434.269ZM664.025 433.285H666.057L665.041 430.373L664.025 433.285Z" fill="white"/>
<path d="M673.587 433.198H672.23V435.903H671.012V428.884H673.477C674.285 428.884 674.909 429.065 675.349 429.429C675.789 429.792 676.008 430.317 676.008 431.005C676.008 431.474 675.895 431.868 675.666 432.186C675.442 432.501 675.127 432.744 674.723 432.914L676.297 435.84V435.903H674.993L673.587 433.198ZM672.23 432.22H673.481C673.892 432.22 674.213 432.117 674.444 431.912C674.675 431.702 674.79 431.418 674.79 431.058C674.79 430.682 674.683 430.391 674.468 430.185C674.256 429.98 673.938 429.874 673.515 429.867H672.23V432.22Z" fill="white"/>
<path d="M683.059 434.269H680.344L679.776 435.903H678.51L681.157 428.884H682.25L684.902 435.903H683.632L683.059 434.269ZM680.685 433.285H682.717L681.701 430.373L680.685 433.285Z" fill="white"/>
<path d="M693.231 435.903H692.014L688.89 430.923V435.903H687.672V428.884H688.89L692.023 433.883V428.884H693.231V435.903Z" fill="white"/>
<path d="M701.564 429.867H699.378V435.903H698.17V429.867H696.004V428.884H701.564V429.867Z" fill="white"/>
<path d="M708.556 432.769H705.677V434.929H709.042V435.903H704.459V428.884H709.008V429.867H705.677V431.805H708.556V432.769Z" fill="white"/>
<path d="M716.101 432.769H713.222V434.929H716.587V435.903H712.004V428.884H716.553V429.867H713.222V431.805H716.101V432.769Z" fill="white"/>
<path d="M726.446 434.375L728.228 428.884H729.566L727.043 435.903H725.864L723.352 428.884H724.685L726.446 434.375Z" fill="white"/>
<path d="M735.889 434.269H733.174L732.606 435.903H731.34L733.988 428.884H735.08L737.732 435.903H736.462L735.889 434.269ZM733.516 433.285H735.547L734.531 430.373L733.516 433.285Z" fill="white"/>
<path d="M745.544 428.884V433.574C745.544 434.32 745.305 434.912 744.827 435.349C744.352 435.782 743.718 436 742.925 436C742.123 436 741.486 435.786 741.014 435.358C740.543 434.927 740.307 434.331 740.307 433.57V428.884H741.52V433.579C741.52 434.049 741.638 434.407 741.876 434.654C742.114 434.902 742.463 435.026 742.925 435.026C743.863 435.026 744.331 434.531 744.331 433.541V428.884H745.544Z" fill="white"/>
<path d="M750.038 434.929H753.22V435.903H748.82V428.884H750.038V434.929Z" fill="white"/>
<path d="M760.196 429.867H758.011V435.903H756.803V429.867H754.637V428.884H760.196V429.867Z" fill="white"/>
<path d="M729.525 347.573C729.721 345.742 729.59 343.912 729.133 342.147C728.61 340.087 727.597 338.159 726.289 336.524C724.95 334.89 723.251 333.517 721.388 332.569C720.44 332.111 719.46 331.719 718.414 331.458C717.401 331.196 716.355 331.065 715.309 331H714.917H714.525H713.774L712.27 331.033L709.264 331.098L706.257 331.163L703.251 331.229C699.232 331.327 695.212 331.458 691.193 331.621C695.212 331.817 699.232 331.915 703.251 332.013L706.257 332.079L709.264 332.144L712.27 332.209L713.774 332.242H714.525H714.884L715.244 332.275C717.172 332.406 719.035 332.929 720.734 333.811C721.584 334.269 722.368 334.792 723.12 335.413C723.871 336.034 724.525 336.72 725.113 337.44C725.897 338.453 726.551 339.564 727.041 340.741C726.845 340.447 726.649 340.185 726.42 339.891C725.767 339.074 725.048 338.355 724.263 337.668C723.479 337.015 722.597 336.426 721.682 335.936C720.767 335.446 719.819 335.086 718.806 334.792C717.826 334.498 716.813 334.334 715.767 334.269C715.506 334.236 715.244 334.236 715.015 334.236C714.884 334.236 714.754 334.236 714.623 334.236C714.492 334.236 714.362 334.236 714.264 334.236L712.793 334.269C710.833 334.301 708.872 334.367 706.911 334.4C704.95 334.465 702.99 334.53 701.029 334.596L698.088 334.726C697.598 334.759 697.107 334.759 696.617 334.792C696.127 334.824 695.637 334.824 695.147 334.857C695.637 334.89 696.127 334.923 696.617 334.923C697.107 334.955 697.598 334.988 698.088 334.988L701.029 335.119C702.99 335.184 704.95 335.249 706.911 335.315C708.872 335.38 710.833 335.413 712.793 335.446L714.264 335.478H714.623C714.754 335.478 714.852 335.478 714.983 335.478C715.211 335.478 715.44 335.511 715.669 335.544C716.617 335.642 717.532 335.838 718.414 336.099C720.211 336.655 721.845 337.57 723.283 338.78C724.688 339.989 725.865 341.493 726.681 343.16C726.812 343.421 726.943 343.716 727.041 343.977C726.747 343.519 726.42 343.095 726.061 342.702C724.721 341.133 723.054 339.858 721.192 338.943C720.277 338.486 719.296 338.159 718.283 337.897C717.27 337.668 716.257 337.538 715.244 337.505C714.983 337.505 714.721 337.505 714.492 337.505H713.741L712.27 337.538L709.329 337.603L706.388 337.701L703.447 337.799C701.486 337.864 699.525 337.963 697.565 338.093C699.525 338.224 701.486 338.289 703.447 338.387L706.388 338.486L709.329 338.584L712.27 338.649L713.741 338.682H714.492C714.721 338.682 714.95 338.682 715.211 338.714C717.074 338.812 718.937 339.335 720.571 340.185C723.512 341.656 725.832 344.206 727.074 347.246C726.812 346.886 726.551 346.494 726.257 346.167C725.603 345.383 724.852 344.631 724.035 344.01C723.218 343.356 722.368 342.8 721.42 342.343C720.505 341.885 719.525 341.526 718.545 341.264C717.564 341.002 716.519 340.839 715.506 340.806C715.375 340.806 715.244 340.806 715.113 340.806C714.983 340.806 714.852 340.806 714.721 340.806H714.525H714.329H713.97L712.499 340.839C710.538 340.904 708.577 340.97 706.617 341.068C705.636 341.101 704.656 341.166 703.676 341.231C702.695 341.297 701.715 341.362 700.735 341.427C701.715 341.493 702.695 341.558 703.676 341.624C704.656 341.689 705.636 341.722 706.617 341.787C708.577 341.885 710.538 341.95 712.499 342.016L713.97 342.049L714.688 342.081C714.819 342.081 714.917 342.081 715.048 342.081C715.179 342.081 715.277 342.081 715.407 342.114C716.355 342.179 717.27 342.375 718.153 342.604C719.95 343.127 721.617 344.01 723.054 345.219C723.773 345.808 724.427 346.494 725.015 347.213C725.603 347.932 726.093 348.717 726.518 349.534C726.681 349.861 726.845 350.221 727.009 350.58C726.649 350.057 726.257 349.567 725.832 349.076C724.46 347.54 722.76 346.265 720.898 345.415C719.95 344.99 718.969 344.664 717.989 344.435C716.976 344.206 715.963 344.108 714.95 344.075H714.558H714.198L713.447 344.108C712.957 344.141 712.466 344.141 711.976 344.173L710.506 344.239L709.035 344.304C707.075 344.402 705.114 344.533 703.153 344.696C705.114 344.892 707.075 344.99 709.035 345.089L710.506 345.154L711.976 345.219C712.466 345.252 712.957 345.252 713.447 345.285L714.198 345.317L714.917 345.35C715.865 345.383 716.78 345.513 717.695 345.742C718.61 345.971 719.493 346.298 720.309 346.69C721.159 347.082 721.943 347.573 722.695 348.161C723.447 348.717 724.1 349.371 724.721 350.057C725.342 350.776 725.897 351.561 726.355 352.411C726.289 352.509 726.257 352.607 726.192 352.705C725.211 351.528 724.067 350.515 722.826 349.697C721.061 348.553 719.035 347.802 716.944 347.475C716.42 347.409 715.898 347.344 715.375 347.344H714.983H714.591C714.329 347.344 714.1 347.377 713.839 347.377C712.826 347.409 711.813 347.475 710.833 347.507C708.806 347.638 706.813 347.736 704.787 347.965C706.813 348.161 708.806 348.292 710.833 348.423C711.846 348.488 712.859 348.521 713.839 348.553L714.591 348.586H714.95L715.309 348.619C715.8 348.651 716.257 348.717 716.747 348.782C717.695 348.946 718.61 349.207 719.493 349.567C720.374 349.926 721.224 350.384 722.009 350.907C723.283 351.757 724.394 352.803 725.309 354.012C724.329 355.32 723.12 356.431 721.747 357.314C720.93 357.837 720.081 358.262 719.198 358.588C718.316 358.915 717.368 359.177 716.42 359.308C715.931 359.373 715.473 359.439 714.983 359.439C714.852 359.439 714.754 359.439 714.623 359.439H714.264H713.512L710.506 359.471C706.486 359.536 702.467 359.602 698.447 359.7C696.421 359.733 694.428 359.798 692.402 359.863C690.376 359.929 688.382 359.994 686.356 360.06C688.382 360.125 690.376 360.19 692.402 360.256C694.428 360.321 696.421 360.354 698.447 360.419C702.467 360.517 706.486 360.582 710.506 360.648L713.512 360.681H714.264H714.656C714.787 360.681 714.917 360.681 715.048 360.681C715.571 360.681 716.094 360.648 716.617 360.582C718.708 360.321 720.734 359.634 722.564 358.523C723.479 357.968 724.296 357.314 725.08 356.594C725.505 356.202 725.897 355.777 726.257 355.352C726.322 355.451 726.355 355.549 726.42 355.647C726.289 355.908 726.159 356.137 725.996 356.366C725.505 357.15 724.917 357.869 724.263 358.556C722.989 359.896 721.42 360.975 719.689 361.694C718.839 362.054 717.924 362.315 717.009 362.511C716.551 362.609 716.094 362.675 715.604 362.707C715.473 362.707 715.375 362.74 715.244 362.74C715.113 362.74 715.015 362.74 714.884 362.773H714.525H714.166L708.284 362.838C704.362 362.903 700.441 362.969 696.519 363.067L693.578 363.132L690.637 363.198C688.676 363.263 686.716 363.296 684.755 363.361C686.716 363.426 688.676 363.492 690.637 363.524L693.578 363.59L696.519 363.655C700.441 363.753 704.362 363.819 708.284 363.884L714.166 363.949H714.525H714.917C715.048 363.949 715.179 363.949 715.309 363.949C715.44 363.949 715.571 363.949 715.702 363.917C716.224 363.884 716.715 363.819 717.237 363.753C718.251 363.59 719.264 363.329 720.211 362.936C721.159 362.576 722.107 362.086 722.956 361.53C723.806 360.975 724.623 360.321 725.342 359.569C725.996 358.915 726.584 358.229 727.074 357.477C726.845 358.066 726.551 358.621 726.224 359.177C725.276 360.779 724.035 362.184 722.531 363.296C721.78 363.851 720.995 364.342 720.146 364.734C719.296 365.126 718.414 365.42 717.499 365.649C716.584 365.878 715.669 365.976 714.721 366.009L711.78 366.042L705.898 366.107L700.016 366.205L694.134 366.335C692.173 366.368 690.212 366.434 688.251 366.466C687.271 366.499 686.291 366.499 685.31 366.532L682.369 366.63L685.31 366.728C686.291 366.761 687.271 366.793 688.251 366.793C690.212 366.826 692.173 366.891 694.134 366.924L700.016 367.055L705.898 367.153L711.78 367.218L714.721 367.251C715.734 367.251 716.78 367.153 717.793 366.957C719.819 366.532 721.747 365.715 723.414 364.505C724.263 363.917 725.048 363.23 725.734 362.478C726.224 361.955 726.681 361.367 727.074 360.779C726.453 362.315 725.538 363.721 724.427 364.93C723.152 366.303 721.617 367.381 719.917 368.134C719.068 368.526 718.185 368.787 717.27 368.983C716.813 369.082 716.355 369.147 715.898 369.212C715.669 369.245 715.44 369.245 715.211 369.277C715.081 369.277 714.983 369.277 714.852 369.277C714.721 369.277 714.623 369.277 714.492 369.277L708.61 369.343L702.728 369.408L696.846 369.506L690.964 369.604C687.042 369.67 683.121 369.768 679.199 369.866C683.121 369.964 687.042 370.062 690.964 370.128L696.846 370.226L702.728 370.323L708.61 370.389L714.492 370.454H714.884C715.015 370.454 715.146 370.454 715.277 370.454C715.538 370.454 715.8 370.422 716.028 370.422C716.551 370.389 717.041 370.323 717.564 370.226C718.577 370.03 719.558 369.735 720.505 369.343C722.401 368.558 724.133 367.381 725.571 365.878C726.126 365.29 726.649 364.636 727.106 363.982C726.91 364.505 726.649 364.996 726.388 365.486C725.93 366.303 725.407 367.055 724.786 367.774C724.165 368.493 723.512 369.114 722.76 369.702C722.401 369.997 722.009 370.258 721.617 370.487C721.224 370.749 720.799 370.945 720.407 371.174C719.558 371.566 718.675 371.893 717.793 372.122C716.878 372.35 715.963 372.481 715.015 372.514H714.656H714.296H713.545H712.074C708.153 372.546 704.231 372.612 700.31 372.644C692.467 372.775 684.624 372.873 676.781 373.102C684.624 373.298 692.467 373.429 700.31 373.56C704.231 373.625 708.153 373.658 712.074 373.69H713.545H714.296H714.656H715.048C716.061 373.69 717.107 373.56 718.087 373.331C720.081 372.873 722.009 372.024 723.675 370.781C724.492 370.16 725.276 369.474 725.963 368.689C726.388 368.232 726.78 367.741 727.106 367.218C726.584 368.493 725.865 369.703 724.983 370.781C724.361 371.5 723.708 372.187 722.956 372.775C722.205 373.363 721.388 373.887 720.538 374.311C719.689 374.737 718.773 375.064 717.858 375.325C716.944 375.554 715.963 375.717 715.015 375.75H714.656H714.264H713.512H712.009L709.002 375.783L702.957 375.848L696.911 375.913L690.866 376.011L684.82 376.109L678.775 376.207L675.768 376.273L672.762 376.338L675.768 376.403L678.775 376.469L684.82 376.567L690.866 376.665L696.911 376.763L702.957 376.829L709.002 376.894L712.009 376.927H713.512H714.264H714.656H715.048C716.094 376.927 717.14 376.796 718.185 376.567C719.198 376.338 720.211 375.979 721.159 375.521C723.087 374.638 724.786 373.298 726.159 371.696C727.531 370.095 728.577 368.166 729.165 366.14C729.688 364.276 729.851 362.283 729.655 360.354C729.525 360.681 729.557 347.9 729.525 347.573Z" fill="white"/>
<ellipse cx="700.5" cy="195" rx="73.5" ry="10" fill="#455A85"/>
<ellipse cx="700.5" cy="638" rx="73.5" ry="12" fill="#001540"/>
</svg>
