<svg width="1121" height="621" viewBox="0 0 1121 621" fill="none" xmlns="http://www.w3.org/2000/svg">
<rect x="276" y="245" width="569" height="54" fill="#5279DF"/>
<path d="M875 272.404L841 317.404L841 228L875 272.404Z" fill="#5279DF"/>
<path d="M453.674 280L454.969 276.02H461.268L462.563 280H466.518L460.501 262.545H455.745L449.719 280H453.674ZM455.907 273.139L458.055 266.534H458.191L460.339 273.139H455.907ZM476.945 274.426C476.954 276.182 475.752 277.102 474.448 277.102C473.076 277.102 472.19 276.139 472.181 274.597V266.909H468.55V275.244C468.559 278.304 470.349 280.17 472.982 280.17C474.951 280.17 476.366 279.156 476.954 277.622H477.09V280H480.576V266.909H476.945V274.426ZM494.372 270.642C494.048 268.23 492.105 266.739 488.798 266.739C485.449 266.739 483.241 268.29 483.25 270.812C483.241 272.773 484.477 274.043 487.034 274.554L489.301 275.006C490.443 275.236 490.963 275.653 490.98 276.31C490.963 277.085 490.119 277.639 488.849 277.639C487.554 277.639 486.693 277.085 486.472 276.02L482.901 276.207C483.241 278.713 485.372 280.256 488.841 280.256C492.233 280.256 494.662 278.526 494.67 275.943C494.662 274.051 493.426 272.918 490.886 272.398L488.517 271.92C487.298 271.656 486.847 271.239 486.855 270.608C486.847 269.824 487.733 269.312 488.858 269.312C490.119 269.312 490.869 270.003 491.048 270.847L494.372 270.642ZM507.849 270.642C507.525 268.23 505.582 266.739 502.275 266.739C498.925 266.739 496.718 268.29 496.727 270.812C496.718 272.773 497.954 274.043 500.511 274.554L502.778 275.006C503.92 275.236 504.44 275.653 504.457 276.31C504.44 277.085 503.596 277.639 502.326 277.639C501.031 277.639 500.17 277.085 499.948 276.02L496.377 276.207C496.718 278.713 498.849 280.256 502.317 280.256C505.71 280.256 508.138 278.526 508.147 275.943C508.138 274.051 506.903 272.918 504.363 272.398L501.994 271.92C500.775 271.656 500.323 271.239 500.332 270.608C500.323 269.824 501.21 269.312 502.335 269.312C503.596 269.312 504.346 270.003 504.525 270.847L507.849 270.642ZM517.396 266.909H514.933V263.773H511.303V266.909H509.513V269.636H511.303V276.455C511.286 279.02 513.033 280.29 515.666 280.179C516.604 280.145 517.268 279.957 517.635 279.838L517.064 277.136C516.885 277.17 516.501 277.256 516.161 277.256C515.436 277.256 514.933 276.983 514.933 275.977V269.636H517.396V266.909ZM525.587 280.256C528.825 280.256 531.007 278.679 531.518 276.25L528.161 276.028C527.794 277.026 526.857 277.545 525.646 277.545C523.831 277.545 522.68 276.344 522.68 274.392V274.384H531.595V273.386C531.595 268.938 528.902 266.739 525.442 266.739C521.589 266.739 519.092 269.474 519.092 273.514C519.092 277.665 521.555 280.256 525.587 280.256ZM522.68 272.134C522.757 270.642 523.891 269.449 525.501 269.449C527.078 269.449 528.169 270.574 528.178 272.134H522.68ZM537.595 262.545H533.964V280H537.595V262.545ZM544.134 262.545H540.504V280H544.134V262.545ZM555.438 274.426C555.446 276.182 554.244 277.102 552.94 277.102C551.568 277.102 550.682 276.139 550.673 274.597V266.909H547.043V275.244C547.051 278.304 548.841 280.17 551.474 280.17C553.443 280.17 554.858 279.156 555.446 277.622H555.582V280H559.068V266.909H555.438V274.426ZM565.603 272.432C565.612 270.744 566.617 269.756 568.083 269.756C569.54 269.756 570.418 270.71 570.41 272.312V280H574.04V271.665C574.04 268.614 572.251 266.739 569.523 266.739C567.58 266.739 566.174 267.693 565.586 269.219H565.433V266.909H561.972V280H565.603V272.432ZM582.8 285.182C586.541 285.182 589.2 283.477 589.2 280.128V266.909H585.595V269.108H585.459C584.973 268.043 583.908 266.739 581.717 266.739C578.845 266.739 576.416 268.972 576.416 273.429C576.416 277.784 578.777 279.812 581.726 279.812C583.814 279.812 584.982 278.764 585.459 277.682H585.612V280.077C585.612 281.875 584.462 282.574 582.885 282.574C581.283 282.574 580.473 281.875 580.175 281.082L576.817 281.534C577.251 283.597 579.271 285.182 582.8 285.182ZM582.876 277.085C581.095 277.085 580.124 275.67 580.124 273.412C580.124 271.188 581.078 269.628 582.876 269.628C584.641 269.628 585.629 271.119 585.629 273.412C585.629 275.722 584.624 277.085 582.876 277.085ZM602.982 270.642C602.658 268.23 600.714 266.739 597.408 266.739C594.058 266.739 591.851 268.29 591.859 270.812C591.851 272.773 593.087 274.043 595.643 274.554L597.911 275.006C599.053 275.236 599.572 275.653 599.589 276.31C599.572 277.085 598.729 277.639 597.459 277.639C596.163 277.639 595.303 277.085 595.081 276.02L591.51 276.207C591.851 278.713 593.982 280.256 597.45 280.256C600.842 280.256 603.271 278.526 603.28 275.943C603.271 274.051 602.036 272.918 599.496 272.398L597.126 271.92C595.908 271.656 595.456 271.239 595.464 270.608C595.456 269.824 596.342 269.312 597.467 269.312C598.729 269.312 599.479 270.003 599.658 270.847L602.982 270.642ZM609.299 280.247C611.234 280.247 612.487 279.403 613.126 278.185H613.228V280H616.671V271.17C616.671 268.051 614.029 266.739 611.114 266.739C607.978 266.739 605.915 268.239 605.413 270.625L608.771 270.898C609.018 270.028 609.793 269.389 611.097 269.389C612.333 269.389 613.04 270.011 613.04 271.085V271.136C613.04 271.98 612.146 272.091 609.87 272.312C607.279 272.551 604.952 273.42 604.952 276.344C604.952 278.935 606.802 280.247 609.299 280.247ZM610.339 277.741C609.222 277.741 608.421 277.222 608.421 276.224C608.421 275.202 609.265 274.699 610.543 274.52C611.336 274.409 612.631 274.222 613.066 273.932V275.321C613.066 276.693 611.933 277.741 610.339 277.741ZM623.119 272.432C623.127 270.744 624.133 269.756 625.599 269.756C627.056 269.756 627.934 270.71 627.925 272.312V280H631.556V271.665C631.556 268.614 629.766 266.739 627.039 266.739C625.096 266.739 623.69 267.693 623.102 269.219H622.948V266.909H619.488V280H623.119V272.432ZM641.381 266.909H638.918V263.773H635.287V266.909H633.497V269.636H635.287V276.455C635.27 279.02 637.017 280.29 639.651 280.179C640.588 280.145 641.253 279.957 641.619 279.838L641.048 277.136C640.869 277.17 640.486 277.256 640.145 277.256C639.42 277.256 638.918 276.983 638.918 275.977V269.636H641.381V266.909ZM643.746 280H647.376V272.594C647.376 270.983 648.553 269.875 650.155 269.875C650.658 269.875 651.348 269.96 651.689 270.071V266.849C651.365 266.773 650.913 266.722 650.547 266.722C649.081 266.722 647.879 267.574 647.402 269.193H647.266V266.909H643.746V280ZM656.924 280.247C658.859 280.247 660.112 279.403 660.751 278.185H660.853V280H664.296V271.17C664.296 268.051 661.654 266.739 658.739 266.739C655.603 266.739 653.54 268.239 653.038 270.625L656.396 270.898C656.643 270.028 657.418 269.389 658.722 269.389C659.958 269.389 660.665 270.011 660.665 271.085V271.136C660.665 271.98 659.771 272.091 657.495 272.312C654.904 272.551 652.577 273.42 652.577 276.344C652.577 278.935 654.427 280.247 656.924 280.247ZM657.964 277.741C656.847 277.741 656.046 277.222 656.046 276.224C656.046 275.202 656.89 274.699 658.168 274.52C658.961 274.409 660.256 274.222 660.691 273.932V275.321C660.691 276.693 659.558 277.741 657.964 277.741ZM673.011 285.182C676.752 285.182 679.411 283.477 679.411 280.128V266.909H675.806V269.108H675.67C675.184 268.043 674.119 266.739 671.928 266.739C669.056 266.739 666.627 268.972 666.627 273.429C666.627 277.784 668.988 279.812 671.937 279.812C674.025 279.812 675.192 278.764 675.67 277.682H675.823V280.077C675.823 281.875 674.673 282.574 673.096 282.574C671.494 282.574 670.684 281.875 670.386 281.082L667.028 281.534C667.462 283.597 669.482 285.182 673.011 285.182ZM673.087 277.085C671.306 277.085 670.335 275.67 670.335 273.412C670.335 271.188 671.289 269.628 673.087 269.628C674.852 269.628 675.84 271.119 675.84 273.412C675.84 275.722 674.835 277.085 673.087 277.085Z" fill="white"/>
<rect x="276" y="364" width="569" height="54" fill="#5279DF"/>
<path d="M875 391.404L841 436.404L841 347L875 391.404Z" fill="#5279DF"/>
<path d="M470.983 399L472.278 395.02H478.576L479.872 399H483.826L477.809 381.545H473.054L467.028 399H470.983ZM473.216 392.139L475.363 385.534H475.5L477.647 392.139H473.216ZM496.423 385.909H492.579L489.869 395.276H489.733L487.014 385.909H483.179L487.755 399H491.846L496.423 385.909ZM501.639 399.247C503.574 399.247 504.826 398.403 505.466 397.185H505.568V399H509.011V390.17C509.011 387.051 506.369 385.739 503.454 385.739C500.318 385.739 498.255 387.239 497.752 389.625L501.11 389.898C501.358 389.028 502.133 388.389 503.437 388.389C504.673 388.389 505.38 389.011 505.38 390.085V390.136C505.38 390.98 504.485 391.091 502.21 391.312C499.619 391.551 497.292 392.42 497.292 395.344C497.292 397.935 499.142 399.247 501.639 399.247ZM502.679 396.741C501.562 396.741 500.761 396.222 500.761 395.224C500.761 394.202 501.605 393.699 502.883 393.52C503.676 393.409 504.971 393.222 505.406 392.932V394.321C505.406 395.693 504.272 396.741 502.679 396.741ZM515.458 381.545H511.828V399H515.458V381.545ZM522.1 399.247C524.034 399.247 525.287 398.403 525.926 397.185H526.029V399H529.472V390.17C529.472 387.051 526.83 385.739 523.915 385.739C520.779 385.739 518.716 387.239 518.213 389.625L521.571 389.898C521.819 389.028 522.594 388.389 523.898 388.389C525.134 388.389 525.841 389.011 525.841 390.085V390.136C525.841 390.98 524.946 391.091 522.671 391.312C520.08 391.551 517.753 392.42 517.753 395.344C517.753 397.935 519.603 399.247 522.1 399.247ZM523.14 396.741C522.023 396.741 521.222 396.222 521.222 395.224C521.222 394.202 522.066 393.699 523.344 393.52C524.137 393.409 525.432 393.222 525.867 392.932V394.321C525.867 395.693 524.733 396.741 523.14 396.741ZM540.684 393.426C540.692 395.182 539.49 396.102 538.186 396.102C536.814 396.102 535.928 395.139 535.919 393.597V385.909H532.289V394.244C532.297 397.304 534.087 399.17 536.721 399.17C538.689 399.17 540.104 398.156 540.692 396.622H540.828V399H544.314V385.909H540.684V393.426ZM558.11 389.642C557.787 387.23 555.843 385.739 552.537 385.739C549.187 385.739 546.98 387.29 546.988 389.812C546.98 391.773 548.216 393.043 550.772 393.554L553.039 394.006C554.181 394.236 554.701 394.653 554.718 395.31C554.701 396.085 553.858 396.639 552.588 396.639C551.292 396.639 550.431 396.085 550.21 395.02L546.639 395.207C546.98 397.713 549.11 399.256 552.579 399.256C555.971 399.256 558.4 397.526 558.409 394.943C558.4 393.051 557.164 391.918 554.625 391.398L552.255 390.92C551.037 390.656 550.585 390.239 550.593 389.608C550.585 388.824 551.471 388.312 552.596 388.312C553.858 388.312 554.608 389.003 554.787 389.847L558.11 389.642ZM560.763 399H564.343V396.903H564.505C565.007 397.994 566.107 399.213 568.221 399.213C571.203 399.213 573.53 396.852 573.53 392.472C573.53 387.972 571.101 385.739 568.229 385.739C566.039 385.739 564.99 387.043 564.505 388.108H564.394V381.545H560.763V399ZM564.317 392.455C564.317 390.119 565.306 388.628 567.07 388.628C568.868 388.628 569.823 390.188 569.823 392.455C569.823 394.739 568.851 396.324 567.07 396.324C565.323 396.324 564.317 394.79 564.317 392.455ZM584.348 393.426C584.356 395.182 583.154 396.102 581.85 396.102C580.478 396.102 579.592 395.139 579.583 393.597V385.909H575.953V394.244C575.961 397.304 577.751 399.17 580.385 399.17C582.353 399.17 583.768 398.156 584.356 396.622H584.493V399H587.978V385.909H584.348V393.426ZM596.797 399.256C600.283 399.256 602.473 397.21 602.644 394.202H599.218C599.005 395.599 598.084 396.384 596.84 396.384C595.144 396.384 594.044 394.96 594.044 392.455C594.044 389.983 595.152 388.568 596.84 388.568C598.169 388.568 599.022 389.446 599.218 390.75H602.644C602.49 387.724 600.198 385.739 596.78 385.739C592.809 385.739 590.354 388.491 590.354 392.506C590.354 396.486 592.766 399.256 596.797 399.256ZM608.599 391.432C608.608 389.744 609.639 388.756 611.122 388.756C612.596 388.756 613.466 389.702 613.457 391.312V399H617.088V390.665C617.096 387.597 615.289 385.739 612.562 385.739C610.576 385.739 609.247 386.676 608.65 388.219H608.497V381.545H604.968V399H608.599V391.432ZM628.34 393.426C628.348 395.182 627.147 396.102 625.843 396.102C624.471 396.102 623.584 395.139 623.576 393.597V385.909H619.945V394.244C619.953 397.304 621.743 399.17 624.377 399.17C626.346 399.17 627.76 398.156 628.348 396.622H628.485V399H631.971V385.909H628.34V393.426ZM638.505 391.432C638.514 389.744 639.52 388.756 640.985 388.756C642.443 388.756 643.321 389.71 643.312 391.312V399H646.943V390.665C646.943 387.614 645.153 385.739 642.426 385.739C640.483 385.739 639.076 386.693 638.488 388.219H638.335V385.909H634.875V399H638.505V391.432ZM655.702 404.182C659.444 404.182 662.103 402.477 662.103 399.128V385.909H658.498V388.108H658.361C657.875 387.043 656.81 385.739 654.62 385.739C651.748 385.739 649.319 387.972 649.319 392.429C649.319 396.784 651.679 398.812 654.628 398.812C656.716 398.812 657.884 397.764 658.361 396.682H658.515V399.077C658.515 400.875 657.364 401.574 655.787 401.574C654.185 401.574 653.375 400.875 653.077 400.082L649.719 400.534C650.154 402.597 652.174 404.182 655.702 404.182ZM655.779 396.085C653.998 396.085 653.026 394.67 653.026 392.412C653.026 390.188 653.98 388.628 655.779 388.628C657.543 388.628 658.532 390.119 658.532 392.412C658.532 394.722 657.526 396.085 655.779 396.085Z" fill="white"/>
<rect x="276" y="483" width="569" height="54" fill="#5279DF"/>
<path d="M875 510.404L841 555.404L841 466L875 510.404Z" fill="#5279DF"/>
<path d="M485.623 518H489.313V511.812H492.006L495.313 518H499.387L495.679 511.216C497.665 510.364 498.765 508.634 498.765 506.247C498.765 502.778 496.472 500.545 492.509 500.545H485.623V518ZM489.313 508.847V503.562H491.801C493.932 503.562 494.963 504.509 494.963 506.247C494.963 507.977 493.932 508.847 491.819 508.847H489.313ZM509.699 512.426C509.708 514.182 508.506 515.102 507.202 515.102C505.83 515.102 504.944 514.139 504.935 512.597V504.909H501.304V513.244C501.313 516.304 503.103 518.17 505.736 518.17C507.705 518.17 509.12 517.156 509.708 515.622H509.844V518H513.33V504.909H509.699V512.426ZM504.739 503.119C505.728 503.119 506.512 502.327 506.512 501.381C506.512 500.418 505.728 499.651 504.739 499.651C503.759 499.651 502.949 500.418 502.949 501.381C502.949 502.327 503.759 503.119 504.739 503.119ZM509.955 503.119C510.944 503.119 511.728 502.327 511.728 501.381C511.728 500.418 510.944 499.651 509.955 499.651C508.975 499.651 508.165 500.418 508.165 501.381C508.165 502.327 508.975 503.119 509.955 503.119ZM522.149 518.256C525.635 518.256 527.825 516.21 527.995 513.202H524.569C524.356 514.599 523.436 515.384 522.191 515.384C520.495 515.384 519.396 513.96 519.396 511.455C519.396 508.983 520.504 507.568 522.191 507.568C523.521 507.568 524.373 508.446 524.569 509.75H527.995C527.842 506.724 525.549 504.739 522.132 504.739C518.16 504.739 515.706 507.491 515.706 511.506C515.706 515.486 518.118 518.256 522.149 518.256ZM530.32 518H533.951V513.841L534.931 512.724L538.502 518H542.755L537.65 510.577L542.507 504.909H538.34L534.147 509.878H533.951V500.545H530.32V518ZM555.181 508.642C554.857 506.23 552.914 504.739 549.607 504.739C546.257 504.739 544.05 506.29 544.059 508.812C544.05 510.773 545.286 512.043 547.843 512.554L550.11 513.006C551.252 513.236 551.772 513.653 551.789 514.31C551.772 515.085 550.928 515.639 549.658 515.639C548.363 515.639 547.502 515.085 547.28 514.02L543.709 514.207C544.05 516.713 546.181 518.256 549.65 518.256C553.042 518.256 555.471 516.526 555.479 513.943C555.471 512.051 554.235 510.918 551.695 510.398L549.326 509.92C548.107 509.656 547.655 509.239 547.664 508.608C547.655 507.824 548.542 507.312 549.667 507.312C550.928 507.312 551.678 508.003 551.857 508.847L555.181 508.642ZM563.731 518.256C566.97 518.256 569.152 516.679 569.663 514.25L566.305 514.028C565.939 515.026 565.001 515.545 563.791 515.545C561.975 515.545 560.825 514.344 560.825 512.392V512.384H569.74V511.386C569.74 506.938 567.047 504.739 563.586 504.739C559.734 504.739 557.237 507.474 557.237 511.514C557.237 515.665 559.7 518.256 563.731 518.256ZM560.825 510.134C560.902 508.642 562.035 507.449 563.646 507.449C565.223 507.449 566.314 508.574 566.322 510.134H560.825ZM575.74 510.432C575.748 508.744 576.754 507.756 578.22 507.756C579.677 507.756 580.555 508.71 580.547 510.312V518H584.177V509.665C584.177 506.614 582.387 504.739 579.66 504.739C577.717 504.739 576.311 505.693 575.723 507.219H575.569V504.909H572.109V518H575.74V510.432ZM591.863 518.213C593.976 518.213 595.076 516.994 595.578 515.903H595.732V518H599.311V500.545H595.689V507.108H595.578C595.093 506.043 594.044 504.739 591.854 504.739C588.982 504.739 586.553 506.972 586.553 511.472C586.553 515.852 588.88 518.213 591.863 518.213ZM593.013 515.324C591.232 515.324 590.26 513.739 590.26 511.455C590.26 509.188 591.215 507.628 593.013 507.628C594.777 507.628 595.766 509.119 595.766 511.455C595.766 513.79 594.76 515.324 593.013 515.324ZM610.691 512.426C610.7 514.182 609.498 515.102 608.194 515.102C606.822 515.102 605.936 514.139 605.927 512.597V504.909H602.297V513.244C602.305 516.304 604.095 518.17 606.728 518.17C608.697 518.17 610.112 517.156 610.7 515.622H610.836V518H614.322V504.909H610.691V512.426ZM620.857 510.432C620.865 508.744 621.871 507.756 623.337 507.756C624.794 507.756 625.672 508.71 625.664 510.312V518H629.294V509.665C629.294 506.614 627.505 504.739 624.777 504.739C622.834 504.739 621.428 505.693 620.84 507.219H620.686V504.909H617.226V518H620.857V510.432ZM638.054 523.182C641.795 523.182 644.454 521.477 644.454 518.128V504.909H640.849V507.108H640.713C640.227 506.043 639.162 504.739 636.971 504.739C634.099 504.739 631.67 506.972 631.67 511.429C631.67 515.784 634.031 517.812 636.98 517.812C639.068 517.812 640.235 516.764 640.713 515.682H640.866V518.077C640.866 519.875 639.716 520.574 638.139 520.574C636.537 520.574 635.727 519.875 635.429 519.082L632.071 519.534C632.505 521.597 634.525 523.182 638.054 523.182ZM638.13 515.085C636.349 515.085 635.377 513.67 635.377 511.412C635.377 509.188 636.332 507.628 638.13 507.628C639.895 507.628 640.883 509.119 640.883 511.412C640.883 513.722 639.877 515.085 638.13 515.085Z" fill="white"/>
<line x1="161" y1="152" x2="161" y2="595" stroke="#001540" stroke-width="2" stroke-dasharray="12 12"/>
<rect width="320" height="150" fill="#B6CEFF"/>
<path d="M124.751 71.25H129.751C129.115 66.6477 125.058 63.4091 119.797 63.4091C113.649 63.4091 108.911 67.8409 108.911 75.3864C108.911 82.75 113.342 87.3182 119.899 87.3182C125.774 87.3182 129.967 83.6023 129.967 77.4773V74.5455H120.229V78.25H125.229C125.161 81.1364 123.195 82.9659 119.922 82.9659C116.229 82.9659 113.899 80.2045 113.899 75.3409C113.899 70.5 116.32 67.7614 119.876 67.7614C122.411 67.7614 124.126 69.0682 124.751 71.25ZM138.55 87.3295C141.129 87.3295 142.8 86.2045 143.652 84.5795H143.788V87H148.379V75.2273C148.379 71.0682 144.857 69.3182 140.97 69.3182C136.788 69.3182 134.038 71.3182 133.368 74.5L137.845 74.8636C138.175 73.7045 139.209 72.8523 140.947 72.8523C142.595 72.8523 143.538 73.6818 143.538 75.1136V75.1818C143.538 76.3068 142.345 76.4545 139.311 76.75C135.857 77.0682 132.754 78.2273 132.754 82.125C132.754 85.5795 135.22 87.3295 138.55 87.3295ZM139.936 83.9886C138.447 83.9886 137.379 83.2955 137.379 81.9659C137.379 80.6023 138.504 79.9318 140.209 79.6932C141.266 79.5455 142.993 79.2955 143.572 78.9091V80.7614C143.572 82.5909 142.061 83.9886 139.936 83.9886ZM152.135 87H156.976V77.125C156.976 74.9773 158.544 73.5 160.68 73.5C161.351 73.5 162.271 73.6136 162.726 73.7614V69.4659C162.294 69.3636 161.692 69.2955 161.203 69.2955C159.249 69.2955 157.646 70.4318 157.01 72.5909H156.828V69.5455H152.135V87ZM169.706 87.3295C172.286 87.3295 173.956 86.2045 174.808 84.5795H174.945V87H179.536V75.2273C179.536 71.0682 176.013 69.3182 172.126 69.3182C167.945 69.3182 165.195 71.3182 164.524 74.5L169.001 74.8636C169.331 73.7045 170.365 72.8523 172.104 72.8523C173.751 72.8523 174.695 73.6818 174.695 75.1136V75.1818C174.695 76.3068 173.501 76.4545 170.467 76.75C167.013 77.0682 163.911 78.2273 163.911 82.125C163.911 85.5795 166.376 87.3295 169.706 87.3295ZM171.092 83.9886C169.604 83.9886 168.536 83.2955 168.536 81.9659C168.536 80.6023 169.661 79.9318 171.365 79.6932C172.422 79.5455 174.149 79.2955 174.729 78.9091V80.7614C174.729 82.5909 173.217 83.9886 171.092 83.9886ZM188.132 76.9091C188.143 74.6591 189.484 73.3409 191.439 73.3409C193.382 73.3409 194.553 74.6136 194.541 76.75V87H199.382V75.8864C199.382 71.8182 196.996 69.3182 193.359 69.3182C190.768 69.3182 188.893 70.5909 188.109 72.625H187.905V69.5455H183.291V87H188.132V76.9091ZM212.482 69.5455H209.197V65.3636H204.357V69.5455H201.97V73.1818H204.357V82.2727C204.334 85.6932 206.663 87.3864 210.175 87.2386C211.425 87.1932 212.311 86.9432 212.8 86.7841L212.038 83.1818C211.8 83.2273 211.288 83.3409 210.834 83.3409C209.868 83.3409 209.197 82.9773 209.197 81.6364V73.1818H212.482V69.5455Z" fill="#001540"/>
<rect x="974" y="164" width="147" height="447" rx="3" fill="#001540"/>
<path d="M1107.97 384.598C1107.97 384.505 1107.97 384.413 1107.97 384.29C1108 382.074 1106.89 380.442 1104.65 379.765C1102.97 379.242 1101.16 378.841 1099.38 378.78C1094.38 378.626 1089.38 378.687 1084.38 378.626C1083.31 378.595 1082.2 378.441 1081.16 378.195C1080.61 378.072 1080.02 377.672 1079.72 377.241C1078.52 375.394 1079.62 372.87 1081.89 372.408C1083.52 372.1 1085.18 371.915 1086.83 371.915C1092.69 371.854 1098.58 371.885 1104.44 371.854C1104.87 371.854 1105.42 371.731 1105.67 371.484C1106.22 370.838 1106.62 370.038 1107.11 369.237H1084.29C1082.75 369.237 1081.19 369.391 1079.66 369.637C1075.18 370.284 1073.18 372.931 1073.89 377.025C1074.23 378.965 1075.39 380.288 1077.45 380.719C1079.07 381.058 1080.73 381.304 1082.39 381.335C1087.08 381.427 1091.8 381.366 1096.49 381.458C1097.75 381.489 1099.04 381.643 1100.24 381.95C1101.89 382.381 1102.45 383.52 1102.38 385.644C1102.32 387.245 1101.68 388.138 1100.08 388.507C1098.89 388.784 1097.66 388.907 1096.43 388.907C1089.5 388.938 1082.6 388.938 1075.67 388.938C1075.33 388.938 1074.81 388.938 1074.69 389.123C1074.07 389.923 1073.58 390.785 1073 391.739H1096.16C1097.78 391.739 1099.41 391.708 1101.03 391.524C1105.17 391.093 1108.36 389.831 1107.97 384.598Z" fill="white"/>
<path d="M1046.65 391.742L1055.36 391.773C1056.59 391.773 1057.73 391.096 1058.31 390.018C1061.87 383.4 1068.43 371.026 1069.38 369.21C1067.33 369.21 1068.68 369.148 1066.87 369.24C1066.47 369.271 1065.98 369.702 1065.73 370.071C1061.96 376.69 1060.76 378.66 1057.02 385.278C1056.28 386.571 1055.55 387.894 1054.78 389.249C1054.41 389.865 1053.77 390.265 1053.03 390.265H1052.11C1051.41 390.265 1050.73 389.865 1050.36 389.249C1049.6 387.894 1048.86 386.602 1048.13 385.278C1044.38 378.629 1043.07 376.69 1039.29 370.071C1039.08 369.702 1038.56 369.271 1038.16 369.24C1036.38 369.148 1034.57 369.21 1032.51 369.21C1033.5 371.026 1040.15 383.4 1043.68 389.988C1044.29 391.065 1045.43 391.742 1046.65 391.742Z" fill="white"/>
<path d="M1018.28 369.33H990L992.392 372.131L1015.76 372.501C1019.38 372.562 1022.3 375.517 1022.3 379.15L1022.33 382.136C1022.33 385.799 1019.41 388.785 1015.73 388.815L998.404 389.031C998.158 389.031 997.974 388.846 997.974 388.6V378.688L992.362 372.1V391.062C992.362 391.432 992.668 391.771 993.067 391.771H1018.25C1024.01 391.771 1028.71 387.061 1028.71 381.274V379.796C1028.71 374.009 1024.05 369.33 1018.28 369.33Z" fill="white"/>
<path d="M997.867 405.992C997.614 406.323 997.262 406.574 996.813 406.744C996.364 406.914 995.854 406.999 995.282 406.999C994.695 406.999 994.175 406.866 993.723 406.599C993.27 406.332 992.921 405.952 992.674 405.457C992.43 404.958 992.303 404.378 992.293 403.716V403.167C992.293 402.106 992.547 401.278 993.054 400.684C993.561 400.086 994.268 399.787 995.176 399.787C995.956 399.787 996.576 399.98 997.035 400.366C997.494 400.752 997.769 401.307 997.862 402.034H996.669C996.534 401.188 996.045 400.766 995.201 400.766C994.655 400.766 994.239 400.963 993.954 401.359C993.672 401.751 993.526 402.328 993.516 403.09V403.629C993.516 404.388 993.675 404.978 993.992 405.399C994.313 405.817 994.758 406.025 995.326 406.025C995.948 406.025 996.391 405.884 996.654 405.601V404.227H995.21V403.301H997.867V405.992Z" fill="white"/>
<path d="M1006.31 399.884V404.574C1006.31 405.32 1006.07 405.912 1005.59 406.349C1005.11 406.782 1004.48 407 1003.69 407C1002.88 407 1002.25 406.786 1001.78 406.358C1001.3 405.927 1001.07 405.331 1001.07 404.57V399.884H1002.28V404.579C1002.28 405.049 1002.4 405.407 1002.64 405.654C1002.87 405.902 1003.22 406.026 1003.69 406.026C1004.62 406.026 1005.09 405.531 1005.09 404.541V399.884H1006.31Z" fill="white"/>
<path d="M1013.4 405.269H1010.68L1010.12 406.903H1008.85L1011.5 399.884H1012.59L1015.24 406.903H1013.97L1013.4 405.269ZM1011.03 404.285H1013.06L1012.04 401.373L1011.03 404.285Z" fill="white"/>
<path d="M1020.59 404.198H1019.23V406.903H1018.01V399.884H1020.48C1021.28 399.884 1021.91 400.065 1022.35 400.429C1022.79 400.792 1023.01 401.317 1023.01 402.005C1023.01 402.474 1022.89 402.868 1022.67 403.186C1022.44 403.501 1022.13 403.744 1021.72 403.914L1023.3 406.84V406.903H1021.99L1020.59 404.198ZM1019.23 403.22H1020.48C1020.89 403.22 1021.21 403.117 1021.44 402.912C1021.67 402.702 1021.79 402.418 1021.79 402.058C1021.79 401.682 1021.68 401.391 1021.47 401.185C1021.26 400.98 1020.94 400.874 1020.51 400.867H1019.23V403.22Z" fill="white"/>
<path d="M1030.06 405.269H1027.34L1026.78 406.903H1025.51L1028.16 399.884H1029.25L1031.9 406.903H1030.63L1030.06 405.269ZM1027.69 404.285H1029.72L1028.7 401.373L1027.69 404.285Z" fill="white"/>
<path d="M1040.23 406.903H1039.01L1035.89 401.923V406.903H1034.67V399.884H1035.89L1039.02 404.883V399.884H1040.23V406.903Z" fill="white"/>
<path d="M1048.56 400.867H1046.38V406.903H1045.17V400.867H1043V399.884H1048.56V400.867Z" fill="white"/>
<path d="M1055.56 403.769H1052.68V405.929H1056.04V406.903H1051.46V399.884H1056.01V400.867H1052.68V402.805H1055.56V403.769Z" fill="white"/>
<path d="M1063.1 403.769H1060.22V405.929H1063.59V406.903H1059V399.884H1063.55V400.867H1060.22V402.805H1063.1V403.769Z" fill="white"/>
<path d="M1073.45 405.375L1075.23 399.884H1076.57L1074.04 406.903H1072.86L1070.35 399.884H1071.68L1073.45 405.375Z" fill="white"/>
<path d="M1082.89 405.269H1080.17L1079.61 406.903H1078.34L1080.99 399.884H1082.08L1084.73 406.903H1083.46L1082.89 405.269ZM1080.52 404.285H1082.55L1081.53 401.373L1080.52 404.285Z" fill="white"/>
<path d="M1092.54 399.884V404.574C1092.54 405.32 1092.3 405.912 1091.83 406.349C1091.35 406.782 1090.72 407 1089.93 407C1089.12 407 1088.49 406.786 1088.01 406.358C1087.54 405.927 1087.31 405.331 1087.31 404.57V399.884H1088.52V404.579C1088.52 405.049 1088.64 405.407 1088.88 405.654C1089.11 405.902 1089.46 406.026 1089.93 406.026C1090.86 406.026 1091.33 405.531 1091.33 404.541V399.884H1092.54Z" fill="white"/>
<path d="M1097.04 405.929H1100.22V406.903H1095.82V399.884H1097.04V405.929Z" fill="white"/>
<path d="M1107.2 400.867H1105.01V406.903H1103.8V400.867H1101.64V399.884H1107.2V400.867Z" fill="white"/>
<path d="M1076.52 318.573C1076.72 316.742 1076.59 314.912 1076.13 313.147C1075.61 311.087 1074.6 309.159 1073.29 307.524C1071.95 305.89 1070.25 304.517 1068.39 303.569C1067.44 303.111 1066.46 302.719 1065.41 302.458C1064.4 302.196 1063.36 302.065 1062.31 302H1061.92H1061.53H1060.77L1059.27 302.033L1056.26 302.098L1053.26 302.163L1050.25 302.229C1046.23 302.327 1042.21 302.458 1038.19 302.621C1042.21 302.817 1046.23 302.915 1050.25 303.013L1053.26 303.079L1056.26 303.144L1059.27 303.209L1060.77 303.242H1061.53H1061.88L1062.24 303.275C1064.17 303.406 1066.03 303.929 1067.73 304.811C1068.58 305.269 1069.37 305.792 1070.12 306.413C1070.87 307.034 1071.53 307.72 1072.11 308.44C1072.9 309.453 1073.55 310.564 1074.04 311.741C1073.85 311.447 1073.65 311.185 1073.42 310.891C1072.77 310.074 1072.05 309.355 1071.26 308.668C1070.48 308.015 1069.6 307.426 1068.68 306.936C1067.77 306.446 1066.82 306.086 1065.81 305.792C1064.83 305.498 1063.81 305.334 1062.77 305.269C1062.51 305.236 1062.24 305.236 1062.02 305.236C1061.88 305.236 1061.75 305.236 1061.62 305.236C1061.49 305.236 1061.36 305.236 1061.26 305.236L1059.79 305.269C1057.83 305.301 1055.87 305.367 1053.91 305.4C1051.95 305.465 1049.99 305.53 1048.03 305.596L1045.09 305.726C1044.6 305.759 1044.11 305.759 1043.62 305.792C1043.13 305.824 1042.64 305.824 1042.15 305.857C1042.64 305.89 1043.13 305.923 1043.62 305.923C1044.11 305.955 1044.6 305.988 1045.09 305.988L1048.03 306.119C1049.99 306.184 1051.95 306.249 1053.91 306.315C1055.87 306.38 1057.83 306.413 1059.79 306.446L1061.26 306.478H1061.62C1061.75 306.478 1061.85 306.478 1061.98 306.478C1062.21 306.478 1062.44 306.511 1062.67 306.544C1063.62 306.642 1064.53 306.838 1065.41 307.099C1067.21 307.655 1068.85 308.57 1070.28 309.78C1071.69 310.989 1072.86 312.493 1073.68 314.16C1073.81 314.421 1073.94 314.716 1074.04 314.977C1073.75 314.519 1073.42 314.095 1073.06 313.702C1071.72 312.133 1070.05 310.858 1068.19 309.943C1067.28 309.486 1066.3 309.159 1065.28 308.897C1064.27 308.668 1063.26 308.538 1062.24 308.505C1061.98 308.505 1061.72 308.505 1061.49 308.505H1060.74L1059.27 308.538L1056.33 308.603L1053.39 308.701L1050.45 308.799C1048.49 308.864 1046.53 308.963 1044.56 309.093C1046.53 309.224 1048.49 309.289 1050.45 309.387L1053.39 309.486L1056.33 309.584L1059.27 309.649L1060.74 309.682H1061.49C1061.72 309.682 1061.95 309.682 1062.21 309.714C1064.07 309.812 1065.94 310.335 1067.57 311.185C1070.51 312.656 1072.83 315.206 1074.07 318.246C1073.81 317.886 1073.55 317.494 1073.26 317.167C1072.6 316.383 1071.85 315.631 1071.03 315.01C1070.22 314.356 1069.37 313.8 1068.42 313.343C1067.51 312.885 1066.52 312.526 1065.54 312.264C1064.56 312.002 1063.52 311.839 1062.51 311.806C1062.37 311.806 1062.24 311.806 1062.11 311.806C1061.98 311.806 1061.85 311.806 1061.72 311.806H1061.53H1061.33H1060.97L1059.5 311.839C1057.54 311.904 1055.58 311.97 1053.62 312.068C1052.64 312.101 1051.66 312.166 1050.68 312.231C1049.7 312.297 1048.72 312.362 1047.73 312.427C1048.72 312.493 1049.7 312.558 1050.68 312.624C1051.66 312.689 1052.64 312.722 1053.62 312.787C1055.58 312.885 1057.54 312.95 1059.5 313.016L1060.97 313.049L1061.69 313.081C1061.82 313.081 1061.92 313.081 1062.05 313.081C1062.18 313.081 1062.28 313.081 1062.41 313.114C1063.36 313.179 1064.27 313.375 1065.15 313.604C1066.95 314.127 1068.62 315.01 1070.05 316.219C1070.77 316.808 1071.43 317.494 1072.01 318.213C1072.6 318.932 1073.09 319.717 1073.52 320.534C1073.68 320.861 1073.85 321.221 1074.01 321.58C1073.65 321.057 1073.26 320.567 1072.83 320.076C1071.46 318.54 1069.76 317.265 1067.9 316.415C1066.95 315.99 1065.97 315.664 1064.99 315.435C1063.98 315.206 1062.96 315.108 1061.95 315.075H1061.56H1061.2L1060.45 315.108C1059.96 315.141 1059.47 315.141 1058.98 315.173L1057.51 315.239L1056.04 315.304C1054.07 315.402 1052.11 315.533 1050.15 315.696C1052.11 315.892 1054.07 315.99 1056.04 316.089L1057.51 316.154L1058.98 316.219C1059.47 316.252 1059.96 316.252 1060.45 316.285L1061.2 316.317L1061.92 316.35C1062.87 316.383 1063.78 316.513 1064.69 316.742C1065.61 316.971 1066.49 317.298 1067.31 317.69C1068.16 318.082 1068.94 318.573 1069.69 319.161C1070.45 319.717 1071.1 320.371 1071.72 321.057C1072.34 321.776 1072.9 322.561 1073.35 323.411C1073.29 323.509 1073.26 323.607 1073.19 323.705C1072.21 322.528 1071.07 321.515 1069.83 320.697C1068.06 319.553 1066.03 318.802 1063.94 318.475C1063.42 318.409 1062.9 318.344 1062.37 318.344H1061.98H1061.59C1061.33 318.344 1061.1 318.377 1060.84 318.377C1059.83 318.409 1058.81 318.475 1057.83 318.507C1055.81 318.638 1053.81 318.736 1051.79 318.965C1053.81 319.161 1055.81 319.292 1057.83 319.423C1058.85 319.488 1059.86 319.521 1060.84 319.553L1061.59 319.586H1061.95L1062.31 319.619C1062.8 319.651 1063.26 319.717 1063.75 319.782C1064.69 319.946 1065.61 320.207 1066.49 320.567C1067.37 320.926 1068.22 321.384 1069.01 321.907C1070.28 322.757 1071.39 323.803 1072.31 325.012C1071.33 326.32 1070.12 327.431 1068.75 328.314C1067.93 328.837 1067.08 329.262 1066.2 329.588C1065.32 329.915 1064.37 330.177 1063.42 330.308C1062.93 330.373 1062.47 330.439 1061.98 330.439C1061.85 330.439 1061.75 330.439 1061.62 330.439H1061.26H1060.51L1057.51 330.471C1053.49 330.536 1049.47 330.602 1045.45 330.7C1043.42 330.733 1041.43 330.798 1039.4 330.863C1037.38 330.929 1035.38 330.994 1033.36 331.06C1035.38 331.125 1037.38 331.19 1039.4 331.256C1041.43 331.321 1043.42 331.354 1045.45 331.419C1049.47 331.517 1053.49 331.582 1057.51 331.648L1060.51 331.681H1061.26H1061.66C1061.79 331.681 1061.92 331.681 1062.05 331.681C1062.57 331.681 1063.09 331.648 1063.62 331.582C1065.71 331.321 1067.73 330.634 1069.56 329.523C1070.48 328.968 1071.3 328.314 1072.08 327.594C1072.51 327.202 1072.9 326.777 1073.26 326.352C1073.32 326.451 1073.35 326.549 1073.42 326.647C1073.29 326.908 1073.16 327.137 1073 327.366C1072.51 328.15 1071.92 328.869 1071.26 329.556C1069.99 330.896 1068.42 331.975 1066.69 332.694C1065.84 333.054 1064.92 333.315 1064.01 333.511C1063.55 333.609 1063.09 333.675 1062.6 333.707C1062.47 333.707 1062.37 333.74 1062.24 333.74C1062.11 333.74 1062.02 333.74 1061.88 333.773H1061.53H1061.17L1055.28 333.838C1051.36 333.903 1047.44 333.969 1043.52 334.067L1040.58 334.132L1037.64 334.198C1035.68 334.263 1033.72 334.296 1031.75 334.361C1033.72 334.426 1035.68 334.492 1037.64 334.524L1040.58 334.59L1043.52 334.655C1047.44 334.753 1051.36 334.819 1055.28 334.884L1061.17 334.949H1061.53H1061.92C1062.05 334.949 1062.18 334.949 1062.31 334.949C1062.44 334.949 1062.57 334.949 1062.7 334.917C1063.22 334.884 1063.71 334.819 1064.24 334.753C1065.25 334.59 1066.26 334.329 1067.21 333.936C1068.16 333.576 1069.11 333.086 1069.96 332.53C1070.81 331.975 1071.62 331.321 1072.34 330.569C1073 329.915 1073.58 329.229 1074.07 328.477C1073.85 329.066 1073.55 329.621 1073.22 330.177C1072.28 331.779 1071.03 333.184 1069.53 334.296C1068.78 334.851 1068 335.342 1067.15 335.734C1066.3 336.126 1065.41 336.42 1064.5 336.649C1063.58 336.878 1062.67 336.976 1061.72 337.009L1058.78 337.042L1052.9 337.107L1047.02 337.205L1041.13 337.335C1039.17 337.368 1037.21 337.434 1035.25 337.466C1034.27 337.499 1033.29 337.499 1032.31 337.532L1029.37 337.63L1032.31 337.728C1033.29 337.761 1034.27 337.793 1035.25 337.793C1037.21 337.826 1039.17 337.891 1041.13 337.924L1047.02 338.055L1052.9 338.153L1058.78 338.218L1061.72 338.251C1062.73 338.251 1063.78 338.153 1064.79 337.957C1066.82 337.532 1068.75 336.715 1070.41 335.505C1071.26 334.917 1072.05 334.23 1072.73 333.478C1073.22 332.955 1073.68 332.367 1074.07 331.779C1073.45 333.315 1072.54 334.721 1071.43 335.93C1070.15 337.303 1068.62 338.381 1066.92 339.134C1066.07 339.526 1065.19 339.787 1064.27 339.983C1063.81 340.082 1063.36 340.147 1062.9 340.212C1062.67 340.245 1062.44 340.245 1062.21 340.277C1062.08 340.277 1061.98 340.277 1061.85 340.277C1061.72 340.277 1061.62 340.277 1061.49 340.277L1055.61 340.343L1049.73 340.408L1043.85 340.506L1037.96 340.604C1034.04 340.67 1030.12 340.768 1026.2 340.866C1030.12 340.964 1034.04 341.062 1037.96 341.128L1043.85 341.226L1049.73 341.323L1055.61 341.389L1061.49 341.454H1061.88C1062.02 341.454 1062.15 341.454 1062.28 341.454C1062.54 341.454 1062.8 341.422 1063.03 341.422C1063.55 341.389 1064.04 341.323 1064.56 341.226C1065.58 341.03 1066.56 340.735 1067.51 340.343C1069.4 339.558 1071.13 338.381 1072.57 336.878C1073.13 336.29 1073.65 335.636 1074.11 334.982C1073.91 335.505 1073.65 335.996 1073.39 336.486C1072.93 337.303 1072.41 338.055 1071.79 338.774C1071.17 339.493 1070.51 340.114 1069.76 340.702C1069.4 340.997 1069.01 341.258 1068.62 341.487C1068.22 341.749 1067.8 341.945 1067.41 342.174C1066.56 342.566 1065.68 342.893 1064.79 343.122C1063.88 343.35 1062.96 343.481 1062.02 343.514H1061.66H1061.3H1060.54H1059.07C1055.15 343.546 1051.23 343.612 1047.31 343.644C1039.47 343.775 1031.62 343.873 1023.78 344.102C1031.62 344.298 1039.47 344.429 1047.31 344.56C1051.23 344.625 1055.15 344.658 1059.07 344.69H1060.54H1061.3H1061.66H1062.05C1063.06 344.69 1064.11 344.56 1065.09 344.331C1067.08 343.873 1069.01 343.024 1070.68 341.781C1071.49 341.16 1072.28 340.474 1072.96 339.689C1073.39 339.232 1073.78 338.741 1074.11 338.218C1073.58 339.493 1072.86 340.703 1071.98 341.781C1071.36 342.5 1070.71 343.187 1069.96 343.775C1069.2 344.363 1068.39 344.887 1067.54 345.311C1066.69 345.737 1065.77 346.064 1064.86 346.325C1063.94 346.554 1062.96 346.717 1062.02 346.75H1061.66H1061.26H1060.51H1059.01L1056 346.783L1049.96 346.848L1043.91 346.913L1037.87 347.011L1031.82 347.109L1025.77 347.207L1022.77 347.273L1019.76 347.338L1022.77 347.403L1025.77 347.469L1031.82 347.567L1037.87 347.665L1043.91 347.763L1049.96 347.829L1056 347.894L1059.01 347.927H1060.51H1061.26H1061.66H1062.05C1063.09 347.927 1064.14 347.796 1065.19 347.567C1066.2 347.338 1067.21 346.979 1068.16 346.521C1070.09 345.638 1071.79 344.298 1073.16 342.696C1074.53 341.095 1075.58 339.166 1076.17 337.14C1076.69 335.276 1076.85 333.283 1076.66 331.354C1076.52 331.681 1076.56 318.9 1076.52 318.573Z" fill="white"/>
<ellipse cx="1047.5" cy="166" rx="73.5" ry="10" fill="#455A85"/>
<ellipse cx="1047.5" cy="609" rx="73.5" ry="12" fill="#001540"/>
</svg>
