<svg width="660" height="390" viewBox="0 0 660 390" fill="none" xmlns="http://www.w3.org/2000/svg">
<path d="M150 115L245 70M150 115L415 70M150 115L510.009 114.983M150 115L510.019 194.996M150 115L510 275M150 115L415 320M150 115L245 320M245 70L150 195M245 70L150 275M245 70L510 275M245 70L510.019 194.996M245 70L510 115M415 70L150 195M415 70L150 275M415 70L510 275M415 70L510.019 194.996M415 70L510 115M510.009 114.983L150 275M510.009 114.983L245 320M510.009 114.983L415 320M510.019 194.996L150 195M510.019 194.996L150 275M510 275L415 320M510 275L245 320M510 275H150M510 275L150 195M415 320L510 195L245 320M415 320L150 275M415 320L150 195M245 320L150 275M245 320L150 195M150 195L510 115" stroke="#001540" stroke-linecap="round" stroke-linejoin="round"/>
<rect x="170" width="150" height="70" rx="4" fill="#B6CEFF"/>
<path d="M225.782 34.0938H227.657C227.418 32.3679 225.897 31.1534 223.924 31.1534C221.618 31.1534 219.841 32.8153 219.841 35.6449C219.841 38.4062 221.503 40.1193 223.962 40.1193C226.165 40.1193 227.738 38.7259 227.738 36.429V35.3295H224.086V36.7188H225.961C225.935 37.8011 225.198 38.4872 223.971 38.4872C222.586 38.4872 221.712 37.4517 221.712 35.6278C221.712 33.8125 222.62 32.7855 223.954 32.7855C224.904 32.7855 225.547 33.2756 225.782 34.0938ZM230.358 40L231.006 38.0099H234.155L234.803 40H236.78L233.772 31.2727H231.394L228.381 40H230.358ZM231.475 36.5696L232.549 33.267H232.617L233.691 36.5696H231.475ZM237.831 40H239.676V36.9062H241.023L242.676 40H244.713L242.859 36.608C243.852 36.1818 244.402 35.3168 244.402 34.1236C244.402 32.3892 243.256 31.2727 241.274 31.2727H237.831V40ZM239.676 35.4233V32.7812H240.92C241.986 32.7812 242.501 33.2543 242.501 34.1236C242.501 34.9886 241.986 35.4233 240.929 35.4233H239.676ZM247.21 40L247.858 38.0099H251.007L251.655 40H253.632L250.623 31.2727H248.246L245.233 40H247.21ZM248.327 36.5696L249.4 33.267H249.469L250.542 36.5696H248.327ZM261.982 31.2727H260.145V36.7614H260.069L256.302 31.2727H254.682V40H256.528V34.5071H256.591L260.388 40H261.982V31.2727ZM263.174 32.794H265.846V40H267.67V32.794H270.342V31.2727H263.174V32.794Z" fill="#001540"/>
<rect x="340" width="150" height="70" rx="4" fill="#B6CEFF"/>
<path d="M395.782 34.0938H397.657C397.418 32.3679 395.897 31.1534 393.924 31.1534C391.618 31.1534 389.841 32.8153 389.841 35.6449C389.841 38.4062 391.503 40.1193 393.962 40.1193C396.165 40.1193 397.738 38.7259 397.738 36.429V35.3295H394.086V36.7188H395.961C395.935 37.8011 395.198 38.4872 393.971 38.4872C392.586 38.4872 391.712 37.4517 391.712 35.6278C391.712 33.8125 392.62 32.7855 393.954 32.7855C394.904 32.7855 395.547 33.2756 395.782 34.0938ZM400.358 40L401.006 38.0099H404.155L404.803 40H406.78L403.772 31.2727H401.394L398.381 40H400.358ZM401.475 36.5696L402.549 33.267H402.617L403.691 36.5696H401.475ZM407.831 40H409.676V36.9062H411.023L412.676 40H414.713L412.859 36.608C413.852 36.1818 414.402 35.3168 414.402 34.1236C414.402 32.3892 413.256 31.2727 411.274 31.2727H407.831V40ZM409.676 35.4233V32.7812H410.92C411.986 32.7812 412.501 33.2543 412.501 34.1236C412.501 34.9886 411.986 35.4233 410.929 35.4233H409.676ZM417.21 40L417.858 38.0099H421.007L421.655 40H423.632L420.623 31.2727H418.246L415.233 40H417.21ZM418.327 36.5696L419.4 33.267H419.469L420.542 36.5696H418.327ZM431.982 31.2727H430.145V36.7614H430.069L426.302 31.2727H424.682V40H426.528V34.5071H426.591L430.388 40H431.982V31.2727ZM433.174 32.794H435.846V40H437.67V32.794H440.342V31.2727H433.174V32.794Z" fill="#001540"/>
<rect x="510" y="80" width="150" height="70" rx="4" fill="#B6CEFF"/>
<path d="M539.147 120H542.876C544.836 120 545.88 118.977 545.88 117.588C545.88 116.297 544.955 115.517 543.963 115.47V115.385C544.87 115.18 545.539 114.537 545.539 113.51C545.539 112.202 544.568 111.273 542.642 111.273H539.147V120ZM540.992 118.491V116.173H542.539C543.426 116.173 543.975 116.685 543.975 117.405C543.975 118.061 543.528 118.491 542.497 118.491H540.992ZM540.992 114.925V112.764H542.394C543.213 112.764 543.677 113.186 543.677 113.817C543.677 114.507 543.115 114.925 542.36 114.925H540.992ZM547.081 120H552.979V118.479H548.926V116.395H552.659V114.874H548.926V112.794H552.961V111.273H547.081V120ZM560.215 114.094H562.09C561.852 112.368 560.33 111.153 558.357 111.153C556.052 111.153 554.275 112.815 554.275 115.645C554.275 118.406 555.937 120.119 558.396 120.119C560.599 120.119 562.171 118.726 562.171 116.429V115.33H558.519V116.719H560.394C560.369 117.801 559.632 118.487 558.404 118.487C557.019 118.487 556.146 117.452 556.146 115.628C556.146 113.812 557.053 112.786 558.387 112.786C559.338 112.786 559.981 113.276 560.215 114.094ZM568.948 111.273V116.783C568.948 117.78 568.249 118.5 567.175 118.5C566.106 118.5 565.403 117.78 565.403 116.783V111.273H563.557V116.94C563.557 118.849 564.998 120.124 567.175 120.124C569.344 120.124 570.793 118.849 570.793 116.94V111.273H568.948ZM565.876 110.378C566.37 110.378 566.762 109.982 566.762 109.509C566.762 109.027 566.37 108.643 565.876 108.643C565.385 108.643 564.981 109.027 564.981 109.509C564.981 109.982 565.385 110.378 565.876 110.378ZM568.483 110.378C568.978 110.378 569.37 109.982 569.37 109.509C569.37 109.027 568.978 108.643 568.483 108.643C567.993 108.643 567.589 109.027 567.589 109.509C567.589 109.982 567.993 110.378 568.483 110.378ZM579.611 111.273H577.774V116.761H577.698L573.931 111.273H572.311V120H574.156V114.507H574.22L578.017 120H579.611V111.273ZM585.87 113.783H587.638C587.613 112.227 586.334 111.153 584.391 111.153C582.478 111.153 581.076 112.21 581.084 113.795C581.08 115.082 581.988 115.82 583.462 116.173L584.412 116.412C585.363 116.642 585.891 116.915 585.895 117.503C585.891 118.142 585.286 118.577 584.349 118.577C583.39 118.577 582.699 118.134 582.64 117.26H580.854C580.901 119.148 582.252 120.124 584.37 120.124C586.501 120.124 587.753 119.105 587.758 117.507C587.753 116.054 586.658 115.283 585.141 114.942L584.357 114.754C583.599 114.58 582.964 114.298 582.976 113.672C582.976 113.109 583.475 112.696 584.378 112.696C585.26 112.696 585.802 113.097 585.87 113.783ZM588.666 112.794H591.338V120H593.162V112.794H595.834V111.273H588.666V112.794ZM598.86 111.273H597.014V120H598.86V111.273ZM606.165 114.094H608.04C607.801 112.368 606.28 111.153 604.307 111.153C602.001 111.153 600.224 112.815 600.224 115.645C600.224 118.406 601.886 120.119 604.345 120.119C606.548 120.119 608.121 118.726 608.121 116.429V115.33H604.469V116.719H606.344C606.318 117.801 605.581 118.487 604.354 118.487C602.969 118.487 602.095 117.452 602.095 115.628C602.095 113.812 603.003 112.786 604.336 112.786C605.287 112.786 605.93 113.276 606.165 114.094ZM608.799 112.794H611.471V120H613.295V112.794H615.967V111.273H608.799V112.794ZM617.147 120H623.045V118.479H618.992V116.395H622.725V114.874H618.992V112.794H623.028V111.273H617.147V120ZM624.495 120H626.34V116.906H627.687L629.34 120H631.377L629.523 116.608C630.516 116.182 631.066 115.317 631.066 114.124C631.066 112.389 629.92 111.273 627.938 111.273H624.495V120ZM626.34 115.423V112.781H627.584C628.65 112.781 629.165 113.254 629.165 114.124C629.165 114.989 628.65 115.423 627.593 115.423H626.34Z" fill="#001540"/>
<rect x="510" y="160" width="150" height="70" rx="4" fill="#B6CEFF"/>
<path d="M539.147 200H542.876C544.836 200 545.88 198.977 545.88 197.588C545.88 196.297 544.955 195.517 543.963 195.47V195.385C544.87 195.18 545.539 194.537 545.539 193.51C545.539 192.202 544.568 191.273 542.642 191.273H539.147V200ZM540.992 198.491V196.173H542.539C543.426 196.173 543.975 196.685 543.975 197.405C543.975 198.061 543.528 198.491 542.497 198.491H540.992ZM540.992 194.925V192.764H542.394C543.213 192.764 543.677 193.186 543.677 193.817C543.677 194.507 543.115 194.925 542.36 194.925H540.992ZM547.081 200H552.979V198.479H548.926V196.395H552.659V194.874H548.926V192.794H552.961V191.273H547.081V200ZM560.215 194.094H562.09C561.852 192.368 560.33 191.153 558.357 191.153C556.052 191.153 554.275 192.815 554.275 195.645C554.275 198.406 555.937 200.119 558.396 200.119C560.599 200.119 562.171 198.726 562.171 196.429V195.33H558.519V196.719H560.394C560.369 197.801 559.632 198.487 558.404 198.487C557.019 198.487 556.146 197.452 556.146 195.628C556.146 193.812 557.053 192.786 558.387 192.786C559.338 192.786 559.981 193.276 560.215 194.094ZM568.948 191.273V196.783C568.948 197.78 568.249 198.5 567.175 198.5C566.106 198.5 565.403 197.78 565.403 196.783V191.273H563.557V196.94C563.557 198.849 564.998 200.124 567.175 200.124C569.344 200.124 570.793 198.849 570.793 196.94V191.273H568.948ZM565.876 190.378C566.37 190.378 566.762 189.982 566.762 189.509C566.762 189.027 566.37 188.643 565.876 188.643C565.385 188.643 564.981 189.027 564.981 189.509C564.981 189.982 565.385 190.378 565.876 190.378ZM568.483 190.378C568.978 190.378 569.37 189.982 569.37 189.509C569.37 189.027 568.978 188.643 568.483 188.643C567.993 188.643 567.589 189.027 567.589 189.509C567.589 189.982 567.993 190.378 568.483 190.378ZM579.611 191.273H577.774V196.761H577.698L573.931 191.273H572.311V200H574.156V194.507H574.22L578.017 200H579.611V191.273ZM585.87 193.783H587.638C587.613 192.227 586.334 191.153 584.391 191.153C582.478 191.153 581.076 192.21 581.084 193.795C581.08 195.082 581.988 195.82 583.462 196.173L584.412 196.412C585.363 196.642 585.891 196.915 585.895 197.503C585.891 198.142 585.286 198.577 584.349 198.577C583.39 198.577 582.699 198.134 582.64 197.26H580.854C580.901 199.148 582.252 200.124 584.37 200.124C586.501 200.124 587.753 199.105 587.758 197.507C587.753 196.054 586.658 195.283 585.141 194.942L584.357 194.754C583.599 194.58 582.964 194.298 582.976 193.672C582.976 193.109 583.475 192.696 584.378 192.696C585.26 192.696 585.802 193.097 585.87 193.783ZM588.666 192.794H591.338V200H593.162V192.794H595.834V191.273H588.666V192.794ZM598.86 191.273H597.014V200H598.86V191.273ZM606.165 194.094H608.04C607.801 192.368 606.28 191.153 604.307 191.153C602.001 191.153 600.224 192.815 600.224 195.645C600.224 198.406 601.886 200.119 604.345 200.119C606.548 200.119 608.121 198.726 608.121 196.429V195.33H604.469V196.719H606.344C606.318 197.801 605.581 198.487 604.354 198.487C602.969 198.487 602.095 197.452 602.095 195.628C602.095 193.812 603.003 192.786 604.336 192.786C605.287 192.786 605.93 193.276 606.165 194.094ZM608.799 192.794H611.471V200H613.295V192.794H615.967V191.273H608.799V192.794ZM617.147 200H623.045V198.479H618.992V196.395H622.725V194.874H618.992V192.794H623.028V191.273H617.147V200ZM624.495 200H626.34V196.906H627.687L629.34 200H631.377L629.523 196.608C630.516 196.182 631.066 195.317 631.066 194.124C631.066 192.389 629.92 191.273 627.938 191.273H624.495V200ZM626.34 195.423V192.781H627.584C628.65 192.781 629.165 193.254 629.165 194.124C629.165 194.989 628.65 195.423 627.593 195.423H626.34Z" fill="#001540"/>
<rect x="510" y="240" width="150" height="70" rx="4" fill="#B6CEFF"/>
<path d="M539.147 280H542.876C544.836 280 545.88 278.977 545.88 277.588C545.88 276.297 544.955 275.517 543.963 275.47V275.385C544.87 275.18 545.539 274.537 545.539 273.51C545.539 272.202 544.568 271.273 542.642 271.273H539.147V280ZM540.992 278.491V276.173H542.539C543.426 276.173 543.975 276.685 543.975 277.405C543.975 278.061 543.528 278.491 542.497 278.491H540.992ZM540.992 274.925V272.764H542.394C543.213 272.764 543.677 273.186 543.677 273.817C543.677 274.507 543.115 274.925 542.36 274.925H540.992ZM547.081 280H552.979V278.479H548.926V276.395H552.659V274.874H548.926V272.794H552.961V271.273H547.081V280ZM560.215 274.094H562.09C561.852 272.368 560.33 271.153 558.357 271.153C556.052 271.153 554.275 272.815 554.275 275.645C554.275 278.406 555.937 280.119 558.396 280.119C560.599 280.119 562.171 278.726 562.171 276.429V275.33H558.519V276.719H560.394C560.369 277.801 559.632 278.487 558.404 278.487C557.019 278.487 556.146 277.452 556.146 275.628C556.146 273.812 557.053 272.786 558.387 272.786C559.338 272.786 559.981 273.276 560.215 274.094ZM568.948 271.273V276.783C568.948 277.78 568.249 278.5 567.175 278.5C566.106 278.5 565.403 277.78 565.403 276.783V271.273H563.557V276.94C563.557 278.849 564.998 280.124 567.175 280.124C569.344 280.124 570.793 278.849 570.793 276.94V271.273H568.948ZM565.876 270.378C566.37 270.378 566.762 269.982 566.762 269.509C566.762 269.027 566.37 268.643 565.876 268.643C565.385 268.643 564.981 269.027 564.981 269.509C564.981 269.982 565.385 270.378 565.876 270.378ZM568.483 270.378C568.978 270.378 569.37 269.982 569.37 269.509C569.37 269.027 568.978 268.643 568.483 268.643C567.993 268.643 567.589 269.027 567.589 269.509C567.589 269.982 567.993 270.378 568.483 270.378ZM579.611 271.273H577.774V276.761H577.698L573.931 271.273H572.311V280H574.156V274.507H574.22L578.017 280H579.611V271.273ZM585.87 273.783H587.638C587.613 272.227 586.334 271.153 584.391 271.153C582.478 271.153 581.076 272.21 581.084 273.795C581.08 275.082 581.988 275.82 583.462 276.173L584.412 276.412C585.363 276.642 585.891 276.915 585.895 277.503C585.891 278.142 585.286 278.577 584.349 278.577C583.39 278.577 582.699 278.134 582.64 277.26H580.854C580.901 279.148 582.252 280.124 584.37 280.124C586.501 280.124 587.753 279.105 587.758 277.507C587.753 276.054 586.658 275.283 585.141 274.942L584.357 274.754C583.599 274.58 582.964 274.298 582.976 273.672C582.976 273.109 583.475 272.696 584.378 272.696C585.26 272.696 585.802 273.097 585.87 273.783ZM588.666 272.794H591.338V280H593.162V272.794H595.834V271.273H588.666V272.794ZM598.86 271.273H597.014V280H598.86V271.273ZM606.165 274.094H608.04C607.801 272.368 606.28 271.153 604.307 271.153C602.001 271.153 600.224 272.815 600.224 275.645C600.224 278.406 601.886 280.119 604.345 280.119C606.548 280.119 608.121 278.726 608.121 276.429V275.33H604.469V276.719H606.344C606.318 277.801 605.581 278.487 604.354 278.487C602.969 278.487 602.095 277.452 602.095 275.628C602.095 273.812 603.003 272.786 604.336 272.786C605.287 272.786 605.93 273.276 606.165 274.094ZM608.799 272.794H611.471V280H613.295V272.794H615.967V271.273H608.799V272.794ZM617.147 280H623.045V278.479H618.992V276.395H622.725V274.874H618.992V272.794H623.028V271.273H617.147V280ZM624.495 280H626.34V276.906H627.687L629.34 280H631.377L629.523 276.608C630.516 276.182 631.066 275.317 631.066 274.124C631.066 272.389 629.92 271.273 627.938 271.273H624.495V280ZM626.34 275.423V272.781H627.584C628.65 272.781 629.165 273.254 629.165 274.124C629.165 274.989 628.65 275.423 627.593 275.423H626.34Z" fill="#001540"/>
<rect x="340" y="320" width="150" height="70" rx="4" fill="#B6CEFF"/>
<path d="M395.782 354.094H397.657C397.418 352.368 395.897 351.153 393.924 351.153C391.618 351.153 389.841 352.815 389.841 355.645C389.841 358.406 391.503 360.119 393.962 360.119C396.165 360.119 397.738 358.726 397.738 356.429V355.33H394.086V356.719H395.961C395.935 357.801 395.198 358.487 393.971 358.487C392.586 358.487 391.712 357.452 391.712 355.628C391.712 353.812 392.62 352.786 393.954 352.786C394.904 352.786 395.547 353.276 395.782 354.094ZM400.358 360L401.006 358.01H404.155L404.803 360H406.78L403.772 351.273H401.394L398.381 360H400.358ZM401.475 356.57L402.549 353.267H402.617L403.691 356.57H401.475ZM407.831 360H409.676V356.906H411.023L412.676 360H414.713L412.859 356.608C413.852 356.182 414.402 355.317 414.402 354.124C414.402 352.389 413.256 351.273 411.274 351.273H407.831V360ZM409.676 355.423V352.781H410.92C411.986 352.781 412.501 353.254 412.501 354.124C412.501 354.989 411.986 355.423 410.929 355.423H409.676ZM417.21 360L417.858 358.01H421.007L421.655 360H423.632L420.623 351.273H418.246L415.233 360H417.21ZM418.327 356.57L419.4 353.267H419.469L420.542 356.57H418.327ZM431.982 351.273H430.145V356.761H430.069L426.302 351.273H424.682V360H426.528V354.507H426.591L430.388 360H431.982V351.273ZM433.174 352.794H435.846V360H437.67V352.794H440.342V351.273H433.174V352.794Z" fill="#001540"/>
<rect x="170" y="320" width="150" height="70" rx="4" fill="#B6CEFF"/>
<path d="M225.782 354.094H227.657C227.418 352.368 225.897 351.153 223.924 351.153C221.618 351.153 219.841 352.815 219.841 355.645C219.841 358.406 221.503 360.119 223.962 360.119C226.165 360.119 227.738 358.726 227.738 356.429V355.33H224.086V356.719H225.961C225.935 357.801 225.198 358.487 223.971 358.487C222.586 358.487 221.712 357.452 221.712 355.628C221.712 353.812 222.62 352.786 223.954 352.786C224.904 352.786 225.547 353.276 225.782 354.094ZM230.358 360L231.006 358.01H234.155L234.803 360H236.78L233.772 351.273H231.394L228.381 360H230.358ZM231.475 356.57L232.549 353.267H232.617L233.691 356.57H231.475ZM237.831 360H239.676V356.906H241.023L242.676 360H244.713L242.859 356.608C243.852 356.182 244.402 355.317 244.402 354.124C244.402 352.389 243.256 351.273 241.274 351.273H237.831V360ZM239.676 355.423V352.781H240.92C241.986 352.781 242.501 353.254 242.501 354.124C242.501 354.989 241.986 355.423 240.929 355.423H239.676ZM247.21 360L247.858 358.01H251.007L251.655 360H253.632L250.623 351.273H248.246L245.233 360H247.21ZM248.327 356.57L249.4 353.267H249.469L250.542 356.57H248.327ZM261.982 351.273H260.145V356.761H260.069L256.302 351.273H254.682V360H256.528V354.507H256.591L260.388 360H261.982V351.273ZM263.174 352.794H265.846V360H267.67V352.794H270.342V351.273H263.174V352.794Z" fill="#001540"/>
<rect y="240" width="150" height="70" rx="4" fill="#B6CEFF"/>
<path d="M28.2784 280L28.9261 278.01H32.0753L32.723 280H34.7003L31.6918 271.273H29.3139L26.3011 280H28.2784ZM29.3949 276.57L30.4688 273.267H30.5369L31.6108 276.57H29.3949ZM41.1413 271.273V276.783C41.1413 277.78 40.4425 278.5 39.3686 278.5C38.299 278.5 37.5959 277.78 37.5959 276.783V271.273H35.7507V276.94C35.7507 278.849 37.1911 280.124 39.3686 280.124C41.5376 280.124 42.9865 278.849 42.9865 276.94V271.273H41.1413ZM44.5046 280H46.3498V276.395H49.8995V274.874H46.3498V272.794H50.283V271.273H44.5046V280ZM51.1918 272.794H53.8636V280H55.6875V272.794H58.3594V271.273H51.1918V272.794ZM59.5398 280H61.3849V276.906H62.7315L64.3849 280H66.4219L64.5682 276.608C65.5611 276.182 66.1108 275.317 66.1108 274.124C66.1108 272.389 64.9645 271.273 62.983 271.273H59.5398V280ZM61.3849 275.423V272.781H62.6293C63.6946 272.781 64.2102 273.254 64.2102 274.124C64.2102 274.989 63.6946 275.423 62.6378 275.423H61.3849ZM68.919 280L69.5668 278.01H72.7159L73.3636 280H75.3409L72.3324 271.273H69.9545L66.9418 280H68.919ZM70.0355 276.57L71.1094 273.267H71.1776L72.2514 276.57H70.0355ZM81.7681 274.094H83.6431C83.4045 272.368 81.8832 271.153 79.9102 271.153C77.6048 271.153 75.8278 272.815 75.8278 275.645C75.8278 278.406 77.4897 280.119 79.9485 280.119C82.1516 280.119 83.7241 278.726 83.7241 276.429V275.33H80.0721V276.719H81.9471C81.9215 277.801 81.1843 278.487 79.957 278.487C78.5721 278.487 77.6985 277.452 77.6985 275.628C77.6985 273.812 78.6062 272.786 79.94 272.786C80.8903 272.786 81.5337 273.276 81.7681 274.094ZM90.897 274.094H92.772C92.5334 272.368 91.0121 271.153 89.0391 271.153C86.7337 271.153 84.9567 272.815 84.9567 275.645C84.9567 278.406 86.6186 280.119 89.0774 280.119C91.2805 280.119 92.853 278.726 92.853 276.429V275.33H89.201V276.719H91.076C91.0504 277.801 90.3132 278.487 89.0859 278.487C87.701 278.487 86.8274 277.452 86.8274 275.628C86.8274 273.812 87.7351 272.786 89.0689 272.786C90.0192 272.786 90.6626 273.276 90.897 274.094ZM94.239 280H100.137V278.479H96.0842V276.395H99.8171V274.874H96.0842V272.794H100.12V271.273H94.239V280ZM101.587 280H105.315C107.276 280 108.32 278.977 108.32 277.588C108.32 276.297 107.395 275.517 106.402 275.47V275.385C107.31 275.18 107.979 274.537 107.979 273.51C107.979 272.202 107.007 271.273 105.081 271.273H101.587V280ZM103.432 278.491V276.173H104.979C105.865 276.173 106.415 276.685 106.415 277.405C106.415 278.061 105.967 278.491 104.936 278.491H103.432ZM103.432 274.925V272.764H104.834C105.652 272.764 106.116 273.186 106.116 273.817C106.116 274.507 105.554 274.925 104.8 274.925H103.432ZM109.52 280H115.418V278.479H111.365V276.395H115.098V274.874H111.365V272.794H115.401V271.273H109.52V280ZM116.868 280H118.713V276.906H120.06L121.713 280H123.75L121.896 276.608C122.889 276.182 123.439 275.317 123.439 274.124C123.439 272.389 122.293 271.273 120.311 271.273H116.868V280ZM118.713 275.423V272.781H119.957C121.023 272.781 121.538 273.254 121.538 274.124C121.538 274.989 121.023 275.423 119.966 275.423H118.713Z" fill="#001540"/>
<rect y="160" width="150" height="70" rx="4" fill="#B6CEFF"/>
<path d="M28.2784 200L28.9261 198.01H32.0753L32.723 200H34.7003L31.6918 191.273H29.3139L26.3011 200H28.2784ZM29.3949 196.57L30.4688 193.267H30.5369L31.6108 196.57H29.3949ZM41.1413 191.273V196.783C41.1413 197.78 40.4425 198.5 39.3686 198.5C38.299 198.5 37.5959 197.78 37.5959 196.783V191.273H35.7507V196.94C35.7507 198.849 37.1911 200.124 39.3686 200.124C41.5376 200.124 42.9865 198.849 42.9865 196.94V191.273H41.1413ZM44.5046 200H46.3498V196.395H49.8995V194.874H46.3498V192.794H50.283V191.273H44.5046V200ZM51.1918 192.794H53.8636V200H55.6875V192.794H58.3594V191.273H51.1918V192.794ZM59.5398 200H61.3849V196.906H62.7315L64.3849 200H66.4219L64.5682 196.608C65.5611 196.182 66.1108 195.317 66.1108 194.124C66.1108 192.389 64.9645 191.273 62.983 191.273H59.5398V200ZM61.3849 195.423V192.781H62.6293C63.6946 192.781 64.2102 193.254 64.2102 194.124C64.2102 194.989 63.6946 195.423 62.6378 195.423H61.3849ZM68.919 200L69.5668 198.01H72.7159L73.3636 200H75.3409L72.3324 191.273H69.9545L66.9418 200H68.919ZM70.0355 196.57L71.1094 193.267H71.1776L72.2514 196.57H70.0355ZM81.7681 194.094H83.6431C83.4045 192.368 81.8832 191.153 79.9102 191.153C77.6048 191.153 75.8278 192.815 75.8278 195.645C75.8278 198.406 77.4897 200.119 79.9485 200.119C82.1516 200.119 83.7241 198.726 83.7241 196.429V195.33H80.0721V196.719H81.9471C81.9215 197.801 81.1843 198.487 79.957 198.487C78.5721 198.487 77.6985 197.452 77.6985 195.628C77.6985 193.812 78.6062 192.786 79.94 192.786C80.8903 192.786 81.5337 193.276 81.7681 194.094ZM90.897 194.094H92.772C92.5334 192.368 91.0121 191.153 89.0391 191.153C86.7337 191.153 84.9567 192.815 84.9567 195.645C84.9567 198.406 86.6186 200.119 89.0774 200.119C91.2805 200.119 92.853 198.726 92.853 196.429V195.33H89.201V196.719H91.076C91.0504 197.801 90.3132 198.487 89.0859 198.487C87.701 198.487 86.8274 197.452 86.8274 195.628C86.8274 193.812 87.7351 192.786 89.0689 192.786C90.0192 192.786 90.6626 193.276 90.897 194.094ZM94.239 200H100.137V198.479H96.0842V196.395H99.8171V194.874H96.0842V192.794H100.12V191.273H94.239V200ZM101.587 200H105.315C107.276 200 108.32 198.977 108.32 197.588C108.32 196.297 107.395 195.517 106.402 195.47V195.385C107.31 195.18 107.979 194.537 107.979 193.51C107.979 192.202 107.007 191.273 105.081 191.273H101.587V200ZM103.432 198.491V196.173H104.979C105.865 196.173 106.415 196.685 106.415 197.405C106.415 198.061 105.967 198.491 104.936 198.491H103.432ZM103.432 194.925V192.764H104.834C105.652 192.764 106.116 193.186 106.116 193.817C106.116 194.507 105.554 194.925 104.8 194.925H103.432ZM109.52 200H115.418V198.479H111.365V196.395H115.098V194.874H111.365V192.794H115.401V191.273H109.52V200ZM116.868 200H118.713V196.906H120.06L121.713 200H123.75L121.896 196.608C122.889 196.182 123.439 195.317 123.439 194.124C123.439 192.389 122.293 191.273 120.311 191.273H116.868V200ZM118.713 195.423V192.781H119.957C121.023 192.781 121.538 193.254 121.538 194.124C121.538 194.989 121.023 195.423 119.966 195.423H118.713Z" fill="#001540"/>
<rect y="80" width="150" height="70" rx="4" fill="#B6CEFF"/>
<path d="M28.2784 120L28.9261 118.01H32.0753L32.723 120H34.7003L31.6918 111.273H29.3139L26.3011 120H28.2784ZM29.3949 116.57L30.4688 113.267H30.5369L31.6108 116.57H29.3949ZM41.1413 111.273V116.783C41.1413 117.78 40.4425 118.5 39.3686 118.5C38.299 118.5 37.5959 117.78 37.5959 116.783V111.273H35.7507V116.94C35.7507 118.849 37.1911 120.124 39.3686 120.124C41.5376 120.124 42.9865 118.849 42.9865 116.94V111.273H41.1413ZM44.5046 120H46.3498V116.395H49.8995V114.874H46.3498V112.794H50.283V111.273H44.5046V120ZM51.1918 112.794H53.8636V120H55.6875V112.794H58.3594V111.273H51.1918V112.794ZM59.5398 120H61.3849V116.906H62.7315L64.3849 120H66.4219L64.5682 116.608C65.5611 116.182 66.1108 115.317 66.1108 114.124C66.1108 112.389 64.9645 111.273 62.983 111.273H59.5398V120ZM61.3849 115.423V112.781H62.6293C63.6946 112.781 64.2102 113.254 64.2102 114.124C64.2102 114.989 63.6946 115.423 62.6378 115.423H61.3849ZM68.919 120L69.5668 118.01H72.7159L73.3636 120H75.3409L72.3324 111.273H69.9545L66.9418 120H68.919ZM70.0355 116.57L71.1094 113.267H71.1776L72.2514 116.57H70.0355ZM81.7681 114.094H83.6431C83.4045 112.368 81.8832 111.153 79.9102 111.153C77.6048 111.153 75.8278 112.815 75.8278 115.645C75.8278 118.406 77.4897 120.119 79.9485 120.119C82.1516 120.119 83.7241 118.726 83.7241 116.429V115.33H80.0721V116.719H81.9471C81.9215 117.801 81.1843 118.487 79.957 118.487C78.5721 118.487 77.6985 117.452 77.6985 115.628C77.6985 113.812 78.6062 112.786 79.94 112.786C80.8903 112.786 81.5337 113.276 81.7681 114.094ZM90.897 114.094H92.772C92.5334 112.368 91.0121 111.153 89.0391 111.153C86.7337 111.153 84.9567 112.815 84.9567 115.645C84.9567 118.406 86.6186 120.119 89.0774 120.119C91.2805 120.119 92.853 118.726 92.853 116.429V115.33H89.201V116.719H91.076C91.0504 117.801 90.3132 118.487 89.0859 118.487C87.701 118.487 86.8274 117.452 86.8274 115.628C86.8274 113.812 87.7351 112.786 89.0689 112.786C90.0192 112.786 90.6626 113.276 90.897 114.094ZM94.239 120H100.137V118.479H96.0842V116.395H99.8171V114.874H96.0842V112.794H100.12V111.273H94.239V120ZM101.587 120H105.315C107.276 120 108.32 118.977 108.32 117.588C108.32 116.297 107.395 115.517 106.402 115.47V115.385C107.31 115.18 107.979 114.537 107.979 113.51C107.979 112.202 107.007 111.273 105.081 111.273H101.587V120ZM103.432 118.491V116.173H104.979C105.865 116.173 106.415 116.685 106.415 117.405C106.415 118.061 105.967 118.491 104.936 118.491H103.432ZM103.432 114.925V112.764H104.834C105.652 112.764 106.116 113.186 106.116 113.817C106.116 114.507 105.554 114.925 104.8 114.925H103.432ZM109.52 120H115.418V118.479H111.365V116.395H115.098V114.874H111.365V112.794H115.401V111.273H109.52V120ZM116.868 120H118.713V116.906H120.06L121.713 120H123.75L121.896 116.608C122.889 116.182 123.439 115.317 123.439 114.124C123.439 112.389 122.293 111.273 120.311 111.273H116.868V120ZM118.713 115.423V112.781H119.957C121.023 112.781 121.538 113.254 121.538 114.124C121.538 114.989 121.023 115.423 119.966 115.423H118.713Z" fill="#001540"/>
</svg>
