<svg width="1372" height="897" viewBox="0 0 1372 897" fill="none" xmlns="http://www.w3.org/2000/svg">
<rect x="472" width="428" height="603" rx="4" fill="#001540"/>
<path d="M782.944 173.663C782.944 173.509 782.944 173.355 782.944 173.15C782.995 169.456 781.16 166.737 777.442 165.608C774.639 164.736 771.633 164.069 768.678 163.967C760.374 163.71 752.07 163.813 743.765 163.71C741.983 163.659 740.148 163.402 738.416 162.992C737.499 162.787 736.531 162.12 736.022 161.401C734.035 158.323 735.868 154.116 739.639 153.347C742.339 152.834 745.09 152.526 747.841 152.526C757.572 152.423 767.354 152.475 777.085 152.423C777.798 152.423 778.715 152.218 779.122 151.808C780.04 150.73 780.702 149.396 781.517 148.062H743.613C741.065 148.062 738.467 148.319 735.92 148.729C728.482 149.807 725.17 154.219 726.341 161.042C726.902 164.275 728.838 166.481 732.251 167.199C734.952 167.763 737.703 168.174 740.454 168.225C748.249 168.379 756.095 168.276 763.889 168.43C765.979 168.481 768.118 168.738 770.105 169.251C772.856 169.969 773.773 171.867 773.671 175.407C773.569 178.075 772.5 179.563 769.85 180.179C767.863 180.64 765.825 180.846 763.787 180.846C752.273 180.897 740.81 180.897 729.296 180.897C728.736 180.897 727.87 180.897 727.666 181.205C726.647 182.539 725.832 183.975 724.864 185.565H763.329C766.029 185.565 768.729 185.514 771.43 185.206C778.307 184.488 783.606 182.385 782.944 173.663Z" fill="white"/>
<path d="M681.104 185.57L695.573 185.621C697.611 185.621 699.496 184.492 700.464 182.696C706.374 171.666 717.276 151.042 718.856 148.015C715.442 148.015 717.684 147.912 714.678 148.066C714.016 148.118 713.2 148.836 712.793 149.451C706.526 160.482 704.54 163.765 698.324 174.796C697.101 176.95 695.879 179.156 694.605 181.414C693.994 182.44 692.924 183.107 691.701 183.107H690.172C689.001 183.107 687.88 182.44 687.268 181.414C685.995 179.156 684.772 177.002 683.549 174.796C677.334 163.714 675.143 160.482 668.877 149.451C668.52 148.836 667.654 148.118 666.992 148.066C664.037 147.912 661.031 148.015 657.617 148.015C659.248 151.042 670.303 171.666 676.162 182.645C677.181 184.441 679.066 185.57 681.104 185.57Z" fill="white"/>
<path d="M633.972 148.217H587L590.973 152.885L629.795 153.501C635.807 153.604 640.647 158.529 640.647 164.583L640.698 169.559C640.698 175.664 635.858 180.641 629.744 180.692L600.959 181.051C600.551 181.051 600.246 180.744 600.246 180.333V163.813L590.923 152.834V184.437C590.923 185.053 591.432 185.618 592.094 185.618H633.922C643.499 185.618 651.295 177.768 651.295 168.123V165.66C651.295 156.015 643.551 148.217 633.972 148.217Z" fill="white"/>
<path d="M600.069 209.319C599.647 209.871 599.064 210.289 598.317 210.573C597.571 210.857 596.724 210.999 595.775 210.999C594.8 210.999 593.936 210.777 593.185 210.332C592.433 209.887 591.852 209.253 591.442 208.428C591.037 207.597 590.826 206.63 590.81 205.527V204.611C590.81 202.844 591.231 201.464 592.073 200.473C592.915 199.477 594.091 198.979 595.599 198.979C596.895 198.979 597.923 199.3 598.686 199.943C599.448 200.586 599.906 201.512 600.061 202.723H598.078C597.854 201.314 597.041 200.609 595.639 200.609C594.733 200.609 594.043 200.939 593.568 201.598C593.099 202.251 592.857 203.213 592.841 204.483V205.382C592.841 206.646 593.105 207.63 593.632 208.331C594.166 209.028 594.904 209.376 595.847 209.376C596.881 209.376 597.617 209.14 598.053 208.668V206.379H595.655V204.836H600.069V209.319Z" fill="white"/>
<path d="M614.082 199.141V206.958C614.082 208.201 613.685 209.187 612.89 209.916C612.101 210.638 611.049 211 609.732 211C608.4 211 607.342 210.644 606.558 209.931C605.774 209.213 605.383 208.22 605.383 206.95V199.141H607.397V206.967C607.397 207.749 607.595 208.346 607.989 208.758C608.383 209.171 608.964 209.377 609.732 209.377C611.289 209.377 612.066 208.552 612.066 206.902V199.141H614.082Z" fill="white"/>
<path d="M625.864 208.116H621.355L620.411 210.84H618.309L622.706 199.141H624.521L628.927 210.84H626.816L625.864 208.116ZM621.922 206.476H625.297L623.609 201.623L621.922 206.476Z" fill="white"/>
<path d="M637.806 206.332H635.552V210.84H633.528V199.141H637.622C638.965 199.141 640.002 199.443 640.733 200.049C641.463 200.654 641.827 201.53 641.827 202.676C641.827 203.458 641.639 204.115 641.26 204.645C640.887 205.169 640.364 205.574 639.693 205.858L642.308 210.735V210.84H640.141L637.806 206.332ZM635.552 204.701H637.63C638.312 204.701 638.846 204.529 639.229 204.187C639.613 203.838 639.805 203.364 639.805 202.765C639.805 202.138 639.626 201.653 639.27 201.31C638.918 200.967 638.39 200.79 637.686 200.78H635.552V204.701Z" fill="white"/>
<path d="M653.537 208.116H649.028L648.085 210.84H645.981L650.379 199.141H652.194L656.599 210.84H654.489L653.537 208.116ZM649.595 206.476H652.969L651.283 201.623L649.595 206.476Z" fill="white"/>
<path d="M670.436 210.84H668.414L663.225 202.54V210.84H661.202V199.141H663.225L668.43 207.473V199.141H670.436V210.84Z" fill="white"/>
<path d="M684.275 200.78H680.645V210.84H678.638V200.78H675.04V199.141H684.275V200.78Z" fill="white"/>
<path d="M695.889 205.617H691.107V209.216H696.696V210.84H689.084V199.141H696.64V200.78H691.107V204.01H695.889V205.617Z" fill="white"/>
<path d="M708.423 205.617H703.641V209.216H709.23V210.84H701.618V199.141H709.174V200.78H703.641V204.01H708.423V205.617Z" fill="white"/>
<path d="M725.606 208.292L728.564 199.141H730.787L726.597 210.84H724.638L720.465 199.141H722.68L725.606 208.292Z" fill="white"/>
<path d="M741.29 208.116H736.781L735.837 210.84H733.734L738.132 199.141H739.947L744.352 210.84H742.242L741.29 208.116ZM737.348 206.476H740.722L739.036 201.623L737.348 206.476Z" fill="white"/>
<path d="M757.327 199.141V206.958C757.327 208.201 756.929 209.187 756.135 209.916C755.346 210.638 754.293 211 752.976 211C751.644 211 750.586 210.644 749.802 209.931C749.019 209.213 748.627 208.22 748.627 206.95V199.141H750.642V206.967C750.642 207.749 750.839 208.346 751.234 208.758C751.628 209.171 752.209 209.377 752.976 209.377C754.533 209.377 755.311 208.552 755.311 206.902V199.141H757.327Z" fill="white"/>
<path d="M764.79 209.216H770.075V210.84H762.768V199.141H764.79V209.216Z" fill="white"/>
<path d="M781.666 200.78H778.036V210.84H776.029V200.78H772.432V199.141H781.666V200.78Z" fill="white"/>
<path d="M730.72 63.6213C731.046 60.5704 730.829 57.5196 730.069 54.5777C729.2 51.1454 727.517 47.9311 725.346 45.2071C723.121 42.4831 720.298 40.1949 717.204 38.615C715.63 37.8523 714.002 37.1986 712.265 36.7627C710.582 36.3269 708.845 36.1089 707.108 36H706.456H705.805H704.557L702.06 36.0545L697.066 36.1634L692.072 36.2724L687.079 36.3814C680.402 36.5448 673.726 36.7627 667.049 37.0351C673.726 37.362 680.402 37.5255 687.079 37.6888L692.072 37.7978L697.066 37.9068L702.06 38.0157L704.557 38.0702H705.805H706.402L707 38.1247C710.202 38.3426 713.296 39.2143 716.119 40.6853C717.53 41.448 718.833 42.3197 720.081 43.3548C721.33 44.3899 722.415 45.534 723.392 46.7325C724.695 48.4214 725.78 50.2737 726.595 52.235C726.269 51.7447 725.944 51.3089 725.563 50.8185C724.478 49.4565 723.283 48.258 721.981 47.1139C720.678 46.0243 719.213 45.0436 717.693 44.2264C716.173 43.4092 714.599 42.81 712.916 42.3197C711.288 41.8293 709.605 41.557 707.868 41.448C707.434 41.3935 707 41.3935 706.62 41.3935C706.402 41.3935 706.185 41.3935 705.968 41.3935C705.751 41.3935 705.534 41.3935 705.371 41.3935L702.928 41.448C699.672 41.5025 696.415 41.6114 693.158 41.6659C689.902 41.7748 686.645 41.8838 683.388 41.9928L678.502 42.2107C677.689 42.2652 676.874 42.2652 676.06 42.3197C675.246 42.3742 674.432 42.3742 673.617 42.4286C674.432 42.4831 675.246 42.5376 676.06 42.5376C676.874 42.592 677.689 42.6465 678.502 42.6465L683.388 42.8645C686.645 42.9734 689.902 43.0824 693.158 43.1914C696.415 43.3003 699.672 43.3548 702.928 43.4092L705.371 43.4637H705.968C706.185 43.4637 706.348 43.4637 706.565 43.4637C706.945 43.4637 707.325 43.5182 707.705 43.5727C709.279 43.7361 710.799 44.063 712.265 44.4989C715.25 45.425 717.964 46.9505 720.353 48.9662C722.686 50.982 724.64 53.488 725.997 56.2665C726.215 56.7024 726.432 57.1927 726.595 57.6285C726.106 56.8658 725.563 56.1576 724.966 55.5038C722.741 52.8888 719.973 50.764 716.879 49.2386C715.359 48.4759 713.731 47.9311 712.047 47.4952C710.365 47.1139 708.682 46.896 707 46.8415C706.565 46.8415 706.131 46.8415 705.751 46.8415H704.503L702.06 46.896L697.175 47.0049L692.29 47.1684L687.405 47.3318C684.148 47.4408 680.891 47.6042 677.634 47.8221C680.891 48.0401 684.148 48.149 687.405 48.3124L692.29 48.4759L697.175 48.6393L702.06 48.7483L704.503 48.8028H705.751C706.131 48.8028 706.511 48.8028 706.945 48.8573C710.039 49.0207 713.133 49.8924 715.847 51.3089C720.733 53.7605 724.586 58.0099 726.649 63.0765C726.215 62.4772 725.78 61.8235 725.292 61.2787C724.207 59.9712 722.958 58.7181 721.601 57.683C720.244 56.5934 718.833 55.6672 717.258 54.9045C715.739 54.1418 714.11 53.5425 712.482 53.1067C710.854 52.6708 709.117 52.3984 707.434 52.3439C707.217 52.3439 707 52.3439 706.782 52.3439C706.565 52.3439 706.348 52.3439 706.131 52.3439H705.805H705.48H704.883L702.44 52.3984C699.183 52.5074 695.926 52.6164 692.67 52.7798C691.041 52.8343 689.413 52.9433 687.785 53.0522C686.156 53.1611 684.528 53.2701 682.899 53.3791C684.528 53.488 686.156 53.597 687.785 53.706C689.413 53.8149 691.041 53.8694 692.67 53.9783C695.926 54.1418 699.183 54.2508 702.44 54.3597L704.883 54.4142L706.076 54.4687C706.294 54.4687 706.456 54.4687 706.674 54.4687C706.891 54.4687 707.054 54.4687 707.271 54.5232C708.845 54.6321 710.365 54.959 711.83 55.3404C714.816 56.2121 717.584 57.683 719.973 59.6987C721.166 60.6794 722.252 61.8235 723.229 63.022C724.207 64.2206 725.02 65.5281 725.726 66.8901C725.997 67.4349 726.269 68.0342 726.54 68.6334C725.944 67.7618 725.292 66.9446 724.586 66.1274C722.306 63.5668 719.484 61.4421 716.39 60.0256C714.816 59.3174 713.187 58.7726 711.559 58.3912C709.877 58.0099 708.193 57.8465 706.511 57.792H705.86H705.263L704.014 57.8465C703.2 57.9009 702.386 57.9009 701.571 57.9554L699.129 58.0643L696.686 58.1733C693.43 58.3368 690.173 58.5547 686.916 58.8271C690.173 59.154 693.43 59.3174 696.686 59.4809L699.129 59.5898L701.571 59.6987C702.386 59.7532 703.2 59.7532 704.014 59.8077L705.263 59.8622L706.456 59.9167C708.031 59.9712 709.55 60.1891 711.07 60.5704C712.591 60.9518 714.056 61.4966 715.413 62.1503C716.824 62.8041 718.127 63.6213 719.375 64.6019C720.624 65.5281 721.71 66.6177 722.741 67.7618C723.772 68.9603 724.695 70.2678 725.455 71.6844C725.346 71.8478 725.292 72.0112 725.183 72.1747C723.555 70.2134 721.655 68.5245 719.593 67.1625C716.661 65.2557 713.296 64.0027 709.822 63.4579C708.953 63.3489 708.085 63.2399 707.217 63.2399H706.565H705.914C705.48 63.2399 705.1 63.2944 704.665 63.2944C702.983 63.3489 701.3 63.4579 699.672 63.5124C696.306 63.7302 692.995 63.8937 689.63 64.2751C692.995 64.6019 696.306 64.8199 699.672 65.0378C701.354 65.1468 703.037 65.2012 704.665 65.2557L705.914 65.3102H706.511L707.108 65.3646C707.922 65.4191 708.682 65.5281 709.497 65.6371C711.07 65.9095 712.591 66.3453 714.056 66.9446C715.521 67.5439 716.932 68.3066 718.236 69.1783C720.353 70.5947 722.198 72.3381 723.718 74.3538C722.09 76.5331 720.081 78.3856 717.801 79.8565C716.444 80.7279 715.033 81.4364 713.567 81.9807C712.102 82.5258 710.528 82.9618 708.953 83.1798C708.14 83.2888 707.38 83.3978 706.565 83.3978C706.348 83.3978 706.185 83.3978 705.968 83.3978H705.371H704.123L699.129 83.4523C692.452 83.5606 685.776 83.6696 679.1 83.8331C675.734 83.8876 672.423 83.9967 669.058 84.1057C665.692 84.2147 662.381 84.3237 659.016 84.4327C662.381 84.5417 665.692 84.6507 669.058 84.7597C672.423 84.8687 675.734 84.9232 679.1 85.0322C685.776 85.195 692.452 85.304 699.129 85.413L704.123 85.4675H705.371H706.023C706.24 85.4675 706.456 85.4675 706.674 85.4675C707.542 85.4675 708.411 85.413 709.279 85.304C712.753 84.8687 716.119 83.7241 719.158 81.8717C720.678 80.9459 722.035 79.8565 723.338 78.6574C724.043 78.0041 724.695 77.2958 725.292 76.5875C725.4 76.7509 725.455 76.9144 725.563 77.0778C725.346 77.5137 725.129 77.8951 724.858 78.2766C724.043 79.584 723.067 80.7824 721.981 81.9262C719.864 84.1602 717.258 85.9581 714.382 87.1565C712.971 87.756 711.45 88.192 709.93 88.5183C709.171 88.6818 708.411 88.7908 707.597 88.8454C707.38 88.8454 707.217 88.8999 707 88.8999C706.782 88.8999 706.62 88.8999 706.402 88.9544H705.805H705.208L695.438 89.0634C688.924 89.1724 682.411 89.2814 675.897 89.4449L671.012 89.5539L666.127 89.6629C662.87 89.7719 659.613 89.8264 656.356 89.9354C659.613 90.0437 662.87 90.1527 666.127 90.2072L671.012 90.3162L675.897 90.4253C682.411 90.5888 688.924 90.6978 695.438 90.8068L705.208 90.9158H705.805H706.456C706.674 90.9158 706.891 90.9158 707.108 90.9158C707.325 90.9158 707.542 90.9158 707.76 90.8613C708.628 90.8068 709.442 90.6978 710.31 90.5888C711.994 90.3162 713.676 89.8809 715.25 89.2269C716.824 88.6273 718.398 87.8105 719.809 86.8839C721.221 85.9581 722.578 84.8687 723.772 83.6151C724.858 82.5258 725.835 81.3819 726.649 80.129C726.269 81.1094 725.78 82.0352 725.238 82.9618C723.663 85.6311 721.601 87.974 719.104 89.8264C717.856 90.7523 716.552 91.5698 715.141 92.2232C713.731 92.8772 712.265 93.367 710.745 93.7486C709.225 94.1301 707.705 94.2936 706.131 94.3481L701.246 94.4026L691.475 94.5116L681.705 94.6751L671.935 94.8924C668.678 94.9469 665.421 95.0559 662.164 95.1104C660.536 95.1649 658.907 95.1649 657.279 95.2194L652.394 95.383L657.279 95.5465C658.907 95.601 660.536 95.6555 662.164 95.6555C665.421 95.71 668.678 95.819 671.935 95.8735L681.705 96.0915L691.475 96.255L701.246 96.364L706.131 96.4185C707.813 96.4185 709.55 96.255 711.234 95.928C714.599 95.2194 717.801 93.8576 720.57 91.8416C721.981 90.8613 723.283 89.7174 724.423 88.4638C725.238 87.5925 725.997 86.6121 726.649 85.6311C725.618 88.192 724.098 90.5343 722.252 92.5502C720.135 94.8386 717.584 96.6358 714.762 97.8894C713.351 98.5427 711.885 98.9788 710.365 99.3058C709.605 99.4693 708.845 99.5783 708.085 99.6873C707.705 99.7418 707.325 99.7418 706.945 99.7956C706.728 99.7956 706.565 99.7956 706.348 99.7956C706.131 99.7956 705.968 99.7956 705.751 99.7956L695.98 99.9046L686.21 100.014L676.44 100.177L666.669 100.341C660.156 100.45 653.642 100.613 647.129 100.777C653.642 100.94 660.156 101.104 666.669 101.213L676.44 101.376L686.21 101.539L695.98 101.648L705.751 101.757H706.402C706.62 101.757 706.837 101.757 707.054 101.757C707.488 101.757 707.922 101.703 708.302 101.703C709.171 101.648 709.985 101.539 710.854 101.376C712.536 101.049 714.164 100.559 715.739 99.9046C718.887 98.5972 721.764 96.6358 724.152 94.1301C725.075 93.1497 725.944 92.0596 726.703 90.9703C726.377 91.8416 725.944 92.6592 725.509 93.476C724.749 94.8386 723.881 96.0915 722.849 97.2899C721.818 98.4882 720.733 99.5238 719.484 100.504C718.887 100.995 718.236 101.43 717.584 101.812C716.932 102.248 716.227 102.575 715.576 102.956C714.164 103.609 712.699 104.154 711.234 104.536C709.714 104.917 708.193 105.135 706.62 105.189H706.023H705.425H704.177H701.734C695.22 105.244 688.707 105.353 682.194 105.407C669.166 105.625 656.139 105.789 643.112 106.17C656.139 106.497 669.166 106.715 682.194 106.933C688.707 107.042 695.22 107.096 701.734 107.151H704.177H705.425H706.023H706.674C708.357 107.151 710.094 106.933 711.722 106.551C715.033 105.789 718.236 104.373 721.004 102.302C722.361 101.267 723.663 100.123 724.803 98.8153C725.509 98.0529 726.16 97.2354 726.703 96.364C725.835 98.4882 724.64 100.504 723.175 102.302C722.143 103.5 721.058 104.644 719.809 105.625C718.561 106.606 717.204 107.478 715.793 108.186C714.382 108.894 712.862 109.439 711.342 109.875C709.822 110.256 708.193 110.529 706.62 110.583H706.023H705.371H704.123H701.626L696.632 110.638L686.59 110.747L676.548 110.856L666.507 111.019L656.465 111.182L646.423 111.345L641.429 111.454L636.436 111.563L641.429 111.672L646.423 111.781L656.465 111.945L666.507 112.108L676.548 112.272L686.59 112.381L696.632 112.49L701.626 112.545H704.123H705.371H706.023H706.674C708.411 112.545 710.148 112.326 711.885 111.945C713.567 111.563 715.25 110.965 716.824 110.202C720.027 108.731 722.849 106.497 725.129 103.827C727.408 101.158 729.145 97.9439 730.123 94.5661C730.991 91.4608 731.262 88.1375 730.937 84.9232C730.72 85.4675 730.774 64.1661 730.72 63.6213Z" fill="white"/>
<rect y="281" width="320" height="240" rx="4" fill="#B6CEFF"/>
<path d="M60.0497 413L61.777 407.693H70.1747L71.902 413H77.1747L69.152 389.727H62.8111L54.777 413H60.0497ZM63.027 403.852L65.8906 395.045H66.0724L68.9361 403.852H63.027ZM91.0781 405.568C91.0895 407.909 89.4872 409.136 87.7486 409.136C85.919 409.136 84.7372 407.852 84.7259 405.795V395.545H79.8849V406.659C79.8963 410.739 82.2827 413.227 85.794 413.227C88.419 413.227 90.3054 411.875 91.0895 409.83H91.2713V413H95.919V395.545H91.0781V405.568ZM109.178 395.545H105.712V394.375C105.712 393.193 106.189 392.5 107.609 392.5C108.189 392.5 108.78 392.625 109.166 392.75L110.018 389.114C109.416 388.932 108.087 388.636 106.598 388.636C103.314 388.636 100.871 390.489 100.871 394.284V395.545H98.4048V399.182H100.871V413H105.712V399.182H109.178V395.545ZM121.419 395.545H118.135V391.364H113.294V395.545H110.908V399.182H113.294V408.273C113.271 411.693 115.601 413.386 119.112 413.239C120.362 413.193 121.249 412.943 121.737 412.784L120.976 409.182C120.737 409.227 120.226 409.341 119.771 409.341C118.805 409.341 118.135 408.977 118.135 407.636V399.182H121.419V395.545ZM124.572 413H129.413V403.125C129.413 400.977 130.982 399.5 133.118 399.5C133.788 399.5 134.709 399.614 135.163 399.761V395.466C134.732 395.364 134.129 395.295 133.641 395.295C131.686 395.295 130.084 396.432 129.447 398.591H129.266V395.545H124.572V413ZM142.143 413.33C144.723 413.33 146.393 412.205 147.246 410.58H147.382V413H151.973V401.227C151.973 397.068 148.45 395.318 144.564 395.318C140.382 395.318 137.632 397.318 136.962 400.5L141.439 400.864C141.768 399.705 142.803 398.852 144.541 398.852C146.189 398.852 147.132 399.682 147.132 401.114V401.182C147.132 402.307 145.939 402.455 142.905 402.75C139.45 403.068 136.348 404.227 136.348 408.125C136.348 411.58 138.814 413.33 142.143 413.33ZM143.53 409.989C142.041 409.989 140.973 409.295 140.973 407.966C140.973 406.602 142.098 405.932 143.803 405.693C144.859 405.545 146.587 405.295 147.166 404.909V406.761C147.166 408.591 145.655 409.989 143.53 409.989ZM163.592 419.909C168.581 419.909 172.126 417.636 172.126 413.17V395.545H167.32V398.477H167.138C166.49 397.057 165.07 395.318 162.149 395.318C158.32 395.318 155.081 398.295 155.081 404.239C155.081 410.045 158.229 412.75 162.161 412.75C164.945 412.75 166.501 411.352 167.138 409.909H167.342V413.102C167.342 415.5 165.808 416.432 163.706 416.432C161.57 416.432 160.49 415.5 160.092 414.443L155.615 415.045C156.195 417.795 158.888 419.909 163.592 419.909ZM163.695 409.114C161.32 409.114 160.024 407.227 160.024 404.216C160.024 401.25 161.297 399.17 163.695 399.17C166.047 399.17 167.365 401.159 167.365 404.216C167.365 407.295 166.024 409.114 163.695 409.114ZM183.842 419.909C188.831 419.909 192.376 417.636 192.376 413.17V395.545H187.57V398.477H187.388C186.74 397.057 185.32 395.318 182.399 395.318C178.57 395.318 175.331 398.295 175.331 404.239C175.331 410.045 178.479 412.75 182.411 412.75C185.195 412.75 186.751 411.352 187.388 409.909H187.592V413.102C187.592 415.5 186.058 416.432 183.956 416.432C181.82 416.432 180.74 415.5 180.342 414.443L175.865 415.045C176.445 417.795 179.138 419.909 183.842 419.909ZM183.945 409.114C181.57 409.114 180.274 407.227 180.274 404.216C180.274 401.25 181.547 399.17 183.945 399.17C186.297 399.17 187.615 401.159 187.615 404.216C187.615 407.295 186.274 409.114 183.945 409.114ZM204.183 413.341C208.501 413.341 211.411 411.239 212.092 408L207.615 407.705C207.126 409.034 205.876 409.727 204.263 409.727C201.842 409.727 200.308 408.125 200.308 405.523V405.511H212.195V404.182C212.195 398.25 208.604 395.318 203.99 395.318C198.854 395.318 195.524 398.966 195.524 404.352C195.524 409.886 198.808 413.341 204.183 413.341ZM200.308 402.511C200.411 400.523 201.922 398.932 204.07 398.932C206.172 398.932 207.626 400.432 207.638 402.511H200.308ZM215.445 413H220.217V410.205H220.433C221.104 411.659 222.57 413.284 225.388 413.284C229.365 413.284 232.467 410.136 232.467 404.295C232.467 398.295 229.229 395.318 225.399 395.318C222.479 395.318 221.081 397.057 220.433 398.477H220.286V389.727H215.445V413ZM220.183 404.273C220.183 401.159 221.501 399.17 223.854 399.17C226.251 399.17 227.524 401.25 227.524 404.273C227.524 407.318 226.229 409.432 223.854 409.432C221.524 409.432 220.183 407.386 220.183 404.273ZM243.652 413.341C247.97 413.341 250.879 411.239 251.561 408L247.084 407.705C246.595 409.034 245.345 409.727 243.732 409.727C241.311 409.727 239.777 408.125 239.777 405.523V405.511H251.663V404.182C251.663 398.25 248.072 395.318 243.459 395.318C238.322 395.318 234.993 398.966 234.993 404.352C234.993 409.886 238.277 413.341 243.652 413.341ZM239.777 402.511C239.879 400.523 241.391 398.932 243.538 398.932C245.641 398.932 247.095 400.432 247.107 402.511H239.777ZM254.822 413H259.663V403.125C259.663 400.977 261.232 399.5 263.368 399.5C264.038 399.5 264.959 399.614 265.413 399.761V395.466C264.982 395.364 264.379 395.295 263.891 395.295C261.936 395.295 260.334 396.432 259.697 398.591H259.516V395.545H254.822V413Z" fill="#001540"/>
<rect x="526" y="657" width="320" height="240" rx="4" fill="#B6CEFF"/>
<path d="M650.751 773.25H655.751C655.115 768.648 651.058 765.409 645.797 765.409C639.649 765.409 634.911 769.841 634.911 777.386C634.911 784.75 639.342 789.318 645.899 789.318C651.774 789.318 655.967 785.602 655.967 779.477V776.545H646.229V780.25H651.229C651.161 783.136 649.195 784.966 645.922 784.966C642.229 784.966 639.899 782.205 639.899 777.341C639.899 772.5 642.32 769.761 645.876 769.761C648.411 769.761 650.126 771.068 650.751 773.25ZM664.55 789.33C667.129 789.33 668.8 788.205 669.652 786.58H669.788V789H674.379V777.227C674.379 773.068 670.857 771.318 666.97 771.318C662.788 771.318 660.038 773.318 659.368 776.5L663.845 776.864C664.175 775.705 665.209 774.852 666.947 774.852C668.595 774.852 669.538 775.682 669.538 777.114V777.182C669.538 778.307 668.345 778.455 665.311 778.75C661.857 779.068 658.754 780.227 658.754 784.125C658.754 787.58 661.22 789.33 664.55 789.33ZM665.936 785.989C664.447 785.989 663.379 785.295 663.379 783.966C663.379 782.602 664.504 781.932 666.209 781.693C667.266 781.545 668.993 781.295 669.572 780.909V782.761C669.572 784.591 668.061 785.989 665.936 785.989ZM678.135 789H682.976V779.125C682.976 776.977 684.544 775.5 686.68 775.5C687.351 775.5 688.271 775.614 688.726 775.761V771.466C688.294 771.364 687.692 771.295 687.203 771.295C685.249 771.295 683.646 772.432 683.01 774.591H682.828V771.545H678.135V789ZM695.706 789.33C698.286 789.33 699.956 788.205 700.808 786.58H700.945V789H705.536V777.227C705.536 773.068 702.013 771.318 698.126 771.318C693.945 771.318 691.195 773.318 690.524 776.5L695.001 776.864C695.331 775.705 696.365 774.852 698.104 774.852C699.751 774.852 700.695 775.682 700.695 777.114V777.182C700.695 778.307 699.501 778.455 696.467 778.75C693.013 779.068 689.911 780.227 689.911 784.125C689.911 787.58 692.376 789.33 695.706 789.33ZM697.092 785.989C695.604 785.989 694.536 785.295 694.536 783.966C694.536 782.602 695.661 781.932 697.365 781.693C698.422 781.545 700.149 781.295 700.729 780.909V782.761C700.729 784.591 699.217 785.989 697.092 785.989ZM714.132 778.909C714.143 776.659 715.484 775.341 717.439 775.341C719.382 775.341 720.553 776.614 720.541 778.75V789H725.382V777.886C725.382 773.818 722.996 771.318 719.359 771.318C716.768 771.318 714.893 772.591 714.109 774.625H713.905V771.545H709.291V789H714.132V778.909ZM738.482 771.545H735.197V767.364H730.357V771.545H727.97V775.182H730.357V784.273C730.334 787.693 732.663 789.386 736.175 789.239C737.425 789.193 738.311 788.943 738.8 788.784L738.038 785.182C737.8 785.227 737.288 785.341 736.834 785.341C735.868 785.341 735.197 784.977 735.197 783.636V775.182H738.482V771.545Z" fill="#001540"/>
<rect x="272" y="322" width="219" height="54" fill="#5279DF"/>
<path d="M521 349.404L487 394.404L487 305L521 349.404Z" fill="#5279DF"/>
<path d="M338.141 339.545H334.673L330.352 342.281V345.554L334.349 343.048H334.451V357H338.141V339.545ZM343.532 357.222C344.623 357.222 345.569 356.31 345.577 355.176C345.569 354.06 344.623 353.148 343.532 353.148C342.407 353.148 341.478 354.06 341.487 355.176C341.478 356.31 342.407 357.222 343.532 357.222ZM356.369 357L357.665 353.02H363.963L365.259 357H369.213L363.196 339.545H358.44L352.415 357H356.369ZM358.602 350.139L360.75 343.534H360.886L363.034 350.139H358.602ZM379.641 351.426C379.649 353.182 378.447 354.102 377.143 354.102C375.771 354.102 374.885 353.139 374.876 351.597V343.909H371.246V352.244C371.254 355.304 373.044 357.17 375.678 357.17C377.646 357.17 379.061 356.156 379.649 354.622H379.786V357H383.271V343.909H379.641V351.426ZM393.215 343.909H390.616V343.031C390.616 342.145 390.974 341.625 392.039 341.625C392.474 341.625 392.917 341.719 393.207 341.812L393.846 339.085C393.394 338.949 392.397 338.727 391.281 338.727C388.817 338.727 386.985 340.116 386.985 342.963V343.909H385.136V346.636H386.985V357H390.616V346.636H393.215V343.909ZM402.396 343.909H399.933V340.773H396.303V343.909H394.513V346.636H396.303V353.455C396.286 356.02 398.033 357.29 400.666 357.179C401.604 357.145 402.268 356.957 402.635 356.838L402.064 354.136C401.885 354.17 401.501 354.256 401.161 354.256C400.436 354.256 399.933 353.983 399.933 352.977V346.636H402.396V343.909ZM404.761 357H408.392V349.594C408.392 347.983 409.568 346.875 411.17 346.875C411.673 346.875 412.364 346.96 412.705 347.071V343.849C412.381 343.773 411.929 343.722 411.562 343.722C410.097 343.722 408.895 344.574 408.418 346.193H408.281V343.909H404.761V357ZM417.94 357.247C419.874 357.247 421.127 356.403 421.766 355.185H421.869V357H425.312V348.17C425.312 345.051 422.67 343.739 419.755 343.739C416.619 343.739 414.556 345.239 414.053 347.625L417.411 347.898C417.658 347.028 418.434 346.389 419.738 346.389C420.974 346.389 421.681 347.011 421.681 348.085V348.136C421.681 348.98 420.786 349.091 418.511 349.312C415.92 349.551 413.593 350.42 413.593 353.344C413.593 355.935 415.442 357.247 417.94 357.247ZM418.979 354.741C417.863 354.741 417.062 354.222 417.062 353.224C417.062 352.202 417.906 351.699 419.184 351.52C419.977 351.409 421.272 351.222 421.707 350.932V352.321C421.707 353.693 420.573 354.741 418.979 354.741ZM434.026 362.182C437.768 362.182 440.427 360.477 440.427 357.128V343.909H436.822V346.108H436.685C436.2 345.043 435.134 343.739 432.944 343.739C430.072 343.739 427.643 345.972 427.643 350.429C427.643 354.784 430.004 356.812 432.952 356.812C435.04 356.812 436.208 355.764 436.685 354.682H436.839V357.077C436.839 358.875 435.688 359.574 434.112 359.574C432.509 359.574 431.7 358.875 431.401 358.082L428.043 358.534C428.478 360.597 430.498 362.182 434.026 362.182ZM434.103 354.085C432.322 354.085 431.35 352.67 431.35 350.412C431.35 348.188 432.305 346.628 434.103 346.628C435.867 346.628 436.856 348.119 436.856 350.412C436.856 352.722 435.85 354.085 434.103 354.085Z" fill="white"/>
<rect x="272" y="424" width="219" height="54" fill="#5279DF"/>
<path d="M521 451.404L487 496.404L487 407L521 451.404Z" fill="#5279DF"/>
<path d="M294.312 459.239C298.232 459.239 301.036 457.082 301.028 454.099C301.036 451.926 299.656 450.375 297.09 450.051V449.915C299.042 449.565 300.388 448.185 300.38 446.224C300.388 443.472 297.977 441.307 294.363 441.307C290.783 441.307 288.09 443.403 288.039 446.42H291.576C291.619 445.091 292.837 444.23 294.346 444.23C295.837 444.23 296.835 445.134 296.826 446.446C296.835 447.818 295.667 448.747 293.988 448.747H292.36V451.457H293.988C295.965 451.457 297.201 452.446 297.192 453.852C297.201 455.241 296.008 456.196 294.32 456.196C292.692 456.196 291.474 455.344 291.406 454.065H287.69C287.749 457.116 290.477 459.239 294.312 459.239ZM305.344 459.222C306.435 459.222 307.381 458.31 307.39 457.176C307.381 456.06 306.435 455.148 305.344 455.148C304.219 455.148 303.29 456.06 303.299 457.176C303.29 458.31 304.219 459.222 305.344 459.222ZM318.182 459L319.477 455.02H325.776L327.071 459H331.026L325.009 441.545H320.253L314.227 459H318.182ZM320.415 452.139L322.562 445.534H322.699L324.847 452.139H320.415ZM320.031 439.756C321.02 439.756 321.804 438.963 321.804 438.017C321.804 437.054 321.02 436.287 320.031 436.287C319.051 436.287 318.241 437.054 318.241 438.017C318.241 438.963 319.051 439.756 320.031 439.756ZM325.247 439.756C326.236 439.756 327.02 438.963 327.02 438.017C327.02 437.054 326.236 436.287 325.247 436.287C324.267 436.287 323.457 437.054 323.457 438.017C323.457 438.963 324.267 439.756 325.247 439.756ZM336.689 451.432C336.697 449.744 337.703 448.756 339.169 448.756C340.626 448.756 341.504 449.71 341.496 451.312V459H345.126V450.665C345.126 447.614 343.337 445.739 340.609 445.739C338.666 445.739 337.26 446.693 336.672 448.219H336.518V445.909H333.058V459H336.689V451.432ZM352.812 459.213C354.925 459.213 356.025 457.994 356.528 456.903H356.681V459H360.261V441.545H356.638V448.108H356.528C356.042 447.043 354.994 445.739 352.803 445.739C349.931 445.739 347.502 447.972 347.502 452.472C347.502 456.852 349.829 459.213 352.812 459.213ZM353.962 456.324C352.181 456.324 351.21 454.739 351.21 452.455C351.21 450.188 352.164 448.628 353.962 448.628C355.727 448.628 356.715 450.119 356.715 452.455C356.715 454.79 355.71 456.324 353.962 456.324ZM369.212 459.256C372.45 459.256 374.632 457.679 375.143 455.25L371.786 455.028C371.419 456.026 370.482 456.545 369.271 456.545C367.456 456.545 366.305 455.344 366.305 453.392V453.384H375.22V452.386C375.22 447.938 372.527 445.739 369.067 445.739C365.214 445.739 362.717 448.474 362.717 452.514C362.717 456.665 365.18 459.256 369.212 459.256ZM366.305 451.134C366.382 449.642 367.516 448.449 369.126 448.449C370.703 448.449 371.794 449.574 371.803 451.134H366.305ZM377.589 459H381.22V451.594C381.22 449.983 382.396 448.875 383.999 448.875C384.501 448.875 385.192 448.96 385.533 449.071V445.849C385.209 445.773 384.757 445.722 384.391 445.722C382.925 445.722 381.723 446.574 381.246 448.193H381.109V445.909H377.589V459ZM395.805 453.426C395.813 455.182 394.612 456.102 393.308 456.102C391.935 456.102 391.049 455.139 391.04 453.597V445.909H387.41V454.244C387.418 457.304 389.208 459.17 391.842 459.17C393.81 459.17 395.225 458.156 395.813 456.622H395.95V459H399.435V445.909H395.805V453.426ZM405.97 451.432C405.979 449.744 406.984 448.756 408.45 448.756C409.908 448.756 410.786 449.71 410.777 451.312V459H414.408V450.665C414.408 447.614 412.618 445.739 409.891 445.739C407.947 445.739 406.541 446.693 405.953 448.219H405.8V445.909H402.339V459H405.97V451.432ZM423.167 464.182C426.908 464.182 429.567 462.477 429.567 459.128V445.909H425.962V448.108H425.826C425.34 447.043 424.275 445.739 422.085 445.739C419.212 445.739 416.783 447.972 416.783 452.429C416.783 456.784 419.144 458.812 422.093 458.812C424.181 458.812 425.349 457.764 425.826 456.682H425.979V459.077C425.979 460.875 424.829 461.574 423.252 461.574C421.65 461.574 420.84 460.875 420.542 460.082L417.184 460.534C417.619 462.597 419.638 464.182 423.167 464.182ZM423.244 456.085C421.462 456.085 420.491 454.67 420.491 452.412C420.491 450.188 421.445 448.628 423.244 448.628C425.008 448.628 425.996 450.119 425.996 452.412C425.996 454.722 424.991 456.085 423.244 456.085ZM438.423 459.256C441.661 459.256 443.843 457.679 444.354 455.25L440.996 455.028C440.63 456.026 439.692 456.545 438.482 456.545C436.667 456.545 435.516 455.344 435.516 453.392V453.384H444.431V452.386C444.431 447.938 441.738 445.739 438.278 445.739C434.425 445.739 431.928 448.474 431.928 452.514C431.928 456.665 434.391 459.256 438.423 459.256ZM435.516 451.134C435.593 449.642 436.727 448.449 438.337 448.449C439.914 448.449 441.005 449.574 441.013 451.134H435.516ZM450.431 451.432C450.44 449.744 451.445 448.756 452.911 448.756C454.369 448.756 455.246 449.71 455.238 451.312V459H458.869V450.665C458.869 447.614 457.079 445.739 454.352 445.739C452.408 445.739 451.002 446.693 450.414 448.219H450.261V445.909H446.8V459H450.431V451.432ZM467.696 459.256C470.935 459.256 473.116 457.679 473.628 455.25L470.27 455.028C469.903 456.026 468.966 456.545 467.756 456.545C465.94 456.545 464.79 455.344 464.79 453.392V453.384H473.705V452.386C473.705 447.938 471.011 445.739 467.551 445.739C463.699 445.739 461.202 448.474 461.202 452.514C461.202 456.665 463.665 459.256 467.696 459.256ZM464.79 451.134C464.866 449.642 466 448.449 467.611 448.449C469.188 448.449 470.278 449.574 470.287 451.134H464.79ZM479.705 451.432C479.713 449.744 480.719 448.756 482.185 448.756C483.642 448.756 484.52 449.71 484.511 451.312V459H488.142V450.665C488.142 447.614 486.352 445.739 483.625 445.739C481.682 445.739 480.276 446.693 479.688 448.219H479.534V445.909H476.074V459H479.705V451.432Z" fill="white"/>
<path d="M519 248H853V302H519V248Z" fill="#5279DF"/>
<path d="M537.436 280.932H545.814V284H549.342V280.932H551.507V277.974H549.342V266.545H544.723L537.436 278.026V280.932ZM545.882 277.974H541.152V277.838L545.745 270.568H545.882V277.974ZM555.794 284.222C556.885 284.222 557.831 283.31 557.839 282.176C557.831 281.06 556.885 280.148 555.794 280.148C554.669 280.148 553.74 281.06 553.748 282.176C553.74 283.31 554.669 284.222 555.794 284.222ZM575.091 271.565H578.628C578.577 268.455 576.02 266.307 572.134 266.307C568.307 266.307 565.503 268.42 565.52 271.591C565.512 274.165 567.327 275.639 570.276 276.347L572.176 276.824C574.077 277.284 575.134 277.83 575.142 279.006C575.134 280.284 573.924 281.153 572.049 281.153C570.131 281.153 568.75 280.267 568.631 278.52H565.06C565.154 282.295 567.855 284.247 572.091 284.247C576.353 284.247 578.858 282.21 578.867 279.014C578.858 276.108 576.668 274.565 573.634 273.884L572.066 273.509C570.549 273.159 569.279 272.597 569.304 271.344C569.304 270.219 570.301 269.392 572.108 269.392C573.873 269.392 574.955 270.193 575.091 271.565ZM581.281 284H584.912V270.909H581.281V284ZM583.105 269.222C584.187 269.222 585.074 268.395 585.074 267.381C585.074 266.375 584.187 265.548 583.105 265.548C582.031 265.548 581.145 266.375 581.145 267.381C581.145 268.395 582.031 269.222 583.105 269.222ZM593.735 284.256C597.221 284.256 599.411 282.21 599.581 279.202H596.155C595.942 280.599 595.022 281.384 593.777 281.384C592.081 281.384 590.982 279.96 590.982 277.455C590.982 274.983 592.09 273.568 593.777 273.568C595.107 273.568 595.959 274.446 596.155 275.75H599.581C599.428 272.724 597.135 270.739 593.718 270.739C589.746 270.739 587.292 273.491 587.292 277.506C587.292 281.486 589.703 284.256 593.735 284.256ZM605.537 276.432C605.545 274.744 606.576 273.756 608.059 273.756C609.534 273.756 610.403 274.702 610.395 276.312V284H614.025V275.665C614.034 272.597 612.227 270.739 609.5 270.739C607.514 270.739 606.184 271.676 605.588 273.219H605.434V266.545H601.906V284H605.537V276.432ZM622.848 284.256C626.087 284.256 628.269 282.679 628.78 280.25L625.422 280.028C625.056 281.026 624.118 281.545 622.908 281.545C621.093 281.545 619.942 280.344 619.942 278.392V278.384H628.857V277.386C628.857 272.938 626.164 270.739 622.703 270.739C618.851 270.739 616.354 273.474 616.354 277.514C616.354 281.665 618.817 284.256 622.848 284.256ZM619.942 276.134C620.019 274.642 621.152 273.449 622.763 273.449C624.34 273.449 625.431 274.574 625.439 276.134H619.942ZM631.226 284H634.857V276.594C634.857 274.983 636.033 273.875 637.635 273.875C638.138 273.875 638.828 273.96 639.169 274.071V270.849C638.846 270.773 638.394 270.722 638.027 270.722C636.561 270.722 635.36 271.574 634.882 273.193H634.746V270.909H631.226V284ZM646.403 284.256C649.642 284.256 651.824 282.679 652.335 280.25L648.977 280.028C648.61 281.026 647.673 281.545 646.463 281.545C644.647 281.545 643.497 280.344 643.497 278.392V278.384H652.412V277.386C652.412 272.938 649.718 270.739 646.258 270.739C642.406 270.739 639.909 273.474 639.909 277.514C639.909 281.665 642.372 284.256 646.403 284.256ZM643.497 276.134C643.574 274.642 644.707 273.449 646.318 273.449C647.895 273.449 648.985 274.574 648.994 276.134H643.497ZM663.412 284L664.708 280.02H671.006L672.301 284H676.256L670.239 266.545H665.483L659.458 284H663.412ZM665.645 277.139L667.793 270.534H667.929L670.077 277.139H665.645ZM686.684 278.426C686.692 280.182 685.49 281.102 684.186 281.102C682.814 281.102 681.928 280.139 681.919 278.597V270.909H678.289V279.244C678.297 282.304 680.087 284.17 682.721 284.17C684.689 284.17 686.104 283.156 686.692 281.622H686.828V284H690.314V270.909H686.684V278.426ZM700.258 270.909H697.659V270.031C697.659 269.145 698.017 268.625 699.082 268.625C699.517 268.625 699.96 268.719 700.25 268.812L700.889 266.085C700.437 265.949 699.44 265.727 698.324 265.727C695.86 265.727 694.028 267.116 694.028 269.963V270.909H692.179V273.636H694.028V284H697.659V273.636H700.258V270.909ZM702.544 284H706.124V281.903H706.286C706.789 282.994 707.888 284.213 710.002 284.213C712.985 284.213 715.311 281.852 715.311 277.472C715.311 272.972 712.882 270.739 710.01 270.739C707.82 270.739 706.772 272.043 706.286 273.108H706.175V266.545H702.544V284ZM706.098 277.455C706.098 275.119 707.087 273.628 708.851 273.628C710.65 273.628 711.604 275.188 711.604 277.455C711.604 279.739 710.632 281.324 708.851 281.324C707.104 281.324 706.098 279.79 706.098 277.455ZM723.7 284.256C726.939 284.256 729.12 282.679 729.632 280.25L726.274 280.028C725.907 281.026 724.97 281.545 723.76 281.545C721.944 281.545 720.794 280.344 720.794 278.392V278.384H729.708V277.386C729.708 272.938 727.015 270.739 723.555 270.739C719.703 270.739 717.206 273.474 717.206 277.514C717.206 281.665 719.669 284.256 723.7 284.256ZM720.794 276.134C720.87 274.642 722.004 273.449 723.615 273.449C725.191 273.449 726.282 274.574 726.291 276.134H720.794ZM734.566 284H738.402L740.652 275.767H740.814L743.064 284H746.907L750.461 270.909H746.797L744.802 279.653H744.691L742.544 270.909H738.939L736.825 279.705H736.706L734.677 270.909H731.004L734.566 284ZM756.131 284.247C758.066 284.247 759.319 283.403 759.958 282.185H760.06V284H763.503V275.17C763.503 272.051 760.861 270.739 757.946 270.739C754.81 270.739 752.748 272.239 752.245 274.625L755.603 274.898C755.85 274.028 756.625 273.389 757.929 273.389C759.165 273.389 759.873 274.011 759.873 275.085V275.136C759.873 275.98 758.978 276.091 756.702 276.312C754.111 276.551 751.784 277.42 751.784 280.344C751.784 282.935 753.634 284.247 756.131 284.247ZM757.171 281.741C756.054 281.741 755.253 281.222 755.253 280.224C755.253 279.202 756.097 278.699 757.375 278.52C758.168 278.409 759.463 278.222 759.898 277.932V279.321C759.898 280.693 758.765 281.741 757.171 281.741ZM769.951 276.432C769.959 274.744 770.99 273.756 772.473 273.756C773.948 273.756 774.817 274.702 774.809 276.312V284H778.439V275.665C778.448 272.597 776.641 270.739 773.914 270.739C771.928 270.739 770.598 271.676 770.002 273.219H769.848V266.545H766.32V284H769.951V276.432ZM781.297 284H784.927V276.594C784.927 274.983 786.103 273.875 787.706 273.875C788.208 273.875 788.899 273.96 789.24 274.071V270.849C788.916 270.773 788.464 270.722 788.098 270.722C786.632 270.722 785.43 271.574 784.953 273.193H784.816V270.909H781.297V284ZM799.512 278.426C799.52 280.182 798.319 281.102 797.015 281.102C795.642 281.102 794.756 280.139 794.748 278.597V270.909H791.117V279.244C791.125 282.304 792.915 284.17 795.549 284.17C797.517 284.17 798.932 283.156 799.52 281.622H799.657V284H803.142V270.909H799.512V278.426ZM809.677 276.432C809.686 274.744 810.691 273.756 812.157 273.756C813.615 273.756 814.493 274.71 814.484 276.312V284H818.115V275.665C818.115 272.614 816.325 270.739 813.598 270.739C811.654 270.739 810.248 271.693 809.66 273.219H809.507V270.909H806.047V284H809.677V276.432ZM826.874 289.182C830.615 289.182 833.275 287.477 833.275 284.128V270.909H829.669V273.108H829.533C829.047 272.043 827.982 270.739 825.792 270.739C822.919 270.739 820.49 272.972 820.49 277.429C820.49 281.784 822.851 283.812 825.8 283.812C827.888 283.812 829.056 282.764 829.533 281.682H829.686V284.077C829.686 285.875 828.536 286.574 826.959 286.574C825.357 286.574 824.547 285.875 824.249 285.082L820.891 285.534C821.326 287.597 823.346 289.182 826.874 289.182ZM826.951 281.085C825.169 281.085 824.198 279.67 824.198 277.412C824.198 275.188 825.152 273.628 826.951 273.628C828.715 273.628 829.703 275.119 829.703 277.412C829.703 279.722 828.698 281.085 826.951 281.085Z" fill="white"/>
<rect x="589" y="493" width="194" height="54" fill="#5279DF"/>
<path d="M603.669 529H616.112V525.983H608.782V525.864L611.331 523.366C614.919 520.094 615.882 518.457 615.882 516.472C615.882 513.446 613.41 511.307 609.669 511.307C606.004 511.307 603.49 513.497 603.498 516.923H607.001C606.993 515.253 608.049 514.23 609.643 514.23C611.177 514.23 612.319 515.185 612.319 516.719C612.319 518.108 611.467 519.062 609.882 520.588L603.669 526.341V529ZM620.942 529.222C622.033 529.222 622.979 528.31 622.988 527.176C622.979 526.06 622.033 525.148 620.942 525.148C619.817 525.148 618.888 526.06 618.897 527.176C618.888 528.31 619.817 529.222 620.942 529.222ZM633.779 529L635.075 525.02H641.373L642.669 529H646.623L640.606 511.545H635.85L629.825 529H633.779ZM636.012 522.139L638.16 515.534H638.297L640.444 522.139H636.012ZM657.051 523.426C657.059 525.182 655.858 526.102 654.554 526.102C653.181 526.102 652.295 525.139 652.287 523.597V515.909H648.656V524.244C648.664 527.304 650.454 529.17 653.088 529.17C655.056 529.17 656.471 528.156 657.059 526.622H657.196V529H660.681V515.909H657.051V523.426ZM674.478 519.642C674.154 517.23 672.211 515.739 668.904 515.739C665.554 515.739 663.347 517.29 663.355 519.812C663.347 521.773 664.583 523.043 667.14 523.554L669.407 524.006C670.549 524.236 671.069 524.653 671.086 525.31C671.069 526.085 670.225 526.639 668.955 526.639C667.659 526.639 666.799 526.085 666.577 525.02L663.006 525.207C663.347 527.713 665.478 529.256 668.946 529.256C672.338 529.256 674.767 527.526 674.776 524.943C674.767 523.051 673.532 521.918 670.992 521.398L668.623 520.92C667.404 520.656 666.952 520.239 666.961 519.608C666.952 518.824 667.838 518.312 668.963 518.312C670.225 518.312 670.975 519.003 671.154 519.847L674.478 519.642ZM687.954 519.642C687.63 517.23 685.687 515.739 682.38 515.739C679.031 515.739 676.824 517.29 676.832 519.812C676.824 521.773 678.059 523.043 680.616 523.554L682.883 524.006C684.025 524.236 684.545 524.653 684.562 525.31C684.545 526.085 683.701 526.639 682.431 526.639C681.136 526.639 680.275 526.085 680.054 525.02L676.483 525.207C676.824 527.713 678.954 529.256 682.423 529.256C685.815 529.256 688.244 527.526 688.252 524.943C688.244 523.051 687.008 521.918 684.468 521.398L682.099 520.92C680.88 520.656 680.429 520.239 680.437 519.608C680.429 518.824 681.315 518.312 682.44 518.312C683.701 518.312 684.451 519.003 684.63 519.847L687.954 519.642ZM697.502 515.909H695.039V512.773H691.408V515.909H689.618V518.636H691.408V525.455C691.391 528.02 693.138 529.29 695.772 529.179C696.709 529.145 697.374 528.957 697.74 528.838L697.169 526.136C696.99 526.17 696.607 526.256 696.266 526.256C695.542 526.256 695.039 525.983 695.039 524.977V518.636H697.502V515.909ZM705.692 529.256C708.931 529.256 711.113 527.679 711.624 525.25L708.266 525.028C707.9 526.026 706.962 526.545 705.752 526.545C703.936 526.545 702.786 525.344 702.786 523.392V523.384H711.701V522.386C711.701 517.938 709.007 515.739 705.547 515.739C701.695 515.739 699.198 518.474 699.198 522.514C699.198 526.665 701.661 529.256 705.692 529.256ZM702.786 521.134C702.863 519.642 703.996 518.449 705.607 518.449C707.184 518.449 708.275 519.574 708.283 521.134H702.786ZM717.701 511.545H714.07V529H717.701V511.545ZM724.24 511.545H720.609V529H724.24V511.545ZM735.543 523.426C735.551 525.182 734.35 526.102 733.046 526.102C731.674 526.102 730.787 525.139 730.779 523.597V515.909H727.148V524.244C727.157 527.304 728.946 529.17 731.58 529.17C733.549 529.17 734.963 528.156 735.551 526.622H735.688V529H739.174V515.909H735.543V523.426ZM745.708 521.432C745.717 519.744 746.723 518.756 748.189 518.756C749.646 518.756 750.524 519.71 750.515 521.312V529H754.146V520.665C754.146 517.614 752.356 515.739 749.629 515.739C747.686 515.739 746.279 516.693 745.691 518.219H745.538V515.909H742.078V529H745.708V521.432ZM762.905 534.182C766.647 534.182 769.306 532.477 769.306 529.128V515.909H765.701V518.108H765.564C765.078 517.043 764.013 515.739 761.823 515.739C758.951 515.739 756.522 517.972 756.522 522.429C756.522 526.784 758.882 528.812 761.831 528.812C763.919 528.812 765.087 527.764 765.564 526.682H765.718V529.077C765.718 530.875 764.567 531.574 762.99 531.574C761.388 531.574 760.578 530.875 760.28 530.082L756.922 530.534C757.357 532.597 759.377 534.182 762.905 534.182ZM762.982 526.085C761.201 526.085 760.229 524.67 760.229 522.412C760.229 520.188 761.184 518.628 762.982 518.628C764.746 518.628 765.735 520.119 765.735 522.412C765.735 524.722 764.729 526.085 762.982 526.085Z" fill="white"/>
<rect x="1052" y="281" width="320" height="240" rx="4" fill="#B6CEFF"/>
<path d="M1112.43 413H1122.37C1127.6 413 1130.38 410.273 1130.38 406.568C1130.38 403.125 1127.92 401.045 1125.27 400.92V400.693C1127.69 400.148 1129.47 398.432 1129.47 395.693C1129.47 392.205 1126.88 389.727 1121.75 389.727H1112.43V413ZM1117.35 408.977V402.795H1121.47C1123.84 402.795 1125.3 404.159 1125.3 406.08C1125.3 407.83 1124.11 408.977 1121.36 408.977H1117.35ZM1117.35 399.466V393.705H1121.09C1123.27 393.705 1124.51 394.83 1124.51 396.511C1124.51 398.352 1123.01 399.466 1121 399.466H1117.35ZM1141.45 413.341C1145.77 413.341 1148.68 411.239 1149.36 408L1144.88 407.705C1144.39 409.034 1143.14 409.727 1141.53 409.727C1139.11 409.727 1137.57 408.125 1137.57 405.523V405.511H1149.46V404.182C1149.46 398.25 1145.87 395.318 1141.26 395.318C1136.12 395.318 1132.79 398.966 1132.79 404.352C1132.79 409.886 1136.07 413.341 1141.45 413.341ZM1137.57 402.511C1137.68 400.523 1139.19 398.932 1141.34 398.932C1143.44 398.932 1144.89 400.432 1144.9 402.511H1137.57ZM1160.48 419.909C1165.47 419.909 1169.02 417.636 1169.02 413.17V395.545H1164.21V398.477H1164.03C1163.38 397.057 1161.96 395.318 1159.04 395.318C1155.21 395.318 1151.97 398.295 1151.97 404.239C1151.97 410.045 1155.12 412.75 1159.05 412.75C1161.84 412.75 1163.39 411.352 1164.03 409.909H1164.23V413.102C1164.23 415.5 1162.7 416.432 1160.6 416.432C1158.46 416.432 1157.38 415.5 1156.98 414.443L1152.51 415.045C1153.09 417.795 1155.78 419.909 1160.48 419.909ZM1160.59 409.114C1158.21 409.114 1156.91 407.227 1156.91 404.216C1156.91 401.25 1158.19 399.17 1160.59 399.17C1162.94 399.17 1164.26 401.159 1164.26 404.216C1164.26 407.295 1162.91 409.114 1160.59 409.114ZM1184.06 405.568C1184.07 407.909 1182.47 409.136 1180.73 409.136C1178.9 409.136 1177.72 407.852 1177.71 405.795V395.545H1172.87V406.659C1172.88 410.739 1175.27 413.227 1178.78 413.227C1181.4 413.227 1183.29 411.875 1184.07 409.83H1184.26V413H1188.9V395.545H1184.06V405.568ZM1177.45 393.159C1178.77 393.159 1179.81 392.102 1179.81 390.841C1179.81 389.557 1178.77 388.534 1177.45 388.534C1176.14 388.534 1175.06 389.557 1175.06 390.841C1175.06 392.102 1176.14 393.159 1177.45 393.159ZM1184.4 393.159C1185.72 393.159 1186.77 392.102 1186.77 390.841C1186.77 389.557 1185.72 388.534 1184.4 388.534C1183.1 388.534 1182.02 389.557 1182.02 390.841C1182.02 392.102 1183.1 393.159 1184.4 393.159ZM1197.62 402.909C1197.63 400.659 1198.97 399.341 1200.92 399.341C1202.87 399.341 1204.04 400.614 1204.03 402.75V413H1208.87V401.886C1208.87 397.818 1206.48 395.318 1202.84 395.318C1200.25 395.318 1198.38 396.591 1197.59 398.625H1197.39V395.545H1192.78V413H1197.62V402.909ZM1227.2 400.523C1226.77 397.307 1224.18 395.318 1219.77 395.318C1215.31 395.318 1212.36 397.386 1212.38 400.75C1212.36 403.364 1214.01 405.057 1217.42 405.739L1220.44 406.341C1221.97 406.648 1222.66 407.205 1222.68 408.08C1222.66 409.114 1221.53 409.852 1219.84 409.852C1218.11 409.852 1216.97 409.114 1216.67 407.693L1211.91 407.943C1212.36 411.284 1215.2 413.341 1219.83 413.341C1224.35 413.341 1227.59 411.034 1227.6 407.591C1227.59 405.068 1225.94 403.557 1222.56 402.864L1219.4 402.227C1217.77 401.875 1217.17 401.318 1217.18 400.477C1217.17 399.432 1218.35 398.75 1219.85 398.75C1221.53 398.75 1222.53 399.67 1222.77 400.795L1227.2 400.523ZM1239.93 395.545H1236.65V391.364H1231.81V395.545H1229.42V399.182H1231.81V408.273C1231.79 411.693 1234.12 413.386 1237.63 413.239C1238.88 413.193 1239.76 412.943 1240.25 412.784L1239.49 409.182C1239.25 409.227 1238.74 409.341 1238.29 409.341C1237.32 409.341 1236.65 408.977 1236.65 407.636V399.182H1239.93V395.545ZM1243.09 413H1247.93V395.545H1243.09V413ZM1245.52 393.295C1246.96 393.295 1248.14 392.193 1248.14 390.841C1248.14 389.5 1246.96 388.398 1245.52 388.398C1244.09 388.398 1242.91 389.5 1242.91 390.841C1242.91 392.193 1244.09 393.295 1245.52 393.295ZM1259.67 419.909C1264.66 419.909 1268.2 417.636 1268.2 413.17V395.545H1263.4V398.477H1263.22C1262.57 397.057 1261.15 395.318 1258.23 395.318C1254.4 395.318 1251.16 398.295 1251.16 404.239C1251.16 410.045 1254.31 412.75 1258.24 412.75C1261.02 412.75 1262.58 411.352 1263.22 409.909H1263.42V413.102C1263.42 415.5 1261.89 416.432 1259.78 416.432C1257.65 416.432 1256.57 415.5 1256.17 414.443L1251.69 415.045C1252.27 417.795 1254.97 419.909 1259.67 419.909ZM1259.77 409.114C1257.4 409.114 1256.1 407.227 1256.1 404.216C1256.1 401.25 1257.38 399.17 1259.77 399.17C1262.12 399.17 1263.44 401.159 1263.44 404.216C1263.44 407.295 1262.1 409.114 1259.77 409.114ZM1281.34 395.545H1278.06V391.364H1273.22V395.545H1270.83V399.182H1273.22V408.273C1273.19 411.693 1275.52 413.386 1279.03 413.239C1280.28 413.193 1281.17 412.943 1281.66 412.784L1280.9 409.182C1280.66 409.227 1280.15 409.341 1279.69 409.341C1278.73 409.341 1278.06 408.977 1278.06 407.636V399.182H1281.34V395.545ZM1292.26 413.341C1296.58 413.341 1299.49 411.239 1300.17 408L1295.69 407.705C1295.2 409.034 1293.95 409.727 1292.34 409.727C1289.92 409.727 1288.39 408.125 1288.39 405.523V405.511H1300.27V404.182C1300.27 398.25 1296.68 395.318 1292.07 395.318C1286.93 395.318 1283.6 398.966 1283.6 404.352C1283.6 409.886 1286.89 413.341 1292.26 413.341ZM1288.39 402.511C1288.49 400.523 1290 398.932 1292.15 398.932C1294.25 398.932 1295.7 400.432 1295.72 402.511H1288.39ZM1303.43 413H1308.27V403.125C1308.27 400.977 1309.84 399.5 1311.98 399.5C1312.65 399.5 1313.57 399.614 1314.02 399.761V395.466C1313.59 395.364 1312.99 395.295 1312.5 395.295C1310.55 395.295 1308.94 396.432 1308.31 398.591H1308.12V395.545H1303.43V413Z" fill="#001540"/>
<g clip-path="url(#clip0)">
<path d="M685.499 346C697.509 346 708.614 350.365 717.365 357.306L722.313 353.745C723.36 353.048 724.628 353.034 725.573 353.624C726.599 354.168 727.142 355.314 727.081 356.461L727.806 377.282C727.682 379.266 725.581 380.656 723.762 379.878C715.566 377.277 701.869 372.712 702.579 372.937C701.493 372.514 700.708 371.549 700.587 370.463C700.466 369.316 701.01 368.23 701.915 367.566L706.562 364.488C700.301 360.458 692.742 358.271 685.499 358.271C681.493 358.271 677.596 358.899 673.905 360.056C674.398 358.07 674.09 355.582 672.792 353.477C671.59 351.527 669.709 350.146 667.566 349.527C673.177 347.41 679.21 346 685.499 346Z" fill="white"/>
<path d="M703.123 435.763C705.723 427.566 710.289 413.869 710.063 414.579C710.486 413.493 711.451 412.708 712.537 412.587C713.684 412.467 714.771 413.01 715.435 413.915L718.512 418.562C722.542 412.301 724.729 404.742 724.729 397.5C724.729 393.5 724.104 389.608 722.95 385.923C723.506 386.042 724.142 386.131 724.832 386.131C728.912 386.131 732.39 383.373 733.479 379.583C735.592 385.19 737 391.217 737 397.5C737 409.51 732.635 420.614 725.694 429.365L729.255 434.314C729.952 435.36 729.966 436.629 729.376 437.573C728.832 438.599 727.686 439.142 726.539 439.082L705.718 439.806C703.734 439.682 702.344 437.581 703.123 435.763Z" fill="white"/>
<path d="M643.194 417.716C643.319 415.732 645.419 414.342 647.238 415.121C655.434 417.721 669.132 422.287 668.421 422.062C669.508 422.484 670.292 423.45 670.413 424.536C670.534 425.683 669.991 426.769 669.086 427.433L664.438 430.511C670.699 434.54 678.258 436.727 685.501 436.727C689.507 436.727 693.405 436.1 697.095 434.943C696.603 436.93 696.913 439.42 698.211 441.525C699.411 443.473 701.292 444.854 703.434 445.472C697.823 447.588 691.79 448.999 685.501 448.999C673.491 448.999 662.386 444.633 653.635 437.693L648.687 441.254C647.64 441.951 646.372 441.965 645.427 441.374C644.402 440.831 643.858 439.684 643.919 438.538L643.194 417.716Z" fill="white"/>
<path d="M645.305 365.634L641.744 360.686C641.047 359.639 641.033 358.371 641.623 357.426C642.167 356.4 643.313 355.857 644.46 355.918L665.281 355.193C667.266 355.317 668.656 357.418 667.877 359.237C665.277 367.433 660.711 381.13 660.936 380.42C660.514 381.506 659.548 382.291 658.462 382.412C657.315 382.533 656.229 381.989 655.565 381.084L652.487 376.437C648.458 382.698 646.271 390.257 646.271 397.5C646.271 401.499 646.895 405.391 648.049 409.076C647.493 408.958 646.857 408.869 646.168 408.869C642.087 408.869 638.409 411.627 637.319 415.416C635.206 409.809 633.999 403.782 633.999 397.5C633.999 385.49 638.365 374.385 645.305 365.634Z" fill="white"/>
</g>
<rect width="107" height="54" transform="matrix(4.37114e-08 -1 -1 -4.37114e-08 713 696)" fill="#5279DF"/>
<path d="M685.596 558L640.596 592L730 592L685.596 558Z" fill="#5279DF"/>
<rect width="220" height="54" transform="matrix(-1 0 0 1 1101 420)" fill="#5279DF"/>
<path d="M851 447.404L885 492.404L885 403L851 447.404Z" fill="#5279DF"/>
<path d="M885.312 456.239C889.232 456.239 892.036 454.082 892.028 451.099C892.036 448.926 890.656 447.375 888.09 447.051V446.915C890.042 446.565 891.388 445.185 891.38 443.224C891.388 440.472 888.977 438.307 885.363 438.307C881.783 438.307 879.09 440.403 879.039 443.42H882.576C882.619 442.091 883.837 441.23 885.346 441.23C886.837 441.23 887.835 442.134 887.826 443.446C887.835 444.818 886.667 445.747 884.988 445.747H883.36V448.457H884.988C886.965 448.457 888.201 449.446 888.192 450.852C888.201 452.241 887.008 453.196 885.32 453.196C883.692 453.196 882.474 452.344 882.406 451.065H878.69C878.749 454.116 881.477 456.239 885.312 456.239ZM896.344 456.222C897.435 456.222 898.381 455.31 898.39 454.176C898.381 453.06 897.435 452.148 896.344 452.148C895.219 452.148 894.29 453.06 894.299 454.176C894.29 455.31 895.219 456.222 896.344 456.222ZM909.182 456L910.477 452.02H916.776L918.071 456H922.026L916.009 438.545H911.253L905.227 456H909.182ZM911.415 449.139L913.562 442.534H913.699L915.847 449.139H911.415ZM911.031 436.756C912.02 436.756 912.804 435.963 912.804 435.017C912.804 434.054 912.02 433.287 911.031 433.287C910.051 433.287 909.241 434.054 909.241 435.017C909.241 435.963 910.051 436.756 911.031 436.756ZM916.247 436.756C917.236 436.756 918.02 435.963 918.02 435.017C918.02 434.054 917.236 433.287 916.247 433.287C915.267 433.287 914.457 434.054 914.457 435.017C914.457 435.963 915.267 436.756 916.247 436.756ZM927.689 448.432C927.697 446.744 928.703 445.756 930.169 445.756C931.626 445.756 932.504 446.71 932.496 448.312V456H936.126V447.665C936.126 444.614 934.337 442.739 931.609 442.739C929.666 442.739 928.26 443.693 927.672 445.219H927.518V442.909H924.058V456H927.689V448.432ZM943.812 456.213C945.925 456.213 947.025 454.994 947.528 453.903H947.681V456H951.261V438.545H947.638V445.108H947.528C947.042 444.043 945.994 442.739 943.803 442.739C940.931 442.739 938.502 444.972 938.502 449.472C938.502 453.852 940.829 456.213 943.812 456.213ZM944.962 453.324C943.181 453.324 942.21 451.739 942.21 449.455C942.21 447.188 943.164 445.628 944.962 445.628C946.727 445.628 947.715 447.119 947.715 449.455C947.715 451.79 946.71 453.324 944.962 453.324ZM960.212 456.256C963.45 456.256 965.632 454.679 966.143 452.25L962.786 452.028C962.419 453.026 961.482 453.545 960.271 453.545C958.456 453.545 957.305 452.344 957.305 450.392V450.384H966.22V449.386C966.22 444.938 963.527 442.739 960.067 442.739C956.214 442.739 953.717 445.474 953.717 449.514C953.717 453.665 956.18 456.256 960.212 456.256ZM957.305 448.134C957.382 446.642 958.516 445.449 960.126 445.449C961.703 445.449 962.794 446.574 962.803 448.134H957.305ZM968.589 456H972.22V448.594C972.22 446.983 973.396 445.875 974.999 445.875C975.501 445.875 976.192 445.96 976.533 446.071V442.849C976.209 442.773 975.757 442.722 975.391 442.722C973.925 442.722 972.723 443.574 972.246 445.193H972.109V442.909H968.589V456ZM986.805 450.426C986.813 452.182 985.612 453.102 984.308 453.102C982.935 453.102 982.049 452.139 982.04 450.597V442.909H978.41V451.244C978.418 454.304 980.208 456.17 982.842 456.17C984.81 456.17 986.225 455.156 986.813 453.622H986.95V456H990.435V442.909H986.805V450.426ZM996.97 448.432C996.979 446.744 997.984 445.756 999.45 445.756C1000.91 445.756 1001.79 446.71 1001.78 448.312V456H1005.41V447.665C1005.41 444.614 1003.62 442.739 1000.89 442.739C998.947 442.739 997.541 443.693 996.953 445.219H996.8V442.909H993.339V456H996.97V448.432ZM1014.17 461.182C1017.91 461.182 1020.57 459.477 1020.57 456.128V442.909H1016.96V445.108H1016.83C1016.34 444.043 1015.27 442.739 1013.08 442.739C1010.21 442.739 1007.78 444.972 1007.78 449.429C1007.78 453.784 1010.14 455.812 1013.09 455.812C1015.18 455.812 1016.35 454.764 1016.83 453.682H1016.98V456.077C1016.98 457.875 1015.83 458.574 1014.25 458.574C1012.65 458.574 1011.84 457.875 1011.54 457.082L1008.18 457.534C1008.62 459.597 1010.64 461.182 1014.17 461.182ZM1014.24 453.085C1012.46 453.085 1011.49 451.67 1011.49 449.412C1011.49 447.188 1012.45 445.628 1014.24 445.628C1016.01 445.628 1017 447.119 1017 449.412C1017 451.722 1015.99 453.085 1014.24 453.085ZM1029.42 456.256C1032.66 456.256 1034.84 454.679 1035.35 452.25L1032 452.028C1031.63 453.026 1030.69 453.545 1029.48 453.545C1027.67 453.545 1026.52 452.344 1026.52 450.392V450.384H1035.43V449.386C1035.43 444.938 1032.74 442.739 1029.28 442.739C1025.43 442.739 1022.93 445.474 1022.93 449.514C1022.93 453.665 1025.39 456.256 1029.42 456.256ZM1026.52 448.134C1026.59 446.642 1027.73 445.449 1029.34 445.449C1030.91 445.449 1032 446.574 1032.01 448.134H1026.52ZM1041.43 448.432C1041.44 446.744 1042.45 445.756 1043.91 445.756C1045.37 445.756 1046.25 446.71 1046.24 448.312V456H1049.87V447.665C1049.87 444.614 1048.08 442.739 1045.35 442.739C1043.41 442.739 1042 443.693 1041.41 445.219H1041.26V442.909H1037.8V456H1041.43V448.432ZM1058.7 456.256C1061.93 456.256 1064.12 454.679 1064.63 452.25L1061.27 452.028C1060.9 453.026 1059.97 453.545 1058.76 453.545C1056.94 453.545 1055.79 452.344 1055.79 450.392V450.384H1064.7V449.386C1064.7 444.938 1062.01 442.739 1058.55 442.739C1054.7 442.739 1052.2 445.474 1052.2 449.514C1052.2 453.665 1054.66 456.256 1058.7 456.256ZM1055.79 448.134C1055.87 446.642 1057 445.449 1058.61 445.449C1060.19 445.449 1061.28 446.574 1061.29 448.134H1055.79ZM1070.7 448.432C1070.71 446.744 1071.72 445.756 1073.18 445.756C1074.64 445.756 1075.52 446.71 1075.51 448.312V456H1079.14V447.665C1079.14 444.614 1077.35 442.739 1074.62 442.739C1072.68 442.739 1071.28 443.693 1070.69 445.219H1070.53V442.909H1067.07V456H1070.7V448.432Z" fill="white"/>
<defs>
<clipPath id="clip0">
<rect width="103" height="103" fill="white" transform="matrix(-1 0 0 1 737 346)"/>
</clipPath>
</defs>
</svg>
