<svg width="1372" height="897" viewBox="0 0 1372 897" fill="none" xmlns="http://www.w3.org/2000/svg">
<rect x="472" width="428" height="603" rx="4" fill="#001540"/>
<path d="M782.943 173.663C782.943 173.509 782.943 173.355 782.943 173.15C782.994 169.456 781.159 166.737 777.441 165.608C774.638 164.736 771.632 164.069 768.677 163.967C760.373 163.71 752.069 163.813 743.764 163.71C741.982 163.659 740.147 163.402 738.415 162.992C737.498 162.787 736.53 162.12 736.021 161.401C734.034 158.323 735.867 154.116 739.638 153.347C742.338 152.834 745.089 152.526 747.84 152.526C757.571 152.423 767.353 152.475 777.084 152.423C777.797 152.423 778.714 152.218 779.121 151.808C780.039 150.73 780.701 149.396 781.516 148.062H743.612C741.064 148.062 738.466 148.319 735.919 148.729C728.481 149.807 725.169 154.219 726.34 161.042C726.901 164.275 728.837 166.481 732.25 167.199C734.951 167.763 737.702 168.174 740.453 168.225C748.248 168.379 756.094 168.276 763.889 168.43C765.978 168.481 768.117 168.738 770.104 169.251C772.855 169.969 773.772 171.867 773.67 175.407C773.568 178.075 772.499 179.563 769.849 180.179C767.862 180.64 765.824 180.846 763.786 180.846C752.272 180.897 740.809 180.897 729.295 180.897C728.735 180.897 727.869 180.897 727.665 181.205C726.646 182.539 725.831 183.975 724.863 185.565H763.328C766.028 185.565 768.728 185.514 771.429 185.206C778.306 184.488 783.605 182.385 782.943 173.663Z" fill="white"/>
<path d="M681.104 185.57L695.573 185.621C697.611 185.621 699.496 184.492 700.464 182.696C706.374 171.666 717.276 151.042 718.856 148.015C715.442 148.015 717.684 147.912 714.678 148.066C714.016 148.118 713.2 148.836 712.793 149.451C706.526 160.482 704.54 163.765 698.324 174.796C697.101 176.95 695.879 179.156 694.605 181.414C693.994 182.44 692.924 183.107 691.701 183.107H690.172C689.001 183.107 687.88 182.44 687.268 181.414C685.995 179.156 684.772 177.002 683.549 174.796C677.334 163.714 675.143 160.482 668.877 149.451C668.52 148.836 667.654 148.118 666.992 148.066C664.037 147.912 661.031 148.015 657.617 148.015C659.248 151.042 670.303 171.666 676.162 182.645C677.181 184.441 679.066 185.57 681.104 185.57Z" fill="white"/>
<path d="M633.972 148.217H587L590.973 152.885L629.795 153.501C635.807 153.604 640.647 158.529 640.647 164.583L640.698 169.559C640.698 175.664 635.858 180.641 629.744 180.692L600.959 181.051C600.551 181.051 600.246 180.743 600.246 180.333V163.813L590.923 152.834V184.437C590.923 185.053 591.432 185.618 592.094 185.618H633.922C643.499 185.618 651.295 177.768 651.295 168.123V165.66C651.295 156.015 643.551 148.217 633.972 148.217Z" fill="white"/>
<path d="M600.07 209.319C599.648 209.871 599.065 210.289 598.318 210.573C597.572 210.857 596.725 210.999 595.776 210.999C594.801 210.999 593.937 210.777 593.186 210.332C592.434 209.887 591.853 209.253 591.443 208.428C591.038 207.597 590.827 206.63 590.811 205.527V204.611C590.811 202.844 591.232 201.464 592.074 200.473C592.916 199.477 594.092 198.979 595.6 198.979C596.896 198.979 597.924 199.3 598.687 199.943C599.449 200.586 599.907 201.512 600.062 202.723H598.079C597.855 201.314 597.042 200.609 595.64 200.609C594.734 200.609 594.044 200.939 593.569 201.598C593.1 202.251 592.858 203.213 592.842 204.483V205.382C592.842 206.646 593.106 207.63 593.633 208.331C594.166 209.028 594.905 209.376 595.848 209.376C596.882 209.376 597.618 209.14 598.054 208.668V206.379H595.656V204.836H600.07V209.319Z" fill="white"/>
<path d="M614.082 199.141V206.958C614.082 208.201 613.685 209.187 612.89 209.916C612.101 210.638 611.049 211 609.732 211C608.4 211 607.342 210.644 606.558 209.931C605.774 209.213 605.383 208.22 605.383 206.95V199.141H607.397V206.967C607.397 207.749 607.595 208.346 607.989 208.758C608.383 209.171 608.964 209.377 609.732 209.377C611.289 209.377 612.066 208.552 612.066 206.902V199.141H614.082Z" fill="white"/>
<path d="M625.864 208.116H621.355L620.411 210.84H618.309L622.706 199.141H624.521L628.927 210.84H626.816L625.864 208.116ZM621.922 206.476H625.297L623.609 201.623L621.922 206.476Z" fill="white"/>
<path d="M637.805 206.332H635.551V210.84H633.527V199.141H637.622C638.964 199.141 640.001 199.443 640.732 200.049C641.462 200.654 641.826 201.53 641.826 202.676C641.826 203.458 641.638 204.115 641.259 204.645C640.886 205.169 640.363 205.574 639.692 205.858L642.307 210.735V210.84H640.14L637.805 206.332ZM635.551 204.701H637.629C638.311 204.701 638.845 204.529 639.228 204.187C639.612 203.838 639.804 203.364 639.804 202.765C639.804 202.138 639.625 201.653 639.269 201.31C638.917 200.967 638.389 200.79 637.685 200.78H635.551V204.701Z" fill="white"/>
<path d="M653.538 208.116H649.029L648.086 210.84H645.982L650.38 199.141H652.195L656.6 210.84H654.49L653.538 208.116ZM649.596 206.476H652.97L651.284 201.623L649.596 206.476Z" fill="white"/>
<path d="M670.437 210.84H668.415L663.226 202.54V210.84H661.203V199.141H663.226L668.431 207.473V199.141H670.437V210.84Z" fill="white"/>
<path d="M684.276 200.78H680.646V210.84H678.639V200.78H675.041V199.141H684.276V200.78Z" fill="white"/>
<path d="M695.889 205.617H691.107V209.216H696.696V210.84H689.084V199.141H696.64V200.78H691.107V204.01H695.889V205.617Z" fill="white"/>
<path d="M708.422 205.617H703.64V209.216H709.229V210.84H701.617V199.141H709.173V200.78H703.64V204.01H708.422V205.617Z" fill="white"/>
<path d="M725.606 208.292L728.564 199.141H730.787L726.597 210.84H724.638L720.465 199.141H722.68L725.606 208.292Z" fill="white"/>
<path d="M741.29 208.116H736.781L735.837 210.84H733.734L738.132 199.141H739.947L744.352 210.84H742.242L741.29 208.116ZM737.348 206.476H740.722L739.036 201.623L737.348 206.476Z" fill="white"/>
<path d="M757.327 199.141V206.958C757.327 208.201 756.929 209.187 756.135 209.916C755.346 210.638 754.293 211 752.976 211C751.644 211 750.586 210.644 749.802 209.931C749.019 209.213 748.627 208.22 748.627 206.95V199.141H750.642V206.967C750.642 207.749 750.839 208.346 751.234 208.758C751.628 209.171 752.209 209.377 752.976 209.377C754.533 209.377 755.311 208.552 755.311 206.902V199.141H757.327Z" fill="white"/>
<path d="M764.79 209.216H770.075V210.84H762.768V199.141H764.79V209.216Z" fill="white"/>
<path d="M781.666 200.78H778.036V210.84H776.029V200.78H772.432V199.141H781.666V200.78Z" fill="white"/>
<path d="M730.72 63.6213C731.046 60.5704 730.829 57.5196 730.069 54.5777C729.2 51.1454 727.517 47.9311 725.346 45.2071C723.121 42.4831 720.298 40.1949 717.204 38.615C715.63 37.8523 714.002 37.1986 712.265 36.7627C710.582 36.3269 708.845 36.1089 707.108 36H706.456H705.805H704.557L702.06 36.0545L697.066 36.1634L692.072 36.2724L687.079 36.3814C680.402 36.5448 673.726 36.7627 667.049 37.0351C673.726 37.362 680.402 37.5255 687.079 37.6888L692.072 37.7978L697.066 37.9068L702.06 38.0157L704.557 38.0702H705.805H706.402L707 38.1247C710.202 38.3426 713.296 39.2143 716.119 40.6853C717.53 41.448 718.833 42.3197 720.081 43.3548C721.33 44.3899 722.415 45.534 723.392 46.7325C724.695 48.4214 725.78 50.2737 726.595 52.235C726.269 51.7447 725.944 51.3089 725.563 50.8185C724.478 49.4565 723.283 48.258 721.981 47.1139C720.678 46.0243 719.213 45.0436 717.693 44.2264C716.173 43.4092 714.599 42.81 712.916 42.3197C711.288 41.8293 709.605 41.557 707.868 41.448C707.434 41.3935 707 41.3935 706.62 41.3935C706.402 41.3935 706.185 41.3935 705.968 41.3935C705.751 41.3935 705.534 41.3935 705.371 41.3935L702.928 41.448C699.672 41.5025 696.415 41.6114 693.158 41.6659C689.902 41.7748 686.645 41.8838 683.388 41.9928L678.502 42.2107C677.689 42.2652 676.874 42.2652 676.06 42.3197C675.246 42.3742 674.432 42.3742 673.617 42.4286C674.432 42.4831 675.246 42.5376 676.06 42.5376C676.874 42.592 677.689 42.6465 678.502 42.6465L683.388 42.8645C686.645 42.9734 689.902 43.0824 693.158 43.1914C696.415 43.3003 699.672 43.3548 702.928 43.4092L705.371 43.4637H705.968C706.185 43.4637 706.348 43.4637 706.565 43.4637C706.945 43.4637 707.325 43.5182 707.705 43.5727C709.279 43.7361 710.799 44.063 712.265 44.4989C715.25 45.425 717.964 46.9505 720.353 48.9662C722.686 50.982 724.64 53.488 725.997 56.2665C726.215 56.7024 726.432 57.1927 726.595 57.6285C726.106 56.8658 725.563 56.1576 724.966 55.5038C722.741 52.8888 719.973 50.764 716.879 49.2386C715.359 48.4759 713.731 47.9311 712.047 47.4952C710.365 47.1139 708.682 46.896 707 46.8415C706.565 46.8415 706.131 46.8415 705.751 46.8415H704.503L702.06 46.896L697.175 47.0049L692.29 47.1684L687.405 47.3318C684.148 47.4408 680.891 47.6042 677.634 47.8221C680.891 48.0401 684.148 48.149 687.405 48.3124L692.29 48.4759L697.175 48.6393L702.06 48.7483L704.503 48.8028H705.751C706.131 48.8028 706.511 48.8028 706.945 48.8573C710.039 49.0207 713.133 49.8924 715.847 51.3089C720.733 53.7605 724.586 58.0099 726.649 63.0765C726.215 62.4772 725.78 61.8235 725.292 61.2787C724.207 59.9712 722.958 58.7181 721.601 57.683C720.244 56.5934 718.833 55.6672 717.258 54.9045C715.739 54.1418 714.11 53.5425 712.482 53.1067C710.854 52.6708 709.117 52.3984 707.434 52.3439C707.217 52.3439 707 52.3439 706.782 52.3439C706.565 52.3439 706.348 52.3439 706.131 52.3439H705.805H705.48H704.883L702.44 52.3984C699.183 52.5074 695.926 52.6164 692.67 52.7798C691.041 52.8343 689.413 52.9433 687.785 53.0522C686.156 53.1611 684.528 53.2701 682.899 53.3791C684.528 53.488 686.156 53.597 687.785 53.706C689.413 53.8149 691.041 53.8694 692.67 53.9783C695.926 54.1418 699.183 54.2508 702.44 54.3597L704.883 54.4142L706.076 54.4687C706.294 54.4687 706.456 54.4687 706.674 54.4687C706.891 54.4687 707.054 54.4687 707.271 54.5232C708.845 54.6321 710.365 54.959 711.83 55.3404C714.816 56.2121 717.584 57.683 719.973 59.6987C721.166 60.6794 722.252 61.8235 723.229 63.022C724.207 64.2206 725.02 65.5281 725.726 66.8901C725.997 67.4349 726.269 68.0342 726.54 68.6334C725.944 67.7618 725.292 66.9446 724.586 66.1274C722.306 63.5668 719.484 61.4421 716.39 60.0256C714.816 59.3174 713.187 58.7726 711.559 58.3912C709.877 58.0099 708.193 57.8465 706.511 57.792H705.86H705.263L704.014 57.8465C703.2 57.9009 702.386 57.9009 701.571 57.9554L699.129 58.0643L696.686 58.1733C693.43 58.3368 690.173 58.5547 686.916 58.8271C690.173 59.154 693.43 59.3174 696.686 59.4809L699.129 59.5898L701.571 59.6987C702.386 59.7532 703.2 59.7532 704.014 59.8077L705.263 59.8622L706.456 59.9167C708.031 59.9712 709.55 60.1891 711.07 60.5704C712.591 60.9518 714.056 61.4966 715.413 62.1503C716.824 62.8041 718.127 63.6213 719.375 64.6019C720.624 65.5281 721.71 66.6177 722.741 67.7618C723.772 68.9603 724.695 70.2678 725.455 71.6844C725.346 71.8478 725.292 72.0112 725.183 72.1747C723.555 70.2134 721.655 68.5245 719.593 67.1625C716.661 65.2557 713.296 64.0027 709.822 63.4579C708.953 63.3489 708.085 63.2399 707.217 63.2399H706.565H705.914C705.48 63.2399 705.1 63.2944 704.665 63.2944C702.983 63.3489 701.3 63.4579 699.672 63.5124C696.306 63.7302 692.995 63.8937 689.63 64.2751C692.995 64.6019 696.306 64.8199 699.672 65.0378C701.354 65.1468 703.037 65.2012 704.665 65.2557L705.914 65.3102H706.511L707.108 65.3646C707.922 65.4191 708.682 65.5281 709.497 65.6371C711.07 65.9095 712.59 66.3453 714.056 66.9446C715.521 67.5439 716.932 68.3066 718.236 69.1783C720.353 70.5947 722.198 72.3381 723.718 74.3538C722.09 76.5331 720.081 78.3856 717.801 79.8565C716.444 80.7279 715.033 81.4364 713.567 81.9807C712.102 82.5258 710.528 82.9618 708.953 83.1798C708.14 83.2888 707.38 83.3978 706.565 83.3978C706.348 83.3978 706.185 83.3978 705.968 83.3978H705.371H704.123L699.129 83.4523C692.452 83.5606 685.776 83.6696 679.1 83.8331C675.734 83.8876 672.423 83.9967 669.058 84.1057C665.692 84.2147 662.381 84.3237 659.016 84.4327C662.381 84.5417 665.692 84.6507 669.058 84.7597C672.423 84.8687 675.734 84.9232 679.1 85.0322C685.776 85.195 692.452 85.304 699.129 85.413L704.123 85.4675H705.371H706.023C706.24 85.4675 706.456 85.4675 706.674 85.4675C707.542 85.4675 708.411 85.413 709.279 85.304C712.753 84.8687 716.119 83.7241 719.158 81.8717C720.678 80.9459 722.035 79.8565 723.338 78.6574C724.043 78.0041 724.695 77.2958 725.292 76.5875C725.4 76.7509 725.455 76.9144 725.563 77.0778C725.346 77.5137 725.129 77.8951 724.858 78.2766C724.043 79.584 723.067 80.7824 721.981 81.9262C719.864 84.1602 717.258 85.9581 714.382 87.1564C712.971 87.756 711.45 88.192 709.93 88.5183C709.171 88.6818 708.411 88.7908 707.597 88.8454C707.38 88.8454 707.217 88.8999 707 88.8999C706.782 88.8999 706.62 88.8998 706.402 88.9544H705.805H705.208L695.438 89.0634C688.924 89.1724 682.411 89.2814 675.897 89.4449L671.012 89.5539L666.127 89.6629C662.87 89.7719 659.613 89.8264 656.356 89.9354C659.613 90.0437 662.87 90.1527 666.127 90.2072L671.012 90.3162L675.897 90.4253C682.411 90.5888 688.924 90.6978 695.438 90.8068L705.208 90.9158H705.805H706.456C706.674 90.9158 706.891 90.9158 707.108 90.9158C707.325 90.9158 707.542 90.9158 707.76 90.8613C708.628 90.8068 709.442 90.6978 710.31 90.5888C711.994 90.3162 713.676 89.8809 715.25 89.2269C716.824 88.6273 718.398 87.8105 719.809 86.8839C721.221 85.9581 722.578 84.8687 723.772 83.6151C724.858 82.5258 725.835 81.3819 726.649 80.129C726.269 81.1094 725.78 82.0352 725.238 82.9618C723.663 85.6311 721.601 87.974 719.104 89.8264C717.856 90.7523 716.552 91.5698 715.141 92.2232C713.731 92.8772 712.265 93.367 710.745 93.7486C709.225 94.1301 707.705 94.2936 706.131 94.3481L701.246 94.4026L691.475 94.5116L681.705 94.6751L671.935 94.8924C668.678 94.9469 665.421 95.0559 662.164 95.1104C660.536 95.1649 658.907 95.1649 657.279 95.2194L652.394 95.3829L657.279 95.5465C658.907 95.601 660.536 95.6555 662.164 95.6555C665.421 95.71 668.678 95.819 671.935 95.8735L681.705 96.0915L691.475 96.255L701.246 96.364L706.131 96.4185C707.813 96.4185 709.55 96.255 711.234 95.928C714.599 95.2194 717.801 93.8576 720.57 91.8416C721.981 90.8613 723.283 89.7174 724.423 88.4638C725.238 87.5925 725.997 86.6121 726.649 85.6311C725.618 88.192 724.098 90.5343 722.252 92.5502C720.135 94.8386 717.584 96.6358 714.762 97.8894C713.351 98.5427 711.885 98.9788 710.365 99.3058C709.605 99.4693 708.845 99.5783 708.085 99.6873C707.705 99.7418 707.325 99.7418 706.945 99.7956C706.728 99.7956 706.565 99.7956 706.348 99.7956C706.131 99.7956 705.968 99.7956 705.751 99.7956L695.98 99.9046L686.21 100.014L676.44 100.177L666.669 100.341C660.156 100.45 653.642 100.613 647.129 100.777C653.642 100.94 660.156 101.104 666.669 101.213L676.44 101.376L686.21 101.539L695.98 101.648L705.751 101.757H706.402C706.62 101.757 706.837 101.757 707.054 101.757C707.488 101.757 707.922 101.703 708.302 101.703C709.171 101.648 709.985 101.539 710.854 101.376C712.536 101.049 714.164 100.559 715.739 99.9046C718.887 98.5972 721.764 96.6358 724.152 94.1301C725.075 93.1497 725.944 92.0596 726.703 90.9703C726.377 91.8416 725.944 92.6592 725.509 93.476C724.749 94.8386 723.881 96.0915 722.849 97.2899C721.818 98.4882 720.733 99.5238 719.484 100.504C718.887 100.995 718.236 101.43 717.584 101.812C716.932 102.248 716.227 102.575 715.576 102.956C714.164 103.609 712.699 104.154 711.234 104.536C709.714 104.917 708.193 105.135 706.62 105.189H706.023H705.425H704.177H701.734C695.22 105.244 688.707 105.353 682.194 105.407C669.166 105.625 656.139 105.789 643.112 106.17C656.139 106.497 669.166 106.715 682.194 106.933C688.707 107.042 695.22 107.096 701.734 107.151H704.177H705.425H706.023H706.674C708.357 107.151 710.094 106.933 711.722 106.551C715.033 105.789 718.236 104.373 721.004 102.302C722.361 101.267 723.663 100.123 724.803 98.8153C725.509 98.0529 726.16 97.2354 726.703 96.364C725.835 98.4882 724.64 100.504 723.175 102.302C722.143 103.5 721.058 104.644 719.809 105.625C718.561 106.606 717.204 107.478 715.793 108.186C714.382 108.894 712.862 109.439 711.342 109.875C709.822 110.256 708.193 110.529 706.62 110.583H706.023H705.371H704.123H701.626L696.632 110.638L686.59 110.747L676.548 110.856L666.507 111.019L656.465 111.182L646.423 111.345L641.429 111.454L636.436 111.563L641.429 111.672L646.423 111.781L656.465 111.945L666.507 112.108L676.548 112.272L686.59 112.381L696.632 112.49L701.626 112.545H704.123H705.371H706.023H706.674C708.411 112.545 710.148 112.326 711.885 111.945C713.567 111.563 715.25 110.965 716.824 110.202C720.027 108.731 722.849 106.497 725.129 103.827C727.408 101.158 729.145 97.9439 730.123 94.5661C730.991 91.4608 731.262 88.1375 730.937 84.9232C730.72 85.4675 730.774 64.1661 730.72 63.6213Z" fill="white"/>
<rect y="281" width="320" height="240" rx="4" fill="#B6CEFF"/>
<path d="M90.2528 413L91.9801 407.693H100.378L102.105 413H107.378L99.3551 389.727H93.0142L84.9801 413H90.2528ZM93.2301 403.852L96.0938 395.045H96.2756L99.1392 403.852H93.2301ZM110.088 419.545H114.929V410.205H115.077C115.747 411.659 117.213 413.284 120.031 413.284C124.009 413.284 127.111 410.136 127.111 404.295C127.111 398.295 123.872 395.318 120.043 395.318C117.122 395.318 115.724 397.057 115.077 398.477H114.861V395.545H110.088V419.545ZM114.827 404.273C114.827 401.159 116.145 399.17 118.497 399.17C120.895 399.17 122.168 401.25 122.168 404.273C122.168 407.318 120.872 409.432 118.497 409.432C116.168 409.432 114.827 407.386 114.827 404.273ZM130.338 419.545H135.179V410.205H135.327C135.997 411.659 137.463 413.284 140.281 413.284C144.259 413.284 147.361 410.136 147.361 404.295C147.361 398.295 144.122 395.318 140.293 395.318C137.372 395.318 135.974 397.057 135.327 398.477H135.111V395.545H130.338V419.545ZM135.077 404.273C135.077 401.159 136.395 399.17 138.747 399.17C141.145 399.17 142.418 401.25 142.418 404.273C142.418 407.318 141.122 409.432 138.747 409.432C136.418 409.432 135.077 407.386 135.077 404.273ZM155.429 389.727H150.588V413H155.429V389.727ZM159.307 413H164.148V395.545H159.307V413ZM161.739 393.295C163.182 393.295 164.364 392.193 164.364 390.841C164.364 389.5 163.182 388.398 161.739 388.398C160.307 388.398 159.125 389.5 159.125 390.841C159.125 392.193 160.307 393.295 161.739 393.295ZM175.912 413.341C180.56 413.341 183.48 410.614 183.707 406.602H179.139C178.855 408.466 177.628 409.511 175.969 409.511C173.707 409.511 172.241 407.614 172.241 404.273C172.241 400.977 173.719 399.091 175.969 399.091C177.741 399.091 178.878 400.261 179.139 402H183.707C183.503 397.966 180.446 395.318 175.889 395.318C170.594 395.318 167.321 398.989 167.321 404.341C167.321 409.648 170.537 413.341 175.912 413.341ZM191.784 413.33C194.364 413.33 196.034 412.205 196.886 410.58H197.023V413H201.614V401.227C201.614 397.068 198.091 395.318 194.205 395.318C190.023 395.318 187.273 397.318 186.602 400.5L191.08 400.864C191.409 399.705 192.443 398.852 194.182 398.852C195.83 398.852 196.773 399.682 196.773 401.114V401.182C196.773 402.307 195.58 402.455 192.545 402.75C189.091 403.068 185.989 404.227 185.989 408.125C185.989 411.58 188.455 413.33 191.784 413.33ZM193.17 409.989C191.682 409.989 190.614 409.295 190.614 407.966C190.614 406.602 191.739 405.932 193.443 405.693C194.5 405.545 196.227 405.295 196.807 404.909V406.761C196.807 408.591 195.295 409.989 193.17 409.989ZM210.21 402.909C210.222 400.659 211.562 399.341 213.517 399.341C215.46 399.341 216.631 400.614 216.619 402.75V413H221.46V401.886C221.46 397.818 219.074 395.318 215.438 395.318C212.847 395.318 210.972 396.591 210.188 398.625H209.983V395.545H205.369V413H210.21V402.909ZM234.56 395.545H231.276V391.364H226.435V395.545H224.048V399.182H226.435V408.273C226.412 411.693 228.741 413.386 232.253 413.239C233.503 413.193 234.389 412.943 234.878 412.784L234.116 409.182C233.878 409.227 233.366 409.341 232.912 409.341C231.946 409.341 231.276 408.977 231.276 407.636V399.182H234.56V395.545Z" fill="#001540"/>
<rect x="526" y="657" width="320" height="240" rx="4" fill="#B6CEFF"/>
<path d="M624.533 773.25H629.533C628.896 768.648 624.839 765.409 619.578 765.409C613.43 765.409 608.692 769.841 608.692 777.386C608.692 784.75 613.124 789.318 619.68 789.318C625.555 789.318 629.749 785.602 629.749 779.477V776.545H620.01V780.25H625.01C624.942 783.136 622.976 784.966 619.703 784.966C616.01 784.966 613.68 782.205 613.68 777.341C613.68 772.5 616.101 769.761 619.658 769.761C622.192 769.761 623.908 771.068 624.533 773.25ZM644.547 781.568C644.558 783.909 642.956 785.136 641.217 785.136C639.388 785.136 638.206 783.852 638.195 781.795V771.545H633.354V782.659C633.365 786.739 635.751 789.227 639.263 789.227C641.888 789.227 643.774 787.875 644.558 785.83H644.74V789H649.388V771.545H644.547V781.568ZM658.237 789.33C660.817 789.33 662.487 788.205 663.339 786.58H663.476V789H668.067V777.227C668.067 773.068 664.544 771.318 660.658 771.318C656.476 771.318 653.726 773.318 653.055 776.5L657.533 776.864C657.862 775.705 658.896 774.852 660.635 774.852C662.283 774.852 663.226 775.682 663.226 777.114V777.182C663.226 778.307 662.033 778.455 658.999 778.75C655.544 779.068 652.442 780.227 652.442 784.125C652.442 787.58 654.908 789.33 658.237 789.33ZM659.624 785.989C658.135 785.989 657.067 785.295 657.067 783.966C657.067 782.602 658.192 781.932 659.896 781.693C660.953 781.545 662.68 781.295 663.26 780.909V782.761C663.26 784.591 661.749 785.989 659.624 785.989ZM671.822 789H676.663V779.125C676.663 776.977 678.232 775.5 680.368 775.5C681.038 775.5 681.959 775.614 682.413 775.761V771.466C681.982 771.364 681.379 771.295 680.891 771.295C678.936 771.295 677.334 772.432 676.697 774.591H676.516V771.545H671.822V789ZM689.393 789.33C691.973 789.33 693.643 788.205 694.496 786.58H694.632V789H699.223V777.227C699.223 773.068 695.7 771.318 691.814 771.318C687.632 771.318 684.882 773.318 684.212 776.5L688.689 776.864C689.018 775.705 690.053 774.852 691.791 774.852C693.439 774.852 694.382 775.682 694.382 777.114V777.182C694.382 778.307 693.189 778.455 690.155 778.75C686.7 779.068 683.598 780.227 683.598 784.125C683.598 787.58 686.064 789.33 689.393 789.33ZM690.78 785.989C689.291 785.989 688.223 785.295 688.223 783.966C688.223 782.602 689.348 781.932 691.053 781.693C692.109 781.545 693.837 781.295 694.416 780.909V782.761C694.416 784.591 692.905 785.989 690.78 785.989ZM707.82 778.909C707.831 776.659 709.172 775.341 711.126 775.341C713.07 775.341 714.24 776.614 714.229 778.75V789H719.07V777.886C719.07 773.818 716.683 771.318 713.047 771.318C710.456 771.318 708.581 772.591 707.797 774.625H707.592V771.545H702.979V789H707.82V778.909ZM732.169 771.545H728.885V767.364H724.044V771.545H721.658V775.182H724.044V784.273C724.021 787.693 726.351 789.386 729.862 789.239C731.112 789.193 731.999 788.943 732.487 788.784L731.726 785.182C731.487 785.227 730.976 785.341 730.521 785.341C729.555 785.341 728.885 784.977 728.885 783.636V775.182H732.169V771.545ZM743.021 789.341C748.317 789.341 751.612 785.716 751.612 780.341C751.612 774.932 748.317 771.318 743.021 771.318C737.726 771.318 734.43 774.932 734.43 780.341C734.43 785.716 737.726 789.341 743.021 789.341ZM743.044 785.591C740.601 785.591 739.351 783.352 739.351 780.307C739.351 777.261 740.601 775.011 743.044 775.011C745.442 775.011 746.692 777.261 746.692 780.307C746.692 783.352 745.442 785.591 743.044 785.591ZM754.76 789H759.601V779.125C759.601 776.977 761.169 775.5 763.305 775.5C763.976 775.5 764.896 775.614 765.351 775.761V771.466C764.919 771.364 764.317 771.295 763.828 771.295C761.874 771.295 760.271 772.432 759.635 774.591H759.453V771.545H754.76V789Z" fill="#001540"/>
<rect x="272" y="322" width="219" height="54" fill="#5279DF"/>
<path d="M521 349.404L487 394.404L487 305L521 349.404Z" fill="#5279DF"/>
<path d="M315.188 339.545H311.719L307.398 342.281V345.554L311.396 343.048H311.498V357H315.188V339.545ZM320.579 357.222C321.67 357.222 322.616 356.31 322.624 355.176C322.616 354.06 321.67 353.148 320.579 353.148C319.454 353.148 318.525 354.06 318.533 355.176C318.525 356.31 319.454 357.222 320.579 357.222ZM333.416 357L334.712 353.02H341.01L342.305 357H346.26L340.243 339.545H335.487L329.462 357H333.416ZM335.649 350.139L337.797 343.534H337.933L340.081 350.139H335.649ZM348.293 361.909H351.923V354.903H352.034C352.537 355.994 353.636 357.213 355.75 357.213C358.733 357.213 361.06 354.852 361.06 350.472C361.06 345.972 358.631 343.739 355.759 343.739C353.568 343.739 352.52 345.043 352.034 346.108H351.872V343.909H348.293V361.909ZM351.847 350.455C351.847 348.119 352.835 346.628 354.599 346.628C356.398 346.628 357.352 348.188 357.352 350.455C357.352 352.739 356.381 354.324 354.599 354.324C352.852 354.324 351.847 352.79 351.847 350.455ZM363.48 361.909H367.111V354.903H367.222C367.724 355.994 368.824 357.213 370.938 357.213C373.92 357.213 376.247 354.852 376.247 350.472C376.247 345.972 373.818 343.739 370.946 343.739C368.756 343.739 367.707 345.043 367.222 346.108H367.06V343.909H363.48V361.909ZM367.034 350.455C367.034 348.119 368.023 346.628 369.787 346.628C371.585 346.628 372.54 348.188 372.54 350.455C372.54 352.739 371.568 354.324 369.787 354.324C368.04 354.324 367.034 352.79 367.034 350.455ZM382.298 339.545H378.668V357H382.298V339.545ZM385.207 357H388.837V343.909H385.207V357ZM387.031 342.222C388.113 342.222 388.999 341.395 388.999 340.381C388.999 339.375 388.113 338.548 387.031 338.548C385.957 338.548 385.07 339.375 385.07 340.381C385.07 341.395 385.957 342.222 387.031 342.222ZM397.661 357.256C401.146 357.256 403.337 355.21 403.507 352.202H400.081C399.868 353.599 398.947 354.384 397.703 354.384C396.007 354.384 394.908 352.96 394.908 350.455C394.908 347.983 396.016 346.568 397.703 346.568C399.033 346.568 399.885 347.446 400.081 348.75H403.507C403.354 345.724 401.061 343.739 397.643 343.739C393.672 343.739 391.217 346.491 391.217 350.506C391.217 354.486 393.629 357.256 397.661 357.256ZM409.565 357.247C411.499 357.247 412.752 356.403 413.391 355.185H413.494V357H416.937V348.17C416.937 345.051 414.295 343.739 411.38 343.739C408.244 343.739 406.181 345.239 405.678 347.625L409.036 347.898C409.283 347.028 410.059 346.389 411.363 346.389C412.599 346.389 413.306 347.011 413.306 348.085V348.136C413.306 348.98 412.411 349.091 410.136 349.312C407.545 349.551 405.218 350.42 405.218 353.344C405.218 355.935 407.067 357.247 409.565 357.247ZM410.604 354.741C409.488 354.741 408.687 354.222 408.687 353.224C408.687 352.202 409.531 351.699 410.809 351.52C411.602 351.409 412.897 351.222 413.332 350.932V352.321C413.332 353.693 412.198 354.741 410.604 354.741ZM426.717 343.909H424.254V340.773H420.623V343.909H418.833V346.636H420.623V353.455C420.606 356.02 422.353 357.29 424.987 357.179C425.924 357.145 426.589 356.957 426.955 356.838L426.384 354.136C426.205 354.17 425.822 354.256 425.481 354.256C424.756 354.256 424.254 353.983 424.254 352.977V346.636H426.717V343.909ZM429.082 357H432.712V343.909H429.082V357ZM430.906 342.222C431.988 342.222 432.874 341.395 432.874 340.381C432.874 339.375 431.988 338.548 430.906 338.548C429.832 338.548 428.945 339.375 428.945 340.381C428.945 341.395 429.832 342.222 430.906 342.222ZM441.536 357.256C445.507 357.256 447.979 354.537 447.979 350.506C447.979 346.449 445.507 343.739 441.536 343.739C437.564 343.739 435.092 346.449 435.092 350.506C435.092 354.537 437.564 357.256 441.536 357.256ZM441.553 354.443C439.72 354.443 438.783 352.764 438.783 350.48C438.783 348.196 439.72 346.509 441.553 346.509C443.351 346.509 444.288 348.196 444.288 350.48C444.288 352.764 443.351 354.443 441.553 354.443ZM453.97 349.432C453.979 347.744 454.984 346.756 456.45 346.756C457.908 346.756 458.786 347.71 458.777 349.312V357H462.408V348.665C462.408 345.614 460.618 343.739 457.891 343.739C455.947 343.739 454.541 344.693 453.953 346.219H453.8V343.909H450.339V357H453.97V349.432Z" fill="white"/>
<rect x="272" y="424" width="219" height="54" fill="#5279DF"/>
<path d="M521 451.404L487 496.404L487 407L521 451.404Z" fill="#5279DF"/>
<path d="M297.964 459.239C301.885 459.239 304.689 457.082 304.68 454.099C304.689 451.926 303.308 450.375 300.743 450.051V449.915C302.694 449.565 304.041 448.185 304.032 446.224C304.041 443.472 301.629 441.307 298.015 441.307C294.436 441.307 291.743 443.403 291.691 446.42H295.228C295.271 445.091 296.49 444.23 297.998 444.23C299.49 444.23 300.487 445.134 300.478 446.446C300.487 447.818 299.319 448.747 297.64 448.747H296.012V451.457H297.64C299.618 451.457 300.853 452.446 300.845 453.852C300.853 455.241 299.66 456.196 297.973 456.196C296.345 456.196 295.126 455.344 295.058 454.065H291.342C291.402 457.116 294.129 459.239 297.964 459.239ZM308.997 459.222C310.088 459.222 311.034 458.31 311.042 457.176C311.034 456.06 310.088 455.148 308.997 455.148C307.872 455.148 306.943 456.06 306.951 457.176C306.943 458.31 307.872 459.222 308.997 459.222ZM318.826 459H322.516V453.341H325.618C329.632 453.341 331.968 450.946 331.968 447.46C331.968 443.991 329.675 441.545 325.712 441.545H318.826V459ZM322.516 450.384V444.562H325.005C327.135 444.562 328.167 445.722 328.167 447.46C328.167 449.19 327.135 450.384 325.022 450.384H322.516ZM340 459.256C343.972 459.256 346.444 456.537 346.444 452.506C346.444 448.449 343.972 445.739 340 445.739C336.029 445.739 333.557 448.449 333.557 452.506C333.557 456.537 336.029 459.256 340 459.256ZM340.017 456.443C338.185 456.443 337.248 454.764 337.248 452.48C337.248 450.196 338.185 448.509 340.017 448.509C341.816 448.509 342.753 450.196 342.753 452.48C342.753 454.764 341.816 456.443 340.017 456.443ZM359.696 449.642C359.373 447.23 357.429 445.739 354.123 445.739C350.773 445.739 348.566 447.29 348.574 449.812C348.566 451.773 349.801 453.043 352.358 453.554L354.625 454.006C355.767 454.236 356.287 454.653 356.304 455.31C356.287 456.085 355.444 456.639 354.174 456.639C352.878 456.639 352.017 456.085 351.796 455.02L348.225 455.207C348.566 457.713 350.696 459.256 354.165 459.256C357.557 459.256 359.986 457.526 359.995 454.943C359.986 453.051 358.75 451.918 356.211 451.398L353.841 450.92C352.623 450.656 352.171 450.239 352.179 449.608C352.171 448.824 353.057 448.312 354.182 448.312C355.444 448.312 356.194 449.003 356.373 449.847L359.696 449.642ZM369.244 445.909H366.781V442.773H363.15V445.909H361.36V448.636H363.15V455.455C363.133 458.02 364.88 459.29 367.514 459.179C368.451 459.145 369.116 458.957 369.483 458.838L368.912 456.136C368.733 456.17 368.349 456.256 368.008 456.256C367.284 456.256 366.781 455.983 366.781 454.977V448.636H369.244V445.909ZM379.367 450.392H371.407V453.273H379.367V450.392ZM386.219 441.545H382.529V459H386.219V441.545ZM400.079 449.642C399.755 447.23 397.812 445.739 394.505 445.739C391.156 445.739 388.949 447.29 388.957 449.812C388.949 451.773 390.184 453.043 392.741 453.554L395.008 454.006C396.15 454.236 396.67 454.653 396.687 455.31C396.67 456.085 395.826 456.639 394.556 456.639C393.261 456.639 392.4 456.085 392.179 455.02L388.608 455.207C388.949 457.713 391.079 459.256 394.548 459.256C397.94 459.256 400.369 457.526 400.377 454.943C400.369 453.051 399.133 451.918 396.593 451.398L394.224 450.92C393.005 450.656 392.554 450.239 392.562 449.608C392.554 448.824 393.44 448.312 394.565 448.312C395.826 448.312 396.576 449.003 396.755 449.847L400.079 449.642ZM413.556 449.642C413.232 447.23 411.289 445.739 407.982 445.739C404.632 445.739 402.425 447.29 402.434 449.812C402.425 451.773 403.661 453.043 406.218 453.554L408.485 454.006C409.627 454.236 410.147 454.653 410.164 455.31C410.147 456.085 409.303 456.639 408.033 456.639C406.738 456.639 405.877 456.085 405.655 455.02L402.084 455.207C402.425 457.713 404.556 459.256 408.025 459.256C411.417 459.256 413.846 457.526 413.854 454.943C413.846 453.051 412.61 451.918 410.07 451.398L407.701 450.92C406.482 450.656 406.03 450.239 406.039 449.608C406.03 448.824 406.917 448.312 408.042 448.312C409.303 448.312 410.053 449.003 410.232 449.847L413.556 449.642ZM424.535 453.426C424.544 455.182 423.342 456.102 422.038 456.102C420.666 456.102 419.779 455.139 419.771 453.597V445.909H416.14V454.244C416.149 457.304 417.939 459.17 420.572 459.17C422.541 459.17 423.956 458.156 424.544 456.622H424.68V459H428.166V445.909H424.535V453.426ZM434.803 459.247C436.738 459.247 437.99 458.403 438.63 457.185H438.732V459H442.175V450.17C442.175 447.051 439.533 445.739 436.618 445.739C433.482 445.739 431.419 447.239 430.917 449.625L434.275 449.898C434.522 449.028 435.297 448.389 436.601 448.389C437.837 448.389 438.544 449.011 438.544 450.085V450.136C438.544 450.98 437.65 451.091 435.374 451.312C432.783 451.551 430.456 452.42 430.456 455.344C430.456 457.935 432.306 459.247 434.803 459.247ZM435.843 456.741C434.726 456.741 433.925 456.222 433.925 455.224C433.925 454.202 434.769 453.699 436.047 453.52C436.84 453.409 438.135 453.222 438.57 452.932V454.321C438.57 455.693 437.436 456.741 435.843 456.741ZM448.623 451.432C448.631 449.744 449.637 448.756 451.103 448.756C452.56 448.756 453.438 449.71 453.429 451.312V459H457.06V450.665C457.06 447.614 455.27 445.739 452.543 445.739C450.6 445.739 449.194 446.693 448.605 448.219H448.452V445.909H444.992V459H448.623V451.432ZM465.836 459.256C469.322 459.256 471.512 457.21 471.683 454.202H468.257C468.044 455.599 467.123 456.384 465.879 456.384C464.183 456.384 463.083 454.96 463.083 452.455C463.083 449.983 464.191 448.568 465.879 448.568C467.208 448.568 468.061 449.446 468.257 450.75H471.683C471.529 447.724 469.237 445.739 465.819 445.739C461.848 445.739 459.393 448.491 459.393 452.506C459.393 456.486 461.805 459.256 465.836 459.256ZM479.973 459.256C483.212 459.256 485.394 457.679 485.905 455.25L482.547 455.028C482.181 456.026 481.243 456.545 480.033 456.545C478.218 456.545 477.067 455.344 477.067 453.392V453.384H485.982V452.386C485.982 447.938 483.289 445.739 479.828 445.739C475.976 445.739 473.479 448.474 473.479 452.514C473.479 456.665 475.942 459.256 479.973 459.256ZM477.067 451.134C477.144 449.642 478.277 448.449 479.888 448.449C481.465 448.449 482.556 449.574 482.564 451.134H477.067Z" fill="white"/>
<path d="M575 248H796V302H575V248Z" fill="#5279DF"/>
<path d="M595.514 280.932H603.892V284H607.42V280.932H609.585V277.974H607.42V266.545H602.801L595.514 278.026V280.932ZM603.96 277.974H599.23V277.838L603.824 270.568H603.96V277.974ZM613.872 284.222C614.963 284.222 615.909 283.31 615.917 282.176C615.909 281.06 614.963 280.148 613.872 280.148C612.747 280.148 611.818 281.06 611.826 282.176C611.818 283.31 612.747 284.222 613.872 284.222ZM633.169 271.565H636.706C636.655 268.455 634.098 266.307 630.212 266.307C626.385 266.307 623.581 268.42 623.598 271.591C623.59 274.165 625.405 275.639 628.354 276.347L630.255 276.824C632.155 277.284 633.212 277.83 633.221 279.006C633.212 280.284 632.002 281.153 630.127 281.153C628.209 281.153 626.828 280.267 626.709 278.52H623.138C623.232 282.295 625.934 284.247 630.169 284.247C634.431 284.247 636.936 282.21 636.945 279.014C636.936 276.108 634.746 274.565 631.712 273.884L630.144 273.509C628.627 273.159 627.357 272.597 627.382 271.344C627.382 270.219 628.38 269.392 630.186 269.392C631.951 269.392 633.033 270.193 633.169 271.565ZM643.092 284.247C645.027 284.247 646.279 283.403 646.919 282.185H647.021V284H650.464V275.17C650.464 272.051 647.822 270.739 644.907 270.739C641.771 270.739 639.708 272.239 639.206 274.625L642.564 274.898C642.811 274.028 643.586 273.389 644.89 273.389C646.126 273.389 646.833 274.011 646.833 275.085V275.136C646.833 275.98 645.939 276.091 643.663 276.312C641.072 276.551 638.745 277.42 638.745 280.344C638.745 282.935 640.595 284.247 643.092 284.247ZM644.132 281.741C643.015 281.741 642.214 281.222 642.214 280.224C642.214 279.202 643.058 278.699 644.336 278.52C645.129 278.409 646.424 278.222 646.859 277.932V279.321C646.859 280.693 645.725 281.741 644.132 281.741ZM660.321 270.909H657.721V270.031C657.721 269.145 658.079 268.625 659.145 268.625C659.579 268.625 660.022 268.719 660.312 268.812L660.951 266.085C660.5 265.949 659.502 265.727 658.386 265.727C655.923 265.727 654.091 267.116 654.091 269.963V270.909H652.241V273.636H654.091V284H657.721V273.636H660.321V270.909ZM668.036 284.256C671.275 284.256 673.456 282.679 673.968 280.25L670.61 280.028C670.243 281.026 669.306 281.545 668.096 281.545C666.28 281.545 665.13 280.344 665.13 278.392V278.384H674.044V277.386C674.044 272.938 671.351 270.739 667.891 270.739C664.039 270.739 661.542 273.474 661.542 277.514C661.542 281.665 664.005 284.256 668.036 284.256ZM665.13 276.134C665.206 274.642 666.34 273.449 667.951 273.449C669.527 273.449 670.618 274.574 670.627 276.134H665.13ZM682.037 284H685.727V279.04L687.542 276.824L692.324 284H696.738L690.184 274.361L696.662 266.545H692.238L685.957 274.241H685.727V266.545H682.037V284ZM703.52 284.256C706.759 284.256 708.941 282.679 709.452 280.25L706.094 280.028C705.728 281.026 704.79 281.545 703.58 281.545C701.765 281.545 700.614 280.344 700.614 278.392V278.384H709.529V277.386C709.529 272.938 706.836 270.739 703.375 270.739C699.523 270.739 697.026 273.474 697.026 277.514C697.026 281.665 699.489 284.256 703.52 284.256ZM700.614 276.134C700.691 274.642 701.824 273.449 703.435 273.449C705.012 273.449 706.103 274.574 706.111 276.134H700.614ZM717.864 284.256C721.103 284.256 723.284 282.679 723.796 280.25L720.438 280.028C720.071 281.026 719.134 281.545 717.924 281.545C716.108 281.545 714.958 280.344 714.958 278.392V278.384H723.873V277.386C723.873 272.938 721.179 270.739 717.719 270.739C713.867 270.739 711.37 273.474 711.37 277.514C711.37 281.665 713.833 284.256 717.864 284.256ZM714.958 276.134C715.034 274.642 716.168 273.449 717.779 273.449C719.355 273.449 720.446 274.574 720.455 276.134H714.958ZM726.242 288.909H729.873V281.903H729.983C730.486 282.994 731.586 284.213 733.699 284.213C736.682 284.213 739.009 281.852 739.009 277.472C739.009 272.972 736.58 270.739 733.708 270.739C731.517 270.739 730.469 272.043 729.983 273.108H729.821V270.909H726.242V288.909ZM729.796 277.455C729.796 275.119 730.784 273.628 732.549 273.628C734.347 273.628 735.301 275.188 735.301 277.455C735.301 279.739 734.33 281.324 732.549 281.324C730.801 281.324 729.796 279.79 729.796 277.455ZM741.429 284H745.06V270.909H741.429V284ZM743.253 269.222C744.336 269.222 745.222 268.395 745.222 267.381C745.222 266.375 744.336 265.548 743.253 265.548C742.179 265.548 741.293 266.375 741.293 267.381C741.293 268.395 742.179 269.222 743.253 269.222ZM751.599 276.432C751.608 274.744 752.613 273.756 754.079 273.756C755.537 273.756 756.414 274.71 756.406 276.312V284H760.037V275.665C760.037 272.614 758.247 270.739 755.52 270.739C753.576 270.739 752.17 271.693 751.582 273.219H751.429V270.909H747.968V284H751.599V276.432ZM768.796 289.182C772.537 289.182 775.196 287.477 775.196 284.128V270.909H771.591V273.108H771.455C770.969 272.043 769.904 270.739 767.713 270.739C764.841 270.739 762.412 272.972 762.412 277.429C762.412 281.784 764.773 283.812 767.722 283.812C769.81 283.812 770.978 282.764 771.455 281.682H771.608V284.077C771.608 285.875 770.458 286.574 768.881 286.574C767.279 286.574 766.469 285.875 766.171 285.082L762.813 285.534C763.248 287.597 765.267 289.182 768.796 289.182ZM768.873 281.085C767.091 281.085 766.12 279.67 766.12 277.412C766.12 275.188 767.074 273.628 768.873 273.628C770.637 273.628 771.625 275.119 771.625 277.412C771.625 279.722 770.62 281.085 768.873 281.085Z" fill="white"/>
<rect x="589" y="493" width="194" height="54" fill="#5279DF"/>
<path d="M621.469 529H633.913V525.983H626.583V525.864L629.131 523.366C632.719 520.094 633.683 518.457 633.683 516.472C633.683 513.446 631.211 511.307 627.469 511.307C623.805 511.307 621.29 513.497 621.299 516.923H624.802C624.793 515.253 625.85 514.23 627.444 514.23C628.978 514.23 630.12 515.185 630.12 516.719C630.12 518.108 629.268 519.062 627.683 520.588L621.469 526.341V529ZM638.743 529.222C639.834 529.222 640.78 528.31 640.788 527.176C640.78 526.06 639.834 525.148 638.743 525.148C637.618 525.148 636.689 526.06 636.697 527.176C636.689 528.31 637.618 529.222 638.743 529.222ZM652.262 511.545H648.572V529H652.262V511.545ZM666.122 519.642C665.798 517.23 663.855 515.739 660.548 515.739C657.199 515.739 654.991 517.29 655 519.812C654.991 521.773 656.227 523.043 658.784 523.554L661.051 524.006C662.193 524.236 662.713 524.653 662.73 525.31C662.713 526.085 661.869 526.639 660.599 526.639C659.304 526.639 658.443 526.085 658.222 525.02L654.651 525.207C654.991 527.713 657.122 529.256 660.591 529.256C663.983 529.256 666.412 527.526 666.42 524.943C666.412 523.051 665.176 521.918 662.636 521.398L660.267 520.92C659.048 520.656 658.597 520.239 658.605 519.608C658.597 518.824 659.483 518.312 660.608 518.312C661.869 518.312 662.619 519.003 662.798 519.847L666.122 519.642ZM679.599 519.642C679.275 517.23 677.332 515.739 674.025 515.739C670.675 515.739 668.468 517.29 668.477 519.812C668.468 521.773 669.704 523.043 672.261 523.554L674.528 524.006C675.67 524.236 676.19 524.653 676.207 525.31C676.19 526.085 675.346 526.639 674.076 526.639C672.781 526.639 671.92 526.085 671.698 525.02L668.127 525.207C668.468 527.713 670.599 529.256 674.067 529.256C677.46 529.256 679.888 527.526 679.897 524.943C679.888 523.051 678.653 521.918 676.113 521.398L673.744 520.92C672.525 520.656 672.073 520.239 672.082 519.608C672.073 518.824 672.96 518.312 674.085 518.312C675.346 518.312 676.096 519.003 676.275 519.847L679.599 519.642ZM690.578 523.426C690.587 525.182 689.385 526.102 688.081 526.102C686.709 526.102 685.822 525.139 685.814 523.597V515.909H682.183V524.244C682.192 527.304 683.982 529.17 686.615 529.17C688.584 529.17 689.999 528.156 690.587 526.622H690.723V529H694.209V515.909H690.578V523.426ZM700.846 529.247C702.781 529.247 704.033 528.403 704.673 527.185H704.775V529H708.218V520.17C708.218 517.051 705.576 515.739 702.661 515.739C699.525 515.739 697.462 517.239 696.96 519.625L700.317 519.898C700.565 519.028 701.34 518.389 702.644 518.389C703.88 518.389 704.587 519.011 704.587 520.085V520.136C704.587 520.98 703.692 521.091 701.417 521.312C698.826 521.551 696.499 522.42 696.499 525.344C696.499 527.935 698.349 529.247 700.846 529.247ZM701.886 526.741C700.769 526.741 699.968 526.222 699.968 525.224C699.968 524.202 700.812 523.699 702.09 523.52C702.883 523.409 704.178 523.222 704.613 522.932V524.321C704.613 525.693 703.479 526.741 701.886 526.741ZM714.665 521.432C714.674 519.744 715.68 518.756 717.146 518.756C718.603 518.756 719.481 519.71 719.472 521.312V529H723.103V520.665C723.103 517.614 721.313 515.739 718.586 515.739C716.643 515.739 715.237 516.693 714.648 518.219H714.495V515.909H711.035V529H714.665V521.432ZM731.879 529.256C735.365 529.256 737.555 527.21 737.726 524.202H734.3C734.087 525.599 733.166 526.384 731.922 526.384C730.226 526.384 729.126 524.96 729.126 522.455C729.126 519.983 730.234 518.568 731.922 518.568C733.251 518.568 734.104 519.446 734.3 520.75H737.726C737.572 517.724 735.28 515.739 731.862 515.739C727.891 515.739 725.436 518.491 725.436 522.506C725.436 526.486 727.848 529.256 731.879 529.256ZM746.016 529.256C749.255 529.256 751.437 527.679 751.948 525.25L748.59 525.028C748.224 526.026 747.286 526.545 746.076 526.545C744.261 526.545 743.11 525.344 743.11 523.392V523.384H752.025V522.386C752.025 517.938 749.332 515.739 745.871 515.739C742.019 515.739 739.522 518.474 739.522 522.514C739.522 526.665 741.985 529.256 746.016 529.256ZM743.11 521.134C743.187 519.642 744.32 518.449 745.931 518.449C747.508 518.449 748.599 519.574 748.607 521.134H743.11Z" fill="white"/>
<rect x="1052" y="281" width="320" height="240" rx="4" fill="#B6CEFF"/>
<path d="M1125.12 413H1135.06C1140.29 413 1143.07 410.273 1143.07 406.568C1143.07 403.125 1140.61 401.045 1137.96 400.92V400.693C1140.38 400.148 1142.16 398.432 1142.16 395.693C1142.16 392.205 1139.57 389.727 1134.43 389.727H1125.12V413ZM1130.04 408.977V402.795H1134.16C1136.53 402.795 1137.99 404.159 1137.99 406.08C1137.99 407.83 1136.8 408.977 1134.05 408.977H1130.04ZM1130.04 399.466V393.705H1133.78C1135.96 393.705 1137.2 394.83 1137.2 396.511C1137.2 398.352 1135.7 399.466 1133.68 399.466H1130.04ZM1154.14 413.341C1158.45 413.341 1161.36 411.239 1162.05 408L1157.57 407.705C1157.08 409.034 1155.83 409.727 1154.22 409.727C1151.8 409.727 1150.26 408.125 1150.26 405.523V405.511H1162.15V404.182C1162.15 398.25 1158.56 395.318 1153.94 395.318C1148.81 395.318 1145.48 398.966 1145.48 404.352C1145.48 409.886 1148.76 413.341 1154.14 413.341ZM1150.26 402.511C1150.36 400.523 1151.88 398.932 1154.02 398.932C1156.12 398.932 1157.58 400.432 1157.59 402.511H1150.26ZM1170.15 402.909C1170.16 400.659 1171.5 399.341 1173.45 399.341C1175.4 399.341 1176.57 400.614 1176.56 402.75V413H1181.4V401.886C1181.4 397.818 1179.01 395.318 1175.38 395.318C1172.78 395.318 1170.91 396.591 1170.12 398.625H1169.92V395.545H1165.31V413H1170.15V402.909ZM1193.17 413.341C1197.49 413.341 1200.39 411.239 1201.08 408L1196.6 407.705C1196.11 409.034 1194.86 409.727 1193.25 409.727C1190.83 409.727 1189.29 408.125 1189.29 405.523V405.511H1201.18V404.182C1201.18 398.25 1197.59 395.318 1192.97 395.318C1187.84 395.318 1184.51 398.966 1184.51 404.352C1184.51 409.886 1187.79 413.341 1193.17 413.341ZM1189.29 402.511C1189.39 400.523 1190.91 398.932 1193.05 398.932C1195.16 398.932 1196.61 400.432 1196.62 402.511H1189.29ZM1213.72 395.545H1210.26V394.375C1210.26 393.193 1210.74 392.5 1212.16 392.5C1212.74 392.5 1213.33 392.625 1213.71 392.75L1214.57 389.114C1213.96 388.932 1212.63 388.636 1211.14 388.636C1207.86 388.636 1205.42 390.489 1205.42 394.284V395.545H1202.95V399.182H1205.42V413H1210.26V399.182H1213.72V395.545ZM1216.68 413H1221.52V395.545H1216.68V413ZM1219.11 393.295C1220.56 393.295 1221.74 392.193 1221.74 390.841C1221.74 389.5 1220.56 388.398 1219.11 388.398C1217.68 388.398 1216.5 389.5 1216.5 390.841C1216.5 392.193 1217.68 393.295 1219.11 393.295ZM1233.29 413.341C1237.93 413.341 1240.86 410.614 1241.08 406.602H1236.51C1236.23 408.466 1235 409.511 1233.34 409.511C1231.08 409.511 1229.62 407.614 1229.62 404.273C1229.62 400.977 1231.09 399.091 1233.34 399.091C1235.12 399.091 1236.25 400.261 1236.51 402H1241.08C1240.88 397.966 1237.82 395.318 1233.26 395.318C1227.97 395.318 1224.7 398.989 1224.7 404.341C1224.7 409.648 1227.91 413.341 1233.29 413.341ZM1244.18 413H1249.02V395.545H1244.18V413ZM1246.61 393.295C1248.06 393.295 1249.24 392.193 1249.24 390.841C1249.24 389.5 1248.06 388.398 1246.61 388.398C1245.18 388.398 1244 389.5 1244 390.841C1244 392.193 1245.18 393.295 1246.61 393.295ZM1257.88 413.33C1260.46 413.33 1262.13 412.205 1262.98 410.58H1263.12V413H1267.71V401.227C1267.71 397.068 1264.18 395.318 1260.3 395.318C1256.12 395.318 1253.37 397.318 1252.7 400.5L1257.17 400.864C1257.5 399.705 1258.54 398.852 1260.28 398.852C1261.92 398.852 1262.87 399.682 1262.87 401.114V401.182C1262.87 402.307 1261.67 402.455 1258.64 402.75C1255.18 403.068 1252.08 404.227 1252.08 408.125C1252.08 411.58 1254.55 413.33 1257.88 413.33ZM1259.26 409.989C1257.78 409.989 1256.71 409.295 1256.71 407.966C1256.71 406.602 1257.83 405.932 1259.54 405.693C1260.59 405.545 1262.32 405.295 1262.9 404.909V406.761C1262.9 408.591 1261.39 409.989 1259.26 409.989ZM1271.46 413H1276.3V403.125C1276.3 400.977 1277.87 399.5 1280.01 399.5C1280.68 399.5 1281.6 399.614 1282.05 399.761V395.466C1281.62 395.364 1281.02 395.295 1280.53 395.295C1278.58 395.295 1276.97 396.432 1276.34 398.591H1276.16V395.545H1271.46V413ZM1288.08 419.545C1291.68 419.545 1293.59 417.705 1294.58 414.886L1301.36 395.568L1296.24 395.545L1292.59 408.364H1292.41L1288.79 395.545H1283.7L1289.96 413.5L1289.68 414.239C1289.04 415.875 1287.83 415.955 1286.12 415.432L1285.03 419.045C1285.72 419.341 1286.85 419.545 1288.08 419.545Z" fill="#001540"/>
<g clip-path="url(#clip0)">
<path d="M685.498 346C697.508 346 708.613 350.365 717.364 357.306L722.312 353.745C723.359 353.048 724.627 353.034 725.572 353.624C726.598 354.168 727.141 355.314 727.08 356.461L727.805 377.282C727.681 379.266 725.58 380.656 723.761 379.878C715.565 377.277 701.868 372.712 702.578 372.937C701.492 372.514 700.707 371.549 700.586 370.463C700.465 369.316 701.009 368.23 701.914 367.566L706.561 364.488C700.3 360.458 692.741 358.271 685.498 358.271C681.492 358.271 677.595 358.899 673.905 360.056C674.397 358.07 674.089 355.582 672.791 353.477C671.589 351.527 669.708 350.146 667.565 349.527C673.176 347.41 679.209 346 685.498 346Z" fill="white"/>
<path d="M703.123 435.763C705.723 427.566 710.289 413.869 710.063 414.579C710.486 413.493 711.451 412.708 712.537 412.587C713.684 412.467 714.771 413.01 715.435 413.915L718.512 418.562C722.542 412.301 724.729 404.742 724.729 397.5C724.729 393.5 724.104 389.608 722.95 385.923C723.506 386.042 724.142 386.131 724.832 386.131C728.912 386.131 732.39 383.373 733.479 379.583C735.592 385.19 737 391.217 737 397.5C737 409.51 732.635 420.614 725.694 429.365L729.255 434.314C729.952 435.36 729.966 436.629 729.376 437.573C728.832 438.599 727.686 439.142 726.539 439.082L705.718 439.806C703.734 439.682 702.344 437.581 703.123 435.763Z" fill="white"/>
<path d="M643.194 417.716C643.319 415.732 645.419 414.342 647.238 415.121C655.434 417.721 669.132 422.287 668.421 422.062C669.508 422.484 670.292 423.45 670.413 424.536C670.534 425.683 669.991 426.769 669.086 427.433L664.438 430.511C670.699 434.54 678.258 436.727 685.501 436.727C689.507 436.727 693.405 436.1 697.095 434.943C696.603 436.93 696.913 439.42 698.211 441.525C699.411 443.473 701.292 444.854 703.434 445.472C697.823 447.588 691.79 448.999 685.501 448.999C673.491 448.999 662.386 444.633 653.635 437.693L648.687 441.254C647.64 441.951 646.372 441.965 645.427 441.374C644.402 440.831 643.858 439.684 643.919 438.538L643.194 417.716Z" fill="white"/>
<path d="M645.306 365.634L641.745 360.686C641.048 359.639 641.034 358.371 641.624 357.426C642.168 356.4 643.314 355.857 644.461 355.918L665.282 355.193C667.267 355.317 668.657 357.418 667.878 359.237C665.278 367.433 660.712 381.13 660.937 380.42C660.515 381.506 659.549 382.291 658.463 382.412C657.316 382.533 656.23 381.989 655.566 381.084L652.488 376.437C648.459 382.698 646.272 390.257 646.272 397.5C646.272 401.499 646.896 405.391 648.05 409.076C647.494 408.958 646.858 408.869 646.169 408.869C642.088 408.869 638.409 411.627 637.32 415.416C635.207 409.809 634 403.782 634 397.5C634 385.49 638.366 374.385 645.306 365.634Z" fill="white"/>
</g>
<rect width="220" height="54" transform="matrix(-1 0 0 1 1100 424)" fill="#5279DF"/>
<path d="M850 451.404L884 496.404L884 407L850 451.404Z" fill="#5279DF"/>
<path d="M887.964 460.239C891.885 460.239 894.689 458.082 894.68 455.099C894.689 452.926 893.308 451.375 890.743 451.051V450.915C892.694 450.565 894.041 449.185 894.032 447.224C894.041 444.472 891.629 442.307 888.015 442.307C884.436 442.307 881.743 444.403 881.691 447.42H885.228C885.271 446.091 886.49 445.23 887.998 445.23C889.49 445.23 890.487 446.134 890.478 447.446C890.487 448.818 889.319 449.747 887.64 449.747H886.012V452.457H887.64C889.618 452.457 890.853 453.446 890.845 454.852C890.853 456.241 889.66 457.196 887.973 457.196C886.345 457.196 885.126 456.344 885.058 455.065H881.342C881.402 458.116 884.129 460.239 887.964 460.239ZM898.997 460.222C900.088 460.222 901.034 459.31 901.042 458.176C901.034 457.06 900.088 456.148 898.997 456.148C897.872 456.148 896.943 457.06 896.951 458.176C896.943 459.31 897.872 460.222 898.997 460.222ZM908.826 460H912.516V454.341H915.618C919.632 454.341 921.968 451.946 921.968 448.46C921.968 444.991 919.675 442.545 915.712 442.545H908.826V460ZM912.516 451.384V445.562H915.005C917.135 445.562 918.167 446.722 918.167 448.46C918.167 450.19 917.135 451.384 915.022 451.384H912.516ZM930 460.256C933.972 460.256 936.444 457.537 936.444 453.506C936.444 449.449 933.972 446.739 930 446.739C926.029 446.739 923.557 449.449 923.557 453.506C923.557 457.537 926.029 460.256 930 460.256ZM930.017 457.443C928.185 457.443 927.248 455.764 927.248 453.48C927.248 451.196 928.185 449.509 930.017 449.509C931.816 449.509 932.753 451.196 932.753 453.48C932.753 455.764 931.816 457.443 930.017 457.443ZM949.696 450.642C949.373 448.23 947.429 446.739 944.123 446.739C940.773 446.739 938.566 448.29 938.574 450.812C938.566 452.773 939.801 454.043 942.358 454.554L944.625 455.006C945.767 455.236 946.287 455.653 946.304 456.31C946.287 457.085 945.444 457.639 944.174 457.639C942.878 457.639 942.017 457.085 941.796 456.02L938.225 456.207C938.566 458.713 940.696 460.256 944.165 460.256C947.557 460.256 949.986 458.526 949.995 455.943C949.986 454.051 948.75 452.918 946.211 452.398L943.841 451.92C942.623 451.656 942.171 451.239 942.179 450.608C942.171 449.824 943.057 449.312 944.182 449.312C945.444 449.312 946.194 450.003 946.373 450.847L949.696 450.642ZM959.244 446.909H956.781V443.773H953.15V446.909H951.36V449.636H953.15V456.455C953.133 459.02 954.88 460.29 957.514 460.179C958.451 460.145 959.116 459.957 959.483 459.838L958.912 457.136C958.733 457.17 958.349 457.256 958.008 457.256C957.284 457.256 956.781 456.983 956.781 455.977V449.636H959.244V446.909ZM969.367 451.392H961.407V454.273H969.367V451.392ZM976.219 442.545H972.529V460H976.219V442.545ZM990.079 450.642C989.755 448.23 987.812 446.739 984.505 446.739C981.156 446.739 978.949 448.29 978.957 450.812C978.949 452.773 980.184 454.043 982.741 454.554L985.008 455.006C986.15 455.236 986.67 455.653 986.687 456.31C986.67 457.085 985.826 457.639 984.556 457.639C983.261 457.639 982.4 457.085 982.179 456.02L978.608 456.207C978.949 458.713 981.079 460.256 984.548 460.256C987.94 460.256 990.369 458.526 990.377 455.943C990.369 454.051 989.133 452.918 986.593 452.398L984.224 451.92C983.005 451.656 982.554 451.239 982.562 450.608C982.554 449.824 983.44 449.312 984.565 449.312C985.826 449.312 986.576 450.003 986.755 450.847L990.079 450.642ZM1003.56 450.642C1003.23 448.23 1001.29 446.739 997.982 446.739C994.632 446.739 992.425 448.29 992.434 450.812C992.425 452.773 993.661 454.043 996.218 454.554L998.485 455.006C999.627 455.236 1000.15 455.653 1000.16 456.31C1000.15 457.085 999.303 457.639 998.033 457.639C996.738 457.639 995.877 457.085 995.655 456.02L992.084 456.207C992.425 458.713 994.556 460.256 998.025 460.256C1001.42 460.256 1003.85 458.526 1003.85 455.943C1003.85 454.051 1002.61 452.918 1000.07 452.398L997.701 451.92C996.482 451.656 996.03 451.239 996.039 450.608C996.03 449.824 996.917 449.312 998.042 449.312C999.303 449.312 1000.05 450.003 1000.23 450.847L1003.56 450.642ZM1014.54 454.426C1014.54 456.182 1013.34 457.102 1012.04 457.102C1010.67 457.102 1009.78 456.139 1009.77 454.597V446.909H1006.14V455.244C1006.15 458.304 1007.94 460.17 1010.57 460.17C1012.54 460.17 1013.96 459.156 1014.54 457.622H1014.68V460H1018.17V446.909H1014.54V454.426ZM1024.8 460.247C1026.74 460.247 1027.99 459.403 1028.63 458.185H1028.73V460H1032.18V451.17C1032.18 448.051 1029.53 446.739 1026.62 446.739C1023.48 446.739 1021.42 448.239 1020.92 450.625L1024.27 450.898C1024.52 450.028 1025.3 449.389 1026.6 449.389C1027.84 449.389 1028.54 450.011 1028.54 451.085V451.136C1028.54 451.98 1027.65 452.091 1025.37 452.312C1022.78 452.551 1020.46 453.42 1020.46 456.344C1020.46 458.935 1022.31 460.247 1024.8 460.247ZM1025.84 457.741C1024.73 457.741 1023.93 457.222 1023.93 456.224C1023.93 455.202 1024.77 454.699 1026.05 454.52C1026.84 454.409 1028.14 454.222 1028.57 453.932V455.321C1028.57 456.693 1027.44 457.741 1025.84 457.741ZM1038.62 452.432C1038.63 450.744 1039.64 449.756 1041.1 449.756C1042.56 449.756 1043.44 450.71 1043.43 452.312V460H1047.06V451.665C1047.06 448.614 1045.27 446.739 1042.54 446.739C1040.6 446.739 1039.19 447.693 1038.61 449.219H1038.45V446.909H1034.99V460H1038.62V452.432ZM1055.84 460.256C1059.32 460.256 1061.51 458.21 1061.68 455.202H1058.26C1058.04 456.599 1057.12 457.384 1055.88 457.384C1054.18 457.384 1053.08 455.96 1053.08 453.455C1053.08 450.983 1054.19 449.568 1055.88 449.568C1057.21 449.568 1058.06 450.446 1058.26 451.75H1061.68C1061.53 448.724 1059.24 446.739 1055.82 446.739C1051.85 446.739 1049.39 449.491 1049.39 453.506C1049.39 457.486 1051.81 460.256 1055.84 460.256ZM1069.97 460.256C1073.21 460.256 1075.39 458.679 1075.91 456.25L1072.55 456.028C1072.18 457.026 1071.24 457.545 1070.03 457.545C1068.22 457.545 1067.07 456.344 1067.07 454.392V454.384H1075.98V453.386C1075.98 448.938 1073.29 446.739 1069.83 446.739C1065.98 446.739 1063.48 449.474 1063.48 453.514C1063.48 457.665 1065.94 460.256 1069.97 460.256ZM1067.07 452.134C1067.14 450.642 1068.28 449.449 1069.89 449.449C1071.46 449.449 1072.56 450.574 1072.56 452.134H1067.07Z" fill="white"/>
<rect width="107" height="54" transform="matrix(4.37114e-08 -1 -1 -4.37114e-08 713 696)" fill="#5279DF"/>
<path d="M685.596 558L640.596 592L730 592L685.596 558Z" fill="#5279DF"/>
<defs>
<clipPath id="clip0">
<rect width="103" height="103" fill="white" transform="matrix(-1 0 0 1 737 346)"/>
</clipPath>
</defs>
</svg>
