<svg width="700" height="698" viewBox="0 0 700 698" fill="none" xmlns="http://www.w3.org/2000/svg">
<g clip-path="url(#clip0)">
<path d="M450.841 349.422C450.633 349.63 450.633 349.967 450.841 350.175L454.231 353.563C454.439 353.771 454.777 353.771 454.985 353.563C455.193 353.355 455.193 353.018 454.985 352.81L451.971 349.798L454.985 346.786C455.193 346.579 455.193 346.241 454.985 346.034C454.777 345.825 454.439 345.825 454.231 346.034L450.841 349.422ZM559.361 349.266H555.983V350.331H559.361V349.266ZM549.223 349.266H542.463V350.331H549.223V349.266ZM535.702 349.266H528.945V350.331H535.702V349.266ZM522.187 349.266H515.427V350.331H522.187V349.266ZM508.669 349.266H501.91V350.331H508.669V349.266ZM495.151 349.266H488.392V350.331H495.151V349.266ZM481.633 349.266H474.874V350.331H481.633V349.266ZM468.115 349.266H461.356V350.331H468.115V349.266ZM454.597 349.266H451.218V350.331H454.597V349.266ZM450.464 349.046C450.048 349.461 450.048 350.135 450.464 350.551L457.245 357.328C457.661 357.744 458.335 357.744 458.751 357.328C459.168 356.912 459.168 356.238 458.751 355.822L452.724 349.798L458.751 343.775C459.168 343.359 459.168 342.685 458.751 342.269C458.335 341.853 457.661 341.853 457.245 342.269L450.464 349.046ZM559.361 348.734H555.983V350.863H559.361V348.734ZM549.223 348.734H542.463V350.863H549.223V348.734ZM535.702 348.734H528.945V350.863H535.702V348.734ZM522.187 348.734H515.427V350.863H522.187V348.734ZM508.669 348.734H501.91V350.863H508.669V348.734ZM495.151 348.734H488.392V350.863H495.151V348.734ZM481.633 348.734H474.874V350.863H481.633V348.734ZM468.115 348.734H461.356V350.863H468.115V348.734ZM454.597 348.734H451.218V350.863H454.597V348.734Z" fill="#001540"/>
<path d="M350.111 448.452C349.903 448.244 349.566 448.244 349.358 448.452L345.968 451.84C345.759 452.048 345.759 452.385 345.968 452.593C346.175 452.801 346.513 452.801 346.721 452.593L349.735 449.581L352.748 452.593C352.956 452.801 353.294 452.801 353.501 452.593C353.71 452.385 353.71 452.048 353.501 451.84L350.111 448.452ZM350.267 556.909V553.534H349.202V556.909H350.267ZM350.267 546.777V540.021H349.202V546.777H350.267ZM350.267 533.265V526.511H349.202V533.265H350.267ZM350.267 519.757V513.001H349.202V519.757H350.267ZM350.267 506.246V499.491H349.202V506.246H350.267ZM350.267 492.736V485.981H349.202V492.736H350.267ZM350.267 479.226V472.471H349.202V479.226H350.267ZM350.267 465.716V458.961H349.202V465.716H350.267ZM350.267 452.206V448.828H349.202V452.206H350.267ZM350.488 448.076C350.072 447.66 349.397 447.66 348.981 448.076L342.201 454.852C341.785 455.268 341.785 455.942 342.201 456.358C342.617 456.774 343.291 456.774 343.707 456.358L349.735 450.334L355.762 456.358C356.178 456.774 356.852 456.774 357.268 456.358C357.684 455.942 357.684 455.268 357.268 454.852L350.488 448.076ZM350.8 556.909V553.534H348.669V556.909H350.8ZM350.8 546.777V540.021H348.669V546.777H350.8ZM350.8 533.265V526.511H348.669V533.265H350.8ZM350.8 519.757V513.001H348.669V519.757H350.8ZM350.8 506.246V499.491H348.669V506.246H350.8ZM350.8 492.736V485.981H348.669V492.736H350.8ZM350.8 479.226V472.471H348.669V479.226H350.8ZM350.8 465.716V458.961H348.669V465.716H350.8ZM350.8 452.206V448.828H348.669V452.206H350.8Z" fill="#001540"/>
<path d="M350.111 250.613C349.903 250.821 349.566 250.821 349.358 250.613L345.968 247.224C345.759 247.017 345.759 246.679 345.968 246.471C346.175 246.263 346.513 246.263 346.721 246.471L349.735 249.483L352.748 246.471C352.956 246.263 353.294 246.263 353.501 246.471C353.71 246.679 353.71 247.017 353.501 247.224L350.111 250.613ZM350.267 142.155V145.533H349.202V142.155H350.267ZM350.267 152.288V159.043H349.202V152.288H350.267ZM350.267 165.798V172.553H349.202V165.798H350.267ZM350.267 179.308V186.063H349.202V179.308H350.267ZM350.267 192.818V199.573H349.202V192.818H350.267ZM350.267 206.328V213.083H349.202V206.328H350.267ZM350.267 219.838V226.594H349.202V219.838H350.267ZM350.267 233.348V240.104H349.202V233.348H350.267ZM350.267 246.858V250.236H349.202V246.858H350.267ZM350.488 250.989C350.072 251.405 349.397 251.405 348.981 250.989L342.201 244.212C341.785 243.797 341.785 243.122 342.201 242.707C342.617 242.291 343.291 242.291 343.707 242.707L349.735 248.73L355.762 242.707C356.178 242.291 356.852 242.291 357.268 242.707C357.684 243.122 357.684 243.797 357.268 244.212L350.488 250.989ZM350.8 142.155V145.533H348.669V142.155H350.8ZM350.8 152.288V159.043H348.669V152.288H350.8ZM350.8 165.798V172.553H348.669V165.798H350.8ZM350.8 179.308V186.063H348.669V179.308H350.8ZM350.8 192.818V199.573H348.669V192.818H350.8ZM350.8 206.328V213.083H348.669V206.328H350.8ZM350.8 219.838V226.594H348.669V219.838H350.8ZM350.8 233.348V240.104H348.669V233.348H350.8ZM350.8 246.858V250.236H348.669V246.858H350.8Z" fill="#001540"/>
<path d="M419.786 421.143C419.492 421.143 419.253 421.381 419.253 421.675V426.467C419.253 426.761 419.492 426.999 419.786 426.999C420.081 426.999 420.319 426.761 420.319 426.467V422.208H424.581C424.875 422.208 425.113 421.97 425.113 421.675C425.113 421.381 424.875 421.143 424.581 421.143H419.786ZM496.632 497.724L494.242 495.335L493.489 496.088L495.878 498.477L496.632 497.724ZM489.463 490.559L484.684 485.782L483.93 486.535L488.71 491.312L489.463 490.559ZM479.904 481.006L475.125 476.229L474.371 476.982L479.151 481.759L479.904 481.006ZM470.345 471.453L465.566 466.676L464.813 467.429L469.592 472.205L470.345 471.453ZM460.787 461.899L456.008 457.123L455.254 457.876L460.033 462.652L460.787 461.899ZM451.229 452.346L446.449 447.57L445.696 448.323L450.475 453.1L451.229 452.346ZM441.67 442.794L436.89 438.017L436.137 438.77L440.917 443.546L441.67 442.794ZM432.111 433.24L427.332 428.464L426.578 429.217L431.358 433.993L432.111 433.24ZM422.553 423.687L420.163 421.299L419.41 422.052L421.799 424.44L422.553 423.687ZM419.786 420.61C419.198 420.61 418.721 421.087 418.721 421.675V431.259C418.721 431.847 419.198 432.324 419.786 432.324C420.375 432.324 420.852 431.847 420.852 431.259V422.74H429.375C429.964 422.74 430.441 422.264 430.441 421.675C430.441 421.087 429.964 420.61 429.375 420.61H419.786ZM497.008 497.347L494.619 494.959L493.112 496.464L495.502 498.853L497.008 497.347ZM489.839 490.182L485.06 485.406L483.553 486.912L488.333 491.688L489.839 490.182ZM480.281 480.629L475.502 475.852L473.995 477.359L478.774 482.135L480.281 480.629ZM470.722 471.076L465.943 466.3L464.436 467.805L469.216 472.582L470.722 471.076ZM461.164 461.523L456.384 456.747L454.878 458.252L459.657 463.029L461.164 461.523ZM451.605 451.97L446.826 447.193L445.319 448.699L450.098 453.476L451.605 451.97ZM442.047 442.417L437.267 437.64L435.76 439.146L440.539 443.923L442.047 442.417ZM432.488 432.864L427.709 428.087L426.202 429.593L430.981 434.37L432.488 432.864ZM422.929 423.311L420.539 420.922L419.033 422.429L421.423 424.816L422.929 423.311Z" fill="#001540"/>
<path d="M419.786 277.922C419.492 277.922 419.253 277.684 419.253 277.39V272.598C419.253 272.303 419.492 272.065 419.786 272.065C420.081 272.065 420.319 272.303 420.319 272.598V276.857H424.581C424.875 276.857 425.113 277.095 425.113 277.39C425.113 277.684 424.875 277.922 424.581 277.922H419.786ZM496.632 201.341L494.242 203.73L493.489 202.977L495.878 200.588L496.632 201.341ZM489.463 208.506L484.684 213.283L483.93 212.529L488.71 207.753L489.463 208.506ZM479.904 218.059L475.125 222.836L474.371 222.083L479.151 217.306L479.904 218.059ZM470.345 227.612L465.566 232.389L464.813 231.636L469.592 226.859L470.345 227.612ZM460.787 237.165L456.008 241.942L455.254 241.189L460.033 236.413L460.787 237.165ZM451.229 246.719L446.449 251.495L445.696 250.742L450.475 245.965L451.229 246.719ZM441.67 256.271L436.89 261.048L436.137 260.295L440.917 255.518L441.67 256.271ZM432.111 265.824L427.332 270.601L426.578 269.848L431.358 265.072L432.111 265.824ZM422.553 275.378L420.163 277.766L419.41 277.013L421.799 274.625L422.553 275.378ZM419.786 278.454C419.198 278.454 418.721 277.977 418.721 277.39V267.806C418.721 267.218 419.198 266.741 419.786 266.741C420.375 266.741 420.852 267.218 420.852 267.806V276.325H429.375C429.964 276.325 430.441 276.801 430.441 277.39C430.441 277.977 429.964 278.454 429.375 278.454H419.786ZM497.008 201.718L494.619 204.106L493.112 202.6L495.502 200.212L497.008 201.718ZM489.839 208.882L485.06 213.659L483.553 212.153L488.333 207.377L489.839 208.882ZM480.281 218.436L475.502 223.212L473.995 221.706L478.774 216.93L480.281 218.436ZM470.722 227.989L465.943 232.765L464.436 231.259L469.216 226.483L470.722 227.989ZM461.164 237.542L456.384 242.318L454.878 240.813L459.657 236.036L461.164 237.542ZM451.605 247.095L446.826 251.871L445.319 250.366L450.098 245.589L451.605 247.095ZM442.047 256.648L437.267 261.425L435.76 259.919L440.539 255.142L442.047 256.648ZM432.488 266.201L427.709 270.978L426.202 269.472L430.981 264.695L432.488 266.201ZM422.929 275.754L420.539 278.142L419.033 276.636L421.423 274.248L422.929 275.754Z" fill="#001540"/>
<path d="M281.568 421.143C281.862 421.143 282.101 421.381 282.101 421.675V426.467C282.101 426.761 281.862 426.999 281.568 426.999C281.273 426.999 281.035 426.761 281.035 426.467V422.208H276.773C276.479 422.208 276.241 421.97 276.241 421.675C276.241 421.381 276.479 421.143 276.773 421.143H281.568ZM204.722 497.724L207.112 495.335L207.865 496.088L205.476 498.477L204.722 497.724ZM211.891 490.559L216.67 485.782L217.424 486.535L212.644 491.312L211.891 490.559ZM221.45 481.006L226.229 476.229L226.982 476.982L222.203 481.759L221.45 481.006ZM231.009 471.453L235.788 466.676L236.541 467.429L231.762 472.205L231.009 471.453ZM240.567 461.899L245.346 457.123L246.1 457.876L241.321 462.652L240.567 461.899ZM250.125 452.346L254.905 447.57L255.658 448.323L250.879 453.1L250.125 452.346ZM259.684 442.794L264.464 438.017L265.217 438.77L260.437 443.546L259.684 442.794ZM269.243 433.24L274.022 428.464L274.776 429.217L269.996 433.993L269.243 433.24ZM278.801 423.687L281.191 421.299L281.944 422.052L279.555 424.44L278.801 423.687ZM281.568 420.61C282.156 420.61 282.633 421.087 282.633 421.675V431.259C282.633 431.847 282.156 432.324 281.568 432.324C280.979 432.324 280.502 431.847 280.502 431.259V422.74H271.979C271.39 422.74 270.913 422.264 270.913 421.675C270.913 421.087 271.39 420.61 271.979 420.61H281.568ZM204.346 497.347L206.735 494.959L208.242 496.464L205.852 498.853L204.346 497.347ZM211.515 490.182L216.294 485.406L217.801 486.912L213.021 491.688L211.515 490.182ZM221.073 480.629L225.852 475.852L227.359 477.359L222.58 482.135L221.073 480.629ZM230.632 471.076L235.411 466.3L236.918 467.805L232.138 472.582L230.632 471.076ZM240.19 461.523L244.97 456.747L246.476 458.252L241.697 463.029L240.19 461.523ZM249.749 451.97L254.528 447.193L256.035 448.699L251.256 453.476L249.749 451.97ZM259.307 442.417L264.087 437.64L265.594 439.146L260.814 443.923L259.307 442.417ZM268.866 432.864L273.645 428.087L275.152 429.593L270.373 434.37L268.866 432.864ZM278.425 423.311L280.814 420.922L282.321 422.429L279.931 424.816L278.425 423.311Z" fill="#001540"/>
<path d="M281.568 277.922C281.862 277.922 282.101 277.684 282.101 277.39V272.598C282.101 272.303 281.862 272.065 281.568 272.065C281.273 272.065 281.035 272.303 281.035 272.598V276.857H276.773C276.479 276.857 276.241 277.095 276.241 277.39C276.241 277.684 276.479 277.922 276.773 277.922H281.568ZM204.722 201.341L207.112 203.73L207.865 202.977L205.476 200.588L204.722 201.341ZM211.891 208.506L216.67 213.283L217.424 212.529L212.644 207.753L211.891 208.506ZM221.45 218.059L226.229 222.836L226.982 222.083L222.203 217.306L221.45 218.059ZM231.009 227.612L235.788 232.389L236.541 231.636L231.762 226.859L231.009 227.612ZM240.567 237.165L245.346 241.942L246.1 241.189L241.321 236.413L240.567 237.165ZM250.125 246.719L254.905 251.495L255.658 250.742L250.879 245.965L250.125 246.719ZM259.684 256.271L264.464 261.048L265.217 260.295L260.437 255.518L259.684 256.271ZM269.243 265.824L274.022 270.601L274.776 269.848L269.996 265.072L269.243 265.824ZM278.801 275.378L281.191 277.766L281.944 277.013L279.555 274.625L278.801 275.378ZM281.568 278.454C282.156 278.454 282.633 277.977 282.633 277.39V267.806C282.633 267.218 282.156 266.741 281.568 266.741C280.979 266.741 280.502 267.218 280.502 267.806V276.325H271.979C271.39 276.325 270.913 276.801 270.913 277.39C270.913 277.977 271.39 278.454 271.979 278.454H281.568ZM204.346 201.718L206.735 204.106L208.242 202.6L205.852 200.212L204.346 201.718ZM211.515 208.882L216.294 213.659L217.801 212.153L213.021 207.377L211.515 208.882ZM221.073 218.436L225.852 223.212L227.359 221.706L222.58 216.93L221.073 218.436ZM230.632 227.989L235.411 232.765L236.918 231.259L232.138 226.483L230.632 227.989ZM240.19 237.542L244.97 242.318L246.476 240.813L241.697 236.036L240.19 237.542ZM249.749 247.095L254.528 251.871L256.035 250.366L251.256 245.589L249.749 247.095ZM259.307 256.648L264.087 261.425L265.594 259.919L260.814 255.142L259.307 256.648ZM268.866 266.201L273.645 270.978L275.152 269.472L270.373 264.695L268.866 266.201ZM278.425 275.754L280.814 278.142L282.321 276.636L279.931 274.248L278.425 275.754Z" fill="#001540"/>
<path d="M251.289 349.422C251.498 349.63 251.498 349.967 251.289 350.175L247.899 353.563C247.691 353.771 247.353 353.771 247.146 353.563C246.937 353.355 246.937 353.018 247.146 352.81L250.159 349.798L247.146 346.786C246.937 346.579 246.937 346.241 247.146 346.034C247.353 345.825 247.691 345.825 247.899 346.034L251.289 349.422ZM142.77 349.266H146.149V350.331H142.77V349.266ZM152.908 349.266H159.667V350.331H152.908V349.266ZM166.426 349.266H173.185V350.331H166.426V349.266ZM179.944 349.266H186.703V350.331H179.944V349.266ZM193.461 349.266H200.221V350.331H193.461V349.266ZM206.979 349.266H213.739V350.331H206.979V349.266ZM220.497 349.266H227.256V350.331H220.497V349.266ZM234.015 349.266H240.774V350.331H234.015V349.266ZM247.533 349.266H250.913V350.331H247.533V349.266ZM251.666 349.046C252.082 349.461 252.082 350.135 251.666 350.551L244.885 357.328C244.469 357.744 243.795 357.744 243.379 357.328C242.963 356.912 242.963 356.238 243.379 355.822L249.406 349.798L243.379 343.775C242.963 343.359 242.963 342.685 243.379 342.269C243.795 341.853 244.469 341.853 244.885 342.269L251.666 349.046ZM142.77 348.734H146.149V350.863H142.77V348.734ZM152.908 348.734H159.667V350.863H152.908V348.734ZM166.426 348.734H173.185V350.863H166.426V348.734ZM179.944 348.734H186.703V350.863H179.944V348.734ZM193.461 348.734H200.221V350.863H193.461V348.734ZM206.979 348.734H213.739V350.863H206.979V348.734ZM220.497 348.734H227.256V350.863H220.497V348.734ZM234.015 348.734H240.774V350.863H234.015V348.734ZM247.533 348.734H250.913V350.863H247.533V348.734Z" fill="#001540"/>
<path d="M351.333 447.763C405.615 447.763 449.62 403.783 449.62 349.532C449.62 295.28 405.615 251.301 351.333 251.301C297.05 251.301 253.045 295.28 253.045 349.532C253.045 403.783 297.05 447.763 351.333 447.763Z" fill="#001540"/>
<path d="M351.066 437.648C388.725 437.648 419.254 407.136 419.254 369.498C419.254 331.86 388.725 301.349 351.066 301.349C313.406 301.349 282.877 331.86 282.877 369.498C282.877 407.136 313.406 437.648 351.066 437.648Z" fill="#001540" stroke="white" stroke-width="2" stroke-dasharray="8 8"/>
<path d="M603.044 389.198C625.11 389.198 642.998 371.32 642.998 349.266C642.998 327.213 625.11 309.335 603.044 309.335C580.978 309.335 563.09 327.213 563.09 349.266C563.09 371.32 580.978 389.198 603.044 389.198Z" fill="#B6CEFF" stroke="#001540" stroke-width="2" stroke-dasharray="8 8"/>
<path d="M574.773 352.994H576.18V350.377H577.661C579.451 350.377 580.415 349.303 580.415 347.813C580.415 346.335 579.461 345.25 577.682 345.25H574.773V352.994ZM576.18 349.223V346.421H577.464C578.518 346.421 578.982 346.989 578.982 347.813C578.982 348.637 578.518 349.223 577.474 349.223H576.18ZM581.63 352.994H586.445V351.817H583.036V345.25H581.63V352.994ZM588.955 352.994L589.594 351.084H592.508L593.147 352.994H594.649L591.916 345.25H590.18L587.452 352.994H588.955ZM589.972 349.957L591.016 346.838H591.08L592.13 349.957H589.972ZM594.388 346.425H596.786V352.994H598.176V346.425H600.573V345.25H594.388V346.425ZM601.767 352.994H603.168V349.704H606.391V348.528H603.168V346.425H606.726V345.25H601.767V352.994ZM614.93 349.121C614.93 346.618 613.401 345.144 611.372 345.144C609.337 345.144 607.813 346.618 607.813 349.121C607.813 351.621 609.337 353.099 611.372 353.099C613.401 353.099 614.93 351.625 614.93 349.121ZM613.519 349.121C613.519 350.884 612.634 351.84 611.372 351.84C610.109 351.84 609.225 350.884 609.225 349.121C609.225 347.359 610.109 346.403 611.372 346.403C612.634 346.403 613.519 347.359 613.519 349.121ZM616.257 352.994H617.663V350.157H619.091L620.614 352.994H622.181L620.503 349.923C621.414 349.556 621.898 348.777 621.898 347.726C621.898 346.248 620.945 345.25 619.165 345.25H616.257V352.994ZM617.663 348.993V346.421H618.947C619.996 346.421 620.465 346.902 620.465 347.726C620.465 348.55 619.996 348.993 618.958 348.993H617.663ZM623.188 345.25V352.994H624.535V347.662H624.605L626.746 352.971H627.753L629.894 347.673H629.969V352.994H631.317V345.25H629.596L627.295 350.861H627.204L624.908 345.25H623.188Z" fill="#001540"/>
<path d="M166.21 222.018C188.276 222.018 206.165 204.14 206.165 182.087C206.165 160.033 188.276 142.155 166.21 142.155C144.144 142.155 126.256 160.033 126.256 182.087C126.256 204.14 144.144 222.018 166.21 222.018Z" fill="#B6CEFF" stroke="#001540" stroke-width="2" stroke-dasharray="8 8"/>
<path d="M137.939 185.814H139.343V183.197H140.826C142.616 183.197 143.577 182.123 143.577 180.633C143.577 179.155 142.627 178.07 140.845 178.07H137.939V185.814ZM139.343 182.044V179.242H140.629C141.681 179.242 142.146 179.809 142.146 180.633C142.146 181.458 141.681 182.044 140.637 182.044H139.343ZM144.796 185.814H149.613V184.638H146.2V178.07H144.796V185.814ZM152.117 185.814L152.757 183.904H155.67L156.313 185.814H157.812L155.08 178.07H153.347L150.619 185.814H152.117ZM153.135 182.777L154.183 179.658H154.243L155.292 182.777H153.135ZM157.555 179.245H159.95V185.814H161.343V179.245H163.738V178.07H157.555V179.245ZM164.929 185.814H166.333V182.524H169.553V181.348H166.333V179.245H169.893V178.07H164.929V185.814ZM178.096 181.942C178.096 179.439 176.567 177.964 174.535 177.964C172.5 177.964 170.975 179.439 170.975 181.942C170.975 184.441 172.5 185.92 174.535 185.92C176.567 185.92 178.096 184.445 178.096 181.942ZM176.685 181.942C176.685 183.704 175.8 184.661 174.535 184.661C173.276 184.661 172.386 183.704 172.386 181.942C172.386 180.18 173.276 179.223 174.535 179.223C175.8 179.223 176.685 180.18 176.685 181.942ZM179.423 185.814H180.827V182.978H182.257L183.778 185.814H185.344L183.669 182.743C184.58 182.377 185.061 181.598 185.061 180.547C185.061 179.068 184.107 178.07 182.329 178.07H179.423V185.814ZM180.827 181.813V179.242H182.113C183.161 179.242 183.631 179.722 183.631 180.547C183.631 181.371 183.161 181.813 182.121 181.813H180.827ZM186.353 178.07V185.814H187.7V180.482H187.772L189.913 185.791H190.919L193.061 180.493H193.133V185.814H194.48V178.07H192.762L190.462 183.681H190.371L188.07 178.07H186.353Z" fill="#001540"/>
<path d="M172.07 567.025C194.136 567.025 212.024 549.147 212.024 527.093C212.024 505.04 194.136 487.162 172.07 487.162C150.003 487.162 132.115 505.04 132.115 527.093C132.115 549.147 150.003 567.025 172.07 567.025Z" fill="#B6CEFF" stroke="#001540" stroke-width="2" stroke-dasharray="8 8"/>
<path d="M143.801 530.821H145.204V528.204H146.688C148.477 528.204 149.438 527.13 149.438 525.64C149.438 524.162 148.488 523.077 146.706 523.077H143.801V530.821ZM145.204 527.051V524.249H146.49C147.543 524.249 148.008 524.816 148.008 525.64C148.008 526.464 147.543 527.051 146.498 527.051H145.204ZM150.657 530.821H155.474V529.645H152.061V523.077H150.657V530.821ZM157.979 530.821L158.618 528.911H161.531L162.174 530.821H163.673L160.941 523.077H159.208L156.48 530.821H157.979ZM158.996 527.784L160.045 524.665H160.105L161.153 527.784H158.996ZM163.416 524.252H165.811V530.821H167.204V524.252H169.599V523.077H163.416V524.252ZM170.791 530.821H172.194V527.531H175.414V526.355H172.194V524.252H175.755V523.077H170.791V530.821ZM183.958 526.948C183.958 524.446 182.429 522.971 180.397 522.971C178.361 522.971 176.837 524.446 176.837 526.948C176.837 529.448 178.361 530.927 180.397 530.927C182.429 530.927 183.958 529.452 183.958 526.948ZM182.546 526.948C182.546 528.711 181.661 529.667 180.397 529.667C179.137 529.667 178.248 528.711 178.248 526.948C178.248 525.187 179.137 524.23 180.397 524.23C181.661 524.23 182.546 525.187 182.546 526.948ZM185.285 530.821H186.688V527.984H188.118L189.64 530.821H191.206L189.53 527.75C190.441 527.383 190.922 526.604 190.922 525.553C190.922 524.075 189.968 523.077 188.19 523.077H185.285V530.821ZM186.688 526.82V524.249H187.975C189.023 524.249 189.492 524.729 189.492 525.553C189.492 526.378 189.023 526.82 187.982 526.82H186.688ZM192.214 523.077V530.821H193.561V525.489H193.633L195.774 530.798H196.781L198.922 525.5H198.994V530.821H200.341V523.077H198.623L196.323 528.688H196.232L193.932 523.077H192.214Z" fill="#001540"/>
<path d="M539.65 222.018C561.716 222.018 579.604 204.14 579.604 182.087C579.604 160.033 561.716 142.155 539.65 142.155C517.583 142.155 499.695 160.033 499.695 182.087C499.695 204.14 517.583 222.018 539.65 222.018Z" fill="#B6CEFF" stroke="#001540" stroke-width="2" stroke-dasharray="8 8"/>
<path d="M515.234 171.681H513.83V179.425H515.234V171.681ZM523.122 171.681H521.726V176.96H521.657L518.01 171.681H516.754V179.425H518.158V174.15H518.222L521.873 179.425H523.122V171.681ZM528.113 174.99H524.625V176.117H528.113V174.99ZM529.614 179.425H531.018V176.135H534.611V179.425H536.017V171.681H534.611V174.959H531.018V171.681H529.614V179.425ZM544.466 175.553C544.466 173.05 542.937 171.575 540.907 171.575C538.872 171.575 537.343 173.05 537.343 175.553C537.343 178.053 538.872 179.531 540.907 179.531C542.937 179.531 544.466 178.056 544.466 175.553ZM543.054 175.553C543.054 177.315 542.17 178.272 540.907 178.272C539.645 178.272 538.755 177.315 538.755 175.553C538.755 173.791 539.645 172.834 540.907 172.834C542.17 172.834 543.054 173.791 543.054 175.553ZM550.678 171.681V176.623C550.678 177.595 550.001 178.291 548.936 178.291C547.87 178.291 547.199 177.595 547.199 176.623V171.681H545.793V176.74C545.793 178.404 547.044 179.542 548.936 179.542C550.827 179.542 552.084 178.404 552.084 176.74V171.681H550.678ZM557.821 173.81H559.169C559.143 172.502 558.029 171.575 556.378 171.575C554.753 171.575 553.528 172.49 553.533 173.859C553.533 174.971 554.321 175.61 555.6 175.939L556.479 176.166C557.315 176.378 557.869 176.638 557.869 177.24C557.869 177.901 557.241 178.344 556.324 178.344C555.445 178.344 554.764 177.95 554.71 177.137H553.325C553.384 178.677 554.529 179.542 556.335 179.542C558.194 179.542 559.27 178.616 559.276 177.251C559.27 175.909 558.162 175.296 556.996 175.02L556.271 174.838C555.637 174.687 554.945 174.419 554.955 173.772C554.961 173.189 555.483 172.762 556.356 172.762C557.193 172.762 557.747 173.152 557.821 173.81ZM560.528 179.425H565.599V178.249H561.929V176.135H565.306V174.959H561.929V172.857H565.567V171.681H560.528V179.425ZM522.375 186.588H523.725C523.699 185.28 522.583 184.353 520.933 184.353C519.307 184.353 518.084 185.268 518.088 186.637C518.088 187.749 518.879 188.388 520.154 188.717L521.036 188.944C521.872 189.156 522.424 189.417 522.428 190.018C522.424 190.679 521.796 191.122 520.881 191.122C520.003 191.122 519.321 190.728 519.265 189.915H517.884C517.941 191.455 519.087 192.32 520.892 192.32C522.75 192.32 523.828 191.394 523.831 190.029C523.828 188.687 522.719 188.074 521.554 187.798L520.827 187.616C520.192 187.465 519.503 187.197 519.511 186.55C519.515 185.968 520.037 185.541 520.914 185.541C521.751 185.541 522.303 185.93 522.375 186.588ZM524.553 184.459L527.372 189.314V192.203H528.772V189.314L531.591 184.459H530.005L528.11 187.885H528.034L526.139 184.459H524.553ZM536.795 186.588H538.148C538.121 185.28 537.003 184.353 535.356 184.353C533.726 184.353 532.505 185.268 532.509 186.637C532.509 187.749 533.3 188.388 534.573 188.717L535.458 188.944C536.294 189.156 536.843 189.417 536.848 190.018C536.843 190.679 536.219 191.122 535.303 191.122C534.424 191.122 533.742 190.728 533.684 189.915H532.305C532.361 191.455 533.508 192.32 535.314 192.32C537.173 192.32 538.249 191.394 538.254 190.029C538.249 188.687 537.141 188.074 535.974 187.798L535.25 187.616C534.611 187.465 533.923 187.197 533.934 186.55C533.934 185.968 534.456 185.541 535.335 185.541C536.172 185.541 536.726 185.93 536.795 186.588ZM539.165 185.635H541.557V192.203H542.953V185.635H545.345V184.459H539.165V185.635ZM546.538 192.203H551.61V191.027H547.939V188.913H551.317V187.737H547.939V185.635H551.578V184.459H546.538V192.203ZM553.011 184.459V192.203H554.359V186.872H554.428L556.57 192.18H557.576L559.718 186.883H559.787V192.203H561.135V184.459H559.42L557.118 190.07H557.028L554.726 184.459H553.011Z" fill="#001540"/>
<path d="M349.468 638.37C371.534 638.37 389.422 620.492 389.422 598.438C389.422 576.385 371.534 558.507 349.468 558.507C327.402 558.507 309.514 576.385 309.514 598.438C309.514 620.492 327.402 638.37 349.468 638.37Z" fill="#B6CEFF" stroke="#001540" stroke-width="2" stroke-dasharray="8 8"/>
<path d="M325.05 588.029H323.646V595.776H325.05V588.029ZM332.938 588.029H331.542V593.31H331.474L327.827 588.029H326.571V595.776H327.974V590.499H328.038L331.69 595.776H332.938V588.029ZM337.929 591.341H334.441V592.469H337.929V591.341ZM339.431 595.776H340.834V592.485H344.425V595.776H345.832V588.029H344.425V591.309H340.834V588.029H339.431V595.776ZM354.283 591.905C354.283 589.403 352.755 587.928 350.723 587.928C348.687 587.928 347.163 589.403 347.163 591.905C347.163 594.402 348.687 595.882 350.723 595.882C352.755 595.882 354.283 594.407 354.283 591.905ZM352.872 591.905C352.872 593.667 351.986 594.62 350.723 594.62C349.463 594.62 348.574 593.667 348.574 591.905C348.574 590.143 349.463 589.184 350.723 589.184C351.986 589.184 352.872 590.143 352.872 591.905ZM360.495 588.029V592.975C360.495 593.944 359.817 594.642 358.754 594.642C357.687 594.642 357.014 593.944 357.014 592.975V588.029H355.61V593.092C355.61 594.753 356.859 595.893 358.754 595.893C360.642 595.893 361.898 594.753 361.898 593.092V588.029H360.495ZM367.635 590.159H368.986C368.96 588.854 367.843 587.928 366.194 587.928C364.567 587.928 363.345 588.838 363.348 590.212C363.348 591.319 364.139 591.958 365.414 592.288L366.296 592.517C367.132 592.73 367.684 592.991 367.688 593.587C367.684 594.253 367.056 594.695 366.141 594.695C365.263 594.695 364.582 594.301 364.525 593.486H363.144C363.201 595.025 364.347 595.893 366.152 595.893C368.01 595.893 369.088 594.966 369.092 593.603C369.088 592.256 367.979 591.644 366.814 591.372L366.088 591.186C365.452 591.037 364.763 590.771 364.771 590.121C364.775 589.541 365.297 589.115 366.175 589.115C367.011 589.115 367.563 589.504 367.635 590.159ZM370.344 595.776H375.413V594.599H371.747V592.485H375.122V591.309H371.747V589.206H375.383V588.029H370.344V595.776ZM332.191 602.937H333.542C333.516 601.632 332.4 600.706 330.75 600.706C329.123 600.706 327.901 601.616 327.905 602.99C327.905 604.097 328.695 604.736 329.97 605.066L330.852 605.295C331.688 605.508 332.24 605.769 332.244 606.365C332.24 607.031 331.612 607.473 330.697 607.473C329.819 607.473 329.138 607.079 329.081 606.264H327.701C327.757 607.803 328.903 608.671 330.708 608.671C332.566 608.671 333.644 607.744 333.648 606.381C333.644 605.034 332.536 604.422 331.37 604.15L330.644 603.964C330.008 603.815 329.319 603.549 329.327 602.899C329.331 602.319 329.853 601.893 330.731 601.893C331.567 601.893 332.119 602.282 332.191 602.937ZM334.37 600.807L337.188 605.663V608.554H338.588V605.663L341.407 600.807H339.822L337.926 604.236H337.851L335.955 600.807H334.37ZM346.612 602.937H347.963C347.937 601.632 346.821 600.706 345.171 600.706C343.544 600.706 342.322 601.616 342.325 602.99C342.325 604.097 343.117 604.736 344.391 605.066L345.273 605.295C346.109 605.508 346.662 605.769 346.666 606.365C346.662 607.031 346.034 607.473 345.118 607.473C344.24 607.473 343.559 607.079 343.502 606.264H342.121C342.178 607.803 343.324 608.671 345.129 608.671C346.987 608.671 348.065 607.744 348.069 606.381C348.065 605.034 346.957 604.422 345.791 604.15L345.065 603.964C344.429 603.815 343.741 603.549 343.748 602.899C343.752 602.319 344.274 601.893 345.152 601.893C345.988 601.893 346.54 602.282 346.612 602.937ZM348.98 601.984H351.375V608.554H352.767V601.984H355.162V600.807H348.98V601.984ZM356.354 608.554H361.424V607.377H357.758V605.263H361.133V604.087H357.758V601.984H361.394V600.807H356.354V608.554ZM362.826 600.807V608.554H364.173V603.224H364.245L366.386 608.532H367.393L369.534 603.235H369.606V608.554H370.953V600.807H369.235L366.935 606.419H366.844L364.544 600.807H362.826Z" fill="#001540"/>
<path d="M348.402 142.156C370.468 142.156 388.356 124.278 388.356 102.224C388.356 80.1708 370.468 62.293 348.402 62.293C326.335 62.293 308.447 80.1708 308.447 102.224C308.447 124.278 326.335 142.156 348.402 142.156Z" fill="#B6CEFF" stroke="#001540" stroke-width="2" stroke-dasharray="8 8"/>
<path d="M328.492 105.952H329.896V103.335H331.379C333.168 103.335 334.129 102.261 334.129 100.771C334.129 99.2926 333.18 98.2075 331.398 98.2075H328.492V105.952ZM329.896 102.181V99.3794H331.182C332.234 99.3794 332.7 99.9469 332.7 100.771C332.7 101.595 332.234 102.181 331.19 102.181H329.896ZM342.273 102.079C342.273 99.5764 340.744 98.1016 338.713 98.1016C336.677 98.1016 335.152 99.5764 335.152 102.079C335.152 104.579 336.677 106.057 338.713 106.057C340.744 106.057 342.273 104.583 342.273 102.079ZM340.862 102.079C340.862 103.842 339.976 104.798 338.713 104.798C337.453 104.798 336.563 103.842 336.563 102.079C336.563 100.317 337.453 99.3607 338.713 99.3607C339.976 99.3607 340.862 100.317 340.862 102.079ZM343.6 105.952H345.003V103.115H346.434L347.955 105.952H349.521L347.845 102.881C348.757 102.514 349.238 101.735 349.238 100.684C349.238 99.2058 348.284 98.2075 346.506 98.2075H343.6V105.952ZM345.003 101.951V99.3794H346.29C347.338 99.3794 347.807 99.8596 347.807 100.684C347.807 101.509 347.338 101.951 346.297 101.951H345.003ZM350.189 99.3831H352.584V105.952H353.976V99.3831H356.371V98.2075H350.189V99.3831ZM357.622 105.952L358.261 104.042H361.174L361.818 105.952H363.316L360.584 98.2075H358.852L356.124 105.952H357.622ZM358.64 102.915L359.687 99.7957H359.748L360.796 102.915H358.64ZM364.337 105.952H369.153V104.775H365.74V98.2075H364.337V105.952Z" fill="#001540"/>
<path d="M96.9563 389.198C119.022 389.198 136.911 371.32 136.911 349.266C136.911 327.213 119.022 309.335 96.9563 309.335C74.8901 309.335 57.002 327.213 57.002 349.266C57.002 371.32 74.8901 389.198 96.9563 389.198Z" fill="#B6CEFF" stroke="#001540" stroke-width="2" stroke-dasharray="8 8"/>
<path d="M77.0469 352.994H78.4506V350.377H79.9337C81.7231 350.377 82.6842 349.303 82.6842 347.813C82.6842 346.335 81.7348 345.25 79.9529 345.25H77.0469V352.994ZM78.4506 349.223V346.421H79.7371C80.7887 346.421 81.2543 346.989 81.2543 347.813C81.2543 348.637 80.7887 349.223 79.7446 349.223H78.4506ZM90.8274 349.121C90.8274 346.618 89.299 345.144 87.2672 345.144C85.2317 345.144 83.707 346.618 83.707 349.121C83.707 351.621 85.2317 353.099 87.2672 353.099C89.299 353.099 90.8274 351.625 90.8274 349.121ZM89.4162 349.121C89.4162 350.884 88.5308 351.84 87.2672 351.84C86.0073 351.84 85.1182 350.884 85.1182 349.121C85.1182 347.359 86.0073 346.403 87.2672 346.403C88.5308 346.403 89.4162 347.359 89.4162 349.121ZM92.1544 352.994H93.5581V350.157H94.9885L96.5094 352.994H98.0756L96.3997 349.923C97.3117 349.556 97.7922 348.777 97.7922 347.726C97.7922 346.248 96.8387 345.25 95.0604 345.25H92.1544V352.994ZM93.5581 348.993V346.421H94.8447C95.8925 346.421 96.3619 346.902 96.3619 347.726C96.3619 348.55 95.8925 348.993 94.8521 348.993H93.5581ZM98.7437 346.425H101.139V352.994H102.531V346.425H104.926V345.25H98.7437V346.425ZM106.176 352.994L106.816 351.084H109.729L110.373 352.994H111.871L109.139 345.25H107.406L104.678 352.994H106.176ZM107.194 349.957L108.242 346.838H108.303L109.351 349.957H107.194ZM112.891 352.994H117.708V351.817H114.295V345.25H112.891V352.994Z" fill="#001540"/>
<path d="M526.331 567.025C548.397 567.025 566.286 549.147 566.286 527.093C566.286 505.04 548.397 487.162 526.331 487.162C504.265 487.162 486.377 505.04 486.377 527.093C486.377 549.147 504.265 567.025 526.331 567.025Z" fill="#B6CEFF" stroke="#001540" stroke-width="2" stroke-dasharray="8 8"/>
<path d="M506.422 530.821H507.826V528.204H509.309C511.098 528.204 512.059 527.13 512.059 525.64C512.059 524.162 511.11 523.077 509.328 523.077H506.422V530.821ZM507.826 527.051V524.249H509.112C510.164 524.249 510.629 524.816 510.629 525.64C510.629 526.464 510.164 527.051 509.12 527.051H507.826ZM520.202 526.948C520.202 524.446 518.674 522.971 516.642 522.971C514.607 522.971 513.082 524.446 513.082 526.948C513.082 529.448 514.607 530.927 516.642 530.927C518.674 530.927 520.202 529.452 520.202 526.948ZM518.791 526.948C518.791 528.711 517.906 529.667 516.642 529.667C515.382 529.667 514.493 528.711 514.493 526.948C514.493 525.187 515.382 524.23 516.642 524.23C517.906 524.23 518.791 525.187 518.791 526.948ZM521.529 530.821H522.933V527.984H524.363L525.884 530.821H527.451L525.775 527.75C526.687 527.383 527.167 526.604 527.167 525.553C527.167 524.075 526.214 523.077 524.435 523.077H521.529V530.821ZM522.933 526.82V524.249H524.22C525.268 524.249 525.737 524.729 525.737 525.553C525.737 526.378 525.268 526.82 524.227 526.82H522.933ZM528.119 524.252H530.514V530.821H531.906V524.252H534.3V523.077H528.119V524.252ZM535.552 530.821L536.192 528.911H539.106L539.745 530.821H541.247L538.514 523.077H536.783L534.055 530.821H535.552ZM536.57 527.784L537.619 524.665H537.678L538.727 527.784H536.57ZM542.265 530.821H547.08V529.645H543.671V523.077H542.265V530.821Z" fill="#001540"/>
<path d="M314.787 395.587H316.657V390.898H319.2C319.242 390.898 319.279 390.898 319.321 390.898L321.839 395.587H323.97L321.222 390.571C322.741 390.009 323.498 388.744 323.498 387.08C323.498 384.799 322.082 383.196 319.206 383.196H314.787V395.587ZM316.657 389.288V384.799H319.006C320.853 384.799 321.616 385.676 321.616 387.08C321.616 388.478 320.853 389.288 319.03 389.288H316.657ZM325.775 395.587H333.62V393.977H327.645V390.184H333.142V388.581H327.645V384.805H333.547V383.196H325.775V395.587ZM342.808 386.451H344.612C344.557 384.467 342.802 383.026 340.283 383.026C337.795 383.026 335.888 384.448 335.888 386.584C335.888 388.308 337.124 389.318 339.115 389.857L340.58 390.257C341.906 390.607 342.929 391.043 342.929 392.144C342.929 393.354 341.773 394.153 340.18 394.153C338.74 394.153 337.541 393.511 337.432 392.162H335.555C335.677 394.407 337.414 395.792 340.193 395.792C343.105 395.792 344.782 394.261 344.782 392.162C344.782 389.93 342.79 389.065 341.216 388.677L340.005 388.363C339.036 388.115 337.747 387.661 337.753 386.475C337.753 385.422 338.716 384.642 340.241 384.642C341.664 384.642 342.675 385.307 342.808 386.451ZM346.405 384.805H350.268V395.587H352.132V384.805H356V383.196H346.405V384.805ZM363.68 395.587L364.817 392.307H369.66L370.792 395.587H372.778L368.317 383.196H366.156L361.694 395.587H363.68ZM365.362 390.734L367.191 385.447H367.288L369.116 390.734H365.362ZM374.568 395.587H376.439V391.23H378.981C381.857 391.23 383.28 389.494 383.28 387.207C383.28 384.926 381.869 383.196 378.988 383.196H374.568V395.587ZM376.439 389.645V384.799H378.788C380.64 384.799 381.397 385.803 381.397 387.207C381.397 388.611 380.64 389.645 378.812 389.645H376.439ZM387.343 383.196H385.473V395.587H387.343V383.196Z" fill="white"/>
<path d="M311.136 283.053C311.136 280.174 309.378 278.479 307.042 278.479C304.7 278.479 302.947 280.174 302.947 283.053C302.947 285.928 304.7 287.628 307.042 287.628C309.378 287.628 311.136 285.932 311.136 283.053ZM309.513 283.053C309.513 285.079 308.495 286.18 307.042 286.18C305.593 286.18 304.57 285.079 304.57 283.053C304.57 281.027 305.593 279.927 307.042 279.927C308.495 279.927 309.513 281.027 309.513 283.053ZM312.592 290.011H314.168V286.454H314.233C314.481 286.941 314.999 287.624 316.147 287.624C317.722 287.624 318.901 286.375 318.901 284.175C318.901 281.949 317.688 280.74 316.143 280.74C314.964 280.74 314.472 281.449 314.233 281.931H314.141V280.827H312.592V290.011ZM314.137 284.166C314.137 282.87 314.694 282.031 315.708 282.031C316.757 282.031 317.296 282.923 317.296 284.166C317.296 285.419 316.748 286.332 315.708 286.332C314.703 286.332 314.137 285.462 314.137 284.166ZM323.209 287.637C324.767 287.637 325.837 286.876 326.115 285.715L324.645 285.55C324.432 286.114 323.909 286.41 323.231 286.41C322.213 286.41 321.538 285.741 321.525 284.597H326.181V284.114C326.181 281.77 324.771 280.74 323.126 280.74C321.212 280.74 319.963 282.144 319.963 284.206C319.963 286.302 321.195 287.637 323.209 287.637ZM321.53 283.536C321.578 282.684 322.208 281.966 323.148 281.966C324.053 281.966 324.662 282.627 324.671 283.536H321.53ZM329.089 283.592C329.089 282.627 329.671 282.07 330.502 282.07C331.316 282.07 331.803 282.605 331.803 283.497V287.506H333.379V283.253C333.383 281.653 332.469 280.74 331.09 280.74C330.089 280.74 329.402 281.218 329.097 281.962H329.019V280.827H327.513V287.506H329.089V283.592ZM336.664 278.6H335.05V287.506H336.664V278.6ZM340.822 287.624C341.971 287.624 342.489 286.941 342.737 286.454H342.832V287.506H344.382V278.6H342.802V281.931H342.737C342.497 281.449 342.006 280.74 340.827 280.74C339.282 280.74 338.068 281.949 338.068 284.175C338.068 286.375 339.247 287.624 340.822 287.624ZM341.262 286.332C340.222 286.332 339.674 285.419 339.674 284.166C339.674 282.923 340.213 282.031 341.262 282.031C342.276 282.031 342.832 282.87 342.832 284.166C342.832 285.462 342.267 286.332 341.262 286.332ZM356.796 281.605C356.522 279.626 354.999 278.479 353.024 278.479C350.696 278.479 348.943 280.174 348.943 283.053C348.943 285.928 350.674 287.628 353.024 287.628C355.143 287.628 356.548 286.258 356.796 284.558L355.169 284.549C354.965 285.593 354.112 286.18 353.046 286.18C351.601 286.18 350.565 285.097 350.565 283.053C350.565 281.044 351.592 279.927 353.05 279.927C354.134 279.927 354.982 280.539 355.169 281.605H356.796ZM361.12 287.637C363.078 287.637 364.322 286.258 364.322 284.192C364.322 282.122 363.078 280.74 361.12 280.74C359.162 280.74 357.918 282.122 357.918 284.192C357.918 286.258 359.162 287.637 361.12 287.637ZM361.129 286.375C360.045 286.375 359.515 285.41 359.515 284.188C359.515 282.966 360.045 281.988 361.129 281.988C362.195 281.988 362.726 282.966 362.726 284.188C362.726 285.41 362.195 286.375 361.129 286.375ZM367.234 283.592C367.234 282.627 367.818 282.07 368.649 282.07C369.462 282.07 369.95 282.605 369.95 283.497V287.506H371.525V283.253C371.529 281.653 370.616 280.74 369.236 280.74C368.235 280.74 367.548 281.218 367.243 281.962H367.165V280.827H365.66V287.506H367.234V283.592ZM374.701 283.592C374.701 282.627 375.284 282.07 376.115 282.07C376.929 282.07 377.416 282.605 377.416 283.497V287.506H378.991V283.253C378.995 281.653 378.082 280.74 376.702 280.74C375.702 280.74 375.014 281.218 374.71 281.962H374.631V280.827H373.126V287.506H374.701V283.592ZM383.551 287.637C385.109 287.637 386.179 286.876 386.458 285.715L384.987 285.55C384.774 286.114 384.252 286.41 383.573 286.41C382.555 286.41 381.881 285.741 381.867 284.597H386.523V284.114C386.523 281.77 385.113 280.74 383.469 280.74C381.554 280.74 380.305 282.144 380.305 284.206C380.305 286.302 381.536 287.637 383.551 287.637ZM381.871 283.536C381.919 282.684 382.55 281.966 383.49 281.966C384.395 281.966 385.004 282.627 385.013 283.536H381.871ZM390.771 287.637C392.45 287.637 393.521 286.641 393.634 285.223H392.128C391.993 285.941 391.475 286.354 390.784 286.354C389.801 286.354 389.165 285.532 389.165 284.166C389.165 282.818 389.813 282.01 390.784 282.01C391.541 282.01 392.007 282.497 392.128 283.14H393.634C393.525 281.692 392.394 280.74 390.762 280.74C388.804 280.74 387.568 282.153 387.568 284.192C387.568 286.215 388.773 287.637 390.771 287.637ZM398.264 280.827H396.946V279.227H395.371V280.827H394.422V282.044H395.371V285.758C395.362 287.015 396.276 287.632 397.46 287.598C397.908 287.584 398.217 287.498 398.386 287.441L398.121 286.21C398.034 286.232 397.855 286.271 397.659 286.271C397.263 286.271 396.946 286.132 396.946 285.497V282.044H398.264V280.827Z" fill="white"/>
<path d="M371.993 342.143C372.167 340.519 372.051 338.895 371.646 337.329C371.183 335.501 370.287 333.79 369.13 332.339C367.945 330.889 366.442 329.671 364.793 328.83C363.954 328.424 363.087 328.076 362.162 327.844C361.266 327.612 360.34 327.496 359.414 327.438H359.068H358.721H358.056L356.726 327.467L354.065 327.524L351.405 327.582L348.744 327.64C345.188 327.728 341.631 327.844 338.074 327.989C341.631 328.163 345.188 328.249 348.744 328.337L351.405 328.395L354.065 328.453L356.726 328.511L358.056 328.54H358.721H359.039L359.357 328.569C361.063 328.685 362.711 329.149 364.215 329.932C364.967 330.338 365.661 330.802 366.325 331.353C366.991 331.904 367.569 332.514 368.09 333.152C368.783 334.051 369.362 335.037 369.796 336.081C369.622 335.82 369.449 335.588 369.246 335.327C368.668 334.602 368.032 333.964 367.338 333.355C366.644 332.774 365.863 332.253 365.053 331.817C364.244 331.382 363.405 331.063 362.509 330.802C361.641 330.541 360.745 330.396 359.819 330.338C359.589 330.309 359.357 330.309 359.154 330.309C359.039 330.309 358.923 330.309 358.808 330.309C358.691 330.309 358.576 330.309 358.489 330.309L357.188 330.338C355.453 330.367 353.718 330.425 351.983 330.454C350.248 330.512 348.513 330.57 346.778 330.628L344.176 330.744C343.742 330.773 343.309 330.773 342.874 330.802C342.441 330.831 342.007 330.831 341.573 330.86C342.007 330.889 342.441 330.918 342.874 330.918C343.309 330.947 343.742 330.976 344.176 330.976L346.778 331.092C348.513 331.15 350.248 331.208 351.983 331.266C353.718 331.324 355.453 331.353 357.188 331.382L358.489 331.411H358.808C358.923 331.411 359.01 331.411 359.126 331.411C359.328 331.411 359.531 331.44 359.733 331.47C360.571 331.556 361.381 331.73 362.162 331.963C363.752 332.456 365.198 333.267 366.47 334.341C367.714 335.414 368.755 336.748 369.478 338.227C369.593 338.46 369.709 338.721 369.796 338.953C369.535 338.547 369.246 338.17 368.928 337.822C367.742 336.43 366.268 335.298 364.62 334.486C363.81 334.08 362.943 333.79 362.046 333.558C361.149 333.355 360.253 333.239 359.357 333.209C359.126 333.209 358.894 333.209 358.691 333.209H358.027L356.726 333.239L354.123 333.297L351.52 333.384L348.918 333.471C347.183 333.529 345.448 333.616 343.713 333.732C345.448 333.848 347.183 333.906 348.918 333.993L351.52 334.08L354.123 334.167L356.726 334.225L358.027 334.254H358.691C358.894 334.254 359.096 334.254 359.328 334.283C360.976 334.37 362.624 334.834 364.07 335.588C366.673 336.893 368.725 339.156 369.825 341.853C369.593 341.534 369.362 341.186 369.101 340.896C368.523 340.2 367.858 339.533 367.135 338.982C366.412 338.402 365.661 337.909 364.822 337.503C364.012 337.097 363.145 336.778 362.277 336.546C361.41 336.313 360.485 336.168 359.589 336.139C359.472 336.139 359.357 336.139 359.241 336.139C359.126 336.139 359.01 336.139 358.894 336.139H358.721H358.547H358.229L356.928 336.168C355.193 336.226 353.458 336.284 351.723 336.371C350.855 336.4 349.988 336.458 349.121 336.516C348.253 336.574 347.385 336.632 346.518 336.69C347.385 336.748 348.253 336.806 349.121 336.864C349.988 336.923 350.855 336.951 351.723 337.009C353.458 337.097 355.193 337.155 356.928 337.213L358.229 337.241L358.865 337.271C358.981 337.271 359.068 337.271 359.183 337.271C359.299 337.271 359.386 337.271 359.501 337.299C360.34 337.358 361.149 337.532 361.93 337.734C363.521 338.199 364.996 338.982 366.268 340.055C366.904 340.577 367.483 341.186 368.002 341.824C368.523 342.463 368.957 343.159 369.333 343.884C369.478 344.174 369.622 344.493 369.767 344.812C369.449 344.348 369.101 343.913 368.725 343.478C367.511 342.115 366.007 340.983 364.359 340.229C363.521 339.852 362.653 339.562 361.786 339.359C360.889 339.156 359.993 339.069 359.096 339.04H358.75H358.432L357.766 339.069C357.333 339.098 356.899 339.098 356.465 339.127L355.164 339.185L353.863 339.243C352.128 339.33 350.393 339.446 348.658 339.591C350.393 339.765 352.128 339.852 353.863 339.939L355.164 339.997L356.465 340.055C356.899 340.084 357.333 340.084 357.766 340.113L358.432 340.142L359.068 340.171C359.906 340.2 360.716 340.316 361.526 340.519C362.335 340.722 363.116 341.013 363.839 341.36C364.591 341.708 365.284 342.143 365.95 342.666C366.615 343.159 367.193 343.739 367.742 344.348C368.292 344.986 368.783 345.682 369.188 346.436C369.13 346.524 369.101 346.61 369.044 346.698C368.176 345.653 367.164 344.754 366.065 344.029C364.504 343.014 362.711 342.347 360.861 342.057C360.398 341.999 359.935 341.941 359.472 341.941H359.126H358.778C358.547 341.941 358.345 341.969 358.113 341.969C357.217 341.999 356.321 342.057 355.453 342.085C353.66 342.201 351.897 342.289 350.103 342.492C351.897 342.666 353.66 342.782 355.453 342.898C356.35 342.956 357.246 342.985 358.113 343.014L358.778 343.043H359.096L359.414 343.072C359.849 343.101 360.253 343.159 360.687 343.217C361.526 343.362 362.335 343.594 363.116 343.913C363.897 344.232 364.648 344.638 365.343 345.102C366.47 345.856 367.453 346.785 368.263 347.858C367.396 349.018 366.325 350.005 365.111 350.788C364.388 351.251 363.637 351.628 362.856 351.919C362.075 352.209 361.236 352.441 360.398 352.557C359.964 352.615 359.559 352.673 359.126 352.673C359.01 352.673 358.923 352.673 358.808 352.673H358.489H357.824L355.164 352.702C351.607 352.76 348.05 352.818 344.494 352.905C342.701 352.934 340.937 352.992 339.144 353.05C337.352 353.108 335.588 353.166 333.795 353.224C335.588 353.282 337.352 353.34 339.144 353.398C340.937 353.456 342.701 353.485 344.494 353.543C348.05 353.63 351.607 353.688 355.164 353.746L357.824 353.775H358.489H358.836C358.952 353.775 359.068 353.775 359.183 353.775C359.646 353.775 360.109 353.746 360.571 353.688C362.422 353.456 364.215 352.847 365.834 351.861C366.644 351.368 367.367 350.788 368.06 350.149C368.437 349.801 368.783 349.424 369.101 349.047C369.16 349.134 369.188 349.221 369.246 349.308C369.13 349.54 369.015 349.743 368.87 349.947C368.437 350.642 367.916 351.28 367.338 351.889C366.21 353.079 364.822 354.036 363.289 354.674C362.538 354.993 361.728 355.225 360.918 355.399C360.513 355.486 360.109 355.544 359.675 355.573C359.559 355.573 359.472 355.602 359.357 355.602C359.241 355.602 359.154 355.602 359.039 355.631H358.721H358.403L353.197 355.689C349.727 355.747 346.258 355.805 342.788 355.893L340.185 355.951L337.583 356.009C335.848 356.067 334.113 356.095 332.378 356.153C334.113 356.212 335.848 356.27 337.583 356.298L340.185 356.356L342.788 356.414C346.258 356.502 349.727 356.56 353.197 356.618L358.403 356.676H358.721H359.068C359.183 356.676 359.299 356.676 359.414 356.676C359.531 356.676 359.646 356.676 359.762 356.647C360.224 356.618 360.658 356.56 361.121 356.502C362.017 356.356 362.914 356.125 363.752 355.777C364.591 355.457 365.429 355.022 366.181 354.529C366.933 354.036 367.656 353.456 368.292 352.789C368.87 352.209 369.391 351.6 369.825 350.933C369.622 351.454 369.362 351.947 369.073 352.441C368.234 353.862 367.135 355.109 365.805 356.095C365.14 356.588 364.446 357.024 363.694 357.372C362.943 357.72 362.162 357.981 361.352 358.184C360.542 358.387 359.733 358.474 358.894 358.503L356.292 358.532L351.087 358.59L345.882 358.677L340.677 358.793C338.942 358.822 337.207 358.88 335.472 358.909C334.604 358.938 333.737 358.938 332.87 358.967L330.267 359.054L332.87 359.141C333.737 359.17 334.604 359.199 335.472 359.199C337.207 359.228 338.942 359.286 340.677 359.315L345.882 359.432L351.087 359.518L356.292 359.576L358.894 359.606C359.79 359.606 360.716 359.518 361.612 359.344C363.405 358.967 365.111 358.242 366.586 357.169C367.338 356.646 368.032 356.037 368.639 355.37C369.073 354.906 369.478 354.384 369.825 353.862C369.275 355.225 368.465 356.472 367.482 357.546C366.355 358.764 364.996 359.721 363.492 360.388C362.74 360.737 361.959 360.969 361.149 361.143C360.745 361.23 360.34 361.288 359.935 361.346C359.733 361.375 359.531 361.375 359.328 361.404C359.212 361.404 359.126 361.404 359.01 361.404C358.894 361.404 358.808 361.404 358.691 361.404L353.487 361.462L348.282 361.52L343.077 361.606L337.872 361.694C334.402 361.752 330.932 361.839 327.462 361.926C330.932 362.013 334.402 362.1 337.872 362.158L343.077 362.245L348.282 362.332L353.487 362.39L358.691 362.448H359.039C359.154 362.448 359.27 362.448 359.386 362.448C359.617 362.448 359.849 362.419 360.051 362.419C360.513 362.39 360.947 362.332 361.41 362.245C362.307 362.071 363.174 361.81 364.012 361.462C365.689 360.765 367.222 359.721 368.495 358.387C368.986 357.865 369.449 357.285 369.853 356.705C369.68 357.169 369.449 357.604 369.218 358.039C368.813 358.764 368.35 359.431 367.8 360.069C367.251 360.707 366.673 361.259 366.007 361.781C365.689 362.042 365.343 362.274 364.996 362.477C364.648 362.709 364.272 362.883 363.925 363.086C363.174 363.434 362.393 363.724 361.612 363.927C360.803 364.13 359.993 364.246 359.154 364.275H358.836H358.518H357.853H356.552C353.082 364.304 349.612 364.362 346.142 364.391C339.202 364.507 332.262 364.594 325.322 364.797C332.262 364.971 339.202 365.087 346.142 365.204C349.612 365.262 353.082 365.29 356.552 365.32H357.853H358.518H358.836H359.183C360.08 365.32 361.005 365.204 361.872 365C363.637 364.594 365.343 363.841 366.817 362.738C367.54 362.187 368.234 361.578 368.841 360.881C369.218 360.476 369.564 360.04 369.853 359.576C369.391 360.707 368.755 361.781 367.974 362.738C367.424 363.376 366.846 363.985 366.181 364.507C365.516 365.029 364.793 365.494 364.042 365.871C363.289 366.248 362.48 366.538 361.67 366.77C360.861 366.973 359.993 367.118 359.154 367.147H358.836H358.489H357.824H356.494L353.834 367.176L348.484 367.234L343.135 367.292L337.785 367.379L332.436 367.466L327.086 367.553L324.426 367.611L321.766 367.669L324.426 367.727L327.086 367.785L332.436 367.872L337.785 367.959L343.135 368.046L348.484 368.104L353.834 368.162L356.494 368.191H357.824H358.489H358.836H359.183C360.108 368.191 361.034 368.075 361.959 367.872C362.856 367.669 363.752 367.35 364.591 366.944C366.297 366.161 367.8 364.971 369.015 363.55C370.229 362.129 371.155 360.418 371.675 358.619C372.138 356.966 372.282 355.197 372.109 353.485C371.993 353.775 372.022 342.434 371.993 342.143Z" fill="white"/>
<path d="M684.509 332.465C684.509 338.77 680.807 343.882 676.247 343.882C671.681 343.882 667.979 338.77 667.979 332.465C667.606 323.921 671.681 321.048 676.247 321.048C680.807 321.048 685.41 325.055 684.509 332.465Z" fill="#001540"/>
<path d="M685.111 333.826C685.111 335.12 684.573 336.17 683.907 336.17C683.241 336.17 682.703 335.12 682.703 333.826C682.703 332.532 683.241 331.482 683.907 331.482C684.573 331.482 685.111 332.532 685.111 333.826Z" fill="#001540"/>
<path d="M669.634 333.826C669.634 335.12 669.096 336.17 668.431 336.17C667.765 336.17 667.227 335.12 667.227 333.826C667.227 332.532 667.765 331.482 668.431 331.482C669.096 331.482 669.634 332.532 669.634 333.826Z" fill="#001540"/>
<path d="M673.183 345.817C672.991 345.321 673.353 344.789 673.881 344.789H678.308C678.835 344.789 679.197 345.321 679.005 345.817L677.897 348.72H674.291L673.183 345.817Z" fill="#001540"/>
<path d="M674.439 349.477H677.747L678.046 351.745H674.141L674.439 349.477Z" fill="#001540"/>
<path fill-rule="evenodd" clip-rule="evenodd" d="M661.655 352.502C660.776 352.502 660.083 353.26 660.158 354.142L661.522 370.346H690.369L691.732 354.142C691.807 353.26 691.115 352.502 690.236 352.502H661.655ZM676.028 362.282C677.21 362.282 678.169 361.32 678.169 360.134C678.169 358.948 677.21 357.987 676.028 357.987C674.845 357.987 673.886 358.948 673.886 360.134C673.886 361.32 674.845 362.282 676.028 362.282Z" fill="#001540"/>
<path fill-rule="evenodd" clip-rule="evenodd" d="M682.554 344.789L680.844 351.594H691.141C692.02 351.594 692.713 352.348 692.638 353.228L692.239 358.212C692.745 358.748 693.07 359.615 693.07 360.592C693.07 361.813 692.558 362.861 691.834 363.309L691.307 369.888C692.58 369.753 695.51 369.105 697.353 367.548C699.681 365.582 700.358 362.179 699.83 359.76C699.308 357.34 697.731 352.955 694.05 348.721C691.104 345.334 685.159 344.688 682.554 344.789Z" fill="#001540"/>
<path fill-rule="evenodd" clip-rule="evenodd" d="M669.502 344.789L671.212 351.594H660.914C660.035 351.594 659.343 352.348 659.417 353.228L659.817 358.212C659.311 358.748 658.986 359.615 658.986 360.592C658.986 361.813 659.497 362.861 660.222 363.309L660.749 369.888C659.476 369.753 656.546 369.105 654.703 367.548C652.375 365.582 651.698 362.179 652.225 359.76C652.748 357.34 654.324 352.955 658.006 348.721C660.952 345.334 666.897 344.688 669.502 344.789Z" fill="#001540"/>
<path d="M661.521 370.95C661.521 371.618 662.06 372.16 662.72 372.16H689.165C689.831 372.16 690.369 371.618 690.369 370.95H661.521Z" fill="#001540"/>
<path d="M607.263 509.761C607.263 516.066 603.561 521.178 599.001 521.178C594.435 521.178 590.733 516.066 590.733 509.761C590.36 501.217 594.435 498.344 599.001 498.344C603.561 498.344 608.163 502.351 607.263 509.761Z" fill="#001540"/>
<path d="M607.865 511.121C607.865 512.415 607.327 513.465 606.661 513.465C605.995 513.465 605.457 512.415 605.457 511.121C605.457 509.827 605.995 508.777 606.661 508.777C607.327 508.777 607.865 509.827 607.865 511.121Z" fill="#001540"/>
<path d="M592.39 511.121C592.39 512.415 591.852 513.465 591.186 513.465C590.52 513.465 589.982 512.415 589.982 511.121C589.982 509.827 590.52 508.777 591.186 508.777C591.852 508.777 592.39 509.827 592.39 511.121Z" fill="#001540"/>
<path d="M595.939 523.113C595.747 522.617 596.109 522.085 596.637 522.085H601.064C601.591 522.085 601.953 522.617 601.761 523.113L600.653 526.016H597.047L595.939 523.113Z" fill="#001540"/>
<path d="M597.195 526.772H600.503L600.801 529.041H596.896L597.195 526.772Z" fill="#001540"/>
<path fill-rule="evenodd" clip-rule="evenodd" d="M584.409 529.797C583.53 529.797 582.837 530.554 582.912 531.437L584.276 547.64H613.123L614.486 531.437C614.561 530.554 613.869 529.797 612.99 529.797H584.409ZM598.782 539.579C599.964 539.579 600.923 538.615 600.923 537.428C600.923 536.241 599.964 535.282 598.782 535.282C597.599 535.282 596.64 536.241 596.64 537.428C596.64 538.615 597.599 539.579 598.782 539.579Z" fill="#001540"/>
<path fill-rule="evenodd" clip-rule="evenodd" d="M605.308 522.085L603.598 528.89H613.895C614.774 528.89 615.467 529.644 615.392 530.524L614.993 535.507C615.499 536.044 615.824 536.912 615.824 537.886C615.824 539.111 615.312 540.155 614.588 540.607L614.06 547.182C615.334 547.049 618.264 546.4 620.107 544.845C622.435 542.875 623.111 539.473 622.584 537.056C622.062 534.639 620.485 530.251 616.804 526.017C613.858 522.63 607.913 521.984 605.308 522.085Z" fill="#001540"/>
<path fill-rule="evenodd" clip-rule="evenodd" d="M592.256 522.085L593.966 528.89H583.668C582.789 528.89 582.097 529.644 582.171 530.524L582.571 535.507C582.065 536.044 581.74 536.912 581.74 537.886C581.74 539.111 582.251 540.155 582.976 540.607L583.503 547.182C582.23 547.049 579.3 546.4 577.457 544.845C575.129 542.875 574.452 539.473 574.979 537.056C575.501 534.639 577.078 530.251 580.759 526.017C583.705 522.63 589.651 521.984 592.256 522.085Z" fill="#001540"/>
<path d="M584.277 548.247C584.277 548.913 584.815 549.456 585.476 549.456H611.92C612.586 549.456 613.124 548.913 613.124 548.247H584.277Z" fill="#001540"/>
<path d="M357.947 658.303C357.947 664.612 354.247 669.723 349.684 669.723C345.12 669.723 341.421 664.612 341.421 658.303C341.045 649.763 345.12 646.888 349.684 646.888C354.247 646.888 358.849 650.897 357.947 658.303Z" fill="#001540"/>
<path d="M358.549 659.666C358.549 660.96 358.01 662.008 357.346 662.008C356.683 662.008 356.145 660.96 356.145 659.666C356.145 658.372 356.683 657.323 357.346 657.323C358.01 657.323 358.549 658.372 358.549 659.666Z" fill="#001540"/>
<path d="M343.072 659.666C343.072 660.96 342.534 662.008 341.87 662.008C341.207 662.008 340.668 660.96 340.668 659.666C340.668 658.372 341.207 657.323 341.87 657.323C342.534 657.323 343.072 658.372 343.072 659.666Z" fill="#001540"/>
<path d="M346.621 671.656C346.432 671.161 346.795 670.629 347.322 670.629H351.745C352.272 670.629 352.636 671.161 352.446 671.656L351.337 674.563H347.731L346.621 671.656Z" fill="#001540"/>
<path d="M347.881 675.318H351.186L351.487 677.586H347.58L347.881 675.318Z" fill="#001540"/>
<path fill-rule="evenodd" clip-rule="evenodd" d="M335.094 678.343C334.214 678.343 333.523 679.099 333.597 679.983L334.962 696.184H363.808L365.172 679.983C365.246 679.099 364.555 678.343 363.675 678.343H335.094ZM349.469 688.123C350.651 688.123 351.609 687.16 351.609 685.972C351.609 684.785 350.651 683.827 349.469 683.827C348.287 683.827 347.328 684.785 347.328 685.972C347.328 687.16 348.287 688.123 349.469 688.123Z" fill="#001540"/>
<path fill-rule="evenodd" clip-rule="evenodd" d="M355.994 670.629L354.281 677.433H364.582C365.459 677.433 366.15 678.189 366.08 679.068L365.681 684.051C366.184 684.589 366.51 685.457 366.51 686.431C366.51 687.656 366 688.699 365.272 689.152L364.744 695.727C366.017 695.594 368.948 694.944 370.793 693.39C373.122 691.42 373.798 688.018 373.272 685.6C372.746 683.183 371.169 678.796 367.488 674.563C364.543 671.172 358.598 670.528 355.994 670.629Z" fill="#001540"/>
<path fill-rule="evenodd" clip-rule="evenodd" d="M342.94 670.629L344.653 677.433H334.352C333.475 677.433 332.784 678.189 332.855 679.068L333.254 684.051C332.75 684.589 332.424 685.457 332.424 686.431C332.424 687.656 332.934 688.699 333.662 689.152L334.19 695.727C332.917 695.594 329.986 694.944 328.141 693.39C325.812 691.42 325.136 688.018 325.662 685.6C326.188 683.183 327.765 678.796 331.447 674.563C334.391 671.172 340.336 670.528 342.94 670.629Z" fill="#001540"/>
<path d="M334.961 696.791C334.961 697.457 335.499 698 336.163 698H362.605C363.269 698 363.807 697.457 363.807 696.791H334.961Z" fill="#001540"/>
<path d="M108.1 509.761C108.1 516.066 104.4 521.178 99.836 521.178C95.2721 521.178 91.5729 516.066 91.5729 509.761C91.1973 501.217 95.2721 498.344 99.836 498.344C104.4 498.344 109.001 502.351 108.1 509.761Z" fill="#001540"/>
<path d="M108.701 511.121C108.701 512.415 108.162 513.465 107.499 513.465C106.835 513.465 106.297 512.415 106.297 511.121C106.297 509.827 106.835 508.777 107.499 508.777C108.162 508.777 108.701 509.827 108.701 511.121Z" fill="#001540"/>
<path d="M93.2245 511.121C93.2245 512.415 92.6865 513.465 92.0227 513.465C91.3589 513.465 90.8203 512.415 90.8203 511.121C90.8203 509.827 91.3589 508.777 92.0227 508.777C92.6865 508.777 93.2245 509.827 93.2245 511.121Z" fill="#001540"/>
<path d="M96.7734 523.113C96.5843 522.617 96.9471 522.085 97.4745 522.085H101.898C102.425 522.085 102.788 522.617 102.599 523.113L101.489 526.016H97.8831L96.7734 523.113Z" fill="#001540"/>
<path d="M98.0329 526.772H101.338L101.639 529.041H97.7324L98.0329 526.772Z" fill="#001540"/>
<path fill-rule="evenodd" clip-rule="evenodd" d="M85.2447 529.797C84.3646 529.797 83.6731 530.554 83.7477 531.437L85.112 547.64H113.958L115.322 531.437C115.397 530.554 114.705 529.797 113.825 529.797H85.2447ZM99.6192 539.579C100.801 539.579 101.76 538.615 101.76 537.428C101.76 536.241 100.801 535.282 99.6192 535.282C98.437 535.282 97.4787 536.241 97.4787 537.428C97.4787 538.615 98.437 539.579 99.6192 539.579Z" fill="#001540"/>
<path fill-rule="evenodd" clip-rule="evenodd" d="M106.146 522.085L104.434 528.89H114.734C115.612 528.89 116.303 529.644 116.232 530.524L115.833 535.507C116.336 536.044 116.663 536.912 116.663 537.886C116.663 539.111 116.152 540.155 115.424 540.607L114.897 547.182C116.17 547.049 119.1 546.4 120.945 544.845C123.274 542.875 123.95 539.473 123.424 537.056C122.898 534.639 121.321 530.251 117.64 526.017C114.695 522.63 108.751 521.984 106.146 522.085Z" fill="#001540"/>
<path fill-rule="evenodd" clip-rule="evenodd" d="M93.0924 522.085L94.8051 528.89H84.5044C83.627 528.89 82.936 529.644 83.0069 530.524L83.4059 535.507C82.9025 536.044 82.5759 536.912 82.5759 537.886C82.5759 539.111 83.0862 540.155 83.8145 540.607L84.3419 547.182C83.0692 547.049 80.1387 546.4 78.2933 544.845C75.9648 542.875 75.2888 539.473 75.8146 537.056C76.3404 534.639 77.9178 530.251 81.5989 526.017C84.5438 522.63 90.4879 521.984 93.0924 522.085Z" fill="#001540"/>
<path d="M85.1133 548.247C85.1133 548.913 85.6513 549.456 86.3151 549.456H112.757C113.421 549.456 113.959 548.913 113.959 548.247H85.1133Z" fill="#001540"/>
<path d="M32.453 332.465C32.453 338.77 28.7534 343.882 24.1897 343.882C19.626 343.882 15.9264 338.77 15.9264 332.465C15.5508 323.921 19.626 321.048 24.1897 321.048C28.7534 321.048 33.3545 325.055 32.453 332.465Z" fill="#001540"/>
<path d="M33.0523 333.826C33.0523 335.12 32.5142 336.17 31.8504 336.17C31.1865 336.17 30.6484 335.12 30.6484 333.826C30.6484 332.532 31.1865 331.482 31.8504 331.482C32.5142 331.482 33.0523 332.532 33.0523 333.826Z" fill="#001540"/>
<path d="M17.5777 333.826C17.5777 335.12 17.0395 336.17 16.3758 336.17C15.7119 336.17 15.1738 335.12 15.1738 333.826C15.1738 332.532 15.7119 331.482 16.3758 331.482C17.0395 331.482 17.5777 332.532 17.5777 333.826Z" fill="#001540"/>
<path d="M21.125 345.817C20.9357 345.321 21.2989 344.789 21.8261 344.789H26.2492C26.7764 344.789 27.1396 345.321 26.9503 345.817L25.8406 348.72H22.2348L21.125 345.817Z" fill="#001540"/>
<path d="M22.3864 349.477H25.6917L25.9922 351.745H22.0859L22.3864 349.477Z" fill="#001540"/>
<path fill-rule="evenodd" clip-rule="evenodd" d="M9.59823 352.502C8.71844 352.502 8.02691 353.26 8.10117 354.142L9.46553 370.346H38.3119L39.6762 354.142C39.7506 353.26 39.059 352.502 38.1792 352.502H9.59823ZM23.9728 362.282C25.1549 362.282 26.1132 361.32 26.1132 360.134C26.1132 358.948 25.1549 357.987 23.9728 357.987C22.7907 357.987 21.8324 358.948 21.8324 360.134C21.8324 361.32 22.7907 362.282 23.9728 362.282Z" fill="#001540"/>
<path fill-rule="evenodd" clip-rule="evenodd" d="M30.4999 344.789L28.7871 351.594H39.0879C39.9652 351.594 40.6559 352.348 40.5854 353.228L40.1861 358.212C40.6896 358.748 41.0166 359.615 41.0166 360.592C41.0166 361.813 40.5057 362.861 39.7777 363.309L39.2506 369.888C40.523 369.753 43.4536 369.105 45.2987 367.548C47.6274 365.582 48.3035 362.179 47.7777 359.76C47.2518 357.34 45.6743 352.955 41.9934 348.721C39.0486 345.334 33.1041 344.688 30.4999 344.789Z" fill="#001540"/>
<path fill-rule="evenodd" clip-rule="evenodd" d="M17.4459 344.789L19.1586 351.594H8.85788C7.98054 351.594 7.28981 352.348 7.36034 353.228L7.75967 358.212C7.25614 358.748 6.92921 359.615 6.92921 360.592C6.92921 361.813 7.44004 362.861 8.16806 363.309L8.69519 369.888C7.42272 369.753 4.49213 369.105 2.64708 367.548C0.318335 365.582 -0.357752 362.179 0.168094 359.76C0.69394 357.34 2.27148 352.955 5.9524 348.721C8.89715 345.334 14.8417 344.688 17.4459 344.789Z" fill="#001540"/>
<path d="M9.46484 370.95C9.46484 371.618 10.0029 372.16 10.6668 372.16H37.1093C37.7731 372.16 38.3112 371.618 38.3112 370.95H9.46484Z" fill="#001540"/>
<path d="M102.772 165.819C102.772 172.124 99.0717 177.236 94.5079 177.236C89.944 177.236 86.2448 172.124 86.2448 165.819C85.8692 157.274 89.944 154.401 94.5079 154.401C99.0717 154.401 103.673 158.409 102.772 165.819Z" fill="#001540"/>
<path d="M103.373 167.18C103.373 168.474 102.834 169.523 102.171 169.523C101.507 169.523 100.969 168.474 100.969 167.18C100.969 165.885 101.507 164.836 102.171 164.836C102.834 164.836 103.373 165.885 103.373 167.18Z" fill="#001540"/>
<path d="M87.8983 167.18C87.8983 168.474 87.3603 169.523 86.6965 169.523C86.0327 169.523 85.4941 168.474 85.4941 167.18C85.4941 165.885 86.0327 164.836 86.6965 164.836C87.3603 164.836 87.8983 165.885 87.8983 167.18Z" fill="#001540"/>
<path d="M91.4453 179.17C91.2562 178.675 91.6189 178.143 92.1463 178.143H96.5695C97.0964 178.143 97.4597 178.675 97.2706 179.17L96.1609 182.074H92.5549L91.4453 179.17Z" fill="#001540"/>
<path d="M92.7067 182.83H96.0123L96.3127 185.099H92.4062L92.7067 182.83Z" fill="#001540"/>
<path fill-rule="evenodd" clip-rule="evenodd" d="M79.9185 185.854C79.0384 185.854 78.3469 186.612 78.4215 187.494L79.7858 203.698H108.632L109.996 187.494C110.071 186.612 109.379 185.854 108.499 185.854H79.9185ZM94.293 195.634C95.4751 195.634 96.4335 194.673 96.4335 193.487C96.4335 192.301 95.4751 191.339 94.293 191.339C93.1109 191.339 92.1525 192.301 92.1525 193.487C92.1525 194.673 93.1109 195.634 94.293 195.634Z" fill="#001540"/>
<path fill-rule="evenodd" clip-rule="evenodd" d="M100.818 178.142L99.1055 184.948H109.406C110.284 184.948 110.975 185.701 110.904 186.581L110.505 191.565C111.008 192.102 111.335 192.968 111.335 193.945C111.335 195.167 110.824 196.215 110.096 196.662L109.569 203.241C110.841 203.106 113.772 202.459 115.617 200.901C117.946 198.935 118.622 195.533 118.096 193.113C117.57 190.694 115.993 186.309 112.312 182.074C109.367 178.687 103.423 178.042 100.818 178.142Z" fill="#001540"/>
<path fill-rule="evenodd" clip-rule="evenodd" d="M87.7643 178.142L89.477 184.948H79.1762C78.2988 184.948 77.6079 185.701 77.6788 186.581L78.0778 191.565C77.5743 192.102 77.2478 192.968 77.2478 193.945C77.2478 195.167 77.7581 196.215 78.4864 196.662L79.0138 203.241C77.7411 203.106 74.8106 202.459 72.9652 200.901C70.6367 198.935 69.9606 195.533 70.4864 193.113C71.0122 190.694 72.5896 186.309 76.2708 182.074C79.2157 178.687 85.1598 178.042 87.7643 178.142Z" fill="#001540"/>
<path d="M79.7852 204.304C79.7852 204.972 80.3232 205.513 80.987 205.513H107.429C108.093 205.513 108.631 204.972 108.631 204.304H79.7852Z" fill="#001540"/>
<path d="M356.881 11.4171C356.881 17.7225 353.181 22.8341 348.617 22.8341C344.053 22.8341 340.354 17.7225 340.354 11.4171C339.979 2.87317 344.053 0 348.617 0C353.181 0 357.782 4.00731 356.881 11.4171Z" fill="#001540"/>
<path d="M357.482 12.7784C357.482 14.073 356.944 15.1223 356.28 15.1223C355.616 15.1223 355.078 14.073 355.078 12.7784C355.078 11.484 355.616 10.4346 356.28 10.4346C356.944 10.4346 357.482 11.484 357.482 12.7784Z" fill="#001540"/>
<path d="M342.008 12.7784C342.008 14.073 341.47 15.1223 340.806 15.1223C340.142 15.1223 339.604 14.073 339.604 12.7784C339.604 11.484 340.142 10.4346 340.806 10.4346C341.47 10.4346 342.008 11.484 342.008 12.7784Z" fill="#001540"/>
<path d="M345.555 24.7687C345.366 24.2735 345.728 23.7412 346.256 23.7412H350.679C351.206 23.7412 351.569 24.2735 351.38 24.7687L350.27 27.6729H346.664L345.555 24.7687Z" fill="#001540"/>
<path d="M346.816 28.4297H350.122L350.422 30.698H346.516L346.816 28.4297Z" fill="#001540"/>
<path fill-rule="evenodd" clip-rule="evenodd" d="M334.028 31.4541C333.148 31.4541 332.456 32.2116 332.531 33.094L333.895 49.298H362.741L364.106 33.094C364.18 32.2116 363.489 31.4541 362.609 31.4541H334.028ZM348.402 41.234C349.584 41.234 350.543 40.2724 350.543 39.0864C350.543 37.9003 349.584 36.9388 348.402 36.9388C347.22 36.9388 346.262 37.9003 346.262 39.0864C346.262 40.2724 347.22 41.234 348.402 41.234Z" fill="#001540"/>
<path fill-rule="evenodd" clip-rule="evenodd" d="M354.93 23.7411L353.217 30.5461H363.518C364.395 30.5461 365.086 31.2996 365.015 32.1798L364.616 37.1637C365.119 37.7003 365.446 38.5664 365.446 39.5436C365.446 40.7651 364.936 41.8131 364.207 42.2607L363.68 48.8397C364.953 48.705 367.883 48.0571 369.729 46.4996C372.057 44.5337 372.733 41.1313 372.207 38.7118C371.682 36.2923 370.104 31.907 366.423 27.6728C363.478 24.2855 357.534 23.6403 354.93 23.7411Z" fill="#001540"/>
<path fill-rule="evenodd" clip-rule="evenodd" d="M341.876 23.7411L343.588 30.5461H333.288C332.41 30.5461 331.719 31.2996 331.79 32.1798L332.189 37.1637C331.686 37.7003 331.359 38.5664 331.359 39.5436C331.359 40.7651 331.869 41.8131 332.598 42.2607L333.125 48.8397C331.852 48.705 328.922 48.0571 327.077 46.4996C324.748 44.5337 324.072 41.1313 324.598 38.7118C325.124 36.2923 326.701 31.907 330.382 27.6728C333.327 24.2855 339.271 23.6403 341.876 23.7411Z" fill="#001540"/>
<path d="M333.895 49.9023C333.895 50.5705 334.433 51.1121 335.096 51.1121H361.539C362.202 51.1121 362.741 50.5705 362.741 49.9023H333.895Z" fill="#001540"/>
<path d="M620.582 163.156C620.582 169.462 616.879 174.574 612.319 174.574C607.754 174.574 604.051 169.462 604.051 163.156C603.678 154.612 607.754 151.739 612.319 151.739C616.879 151.739 621.482 155.747 620.582 163.156Z" fill="#001540"/>
<path d="M621.183 164.518C621.183 165.812 620.645 166.861 619.979 166.861C619.313 166.861 618.775 165.812 618.775 164.518C618.775 163.223 619.313 162.174 619.979 162.174C620.645 162.174 621.183 163.223 621.183 164.518Z" fill="#001540"/>
<path d="M605.709 164.518C605.709 165.812 605.171 166.861 604.505 166.861C603.839 166.861 603.301 165.812 603.301 164.518C603.301 163.223 603.839 162.174 604.505 162.174C605.171 162.174 605.709 163.223 605.709 164.518Z" fill="#001540"/>
<path d="M609.255 176.508C609.063 176.013 609.426 175.48 609.953 175.48H614.38C614.907 175.48 615.27 176.013 615.078 176.508L613.97 179.412H610.363L609.255 176.508Z" fill="#001540"/>
<path d="M610.513 180.168H613.821L614.12 182.437H610.215L610.513 180.168Z" fill="#001540"/>
<path fill-rule="evenodd" clip-rule="evenodd" d="M597.727 183.193C596.848 183.193 596.156 183.951 596.23 184.833L597.594 201.037H626.441L627.805 184.833C627.879 183.951 627.187 183.193 626.308 183.193H597.727ZM612.1 192.973C613.283 192.973 614.242 192.012 614.242 190.826C614.242 189.64 613.283 188.678 612.1 188.678C610.917 188.678 609.958 189.64 609.958 190.826C609.958 192.012 610.917 192.973 612.1 192.973Z" fill="#001540"/>
<path fill-rule="evenodd" clip-rule="evenodd" d="M618.626 175.48L616.916 182.286H627.214C628.093 182.286 628.785 183.039 628.711 183.919L628.311 188.903C628.817 189.44 629.142 190.306 629.142 191.283C629.142 192.504 628.631 193.553 627.906 194L627.379 200.579C628.652 200.444 631.582 199.796 633.425 198.239C635.753 196.273 636.43 192.871 635.902 190.451C635.38 188.032 633.803 183.647 630.122 179.412C627.176 176.025 621.231 175.38 618.626 175.48Z" fill="#001540"/>
<path fill-rule="evenodd" clip-rule="evenodd" d="M605.574 175.48L607.284 182.286H596.986C596.107 182.286 595.415 183.039 595.49 183.919L595.889 188.903C595.383 189.44 595.058 190.306 595.058 191.283C595.058 192.504 595.569 193.553 596.294 194L596.821 200.579C595.548 200.444 592.618 199.796 590.775 198.239C588.447 196.273 587.77 192.871 588.298 190.451C588.82 188.032 590.397 183.647 594.078 179.412C597.024 176.025 602.969 175.38 605.574 175.48Z" fill="#001540"/>
<path d="M597.594 201.642C597.594 202.31 598.132 202.851 598.792 202.851H625.237C625.903 202.851 626.441 202.31 626.441 201.642H597.594Z" fill="#001540"/>
</g>
<defs>
<clipPath id="clip0">
<rect width="700" height="698" fill="white"/>
</clipPath>
</defs>
</svg>
