<?xml version="1.0" encoding="utf-8"?>
<!-- Generator: Adobe Illustrator 17.0.0, SVG Export Plug-In . SVG Version: 6.00 Build 0)  -->
<!DOCTYPE svg PUBLIC "-//W3C//DTD SVG 1.1//EN" "http://www.w3.org/Graphics/SVG/1.1/DTD/svg11.dtd">
<svg version="1.1" id="Réteg_1" xmlns="http://www.w3.org/2000/svg" xmlns:xlink="http://www.w3.org/1999/xlink" x="0px" y="0px"
	 width="51.965px" height="30px" viewBox="0.017 5.255 51.965 30" enable-background="new 0.017 5.255 51.965 30"
	 xml:space="preserve">
<path d="M51.248,33.327c-0.98-2.602-2.908-7.5-3.398-8.633c-0.214-0.52-2.02-5.082-3.98-10.194c-1.99-5.082-3.765-9.245-3.949-9.245
	c-0.214,0-1.071,2.112-1.99,4.653c-2.51,7.286-2.847,8.204-3.061,8.204c-0.153,0-1.469-3.796-2.051-5.969
	c-0.673-2.418-2.235-6.735-2.51-6.827c-0.306-0.092-0.704,1.01-4.133,12.184c-0.765,2.449-1.806,5.663-2.296,7.194
	c-0.918,2.724-0.949,2.755-1.286,1.837c-0.184-0.52-1.041-2.755-1.898-4.99c-1.684-4.5-1.684-3.857,0.061-8.02
	c0.551-1.255,0.98-2.847,0.98-3.52c0.061-3.765-3.306-5.878-6.49-4.102c-1.347,0.765-2.082,1.898-2.235,3.52
	c-0.153,1.5,0.092,2.418,1.99,7.255l1.531,3.918l-1.378,3.429l-1.378,3.429l-0.49-1.224c-0.276-0.673-2.388-5.663-4.684-11.112
	L4.442,5.255H2.146c-1.684,0-2.235,0.092-2.112,0.367c0.306,0.765,5.173,12.98,6.765,17.082c0.888,2.265,2.357,6.031,3.276,8.327
	c0.918,2.326,1.806,4.224,1.99,4.224c0.184,0,0.49-0.367,0.673-0.857c0.98-2.51,4.041-11.663,4.041-12
	c0-1.133,0.735,0.673,2.602,6.52c1.286,3.98,2.173,6.337,2.388,6.245c0.214-0.061,1.378-3.337,2.602-7.286
	c3.214-10.378,4.316-13.837,4.592-14.265c0.122-0.184,1.041,1.837,2.051,4.592l1.867,4.959l-1.316,3.061
	c-1.408,3.306-1.622,4.929-0.888,6.735c1.194,2.847,5.694,3.061,7.622,0.337c0.551-0.765,0.673-1.316,0.643-2.939
	c-0.061-1.653-0.337-2.663-1.776-6.122l-1.745-4.133l1.316-3.306c0.704-1.806,1.378-3.276,1.5-3.276
	c0.092,0,0.857,1.684,1.714,3.735c0.857,2.082,2.908,6.98,4.531,10.867l3,7.133h2.235h2.265L51.248,33.327z M19.013,15.051
	l-0.49,1.041l-0.735-1.653c-1.929-4.378-2.327-7.286-1.071-8.265c0.704-0.582,0.918-0.582,2.143-0.184
	c0.888,0.306,1.653,1.806,1.745,3.459C20.697,10.704,20.177,12.541,19.013,15.051z M34.656,34.643
	c-1.653,0.643-3.245-1.133-3.245-3.612c0-1.378,0.398-2.878,1.469-5.449l0.49-1.194l0.582,1.133
	c0.306,0.612,0.918,2.143,1.347,3.398C36.462,32.378,36.279,34.031,34.656,34.643z"/>
</svg>
