<?xml version="1.0" encoding="utf-8"?>
<!-- Generator: Adobe Illustrator 17.0.0, SVG Export Plug-In . SVG Version: 6.00 Build 0)  -->
<!DOCTYPE svg PUBLIC "-//W3C//DTD SVG 1.1//EN" "http://www.w3.org/Graphics/SVG/1.1/DTD/svg11.dtd">
<svg version="1.1" id="Layer_1" xmlns="http://www.w3.org/2000/svg" xmlns:xlink="http://www.w3.org/1999/xlink" x="0px" y="0px"
	 width="639.021px" height="739.926px" viewBox="0 0 639.021 739.926" enable-background="new 0 0 639.021 739.926"
	 xml:space="preserve">
<g>
	<g>
		<path d="M269.391,242.219c-33.915,0-55.858,71.817-55.858,109.323c0,30.723,12.768,31.122,19.949,31.122
			c10.773,0,27.531-9.576,31.919-29.926l20.349-96.555C284.951,250.996,281.36,242.219,269.391,242.219z"/>
		<path d="M204.753,470.043c0,5.587,7.182,13.164,15.96,13.164c8.38,0,18.354-7.577,23.541-31.119l4.788-23.542
			C223.906,436.928,204.753,448.498,204.753,470.043z"/>
		<path d="M583.654,183.446L363.68,49.635c-19.979-12.154-53.111-12.913-73.626-1.687L64.184,171.546
			c-20.515,11.227-37.738,39.54-38.274,62.92l-5.896,257.409c-0.536,23.38,15.374,52.453,35.353,64.607l219.975,133.81
			c19.98,12.154,53.112,12.912,73.627,1.687L574.838,568.38c20.515-11.226,37.738-39.54,38.273-62.92l5.896-257.408
			C619.543,224.672,603.635,195.6,583.654,183.446z M383.705,490.023c-29.709,0-45.208-15.5-45.208-41.332
			c0-5.49,0.646-11.626,2.261-18.404l8.781-41.115c-14.85,10.322-30.207,19.347-39.189,24.428l-7.844,37.291
			c-11.97,57.056-46.283,67.829-72.615,67.829c-24.338,0-47.081-17.157-47.081-43.089c0-37.107,31.12-48.679,69.026-59.852
			l3.59-16.756c-11.57,12.369-27.131,22.344-47.879,22.344c-27.131,0-53.065-16.758-53.065-64.238
			c0-53.863,33.116-139.646,102.539-139.646c22.743,0,32.319,8.778,32.319,21.146l3.989-19.151h57.853l-36.667,174.32
			c11.85-7.087,27.167-16.823,39.746-26.736l21.048-98.554l47.791-6.458l-15.499,72.653c13.238-8.072,20.019-9.041,26.476-9.041
			c22.605,0,38.104,14.208,38.104,55.217C472.181,418.66,452.161,490.023,383.705,490.023z"/>
		<path d="M422.453,348.587c-4.521,0-15.499,1.616-19.052,5.813l-17.759,82.02c-0.648,2.584-0.97,5.167-0.97,7.428
			c0,9.362,5.49,14.854,17.114,14.854c20.99,0,37.78-45.209,37.78-79.114C439.567,363.766,434.077,348.587,422.453,348.587z"/>
	</g>
	<path d="M10.013,471.875l5.896-257.409c0.536-23.38,17.759-51.693,38.274-62.92l225.87-123.598
		c20.515-11.227,53.647-10.468,73.626,1.687l219.975,133.811c8.018,4.878,15.378,12.483,21.285,21.349
		c-5.909-16.871-17.646-33.052-31.285-41.349L343.68,9.635C323.7-2.519,290.568-3.278,270.053,7.949L44.184,131.546
		c-20.515,11.227-37.738,39.54-38.274,62.92L0.013,451.875c-0.321,13.997,5.256,30.031,14.069,43.258
		C11.334,487.289,9.843,479.295,10.013,471.875z"/>
	<path d="M624.939,244.794c2.747,7.845,4.238,15.838,4.068,23.258l-5.896,257.408c-0.535,23.38-17.759,51.694-38.273,62.92
		L358.969,711.978c-20.516,11.226-53.647,10.468-73.627-1.687L65.366,576.482c-8.018-4.878-15.377-12.483-21.284-21.349
		c5.909,16.871,17.646,33.053,31.284,41.349l219.975,133.81c19.98,12.154,53.112,12.912,73.627,1.687L594.838,608.38
		c20.515-11.226,37.738-39.54,38.273-62.92l5.896-257.408C639.328,274.055,633.752,258.021,624.939,244.794z"/>
</g>
</svg>
