<?xml version="1.0" encoding="utf-8"?>
<svg version="1.1" id="logo-webery" xmlns="http://www.w3.org/2000/svg" xmlns:xlink="http://www.w3.org/1999/xlink" x="0px" y="0px" width="90" height="22" viewBox="0 0 785.6 187.5" xml:space="preserve">
  <path fill="currentColor" class="logo-webery-w" d="M190.7,0c-9,0-16.8,6-19.3,14.6l-23.3,83.2L120.9,0l-16.2,0.1L88.5,0L61.3,97.8L37.9,14.6
    C35.5,6,27.6,0,18.6,0h-1H0l45.6,155.5H69c4.4,0,8.3-2.9,9.6-7.2l26.1-88.7l28.2,95.9h23.4c4.4,0,8.3-2.9,9.6-7.2L209.3,0h-17.6
    H190.7z"/>
  <path fill="currentColor" class="logo-webery-e-1" d="M263.4,32.3c-17.3,0-33.9,6.7-44.7,19.4c-9.7,11.7-13.8,25.9-14.3,42.1c-0.4,15.3,4.3,30,14.3,42.1
    c10.8,13,27.4,18.6,44.7,19.4c17.3,0.9,34.1-5.8,45.8-18.8c2.6-3,5-6.3,6.9-9.5l-16.2-7.1c-6.7-2.9-14.5-1.9-20.3,2.5
    c-3.7,2.9-9.1,5.4-16.2,5.4c-8.4,0-16.4-3.5-21.2-9.9c-3.5-4.5-5.2-10.2-6-16.2h85.7c0.2-2.6,0.4-5.4,0.4-8
    c0-15.6-4.5-30.5-14.3-42.1C297.3,38.7,280.7,32.3,263.4,32.3z M237.5,79.1c1.1-3.5,2.6-6.7,4.8-9.5c4.8-6.7,12.7-9.9,21.2-9.9
    c8.6,0,16.4,3.2,21.4,9.9c1.9,2.8,3.5,6,4.5,9.5H237.5z"/>
  <path fill="currentColor" class="logo-webery-b" d="M398.4,32.7c-11.4,0-22.1,3-30.7,9.2V20c0-11-9-20-20-20h-11.2v97.5c0,33.5,24.9,57.9,59.1,57.9
    c34.3,0,63.3-26.2,63.3-62.7C459,59.5,431.1,32.7,398.4,32.7z M428.6,96.9c-1,15.3-13.4,27.8-28.8,28.8
    c-18.6,1.2-33.9-14.2-32.8-32.8c1-15.3,13.4-27.8,28.8-28.8C414.4,62.9,429.8,78.3,428.6,96.9z"/>
  <path fill="currentColor" class="logo-webery-e-2" d="M531.9,32.3c-17.3,0-33.9,6.7-44.7,19.4c-9.7,11.7-13.8,25.9-14.3,42.1c-0.4,15.3,4.3,30,14.3,42.1
    c10.8,13,27.4,18.6,44.7,19.4c17.3,0.9,34.1-5.8,45.8-18.8c2.6-3,5-6.3,6.9-9.5l-16.2-7.1c-6.7-2.9-14.5-1.9-20.3,2.5
    c-3.7,2.9-9.1,5.4-16.2,5.4c-8.4,0-16.4-3.5-21.2-9.9c-3.5-4.5-5.2-10.2-6-16.2h85.7c0.2-2.6,0.4-5.4,0.4-8
    c0-15.6-4.5-30.5-14.3-42.1C565.8,38.7,549.2,32.3,531.9,32.3z M506,79.1c1.1-3.5,2.6-6.7,4.8-9.5c4.8-6.7,12.7-9.9,21.2-9.9
    c8.6,0,16.4,3.2,21.4,9.9c1.9,2.8,3.5,6,4.5,9.5H506z"/>
  <path fill="currentColor" class="logo-webery-r" d="M657.9,31.9c-13.2-0.1-52.7,2.9-52.7,44.6v78.9h31.4v-77c0-14,9.1-17.6,16.3-18.7c0.7-0.1,1.4-0.3,2-0.5
    c8.3-2.5,14.3-10.2,14.3-19.3v-8L657.9,31.9L657.9,31.9z"/>
  <path fill="currentColor" class="logo-webery-y" d="M754.2,32.3v60.3c0,13.7-8,22.2-20.9,22.2c-12.5,0-20.3-8.5-20.3-22.2V52.2c0-11-9-20-20-20h-11.1v63.3
    c0,18.7,9.1,33.7,23.5,41.2c3.7,2,8.5,3.3,8.5,3.3c4.1,1.1,8.4,1.7,13,1.7c10.7,0,20-3.1,27.3-8.9v6c0,13.6-8.5,23.5-24.7,23.5
    c-3,0-9.8-0.5-14.6-3.7c-3.4-2.2-7.4-3.3-11.4-3.3h-21.6c6.3,23.9,28.9,32.2,52.9,32.2c14.8,0,27.5-4.8,36.7-13.8
    c9.3-9.1,14.1-21.6,14.1-36.2V32.3H754.2z"/>
</svg>
