<svg width="114" height="53" viewBox="0 0 114 53" fill="none" xmlns="http://www.w3.org/2000/svg">
<path fill-rule="evenodd" clip-rule="evenodd" d="M90.7659 48.9609V45.625C90.7659 45.625 91.9612 45.3242 93.8831 45.3242C95.7894 45.3242 96.9925 45.625 96.9925 45.625V46.7656C96.9925 46.7656 95.6448 46.5039 93.8831 46.4961C93.0355 46.4961 92.4456 46.5977 92.098 46.6367C92.098 46.9062 92.098 47.6797 92.098 47.9531C92.4066 47.9844 92.9886 48.0859 93.8675 48.0859C95.68 48.0859 96.9925 47.8281 96.9925 47.8281V48.9609C96.9925 48.9609 95.7698 49.2617 93.8831 49.2617C91.9808 49.2617 90.7659 48.9609 90.7659 48.9609ZM53.3597 9.99609C54.1526 9.99609 54.8792 9.76953 54.8792 9.76953L64.5081 6.71875C66.598 6.05078 67.1136 5.03906 64.9691 4.28906L54.9495 0.878906C54.9495 0.878906 54.2386 0.632812 53.3792 0.632812C52.5237 0.632812 51.8089 0.878906 51.8089 0.878906L41.8245 4.28906C39.6917 5.02734 40.262 6.03906 42.0433 6.63672L51.8792 9.76953C51.8792 9.76953 52.5706 9.99609 53.3597 9.99609ZM54.8792 13.4062C54.8792 13.4062 54.1644 13.6289 53.3792 13.6289C52.9495 13.6289 52.3948 13.5312 51.9847 13.3984L43.4534 10.5V12.4961L51.9847 15.4102C51.9847 15.4102 52.6292 15.6367 53.3636 15.6367C54.098 15.6367 54.8128 15.4297 54.8128 15.4297L66.3362 11.8047L63.2776 10.7422L54.8792 13.4062ZM54.8792 19.0352C54.8792 19.0352 54.1644 19.2578 53.3792 19.2617C52.9495 19.2617 52.3948 19.1602 51.9847 19.0273L43.4534 16.1289V18.1289L51.9847 21.0391C51.9847 21.0391 52.6292 21.2656 53.3636 21.2656C54.098 21.2656 54.8128 21.0625 54.8128 21.0625L66.3362 17.4336L63.2776 16.375L54.8792 19.0352ZM13.3441 38.5312V37.4336H22.0667V35.3438H13.3323V34.2109C13.3323 33.7109 13.6722 33.4375 14.2933 33.4375H22.0667V31.1875H14.2347C12.8519 31.1875 11.8362 31.5 11.2191 32.1172C10.5042 32.8359 10.5042 33.7969 10.5042 34.207V34.2461C10.5042 35.7734 10.4964 36.6875 10.4886 37.2891C10.4847 38.207 10.4808 38.3984 10.5237 38.9258C10.6761 40.7891 11.8441 41.5859 14.43 41.5859H22.0823V39.3398H14.3167C13.512 39.3398 13.3441 38.8984 13.3441 38.5312ZM62.7308 37.8477L62.7034 38.0352C62.6136 38.6289 62.4378 39.0352 61.3831 39.1992C60.7659 39.2812 60.1448 39.2969 59.2816 39.2969C58.4105 39.2969 57.7894 39.2812 57.1683 39.1992C56.0667 39.0273 55.9222 38.5898 55.8362 37.9375C55.8089 37.6992 55.7659 37.0625 55.7659 36.3906C55.7659 35.7266 55.8089 35.0664 55.8362 34.8008C55.9261 34.0703 56.2894 33.7109 57.0511 33.5977C57.6175 33.5195 58.3089 33.4844 59.223 33.4844H59.2972C60.2308 33.4844 60.9339 33.5195 61.5042 33.5977C62.2776 33.7148 62.6292 34.0625 62.7191 34.8047C62.7464 35.0586 62.7894 35.7188 62.7894 36.3906C62.7894 36.9805 62.7542 37.5469 62.7308 37.8477ZM62.3987 31.3047C61.18 31.1641 60.3323 31.1133 59.2816 31.1133C58.223 31.1133 57.3792 31.1641 56.1526 31.3047C54.4066 31.5 53.2894 32.5117 53.012 34.1562C52.9261 34.6562 52.8441 35.8594 52.8441 36.3906C52.8441 36.9062 52.9417 38.3555 53.0316 38.8711C53.2737 40.2187 54.4105 41.2266 55.9222 41.4453C57.0667 41.6055 57.973 41.668 59.2816 41.668C60.5823 41.668 61.4925 41.6055 62.6292 41.4453C64.1448 41.2266 65.2776 40.2187 65.5237 38.8711C65.6136 38.3633 65.7112 36.9102 65.7112 36.3906C65.7112 35.8594 65.6292 34.6562 65.5433 34.1562C65.2659 32.5117 64.1487 31.4961 62.3987 31.3047ZM94.9847 37.4062C94.1409 37.4531 93.4378 37.4766 92.7737 37.4766C92.1917 37.4766 91.5706 37.4609 90.8792 37.4219L90.7425 37.4141L90.7972 37.2891L92.2816 33.8789C92.3714 33.6797 92.5901 33.4688 92.9339 33.4688C93.2191 33.4688 93.4769 33.6289 93.5862 33.8789L95.0667 37.2734L95.1214 37.3984L94.9847 37.4062ZM96.0862 33.0625C95.5237 31.7461 94.5042 31.1055 92.9651 31.1055H92.9026C91.3636 31.1055 90.3441 31.7461 89.7816 33.0664L86.0394 41.5898H88.9534L89.7737 39.6445L89.8011 39.5859L89.8675 39.5898C91.0237 39.668 91.9183 39.7031 92.7737 39.7031C93.7034 39.7031 94.6644 39.6602 95.9964 39.5664L96.0628 39.5625L96.0901 39.6211L96.9261 41.5898H99.8401L96.0862 33.0625ZM47.8714 36.3906C47.5159 36.6055 46.7776 36.6914 45.2425 36.6914H45.1253C43.7581 36.6914 42.6136 36.6055 42.0003 36.5312L41.9183 36.5195V33.6289L42.0042 33.6172C42.4612 33.5703 43.5355 33.457 45.1253 33.457H45.1917C46.5784 33.457 47.348 33.5508 47.762 33.7695C48.2151 34.0117 48.3011 34.3789 48.3089 35.0117C48.3089 35.7812 48.262 36.168 47.8714 36.3906ZM51.1722 41.4805C51.055 40.8125 50.6722 39.1719 49.5901 38.3633L49.4769 38.2812L49.598 38.207C50.1175 37.8984 50.9964 37.2031 51.0081 36.0156V35.582C51.0081 35.0313 51.0003 34.3867 50.9456 33.7773C50.7698 31.9297 49.0316 31.1289 45.1253 31.0938C45.012 31.0938 44.8987 31.0938 44.7855 31.0938C42.262 31.0938 39.7698 31.3945 39.2855 31.4531L39.2269 31.4609V41.5898H41.9183V38.9141L42.0159 38.9258C42.1487 38.9336 42.3206 38.9453 42.3987 38.9531C43.18 39.0117 44.3519 39.0547 45.1253 39.0547L45.8089 39.0508H46.5316C46.5433 39.0508 46.5589 39.0508 46.5745 39.0508C47.2073 39.0508 47.8441 40.3086 48.1448 41.5508L48.1526 41.5898H51.1839L51.18 41.5273C51.1761 41.5156 51.1722 41.5 51.1722 41.4805ZM81.9183 41.5898H84.6136V31.1875H81.9183V41.5898ZM34.0198 31.168L34.0316 36.2578C34.0316 36.75 34.0081 37.25 33.9651 37.7148C33.9105 38.1875 33.6331 39.0078 32.4222 39.1797C31.8089 39.2578 31.2737 39.2734 30.3831 39.2734C29.4651 39.2734 29.2464 39.2578 28.637 39.1797C27.6605 39.0391 27.5003 38.3789 27.4183 37.7148C27.3909 37.4609 27.348 36.9414 27.348 36.2578L27.3401 31.168H24.4378L24.4222 36.3945C24.4222 37.6953 24.555 38.5664 24.6136 38.8789C24.8597 40.2227 25.9925 41.2305 27.5081 41.4492C28.6019 41.6055 29.2659 41.6719 30.5589 41.6719H30.6292C31.8792 41.6719 32.7269 41.6094 33.8753 41.4492C35.3948 41.2305 36.5276 40.2227 36.7659 38.8789C36.93 37.9531 36.9573 36.9258 36.9573 36.3945L36.9456 31.168H34.0198ZM73.93 38.9062C73.8167 39.1445 73.6409 39.2656 73.3636 39.2656C73.1019 39.2656 72.887 39.1289 72.7972 38.9062L69.43 31.1836H66.3128L70.1214 39.6641C70.6253 40.8047 71.6331 41.6875 73.3636 41.6758H73.3909C75.2191 41.6758 76.2503 40.5273 76.6019 39.6641L80.3987 31.1836H77.2816L73.93 38.9062ZM79.3167 46.25L75.9339 49.2852L72.5511 46.2461L73.5628 45.3242C73.5628 45.3242 75.6292 47.3164 75.9339 47.5977C76.2386 47.3164 78.3089 45.3242 78.3089 45.3242L79.3167 46.25ZM87.9378 49.1836C87.9378 49.1836 86.9495 48.3906 85.5003 47.6367C85.0941 47.4258 84.7542 47.2891 84.4378 47.1602V49.1836H83.1175V45.3945C83.1175 45.3945 84.2347 45.6094 85.5042 46.2695C86.9534 47.0195 87.9378 47.7461 87.9378 47.7461V45.3906H89.262V49.1836H87.9378ZM80.2269 49.1836H81.5901V45.3867H80.2269V49.1836ZM98.473 49.1836H99.8401V45.3867H98.473V49.1836Z" fill="#015EA4"/>
<path fill-rule="evenodd" clip-rule="evenodd" d="M102.914 45.3906H104.812C105.508 45.3906 105.941 45.0352 106.102 44.8672C106.262 44.6992 106.633 44.2812 106.633 43.7891V42.2109C106.633 41.918 106.871 41.6797 107.164 41.6797H109.219C109.512 41.6797 109.75 41.918 109.75 42.2109V44.2695C109.75 44.5625 109.512 44.8008 109.219 44.8008H107.645C107.152 44.8008 106.734 45.1719 106.562 45.332C106.395 45.4922 106.047 45.9297 106.043 46.6211V48.5195H102.914V45.3906ZM66.3359 18.957V17.4336L56.1523 20.6406L54.8828 21.0391C54.8828 21.0391 54.8711 21.0391 54.8516 21.0508L54.8086 21.0586C54.8086 21.0586 54.1055 21.2617 53.3789 21.2656V24.8984C54.1641 24.8984 54.8828 24.6719 54.8828 24.6719L64.5078 21.6211C66.4883 21.0117 66.3359 20.7266 66.3359 18.957ZM66.3359 13.3164V11.8047L54.8086 15.4297C54.8086 15.4297 54.1055 15.6328 53.3789 15.6367V19.2617C54.1641 19.2578 54.8828 19.0352 54.8828 19.0352L64.5078 15.9805C66.4883 15.3711 66.3359 15.0898 66.3359 13.3164ZM66.3398 5.46875C66.2656 5.91797 65.6055 6.37109 64.5039 6.71875L54.8828 9.76953C54.8828 9.76953 54.1641 9.99219 53.3789 9.99609V13.6328C54.1641 13.6289 54.8828 13.4062 54.8828 13.4062L64.5039 10.3516C66.4883 9.74219 66.3438 9.46094 66.3438 7.6875L66.3398 5.46875ZM113.688 47.0508C113.688 46.5508 113.484 46.1016 113.16 45.7734C112.84 45.4492 112.387 45.25 111.883 45.25C110.852 45.25 110.035 46.0859 110.035 47.0859C110.035 47.2695 110.113 47.6133 110.113 47.7617C110.113 48.5508 109.473 49.1836 108.688 49.1836H107.164C106.871 49.1836 106.633 49.4219 106.633 49.7148V51.7734C106.633 52.0664 106.871 52.3047 107.164 52.3047H109.219C109.512 52.3047 109.75 52.0664 109.75 51.7734V50.2461C109.75 49.4609 110.391 48.8242 111.176 48.8242C111.32 48.8242 111.668 48.9023 111.852 48.9023C112.852 48.9023 113.688 48.082 113.688 47.0508Z" fill="#EB1C2A"/>
</svg>
