<svg id="Ebene_1" data-name="Ebene 1" xmlns="http://www.w3.org/2000/svg" viewBox="0 0 176.13 47.23"><defs><style>.cls-1{fill:#828282;}.cls-2{fill:#dc0028;}</style></defs><path class="cls-1" d="M392.51,301.08h-7.79l-.86,2.74.55.55h1.47v2.92h-8.17v-2.92h1.21l.61-.62,7.28-20.56h4.88l7.62,20.63.58.55h1.2v2.92h-9.37v-2.92H393l.51-.55Zm-6.76-3.27h5.59l-2.92-8.37Z" transform="translate(-332.97 -273.84)"/><path class="cls-1" d="M407.2,292v11.91l.62.62h3.33v2.75a34.23,34.23,0,0,1-4.63.34c-3,0-4.53-1.1-4.53-4.25V292h-2.13v-2.85h1.51l.62-.61,1.95-4.26h3.26v4.87h3.85V292Z" transform="translate(-332.97 -273.84)"/><path class="cls-1" d="M419.94,304.54h1.92v2.75H412v-2.75h1.51l.62-.62V292.63l-.62-.62H412v-2.92h5.46c1.37,0,1.58.79,1.58,1.51v.93h.1a6.66,6.66,0,0,1,5-2.78,11,11,0,0,1,1.38.1V296h-3.16v-2.4l-.59-.55a8.18,8.18,0,0,0-2.43.92v9.92Z" transform="translate(-332.97 -273.84)"/><path class="cls-1" d="M443.46,307.29h-5.39c-1.38,0-1.58-.79-1.58-1.51v-.65h-.17a6.4,6.4,0,0,1-4.81,2.5c-3.71,0-5.29-2.33-5.29-5.25,0-3.54,2.37-5.49,6.11-5.49h3.85v-1.48c0-2-.1-3.43-3.06-3.43a12.17,12.17,0,0,0-1.51.1l-.51.52v2.3h-3.33v-5a25.1,25.1,0,0,1,7.14-1.1c4.91,0,6.42,2.64,6.42,5.84v9.33l.62.62h1.51Zm-7.28-4.53v-2.95h-2.44c-1.65,0-2.37.68-2.37,2s.55,1.95,2.17,1.95A4.7,4.7,0,0,0,436.18,302.76Z" transform="translate(-332.97 -273.84)"/><path class="cls-1" d="M457.7,307.29c-1.37,0-1.57-.79-1.57-1.51v-.65H456a6,6,0,0,1-5,2.54c-3.67,0-6.52-3.13-6.52-9.24s3.33-9.68,7.28-9.68a5.76,5.76,0,0,1,4.05,1.79v-4.78l-.62-.61h-1.51v-2.92h5.77c1.37,0,1.57.79,1.57,1.51v20.18l.62.62h1.51v2.75Zm-1.88-4.36v-9.34a4,4,0,0,0-2.78-1.13c-2.06,0-3.09,1.72-3.09,5.9s1,5.46,3.15,5.46A4.72,4.72,0,0,0,455.82,302.93Z" transform="translate(-332.97 -273.84)"/><path class="cls-1" d="M470,289.09c1.37,0,1.58.79,1.58,1.51v13.32l.58.62h1.55v2.75h-9.48v-2.75h1.51l.62-.62V292.63l-.62-.62h-1.51v-2.92Zm-1.34-7.38c2,0,2.92,1.07,2.92,2.75s-1,2.75-2.92,2.75-2.92-1.07-2.92-2.75S466.67,281.71,468.62,281.71Z" transform="translate(-332.97 -273.84)"/><path class="cls-1" d="M490.18,289.09c1.37,0,1.58.79,1.58,1.51v13.32l.62.62h1.51v2.75h-5.46c-1.37,0-1.58-.79-1.58-1.51v-.62h-.1a6.63,6.63,0,0,1-4.95,2.47c-4.08,0-5.28-2.47-5.28-5.49v-9.51l-.62-.62h-1.51v-2.92h5.77c1.37,0,1.58.9,1.58,1.69v10.54c0,1,.1,2.43,2.09,2.43a4.91,4.91,0,0,0,2.71-.92v-10.2l-.62-.62h-1.51v-2.92Z" transform="translate(-332.97 -273.84)"/><path class="cls-1" d="M501.37,307.63a20.67,20.67,0,0,1-6.07-.79v-5.11h3.05v2l.59.62a15.89,15.89,0,0,0,2.36.17c1.86,0,2.68-1,2.68-1.92,0-1.24-.41-1.65-3.26-2.44-4.29-1.2-5.39-3.33-5.39-5.83,0-3.26,2.92-5.6,7.62-5.6a26,26,0,0,1,5.39.58v5h-3v-1.78l-.59-.55a9.31,9.31,0,0,0-1.82-.17c-1.68,0-2.67.68-2.67,1.75,0,.89.24,1.51,2.71,2.23,4.36,1.3,6.18,2.61,6.18,5.73C509.1,305.44,505.8,307.63,501.37,307.63Z" transform="translate(-332.97 -273.84)"/><path class="cls-2" d="M350.51,296.61c4.65,4.51,6.47,12.11,7.27,15.1a3.29,3.29,0,1,0,6.35-1.7c-.8-3-3-10.48-1.26-16.72,1.58-6.28,7.26-11.65,9.45-13.84a3.29,3.29,0,0,0-4.65-4.65c-2.19,2.19-7.56,7.86-13.85,9.45h0c-6.23,1.77-13.72-.46-16.72-1.26a3.29,3.29,0,0,0-1.7,6.35c3,.8,10.59,2.61,15.11,7.27Z" transform="translate(-332.97 -273.84)"/><path class="cls-1" d="M378.41,319H379l.14-.13v-5.11l-.14-.13h-.59v-.47H380l1.85,3.37,1.87-3.37h1.48v.47h-.6l-.13.13v5.11l.12.13h.61v.47h-2.28V319h.6l.13-.13v-4.37l-1.65,2.9h-.55l-1.59-2.83v4.3l.13.13h.6v.47h-2.13Z" transform="translate(-332.97 -273.84)"/><path class="cls-1" d="M390.45,319.45h-1.13c-.29,0-.37-.16-.37-.36v-.26h0a1.82,1.82,0,0,1-1.4.71,1.28,1.28,0,0,1-1.38-1.36,1.35,1.35,0,0,1,1.48-1.39h1.28v-.51c0-.62-.14-1.14-1-1.14a2.45,2.45,0,0,0-.76.14l-.13.12v.74h-.58v-1.2a4.78,4.78,0,0,1,1.7-.32,1.39,1.39,0,0,1,1.59,1.53v2.71l.13.14h.6Zm-1.55-1.1v-1h-1.07c-.51,0-.86.21-.86.83,0,.46.16.76.83.76A1.66,1.66,0,0,0,388.9,318.35Z" transform="translate(-332.97 -273.84)"/><path class="cls-1" d="M391.13,319.45V319h.6l.12-.13v-3.56l-.12-.13h-.6v-.47h1.12c.3,0,.39.15.39.36v.25h0a2.08,2.08,0,0,1,1.47-.7,1.28,1.28,0,0,1,1.39,1.44v2.81l.13.13h.6v.45H394V319h.54l.13-.13v-2.68c0-.47-.13-.93-.78-.93a1.63,1.63,0,0,0-1.24.58v3l.14.13h.54v.45Z" transform="translate(-332.97 -273.84)"/><path class="cls-1" d="M401.35,319.45h-1.13c-.29,0-.37-.16-.37-.36v-.26h0a1.82,1.82,0,0,1-1.4.71,1.28,1.28,0,0,1-1.38-1.36,1.35,1.35,0,0,1,1.48-1.39h1.28v-.51c0-.62-.14-1.14-1-1.14a2.45,2.45,0,0,0-.76.14l-.13.12v.74h-.58v-1.2a4.78,4.78,0,0,1,1.7-.32,1.39,1.39,0,0,1,1.59,1.53v2.71l.13.14h.6Zm-1.55-1.1v-1h-1.07c-.51,0-.86.21-.86.83,0,.46.16.76.83.76A1.66,1.66,0,0,0,399.8,318.35Z" transform="translate(-332.97 -273.84)"/><path class="cls-1" d="M404.05,317.67a2.24,2.24,0,0,1-.8-.12.5.5,0,0,0-.35.44c0,.23.14.38.56.38h1.42c.85,0,1.46.38,1.46,1.11,0,1-1.08,1.59-2.39,1.59s-1.94-.28-1.94-1a1.14,1.14,0,0,1,.75-1,.79.79,0,0,1-.58-.76,1.06,1.06,0,0,1,.68-.92,1.37,1.37,0,0,1-.61-1.22c0-1,.82-1.52,1.8-1.52a3,3,0,0,1,.69.09h1.6v.47h-.8v0a1.37,1.37,0,0,1,.34.94C405.87,317.18,405,317.67,404.05,317.67Zm-.8,1.43a.9.9,0,0,0-.51.8c0,.48.38.7,1.26.7s1.58-.25,1.58-.91c0-.4-.25-.59-.87-.59Zm.8-4a1.08,1.08,0,1,0,1,1.07A1,1,0,0,0,404.05,315.07Z" transform="translate(-332.97 -273.84)"/><path class="cls-1" d="M408.38,314.71c.29,0,.37.15.37.36v3.8l.12.13h.6v.45H407.2V319h.6l.13-.13v-3.56l-.13-.13h-.6v-.47Zm-.13-1.84a.45.45,0,0,1,.5.48.46.46,0,0,1-.5.49.45.45,0,0,1-.5-.49A.45.45,0,0,1,408.25,312.87Z" transform="translate(-332.97 -273.84)"/><path class="cls-1" d="M410.25,319.45V319h.59l.13-.13v-3.56l-.13-.13h-.59v-.47h1.12c.29,0,.38.15.38.36v.25h0a2.06,2.06,0,0,1,1.47-.7,1.27,1.27,0,0,1,1.38,1.44v2.81l.14.13h.59v.45h-2.21V319h.54l.12-.13v-2.68c0-.47-.12-.93-.77-.93a1.61,1.61,0,0,0-1.24.58v3l.13.13h.54v.45Z" transform="translate(-332.97 -273.84)"/><path class="cls-1" d="M418.08,317.67a2.24,2.24,0,0,1-.8-.12.5.5,0,0,0-.35.44c0,.23.14.38.56.38h1.42c.85,0,1.47.38,1.47,1.11,0,1-1.09,1.59-2.4,1.59s-1.94-.28-1.94-1a1.14,1.14,0,0,1,.75-1,.79.79,0,0,1-.58-.76,1.06,1.06,0,0,1,.68-.92,1.37,1.37,0,0,1-.61-1.22c0-1,.82-1.52,1.8-1.52a3,3,0,0,1,.69.09h1.6v.47h-.8v0a1.37,1.37,0,0,1,.34.94C419.9,317.18,419.05,317.67,418.08,317.67Zm-.8,1.43a.9.9,0,0,0-.51.8c0,.48.38.7,1.26.7s1.58-.25,1.58-.91c0-.4-.25-.59-.86-.59Zm.8-4a1.08,1.08,0,1,0,1,1.07A1,1,0,0,0,418.08,315.07Z" transform="translate(-332.97 -273.84)"/><path class="cls-1" d="M425.27,319H426v.45H423.6V319h.59l.13-.13v-3.56l-.13-.13h-.59v-.47h1.11c.3,0,.39.15.39.36v.28h0a2,2,0,0,1,1.45-.73,2.17,2.17,0,0,1,.32,0v1.48h-.51v-.67l-.14-.13a1.76,1.76,0,0,0-1.11.53v3Z" transform="translate(-332.97 -273.84)"/><path class="cls-1" d="M428.88,314.71c.29,0,.37.15.37.36v3.8l.12.13H430v.45H427.7V319h.6l.13-.13v-3.56l-.13-.13h-.6v-.47Zm-.13-1.84a.46.46,0,0,1,.51.48.46.46,0,0,1-.51.49.45.45,0,0,1-.5-.49A.45.45,0,0,1,428.75,312.87Z" transform="translate(-332.97 -273.84)"/><path class="cls-1" d="M432.37,319.54a4.88,4.88,0,0,1-1.48-.2v-1.13h.54v.62l.11.12a4.5,4.5,0,0,0,.87.07c.63,0,1-.29,1-.81s-.26-.66-1.11-.87c-1.11-.28-1.41-.77-1.41-1.4,0-.79.66-1.32,1.78-1.32a5.78,5.78,0,0,1,1.33.15v1.12h-.53v-.6l-.11-.1a3.21,3.21,0,0,0-.72-.07c-.64,0-1,.28-1,.71s.16.62,1,.83c1.11.27,1.55.67,1.55,1.39C434.23,319,433.44,319.54,432.37,319.54Z" transform="translate(-332.97 -273.84)"/><path class="cls-1" d="M438,316.66l1.55,2.24.13.1h.49v.45h-2.21V319h.57l.06-.08-1.24-1.87h-.7v1.82l.12.13h.54v.45h-2.21V319h.59l.14-.13v-5.4l-.14-.13h-.59v-.47h1.17c.3,0,.38.16.38.36v3.4h.7l1.36-1.4,0-.05h-.52v-.47H440v.47h-.56l-.15.11Z" transform="translate(-332.97 -273.84)"/><path class="cls-1" d="M441.59,318.54a.47.47,0,0,1,.52.49.7.7,0,0,1-.14.38l-.57,1.1-.38-.19.36-.68-.05-.15a.5.5,0,0,1,.26-.95Z" transform="translate(-332.97 -273.84)"/><path class="cls-1" d="M449.38,317.3h-2.85c.05,1.19.63,1.7,1.55,1.7a2.9,2.9,0,0,0,1.17-.24v.47a2.86,2.86,0,0,1-1.43.31c-1.2,0-2.14-.72-2.14-2.41s.92-2.51,2-2.51a1.77,1.77,0,0,1,1.8,1.94v.62Zm-2.85-.54h2.15v-.26c0-.94-.42-1.37-1-1.37S446.6,315.67,446.53,316.76Z" transform="translate(-332.97 -273.84)"/><path class="cls-1" d="M450.44,319.45V319h.6l.12-.13v-3.56l-.12-.13h-.6v-.47h1.12c.3,0,.39.15.39.36v.25h0a2.08,2.08,0,0,1,1.47-.7,1.28,1.28,0,0,1,1.39,1.44v2.81l.13.13h.6v.45h-2.22V319h.54l.13-.13v-2.68c0-.47-.13-.93-.78-.93a1.63,1.63,0,0,0-1.24.58v3l.14.13h.54v.45Z" transform="translate(-332.97 -273.84)"/><path class="cls-1" d="M460.66,319.45h-1.13c-.29,0-.38-.16-.38-.36v-.26h0a1.84,1.84,0,0,1-1.4.71,1.28,1.28,0,0,1-1.38-1.36,1.35,1.35,0,0,1,1.48-1.39h1.28v-.51c0-.62-.14-1.14-1-1.14a2.57,2.57,0,0,0-.77.14l-.12.12v.74h-.58v-1.2a4.76,4.76,0,0,1,1.69-.32,1.39,1.39,0,0,1,1.6,1.53v2.71l.12.14h.61Zm-1.55-1.1v-1H458c-.51,0-.87.21-.87.83,0,.46.17.76.84.76A1.66,1.66,0,0,0,459.11,318.35Z" transform="translate(-332.97 -273.84)"/><path class="cls-1" d="M462.4,312.87c.3,0,.38.16.38.36v2.07a1.77,1.77,0,0,1,1.3-.68c1,0,1.75.77,1.75,2.42s-.83,2.5-1.95,2.5a1.63,1.63,0,0,1-1.13-.48h0v0c0,.2-.09.36-.38.36h-1.13V319h.6l.13-.13v-5.4l-.13-.13h-.6v-.47Zm.38,3v2.63a1.42,1.42,0,0,0,1,.54c.71,0,1.17-.62,1.17-1.95s-.4-1.81-1.11-1.81A1.44,1.44,0,0,0,462.78,315.83Z" transform="translate(-332.97 -273.84)"/><path class="cls-1" d="M467.88,312.87c.3,0,.38.16.38.36v5.64l.13.13h.6v.45h-2.27V319h.6l.13-.13v-5.4l-.13-.13h-.6v-.47Z" transform="translate(-332.97 -273.84)"/><path class="cls-1" d="M471,314.71c.29,0,.37.15.37.36v3.8l.13.13h.6v.45h-2.28V319h.61l.12-.13v-3.56l-.12-.13h-.61v-.47Zm-.12-1.84a.45.45,0,0,1,.5.48.51.51,0,0,1-1,0A.45.45,0,0,1,470.83,312.87Z" transform="translate(-332.97 -273.84)"/><path class="cls-1" d="M472.83,319.45V319h.59l.13-.13v-3.56l-.13-.13h-.59v-.47h1.11c.3,0,.39.15.39.36v.25h0a2.05,2.05,0,0,1,1.46-.7,1.28,1.28,0,0,1,1.39,1.44v2.81l.13.13h.6v.45h-2.22V319h.54l.13-.13v-2.68c0-.47-.13-.93-.77-.93a1.63,1.63,0,0,0-1.25.58v3l.14.13H475v.45Z" transform="translate(-332.97 -273.84)"/><path class="cls-1" d="M480.66,317.67a2.34,2.34,0,0,1-.81-.12.51.51,0,0,0-.35.44c0,.23.15.38.57.38h1.41c.86,0,1.47.38,1.47,1.11,0,1-1.08,1.59-2.39,1.59s-1.94-.28-1.94-1a1.14,1.14,0,0,1,.75-1,.8.8,0,0,1-.59-.76,1.07,1.07,0,0,1,.69-.92,1.38,1.38,0,0,1-.62-1.22c0-1,.82-1.52,1.81-1.52a3.1,3.1,0,0,1,.69.09h1.59v.47h-.79l0,0a1.32,1.32,0,0,1,.34.94C482.47,317.18,481.63,317.67,480.66,317.67Zm-.81,1.43a.9.9,0,0,0-.5.8c0,.48.38.7,1.26.7s1.58-.25,1.58-.91c0-.4-.26-.59-.87-.59Zm.81-4a1.08,1.08,0,1,0,1,1.07A1,1,0,0,0,480.66,315.07Z" transform="translate(-332.97 -273.84)"/><path class="cls-1" d="M487.58,315.18v3.69l.13.13h1.12v.45s-.9.09-1.25.09c-.53,0-.81-.21-.81-.8v-3.56h-.66v-.45h.53l.13-.13.3-1.19h.51v1.32h1.06v.45Z" transform="translate(-332.97 -273.84)"/><path class="cls-1" d="M491.18,319h.69v.45H489.5V319h.6l.12-.13v-3.56l-.12-.13h-.6v-.47h1.12c.3,0,.38.15.38.36v.28h0a2,2,0,0,1,1.45-.73,2.19,2.19,0,0,1,.33,0v1.48h-.52v-.67l-.13-.13a1.74,1.74,0,0,0-1.11.53v3Z" transform="translate(-332.97 -273.84)"/><path class="cls-1" d="M498,319.45h-1.12c-.3,0-.38-.16-.38-.36v-.26h0a1.81,1.81,0,0,1-1.39.71,1.29,1.29,0,0,1-1.39-1.36,1.36,1.36,0,0,1,1.49-1.39h1.27v-.51c0-.62-.14-1.14-1-1.14a2.57,2.57,0,0,0-.77.14l-.13.12v.74H494v-1.2a4.72,4.72,0,0,1,1.69-.32,1.38,1.38,0,0,1,1.59,1.53v2.71l.13.14h.6Zm-1.55-1.1v-1h-1.07c-.51,0-.86.21-.86.83,0,.46.16.76.84.76A1.66,1.66,0,0,0,496.41,318.35Z" transform="translate(-332.97 -273.84)"/><path class="cls-1" d="M502.25,319.45c-.3,0-.37-.16-.37-.36v-.26h0a1.82,1.82,0,0,1-1.33.71c-1,0-1.77-.76-1.77-2.41s.82-2.51,2-2.51a1.79,1.79,0,0,1,1.1.39v-1.54l-.12-.13h-.61v-.47h1.18c.29,0,.37.16.37.36v5.64l.14.13h.59v.45Zm-.43-1.11v-2.71a1.36,1.36,0,0,0-1-.46c-.72,0-1.18.62-1.18,1.95s.39,1.8,1.1,1.8A1.46,1.46,0,0,0,501.82,318.34Z" transform="translate(-332.97 -273.84)"/><path class="cls-1" d="M507.93,317.3h-2.85c.05,1.19.63,1.7,1.56,1.7a2.94,2.94,0,0,0,1.17-.24v.47a2.91,2.91,0,0,1-1.43.31c-1.21,0-2.15-.72-2.15-2.41s.92-2.51,2-2.51a1.77,1.77,0,0,1,1.8,1.94v.62Zm-2.85-.54h2.15v-.26c0-.94-.41-1.37-1-1.37S505.15,315.67,505.08,316.76Z" transform="translate(-332.97 -273.84)"/></svg>