<svg width="1121" height="621" viewBox="0 0 1121 621" fill="none" xmlns="http://www.w3.org/2000/svg">
<rect x="276" y="245" width="569" height="54" fill="#5279DF"/>
<path d="M875 272.404L841 317.404L841 228L875 272.404Z" fill="#5279DF"/>
<path d="M487.379 262.545H483.689V280H487.379V262.545ZM501.239 270.642C500.915 268.23 498.972 266.739 495.665 266.739C492.316 266.739 490.109 268.29 490.117 270.812C490.109 272.773 491.344 274.043 493.901 274.554L496.168 275.006C497.31 275.236 497.83 275.653 497.847 276.31C497.83 277.085 496.987 277.639 495.717 277.639C494.421 277.639 493.56 277.085 493.339 276.02L489.768 276.207C490.109 278.713 492.239 280.256 495.708 280.256C499.1 280.256 501.529 278.526 501.538 275.943C501.529 274.051 500.293 272.918 497.754 272.398L495.384 271.92C494.165 271.656 493.714 271.239 493.722 270.608C493.714 269.824 494.6 269.312 495.725 269.312C496.987 269.312 497.737 270.003 497.915 270.847L501.239 270.642ZM514.716 270.642C514.392 268.23 512.449 266.739 509.142 266.739C505.793 266.739 503.585 268.29 503.594 270.812C503.585 272.773 504.821 274.043 507.378 274.554L509.645 275.006C510.787 275.236 511.307 275.653 511.324 276.31C511.307 277.085 510.463 277.639 509.193 277.639C507.898 277.639 507.037 277.085 506.815 276.02L503.244 276.207C503.585 278.713 505.716 280.256 509.185 280.256C512.577 280.256 515.006 278.526 515.014 275.943C515.006 274.051 513.77 272.918 511.23 272.398L508.861 271.92C507.642 271.656 507.19 271.239 507.199 270.608C507.19 269.824 508.077 269.312 509.202 269.312C510.463 269.312 511.213 270.003 511.392 270.847L514.716 270.642ZM525.695 274.426C525.704 276.182 524.502 277.102 523.198 277.102C521.826 277.102 520.94 276.139 520.931 274.597V266.909H517.3V275.244C517.309 278.304 519.099 280.17 521.732 280.17C523.701 280.17 525.116 279.156 525.704 277.622H525.84V280H529.326V266.909H525.695V274.426ZM538.196 280.256C541.435 280.256 543.616 278.679 544.128 276.25L540.77 276.028C540.403 277.026 539.466 277.545 538.256 277.545C536.44 277.545 535.29 276.344 535.29 274.392V274.384H544.205V273.386C544.205 268.938 541.511 266.739 538.051 266.739C534.199 266.739 531.702 269.474 531.702 273.514C531.702 277.665 534.165 280.256 538.196 280.256ZM535.29 272.134C535.366 270.642 536.5 269.449 538.111 269.449C539.688 269.449 540.778 270.574 540.787 272.134H535.29ZM552.197 280H555.887V273.812H558.58L561.887 280H565.961L562.254 273.216C564.239 272.364 565.339 270.634 565.339 268.247C565.339 264.778 563.046 262.545 559.083 262.545H552.197V280ZM555.887 270.847V265.562H558.376C560.506 265.562 561.538 266.509 561.538 268.247C561.538 269.977 560.506 270.847 558.393 270.847H555.887ZM573.634 280.256C576.872 280.256 579.054 278.679 579.565 276.25L576.207 276.028C575.841 277.026 574.903 277.545 573.693 277.545C571.878 277.545 570.727 276.344 570.727 274.392V274.384H579.642V273.386C579.642 268.938 576.949 266.739 573.489 266.739C569.636 266.739 567.139 269.474 567.139 273.514C567.139 277.665 569.602 280.256 573.634 280.256ZM570.727 272.134C570.804 270.642 571.938 269.449 573.548 269.449C575.125 269.449 576.216 270.574 576.224 272.134H570.727ZM594.293 284.909V266.909H590.713V269.108H590.551C590.065 268.043 589.017 266.739 586.827 266.739C583.955 266.739 581.526 268.972 581.526 273.472C581.526 277.852 583.852 280.213 586.835 280.213C588.949 280.213 590.048 278.994 590.551 277.903H590.662V284.909H594.293ZM590.739 273.455C590.739 275.79 589.733 277.324 587.986 277.324C586.205 277.324 585.233 275.739 585.233 273.455C585.233 271.188 586.188 269.628 587.986 269.628C589.75 269.628 590.739 271.119 590.739 273.455ZM605.594 274.426C605.602 276.182 604.401 277.102 603.097 277.102C601.724 277.102 600.838 276.139 600.83 274.597V266.909H597.199V275.244C597.207 278.304 598.997 280.17 601.631 280.17C603.599 280.17 605.014 279.156 605.602 277.622H605.739V280H609.224V266.909H605.594V274.426ZM618.094 280.256C621.333 280.256 623.515 278.679 624.026 276.25L620.668 276.028C620.302 277.026 619.364 277.545 618.154 277.545C616.339 277.545 615.188 276.344 615.188 274.392V274.384H624.103V273.386C624.103 268.938 621.41 266.739 617.95 266.739C614.097 266.739 611.6 269.474 611.6 273.514C611.6 277.665 614.063 280.256 618.094 280.256ZM615.188 272.134C615.265 270.642 616.398 269.449 618.009 269.449C619.586 269.449 620.677 270.574 620.685 272.134H615.188ZM637.364 270.642C637.04 268.23 635.097 266.739 631.79 266.739C628.441 266.739 626.234 268.29 626.242 270.812C626.234 272.773 627.469 274.043 630.026 274.554L632.293 275.006C633.435 275.236 633.955 275.653 633.972 276.31C633.955 277.085 633.112 277.639 631.842 277.639C630.546 277.639 629.685 277.085 629.464 276.02L625.893 276.207C626.234 278.713 628.364 280.256 631.833 280.256C635.225 280.256 637.654 278.526 637.663 275.943C637.654 274.051 636.418 272.918 633.879 272.398L631.509 271.92C630.29 271.656 629.839 271.239 629.847 270.608C629.839 269.824 630.725 269.312 631.85 269.312C633.112 269.312 633.862 270.003 634.04 270.847L637.364 270.642ZM646.912 266.909H644.449V263.773H640.818V266.909H639.028V269.636H640.818V276.455C640.801 279.02 642.548 280.29 645.182 280.179C646.119 280.145 646.784 279.957 647.151 279.838L646.58 277.136C646.401 277.17 646.017 277.256 645.676 277.256C644.952 277.256 644.449 276.983 644.449 275.977V269.636H646.912V266.909Z" fill="white"/>
<rect x="276" y="364" width="569" height="54" fill="#5279DF"/>
<path d="M875 391.404L841 436.404L841 347L875 391.404Z" fill="#5279DF"/>
<path d="M384.031 387.656C383.545 383.625 380.494 381.307 376.454 381.307C371.843 381.307 368.324 384.562 368.324 390.273C368.324 395.966 371.784 399.239 376.454 399.239C380.929 399.239 383.63 396.264 384.031 393.051L380.298 393.034C379.949 394.901 378.483 395.974 376.514 395.974C373.863 395.974 372.065 394.006 372.065 390.273C372.065 386.642 373.838 384.571 376.539 384.571C378.559 384.571 380.017 385.739 380.298 387.656H384.031ZM390.24 381.545H386.609V399H390.24V381.545ZM399.063 399.256C403.034 399.256 405.506 396.537 405.506 392.506C405.506 388.449 403.034 385.739 399.063 385.739C395.091 385.739 392.62 388.449 392.62 392.506C392.62 396.537 395.091 399.256 399.063 399.256ZM399.08 396.443C397.248 396.443 396.31 394.764 396.31 392.48C396.31 390.196 397.248 388.509 399.08 388.509C400.878 388.509 401.816 390.196 401.816 392.48C401.816 394.764 400.878 396.443 399.08 396.443ZM418.759 389.642C418.435 387.23 416.492 385.739 413.185 385.739C409.836 385.739 407.628 387.29 407.637 389.812C407.628 391.773 408.864 393.043 411.421 393.554L413.688 394.006C414.83 394.236 415.35 394.653 415.367 395.31C415.35 396.085 414.506 396.639 413.236 396.639C411.941 396.639 411.08 396.085 410.858 395.02L407.287 395.207C407.628 397.713 409.759 399.256 413.228 399.256C416.62 399.256 419.049 397.526 419.057 394.943C419.049 393.051 417.813 391.918 415.273 391.398L412.904 390.92C411.685 390.656 411.233 390.239 411.242 389.608C411.233 388.824 412.12 388.312 413.245 388.312C414.506 388.312 415.256 389.003 415.435 389.847L418.759 389.642ZM427.309 399.256C430.548 399.256 432.73 397.679 433.241 395.25L429.883 395.028C429.517 396.026 428.579 396.545 427.369 396.545C425.554 396.545 424.403 395.344 424.403 393.392V393.384H433.318V392.386C433.318 387.938 430.625 385.739 427.164 385.739C423.312 385.739 420.815 388.474 420.815 392.514C420.815 396.665 423.278 399.256 427.309 399.256ZM424.403 391.134C424.48 389.642 425.613 388.449 427.224 388.449C428.801 388.449 429.892 389.574 429.9 391.134H424.403ZM452.884 387.188H456.634C456.157 383.736 453.114 381.307 449.168 381.307C444.557 381.307 441.003 384.631 441.003 390.29C441.003 395.812 444.327 399.239 449.245 399.239C453.651 399.239 456.796 396.452 456.796 391.858V389.659H449.492V392.438H453.242C453.191 394.602 451.716 395.974 449.262 395.974C446.492 395.974 444.745 393.903 444.745 390.256C444.745 386.625 446.56 384.571 449.228 384.571C451.128 384.571 452.415 385.551 452.884 387.188ZM467.895 393.426C467.903 395.182 466.701 396.102 465.397 396.102C464.025 396.102 463.139 395.139 463.13 393.597V385.909H459.5V394.244C459.508 397.304 461.298 399.17 463.931 399.17C465.9 399.17 467.315 398.156 467.903 396.622H468.039V399H471.525V385.909H467.895V393.426ZM478.162 399.247C480.097 399.247 481.35 398.403 481.989 397.185H482.091V399H485.534V390.17C485.534 387.051 482.892 385.739 479.978 385.739C476.841 385.739 474.779 387.239 474.276 389.625L477.634 389.898C477.881 389.028 478.657 388.389 479.961 388.389C481.196 388.389 481.904 389.011 481.904 390.085V390.136C481.904 390.98 481.009 391.091 478.733 391.312C476.142 391.551 473.816 392.42 473.816 395.344C473.816 397.935 475.665 399.247 478.162 399.247ZM479.202 396.741C478.086 396.741 477.284 396.222 477.284 395.224C477.284 394.202 478.128 393.699 479.407 393.52C480.199 393.409 481.495 393.222 481.929 392.932V394.321C481.929 395.693 480.796 396.741 479.202 396.741ZM488.351 399H491.982V391.594C491.982 389.983 493.158 388.875 494.76 388.875C495.263 388.875 495.953 388.96 496.294 389.071V385.849C495.971 385.773 495.519 385.722 495.152 385.722C493.686 385.722 492.485 386.574 492.007 388.193H491.871V385.909H488.351V399ZM501.529 399.247C503.464 399.247 504.717 398.403 505.356 397.185H505.458V399H508.902V390.17C508.902 387.051 506.26 385.739 503.345 385.739C500.208 385.739 498.146 387.239 497.643 389.625L501.001 389.898C501.248 389.028 502.024 388.389 503.328 388.389C504.564 388.389 505.271 389.011 505.271 390.085V390.136C505.271 390.98 504.376 391.091 502.1 391.312C499.51 391.551 497.183 392.42 497.183 395.344C497.183 397.935 499.032 399.247 501.529 399.247ZM502.569 396.741C501.453 396.741 500.652 396.222 500.652 395.224C500.652 394.202 501.495 393.699 502.774 393.52C503.566 393.409 504.862 393.222 505.297 392.932V394.321C505.297 395.693 504.163 396.741 502.569 396.741ZM515.349 391.432C515.358 389.744 516.363 388.756 517.829 388.756C519.287 388.756 520.164 389.71 520.156 391.312V399H523.787V390.665C523.787 387.614 521.997 385.739 519.27 385.739C517.326 385.739 515.92 386.693 515.332 388.219H515.179V385.909H511.718V399H515.349V391.432ZM533.611 385.909H531.148V382.773H527.517V385.909H525.728V388.636H527.517V395.455C527.5 398.02 529.248 399.29 531.881 399.179C532.819 399.145 533.483 398.957 533.85 398.838L533.279 396.136C533.1 396.17 532.716 396.256 532.375 396.256C531.651 396.256 531.148 395.983 531.148 394.977V388.636H533.611V385.909ZM541.801 399.256C545.04 399.256 547.222 397.679 547.733 395.25L544.375 395.028C544.009 396.026 543.071 396.545 541.861 396.545C540.046 396.545 538.895 395.344 538.895 393.392V393.384H547.81V392.386C547.81 387.938 545.117 385.739 541.657 385.739C537.804 385.739 535.307 388.474 535.307 392.514C535.307 396.665 537.77 399.256 541.801 399.256ZM538.895 391.134C538.972 389.642 540.105 388.449 541.716 388.449C543.293 388.449 544.384 389.574 544.392 391.134H538.895ZM556.145 399.256C559.384 399.256 561.566 397.679 562.077 395.25L558.719 395.028C558.353 396.026 557.415 396.545 556.205 396.545C554.39 396.545 553.239 395.344 553.239 393.392V393.384H562.154V392.386C562.154 387.938 559.461 385.739 556 385.739C552.148 385.739 549.651 388.474 549.651 392.514C549.651 396.665 552.114 399.256 556.145 399.256ZM553.239 391.134C553.316 389.642 554.449 388.449 556.06 388.449C557.637 388.449 558.728 389.574 558.736 391.134H553.239ZM570.879 392.003C570.879 396.239 571.995 399.759 574.322 402.793H577.791C576.01 400.543 574.654 396.043 574.654 392.003C574.654 387.972 576.01 383.472 577.791 381.222H574.322C571.995 384.256 570.879 387.767 570.879 392.003ZM579.966 399H591.762V395.957H583.657V391.79H591.123V388.747H583.657V384.588H591.728V381.545H579.966V399ZM597.627 385.909H593.877L597.627 392.455L593.741 399H597.491L600.031 394.474L602.613 399H606.321L602.426 392.455L606.218 385.909H602.494L600.031 390.486L597.627 385.909ZM608.375 403.909H612.005V396.903H612.116C612.619 397.994 613.718 399.213 615.832 399.213C618.815 399.213 621.142 396.852 621.142 392.472C621.142 387.972 618.713 385.739 615.841 385.739C613.65 385.739 612.602 387.043 612.116 388.108H611.954V385.909H608.375V403.909ZM611.929 392.455C611.929 390.119 612.917 388.628 614.681 388.628C616.48 388.628 617.434 390.188 617.434 392.455C617.434 394.739 616.463 396.324 614.681 396.324C612.934 396.324 611.929 394.79 611.929 392.455ZM623.562 399H627.193V385.909H623.562V399ZM625.386 384.222C626.468 384.222 627.355 383.395 627.355 382.381C627.355 381.375 626.468 380.548 625.386 380.548C624.312 380.548 623.426 381.375 623.426 382.381C623.426 383.395 624.312 384.222 625.386 384.222ZM630.101 399H633.732V391.594C633.732 389.983 634.908 388.875 636.51 388.875C637.013 388.875 637.703 388.96 638.044 389.071V385.849C637.721 385.773 637.269 385.722 636.902 385.722C635.436 385.722 634.235 386.574 633.757 388.193H633.621V385.909H630.101V399ZM645.278 399.256C648.517 399.256 650.699 397.679 651.21 395.25L647.852 395.028C647.485 396.026 646.548 396.545 645.338 396.545C643.522 396.545 642.372 395.344 642.372 393.392V393.384H651.287V392.386C651.287 387.938 648.593 385.739 645.133 385.739C641.281 385.739 638.784 388.474 638.784 392.514C638.784 396.665 641.247 399.256 645.278 399.256ZM642.372 391.134C642.449 389.642 643.582 388.449 645.193 388.449C646.77 388.449 647.86 389.574 647.869 391.134H642.372ZM661.258 380.727H658.13L652.505 401.625H655.633L661.258 380.727ZM663.076 399H666.766V392.812H669.459L672.766 399H676.84L673.132 392.216C675.118 391.364 676.218 389.634 676.218 387.247C676.218 383.778 673.925 381.545 669.962 381.545H663.076V399ZM666.766 389.847V384.562H669.255C671.385 384.562 672.417 385.509 672.417 387.247C672.417 388.977 671.385 389.847 669.272 389.847H666.766ZM684.512 399.256C687.751 399.256 689.933 397.679 690.444 395.25L687.086 395.028C686.72 396.026 685.782 396.545 684.572 396.545C682.757 396.545 681.606 395.344 681.606 393.392V393.384H690.521V392.386C690.521 387.938 687.828 385.739 684.368 385.739C680.515 385.739 678.018 388.474 678.018 392.514C678.018 396.665 680.481 399.256 684.512 399.256ZM681.606 391.134C681.683 389.642 682.816 388.449 684.427 388.449C686.004 388.449 687.095 389.574 687.103 391.134H681.606ZM696.521 381.545H692.89V399H696.521V381.545ZM705.395 399.256C708.634 399.256 710.816 397.679 711.327 395.25L707.969 395.028C707.603 396.026 706.665 396.545 705.455 396.545C703.64 396.545 702.489 395.344 702.489 393.392V393.384H711.404V392.386C711.404 387.938 708.711 385.739 705.25 385.739C701.398 385.739 698.901 388.474 698.901 392.514C698.901 396.665 701.364 399.256 705.395 399.256ZM702.489 391.134C702.566 389.642 703.699 388.449 705.31 388.449C706.887 388.449 707.978 389.574 707.986 391.134H702.489ZM717.506 399.247C719.441 399.247 720.694 398.403 721.333 397.185H721.435V399H724.878V390.17C724.878 387.051 722.236 385.739 719.321 385.739C716.185 385.739 714.123 387.239 713.62 389.625L716.978 389.898C717.225 389.028 718 388.389 719.304 388.389C720.54 388.389 721.248 389.011 721.248 390.085V390.136C721.248 390.98 720.353 391.091 718.077 391.312C715.486 391.551 713.159 392.42 713.159 395.344C713.159 397.935 715.009 399.247 717.506 399.247ZM718.546 396.741C717.429 396.741 716.628 396.222 716.628 395.224C716.628 394.202 717.472 393.699 718.75 393.52C719.543 393.409 720.838 393.222 721.273 392.932V394.321C721.273 395.693 720.14 396.741 718.546 396.741ZM738.587 389.642C738.263 387.23 736.32 385.739 733.013 385.739C729.664 385.739 727.456 387.29 727.465 389.812C727.456 391.773 728.692 393.043 731.249 393.554L733.516 394.006C734.658 394.236 735.178 394.653 735.195 395.31C735.178 396.085 734.334 396.639 733.064 396.639C731.769 396.639 730.908 396.085 730.686 395.02L727.115 395.207C727.456 397.713 729.587 399.256 733.056 399.256C736.448 399.256 738.877 397.526 738.885 394.943C738.877 393.051 737.641 391.918 735.101 391.398L732.732 390.92C731.513 390.656 731.061 390.239 731.07 389.608C731.061 388.824 731.948 388.312 733.073 388.312C734.334 388.312 735.084 389.003 735.263 389.847L738.587 389.642ZM747.137 399.256C750.376 399.256 752.558 397.679 753.069 395.25L749.711 395.028C749.345 396.026 748.407 396.545 747.197 396.545C745.382 396.545 744.231 395.344 744.231 393.392V393.384H753.146V392.386C753.146 387.938 750.453 385.739 746.993 385.739C743.14 385.739 740.643 388.474 740.643 392.514C740.643 396.665 743.106 399.256 747.137 399.256ZM744.231 391.134C744.308 389.642 745.441 388.449 747.052 388.449C748.629 388.449 749.72 389.574 749.728 391.134H744.231ZM761.635 392.003C761.635 387.767 760.518 384.247 758.191 381.213H754.723C756.504 383.463 757.859 387.963 757.859 392.003C757.859 396.034 756.504 400.534 754.723 402.784H758.191C760.518 399.75 761.635 396.239 761.635 392.003Z" fill="white"/>
<rect x="276" y="483" width="569" height="54" fill="#5279DF"/>
<path d="M875 510.404L841 555.404L841 466L875 510.404Z" fill="#5279DF"/>
<path d="M475.72 518H479.411V511.812H482.104L485.411 518H489.484L485.777 511.216C487.763 510.364 488.862 508.634 488.862 506.247C488.862 502.778 486.57 500.545 482.607 500.545H475.72V518ZM479.411 508.847V503.562H481.899C484.03 503.562 485.061 504.509 485.061 506.247C485.061 507.977 484.03 508.847 481.916 508.847H479.411ZM497.157 518.256C500.396 518.256 502.577 516.679 503.089 514.25L499.731 514.028C499.364 515.026 498.427 515.545 497.217 515.545C495.401 515.545 494.251 514.344 494.251 512.392V512.384H503.165V511.386C503.165 506.938 500.472 504.739 497.012 504.739C493.16 504.739 490.663 507.474 490.663 511.514C490.663 515.665 493.126 518.256 497.157 518.256ZM494.251 510.134C494.327 508.642 495.461 507.449 497.072 507.449C498.648 507.449 499.739 508.574 499.748 510.134H494.251ZM512.498 504.909H510.035V501.773H506.404V504.909H504.614V507.636H506.404V514.455C506.387 517.02 508.134 518.29 510.768 518.179C511.705 518.145 512.37 517.957 512.737 517.838L512.165 515.136C511.987 515.17 511.603 515.256 511.262 515.256C510.538 515.256 510.035 514.983 510.035 513.977V507.636H512.498V504.909ZM523.258 512.426C523.266 514.182 522.065 515.102 520.761 515.102C519.388 515.102 518.502 514.139 518.494 512.597V504.909H514.863V513.244C514.871 516.304 516.661 518.17 519.295 518.17C521.263 518.17 522.678 517.156 523.266 515.622H523.403V518H526.888V504.909H523.258V512.426ZM529.793 518H533.423V510.594C533.423 508.983 534.599 507.875 536.202 507.875C536.705 507.875 537.395 507.96 537.736 508.071V504.849C537.412 504.773 536.96 504.722 536.594 504.722C535.128 504.722 533.926 505.574 533.449 507.193H533.312V504.909H529.793V518ZM543.244 510.432C543.252 508.744 544.258 507.756 545.724 507.756C547.181 507.756 548.059 508.71 548.05 510.312V518H551.681V509.665C551.681 506.614 549.891 504.739 547.164 504.739C545.221 504.739 543.815 505.693 543.227 507.219H543.073V504.909H539.613V518H543.244V510.432ZM560.165 518H563.856V511.812H566.549L569.856 518H573.93L570.222 511.216C572.208 510.364 573.308 508.634 573.308 506.247C573.308 502.778 571.015 500.545 567.052 500.545H560.165V518ZM563.856 508.847V503.562H566.344C568.475 503.562 569.506 504.509 569.506 506.247C569.506 507.977 568.475 508.847 566.362 508.847H563.856ZM581.602 518.256C584.841 518.256 587.023 516.679 587.534 514.25L584.176 514.028C583.81 515.026 582.872 515.545 581.662 515.545C579.847 515.545 578.696 514.344 578.696 512.392V512.384H587.611V511.386C587.611 506.938 584.918 504.739 581.457 504.739C577.605 504.739 575.108 507.474 575.108 511.514C575.108 515.665 577.571 518.256 581.602 518.256ZM578.696 510.134C578.773 508.642 579.906 507.449 581.517 507.449C583.094 507.449 584.185 508.574 584.193 510.134H578.696ZM602.261 522.909V504.909H598.682V507.108H598.52C598.034 506.043 596.986 504.739 594.795 504.739C591.923 504.739 589.494 506.972 589.494 511.472C589.494 515.852 591.821 518.213 594.804 518.213C596.918 518.213 598.017 516.994 598.52 515.903H598.631V522.909H602.261ZM598.707 511.455C598.707 513.79 597.702 515.324 595.955 515.324C594.173 515.324 593.202 513.739 593.202 511.455C593.202 509.188 594.156 507.628 595.955 507.628C597.719 507.628 598.707 509.119 598.707 511.455ZM613.562 512.426C613.571 514.182 612.369 515.102 611.065 515.102C609.693 515.102 608.807 514.139 608.798 512.597V504.909H605.168V513.244C605.176 516.304 606.966 518.17 609.599 518.17C611.568 518.17 612.983 517.156 613.571 515.622H613.707V518H617.193V504.909H613.562V512.426ZM626.063 518.256C629.302 518.256 631.484 516.679 631.995 514.25L628.637 514.028C628.271 515.026 627.333 515.545 626.123 515.545C624.308 515.545 623.157 514.344 623.157 512.392V512.384H632.072V511.386C632.072 506.938 629.379 504.739 625.918 504.739C622.066 504.739 619.569 507.474 619.569 511.514C619.569 515.665 622.032 518.256 626.063 518.256ZM623.157 510.134C623.234 508.642 624.367 507.449 625.978 507.449C627.555 507.449 628.646 508.574 628.654 510.134H623.157ZM645.333 508.642C645.009 506.23 643.066 504.739 639.759 504.739C636.41 504.739 634.202 506.29 634.211 508.812C634.202 510.773 635.438 512.043 637.995 512.554L640.262 513.006C641.404 513.236 641.924 513.653 641.941 514.31C641.924 515.085 641.08 515.639 639.81 515.639C638.515 515.639 637.654 515.085 637.433 514.02L633.862 514.207C634.202 516.713 636.333 518.256 639.802 518.256C643.194 518.256 645.623 516.526 645.631 513.943C645.623 512.051 644.387 510.918 641.847 510.398L639.478 509.92C638.259 509.656 637.808 509.239 637.816 508.608C637.808 507.824 638.694 507.312 639.819 507.312C641.08 507.312 641.83 508.003 642.009 508.847L645.333 508.642ZM654.881 504.909H652.418V501.773H648.787V504.909H646.997V507.636H648.787V514.455C648.77 517.02 650.517 518.29 653.151 518.179C654.088 518.145 654.753 517.957 655.119 517.838L654.548 515.136C654.369 515.17 653.986 515.256 653.645 515.256C652.92 515.256 652.418 514.983 652.418 513.977V507.636H654.881V504.909Z" fill="white"/>
<line x1="161" y1="152" x2="161" y2="595" stroke="#001540" stroke-width="2" stroke-dasharray="12 12"/>
<rect width="320" height="150" fill="#B6CEFF"/>
<path d="M98.5327 71.25H103.533C102.896 66.6477 98.8395 63.4091 93.5781 63.4091C87.4304 63.4091 82.6918 67.8409 82.6918 75.3864C82.6918 82.75 87.1236 87.3182 93.6804 87.3182C99.5554 87.3182 103.749 83.6023 103.749 77.4773V74.5455H94.0099V78.25H99.0099C98.9418 81.1364 96.9759 82.9659 93.7031 82.9659C90.0099 82.9659 87.6804 80.2045 87.6804 75.3409C87.6804 70.5 90.1009 67.7614 93.6577 67.7614C96.1918 67.7614 97.9077 69.0682 98.5327 71.25ZM118.547 79.5682C118.558 81.9091 116.956 83.1364 115.217 83.1364C113.388 83.1364 112.206 81.8523 112.195 79.7955V69.5455H107.354V80.6591C107.365 84.7386 109.751 87.2273 113.263 87.2273C115.888 87.2273 117.774 85.875 118.558 83.8295H118.74V87H123.388V69.5455H118.547V79.5682ZM132.237 87.3295C134.817 87.3295 136.487 86.2045 137.339 84.5795H137.476V87H142.067V75.2273C142.067 71.0682 138.544 69.3182 134.658 69.3182C130.476 69.3182 127.726 71.3182 127.055 74.5L131.533 74.8636C131.862 73.7045 132.896 72.8523 134.635 72.8523C136.283 72.8523 137.226 73.6818 137.226 75.1136V75.1818C137.226 76.3068 136.033 76.4545 132.999 76.75C129.544 77.0682 126.442 78.2273 126.442 82.125C126.442 85.5795 128.908 87.3295 132.237 87.3295ZM133.624 83.9886C132.135 83.9886 131.067 83.2955 131.067 81.9659C131.067 80.6023 132.192 79.9318 133.896 79.6932C134.953 79.5455 136.68 79.2955 137.26 78.9091V80.7614C137.26 82.5909 135.749 83.9886 133.624 83.9886ZM145.822 87H150.663V77.125C150.663 74.9773 152.232 73.5 154.368 73.5C155.038 73.5 155.959 73.6136 156.413 73.7614V69.4659C155.982 69.3636 155.379 69.2955 154.891 69.2955C152.936 69.2955 151.334 70.4318 150.697 72.5909H150.516V69.5455H145.822V87ZM163.393 87.3295C165.973 87.3295 167.643 86.2045 168.496 84.5795H168.632V87H173.223V75.2273C173.223 71.0682 169.7 69.3182 165.814 69.3182C161.632 69.3182 158.882 71.3182 158.212 74.5L162.689 74.8636C163.018 73.7045 164.053 72.8523 165.791 72.8523C167.439 72.8523 168.382 73.6818 168.382 75.1136V75.1818C168.382 76.3068 167.189 76.4545 164.155 76.75C160.7 77.0682 157.598 78.2273 157.598 82.125C157.598 85.5795 160.064 87.3295 163.393 87.3295ZM164.78 83.9886C163.291 83.9886 162.223 83.2955 162.223 81.9659C162.223 80.6023 163.348 79.9318 165.053 79.6932C166.109 79.5455 167.837 79.2955 168.416 78.9091V80.7614C168.416 82.5909 166.905 83.9886 164.78 83.9886ZM181.82 76.9091C181.831 74.6591 183.172 73.3409 185.126 73.3409C187.07 73.3409 188.24 74.6136 188.229 76.75V87H193.07V75.8864C193.07 71.8182 190.683 69.3182 187.047 69.3182C184.456 69.3182 182.581 70.5909 181.797 72.625H181.592V69.5455H176.979V87H181.82V76.9091ZM206.169 69.5455H202.885V65.3636H198.044V69.5455H195.658V73.1818H198.044V82.2727C198.021 85.6932 200.351 87.3864 203.862 87.2386C205.112 87.1932 205.999 86.9432 206.487 86.7841L205.726 83.1818C205.487 83.2273 204.976 83.3409 204.521 83.3409C203.555 83.3409 202.885 82.9773 202.885 81.6364V73.1818H206.169V69.5455ZM217.021 87.3409C222.317 87.3409 225.612 83.7159 225.612 78.3409C225.612 72.9318 222.317 69.3182 217.021 69.3182C211.726 69.3182 208.43 72.9318 208.43 78.3409C208.43 83.7159 211.726 87.3409 217.021 87.3409ZM217.044 83.5909C214.601 83.5909 213.351 81.3523 213.351 78.3068C213.351 75.2614 214.601 73.0114 217.044 73.0114C219.442 73.0114 220.692 75.2614 220.692 78.3068C220.692 81.3523 219.442 83.5909 217.044 83.5909ZM228.76 87H233.601V77.125C233.601 74.9773 235.169 73.5 237.305 73.5C237.976 73.5 238.896 73.6136 239.351 73.7614V69.4659C238.919 69.3636 238.317 69.2955 237.828 69.2955C235.874 69.2955 234.271 70.4318 233.635 72.5909H233.453V69.5455H228.76V87Z" fill="#001540"/>
<rect x="974" y="164" width="147" height="447" rx="3" fill="#001540"/>
<path d="M1107.97 384.598C1107.97 384.505 1107.97 384.413 1107.97 384.29C1108 382.074 1106.89 380.442 1104.65 379.765C1102.97 379.242 1101.16 378.841 1099.38 378.78C1094.38 378.626 1089.38 378.687 1084.38 378.626C1083.31 378.595 1082.2 378.441 1081.16 378.195C1080.61 378.072 1080.02 377.672 1079.72 377.241C1078.52 375.394 1079.62 372.87 1081.89 372.408C1083.52 372.1 1085.18 371.915 1086.83 371.915C1092.69 371.854 1098.58 371.885 1104.44 371.854C1104.87 371.854 1105.42 371.731 1105.67 371.484C1106.22 370.838 1106.62 370.038 1107.11 369.237H1084.29C1082.75 369.237 1081.19 369.391 1079.66 369.637C1075.18 370.284 1073.18 372.931 1073.89 377.025C1074.23 378.965 1075.39 380.288 1077.45 380.719C1079.07 381.058 1080.73 381.304 1082.39 381.335C1087.08 381.427 1091.8 381.366 1096.49 381.458C1097.75 381.489 1099.04 381.643 1100.24 381.95C1101.89 382.381 1102.45 383.52 1102.38 385.644C1102.32 387.245 1101.68 388.138 1100.08 388.507C1098.89 388.784 1097.66 388.907 1096.43 388.907C1089.5 388.938 1082.6 388.938 1075.67 388.938C1075.33 388.938 1074.81 388.938 1074.69 389.123C1074.07 389.923 1073.58 390.785 1073 391.739H1096.16C1097.78 391.739 1099.41 391.708 1101.03 391.524C1105.17 391.093 1108.36 389.831 1107.97 384.598Z" fill="white"/>
<path d="M1046.65 391.742L1055.36 391.773C1056.59 391.773 1057.73 391.096 1058.31 390.018C1061.87 383.4 1068.43 371.026 1069.38 369.21C1067.33 369.21 1068.68 369.148 1066.87 369.24C1066.47 369.271 1065.98 369.702 1065.73 370.071C1061.96 376.69 1060.76 378.66 1057.02 385.278C1056.28 386.571 1055.55 387.894 1054.78 389.249C1054.41 389.865 1053.77 390.265 1053.03 390.265H1052.11C1051.41 390.265 1050.73 389.865 1050.36 389.249C1049.6 387.894 1048.86 386.602 1048.13 385.278C1044.38 378.629 1043.07 376.69 1039.29 370.071C1039.08 369.702 1038.56 369.271 1038.16 369.24C1036.38 369.148 1034.57 369.21 1032.51 369.21C1033.5 371.026 1040.15 383.4 1043.68 389.988C1044.29 391.065 1045.43 391.742 1046.65 391.742Z" fill="white"/>
<path d="M1018.28 369.33H990L992.392 372.131L1015.76 372.501C1019.38 372.562 1022.3 375.517 1022.3 379.15L1022.33 382.136C1022.33 385.799 1019.41 388.785 1015.73 388.815L998.404 389.031C998.158 389.031 997.974 388.846 997.974 388.6V378.688L992.362 372.1V391.062C992.362 391.432 992.668 391.771 993.067 391.771H1018.25C1024.01 391.771 1028.71 387.061 1028.71 381.274V379.796C1028.71 374.009 1024.05 369.33 1018.28 369.33Z" fill="white"/>
<path d="M997.867 405.992C997.614 406.323 997.262 406.574 996.813 406.744C996.364 406.914 995.854 406.999 995.282 406.999C994.695 406.999 994.175 406.866 993.723 406.599C993.27 406.332 992.921 405.952 992.674 405.457C992.43 404.958 992.303 404.378 992.293 403.716V403.167C992.293 402.106 992.547 401.278 993.054 400.684C993.561 400.086 994.268 399.787 995.176 399.787C995.956 399.787 996.576 399.98 997.035 400.366C997.494 400.752 997.769 401.307 997.862 402.034H996.669C996.534 401.188 996.045 400.766 995.201 400.766C994.655 400.766 994.239 400.963 993.954 401.359C993.672 401.751 993.526 402.328 993.516 403.09V403.629C993.516 404.388 993.675 404.978 993.992 405.399C994.313 405.817 994.758 406.025 995.326 406.025C995.948 406.025 996.391 405.884 996.654 405.601V404.227H995.21V403.301H997.867V405.992Z" fill="white"/>
<path d="M1006.31 399.884V404.574C1006.31 405.32 1006.07 405.912 1005.59 406.349C1005.11 406.782 1004.48 407 1003.69 407C1002.88 407 1002.25 406.786 1001.78 406.358C1001.3 405.927 1001.07 405.331 1001.07 404.57V399.884H1002.28V404.579C1002.28 405.049 1002.4 405.407 1002.64 405.654C1002.87 405.902 1003.22 406.026 1003.69 406.026C1004.62 406.026 1005.09 405.531 1005.09 404.541V399.884H1006.31Z" fill="white"/>
<path d="M1013.4 405.269H1010.68L1010.12 406.903H1008.85L1011.5 399.884H1012.59L1015.24 406.903H1013.97L1013.4 405.269ZM1011.03 404.285H1013.06L1012.04 401.373L1011.03 404.285Z" fill="white"/>
<path d="M1020.59 404.198H1019.23V406.903H1018.01V399.884H1020.48C1021.28 399.884 1021.91 400.065 1022.35 400.429C1022.79 400.792 1023.01 401.317 1023.01 402.005C1023.01 402.474 1022.89 402.868 1022.67 403.186C1022.44 403.501 1022.13 403.744 1021.72 403.914L1023.3 406.84V406.903H1021.99L1020.59 404.198ZM1019.23 403.22H1020.48C1020.89 403.22 1021.21 403.117 1021.44 402.912C1021.67 402.702 1021.79 402.418 1021.79 402.058C1021.79 401.682 1021.68 401.391 1021.47 401.185C1021.26 400.98 1020.94 400.874 1020.51 400.867H1019.23V403.22Z" fill="white"/>
<path d="M1030.06 405.269H1027.34L1026.78 406.903H1025.51L1028.16 399.884H1029.25L1031.9 406.903H1030.63L1030.06 405.269ZM1027.69 404.285H1029.72L1028.7 401.373L1027.69 404.285Z" fill="white"/>
<path d="M1040.23 406.903H1039.01L1035.89 401.923V406.903H1034.67V399.884H1035.89L1039.02 404.883V399.884H1040.23V406.903Z" fill="white"/>
<path d="M1048.56 400.867H1046.38V406.903H1045.17V400.867H1043V399.884H1048.56V400.867Z" fill="white"/>
<path d="M1055.56 403.769H1052.68V405.929H1056.04V406.903H1051.46V399.884H1056.01V400.867H1052.68V402.805H1055.56V403.769Z" fill="white"/>
<path d="M1063.1 403.769H1060.22V405.929H1063.59V406.903H1059V399.884H1063.55V400.867H1060.22V402.805H1063.1V403.769Z" fill="white"/>
<path d="M1073.45 405.375L1075.23 399.884H1076.57L1074.04 406.903H1072.86L1070.35 399.884H1071.68L1073.45 405.375Z" fill="white"/>
<path d="M1082.89 405.269H1080.17L1079.61 406.903H1078.34L1080.99 399.884H1082.08L1084.73 406.903H1083.46L1082.89 405.269ZM1080.52 404.285H1082.55L1081.53 401.373L1080.52 404.285Z" fill="white"/>
<path d="M1092.54 399.884V404.574C1092.54 405.32 1092.3 405.912 1091.83 406.349C1091.35 406.782 1090.72 407 1089.93 407C1089.12 407 1088.49 406.786 1088.01 406.358C1087.54 405.927 1087.31 405.331 1087.31 404.57V399.884H1088.52V404.579C1088.52 405.049 1088.64 405.407 1088.88 405.654C1089.11 405.902 1089.46 406.026 1089.93 406.026C1090.86 406.026 1091.33 405.531 1091.33 404.541V399.884H1092.54Z" fill="white"/>
<path d="M1097.04 405.929H1100.22V406.903H1095.82V399.884H1097.04V405.929Z" fill="white"/>
<path d="M1107.2 400.867H1105.01V406.903H1103.8V400.867H1101.64V399.884H1107.2V400.867Z" fill="white"/>
<path d="M1076.52 318.573C1076.72 316.742 1076.59 314.912 1076.13 313.147C1075.61 311.087 1074.6 309.159 1073.29 307.524C1071.95 305.89 1070.25 304.517 1068.39 303.569C1067.44 303.111 1066.46 302.719 1065.41 302.458C1064.4 302.196 1063.36 302.065 1062.31 302H1061.92H1061.53H1060.77L1059.27 302.033L1056.26 302.098L1053.26 302.163L1050.25 302.229C1046.23 302.327 1042.21 302.458 1038.19 302.621C1042.21 302.817 1046.23 302.915 1050.25 303.013L1053.26 303.079L1056.26 303.144L1059.27 303.209L1060.77 303.242H1061.53H1061.88L1062.24 303.275C1064.17 303.406 1066.03 303.929 1067.73 304.811C1068.58 305.269 1069.37 305.792 1070.12 306.413C1070.87 307.034 1071.53 307.72 1072.11 308.44C1072.9 309.453 1073.55 310.564 1074.04 311.741C1073.85 311.447 1073.65 311.185 1073.42 310.891C1072.77 310.074 1072.05 309.355 1071.26 308.668C1070.48 308.015 1069.6 307.426 1068.68 306.936C1067.77 306.446 1066.82 306.086 1065.81 305.792C1064.83 305.498 1063.81 305.334 1062.77 305.269C1062.51 305.236 1062.24 305.236 1062.02 305.236C1061.88 305.236 1061.75 305.236 1061.62 305.236C1061.49 305.236 1061.36 305.236 1061.26 305.236L1059.79 305.269C1057.83 305.301 1055.87 305.367 1053.91 305.4C1051.95 305.465 1049.99 305.53 1048.03 305.596L1045.09 305.726C1044.6 305.759 1044.11 305.759 1043.62 305.792C1043.13 305.824 1042.64 305.824 1042.15 305.857C1042.64 305.89 1043.13 305.923 1043.62 305.923C1044.11 305.955 1044.6 305.988 1045.09 305.988L1048.03 306.119C1049.99 306.184 1051.95 306.249 1053.91 306.315C1055.87 306.38 1057.83 306.413 1059.79 306.446L1061.26 306.478H1061.62C1061.75 306.478 1061.85 306.478 1061.98 306.478C1062.21 306.478 1062.44 306.511 1062.67 306.544C1063.62 306.642 1064.53 306.838 1065.41 307.099C1067.21 307.655 1068.85 308.57 1070.28 309.78C1071.69 310.989 1072.86 312.493 1073.68 314.16C1073.81 314.421 1073.94 314.716 1074.04 314.977C1073.75 314.519 1073.42 314.095 1073.06 313.702C1071.72 312.133 1070.05 310.858 1068.19 309.943C1067.28 309.486 1066.3 309.159 1065.28 308.897C1064.27 308.668 1063.26 308.538 1062.24 308.505C1061.98 308.505 1061.72 308.505 1061.49 308.505H1060.74L1059.27 308.538L1056.33 308.603L1053.39 308.701L1050.45 308.799C1048.49 308.864 1046.53 308.963 1044.56 309.093C1046.53 309.224 1048.49 309.289 1050.45 309.387L1053.39 309.486L1056.33 309.584L1059.27 309.649L1060.74 309.682H1061.49C1061.72 309.682 1061.95 309.682 1062.21 309.714C1064.07 309.812 1065.94 310.335 1067.57 311.185C1070.51 312.656 1072.83 315.206 1074.07 318.246C1073.81 317.886 1073.55 317.494 1073.26 317.167C1072.6 316.383 1071.85 315.631 1071.03 315.01C1070.22 314.356 1069.37 313.8 1068.42 313.343C1067.51 312.885 1066.52 312.526 1065.54 312.264C1064.56 312.002 1063.52 311.839 1062.51 311.806C1062.37 311.806 1062.24 311.806 1062.11 311.806C1061.98 311.806 1061.85 311.806 1061.72 311.806H1061.53H1061.33H1060.97L1059.5 311.839C1057.54 311.904 1055.58 311.97 1053.62 312.068C1052.64 312.101 1051.66 312.166 1050.68 312.231C1049.7 312.297 1048.72 312.362 1047.73 312.427C1048.72 312.493 1049.7 312.558 1050.68 312.624C1051.66 312.689 1052.64 312.722 1053.62 312.787C1055.58 312.885 1057.54 312.95 1059.5 313.016L1060.97 313.049L1061.69 313.081C1061.82 313.081 1061.92 313.081 1062.05 313.081C1062.18 313.081 1062.28 313.081 1062.41 313.114C1063.36 313.179 1064.27 313.375 1065.15 313.604C1066.95 314.127 1068.62 315.01 1070.05 316.219C1070.77 316.808 1071.43 317.494 1072.01 318.213C1072.6 318.932 1073.09 319.717 1073.52 320.534C1073.68 320.861 1073.85 321.221 1074.01 321.58C1073.65 321.057 1073.26 320.567 1072.83 320.076C1071.46 318.54 1069.76 317.265 1067.9 316.415C1066.95 315.99 1065.97 315.664 1064.99 315.435C1063.98 315.206 1062.96 315.108 1061.95 315.075H1061.56H1061.2L1060.45 315.108C1059.96 315.141 1059.47 315.141 1058.98 315.173L1057.51 315.239L1056.04 315.304C1054.07 315.402 1052.11 315.533 1050.15 315.696C1052.11 315.892 1054.07 315.99 1056.04 316.089L1057.51 316.154L1058.98 316.219C1059.47 316.252 1059.96 316.252 1060.45 316.285L1061.2 316.317L1061.92 316.35C1062.87 316.383 1063.78 316.513 1064.69 316.742C1065.61 316.971 1066.49 317.298 1067.31 317.69C1068.16 318.082 1068.94 318.573 1069.69 319.161C1070.45 319.717 1071.1 320.371 1071.72 321.057C1072.34 321.776 1072.9 322.561 1073.35 323.411C1073.29 323.509 1073.26 323.607 1073.19 323.705C1072.21 322.528 1071.07 321.515 1069.83 320.697C1068.06 319.553 1066.03 318.802 1063.94 318.475C1063.42 318.409 1062.9 318.344 1062.37 318.344H1061.98H1061.59C1061.33 318.344 1061.1 318.377 1060.84 318.377C1059.83 318.409 1058.81 318.475 1057.83 318.507C1055.81 318.638 1053.81 318.736 1051.79 318.965C1053.81 319.161 1055.81 319.292 1057.83 319.423C1058.85 319.488 1059.86 319.521 1060.84 319.553L1061.59 319.586H1061.95L1062.31 319.619C1062.8 319.651 1063.26 319.717 1063.75 319.782C1064.69 319.946 1065.61 320.207 1066.49 320.567C1067.37 320.926 1068.22 321.384 1069.01 321.907C1070.28 322.757 1071.39 323.803 1072.31 325.012C1071.33 326.32 1070.12 327.431 1068.75 328.314C1067.93 328.837 1067.08 329.262 1066.2 329.588C1065.32 329.915 1064.37 330.177 1063.42 330.308C1062.93 330.373 1062.47 330.439 1061.98 330.439C1061.85 330.439 1061.75 330.439 1061.62 330.439H1061.26H1060.51L1057.51 330.471C1053.49 330.536 1049.47 330.602 1045.45 330.7C1043.42 330.733 1041.43 330.798 1039.4 330.863C1037.38 330.929 1035.38 330.994 1033.36 331.06C1035.38 331.125 1037.38 331.19 1039.4 331.256C1041.43 331.321 1043.42 331.354 1045.45 331.419C1049.47 331.517 1053.49 331.582 1057.51 331.648L1060.51 331.681H1061.26H1061.66C1061.79 331.681 1061.92 331.681 1062.05 331.681C1062.57 331.681 1063.09 331.648 1063.62 331.582C1065.71 331.321 1067.73 330.634 1069.56 329.523C1070.48 328.968 1071.3 328.314 1072.08 327.594C1072.51 327.202 1072.9 326.777 1073.26 326.352C1073.32 326.451 1073.35 326.549 1073.42 326.647C1073.29 326.908 1073.16 327.137 1073 327.366C1072.51 328.15 1071.92 328.869 1071.26 329.556C1069.99 330.896 1068.42 331.975 1066.69 332.694C1065.84 333.054 1064.92 333.315 1064.01 333.511C1063.55 333.609 1063.09 333.675 1062.6 333.707C1062.47 333.707 1062.37 333.74 1062.24 333.74C1062.11 333.74 1062.02 333.74 1061.88 333.773H1061.53H1061.17L1055.28 333.838C1051.36 333.903 1047.44 333.969 1043.52 334.067L1040.58 334.132L1037.64 334.198C1035.68 334.263 1033.72 334.296 1031.75 334.361C1033.72 334.426 1035.68 334.492 1037.64 334.524L1040.58 334.59L1043.52 334.655C1047.44 334.753 1051.36 334.819 1055.28 334.884L1061.17 334.949H1061.53H1061.92C1062.05 334.949 1062.18 334.949 1062.31 334.949C1062.44 334.949 1062.57 334.949 1062.7 334.917C1063.22 334.884 1063.71 334.819 1064.24 334.753C1065.25 334.59 1066.26 334.329 1067.21 333.936C1068.16 333.576 1069.11 333.086 1069.96 332.53C1070.81 331.975 1071.62 331.321 1072.34 330.569C1073 329.915 1073.58 329.229 1074.07 328.477C1073.85 329.066 1073.55 329.621 1073.22 330.177C1072.28 331.779 1071.03 333.184 1069.53 334.296C1068.78 334.851 1068 335.342 1067.15 335.734C1066.3 336.126 1065.41 336.42 1064.5 336.649C1063.58 336.878 1062.67 336.976 1061.72 337.009L1058.78 337.042L1052.9 337.107L1047.02 337.205L1041.13 337.335C1039.17 337.368 1037.21 337.434 1035.25 337.466C1034.27 337.499 1033.29 337.499 1032.31 337.532L1029.37 337.63L1032.31 337.728C1033.29 337.761 1034.27 337.793 1035.25 337.793C1037.21 337.826 1039.17 337.891 1041.13 337.924L1047.02 338.055L1052.9 338.153L1058.78 338.218L1061.72 338.251C1062.73 338.251 1063.78 338.153 1064.79 337.957C1066.82 337.532 1068.75 336.715 1070.41 335.505C1071.26 334.917 1072.05 334.23 1072.73 333.478C1073.22 332.955 1073.68 332.367 1074.07 331.779C1073.45 333.315 1072.54 334.721 1071.43 335.93C1070.15 337.303 1068.62 338.381 1066.92 339.134C1066.07 339.526 1065.19 339.787 1064.27 339.983C1063.81 340.082 1063.36 340.147 1062.9 340.212C1062.67 340.245 1062.44 340.245 1062.21 340.277C1062.08 340.277 1061.98 340.277 1061.85 340.277C1061.72 340.277 1061.62 340.277 1061.49 340.277L1055.61 340.343L1049.73 340.408L1043.85 340.506L1037.96 340.604C1034.04 340.67 1030.12 340.768 1026.2 340.866C1030.12 340.964 1034.04 341.062 1037.96 341.128L1043.85 341.226L1049.73 341.323L1055.61 341.389L1061.49 341.454H1061.88C1062.02 341.454 1062.15 341.454 1062.28 341.454C1062.54 341.454 1062.8 341.422 1063.03 341.422C1063.55 341.389 1064.04 341.323 1064.56 341.226C1065.58 341.03 1066.56 340.735 1067.51 340.343C1069.4 339.558 1071.13 338.381 1072.57 336.878C1073.13 336.29 1073.65 335.636 1074.11 334.982C1073.91 335.505 1073.65 335.996 1073.39 336.486C1072.93 337.303 1072.41 338.055 1071.79 338.774C1071.17 339.493 1070.51 340.114 1069.76 340.702C1069.4 340.997 1069.01 341.258 1068.62 341.487C1068.22 341.749 1067.8 341.945 1067.41 342.174C1066.56 342.566 1065.68 342.893 1064.79 343.122C1063.88 343.35 1062.96 343.481 1062.02 343.514H1061.66H1061.3H1060.54H1059.07C1055.15 343.546 1051.23 343.612 1047.31 343.644C1039.47 343.775 1031.62 343.873 1023.78 344.102C1031.62 344.298 1039.47 344.429 1047.31 344.56C1051.23 344.625 1055.15 344.658 1059.07 344.69H1060.54H1061.3H1061.66H1062.05C1063.06 344.69 1064.11 344.56 1065.09 344.331C1067.08 343.873 1069.01 343.024 1070.68 341.781C1071.49 341.16 1072.28 340.474 1072.96 339.689C1073.39 339.232 1073.78 338.741 1074.11 338.218C1073.58 339.493 1072.86 340.703 1071.98 341.781C1071.36 342.5 1070.71 343.187 1069.96 343.775C1069.2 344.363 1068.39 344.887 1067.54 345.311C1066.69 345.737 1065.77 346.064 1064.86 346.325C1063.94 346.554 1062.96 346.717 1062.02 346.75H1061.66H1061.26H1060.51H1059.01L1056 346.783L1049.96 346.848L1043.91 346.913L1037.87 347.011L1031.82 347.109L1025.77 347.207L1022.77 347.273L1019.76 347.338L1022.77 347.403L1025.77 347.469L1031.82 347.567L1037.87 347.665L1043.91 347.763L1049.96 347.829L1056 347.894L1059.01 347.927H1060.51H1061.26H1061.66H1062.05C1063.09 347.927 1064.14 347.796 1065.19 347.567C1066.2 347.338 1067.21 346.979 1068.16 346.521C1070.09 345.638 1071.79 344.298 1073.16 342.696C1074.53 341.095 1075.58 339.166 1076.17 337.14C1076.69 335.276 1076.85 333.283 1076.66 331.354C1076.52 331.681 1076.56 318.9 1076.52 318.573Z" fill="white"/>
<ellipse cx="1047.5" cy="166" rx="73.5" ry="10" fill="#455A85"/>
<ellipse cx="1047.5" cy="609" rx="73.5" ry="12" fill="#001540"/>
</svg>
