<svg width="1121" height="621" viewBox="0 0 1121 621" fill="none" xmlns="http://www.w3.org/2000/svg">
<rect x="276" y="245" width="569" height="54" fill="#5279DF"/>
<path d="M875 272.404L841 317.404L841 228L875 272.404Z" fill="#5279DF"/>
<path d="M506.693 280H518.488V276.957H510.383V272.79H517.849V269.747H510.383V265.588H518.454V262.545H506.693V280ZM521.32 280H524.951V272.594C524.951 270.983 526.127 269.875 527.729 269.875C528.232 269.875 528.922 269.96 529.263 270.071V266.849C528.939 266.773 528.488 266.722 528.121 266.722C526.655 266.722 525.453 267.574 524.976 269.193H524.84V266.909H521.32V280ZM542.032 270.642C541.708 268.23 539.765 266.739 536.458 266.739C533.109 266.739 530.902 268.29 530.91 270.812C530.902 272.773 532.137 274.043 534.694 274.554L536.961 275.006C538.103 275.236 538.623 275.653 538.64 276.31C538.623 277.085 537.779 277.639 536.51 277.639C535.214 277.639 534.353 277.085 534.132 276.02L530.561 276.207C530.902 278.713 533.032 280.256 536.501 280.256C539.893 280.256 542.322 278.526 542.331 275.943C542.322 274.051 541.086 272.918 538.547 272.398L536.177 271.92C534.958 271.656 534.507 271.239 534.515 270.608C534.507 269.824 535.393 269.312 536.518 269.312C537.779 269.312 538.529 270.003 538.708 270.847L542.032 270.642ZM551.58 266.909H549.117V263.773H545.486V266.909H543.696V269.636H545.486V276.455C545.469 279.02 547.216 280.29 549.85 280.179C550.787 280.145 551.452 279.957 551.819 279.838L551.248 277.136C551.069 277.17 550.685 277.256 550.344 277.256C549.62 277.256 549.117 276.983 549.117 275.977V269.636H551.58V266.909ZM559.77 280.256C563.009 280.256 565.191 278.679 565.702 276.25L562.344 276.028C561.978 277.026 561.04 277.545 559.83 277.545C558.015 277.545 556.864 276.344 556.864 274.392V274.384H565.779V273.386C565.779 268.938 563.086 266.739 559.625 266.739C555.773 266.739 553.276 269.474 553.276 273.514C553.276 277.665 555.739 280.256 559.77 280.256ZM556.864 272.134C556.941 270.642 558.074 269.449 559.685 269.449C561.262 269.449 562.353 270.574 562.361 272.134H556.864ZM571.779 262.545H568.148V280H571.779V262.545ZM578.318 262.545H574.687V280H578.318V262.545ZM589.621 274.426C589.63 276.182 588.428 277.102 587.124 277.102C585.752 277.102 584.865 276.139 584.857 274.597V266.909H581.226V275.244C581.235 278.304 583.025 280.17 585.658 280.17C587.627 280.17 589.042 279.156 589.63 277.622H589.766V280H593.252V266.909H589.621V274.426ZM599.787 272.432C599.795 270.744 600.801 269.756 602.267 269.756C603.724 269.756 604.602 270.71 604.593 272.312V280H608.224V271.665C608.224 268.614 606.434 266.739 603.707 266.739C601.764 266.739 600.358 267.693 599.77 269.219H599.616V266.909H596.156V280H599.787V272.432ZM616.983 285.182C620.725 285.182 623.384 283.477 623.384 280.128V266.909H619.779V269.108H619.642C619.157 268.043 618.091 266.739 615.901 266.739C613.029 266.739 610.6 268.972 610.6 273.429C610.6 277.784 612.961 279.812 615.909 279.812C617.998 279.812 619.165 278.764 619.642 277.682H619.796V280.077C619.796 281.875 618.645 282.574 617.069 282.574C615.466 282.574 614.657 281.875 614.358 281.082L611 281.534C611.435 283.597 613.455 285.182 616.983 285.182ZM617.06 277.085C615.279 277.085 614.307 275.67 614.307 273.412C614.307 271.188 615.262 269.628 617.06 269.628C618.824 269.628 619.813 271.119 619.813 273.412C619.813 275.722 618.807 277.085 617.06 277.085Z" fill="white"/>
<rect x="276" y="364" width="569" height="54" fill="#5279DF"/>
<path d="M875 391.404L841 436.404L841 347L875 391.404Z" fill="#5279DF"/>
<path d="M296.923 399H308.719V395.957H300.614V391.79H308.08V388.747H300.614V384.588H308.685V381.545H296.923V399ZM311.55 399H315.181V391.594C315.181 389.983 316.357 388.875 317.96 388.875C318.462 388.875 319.153 388.96 319.494 389.071V385.849C319.17 385.773 318.718 385.722 318.352 385.722C316.886 385.722 315.684 386.574 315.207 388.193H315.07V385.909H311.55V399ZM325.001 381.545H321.371V399H325.001V381.545ZM333.876 399.256C337.114 399.256 339.296 397.679 339.808 395.25L336.45 395.028C336.083 396.026 335.146 396.545 333.935 396.545C332.12 396.545 330.969 395.344 330.969 393.392V393.384H339.884V392.386C339.884 387.938 337.191 385.739 333.731 385.739C329.879 385.739 327.381 388.474 327.381 392.514C327.381 396.665 329.844 399.256 333.876 399.256ZM330.969 391.134C331.046 389.642 332.18 388.449 333.79 388.449C335.367 388.449 336.458 389.574 336.467 391.134H330.969ZM347.077 399.213C349.191 399.213 350.29 397.994 350.793 396.903H350.947V399H354.526V381.545H350.904V388.108H350.793C350.308 387.043 349.259 385.739 347.069 385.739C344.197 385.739 341.768 387.972 341.768 392.472C341.768 396.852 344.094 399.213 347.077 399.213ZM348.228 396.324C346.447 396.324 345.475 394.739 345.475 392.455C345.475 390.188 346.43 388.628 348.228 388.628C349.992 388.628 350.981 390.119 350.981 392.455C350.981 394.79 349.975 396.324 348.228 396.324ZM357.511 399H361.142V385.909H357.511V399ZM359.335 384.222C360.418 384.222 361.304 383.395 361.304 382.381C361.304 381.375 360.418 380.548 359.335 380.548C358.261 380.548 357.375 381.375 357.375 382.381C357.375 383.395 358.261 384.222 359.335 384.222ZM369.948 404.182C373.69 404.182 376.349 402.477 376.349 399.128V385.909H372.744V388.108H372.607C372.121 387.043 371.056 385.739 368.866 385.739C365.994 385.739 363.565 387.972 363.565 392.429C363.565 396.784 365.925 398.812 368.874 398.812C370.962 398.812 372.13 397.764 372.607 396.682H372.761V399.077C372.761 400.875 371.61 401.574 370.033 401.574C368.431 401.574 367.621 400.875 367.323 400.082L363.965 400.534C364.4 402.597 366.42 404.182 369.948 404.182ZM370.025 396.085C368.244 396.085 367.272 394.67 367.272 392.412C367.272 390.188 368.227 388.628 370.025 388.628C371.789 388.628 372.778 390.119 372.778 392.412C372.778 394.722 371.772 396.085 370.025 396.085ZM387.633 393.426C387.641 395.182 386.44 396.102 385.136 396.102C383.763 396.102 382.877 395.139 382.869 393.597V385.909H379.238V394.244C379.246 397.304 381.036 399.17 383.67 399.17C385.638 399.17 387.053 398.156 387.641 396.622H387.778V399H391.263V385.909H387.633V393.426ZM397.798 391.432C397.807 389.744 398.812 388.756 400.278 388.756C401.736 388.756 402.614 389.71 402.605 391.312V399H406.236V390.665C406.236 387.614 404.446 385.739 401.719 385.739C399.776 385.739 398.369 386.693 397.781 388.219H397.628V385.909H394.168V399H397.798V391.432ZM414.995 404.182C418.737 404.182 421.396 402.477 421.396 399.128V385.909H417.79V388.108H417.654C417.168 387.043 416.103 385.739 413.913 385.739C411.04 385.739 408.612 387.972 408.612 392.429C408.612 396.784 410.972 398.812 413.921 398.812C416.009 398.812 417.177 397.764 417.654 396.682H417.808V399.077C417.808 400.875 416.657 401.574 415.08 401.574C413.478 401.574 412.668 400.875 412.37 400.082L409.012 400.534C409.447 402.597 411.467 404.182 414.995 404.182ZM415.072 396.085C413.29 396.085 412.319 394.67 412.319 392.412C412.319 390.188 413.273 388.628 415.072 388.628C416.836 388.628 417.825 390.119 417.825 392.412C417.825 394.722 416.819 396.085 415.072 396.085ZM430.641 392.003C430.641 396.239 431.757 399.759 434.084 402.793H437.553C435.771 400.543 434.416 396.043 434.416 392.003C434.416 387.972 435.771 383.472 437.553 381.222H434.084C431.757 384.256 430.641 387.767 430.641 392.003ZM439.728 399H443.418V391.79H450.518V388.747H443.418V384.588H451.285V381.545H439.728V399ZM453.488 399H457.119V391.594C457.119 389.983 458.295 388.875 459.897 388.875C460.4 388.875 461.09 388.96 461.431 389.071V385.849C461.107 385.773 460.656 385.722 460.289 385.722C458.823 385.722 457.621 386.574 457.144 388.193H457.008V385.909H453.488V399ZM463.308 399H466.939V385.909H463.308V399ZM465.132 384.222C466.214 384.222 467.101 383.395 467.101 382.381C467.101 381.375 466.214 380.548 465.132 380.548C464.058 380.548 463.172 381.375 463.172 382.381C463.172 383.395 464.058 384.222 465.132 384.222ZM480.739 389.642C480.415 387.23 478.472 385.739 475.165 385.739C471.816 385.739 469.609 387.29 469.617 389.812C469.609 391.773 470.844 393.043 473.401 393.554L475.668 394.006C476.81 394.236 477.33 394.653 477.347 395.31C477.33 396.085 476.487 396.639 475.217 396.639C473.921 396.639 473.06 396.085 472.839 395.02L469.268 395.207C469.609 397.713 471.739 399.256 475.208 399.256C478.6 399.256 481.029 397.526 481.038 394.943C481.029 393.051 479.793 391.918 477.254 391.398L474.884 390.92C473.665 390.656 473.214 390.239 473.222 389.608C473.214 388.824 474.1 388.312 475.225 388.312C476.487 388.312 477.237 389.003 477.415 389.847L480.739 389.642ZM490.287 385.909H487.824V382.773H484.193V385.909H482.403V388.636H484.193V395.455C484.176 398.02 485.923 399.29 488.557 399.179C489.494 399.145 490.159 398.957 490.526 398.838L489.955 396.136C489.776 396.17 489.392 396.256 489.051 396.256C488.327 396.256 487.824 395.983 487.824 394.977V388.636H490.287V385.909ZM496.385 399.247C498.32 399.247 499.572 398.403 500.212 397.185H500.314V399H503.757V390.17C503.757 387.051 501.115 385.739 498.2 385.739C495.064 385.739 493.001 387.239 492.499 389.625L495.857 389.898C496.104 389.028 496.879 388.389 498.183 388.389C499.419 388.389 500.126 389.011 500.126 390.085V390.136C500.126 390.98 499.232 391.091 496.956 391.312C494.365 391.551 492.038 392.42 492.038 395.344C492.038 397.935 493.888 399.247 496.385 399.247ZM497.425 396.741C496.308 396.741 495.507 396.222 495.507 395.224C495.507 394.202 496.351 393.699 497.629 393.52C498.422 393.409 499.717 393.222 500.152 392.932V394.321C500.152 395.693 499.018 396.741 497.425 396.741ZM506.642 399H510.222V396.903H510.384C510.886 397.994 511.986 399.213 514.099 399.213C517.082 399.213 519.409 396.852 519.409 392.472C519.409 387.972 516.98 385.739 514.108 385.739C511.918 385.739 510.869 387.043 510.384 388.108H510.273V381.545H506.642V399ZM510.196 392.455C510.196 390.119 511.185 388.628 512.949 388.628C514.747 388.628 515.702 390.188 515.702 392.455C515.702 394.739 514.73 396.324 512.949 396.324C511.202 396.324 510.196 394.79 510.196 392.455ZM525.462 381.545H521.832V399H525.462V381.545ZM532.104 399.247C534.038 399.247 535.291 398.403 535.93 397.185H536.033V399H539.476V390.17C539.476 387.051 536.834 385.739 533.919 385.739C530.783 385.739 528.72 387.239 528.217 389.625L531.575 389.898C531.822 389.028 532.598 388.389 533.902 388.389C535.138 388.389 535.845 389.011 535.845 390.085V390.136C535.845 390.98 534.95 391.091 532.675 391.312C530.084 391.551 527.757 392.42 527.757 395.344C527.757 397.935 529.607 399.247 532.104 399.247ZM533.143 396.741C532.027 396.741 531.226 396.222 531.226 395.224C531.226 394.202 532.07 393.699 533.348 393.52C534.141 393.409 535.436 393.222 535.871 392.932V394.321C535.871 395.693 534.737 396.741 533.143 396.741ZM550.688 393.426C550.696 395.182 549.494 396.102 548.19 396.102C546.818 396.102 545.932 395.139 545.923 393.597V385.909H542.293V394.244C542.301 397.304 544.091 399.17 546.724 399.17C548.693 399.17 550.108 398.156 550.696 396.622H550.832V399H554.318V385.909H550.688V393.426ZM564.262 385.909H561.663V385.031C561.663 384.145 562.021 383.625 563.086 383.625C563.521 383.625 563.964 383.719 564.254 383.812L564.893 381.085C564.441 380.949 563.444 380.727 562.327 380.727C559.864 380.727 558.032 382.116 558.032 384.963V385.909H556.183V388.636H558.032V399H561.663V388.636H564.262V385.909ZM579.637 380.727H576.509L570.884 401.625H574.012L579.637 380.727ZM587.009 399H590.7V391.79H598.191V399H601.873V381.545H598.191V388.747H590.7V381.545H587.009V399ZM608.58 399.247C610.515 399.247 611.768 398.403 612.407 397.185H612.509V399H615.952V390.17C615.952 387.051 613.31 385.739 610.396 385.739C607.259 385.739 605.197 387.239 604.694 389.625L608.052 389.898C608.299 389.028 609.075 388.389 610.379 388.389C611.614 388.389 612.322 389.011 612.322 390.085V390.136C612.322 390.98 611.427 391.091 609.151 391.312C606.56 391.551 604.234 392.42 604.234 395.344C604.234 397.935 606.083 399.247 608.58 399.247ZM609.62 396.741C608.504 396.741 607.702 396.222 607.702 395.224C607.702 394.202 608.546 393.699 609.825 393.52C610.617 393.409 611.913 393.222 612.347 392.932V394.321C612.347 395.693 611.214 396.741 609.62 396.741ZM625.809 385.909H623.21V385.031C623.21 384.145 623.567 383.625 624.633 383.625C625.067 383.625 625.511 383.719 625.8 383.812L626.44 381.085C625.988 380.949 624.991 380.727 623.874 380.727C621.411 380.727 619.579 382.116 619.579 384.963V385.909H617.729V388.636H619.579V399H623.21V388.636H625.809V385.909ZM634.99 385.909H632.527V382.773H628.896V385.909H627.107V388.636H628.896V395.455C628.879 398.02 630.626 399.29 633.26 399.179C634.197 399.145 634.862 398.957 635.229 398.838L634.658 396.136C634.479 396.17 634.095 396.256 633.754 396.256C633.03 396.256 632.527 395.983 632.527 394.977V388.636H634.99V385.909ZM645.75 393.426C645.759 395.182 644.557 396.102 643.253 396.102C641.881 396.102 640.994 395.139 640.986 393.597V385.909H637.355V394.244C637.364 397.304 639.153 399.17 641.787 399.17C643.756 399.17 645.17 398.156 645.759 396.622H645.895V399H649.381V385.909H645.75V393.426ZM655.915 391.432C655.924 389.744 656.93 388.756 658.396 388.756C659.853 388.756 660.731 389.71 660.722 391.312V399H664.353V390.665C664.353 387.614 662.563 385.739 659.836 385.739C657.893 385.739 656.487 386.693 655.898 388.219H655.745V385.909H652.285V399H655.915V391.432ZM673.112 404.182C676.854 404.182 679.513 402.477 679.513 399.128V385.909H675.908V388.108H675.771C675.286 387.043 674.22 385.739 672.03 385.739C669.158 385.739 666.729 387.972 666.729 392.429C666.729 396.784 669.089 398.812 672.038 398.812C674.126 398.812 675.294 397.764 675.771 396.682H675.925V399.077C675.925 400.875 674.774 401.574 673.197 401.574C671.595 401.574 670.786 400.875 670.487 400.082L667.129 400.534C667.564 402.597 669.584 404.182 673.112 404.182ZM673.189 396.085C671.408 396.085 670.436 394.67 670.436 392.412C670.436 390.188 671.391 388.628 673.189 388.628C674.953 388.628 675.942 390.119 675.942 392.412C675.942 394.722 674.936 396.085 673.189 396.085ZM693.294 389.642C692.97 387.23 691.027 385.739 687.72 385.739C684.371 385.739 682.163 387.29 682.172 389.812C682.163 391.773 683.399 393.043 685.956 393.554L688.223 394.006C689.365 394.236 689.885 394.653 689.902 395.31C689.885 396.085 689.041 396.639 687.771 396.639C686.476 396.639 685.615 396.085 685.393 395.02L681.822 395.207C682.163 397.713 684.294 399.256 687.763 399.256C691.155 399.256 693.584 397.526 693.592 394.943C693.584 393.051 692.348 391.918 689.808 391.398L687.439 390.92C686.22 390.656 685.768 390.239 685.777 389.608C685.768 388.824 686.655 388.312 687.78 388.312C689.041 388.312 689.791 389.003 689.97 389.847L693.294 389.642ZM701.844 399.256C705.083 399.256 707.265 397.679 707.776 395.25L704.418 395.028C704.052 396.026 703.114 396.545 701.904 396.545C700.089 396.545 698.938 395.344 698.938 393.392V393.384H707.853V392.386C707.853 387.938 705.16 385.739 701.7 385.739C697.847 385.739 695.35 388.474 695.35 392.514C695.35 396.665 697.813 399.256 701.844 399.256ZM698.938 391.134C699.015 389.642 700.148 388.449 701.759 388.449C703.336 388.449 704.427 389.574 704.435 391.134H698.938ZM713.853 391.432C713.862 389.744 714.867 388.756 716.333 388.756C717.79 388.756 718.668 389.71 718.66 391.312V399H722.29V390.665C722.29 387.614 720.501 385.739 717.773 385.739C715.83 385.739 714.424 386.693 713.836 388.219H713.683V385.909H710.222V399H713.853V391.432ZM732.115 385.909H729.652V382.773H726.021V385.909H724.232V388.636H726.021V395.455C726.004 398.02 727.751 399.29 730.385 399.179C731.322 399.145 731.987 398.957 732.354 398.838L731.783 396.136C731.604 396.17 731.22 396.256 730.879 396.256C730.155 396.256 729.652 395.983 729.652 394.977V388.636H732.115V385.909ZM738.392 381.545H734.761V399H738.392V381.545ZM745.033 399.247C746.968 399.247 748.221 398.403 748.86 397.185H748.962V399H752.406V390.17C752.406 387.051 749.763 385.739 746.849 385.739C743.712 385.739 741.65 387.239 741.147 389.625L744.505 389.898C744.752 389.028 745.528 388.389 746.832 388.389C748.067 388.389 748.775 389.011 748.775 390.085V390.136C748.775 390.98 747.88 391.091 745.604 391.312C743.013 391.551 740.687 392.42 740.687 395.344C740.687 397.935 742.536 399.247 745.033 399.247ZM746.073 396.741C744.957 396.741 744.156 396.222 744.156 395.224C744.156 394.202 744.999 393.699 746.278 393.52C747.07 393.409 748.366 393.222 748.8 392.932V394.321C748.8 395.693 747.667 396.741 746.073 396.741ZM766.114 389.642C765.79 387.23 763.847 385.739 760.54 385.739C757.191 385.739 754.984 387.29 754.992 389.812C754.984 391.773 756.219 393.043 758.776 393.554L761.043 394.006C762.185 394.236 762.705 394.653 762.722 395.31C762.705 396.085 761.862 396.639 760.592 396.639C759.296 396.639 758.435 396.085 758.214 395.02L754.643 395.207C754.984 397.713 757.114 399.256 760.583 399.256C763.975 399.256 766.404 397.526 766.413 394.943C766.404 393.051 765.168 391.918 762.629 391.398L760.259 390.92C759.04 390.656 758.589 390.239 758.597 389.608C758.589 388.824 759.475 388.312 760.6 388.312C761.862 388.312 762.612 389.003 762.79 389.847L766.114 389.642ZM779.591 389.642C779.267 387.23 777.324 385.739 774.017 385.739C770.668 385.739 768.46 387.29 768.469 389.812C768.46 391.773 769.696 393.043 772.253 393.554L774.52 394.006C775.662 394.236 776.182 394.653 776.199 395.31C776.182 396.085 775.338 396.639 774.068 396.639C772.773 396.639 771.912 396.085 771.69 395.02L768.119 395.207C768.46 397.713 770.591 399.256 774.06 399.256C777.452 399.256 779.881 397.526 779.889 394.943C779.881 393.051 778.645 391.918 776.105 391.398L773.736 390.92C772.517 390.656 772.065 390.239 772.074 389.608C772.065 388.824 772.952 388.312 774.077 388.312C775.338 388.312 776.088 389.003 776.267 389.847L779.591 389.642ZM790.57 393.426C790.579 395.182 789.377 396.102 788.073 396.102C786.701 396.102 785.815 395.139 785.806 393.597V385.909H782.175V394.244C782.184 397.304 783.974 399.17 786.607 399.17C788.576 399.17 789.991 398.156 790.579 396.622H790.715V399H794.201V385.909H790.57V393.426ZM800.736 391.432C800.744 389.744 801.75 388.756 803.216 388.756C804.673 388.756 805.551 389.71 805.543 391.312V399H809.173V390.665C809.173 387.614 807.384 385.739 804.656 385.739C802.713 385.739 801.307 386.693 800.719 388.219H800.565V385.909H797.105V399H800.736V391.432ZM817.933 404.182C821.674 404.182 824.333 402.477 824.333 399.128V385.909H820.728V388.108H820.592C820.106 387.043 819.04 385.739 816.85 385.739C813.978 385.739 811.549 387.972 811.549 392.429C811.549 396.784 813.91 398.812 816.859 398.812C818.947 398.812 820.114 397.764 820.592 396.682H820.745V399.077C820.745 400.875 819.594 401.574 818.018 401.574C816.415 401.574 815.606 400.875 815.308 400.082L811.95 400.534C812.384 402.597 814.404 404.182 817.933 404.182ZM818.009 396.085C816.228 396.085 815.256 394.67 815.256 392.412C815.256 390.188 816.211 388.628 818.009 388.628C819.773 388.628 820.762 390.119 820.762 392.412C820.762 394.722 819.756 396.085 818.009 396.085ZM833.342 392.003C833.342 387.767 832.225 384.247 829.898 381.213H826.43C828.211 383.463 829.566 387.963 829.566 392.003C829.566 396.034 828.211 400.534 826.43 402.784H829.898C832.225 399.75 833.342 396.239 833.342 392.003Z" fill="white"/>
<rect x="276" y="483" width="569" height="54" fill="#5279DF"/>
<path d="M875 510.404L841 555.404L841 466L875 510.404Z" fill="#5279DF"/>
<path d="M448.892 518H460.688V514.957H452.582V510.79H460.048V507.747H452.582V503.588H460.653V500.545H448.892V518ZM467.15 510.432C467.158 508.744 468.164 507.756 469.63 507.756C471.087 507.756 471.965 508.71 471.957 510.312V518H475.587V509.665C475.587 506.614 473.798 504.739 471.07 504.739C469.127 504.739 467.721 505.693 467.133 507.219H466.979V504.909H463.519V518H467.15V510.432ZM485.412 504.909H482.949V501.773H479.318V504.909H477.528V507.636H479.318V514.455C479.301 517.02 481.048 518.29 483.682 518.179C484.619 518.145 485.284 517.957 485.651 517.838L485.08 515.136C484.901 515.17 484.517 515.256 484.176 515.256C483.452 515.256 482.949 514.983 482.949 513.977V507.636H485.412V504.909ZM491.689 510.432C491.697 508.744 492.729 507.756 494.212 507.756C495.686 507.756 496.555 508.702 496.547 510.312V518H500.178V509.665C500.186 506.597 498.379 504.739 495.652 504.739C493.666 504.739 492.337 505.676 491.74 507.219H491.587V500.545H488.058V518H491.689V510.432ZM506.768 518.247C508.702 518.247 509.955 517.403 510.594 516.185H510.697V518H514.14V509.17C514.14 506.051 511.498 504.739 508.583 504.739C505.447 504.739 503.384 506.239 502.881 508.625L506.239 508.898C506.487 508.028 507.262 507.389 508.566 507.389C509.802 507.389 510.509 508.011 510.509 509.085V509.136C510.509 509.98 509.614 510.091 507.339 510.312C504.748 510.551 502.421 511.42 502.421 514.344C502.421 516.935 504.271 518.247 506.768 518.247ZM507.808 515.741C506.691 515.741 505.89 515.222 505.89 514.224C505.89 513.202 506.734 512.699 508.012 512.52C508.805 512.409 510.1 512.222 510.535 511.932V513.321C510.535 514.693 509.401 515.741 507.808 515.741ZM523.996 504.909H521.397V504.031C521.397 503.145 521.755 502.625 522.82 502.625C523.255 502.625 523.698 502.719 523.988 502.812L524.627 500.085C524.175 499.949 523.178 499.727 522.062 499.727C519.599 499.727 517.766 501.116 517.766 503.963V504.909H515.917V507.636H517.766V518H521.397V507.636H523.996V504.909ZM533.178 504.909H530.714V501.773H527.084V504.909H525.294V507.636H527.084V514.455C527.067 517.02 528.814 518.29 531.447 518.179C532.385 518.145 533.05 517.957 533.416 517.838L532.845 515.136C532.666 515.17 532.283 515.256 531.942 515.256C531.217 515.256 530.714 514.983 530.714 513.977V507.636H533.178V504.909ZM543.938 512.426C543.946 514.182 542.744 515.102 541.44 515.102C540.068 515.102 539.182 514.139 539.173 512.597V504.909H535.543V513.244C535.551 516.304 537.341 518.17 539.974 518.17C541.943 518.17 543.358 517.156 543.946 515.622H544.082V518H547.568V504.909H543.938V512.426ZM554.103 510.432C554.112 508.744 555.117 507.756 556.583 507.756C558.04 507.756 558.918 508.71 558.91 510.312V518H562.54V509.665C562.54 506.614 560.751 504.739 558.023 504.739C556.08 504.739 554.674 505.693 554.086 507.219H553.933V504.909H550.472V518H554.103V510.432ZM571.3 523.182C575.041 523.182 577.7 521.477 577.7 518.128V504.909H574.095V507.108H573.959C573.473 506.043 572.408 504.739 570.217 504.739C567.345 504.739 564.916 506.972 564.916 511.429C564.916 515.784 567.277 517.812 570.226 517.812C572.314 517.812 573.482 516.764 573.959 515.682H574.112V518.077C574.112 519.875 572.962 520.574 571.385 520.574C569.783 520.574 568.973 519.875 568.675 519.082L565.317 519.534C565.751 521.597 567.771 523.182 571.3 523.182ZM571.376 515.085C569.595 515.085 568.624 513.67 568.624 511.412C568.624 509.188 569.578 507.628 571.376 507.628C573.141 507.628 574.129 509.119 574.129 511.412C574.129 513.722 573.124 515.085 571.376 515.085ZM591.482 508.642C591.158 506.23 589.214 504.739 585.908 504.739C582.558 504.739 580.351 506.29 580.359 508.812C580.351 510.773 581.587 512.043 584.143 512.554L586.411 513.006C587.553 513.236 588.072 513.653 588.089 514.31C588.072 515.085 587.229 515.639 585.959 515.639C584.663 515.639 583.803 515.085 583.581 514.02L580.01 514.207C580.351 516.713 582.482 518.256 585.95 518.256C589.342 518.256 591.771 516.526 591.78 513.943C591.771 512.051 590.536 510.918 587.996 510.398L585.626 509.92C584.408 509.656 583.956 509.239 583.964 508.608C583.956 507.824 584.842 507.312 585.967 507.312C587.229 507.312 587.979 508.003 588.158 508.847L591.482 508.642ZM597.799 518.247C599.734 518.247 600.987 517.403 601.626 516.185H601.728V518H605.171V509.17C605.171 506.051 602.529 504.739 599.614 504.739C596.478 504.739 594.415 506.239 593.913 508.625L597.271 508.898C597.518 508.028 598.293 507.389 599.597 507.389C600.833 507.389 601.54 508.011 601.54 509.085V509.136C601.54 509.98 600.646 510.091 598.37 510.312C595.779 510.551 593.452 511.42 593.452 514.344C593.452 516.935 595.302 518.247 597.799 518.247ZM598.839 515.741C597.722 515.741 596.921 515.222 596.921 514.224C596.921 513.202 597.765 512.699 599.043 512.52C599.836 512.409 601.131 512.222 601.566 511.932V513.321C601.566 514.693 600.433 515.741 598.839 515.741ZM611.619 510.432C611.627 508.744 612.633 507.756 614.099 507.756C615.556 507.756 616.434 508.71 616.425 510.312V518H620.056V509.665C620.056 506.614 618.266 504.739 615.539 504.739C613.596 504.739 612.19 505.693 611.602 507.219H611.448V504.909H607.988V518H611.619V510.432ZM629.957 504.909H627.358V504.031C627.358 503.145 627.716 502.625 628.781 502.625C629.216 502.625 629.659 502.719 629.949 502.812L630.588 500.085C630.136 499.949 629.139 499.727 628.023 499.727C625.56 499.727 623.727 501.116 623.727 503.963V504.909H621.878V507.636H623.727V518H627.358V507.636H629.957V504.909ZM632.175 518H635.806V510.594C635.806 508.983 636.982 507.875 638.585 507.875C639.087 507.875 639.778 507.96 640.119 508.071V504.849C639.795 504.773 639.343 504.722 638.977 504.722C637.511 504.722 636.309 505.574 635.832 507.193H635.695V504.909H632.175V518ZM645.354 518.247C647.288 518.247 648.541 517.403 649.18 516.185H649.283V518H652.726V509.17C652.726 506.051 650.084 504.739 647.169 504.739C644.033 504.739 641.97 506.239 641.467 508.625L644.825 508.898C645.072 508.028 645.848 507.389 647.152 507.389C648.388 507.389 649.095 508.011 649.095 509.085V509.136C649.095 509.98 648.2 510.091 645.925 510.312C643.334 510.551 641.007 511.42 641.007 514.344C641.007 516.935 642.857 518.247 645.354 518.247ZM646.393 515.741C645.277 515.741 644.476 515.222 644.476 514.224C644.476 513.202 645.32 512.699 646.598 512.52C647.391 512.409 648.686 512.222 649.121 511.932V513.321C649.121 514.693 647.987 515.741 646.393 515.741ZM661.44 523.182C665.182 523.182 667.841 521.477 667.841 518.128V504.909H664.236V507.108H664.099C663.614 506.043 662.548 504.739 660.358 504.739C657.486 504.739 655.057 506.972 655.057 511.429C655.057 515.784 657.418 517.812 660.366 517.812C662.455 517.812 663.622 516.764 664.099 515.682H664.253V518.077C664.253 519.875 663.102 520.574 661.526 520.574C659.923 520.574 659.114 519.875 658.815 519.082L655.457 519.534C655.892 521.597 657.912 523.182 661.44 523.182ZM661.517 515.085C659.736 515.085 658.764 513.67 658.764 511.412C658.764 509.188 659.719 507.628 661.517 507.628C663.281 507.628 664.27 509.119 664.27 511.412C664.27 513.722 663.264 515.085 661.517 515.085ZM676.696 518.256C679.935 518.256 682.116 516.679 682.628 514.25L679.27 514.028C678.903 515.026 677.966 515.545 676.756 515.545C674.94 515.545 673.79 514.344 673.79 512.392V512.384H682.705V511.386C682.705 506.938 680.011 504.739 676.551 504.739C672.699 504.739 670.202 507.474 670.202 511.514C670.202 515.665 672.665 518.256 676.696 518.256ZM673.79 510.134C673.866 508.642 675 507.449 676.611 507.449C678.188 507.449 679.278 508.574 679.287 510.134H673.79Z" fill="white"/>
<line x1="161" y1="152" x2="161" y2="595" stroke="#001540" stroke-width="2" stroke-dasharray="12 12"/>
<rect width="320" height="150" fill="#B6CEFF"/>
<path d="M124.751 71.25H129.751C129.115 66.6477 125.058 63.4091 119.797 63.4091C113.649 63.4091 108.911 67.8409 108.911 75.3864C108.911 82.75 113.342 87.3182 119.899 87.3182C125.774 87.3182 129.967 83.6023 129.967 77.4773V74.5455H120.229V78.25H125.229C125.161 81.1364 123.195 82.9659 119.922 82.9659C116.229 82.9659 113.899 80.2045 113.899 75.3409C113.899 70.5 116.32 67.7614 119.876 67.7614C122.411 67.7614 124.126 69.0682 124.751 71.25ZM138.55 87.3295C141.129 87.3295 142.8 86.2045 143.652 84.5795H143.788V87H148.379V75.2273C148.379 71.0682 144.857 69.3182 140.97 69.3182C136.788 69.3182 134.038 71.3182 133.368 74.5L137.845 74.8636C138.175 73.7045 139.209 72.8523 140.947 72.8523C142.595 72.8523 143.538 73.6818 143.538 75.1136V75.1818C143.538 76.3068 142.345 76.4545 139.311 76.75C135.857 77.0682 132.754 78.2273 132.754 82.125C132.754 85.5795 135.22 87.3295 138.55 87.3295ZM139.936 83.9886C138.447 83.9886 137.379 83.2955 137.379 81.9659C137.379 80.6023 138.504 79.9318 140.209 79.6932C141.266 79.5455 142.993 79.2955 143.572 78.9091V80.7614C143.572 82.5909 142.061 83.9886 139.936 83.9886ZM152.135 87H156.976V77.125C156.976 74.9773 158.544 73.5 160.68 73.5C161.351 73.5 162.271 73.6136 162.726 73.7614V69.4659C162.294 69.3636 161.692 69.2955 161.203 69.2955C159.249 69.2955 157.646 70.4318 157.01 72.5909H156.828V69.5455H152.135V87ZM169.706 87.3295C172.286 87.3295 173.956 86.2045 174.808 84.5795H174.945V87H179.536V75.2273C179.536 71.0682 176.013 69.3182 172.126 69.3182C167.945 69.3182 165.195 71.3182 164.524 74.5L169.001 74.8636C169.331 73.7045 170.365 72.8523 172.104 72.8523C173.751 72.8523 174.695 73.6818 174.695 75.1136V75.1818C174.695 76.3068 173.501 76.4545 170.467 76.75C167.013 77.0682 163.911 78.2273 163.911 82.125C163.911 85.5795 166.376 87.3295 169.706 87.3295ZM171.092 83.9886C169.604 83.9886 168.536 83.2955 168.536 81.9659C168.536 80.6023 169.661 79.9318 171.365 79.6932C172.422 79.5455 174.149 79.2955 174.729 78.9091V80.7614C174.729 82.5909 173.217 83.9886 171.092 83.9886ZM188.132 76.9091C188.143 74.6591 189.484 73.3409 191.439 73.3409C193.382 73.3409 194.553 74.6136 194.541 76.75V87H199.382V75.8864C199.382 71.8182 196.996 69.3182 193.359 69.3182C190.768 69.3182 188.893 70.5909 188.109 72.625H187.905V69.5455H183.291V87H188.132V76.9091ZM212.482 69.5455H209.197V65.3636H204.357V69.5455H201.97V73.1818H204.357V82.2727C204.334 85.6932 206.663 87.3864 210.175 87.2386C211.425 87.1932 212.311 86.9432 212.8 86.7841L212.038 83.1818C211.8 83.2273 211.288 83.3409 210.834 83.3409C209.868 83.3409 209.197 82.9773 209.197 81.6364V73.1818H212.482V69.5455Z" fill="#001540"/>
<rect x="974" y="164" width="147" height="447" rx="3" fill="#001540"/>
<path d="M1107.97 384.598C1107.97 384.505 1107.97 384.413 1107.97 384.29C1108 382.074 1106.89 380.442 1104.65 379.765C1102.97 379.242 1101.16 378.841 1099.38 378.78C1094.38 378.626 1089.38 378.687 1084.38 378.626C1083.31 378.595 1082.2 378.441 1081.16 378.195C1080.61 378.072 1080.02 377.672 1079.72 377.241C1078.52 375.394 1079.62 372.87 1081.89 372.408C1083.52 372.1 1085.18 371.915 1086.83 371.915C1092.69 371.854 1098.58 371.885 1104.44 371.854C1104.87 371.854 1105.42 371.731 1105.67 371.484C1106.22 370.838 1106.62 370.038 1107.11 369.237H1084.29C1082.75 369.237 1081.19 369.391 1079.66 369.637C1075.18 370.284 1073.18 372.931 1073.89 377.025C1074.23 378.965 1075.39 380.288 1077.45 380.719C1079.07 381.058 1080.73 381.304 1082.39 381.335C1087.08 381.427 1091.8 381.366 1096.49 381.458C1097.75 381.489 1099.04 381.643 1100.24 381.95C1101.89 382.381 1102.45 383.52 1102.38 385.644C1102.32 387.245 1101.68 388.138 1100.08 388.507C1098.89 388.784 1097.66 388.907 1096.43 388.907C1089.5 388.938 1082.6 388.938 1075.67 388.938C1075.33 388.938 1074.81 388.938 1074.69 389.123C1074.07 389.923 1073.58 390.785 1073 391.739H1096.16C1097.78 391.739 1099.41 391.708 1101.03 391.524C1105.17 391.093 1108.36 389.831 1107.97 384.598Z" fill="white"/>
<path d="M1046.65 391.742L1055.36 391.773C1056.59 391.773 1057.73 391.096 1058.31 390.018C1061.87 383.4 1068.43 371.026 1069.38 369.21C1067.33 369.21 1068.68 369.148 1066.87 369.24C1066.47 369.271 1065.98 369.702 1065.73 370.071C1061.96 376.69 1060.76 378.66 1057.02 385.278C1056.28 386.571 1055.55 387.894 1054.78 389.249C1054.41 389.865 1053.77 390.265 1053.03 390.265H1052.11C1051.41 390.265 1050.73 389.865 1050.36 389.249C1049.6 387.894 1048.86 386.602 1048.13 385.278C1044.38 378.629 1043.07 376.69 1039.29 370.071C1039.08 369.702 1038.56 369.271 1038.16 369.24C1036.38 369.148 1034.57 369.21 1032.51 369.21C1033.5 371.026 1040.15 383.4 1043.68 389.988C1044.29 391.065 1045.43 391.742 1046.65 391.742Z" fill="white"/>
<path d="M1018.28 369.33H990L992.392 372.131L1015.76 372.501C1019.38 372.562 1022.3 375.517 1022.3 379.15L1022.33 382.136C1022.33 385.799 1019.41 388.785 1015.73 388.815L998.404 389.031C998.158 389.031 997.974 388.846 997.974 388.6V378.688L992.362 372.1V391.062C992.362 391.432 992.668 391.771 993.067 391.771H1018.25C1024.01 391.771 1028.71 387.061 1028.71 381.274V379.796C1028.71 374.009 1024.05 369.33 1018.28 369.33Z" fill="white"/>
<path d="M997.867 405.992C997.614 406.323 997.262 406.574 996.813 406.744C996.364 406.914 995.854 406.999 995.282 406.999C994.695 406.999 994.175 406.866 993.723 406.599C993.27 406.332 992.921 405.952 992.674 405.457C992.43 404.958 992.303 404.378 992.293 403.716V403.167C992.293 402.106 992.547 401.278 993.054 400.684C993.561 400.086 994.268 399.787 995.176 399.787C995.956 399.787 996.576 399.98 997.035 400.366C997.494 400.752 997.769 401.307 997.862 402.034H996.669C996.534 401.188 996.045 400.766 995.201 400.766C994.655 400.766 994.239 400.963 993.954 401.359C993.672 401.751 993.526 402.328 993.516 403.09V403.629C993.516 404.388 993.675 404.978 993.992 405.399C994.313 405.817 994.758 406.025 995.326 406.025C995.948 406.025 996.391 405.884 996.654 405.601V404.227H995.21V403.301H997.867V405.992Z" fill="white"/>
<path d="M1006.31 399.884V404.574C1006.31 405.32 1006.07 405.912 1005.59 406.349C1005.11 406.782 1004.48 407 1003.69 407C1002.88 407 1002.25 406.786 1001.78 406.358C1001.3 405.927 1001.07 405.331 1001.07 404.57V399.884H1002.28V404.579C1002.28 405.049 1002.4 405.407 1002.64 405.654C1002.87 405.902 1003.22 406.026 1003.69 406.026C1004.62 406.026 1005.09 405.531 1005.09 404.541V399.884H1006.31Z" fill="white"/>
<path d="M1013.4 405.269H1010.68L1010.12 406.903H1008.85L1011.5 399.884H1012.59L1015.24 406.903H1013.97L1013.4 405.269ZM1011.03 404.285H1013.06L1012.04 401.373L1011.03 404.285Z" fill="white"/>
<path d="M1020.59 404.198H1019.23V406.903H1018.01V399.884H1020.48C1021.28 399.884 1021.91 400.065 1022.35 400.429C1022.79 400.792 1023.01 401.317 1023.01 402.005C1023.01 402.474 1022.89 402.868 1022.67 403.186C1022.44 403.501 1022.13 403.744 1021.72 403.914L1023.3 406.84V406.903H1021.99L1020.59 404.198ZM1019.23 403.22H1020.48C1020.89 403.22 1021.21 403.117 1021.44 402.912C1021.67 402.702 1021.79 402.418 1021.79 402.058C1021.79 401.682 1021.68 401.391 1021.47 401.185C1021.26 400.98 1020.94 400.874 1020.51 400.867H1019.23V403.22Z" fill="white"/>
<path d="M1030.06 405.269H1027.34L1026.78 406.903H1025.51L1028.16 399.884H1029.25L1031.9 406.903H1030.63L1030.06 405.269ZM1027.69 404.285H1029.72L1028.7 401.373L1027.69 404.285Z" fill="white"/>
<path d="M1040.23 406.903H1039.01L1035.89 401.923V406.903H1034.67V399.884H1035.89L1039.02 404.883V399.884H1040.23V406.903Z" fill="white"/>
<path d="M1048.56 400.867H1046.38V406.903H1045.17V400.867H1043V399.884H1048.56V400.867Z" fill="white"/>
<path d="M1055.56 403.769H1052.68V405.929H1056.04V406.903H1051.46V399.884H1056.01V400.867H1052.68V402.805H1055.56V403.769Z" fill="white"/>
<path d="M1063.1 403.769H1060.22V405.929H1063.59V406.903H1059V399.884H1063.55V400.867H1060.22V402.805H1063.1V403.769Z" fill="white"/>
<path d="M1073.45 405.375L1075.23 399.884H1076.57L1074.04 406.903H1072.86L1070.35 399.884H1071.68L1073.45 405.375Z" fill="white"/>
<path d="M1082.89 405.269H1080.17L1079.61 406.903H1078.34L1080.99 399.884H1082.08L1084.73 406.903H1083.46L1082.89 405.269ZM1080.52 404.285H1082.55L1081.53 401.373L1080.52 404.285Z" fill="white"/>
<path d="M1092.54 399.884V404.574C1092.54 405.32 1092.3 405.912 1091.83 406.349C1091.35 406.782 1090.72 407 1089.93 407C1089.12 407 1088.49 406.786 1088.01 406.358C1087.54 405.927 1087.31 405.331 1087.31 404.57V399.884H1088.52V404.579C1088.52 405.049 1088.64 405.407 1088.88 405.654C1089.11 405.902 1089.46 406.026 1089.93 406.026C1090.86 406.026 1091.33 405.531 1091.33 404.541V399.884H1092.54Z" fill="white"/>
<path d="M1097.04 405.929H1100.22V406.903H1095.82V399.884H1097.04V405.929Z" fill="white"/>
<path d="M1107.2 400.867H1105.01V406.903H1103.8V400.867H1101.64V399.884H1107.2V400.867Z" fill="white"/>
<path d="M1076.52 318.573C1076.72 316.742 1076.59 314.912 1076.13 313.147C1075.61 311.087 1074.6 309.159 1073.29 307.524C1071.95 305.89 1070.25 304.517 1068.39 303.569C1067.44 303.111 1066.46 302.719 1065.41 302.458C1064.4 302.196 1063.36 302.065 1062.31 302H1061.92H1061.53H1060.77L1059.27 302.033L1056.26 302.098L1053.26 302.163L1050.25 302.229C1046.23 302.327 1042.21 302.458 1038.19 302.621C1042.21 302.817 1046.23 302.915 1050.25 303.013L1053.26 303.079L1056.26 303.144L1059.27 303.209L1060.77 303.242H1061.53H1061.88L1062.24 303.275C1064.17 303.406 1066.03 303.929 1067.73 304.811C1068.58 305.269 1069.37 305.792 1070.12 306.413C1070.87 307.034 1071.53 307.72 1072.11 308.44C1072.9 309.453 1073.55 310.564 1074.04 311.741C1073.85 311.447 1073.65 311.185 1073.42 310.891C1072.77 310.074 1072.05 309.355 1071.26 308.668C1070.48 308.015 1069.6 307.426 1068.68 306.936C1067.77 306.446 1066.82 306.086 1065.81 305.792C1064.83 305.498 1063.81 305.334 1062.77 305.269C1062.51 305.236 1062.24 305.236 1062.02 305.236C1061.88 305.236 1061.75 305.236 1061.62 305.236C1061.49 305.236 1061.36 305.236 1061.26 305.236L1059.79 305.269C1057.83 305.301 1055.87 305.367 1053.91 305.4C1051.95 305.465 1049.99 305.53 1048.03 305.596L1045.09 305.726C1044.6 305.759 1044.11 305.759 1043.62 305.792C1043.13 305.824 1042.64 305.824 1042.15 305.857C1042.64 305.89 1043.13 305.923 1043.62 305.923C1044.11 305.955 1044.6 305.988 1045.09 305.988L1048.03 306.119C1049.99 306.184 1051.95 306.249 1053.91 306.315C1055.87 306.38 1057.83 306.413 1059.79 306.446L1061.26 306.478H1061.62C1061.75 306.478 1061.85 306.478 1061.98 306.478C1062.21 306.478 1062.44 306.511 1062.67 306.544C1063.62 306.642 1064.53 306.838 1065.41 307.099C1067.21 307.655 1068.85 308.57 1070.28 309.78C1071.69 310.989 1072.86 312.493 1073.68 314.16C1073.81 314.421 1073.94 314.716 1074.04 314.977C1073.75 314.519 1073.42 314.095 1073.06 313.702C1071.72 312.133 1070.05 310.858 1068.19 309.943C1067.28 309.486 1066.3 309.159 1065.28 308.897C1064.27 308.668 1063.26 308.538 1062.24 308.505C1061.98 308.505 1061.72 308.505 1061.49 308.505H1060.74L1059.27 308.538L1056.33 308.603L1053.39 308.701L1050.45 308.799C1048.49 308.864 1046.53 308.963 1044.56 309.093C1046.53 309.224 1048.49 309.289 1050.45 309.387L1053.39 309.486L1056.33 309.584L1059.27 309.649L1060.74 309.682H1061.49C1061.72 309.682 1061.95 309.682 1062.21 309.714C1064.07 309.812 1065.94 310.335 1067.57 311.185C1070.51 312.656 1072.83 315.206 1074.07 318.246C1073.81 317.886 1073.55 317.494 1073.26 317.167C1072.6 316.383 1071.85 315.631 1071.03 315.01C1070.22 314.356 1069.37 313.8 1068.42 313.343C1067.51 312.885 1066.52 312.526 1065.54 312.264C1064.56 312.002 1063.52 311.839 1062.51 311.806C1062.37 311.806 1062.24 311.806 1062.11 311.806C1061.98 311.806 1061.85 311.806 1061.72 311.806H1061.53H1061.33H1060.97L1059.5 311.839C1057.54 311.904 1055.58 311.97 1053.62 312.068C1052.64 312.101 1051.66 312.166 1050.68 312.231C1049.7 312.297 1048.72 312.362 1047.73 312.427C1048.72 312.493 1049.7 312.558 1050.68 312.624C1051.66 312.689 1052.64 312.722 1053.62 312.787C1055.58 312.885 1057.54 312.95 1059.5 313.016L1060.97 313.049L1061.69 313.081C1061.82 313.081 1061.92 313.081 1062.05 313.081C1062.18 313.081 1062.28 313.081 1062.41 313.114C1063.36 313.179 1064.27 313.375 1065.15 313.604C1066.95 314.127 1068.62 315.01 1070.05 316.219C1070.77 316.808 1071.43 317.494 1072.01 318.213C1072.6 318.932 1073.09 319.717 1073.52 320.534C1073.68 320.861 1073.85 321.221 1074.01 321.58C1073.65 321.057 1073.26 320.567 1072.83 320.076C1071.46 318.54 1069.76 317.265 1067.9 316.415C1066.95 315.99 1065.97 315.664 1064.99 315.435C1063.98 315.206 1062.96 315.108 1061.95 315.075H1061.56H1061.2L1060.45 315.108C1059.96 315.141 1059.47 315.141 1058.98 315.173L1057.51 315.239L1056.04 315.304C1054.07 315.402 1052.11 315.533 1050.15 315.696C1052.11 315.892 1054.07 315.99 1056.04 316.089L1057.51 316.154L1058.98 316.219C1059.47 316.252 1059.96 316.252 1060.45 316.285L1061.2 316.317L1061.92 316.35C1062.87 316.383 1063.78 316.513 1064.69 316.742C1065.61 316.971 1066.49 317.298 1067.31 317.69C1068.16 318.082 1068.94 318.573 1069.69 319.161C1070.45 319.717 1071.1 320.371 1071.72 321.057C1072.34 321.776 1072.9 322.561 1073.35 323.411C1073.29 323.509 1073.26 323.607 1073.19 323.705C1072.21 322.528 1071.07 321.515 1069.83 320.697C1068.06 319.553 1066.03 318.802 1063.94 318.475C1063.42 318.409 1062.9 318.344 1062.37 318.344H1061.98H1061.59C1061.33 318.344 1061.1 318.377 1060.84 318.377C1059.83 318.409 1058.81 318.475 1057.83 318.507C1055.81 318.638 1053.81 318.736 1051.79 318.965C1053.81 319.161 1055.81 319.292 1057.83 319.423C1058.85 319.488 1059.86 319.521 1060.84 319.553L1061.59 319.586H1061.95L1062.31 319.619C1062.8 319.651 1063.26 319.717 1063.75 319.782C1064.69 319.946 1065.61 320.207 1066.49 320.567C1067.37 320.926 1068.22 321.384 1069.01 321.907C1070.28 322.757 1071.39 323.803 1072.31 325.012C1071.33 326.32 1070.12 327.431 1068.75 328.314C1067.93 328.837 1067.08 329.262 1066.2 329.588C1065.32 329.915 1064.37 330.177 1063.42 330.308C1062.93 330.373 1062.47 330.439 1061.98 330.439C1061.85 330.439 1061.75 330.439 1061.62 330.439H1061.26H1060.51L1057.51 330.471C1053.49 330.536 1049.47 330.602 1045.45 330.7C1043.42 330.733 1041.43 330.798 1039.4 330.863C1037.38 330.929 1035.38 330.994 1033.36 331.06C1035.38 331.125 1037.38 331.19 1039.4 331.256C1041.43 331.321 1043.42 331.354 1045.45 331.419C1049.47 331.517 1053.49 331.582 1057.51 331.648L1060.51 331.681H1061.26H1061.66C1061.79 331.681 1061.92 331.681 1062.05 331.681C1062.57 331.681 1063.09 331.648 1063.62 331.582C1065.71 331.321 1067.73 330.634 1069.56 329.523C1070.48 328.968 1071.3 328.314 1072.08 327.594C1072.51 327.202 1072.9 326.777 1073.26 326.352C1073.32 326.451 1073.35 326.549 1073.42 326.647C1073.29 326.908 1073.16 327.137 1073 327.366C1072.51 328.15 1071.92 328.869 1071.26 329.556C1069.99 330.896 1068.42 331.975 1066.69 332.694C1065.84 333.054 1064.92 333.315 1064.01 333.511C1063.55 333.609 1063.09 333.675 1062.6 333.707C1062.47 333.707 1062.37 333.74 1062.24 333.74C1062.11 333.74 1062.02 333.74 1061.88 333.773H1061.53H1061.17L1055.28 333.838C1051.36 333.903 1047.44 333.969 1043.52 334.067L1040.58 334.132L1037.64 334.198C1035.68 334.263 1033.72 334.296 1031.75 334.361C1033.72 334.426 1035.68 334.492 1037.64 334.524L1040.58 334.59L1043.52 334.655C1047.44 334.753 1051.36 334.819 1055.28 334.884L1061.17 334.949H1061.53H1061.92C1062.05 334.949 1062.18 334.949 1062.31 334.949C1062.44 334.949 1062.57 334.949 1062.7 334.917C1063.22 334.884 1063.71 334.819 1064.24 334.753C1065.25 334.59 1066.26 334.329 1067.21 333.936C1068.16 333.576 1069.11 333.086 1069.96 332.53C1070.81 331.975 1071.62 331.321 1072.34 330.569C1073 329.915 1073.58 329.229 1074.07 328.477C1073.85 329.066 1073.55 329.621 1073.22 330.177C1072.28 331.779 1071.03 333.184 1069.53 334.296C1068.78 334.851 1068 335.342 1067.15 335.734C1066.3 336.126 1065.41 336.42 1064.5 336.649C1063.58 336.878 1062.67 336.976 1061.72 337.009L1058.78 337.042L1052.9 337.107L1047.02 337.205L1041.13 337.335C1039.17 337.368 1037.21 337.434 1035.25 337.466C1034.27 337.499 1033.29 337.499 1032.31 337.532L1029.37 337.63L1032.31 337.728C1033.29 337.761 1034.27 337.793 1035.25 337.793C1037.21 337.826 1039.17 337.891 1041.13 337.924L1047.02 338.055L1052.9 338.153L1058.78 338.218L1061.72 338.251C1062.73 338.251 1063.78 338.153 1064.79 337.957C1066.82 337.532 1068.75 336.715 1070.41 335.505C1071.26 334.917 1072.05 334.23 1072.73 333.478C1073.22 332.955 1073.68 332.367 1074.07 331.779C1073.45 333.315 1072.54 334.721 1071.43 335.93C1070.15 337.303 1068.62 338.381 1066.92 339.134C1066.07 339.526 1065.19 339.787 1064.27 339.983C1063.81 340.082 1063.36 340.147 1062.9 340.212C1062.67 340.245 1062.44 340.245 1062.21 340.277C1062.08 340.277 1061.98 340.277 1061.85 340.277C1061.72 340.277 1061.62 340.277 1061.49 340.277L1055.61 340.343L1049.73 340.408L1043.85 340.506L1037.96 340.604C1034.04 340.67 1030.12 340.768 1026.2 340.866C1030.12 340.964 1034.04 341.062 1037.96 341.128L1043.85 341.226L1049.73 341.323L1055.61 341.389L1061.49 341.454H1061.88C1062.02 341.454 1062.15 341.454 1062.28 341.454C1062.54 341.454 1062.8 341.422 1063.03 341.422C1063.55 341.389 1064.04 341.323 1064.56 341.226C1065.58 341.03 1066.56 340.735 1067.51 340.343C1069.4 339.558 1071.13 338.381 1072.57 336.878C1073.13 336.29 1073.65 335.636 1074.11 334.982C1073.91 335.505 1073.65 335.996 1073.39 336.486C1072.93 337.303 1072.41 338.055 1071.79 338.774C1071.17 339.493 1070.51 340.114 1069.76 340.702C1069.4 340.997 1069.01 341.258 1068.62 341.487C1068.22 341.749 1067.8 341.945 1067.41 342.174C1066.56 342.566 1065.68 342.893 1064.79 343.122C1063.88 343.35 1062.96 343.481 1062.02 343.514H1061.66H1061.3H1060.54H1059.07C1055.15 343.546 1051.23 343.612 1047.31 343.644C1039.47 343.775 1031.62 343.873 1023.78 344.102C1031.62 344.298 1039.47 344.429 1047.31 344.56C1051.23 344.625 1055.15 344.658 1059.07 344.69H1060.54H1061.3H1061.66H1062.05C1063.06 344.69 1064.11 344.56 1065.09 344.331C1067.08 343.873 1069.01 343.024 1070.68 341.781C1071.49 341.16 1072.28 340.474 1072.96 339.689C1073.39 339.232 1073.78 338.741 1074.11 338.218C1073.58 339.493 1072.86 340.703 1071.98 341.781C1071.36 342.5 1070.71 343.187 1069.96 343.775C1069.2 344.363 1068.39 344.887 1067.54 345.311C1066.69 345.737 1065.77 346.064 1064.86 346.325C1063.94 346.554 1062.96 346.717 1062.02 346.75H1061.66H1061.26H1060.51H1059.01L1056 346.783L1049.96 346.848L1043.91 346.913L1037.87 347.011L1031.82 347.109L1025.77 347.207L1022.77 347.273L1019.76 347.338L1022.77 347.403L1025.77 347.469L1031.82 347.567L1037.87 347.665L1043.91 347.763L1049.96 347.829L1056 347.894L1059.01 347.927H1060.51H1061.26H1061.66H1062.05C1063.09 347.927 1064.14 347.796 1065.19 347.567C1066.2 347.338 1067.21 346.979 1068.16 346.521C1070.09 345.638 1071.79 344.298 1073.16 342.696C1074.53 341.095 1075.58 339.166 1076.17 337.14C1076.69 335.276 1076.85 333.283 1076.66 331.354C1076.52 331.681 1076.56 318.9 1076.52 318.573Z" fill="white"/>
<ellipse cx="1047.5" cy="166" rx="73.5" ry="10" fill="#455A85"/>
<ellipse cx="1047.5" cy="609" rx="73.5" ry="12" fill="#001540"/>
</svg>
