<svg width="1411" height="650" viewBox="0 0 1411 650" fill="none" xmlns="http://www.w3.org/2000/svg">
<rect x="179" y="226" width="397" height="54" fill="#5279DF"/>
<path d="M607 253.404L573 298.404L573 209L607 253.404Z" fill="#5279DF"/>
<path d="M276.099 249.188H279.849C279.371 245.736 276.329 243.307 272.383 243.307C267.772 243.307 264.218 246.631 264.218 252.29C264.218 257.812 267.542 261.239 272.46 261.239C276.866 261.239 280.011 258.452 280.011 253.858V251.659H272.707V254.438H276.457C276.406 256.602 274.931 257.974 272.477 257.974C269.707 257.974 267.96 255.903 267.96 252.256C267.96 248.625 269.775 246.571 272.442 246.571C274.343 246.571 275.63 247.551 276.099 249.188ZM291.109 255.426C291.118 257.182 289.916 258.102 288.612 258.102C287.24 258.102 286.354 257.139 286.345 255.597V247.909H282.714V256.244C282.723 259.304 284.513 261.17 287.146 261.17C289.115 261.17 290.53 260.156 291.118 258.622H291.254V261H294.74V247.909H291.109V255.426ZM301.377 261.247C303.312 261.247 304.565 260.403 305.204 259.185H305.306V261H308.749V252.17C308.749 249.051 306.107 247.739 303.192 247.739C300.056 247.739 297.994 249.239 297.491 251.625L300.849 251.898C301.096 251.028 301.871 250.389 303.175 250.389C304.411 250.389 305.119 251.011 305.119 252.085V252.136C305.119 252.98 304.224 253.091 301.948 253.312C299.357 253.551 297.031 254.42 297.031 257.344C297.031 259.935 298.88 261.247 301.377 261.247ZM302.417 258.741C301.3 258.741 300.499 258.222 300.499 257.224C300.499 256.202 301.343 255.699 302.621 255.52C303.414 255.409 304.71 255.222 305.144 254.932V256.321C305.144 257.693 304.011 258.741 302.417 258.741ZM311.566 261H315.197V253.594C315.197 251.983 316.373 250.875 317.975 250.875C318.478 250.875 319.168 250.96 319.509 251.071V247.849C319.185 247.773 318.734 247.722 318.367 247.722C316.901 247.722 315.7 248.574 315.222 250.193H315.086V247.909H311.566V261ZM324.744 261.247C326.679 261.247 327.932 260.403 328.571 259.185H328.673V261H332.116V252.17C332.116 249.051 329.474 247.739 326.56 247.739C323.423 247.739 321.361 249.239 320.858 251.625L324.216 251.898C324.463 251.028 325.239 250.389 326.543 250.389C327.778 250.389 328.486 251.011 328.486 252.085V252.136C328.486 252.98 327.591 253.091 325.315 253.312C322.724 253.551 320.398 254.42 320.398 257.344C320.398 259.935 322.247 261.247 324.744 261.247ZM325.784 258.741C324.668 258.741 323.866 258.222 323.866 257.224C323.866 256.202 324.71 255.699 325.989 255.52C326.781 255.409 328.077 255.222 328.511 254.932V256.321C328.511 257.693 327.378 258.741 325.784 258.741ZM338.564 253.432C338.572 251.744 339.578 250.756 341.044 250.756C342.501 250.756 343.379 251.71 343.371 253.312V261H347.001V252.665C347.001 249.614 345.212 247.739 342.484 247.739C340.541 247.739 339.135 248.693 338.547 250.219H338.393V247.909H334.933V261H338.564V253.432ZM356.826 247.909H354.363V244.773H350.732V247.909H348.942V250.636H350.732V257.455C350.715 260.02 352.462 261.29 355.096 261.179C356.033 261.145 356.698 260.957 357.065 260.838L356.494 258.136C356.315 258.17 355.931 258.256 355.59 258.256C354.866 258.256 354.363 257.983 354.363 256.977V250.636H356.826V247.909ZM365.016 261.256C368.255 261.256 370.437 259.679 370.948 257.25L367.59 257.028C367.224 258.026 366.286 258.545 365.076 258.545C363.261 258.545 362.11 257.344 362.11 255.392V255.384H371.025V254.386C371.025 249.938 368.332 247.739 364.871 247.739C361.019 247.739 358.522 250.474 358.522 254.514C358.522 258.665 360.985 261.256 365.016 261.256ZM362.11 253.134C362.187 251.642 363.32 250.449 364.931 250.449C366.508 250.449 367.599 251.574 367.607 253.134H362.11ZM379.36 261.256C382.599 261.256 384.781 259.679 385.292 257.25L381.934 257.028C381.567 258.026 380.63 258.545 379.42 258.545C377.604 258.545 376.454 257.344 376.454 255.392V255.384H385.369V254.386C385.369 249.938 382.675 247.739 379.215 247.739C375.363 247.739 372.866 250.474 372.866 254.514C372.866 258.665 375.329 261.256 379.36 261.256ZM376.454 253.134C376.531 251.642 377.664 250.449 379.275 250.449C380.852 250.449 381.942 251.574 381.951 253.134H376.454ZM393.361 261H397.051V254.812H399.744L403.051 261H407.125L403.418 254.216C405.403 253.364 406.503 251.634 406.503 249.247C406.503 245.778 404.21 243.545 400.247 243.545H393.361V261ZM397.051 251.847V246.562H399.54C401.67 246.562 402.702 247.509 402.702 249.247C402.702 250.977 401.67 251.847 399.557 251.847H397.051ZM414.798 261.256C418.036 261.256 420.218 259.679 420.729 257.25L417.371 257.028C417.005 258.026 416.067 258.545 414.857 258.545C413.042 258.545 411.891 257.344 411.891 255.392V255.384H420.806V254.386C420.806 249.938 418.113 247.739 414.653 247.739C410.8 247.739 408.303 250.474 408.303 254.514C408.303 258.665 410.766 261.256 414.798 261.256ZM411.891 253.134C411.968 251.642 413.102 250.449 414.712 250.449C416.289 250.449 417.38 251.574 417.388 253.134H411.891ZM435.457 265.909V247.909H431.877V250.108H431.715C431.229 249.043 430.181 247.739 427.991 247.739C425.119 247.739 422.69 249.972 422.69 254.472C422.69 258.852 425.016 261.213 427.999 261.213C430.113 261.213 431.212 259.994 431.715 258.903H431.826V265.909H435.457ZM431.903 254.455C431.903 256.79 430.897 258.324 429.15 258.324C427.369 258.324 426.397 256.739 426.397 254.455C426.397 252.188 427.352 250.628 429.15 250.628C430.914 250.628 431.903 252.119 431.903 254.455ZM446.758 255.426C446.766 257.182 445.565 258.102 444.261 258.102C442.888 258.102 442.002 257.139 441.994 255.597V247.909H438.363V256.244C438.371 259.304 440.161 261.17 442.795 261.17C444.763 261.17 446.178 260.156 446.766 258.622H446.903V261H450.388V247.909H446.758V255.426ZM459.259 261.256C462.497 261.256 464.679 259.679 465.19 257.25L461.832 257.028C461.466 258.026 460.528 258.545 459.318 258.545C457.503 258.545 456.352 257.344 456.352 255.392V255.384H465.267V254.386C465.267 249.938 462.574 247.739 459.114 247.739C455.261 247.739 452.764 250.474 452.764 254.514C452.764 258.665 455.227 261.256 459.259 261.256ZM456.352 253.134C456.429 251.642 457.562 250.449 459.173 250.449C460.75 250.449 461.841 251.574 461.849 253.134H456.352ZM478.528 251.642C478.205 249.23 476.261 247.739 472.955 247.739C469.605 247.739 467.398 249.29 467.406 251.812C467.398 253.773 468.634 255.043 471.19 255.554L473.457 256.006C474.599 256.236 475.119 256.653 475.136 257.31C475.119 258.085 474.276 258.639 473.006 258.639C471.71 258.639 470.849 258.085 470.628 257.02L467.057 257.207C467.398 259.713 469.528 261.256 472.997 261.256C476.389 261.256 478.818 259.526 478.827 256.943C478.818 255.051 477.582 253.918 475.043 253.398L472.673 252.92C471.455 252.656 471.003 252.239 471.011 251.608C471.003 250.824 471.889 250.312 473.014 250.312C474.276 250.312 475.026 251.003 475.205 251.847L478.528 251.642ZM488.076 247.909H485.613V244.773H481.982V247.909H480.192V250.636H481.982V257.455C481.965 260.02 483.712 261.29 486.346 261.179C487.283 261.145 487.948 260.957 488.315 260.838L487.744 258.136C487.565 258.17 487.181 258.256 486.84 258.256C486.116 258.256 485.613 257.983 485.613 256.977V250.636H488.076V247.909Z" fill="white"/>
<rect width="400" height="54" transform="matrix(-1 0 0 1 1234 420)" fill="#5279DF"/>
<path d="M806 447.404L840 492.404L840 403L806 447.404Z" fill="#5279DF"/>
<path d="M969.097 443.656C968.612 439.625 965.56 437.307 961.521 437.307C956.91 437.307 953.39 440.562 953.39 446.273C953.39 451.966 956.85 455.239 961.521 455.239C965.995 455.239 968.697 452.264 969.097 449.051L965.364 449.034C965.015 450.901 963.549 451.974 961.58 451.974C958.93 451.974 957.131 450.006 957.131 446.273C957.131 442.642 958.904 440.571 961.606 440.571C963.626 440.571 965.083 441.739 965.364 443.656H969.097ZM975.306 437.545H971.675V455H975.306V437.545ZM981.947 455.247C983.882 455.247 985.135 454.403 985.774 453.185H985.876V455H989.32V446.17C989.32 443.051 986.678 441.739 983.763 441.739C980.626 441.739 978.564 443.239 978.061 445.625L981.419 445.898C981.666 445.028 982.442 444.389 983.746 444.389C984.982 444.389 985.689 445.011 985.689 446.085V446.136C985.689 446.98 984.794 447.091 982.518 447.312C979.928 447.551 977.601 448.42 977.601 451.344C977.601 453.935 979.45 455.247 981.947 455.247ZM982.987 452.741C981.871 452.741 981.07 452.222 981.07 451.224C981.07 450.202 981.913 449.699 983.192 449.52C983.984 449.409 985.28 449.222 985.714 448.932V450.321C985.714 451.693 984.581 452.741 982.987 452.741ZM992.136 455H995.767V441.909H992.136V455ZM993.96 440.222C995.043 440.222 995.929 439.395 995.929 438.381C995.929 437.375 995.043 436.548 993.96 436.548C992.886 436.548 992 437.375 992 438.381C992 439.395 992.886 440.222 993.96 440.222ZM998.675 455H1002.31V447.142C1002.31 445.693 1003.23 444.73 1004.44 444.73C1005.63 444.73 1006.43 445.548 1006.43 446.835V455H1009.95V447.006C1009.95 445.651 1010.73 444.73 1012.05 444.73C1013.21 444.73 1014.08 445.455 1014.08 446.912V455H1017.7V446.196C1017.7 443.358 1016.01 441.739 1013.57 441.739C1011.66 441.739 1010.16 442.719 1009.63 444.219H1009.49C1009.07 442.702 1007.74 441.739 1005.94 441.739C1004.17 441.739 1002.83 442.676 1002.29 444.219H1002.14V441.909H998.675V455ZM1026.19 455H1029.88V448.812H1032.57L1035.88 455H1039.95L1036.25 448.216C1038.23 447.364 1039.33 445.634 1039.33 443.247C1039.33 439.778 1037.04 437.545 1033.08 437.545H1026.19V455ZM1029.88 445.847V440.562H1032.37C1034.5 440.562 1035.53 441.509 1035.53 443.247C1035.53 444.977 1034.5 445.847 1032.38 445.847H1029.88ZM1047.63 455.256C1050.86 455.256 1053.05 453.679 1053.56 451.25L1050.2 451.028C1049.83 452.026 1048.9 452.545 1047.69 452.545C1045.87 452.545 1044.72 451.344 1044.72 449.392V449.384H1053.63V448.386C1053.63 443.938 1050.94 441.739 1047.48 441.739C1043.63 441.739 1041.13 444.474 1041.13 448.514C1041.13 452.665 1043.59 455.256 1047.63 455.256ZM1044.72 447.134C1044.8 445.642 1045.93 444.449 1047.54 444.449C1049.12 444.449 1050.21 445.574 1050.22 447.134H1044.72ZM1068.28 459.909V441.909H1064.71V444.108H1064.54C1064.06 443.043 1063.01 441.739 1060.82 441.739C1057.95 441.739 1055.52 443.972 1055.52 448.472C1055.52 452.852 1057.84 455.213 1060.83 455.213C1062.94 455.213 1064.04 453.994 1064.54 452.903H1064.65V459.909H1068.28ZM1064.73 448.455C1064.73 450.79 1063.73 452.324 1061.98 452.324C1060.2 452.324 1059.23 450.739 1059.23 448.455C1059.23 446.188 1060.18 444.628 1061.98 444.628C1063.74 444.628 1064.73 446.119 1064.73 448.455ZM1079.59 449.426C1079.59 451.182 1078.39 452.102 1077.09 452.102C1075.72 452.102 1074.83 451.139 1074.82 449.597V441.909H1071.19V450.244C1071.2 453.304 1072.99 455.17 1075.62 455.17C1077.59 455.17 1079.01 454.156 1079.59 452.622H1079.73V455H1083.22V441.909H1079.59V449.426ZM1092.09 455.256C1095.33 455.256 1097.51 453.679 1098.02 451.25L1094.66 451.028C1094.29 452.026 1093.36 452.545 1092.15 452.545C1090.33 452.545 1089.18 451.344 1089.18 449.392V449.384H1098.1V448.386C1098.1 443.938 1095.4 441.739 1091.94 441.739C1088.09 441.739 1085.59 444.474 1085.59 448.514C1085.59 452.665 1088.06 455.256 1092.09 455.256ZM1089.18 447.134C1089.26 445.642 1090.39 444.449 1092 444.449C1093.58 444.449 1094.67 445.574 1094.68 447.134H1089.18ZM1111.36 445.642C1111.03 443.23 1109.09 441.739 1105.78 441.739C1102.43 441.739 1100.23 443.29 1100.23 445.812C1100.23 447.773 1101.46 449.043 1104.02 449.554L1106.29 450.006C1107.43 450.236 1107.95 450.653 1107.96 451.31C1107.95 452.085 1107.1 452.639 1105.83 452.639C1104.54 452.639 1103.68 452.085 1103.46 451.02L1099.88 451.207C1100.23 453.713 1102.36 455.256 1105.83 455.256C1109.22 455.256 1111.65 453.526 1111.65 450.943C1111.65 449.051 1110.41 447.918 1107.87 447.398L1105.5 446.92C1104.28 446.656 1103.83 446.239 1103.84 445.608C1103.83 444.824 1104.72 444.312 1105.84 444.312C1107.1 444.312 1107.85 445.003 1108.03 445.847L1111.36 445.642ZM1120.9 441.909H1118.44V438.773H1114.81V441.909H1113.02V444.636H1114.81V451.455C1114.79 454.02 1116.54 455.29 1119.17 455.179C1120.11 455.145 1120.78 454.957 1121.14 454.838L1120.57 452.136C1120.39 452.17 1120.01 452.256 1119.67 452.256C1118.94 452.256 1118.44 451.983 1118.44 450.977V444.636H1120.9V441.909Z" fill="white"/>
<rect width="400" height="54" transform="matrix(-1 0 0 1 1234 541)" fill="#5279DF"/>
<path d="M806 568.404L840 613.404L840 524L806 568.404Z" fill="#5279DF"/>
<path d="M940.912 576H944.602V569.812H947.295L950.602 576H954.676L950.968 569.216C952.954 568.364 954.054 566.634 954.054 564.247C954.054 560.778 951.761 558.545 947.798 558.545H940.912V576ZM944.602 566.847V561.562H947.091C949.221 561.562 950.252 562.509 950.252 564.247C950.252 565.977 949.221 566.847 947.108 566.847H944.602ZM962.348 576.256C965.587 576.256 967.769 574.679 968.28 572.25L964.922 572.028C964.556 573.026 963.618 573.545 962.408 573.545C960.593 573.545 959.442 572.344 959.442 570.392V570.384H968.357V569.386C968.357 564.938 965.664 562.739 962.203 562.739C958.351 562.739 955.854 565.474 955.854 569.514C955.854 573.665 958.317 576.256 962.348 576.256ZM959.442 568.134C959.519 566.642 960.652 565.449 962.263 565.449C963.84 565.449 964.931 566.574 964.939 568.134H959.442ZM974.357 558.545H970.726V576H974.357V558.545ZM983.231 576.256C986.47 576.256 988.652 574.679 989.163 572.25L985.805 572.028C985.439 573.026 984.501 573.545 983.291 573.545C981.475 573.545 980.325 572.344 980.325 570.392V570.384H989.24V569.386C989.24 564.938 986.547 562.739 983.086 562.739C979.234 562.739 976.737 565.474 976.737 569.514C976.737 573.665 979.2 576.256 983.231 576.256ZM980.325 568.134C980.402 566.642 981.535 565.449 983.146 565.449C984.723 565.449 985.814 566.574 985.822 568.134H980.325ZM995.342 576.247C997.277 576.247 998.529 575.403 999.169 574.185H999.271V576H1002.71V567.17C1002.71 564.051 1000.07 562.739 997.157 562.739C994.021 562.739 991.958 564.239 991.456 566.625L994.814 566.898C995.061 566.028 995.836 565.389 997.14 565.389C998.376 565.389 999.083 566.011 999.083 567.085V567.136C999.083 567.98 998.189 568.091 995.913 568.312C993.322 568.551 990.995 569.42 990.995 572.344C990.995 574.935 992.845 576.247 995.342 576.247ZM996.382 573.741C995.265 573.741 994.464 573.222 994.464 572.224C994.464 571.202 995.308 570.699 996.586 570.52C997.379 570.409 998.674 570.222 999.109 569.932V571.321C999.109 572.693 997.975 573.741 996.382 573.741ZM1016.42 566.642C1016.1 564.23 1014.16 562.739 1010.85 562.739C1007.5 562.739 1005.29 564.29 1005.3 566.812C1005.29 568.773 1006.53 570.043 1009.08 570.554L1011.35 571.006C1012.49 571.236 1013.01 571.653 1013.03 572.31C1013.01 573.085 1012.17 573.639 1010.9 573.639C1009.6 573.639 1008.74 573.085 1008.52 572.02L1004.95 572.207C1005.29 574.713 1007.42 576.256 1010.89 576.256C1014.28 576.256 1016.71 574.526 1016.72 571.943C1016.71 570.051 1015.48 568.918 1012.94 568.398L1010.57 567.92C1009.35 567.656 1008.9 567.239 1008.91 566.608C1008.9 565.824 1009.78 565.312 1010.91 565.312C1012.17 565.312 1012.92 566.003 1013.1 566.847L1016.42 566.642ZM1024.97 576.256C1028.21 576.256 1030.39 574.679 1030.91 572.25L1027.55 572.028C1027.18 573.026 1026.24 573.545 1025.03 573.545C1023.22 573.545 1022.07 572.344 1022.07 570.392V570.384H1030.98V569.386C1030.98 564.938 1028.29 562.739 1024.83 562.739C1020.98 562.739 1018.48 565.474 1018.48 569.514C1018.48 573.665 1020.94 576.256 1024.97 576.256ZM1022.07 568.134C1022.14 566.642 1023.28 565.449 1024.89 565.449C1026.46 565.449 1027.56 566.574 1027.56 568.134H1022.07ZM1038.97 576H1042.66V569.812H1045.36L1048.66 576H1052.74L1049.03 569.216C1051.02 568.364 1052.12 566.634 1052.12 564.247C1052.12 560.778 1049.82 558.545 1045.86 558.545H1038.97V576ZM1042.66 566.847V561.562H1045.15C1047.28 561.562 1048.31 562.509 1048.31 564.247C1048.31 565.977 1047.28 566.847 1045.17 566.847H1042.66ZM1060.41 576.256C1063.65 576.256 1065.83 574.679 1066.34 572.25L1062.98 572.028C1062.62 573.026 1061.68 573.545 1060.47 573.545C1058.66 573.545 1057.5 572.344 1057.5 570.392V570.384H1066.42V569.386C1066.42 564.938 1063.73 562.739 1060.27 562.739C1056.41 562.739 1053.92 565.474 1053.92 569.514C1053.92 573.665 1056.38 576.256 1060.41 576.256ZM1057.5 568.134C1057.58 566.642 1058.71 565.449 1060.33 565.449C1061.9 565.449 1062.99 566.574 1063 568.134H1057.5ZM1081.07 580.909V562.909H1077.49V565.108H1077.33C1076.84 564.043 1075.79 562.739 1073.6 562.739C1070.73 562.739 1068.3 564.972 1068.3 569.472C1068.3 573.852 1070.63 576.213 1073.61 576.213C1075.73 576.213 1076.83 574.994 1077.33 573.903H1077.44V580.909H1081.07ZM1077.52 569.455C1077.52 571.79 1076.51 573.324 1074.76 573.324C1072.98 573.324 1072.01 571.739 1072.01 569.455C1072.01 567.188 1072.96 565.628 1074.76 565.628C1076.53 565.628 1077.52 567.119 1077.52 569.455ZM1092.37 570.426C1092.38 572.182 1091.18 573.102 1089.87 573.102C1088.5 573.102 1087.62 572.139 1087.61 570.597V562.909H1083.98V571.244C1083.98 574.304 1085.77 576.17 1088.41 576.17C1090.38 576.17 1091.79 575.156 1092.38 573.622H1092.52V576H1096V562.909H1092.37V570.426ZM1104.87 576.256C1108.11 576.256 1110.29 574.679 1110.8 572.25L1107.45 572.028C1107.08 573.026 1106.14 573.545 1104.93 573.545C1103.12 573.545 1101.97 572.344 1101.97 570.392V570.384H1110.88V569.386C1110.88 564.938 1108.19 562.739 1104.73 562.739C1100.87 562.739 1098.38 565.474 1098.38 569.514C1098.38 573.665 1100.84 576.256 1104.87 576.256ZM1101.97 568.134C1102.04 566.642 1103.18 565.449 1104.79 565.449C1106.36 565.449 1107.45 566.574 1107.46 568.134H1101.97ZM1124.14 566.642C1123.82 564.23 1121.87 562.739 1118.57 562.739C1115.22 562.739 1113.01 564.29 1113.02 566.812C1113.01 568.773 1114.25 570.043 1116.8 570.554L1119.07 571.006C1120.21 571.236 1120.73 571.653 1120.75 572.31C1120.73 573.085 1119.89 573.639 1118.62 573.639C1117.32 573.639 1116.46 573.085 1116.24 572.02L1112.67 572.207C1113.01 574.713 1115.14 576.256 1118.61 576.256C1122 576.256 1124.43 574.526 1124.44 571.943C1124.43 570.051 1123.2 568.918 1120.66 568.398L1118.29 567.92C1117.07 567.656 1116.62 567.239 1116.62 566.608C1116.62 565.824 1117.5 565.312 1118.63 565.312C1119.89 565.312 1120.64 566.003 1120.82 566.847L1124.14 566.642ZM1133.69 562.909H1131.23V559.773H1127.6V562.909H1125.81V565.636H1127.6V572.455C1127.58 575.02 1129.33 576.29 1131.96 576.179C1132.9 576.145 1133.56 575.957 1133.93 575.838L1133.36 573.136C1133.18 573.17 1132.79 573.256 1132.45 573.256C1131.73 573.256 1131.23 572.983 1131.23 571.977V565.636H1133.69V562.909Z" fill="white"/>
<rect x="179" y="330" width="397" height="54" fill="#5279DF"/>
<path d="M607 357.404L573 402.404L573 313L607 357.404Z" fill="#5279DF"/>
<path d="M256.74 365L258.036 361.02H264.334L265.63 365H269.584L263.567 347.545H258.811L252.786 365H256.74ZM258.973 358.139L261.121 351.534H261.257L263.405 358.139H258.973ZM271.617 365H275.248V357.142C275.248 355.693 276.168 354.73 277.378 354.73C278.571 354.73 279.373 355.548 279.373 356.835V365H282.892V357.006C282.892 355.651 283.668 354.73 284.989 354.73C286.148 354.73 287.017 355.455 287.017 356.912V365H290.64V356.196C290.64 353.358 288.952 351.739 286.515 351.739C284.597 351.739 283.105 352.719 282.569 354.219H282.432C282.015 352.702 280.676 351.739 278.878 351.739C277.114 351.739 275.776 352.676 275.23 354.219H275.077V351.909H271.617V365ZM299.473 365.256C302.712 365.256 304.894 363.679 305.405 361.25L302.047 361.028C301.681 362.026 300.743 362.545 299.533 362.545C297.718 362.545 296.567 361.344 296.567 359.392V359.384H305.482V358.386C305.482 353.938 302.789 351.739 299.328 351.739C295.476 351.739 292.979 354.474 292.979 358.514C292.979 362.665 295.442 365.256 299.473 365.256ZM296.567 357.134C296.644 355.642 297.777 354.449 299.388 354.449C300.965 354.449 302.056 355.574 302.064 357.134H296.567ZM311.482 357.432C311.49 355.744 312.496 354.756 313.962 354.756C315.419 354.756 316.297 355.71 316.289 357.312V365H319.919V356.665C319.919 353.614 318.13 351.739 315.402 351.739C313.459 351.739 312.053 352.693 311.465 354.219H311.311V351.909H307.851V365H311.482V357.432ZM327.605 365.213C329.718 365.213 330.818 363.994 331.321 362.903H331.474V365H335.054V347.545H331.431V354.108H331.321C330.835 353.043 329.787 351.739 327.596 351.739C324.724 351.739 322.295 353.972 322.295 358.472C322.295 362.852 324.622 365.213 327.605 365.213ZM328.755 362.324C326.974 362.324 326.002 360.739 326.002 358.455C326.002 356.188 326.957 354.628 328.755 354.628C330.52 354.628 331.508 356.119 331.508 358.455C331.508 360.79 330.502 362.324 328.755 362.324ZM338.039 365H341.669V357.142C341.669 355.693 342.59 354.73 343.8 354.73C344.993 354.73 345.794 355.548 345.794 356.835V365H349.314V357.006C349.314 355.651 350.09 354.73 351.411 354.73C352.57 354.73 353.439 355.455 353.439 356.912V365H357.061V356.196C357.061 353.358 355.374 351.739 352.936 351.739C351.019 351.739 349.527 352.719 348.99 354.219H348.854C348.436 352.702 347.098 351.739 345.3 351.739C343.536 351.739 342.198 352.676 341.652 354.219H341.499V351.909H338.039V365ZM365.895 365.256C369.134 365.256 371.316 363.679 371.827 361.25L368.469 361.028C368.103 362.026 367.165 362.545 365.955 362.545C364.14 362.545 362.989 361.344 362.989 359.392V359.384H371.904V358.386C371.904 353.938 369.211 351.739 365.75 351.739C361.898 351.739 359.401 354.474 359.401 358.514C359.401 362.665 361.864 365.256 365.895 365.256ZM362.989 357.134C363.066 355.642 364.199 354.449 365.81 354.449C367.387 354.449 368.478 355.574 368.486 357.134H362.989ZM377.904 357.432C377.912 355.744 378.918 354.756 380.384 354.756C381.841 354.756 382.719 355.71 382.711 357.312V365H386.341V356.665C386.341 353.614 384.551 351.739 381.824 351.739C379.881 351.739 378.475 352.693 377.887 354.219H377.733V351.909H374.273V365H377.904V357.432ZM396.166 351.909H393.703V348.773H390.072V351.909H388.282V354.636H390.072V361.455C390.055 364.02 391.802 365.29 394.436 365.179C395.373 365.145 396.038 364.957 396.404 364.838L395.833 362.136C395.654 362.17 395.271 362.256 394.93 362.256C394.206 362.256 393.703 361.983 393.703 360.977V354.636H396.166V351.909ZM404.154 365H407.844V358.812H410.537L413.844 365H417.918L414.211 358.216C416.196 357.364 417.296 355.634 417.296 353.247C417.296 349.778 415.003 347.545 411.04 347.545H404.154V365ZM407.844 355.847V350.562H410.333C412.463 350.562 413.495 351.509 413.495 353.247C413.495 354.977 412.463 355.847 410.35 355.847H407.844ZM425.591 365.256C428.829 365.256 431.011 363.679 431.522 361.25L428.164 361.028C427.798 362.026 426.86 362.545 425.65 362.545C423.835 362.545 422.684 361.344 422.684 359.392V359.384H431.599V358.386C431.599 353.938 428.906 351.739 425.446 351.739C421.593 351.739 419.096 354.474 419.096 358.514C419.096 362.665 421.559 365.256 425.591 365.256ZM422.684 357.134C422.761 355.642 423.895 354.449 425.505 354.449C427.082 354.449 428.173 355.574 428.181 357.134H422.684ZM446.25 369.909V351.909H442.67V354.108H442.508C442.022 353.043 440.974 351.739 438.784 351.739C435.912 351.739 433.483 353.972 433.483 358.472C433.483 362.852 435.809 365.213 438.792 365.213C440.906 365.213 442.005 363.994 442.508 362.903H442.619V369.909H446.25ZM442.696 358.455C442.696 360.79 441.69 362.324 439.943 362.324C438.162 362.324 437.19 360.739 437.19 358.455C437.19 356.188 438.145 354.628 439.943 354.628C441.707 354.628 442.696 356.119 442.696 358.455ZM457.551 359.426C457.559 361.182 456.358 362.102 455.054 362.102C453.681 362.102 452.795 361.139 452.787 359.597V351.909H449.156V360.244C449.164 363.304 450.954 365.17 453.588 365.17C455.556 365.17 456.971 364.156 457.559 362.622H457.696V365H461.181V351.909H457.551V359.426ZM470.051 365.256C473.29 365.256 475.472 363.679 475.983 361.25L472.625 361.028C472.259 362.026 471.321 362.545 470.111 362.545C468.296 362.545 467.145 361.344 467.145 359.392V359.384H476.06V358.386C476.06 353.938 473.367 351.739 469.907 351.739C466.054 351.739 463.557 354.474 463.557 358.514C463.557 362.665 466.02 365.256 470.051 365.256ZM467.145 357.134C467.222 355.642 468.355 354.449 469.966 354.449C471.543 354.449 472.634 355.574 472.642 357.134H467.145ZM489.321 355.642C488.998 353.23 487.054 351.739 483.748 351.739C480.398 351.739 478.191 353.29 478.199 355.812C478.191 357.773 479.426 359.043 481.983 359.554L484.25 360.006C485.392 360.236 485.912 360.653 485.929 361.31C485.912 362.085 485.069 362.639 483.799 362.639C482.503 362.639 481.642 362.085 481.421 361.02L477.85 361.207C478.191 363.713 480.321 365.256 483.79 365.256C487.182 365.256 489.611 363.526 489.62 360.943C489.611 359.051 488.375 357.918 485.836 357.398L483.466 356.92C482.248 356.656 481.796 356.239 481.804 355.608C481.796 354.824 482.682 354.312 483.807 354.312C485.069 354.312 485.819 355.003 485.998 355.847L489.321 355.642ZM498.869 351.909H496.406V348.773H492.775V351.909H490.985V354.636H492.775V361.455C492.758 364.02 494.505 365.29 497.139 365.179C498.076 365.145 498.741 364.957 499.108 364.838L498.537 362.136C498.358 362.17 497.974 362.256 497.633 362.256C496.909 362.256 496.406 361.983 496.406 360.977V354.636H498.869V351.909Z" fill="white"/>
<rect x="1091" width="320" height="150" fill="#B6CEFF"/>
<path d="M1164.12 87H1174.06C1179.29 87 1182.07 84.2727 1182.07 80.5682C1182.07 77.125 1179.61 75.0455 1176.96 74.9205V74.6932C1179.38 74.1477 1181.16 72.4318 1181.16 69.6932C1181.16 66.2045 1178.57 63.7273 1173.43 63.7273H1164.12V87ZM1169.04 82.9773V76.7955H1173.16C1175.53 76.7955 1176.99 78.1591 1176.99 80.0795C1176.99 81.8295 1175.8 82.9773 1173.05 82.9773H1169.04ZM1169.04 73.4659V67.7045H1172.78C1174.96 67.7045 1176.2 68.8295 1176.2 70.5114C1176.2 72.3523 1174.7 73.4659 1172.68 73.4659H1169.04ZM1193.14 87.3409C1197.45 87.3409 1200.36 85.2386 1201.05 82L1196.57 81.7045C1196.08 83.0341 1194.83 83.7273 1193.22 83.7273C1190.8 83.7273 1189.26 82.125 1189.26 79.5227V79.5114H1201.15V78.1818C1201.15 72.25 1197.56 69.3182 1192.94 69.3182C1187.81 69.3182 1184.48 72.9659 1184.48 78.3523C1184.48 83.8864 1187.76 87.3409 1193.14 87.3409ZM1189.26 76.5114C1189.36 74.5227 1190.88 72.9318 1193.02 72.9318C1195.12 72.9318 1196.58 74.4318 1196.59 76.5114H1189.26ZM1209.15 76.9091C1209.16 74.6591 1210.5 73.3409 1212.45 73.3409C1214.4 73.3409 1215.57 74.6136 1215.56 76.75V87H1220.4V75.8864C1220.4 71.8182 1218.01 69.3182 1214.38 69.3182C1211.78 69.3182 1209.91 70.5909 1209.12 72.625H1208.92V69.5455H1204.31V87H1209.15V76.9091ZM1232.17 87.3409C1236.49 87.3409 1239.39 85.2386 1240.08 82L1235.6 81.7045C1235.11 83.0341 1233.86 83.7273 1232.25 83.7273C1229.83 83.7273 1228.29 82.125 1228.29 79.5227V79.5114H1240.18V78.1818C1240.18 72.25 1236.59 69.3182 1231.97 69.3182C1226.84 69.3182 1223.51 72.9659 1223.51 78.3523C1223.51 83.8864 1226.79 87.3409 1232.17 87.3409ZM1228.29 76.5114C1228.39 74.5227 1229.91 72.9318 1232.05 72.9318C1234.16 72.9318 1235.61 74.4318 1235.62 76.5114H1228.29ZM1252.72 69.5455H1249.26V68.375C1249.26 67.1932 1249.74 66.5 1251.16 66.5C1251.74 66.5 1252.33 66.625 1252.71 66.75L1253.57 63.1136C1252.96 62.9318 1251.63 62.6364 1250.14 62.6364C1246.86 62.6364 1244.42 64.4886 1244.42 68.2841V69.5455H1241.95V73.1818H1244.42V87H1249.26V73.1818H1252.72V69.5455ZM1255.68 87H1260.52V69.5455H1255.68V87ZM1258.11 67.2955C1259.56 67.2955 1260.74 66.1932 1260.74 64.8409C1260.74 63.5 1259.56 62.3977 1258.11 62.3977C1256.68 62.3977 1255.5 63.5 1255.5 64.8409C1255.5 66.1932 1256.68 67.2955 1258.11 67.2955ZM1272.29 87.3409C1276.93 87.3409 1279.86 84.6136 1280.08 80.6023H1275.51C1275.23 82.4659 1274 83.5114 1272.34 83.5114C1270.08 83.5114 1268.62 81.6136 1268.62 78.2727C1268.62 74.9773 1270.09 73.0909 1272.34 73.0909C1274.12 73.0909 1275.25 74.2614 1275.51 76H1280.08C1279.88 71.9659 1276.82 69.3182 1272.26 69.3182C1266.97 69.3182 1263.7 72.9886 1263.7 78.3409C1263.7 83.6477 1266.91 87.3409 1272.29 87.3409ZM1283.18 87H1288.02V69.5455H1283.18V87ZM1285.61 67.2955C1287.06 67.2955 1288.24 66.1932 1288.24 64.8409C1288.24 63.5 1287.06 62.3977 1285.61 62.3977C1284.18 62.3977 1283 63.5 1283 64.8409C1283 66.1932 1284.18 67.2955 1285.61 67.2955ZM1296.88 87.3295C1299.46 87.3295 1301.13 86.2045 1301.98 84.5795H1302.12V87H1306.71V75.2273C1306.71 71.0682 1303.18 69.3182 1299.3 69.3182C1295.12 69.3182 1292.37 71.3182 1291.7 74.5L1296.17 74.8636C1296.5 73.7045 1297.54 72.8523 1299.28 72.8523C1300.92 72.8523 1301.87 73.6818 1301.87 75.1136V75.1818C1301.87 76.3068 1300.67 76.4545 1297.64 76.75C1294.18 77.0682 1291.08 78.2273 1291.08 82.125C1291.08 85.5795 1293.55 87.3295 1296.88 87.3295ZM1298.26 83.9886C1296.78 83.9886 1295.71 83.2955 1295.71 81.9659C1295.71 80.6023 1296.83 79.9318 1298.54 79.6932C1299.59 79.5455 1301.32 79.2955 1301.9 78.9091V80.7614C1301.9 82.5909 1300.39 83.9886 1298.26 83.9886ZM1310.46 87H1315.3V77.125C1315.3 74.9773 1316.87 73.5 1319.01 73.5C1319.68 73.5 1320.6 73.6136 1321.05 73.7614V69.4659C1320.62 69.3636 1320.02 69.2955 1319.53 69.2955C1317.58 69.2955 1315.97 70.4318 1315.34 72.5909H1315.16V69.5455H1310.46V87ZM1327.08 93.5455C1330.68 93.5455 1332.59 91.7045 1333.58 88.8864L1340.36 69.5682L1335.24 69.5455L1331.59 82.3636H1331.41L1327.79 69.5455H1322.7L1328.96 87.5L1328.68 88.2386C1328.04 89.875 1326.83 89.9545 1325.12 89.4318L1324.03 93.0455C1324.72 93.3409 1325.85 93.5455 1327.08 93.5455Z" fill="#001540"/>
<line x1="1252" y1="154" x2="1252" y2="640" stroke="#001540" stroke-width="2" stroke-dasharray="12 12"/>
<line x1="161" y1="154" x2="161" y2="640" stroke="#001540" stroke-width="2" stroke-dasharray="12 12"/>
<rect width="320" height="150" fill="#B6CEFF"/>
<path d="M90.2528 87L91.9801 81.6932H100.378L102.105 87H107.378L99.3551 63.7273H93.0142L84.9801 87H90.2528ZM93.2301 77.8523L96.0938 69.0455H96.2756L99.1392 77.8523H93.2301ZM110.088 93.5455H114.929V84.2045H115.077C115.747 85.6591 117.213 87.2841 120.031 87.2841C124.009 87.2841 127.111 84.1364 127.111 78.2955C127.111 72.2955 123.872 69.3182 120.043 69.3182C117.122 69.3182 115.724 71.0568 115.077 72.4773H114.861V69.5455H110.088V93.5455ZM114.827 78.2727C114.827 75.1591 116.145 73.1705 118.497 73.1705C120.895 73.1705 122.168 75.25 122.168 78.2727C122.168 81.3182 120.872 83.4318 118.497 83.4318C116.168 83.4318 114.827 81.3864 114.827 78.2727ZM130.338 93.5455H135.179V84.2045H135.327C135.997 85.6591 137.463 87.2841 140.281 87.2841C144.259 87.2841 147.361 84.1364 147.361 78.2955C147.361 72.2955 144.122 69.3182 140.293 69.3182C137.372 69.3182 135.974 71.0568 135.327 72.4773H135.111V69.5455H130.338V93.5455ZM135.077 78.2727C135.077 75.1591 136.395 73.1705 138.747 73.1705C141.145 73.1705 142.418 75.25 142.418 78.2727C142.418 81.3182 141.122 83.4318 138.747 83.4318C136.418 83.4318 135.077 81.3864 135.077 78.2727ZM155.429 63.7273H150.588V87H155.429V63.7273ZM159.307 87H164.148V69.5455H159.307V87ZM161.739 67.2955C163.182 67.2955 164.364 66.1932 164.364 64.8409C164.364 63.5 163.182 62.3977 161.739 62.3977C160.307 62.3977 159.125 63.5 159.125 64.8409C159.125 66.1932 160.307 67.2955 161.739 67.2955ZM175.912 87.3409C180.56 87.3409 183.48 84.6136 183.707 80.6023H179.139C178.855 82.4659 177.628 83.5114 175.969 83.5114C173.707 83.5114 172.241 81.6136 172.241 78.2727C172.241 74.9773 173.719 73.0909 175.969 73.0909C177.741 73.0909 178.878 74.2614 179.139 76H183.707C183.503 71.9659 180.446 69.3182 175.889 69.3182C170.594 69.3182 167.321 72.9886 167.321 78.3409C167.321 83.6477 170.537 87.3409 175.912 87.3409ZM191.784 87.3295C194.364 87.3295 196.034 86.2045 196.886 84.5795H197.023V87H201.614V75.2273C201.614 71.0682 198.091 69.3182 194.205 69.3182C190.023 69.3182 187.273 71.3182 186.602 74.5L191.08 74.8636C191.409 73.7045 192.443 72.8523 194.182 72.8523C195.83 72.8523 196.773 73.6818 196.773 75.1136V75.1818C196.773 76.3068 195.58 76.4545 192.545 76.75C189.091 77.0682 185.989 78.2273 185.989 82.125C185.989 85.5795 188.455 87.3295 191.784 87.3295ZM193.17 83.9886C191.682 83.9886 190.614 83.2955 190.614 81.9659C190.614 80.6023 191.739 79.9318 193.443 79.6932C194.5 79.5455 196.227 79.2955 196.807 78.9091V80.7614C196.807 82.5909 195.295 83.9886 193.17 83.9886ZM210.21 76.9091C210.222 74.6591 211.562 73.3409 213.517 73.3409C215.46 73.3409 216.631 74.6136 216.619 76.75V87H221.46V75.8864C221.46 71.8182 219.074 69.3182 215.438 69.3182C212.847 69.3182 210.972 70.5909 210.188 72.625H209.983V69.5455H205.369V87H210.21V76.9091ZM234.56 69.5455H231.276V65.3636H226.435V69.5455H224.048V73.1818H226.435V82.2727C226.412 85.6932 228.741 87.3864 232.253 87.2386C233.503 87.1932 234.389 86.9432 234.878 86.7841L234.116 83.1818C233.878 83.2273 233.366 83.3409 232.912 83.3409C231.946 83.3409 231.276 82.9773 231.276 81.6364V73.1818H234.56V69.5455Z" fill="#001540"/>
<rect x="627" y="193" width="147" height="447" rx="3" fill="#001540"/>
<path d="M760.966 413.598C760.966 413.505 760.966 413.413 760.966 413.29C760.997 411.074 759.892 409.442 757.654 408.765C755.966 408.242 754.157 407.841 752.378 407.78C747.379 407.626 742.379 407.687 737.379 407.626C736.306 407.595 735.201 407.441 734.159 407.195C733.606 407.072 733.024 406.672 732.717 406.241C731.521 404.394 732.625 401.87 734.895 401.408C736.521 401.1 738.177 400.915 739.833 400.915C745.691 400.854 751.58 400.885 757.439 400.854C757.868 400.854 758.42 400.731 758.666 400.484C759.218 399.838 759.617 399.038 760.107 398.237H737.287C735.753 398.237 734.189 398.391 732.656 398.637C728.178 399.284 726.184 401.931 726.889 406.025C727.227 407.965 728.392 409.288 730.447 409.719C732.073 410.058 733.729 410.304 735.385 410.335C740.079 410.427 744.802 410.366 749.495 410.458C750.752 410.489 752.041 410.643 753.237 410.95C754.893 411.381 755.445 412.52 755.384 414.644C755.322 416.245 754.678 417.138 753.083 417.507C751.887 417.784 750.66 417.907 749.433 417.907C742.501 417.938 735.6 417.938 728.668 417.938C728.331 417.938 727.81 417.938 727.687 418.123C727.073 418.923 726.583 419.785 726 420.739H749.158C750.783 420.739 752.409 420.708 754.034 420.524C758.175 420.093 761.365 418.831 760.966 413.598Z" fill="white"/>
<path d="M699.654 420.742L708.365 420.773C709.592 420.773 710.726 420.096 711.309 419.018C714.867 412.4 721.431 400.026 722.382 398.21C720.327 398.21 721.676 398.148 719.867 398.24C719.468 398.271 718.977 398.702 718.732 399.071C714.959 405.69 713.763 407.66 710.021 414.278C709.285 415.571 708.549 416.894 707.782 418.249C707.414 418.865 706.77 419.265 706.034 419.265H705.113C704.408 419.265 703.733 418.865 703.365 418.249C702.598 416.894 701.862 415.602 701.126 414.278C697.384 407.629 696.065 405.69 692.292 399.071C692.078 398.702 691.556 398.271 691.158 398.24C689.379 398.148 687.569 398.21 685.514 398.21C686.496 400.026 693.151 412.4 696.679 418.988C697.292 420.065 698.427 420.742 699.654 420.742Z" fill="white"/>
<path d="M671.279 398.33H643L645.392 401.131L668.764 401.501C672.384 401.562 675.297 404.517 675.297 408.15L675.328 411.136C675.328 414.799 672.414 417.785 668.734 417.815L651.404 418.031C651.158 418.031 650.974 417.846 650.974 417.6V407.688L645.362 401.1V420.062C645.362 420.432 645.668 420.771 646.067 420.771H671.249C677.015 420.771 681.708 416.061 681.708 410.274V408.796C681.708 403.009 677.046 398.33 671.279 398.33Z" fill="white"/>
<path d="M650.867 434.992C650.614 435.323 650.262 435.574 649.813 435.744C649.364 435.914 648.854 435.999 648.282 435.999C647.695 435.999 647.175 435.866 646.723 435.599C646.27 435.332 645.921 434.952 645.674 434.457C645.43 433.958 645.303 433.378 645.293 432.716V432.167C645.293 431.106 645.547 430.278 646.054 429.684C646.561 429.086 647.268 428.787 648.176 428.787C648.956 428.787 649.576 428.98 650.035 429.366C650.494 429.752 650.769 430.307 650.862 431.034H649.669C649.534 430.188 649.045 429.766 648.201 429.766C647.655 429.766 647.239 429.963 646.954 430.359C646.672 430.751 646.526 431.328 646.516 432.09V432.629C646.516 433.388 646.675 433.978 646.992 434.399C647.313 434.817 647.758 435.025 648.326 435.025C648.948 435.025 649.391 434.884 649.654 434.601V433.227H648.21V432.301H650.867V434.992Z" fill="white"/>
<path d="M659.305 428.884V433.574C659.305 434.32 659.066 434.912 658.588 435.349C658.113 435.782 657.48 436 656.687 436C655.885 436 655.248 435.786 654.776 435.358C654.304 434.927 654.068 434.331 654.068 433.57V428.884H655.281V433.579C655.281 434.049 655.4 434.407 655.637 434.654C655.875 434.902 656.225 435.026 656.687 435.026C657.624 435.026 658.092 434.531 658.092 433.541V428.884H659.305Z" fill="white"/>
<path d="M666.398 434.269H663.684L663.115 435.903H661.85L664.497 428.884H665.59L668.242 435.903H666.971L666.398 434.269ZM664.025 433.285H666.057L665.041 430.373L664.025 433.285Z" fill="white"/>
<path d="M673.587 433.198H672.23V435.903H671.012V428.884H673.477C674.285 428.884 674.909 429.065 675.349 429.429C675.789 429.792 676.008 430.317 676.008 431.005C676.008 431.474 675.895 431.868 675.666 432.186C675.442 432.501 675.127 432.744 674.723 432.914L676.297 435.84V435.903H674.993L673.587 433.198ZM672.23 432.22H673.481C673.892 432.22 674.213 432.117 674.444 431.912C674.675 431.702 674.79 431.418 674.79 431.058C674.79 430.682 674.683 430.391 674.468 430.185C674.256 429.98 673.938 429.874 673.515 429.867H672.23V432.22Z" fill="white"/>
<path d="M683.059 434.269H680.344L679.776 435.903H678.51L681.157 428.884H682.25L684.902 435.903H683.632L683.059 434.269ZM680.685 433.285H682.717L681.701 430.373L680.685 433.285Z" fill="white"/>
<path d="M693.231 435.903H692.014L688.89 430.923V435.903H687.672V428.884H688.89L692.023 433.883V428.884H693.231V435.903Z" fill="white"/>
<path d="M701.564 429.867H699.378V435.903H698.17V429.867H696.004V428.884H701.564V429.867Z" fill="white"/>
<path d="M708.556 432.769H705.677V434.929H709.042V435.903H704.459V428.884H709.008V429.867H705.677V431.805H708.556V432.769Z" fill="white"/>
<path d="M716.101 432.769H713.222V434.929H716.587V435.903H712.004V428.884H716.553V429.867H713.222V431.805H716.101V432.769Z" fill="white"/>
<path d="M726.446 434.375L728.228 428.884H729.566L727.043 435.903H725.864L723.352 428.884H724.685L726.446 434.375Z" fill="white"/>
<path d="M735.889 434.269H733.174L732.606 435.903H731.34L733.988 428.884H735.08L737.732 435.903H736.462L735.889 434.269ZM733.516 433.285H735.547L734.531 430.373L733.516 433.285Z" fill="white"/>
<path d="M745.544 428.884V433.574C745.544 434.32 745.305 434.912 744.827 435.349C744.352 435.782 743.718 436 742.925 436C742.123 436 741.486 435.786 741.014 435.358C740.543 434.927 740.307 434.331 740.307 433.57V428.884H741.52V433.579C741.52 434.049 741.638 434.407 741.876 434.654C742.114 434.902 742.463 435.026 742.925 435.026C743.863 435.026 744.331 434.531 744.331 433.541V428.884H745.544Z" fill="white"/>
<path d="M750.038 434.929H753.22V435.903H748.82V428.884H750.038V434.929Z" fill="white"/>
<path d="M760.196 429.867H758.011V435.903H756.803V429.867H754.637V428.884H760.196V429.867Z" fill="white"/>
<path d="M729.525 347.573C729.721 345.742 729.59 343.912 729.133 342.147C728.61 340.087 727.597 338.159 726.289 336.524C724.95 334.89 723.251 333.517 721.388 332.569C720.44 332.111 719.46 331.719 718.414 331.458C717.401 331.196 716.355 331.065 715.309 331H714.917H714.525H713.774L712.27 331.033L709.264 331.098L706.257 331.163L703.251 331.229C699.232 331.327 695.212 331.458 691.193 331.621C695.212 331.817 699.232 331.915 703.251 332.013L706.257 332.079L709.264 332.144L712.27 332.209L713.774 332.242H714.525H714.884L715.244 332.275C717.172 332.406 719.035 332.929 720.734 333.811C721.584 334.269 722.368 334.792 723.12 335.413C723.871 336.034 724.525 336.72 725.113 337.44C725.897 338.453 726.551 339.564 727.041 340.741C726.845 340.447 726.649 340.185 726.42 339.891C725.767 339.074 725.048 338.355 724.263 337.668C723.479 337.015 722.597 336.426 721.682 335.936C720.767 335.446 719.819 335.086 718.806 334.792C717.826 334.498 716.813 334.334 715.767 334.269C715.506 334.236 715.244 334.236 715.015 334.236C714.884 334.236 714.754 334.236 714.623 334.236C714.492 334.236 714.362 334.236 714.264 334.236L712.793 334.269C710.833 334.301 708.872 334.367 706.911 334.4C704.95 334.465 702.99 334.53 701.029 334.596L698.088 334.726C697.598 334.759 697.107 334.759 696.617 334.792C696.127 334.824 695.637 334.824 695.147 334.857C695.637 334.89 696.127 334.923 696.617 334.923C697.107 334.955 697.598 334.988 698.088 334.988L701.029 335.119C702.99 335.184 704.95 335.249 706.911 335.315C708.872 335.38 710.833 335.413 712.793 335.446L714.264 335.478H714.623C714.754 335.478 714.852 335.478 714.983 335.478C715.211 335.478 715.44 335.511 715.669 335.544C716.617 335.642 717.532 335.838 718.414 336.099C720.211 336.655 721.845 337.57 723.283 338.78C724.688 339.989 725.865 341.493 726.681 343.16C726.812 343.421 726.943 343.716 727.041 343.977C726.747 343.519 726.42 343.095 726.061 342.702C724.721 341.133 723.054 339.858 721.192 338.943C720.277 338.486 719.296 338.159 718.283 337.897C717.27 337.668 716.257 337.538 715.244 337.505C714.983 337.505 714.721 337.505 714.492 337.505H713.741L712.27 337.538L709.329 337.603L706.388 337.701L703.447 337.799C701.486 337.864 699.525 337.963 697.565 338.093C699.525 338.224 701.486 338.289 703.447 338.387L706.388 338.486L709.329 338.584L712.27 338.649L713.741 338.682H714.492C714.721 338.682 714.95 338.682 715.211 338.714C717.074 338.812 718.937 339.335 720.571 340.185C723.512 341.656 725.832 344.206 727.074 347.246C726.812 346.886 726.551 346.494 726.257 346.167C725.603 345.383 724.852 344.631 724.035 344.01C723.218 343.356 722.368 342.8 721.42 342.343C720.505 341.885 719.525 341.526 718.545 341.264C717.564 341.002 716.519 340.839 715.506 340.806C715.375 340.806 715.244 340.806 715.113 340.806C714.983 340.806 714.852 340.806 714.721 340.806H714.525H714.329H713.97L712.499 340.839C710.538 340.904 708.577 340.97 706.617 341.068C705.636 341.101 704.656 341.166 703.676 341.231C702.695 341.297 701.715 341.362 700.735 341.427C701.715 341.493 702.695 341.558 703.676 341.624C704.656 341.689 705.636 341.722 706.617 341.787C708.577 341.885 710.538 341.95 712.499 342.016L713.97 342.049L714.688 342.081C714.819 342.081 714.917 342.081 715.048 342.081C715.179 342.081 715.277 342.081 715.407 342.114C716.355 342.179 717.27 342.375 718.153 342.604C719.95 343.127 721.617 344.01 723.054 345.219C723.773 345.808 724.427 346.494 725.015 347.213C725.603 347.932 726.093 348.717 726.518 349.534C726.681 349.861 726.845 350.221 727.009 350.58C726.649 350.057 726.257 349.567 725.832 349.076C724.46 347.54 722.76 346.265 720.898 345.415C719.95 344.99 718.969 344.664 717.989 344.435C716.976 344.206 715.963 344.108 714.95 344.075H714.558H714.198L713.447 344.108C712.957 344.141 712.466 344.141 711.976 344.173L710.506 344.239L709.035 344.304C707.075 344.402 705.114 344.533 703.153 344.696C705.114 344.892 707.075 344.99 709.035 345.089L710.506 345.154L711.976 345.219C712.466 345.252 712.957 345.252 713.447 345.285L714.198 345.317L714.917 345.35C715.865 345.383 716.78 345.513 717.695 345.742C718.61 345.971 719.493 346.298 720.309 346.69C721.159 347.082 721.943 347.573 722.695 348.161C723.447 348.717 724.1 349.371 724.721 350.057C725.342 350.776 725.897 351.561 726.355 352.411C726.289 352.509 726.257 352.607 726.192 352.705C725.211 351.528 724.067 350.515 722.826 349.697C721.061 348.553 719.035 347.802 716.944 347.475C716.42 347.409 715.898 347.344 715.375 347.344H714.983H714.591C714.329 347.344 714.1 347.377 713.839 347.377C712.826 347.409 711.813 347.475 710.833 347.507C708.806 347.638 706.813 347.736 704.787 347.965C706.813 348.161 708.806 348.292 710.833 348.423C711.846 348.488 712.859 348.521 713.839 348.553L714.591 348.586H714.95L715.309 348.619C715.8 348.651 716.257 348.717 716.747 348.782C717.695 348.946 718.61 349.207 719.493 349.567C720.374 349.926 721.224 350.384 722.009 350.907C723.283 351.757 724.394 352.803 725.309 354.012C724.329 355.32 723.12 356.431 721.747 357.314C720.93 357.837 720.081 358.262 719.198 358.588C718.316 358.915 717.368 359.177 716.42 359.308C715.931 359.373 715.473 359.439 714.983 359.439C714.852 359.439 714.754 359.439 714.623 359.439H714.264H713.512L710.506 359.471C706.486 359.536 702.467 359.602 698.447 359.7C696.421 359.733 694.428 359.798 692.402 359.863C690.376 359.929 688.382 359.994 686.356 360.06C688.382 360.125 690.376 360.19 692.402 360.256C694.428 360.321 696.421 360.354 698.447 360.419C702.467 360.517 706.486 360.582 710.506 360.648L713.512 360.681H714.264H714.656C714.787 360.681 714.917 360.681 715.048 360.681C715.571 360.681 716.094 360.648 716.617 360.582C718.708 360.321 720.734 359.634 722.564 358.523C723.479 357.968 724.296 357.314 725.08 356.594C725.505 356.202 725.897 355.777 726.257 355.352C726.322 355.451 726.355 355.549 726.42 355.647C726.289 355.908 726.159 356.137 725.996 356.366C725.505 357.15 724.917 357.869 724.263 358.556C722.989 359.896 721.42 360.975 719.689 361.694C718.839 362.054 717.924 362.315 717.009 362.511C716.551 362.609 716.094 362.675 715.604 362.707C715.473 362.707 715.375 362.74 715.244 362.74C715.113 362.74 715.015 362.74 714.884 362.773H714.525H714.166L708.284 362.838C704.362 362.903 700.441 362.969 696.519 363.067L693.578 363.132L690.637 363.198C688.676 363.263 686.716 363.296 684.755 363.361C686.716 363.426 688.676 363.492 690.637 363.524L693.578 363.59L696.519 363.655C700.441 363.753 704.362 363.819 708.284 363.884L714.166 363.949H714.525H714.917C715.048 363.949 715.179 363.949 715.309 363.949C715.44 363.949 715.571 363.949 715.702 363.917C716.224 363.884 716.715 363.819 717.237 363.753C718.251 363.59 719.264 363.329 720.211 362.936C721.159 362.576 722.107 362.086 722.956 361.53C723.806 360.975 724.623 360.321 725.342 359.569C725.996 358.915 726.584 358.229 727.074 357.477C726.845 358.066 726.551 358.621 726.224 359.177C725.276 360.779 724.035 362.184 722.531 363.296C721.78 363.851 720.995 364.342 720.146 364.734C719.296 365.126 718.414 365.42 717.499 365.649C716.584 365.878 715.669 365.976 714.721 366.009L711.78 366.042L705.898 366.107L700.016 366.205L694.134 366.335C692.173 366.368 690.212 366.434 688.251 366.466C687.271 366.499 686.291 366.499 685.31 366.532L682.369 366.63L685.31 366.728C686.291 366.761 687.271 366.793 688.251 366.793C690.212 366.826 692.173 366.891 694.134 366.924L700.016 367.055L705.898 367.153L711.78 367.218L714.721 367.251C715.734 367.251 716.78 367.153 717.793 366.957C719.819 366.532 721.747 365.715 723.414 364.505C724.263 363.917 725.048 363.23 725.734 362.478C726.224 361.955 726.681 361.367 727.074 360.779C726.453 362.315 725.538 363.721 724.427 364.93C723.152 366.303 721.617 367.381 719.917 368.134C719.068 368.526 718.185 368.787 717.27 368.983C716.813 369.082 716.355 369.147 715.898 369.212C715.669 369.245 715.44 369.245 715.211 369.277C715.081 369.277 714.983 369.277 714.852 369.277C714.721 369.277 714.623 369.277 714.492 369.277L708.61 369.343L702.728 369.408L696.846 369.506L690.964 369.604C687.042 369.67 683.121 369.768 679.199 369.866C683.121 369.964 687.042 370.062 690.964 370.128L696.846 370.226L702.728 370.323L708.61 370.389L714.492 370.454H714.884C715.015 370.454 715.146 370.454 715.277 370.454C715.538 370.454 715.8 370.422 716.028 370.422C716.551 370.389 717.041 370.323 717.564 370.226C718.577 370.03 719.558 369.735 720.505 369.343C722.401 368.558 724.133 367.382 725.571 365.878C726.126 365.29 726.649 364.636 727.106 363.982C726.91 364.505 726.649 364.996 726.388 365.486C725.93 366.303 725.407 367.055 724.786 367.774C724.165 368.493 723.512 369.114 722.76 369.702C722.401 369.997 722.009 370.258 721.617 370.487C721.224 370.749 720.799 370.945 720.407 371.174C719.558 371.566 718.675 371.893 717.793 372.122C716.878 372.35 715.963 372.481 715.015 372.514H714.656H714.296H713.545H712.074C708.153 372.546 704.231 372.612 700.31 372.644C692.467 372.775 684.624 372.873 676.781 373.102C684.624 373.298 692.467 373.429 700.31 373.56C704.231 373.625 708.153 373.658 712.074 373.69H713.545H714.296H714.656H715.048C716.061 373.69 717.107 373.56 718.087 373.331C720.081 372.873 722.009 372.024 723.675 370.781C724.492 370.16 725.276 369.474 725.963 368.689C726.388 368.232 726.78 367.741 727.106 367.218C726.584 368.493 725.865 369.703 724.983 370.781C724.361 371.5 723.708 372.187 722.956 372.775C722.205 373.363 721.388 373.887 720.538 374.311C719.689 374.737 718.773 375.064 717.858 375.325C716.944 375.554 715.963 375.717 715.015 375.75H714.656H714.264H713.512H712.009L709.002 375.783L702.957 375.848L696.911 375.913L690.866 376.011L684.82 376.109L678.775 376.207L675.768 376.273L672.762 376.338L675.768 376.403L678.775 376.469L684.82 376.567L690.866 376.665L696.911 376.763L702.957 376.829L709.002 376.894L712.009 376.927H713.512H714.264H714.656H715.048C716.094 376.927 717.14 376.796 718.185 376.567C719.198 376.338 720.211 375.979 721.159 375.521C723.087 374.638 724.786 373.298 726.159 371.696C727.531 370.095 728.577 368.166 729.165 366.14C729.688 364.276 729.851 362.283 729.655 360.354C729.525 360.681 729.557 347.9 729.525 347.573Z" fill="white"/>
<ellipse cx="700.5" cy="195" rx="73.5" ry="10" fill="#455A85"/>
<ellipse cx="700.5" cy="638" rx="73.5" ry="12" fill="#001540"/>
</svg>
