<svg width="660" height="390" viewBox="0 0 660 390" fill="none" xmlns="http://www.w3.org/2000/svg">
<path d="M150 115L245 70M150 115L415 70M150 115L510.009 114.983M150 115L510.019 194.996M150 115L510 275M150 115L415 320M150 115L245 320M245 70L150 195M245 70L150 275M245 70L510 275M245 70L510.019 194.996M245 70L510 115M415 70L150 195M415 70L150 275M415 70L510 275M415 70L510.019 194.996M415 70L510 115M510.009 114.983L150 275M510.009 114.983L245 320M510.009 114.983L415 320M510.019 194.996L150 195M510.019 194.996L150 275M510 275L415 320M510 275L245 320M510 275H150M510 275L150 195M415 320L510 195L245 320M415 320L150 275M415 320L150 195M245 320L150 275M245 320L150 195M150 195L510 115" stroke="#001540" stroke-linecap="round" stroke-linejoin="round"/>
<rect x="170" width="150" height="70" rx="4" fill="#B6CEFF"/>
<path d="M212.833 34.0938H214.708C214.469 32.3679 212.948 31.1534 210.975 31.1534C208.669 31.1534 206.892 32.8153 206.892 35.6449C206.892 38.4062 208.554 40.1193 211.013 40.1193C213.216 40.1193 214.789 38.7259 214.789 36.429V35.3295H211.137V36.7188H213.012C212.986 37.8011 212.249 38.4872 211.021 38.4872C209.637 38.4872 208.763 37.4517 208.763 35.6278C208.763 33.8125 209.671 32.7855 211.004 32.7855C211.955 32.7855 212.598 33.2756 212.833 34.0938ZM221.565 31.2727V36.7827C221.565 37.7798 220.866 38.5 219.792 38.5C218.723 38.5 218.02 37.7798 218.02 36.7827V31.2727H216.175V36.9403C216.175 38.8494 217.615 40.1236 219.792 40.1236C221.961 40.1236 223.41 38.8494 223.41 36.9403V31.2727H221.565ZM226.433 40L227.08 38.0099H230.23L230.877 40H232.855L229.846 31.2727H227.468L224.455 40H226.433ZM227.549 36.5696L228.623 33.267H228.691L229.765 36.5696H227.549ZM233.905 40H235.75V36.9062H237.097L238.75 40H240.787L238.933 36.608C239.926 36.1818 240.476 35.3168 240.476 34.1236C240.476 32.3892 239.33 31.2727 237.348 31.2727H233.905V40ZM235.75 35.4233V32.7812H236.994C238.06 32.7812 238.575 33.2543 238.575 34.1236C238.575 34.9886 238.06 35.4233 237.003 35.4233H235.75ZM243.284 40L243.932 38.0099H247.081L247.729 40H249.706L246.698 31.2727H244.32L241.307 40H243.284ZM244.401 36.5696L245.475 33.267H245.543L246.617 36.5696H244.401ZM258.056 31.2727H256.22V36.7614H256.143L252.376 31.2727H250.757V40H252.602V34.5071H252.666L256.463 40H258.056V31.2727ZM259.248 32.794H261.92V40H263.744V32.794H266.416V31.2727H259.248V32.794ZM275.23 35.6364C275.23 32.7812 273.457 31.1534 271.143 31.1534C268.816 31.1534 267.056 32.7812 267.056 35.6364C267.056 38.4787 268.816 40.1193 271.143 40.1193C273.457 40.1193 275.23 38.4915 275.23 35.6364ZM273.359 35.6364C273.359 37.4858 272.481 38.4872 271.143 38.4872C269.801 38.4872 268.927 37.4858 268.927 35.6364C268.927 33.7869 269.801 32.7855 271.143 32.7855C272.481 32.7855 273.359 33.7869 273.359 35.6364ZM276.596 40H278.442V36.9062H279.788L281.442 40H283.479L281.625 36.608C282.618 36.1818 283.167 35.3168 283.167 34.1236C283.167 32.3892 282.021 31.2727 280.04 31.2727H276.596V40ZM278.442 35.4233V32.7812H279.686C280.751 32.7812 281.267 33.2543 281.267 34.1236C281.267 34.9886 280.751 35.4233 279.694 35.4233H278.442Z" fill="#001540"/>
<rect x="340" width="150" height="70" rx="4" fill="#B6CEFF"/>
<path d="M382.833 34.0938H384.708C384.469 32.3679 382.948 31.1534 380.975 31.1534C378.669 31.1534 376.892 32.8153 376.892 35.6449C376.892 38.4062 378.554 40.1193 381.013 40.1193C383.216 40.1193 384.789 38.7259 384.789 36.429V35.3295H381.137V36.7188H383.012C382.986 37.8011 382.249 38.4872 381.021 38.4872C379.637 38.4872 378.763 37.4517 378.763 35.6278C378.763 33.8125 379.671 32.7855 381.004 32.7855C381.955 32.7855 382.598 33.2756 382.833 34.0938ZM391.565 31.2727V36.7827C391.565 37.7798 390.866 38.5 389.792 38.5C388.723 38.5 388.02 37.7798 388.02 36.7827V31.2727H386.175V36.9403C386.175 38.8494 387.615 40.1236 389.792 40.1236C391.961 40.1236 393.41 38.8494 393.41 36.9403V31.2727H391.565ZM396.433 40L397.08 38.0099H400.23L400.877 40H402.855L399.846 31.2727H397.468L394.455 40H396.433ZM397.549 36.5696L398.623 33.267H398.691L399.765 36.5696H397.549ZM403.905 40H405.75V36.9062H407.097L408.75 40H410.787L408.933 36.608C409.926 36.1818 410.476 35.3168 410.476 34.1236C410.476 32.3892 409.33 31.2727 407.348 31.2727H403.905V40ZM405.75 35.4233V32.7812H406.994C408.06 32.7812 408.575 33.2543 408.575 34.1236C408.575 34.9886 408.06 35.4233 407.003 35.4233H405.75ZM413.284 40L413.932 38.0099H417.081L417.729 40H419.706L416.698 31.2727H414.32L411.307 40H413.284ZM414.401 36.5696L415.475 33.267H415.543L416.617 36.5696H414.401ZM428.056 31.2727H426.22V36.7614H426.143L422.376 31.2727H420.757V40H422.602V34.5071H422.666L426.463 40H428.056V31.2727ZM429.248 32.794H431.92V40H433.744V32.794H436.416V31.2727H429.248V32.794ZM445.23 35.6364C445.23 32.7812 443.457 31.1534 441.143 31.1534C438.816 31.1534 437.056 32.7812 437.056 35.6364C437.056 38.4787 438.816 40.1193 441.143 40.1193C443.457 40.1193 445.23 38.4915 445.23 35.6364ZM443.359 35.6364C443.359 37.4858 442.481 38.4872 441.143 38.4872C439.801 38.4872 438.927 37.4858 438.927 35.6364C438.927 33.7869 439.801 32.7855 441.143 32.7855C442.481 32.7855 443.359 33.7869 443.359 35.6364ZM446.596 40H448.442V36.9062H449.788L451.442 40H453.479L451.625 36.608C452.618 36.1818 453.167 35.3168 453.167 34.1236C453.167 32.3892 452.021 31.2727 450.04 31.2727H446.596V40ZM448.442 35.4233V32.7812H449.686C450.751 32.7812 451.267 33.2543 451.267 34.1236C451.267 34.9886 450.751 35.4233 449.694 35.4233H448.442Z" fill="#001540"/>
<rect x="510" y="80" width="150" height="70" rx="4" fill="#B6CEFF"/>
<path d="M546.055 120H549.784C551.744 120 552.788 118.977 552.788 117.588C552.788 116.297 551.864 115.517 550.871 115.47V115.385C551.778 115.18 552.447 114.537 552.447 113.51C552.447 112.202 551.476 111.273 549.55 111.273H546.055V120ZM547.901 118.491V116.173H549.447C550.334 116.173 550.884 116.685 550.884 117.405C550.884 118.061 550.436 118.491 549.405 118.491H547.901ZM547.901 114.925V112.764H549.303C550.121 112.764 550.585 113.186 550.585 113.817C550.585 114.507 550.023 114.925 549.268 114.925H547.901ZM553.989 120H559.887V118.479H555.834V116.395H559.567V114.874H555.834V112.794H559.87V111.273H553.989V120ZM568.636 111.273H566.8V116.761H566.723L562.956 111.273H561.337V120H563.182V114.507H563.246L567.043 120H568.636V111.273ZM570.161 120H576.059V118.479H572.006V116.395H575.739V114.874H572.006V112.794H576.042V111.273H570.161V120ZM577.509 120H579.354V116.395H582.903V114.874H579.354V112.794H583.287V111.273H577.509V120ZM586.373 111.273H584.528V120H586.373V111.273ZM595.592 114.328C595.349 112.312 593.823 111.153 591.803 111.153C589.498 111.153 587.738 112.781 587.738 115.636C587.738 118.483 589.468 120.119 591.803 120.119C594.04 120.119 595.391 118.632 595.592 117.026L593.725 117.017C593.55 117.95 592.817 118.487 591.833 118.487C590.508 118.487 589.609 117.503 589.609 115.636C589.609 113.821 590.495 112.786 591.846 112.786C592.856 112.786 593.585 113.369 593.725 114.328H595.592ZM598.76 111.273H596.915V120H598.76V111.273ZM601.782 120L602.43 118.01H605.579L606.227 120H608.204L605.196 111.273H602.818L599.805 120H601.782ZM602.899 116.57L603.973 113.267H604.041L605.115 116.57H602.899ZM609.255 120H611.1V116.906H612.446L614.1 120H616.137L614.283 116.608C615.276 116.182 615.826 115.317 615.826 114.124C615.826 112.389 614.679 111.273 612.698 111.273H609.255V120ZM611.1 115.423V112.781H612.344C613.409 112.781 613.925 113.254 613.925 114.124C613.925 114.989 613.409 115.423 612.353 115.423H611.1ZM616.255 111.273L619.438 116.915V120H621.271V116.915L624.454 111.273H622.387L620.397 115.031H620.312L618.322 111.273H616.255Z" fill="#001540"/>
<rect x="510" y="160" width="150" height="70" rx="4" fill="#B6CEFF"/>
<path d="M546.055 200H549.784C551.744 200 552.788 198.977 552.788 197.588C552.788 196.297 551.864 195.517 550.871 195.47V195.385C551.778 195.18 552.447 194.537 552.447 193.51C552.447 192.202 551.476 191.273 549.55 191.273H546.055V200ZM547.901 198.491V196.173H549.447C550.334 196.173 550.884 196.685 550.884 197.405C550.884 198.061 550.436 198.491 549.405 198.491H547.901ZM547.901 194.925V192.764H549.303C550.121 192.764 550.585 193.186 550.585 193.817C550.585 194.507 550.023 194.925 549.268 194.925H547.901ZM553.989 200H559.887V198.479H555.834V196.395H559.567V194.874H555.834V192.794H559.87V191.273H553.989V200ZM568.636 191.273H566.8V196.761H566.723L562.956 191.273H561.337V200H563.182V194.507H563.246L567.043 200H568.636V191.273ZM570.161 200H576.059V198.479H572.006V196.395H575.739V194.874H572.006V192.794H576.042V191.273H570.161V200ZM577.509 200H579.354V196.395H582.903V194.874H579.354V192.794H583.287V191.273H577.509V200ZM586.373 191.273H584.528V200H586.373V191.273ZM595.592 194.328C595.349 192.312 593.823 191.153 591.803 191.153C589.498 191.153 587.738 192.781 587.738 195.636C587.738 198.483 589.468 200.119 591.803 200.119C594.04 200.119 595.391 198.632 595.592 197.026L593.725 197.017C593.55 197.95 592.817 198.487 591.833 198.487C590.508 198.487 589.609 197.503 589.609 195.636C589.609 193.821 590.495 192.786 591.846 192.786C592.856 192.786 593.585 193.369 593.725 194.328H595.592ZM598.76 191.273H596.915V200H598.76V191.273ZM601.782 200L602.43 198.01H605.579L606.227 200H608.204L605.196 191.273H602.818L599.805 200H601.782ZM602.899 196.57L603.973 193.267H604.041L605.115 196.57H602.899ZM609.255 200H611.1V196.906H612.446L614.1 200H616.137L614.283 196.608C615.276 196.182 615.826 195.317 615.826 194.124C615.826 192.389 614.679 191.273 612.698 191.273H609.255V200ZM611.1 195.423V192.781H612.344C613.409 192.781 613.925 193.254 613.925 194.124C613.925 194.989 613.409 195.423 612.353 195.423H611.1ZM616.255 191.273L619.438 196.915V200H621.271V196.915L624.454 191.273H622.387L620.397 195.031H620.312L618.322 191.273H616.255Z" fill="#001540"/>
<rect x="510" y="240" width="150" height="70" rx="4" fill="#B6CEFF"/>
<path d="M546.055 280H549.784C551.744 280 552.788 278.977 552.788 277.588C552.788 276.297 551.864 275.517 550.871 275.47V275.385C551.778 275.18 552.447 274.537 552.447 273.51C552.447 272.202 551.476 271.273 549.55 271.273H546.055V280ZM547.901 278.491V276.173H549.447C550.334 276.173 550.884 276.685 550.884 277.405C550.884 278.061 550.436 278.491 549.405 278.491H547.901ZM547.901 274.925V272.764H549.303C550.121 272.764 550.585 273.186 550.585 273.817C550.585 274.507 550.023 274.925 549.268 274.925H547.901ZM553.989 280H559.887V278.479H555.834V276.395H559.567V274.874H555.834V272.794H559.87V271.273H553.989V280ZM568.636 271.273H566.8V276.761H566.723L562.956 271.273H561.337V280H563.182V274.507H563.246L567.043 280H568.636V271.273ZM570.161 280H576.059V278.479H572.006V276.395H575.739V274.874H572.006V272.794H576.042V271.273H570.161V280ZM577.509 280H579.354V276.395H582.903V274.874H579.354V272.794H583.287V271.273H577.509V280ZM586.373 271.273H584.528V280H586.373V271.273ZM595.592 274.328C595.349 272.312 593.823 271.153 591.803 271.153C589.498 271.153 587.738 272.781 587.738 275.636C587.738 278.483 589.468 280.119 591.803 280.119C594.04 280.119 595.391 278.632 595.592 277.026L593.725 277.017C593.55 277.95 592.817 278.487 591.833 278.487C590.508 278.487 589.609 277.503 589.609 275.636C589.609 273.821 590.495 272.786 591.846 272.786C592.856 272.786 593.585 273.369 593.725 274.328H595.592ZM598.76 271.273H596.915V280H598.76V271.273ZM601.782 280L602.43 278.01H605.579L606.227 280H608.204L605.196 271.273H602.818L599.805 280H601.782ZM602.899 276.57L603.973 273.267H604.041L605.115 276.57H602.899ZM609.255 280H611.1V276.906H612.446L614.1 280H616.137L614.283 276.608C615.276 276.182 615.826 275.317 615.826 274.124C615.826 272.389 614.679 271.273 612.698 271.273H609.255V280ZM611.1 275.423V272.781H612.344C613.409 272.781 613.925 273.254 613.925 274.124C613.925 274.989 613.409 275.423 612.353 275.423H611.1ZM616.255 271.273L619.438 276.915V280H621.271V276.915L624.454 271.273H622.387L620.397 275.031H620.312L618.322 271.273H616.255Z" fill="#001540"/>
<rect x="340" y="320" width="150" height="70" rx="4" fill="#B6CEFF"/>
<path d="M382.833 354.094H384.708C384.469 352.368 382.948 351.153 380.975 351.153C378.669 351.153 376.892 352.815 376.892 355.645C376.892 358.406 378.554 360.119 381.013 360.119C383.216 360.119 384.789 358.726 384.789 356.429V355.33H381.137V356.719H383.012C382.986 357.801 382.249 358.487 381.021 358.487C379.637 358.487 378.763 357.452 378.763 355.628C378.763 353.812 379.671 352.786 381.004 352.786C381.955 352.786 382.598 353.276 382.833 354.094ZM391.565 351.273V356.783C391.565 357.78 390.866 358.5 389.792 358.5C388.723 358.5 388.02 357.78 388.02 356.783V351.273H386.175V356.94C386.175 358.849 387.615 360.124 389.792 360.124C391.961 360.124 393.41 358.849 393.41 356.94V351.273H391.565ZM396.433 360L397.08 358.01H400.23L400.877 360H402.855L399.846 351.273H397.468L394.455 360H396.433ZM397.549 356.57L398.623 353.267H398.691L399.765 356.57H397.549ZM403.905 360H405.75V356.906H407.097L408.75 360H410.787L408.933 356.608C409.926 356.182 410.476 355.317 410.476 354.124C410.476 352.389 409.33 351.273 407.348 351.273H403.905V360ZM405.75 355.423V352.781H406.994C408.06 352.781 408.575 353.254 408.575 354.124C408.575 354.989 408.06 355.423 407.003 355.423H405.75ZM413.284 360L413.932 358.01H417.081L417.729 360H419.706L416.698 351.273H414.32L411.307 360H413.284ZM414.401 356.57L415.475 353.267H415.543L416.617 356.57H414.401ZM428.056 351.273H426.22V356.761H426.143L422.376 351.273H420.757V360H422.602V354.507H422.666L426.463 360H428.056V351.273ZM429.248 352.794H431.92V360H433.744V352.794H436.416V351.273H429.248V352.794ZM445.23 355.636C445.23 352.781 443.457 351.153 441.143 351.153C438.816 351.153 437.056 352.781 437.056 355.636C437.056 358.479 438.816 360.119 441.143 360.119C443.457 360.119 445.23 358.491 445.23 355.636ZM443.359 355.636C443.359 357.486 442.481 358.487 441.143 358.487C439.801 358.487 438.927 357.486 438.927 355.636C438.927 353.787 439.801 352.786 441.143 352.786C442.481 352.786 443.359 353.787 443.359 355.636ZM446.596 360H448.442V356.906H449.788L451.442 360H453.479L451.625 356.608C452.618 356.182 453.167 355.317 453.167 354.124C453.167 352.389 452.021 351.273 450.04 351.273H446.596V360ZM448.442 355.423V352.781H449.686C450.751 352.781 451.267 353.254 451.267 354.124C451.267 354.989 450.751 355.423 449.694 355.423H448.442Z" fill="#001540"/>
<rect x="170" y="320" width="150" height="70" rx="4" fill="#B6CEFF"/>
<path d="M212.833 354.094H214.708C214.469 352.368 212.948 351.153 210.975 351.153C208.669 351.153 206.892 352.815 206.892 355.645C206.892 358.406 208.554 360.119 211.013 360.119C213.216 360.119 214.789 358.726 214.789 356.429V355.33H211.137V356.719H213.012C212.986 357.801 212.249 358.487 211.021 358.487C209.637 358.487 208.763 357.452 208.763 355.628C208.763 353.812 209.671 352.786 211.004 352.786C211.955 352.786 212.598 353.276 212.833 354.094ZM221.565 351.273V356.783C221.565 357.78 220.866 358.5 219.792 358.5C218.723 358.5 218.02 357.78 218.02 356.783V351.273H216.175V356.94C216.175 358.849 217.615 360.124 219.792 360.124C221.961 360.124 223.41 358.849 223.41 356.94V351.273H221.565ZM226.433 360L227.08 358.01H230.23L230.877 360H232.855L229.846 351.273H227.468L224.455 360H226.433ZM227.549 356.57L228.623 353.267H228.691L229.765 356.57H227.549ZM233.905 360H235.75V356.906H237.097L238.75 360H240.787L238.933 356.608C239.926 356.182 240.476 355.317 240.476 354.124C240.476 352.389 239.33 351.273 237.348 351.273H233.905V360ZM235.75 355.423V352.781H236.994C238.06 352.781 238.575 353.254 238.575 354.124C238.575 354.989 238.06 355.423 237.003 355.423H235.75ZM243.284 360L243.932 358.01H247.081L247.729 360H249.706L246.698 351.273H244.32L241.307 360H243.284ZM244.401 356.57L245.475 353.267H245.543L246.617 356.57H244.401ZM258.056 351.273H256.22V356.761H256.143L252.376 351.273H250.757V360H252.602V354.507H252.666L256.463 360H258.056V351.273ZM259.248 352.794H261.92V360H263.744V352.794H266.416V351.273H259.248V352.794ZM275.23 355.636C275.23 352.781 273.457 351.153 271.143 351.153C268.816 351.153 267.056 352.781 267.056 355.636C267.056 358.479 268.816 360.119 271.143 360.119C273.457 360.119 275.23 358.491 275.23 355.636ZM273.359 355.636C273.359 357.486 272.481 358.487 271.143 358.487C269.801 358.487 268.927 357.486 268.927 355.636C268.927 353.787 269.801 352.786 271.143 352.786C272.481 352.786 273.359 353.787 273.359 355.636ZM276.596 360H278.442V356.906H279.788L281.442 360H283.479L281.625 356.608C282.618 356.182 283.167 355.317 283.167 354.124C283.167 352.389 282.021 351.273 280.04 351.273H276.596V360ZM278.442 355.423V352.781H279.686C280.751 352.781 281.267 353.254 281.267 354.124C281.267 354.989 280.751 355.423 279.694 355.423H278.442Z" fill="#001540"/>
<rect y="240" width="150" height="70" rx="4" fill="#B6CEFF"/>
<path d="M42.5811 280L43.2289 278.01H46.378L47.0257 280H49.003L45.9945 271.273H43.6167L40.6039 280H42.5811ZM43.6976 276.57L44.7715 273.267H44.8397L45.9135 276.57H43.6976ZM50.0534 280H51.8986V277.17H53.4498C55.4569 277.17 56.6245 275.973 56.6245 274.23C56.6245 272.496 55.4782 271.273 53.4966 271.273H50.0534V280ZM51.8986 275.692V272.781H53.1429C54.2083 272.781 54.7239 273.361 54.7239 274.23C54.7239 275.095 54.2083 275.692 53.1515 275.692H51.8986ZM57.823 280H59.6681V277.17H61.2193C63.2264 277.17 64.394 275.973 64.394 274.23C64.394 272.496 63.2477 271.273 61.2662 271.273H57.823V280ZM59.6681 275.692V272.781H60.9125C61.9778 272.781 62.4934 273.361 62.4934 274.23C62.4934 275.095 61.9778 275.692 60.921 275.692H59.6681ZM65.5925 280H71.1792V278.479H67.4377V271.273H65.5925V280ZM74.2463 271.273H72.4011V280H74.2463V271.273ZM83.4647 274.328C83.2218 272.312 81.6962 271.153 79.6763 271.153C77.3709 271.153 75.611 272.781 75.611 275.636C75.611 278.483 77.3411 280.119 79.6763 280.119C81.9135 280.119 83.2644 278.632 83.4647 277.026L81.5982 277.017C81.4235 277.95 80.6905 278.487 79.7061 278.487C78.3809 278.487 77.4817 277.503 77.4817 275.636C77.4817 273.821 78.3681 272.786 79.7189 272.786C80.7289 272.786 81.4576 273.369 81.5982 274.328H83.4647ZM86.128 280L86.7757 278.01H89.9249L90.5726 280H92.5499L89.5414 271.273H87.1635L84.1507 280H86.128ZM87.2445 276.57L88.3184 273.267H88.3865L89.4604 276.57H87.2445ZM100.9 271.273H99.0634V276.761H98.9867L95.2196 271.273H93.6003V280H95.4455V274.507H95.5094L99.3063 280H100.9V271.273ZM102.092 272.794H104.764V280H106.588V272.794H109.26V271.273H102.092V272.794Z" fill="#001540"/>
<rect y="160" width="150" height="70" rx="4" fill="#B6CEFF"/>
<path d="M42.5811 200L43.2289 198.01H46.378L47.0257 200H49.003L45.9945 191.273H43.6167L40.6039 200H42.5811ZM43.6976 196.57L44.7715 193.267H44.8397L45.9135 196.57H43.6976ZM50.0534 200H51.8986V197.17H53.4498C55.4569 197.17 56.6245 195.973 56.6245 194.23C56.6245 192.496 55.4782 191.273 53.4966 191.273H50.0534V200ZM51.8986 195.692V192.781H53.1429C54.2083 192.781 54.7239 193.361 54.7239 194.23C54.7239 195.095 54.2083 195.692 53.1515 195.692H51.8986ZM57.823 200H59.6681V197.17H61.2193C63.2264 197.17 64.394 195.973 64.394 194.23C64.394 192.496 63.2477 191.273 61.2662 191.273H57.823V200ZM59.6681 195.692V192.781H60.9125C61.9778 192.781 62.4934 193.361 62.4934 194.23C62.4934 195.095 61.9778 195.692 60.921 195.692H59.6681ZM65.5925 200H71.1792V198.479H67.4377V191.273H65.5925V200ZM74.2463 191.273H72.4011V200H74.2463V191.273ZM83.4647 194.328C83.2218 192.312 81.6962 191.153 79.6763 191.153C77.3709 191.153 75.611 192.781 75.611 195.636C75.611 198.483 77.3411 200.119 79.6763 200.119C81.9135 200.119 83.2644 198.632 83.4647 197.026L81.5982 197.017C81.4235 197.95 80.6905 198.487 79.7061 198.487C78.3809 198.487 77.4817 197.503 77.4817 195.636C77.4817 193.821 78.3681 192.786 79.7189 192.786C80.7289 192.786 81.4576 193.369 81.5982 194.328H83.4647ZM86.128 200L86.7757 198.01H89.9249L90.5726 200H92.5499L89.5414 191.273H87.1635L84.1507 200H86.128ZM87.2445 196.57L88.3184 193.267H88.3865L89.4604 196.57H87.2445ZM100.9 191.273H99.0634V196.761H98.9867L95.2196 191.273H93.6003V200H95.4455V194.507H95.5094L99.3063 200H100.9V191.273ZM102.092 192.794H104.764V200H106.588V192.794H109.26V191.273H102.092V192.794Z" fill="#001540"/>
<rect y="80" width="150" height="70" rx="4" fill="#B6CEFF"/>
<path d="M42.5811 120L43.2289 118.01H46.378L47.0257 120H49.003L45.9945 111.273H43.6167L40.6039 120H42.5811ZM43.6976 116.57L44.7715 113.267H44.8397L45.9135 116.57H43.6976ZM50.0534 120H51.8986V117.17H53.4498C55.4569 117.17 56.6245 115.973 56.6245 114.23C56.6245 112.496 55.4782 111.273 53.4966 111.273H50.0534V120ZM51.8986 115.692V112.781H53.1429C54.2083 112.781 54.7239 113.361 54.7239 114.23C54.7239 115.095 54.2083 115.692 53.1515 115.692H51.8986ZM57.823 120H59.6681V117.17H61.2193C63.2264 117.17 64.394 115.973 64.394 114.23C64.394 112.496 63.2477 111.273 61.2662 111.273H57.823V120ZM59.6681 115.692V112.781H60.9125C61.9778 112.781 62.4934 113.361 62.4934 114.23C62.4934 115.095 61.9778 115.692 60.921 115.692H59.6681ZM65.5925 120H71.1792V118.479H67.4377V111.273H65.5925V120ZM74.2463 111.273H72.4011V120H74.2463V111.273ZM83.4647 114.328C83.2218 112.312 81.6962 111.153 79.6763 111.153C77.3709 111.153 75.611 112.781 75.611 115.636C75.611 118.483 77.3411 120.119 79.6763 120.119C81.9135 120.119 83.2644 118.632 83.4647 117.026L81.5982 117.017C81.4235 117.95 80.6905 118.487 79.7061 118.487C78.3809 118.487 77.4817 117.503 77.4817 115.636C77.4817 113.821 78.3681 112.786 79.7189 112.786C80.7289 112.786 81.4576 113.369 81.5982 114.328H83.4647ZM86.128 120L86.7757 118.01H89.9249L90.5726 120H92.5499L89.5414 111.273H87.1635L84.1507 120H86.128ZM87.2445 116.57L88.3184 113.267H88.3865L89.4604 116.57H87.2445ZM100.9 111.273H99.0634V116.761H98.9867L95.2196 111.273H93.6003V120H95.4455V114.507H95.5094L99.3063 120H100.9V111.273ZM102.092 112.794H104.764V120H106.588V112.794H109.26V111.273H102.092V112.794Z" fill="#001540"/>
</svg>
