<svg width="24" height="24" viewBox="0 0 24 24" fill="none" xmlns="http://www.w3.org/2000/svg">
<path d="M8.36364 7.5V5.25C8.36364 4.65326 8.60308 4.08097 9.0293 3.65901C9.45552 3.23705 10.0336 3 10.6364 3H19.7273C20.33 3 20.9081 3.23705 21.3343 3.65901C21.7606 4.08097 22 4.65326 22 5.25V18.75C22 19.3467 21.7606 19.919 21.3343 20.341C20.9081 20.7629 20.33 21 19.7273 21H11.0909C9.8358 21 8.36364 19.9926 8.36364 18.75V16.5M2 12H17.4545M13.8182 16.5L18.3636 12L13.8182 7.5V16.5Z" stroke="white" stroke-linecap="round" stroke-linejoin="round"/>
</svg>
