<?xml version="1.0" encoding="utf-8"?>
<!-- Generator: Adobe Illustrator 23.1.1, SVG Export Plug-In . SVG Version: 6.00 Build 0)  -->
<svg version="1.1" id="Layer_1" xmlns="http://www.w3.org/2000/svg" xmlns:xlink="http://www.w3.org/1999/xlink" x="0px" y="0px"
	 viewBox="0 0 682.1 167.5" style="enable-background:new 0 0 682.1 167.5;" xml:space="preserve">
<style type="text/css">
	.st0{fill:#FFFFFF;}
</style>
<g>
	<path class="st0" d="M205.7,63.6c0.6-5.6,0.2-11.2-1.2-16.6c-1.6-6.3-4.7-12.2-8.7-17.2c-4.1-5-9.3-9.2-15-12.1
		c-2.9-1.4-5.9-2.6-9.1-3.4c-3.1-0.8-6.3-1.2-9.5-1.4l-1.2,0l-1.2,0l-2.3,0l-4.6,0.1l-9.2,0.2l-9.2,0.2l-9.2,0.2
		c-12.3,0.3-24.6,0.7-36.9,1.2c12.3,0.6,24.6,0.9,36.9,1.2l9.2,0.2l9.2,0.2l9.2,0.2l4.6,0.1l2.3,0l1.1,0l1.1,0.1
		c5.9,0.4,11.6,2,16.8,4.7c2.6,1.4,5,3,7.3,4.9c2.3,1.9,4.3,4,6.1,6.2c2.4,3.1,4.4,6.5,5.9,10.1c-0.6-0.9-1.2-1.7-1.9-2.6
		c-2-2.5-4.2-4.7-6.6-6.8c-2.4-2-5.1-3.8-7.9-5.3c-2.8-1.5-5.7-2.6-8.8-3.5c-3-0.9-6.1-1.4-9.3-1.6c-0.8-0.1-1.6-0.1-2.3-0.1
		c-0.4,0-0.8,0-1.2,0c-0.4,0-0.8,0-1.1,0l-4.5,0.1c-6,0.1-12,0.3-18,0.4c-6,0.2-12,0.4-18,0.6l-9,0.4c-1.5,0.1-3,0.1-4.5,0.2
		c-1.5,0.1-3,0.1-4.5,0.2c1.5,0.1,3,0.2,4.5,0.2c1.5,0.1,3,0.2,4.5,0.2l9,0.4c6,0.2,12,0.4,18,0.6c6,0.2,12,0.3,18,0.4l4.5,0.1
		l1.1,0c0.4,0,0.7,0,1.1,0c0.7,0,1.4,0.1,2.1,0.2c2.9,0.3,5.7,0.9,8.4,1.7c5.5,1.7,10.5,4.5,14.9,8.2c4.3,3.7,7.9,8.3,10.4,13.4
		c0.4,0.8,0.8,1.7,1.1,2.5c-0.9-1.4-1.9-2.7-3-3.9c-4.1-4.8-9.2-8.7-14.9-11.5c-2.8-1.4-5.8-2.4-8.9-3.2c-3.1-0.7-6.2-1.1-9.3-1.2
		c-0.8,0-1.6,0-2.3,0l-2.3,0l-4.5,0.1l-9,0.2l-9,0.3l-9,0.3c-6,0.2-12,0.5-18,0.9c6,0.4,12,0.6,18,0.9l9,0.3l9,0.3l9,0.2l4.5,0.1
		l2.3,0c0.7,0,1.4,0,2.2,0.1c5.7,0.3,11.4,1.9,16.4,4.5c9,4.5,16.1,12.3,19.9,21.6c-0.8-1.1-1.6-2.3-2.5-3.3c-2-2.4-4.3-4.7-6.8-6.6
		c-2.5-2-5.1-3.7-8-5.1c-2.8-1.4-5.8-2.5-8.8-3.3c-3-0.8-6.2-1.3-9.3-1.4c-0.4,0-0.8,0-1.2,0c-0.4,0-0.8,0-1.2,0l-0.6,0l-0.6,0
		l-1.1,0l-4.5,0.1c-6,0.2-12,0.4-18,0.7c-3,0.1-6,0.3-9,0.5c-3,0.2-6,0.4-9,0.6c3,0.2,6,0.4,9,0.6c3,0.2,6,0.3,9,0.5
		c6,0.3,12,0.5,18,0.7l4.5,0.1l2.2,0.1c0.4,0,0.7,0,1.1,0c0.4,0,0.7,0,1.1,0.1c2.9,0.2,5.7,0.8,8.4,1.5c5.5,1.6,10.6,4.3,15,8
		c2.2,1.8,4.2,3.9,6,6.1c1.8,2.2,3.3,4.6,4.6,7.1c0.5,1,1,2.1,1.5,3.2c-1.1-1.6-2.3-3.1-3.6-4.6c-4.2-4.7-9.4-8.6-15.1-11.2
		c-2.9-1.3-5.9-2.3-8.9-3c-3.1-0.7-6.2-1-9.3-1.1l-1.2,0l-1.1,0l-2.3,0.1c-1.5,0.1-3,0.1-4.5,0.2l-4.5,0.2l-4.5,0.2
		c-6,0.3-12,0.7-18,1.2c6,0.6,12,0.9,18,1.2l4.5,0.2l4.5,0.2c1.5,0.1,3,0.1,4.5,0.2l2.3,0.1l2.2,0.1c2.9,0.1,5.7,0.5,8.5,1.2
		c2.8,0.7,5.5,1.7,8,2.9c2.6,1.2,5,2.7,7.3,4.5c2.3,1.7,4.3,3.7,6.2,5.8c1.9,2.2,3.6,4.6,5,7.2c-0.2,0.3-0.3,0.6-0.5,0.9
		c-3-3.6-6.5-6.7-10.3-9.2c-5.4-3.5-11.6-5.8-18-6.8c-1.6-0.2-3.2-0.4-4.8-0.4l-1.2,0l-1.2,0c-0.8,0-1.5,0.1-2.3,0.1
		c-3.1,0.1-6.2,0.3-9.2,0.4c-6.2,0.4-12.3,0.7-18.5,1.4c6.2,0.6,12.3,1,18.5,1.4c3.1,0.2,6.2,0.3,9.2,0.4l2.3,0.1l1.1,0l1.1,0.1
		c1.5,0.1,2.9,0.3,4.4,0.5c2.9,0.5,5.7,1.3,8.4,2.4c2.7,1.1,5.3,2.5,7.7,4.1c3.9,2.6,7.3,5.8,10.1,9.5c-3,4-6.7,7.4-10.9,10.1
		c-2.5,1.6-5.1,2.9-7.8,3.9c-2.7,1-5.6,1.8-8.5,2.2c-1.5,0.2-2.9,0.4-4.4,0.4c-0.4,0-0.7,0-1.1,0l-1.1,0l-2.3,0l-9.2,0.1
		c-12.3,0.2-24.6,0.4-36.9,0.7c-6.2,0.1-12.3,0.3-18.5,0.5c-6.2,0.2-12.3,0.4-18.5,0.6c6.2,0.2,12.3,0.4,18.5,0.6
		c6.2,0.2,12.3,0.3,18.5,0.5c12.3,0.3,24.6,0.5,36.9,0.7l9.2,0.1l2.3,0l1.2,0c0.4,0,0.8,0,1.2,0c1.6,0,3.2-0.1,4.8-0.3
		c6.4-0.8,12.6-2.9,18.2-6.3c2.8-1.7,5.3-3.7,7.7-5.9c1.3-1.2,2.5-2.5,3.6-3.8c0.2,0.3,0.3,0.6,0.5,0.9c-0.4,0.8-0.8,1.5-1.3,2.2
		c-1.5,2.4-3.3,4.6-5.3,6.7c-3.9,4.1-8.7,7.4-14,9.6c-2.6,1.1-5.4,1.9-8.2,2.5c-1.4,0.3-2.8,0.5-4.3,0.6c-0.4,0-0.7,0.1-1.1,0.1
		c-0.4,0-0.7,0-1.1,0.1l-1.1,0l-1.1,0l-18,0.2c-12,0.2-24,0.4-36,0.7l-9,0.2l-9,0.2c-6,0.2-12,0.3-18,0.5c6,0.2,12,0.4,18,0.5l9,0.2
		l9,0.2c12,0.3,24,0.5,36,0.7l18,0.2l1.1,0l1.2,0c0.4,0,0.8,0,1.2,0c0.4,0,0.8,0,1.2-0.1c1.6-0.1,3.1-0.3,4.7-0.5
		c3.1-0.5,6.2-1.3,9.1-2.5c2.9-1.1,5.8-2.6,8.4-4.3c2.6-1.7,5.1-3.7,7.3-6c2-2,3.8-4.1,5.3-6.4c-0.7,1.8-1.6,3.5-2.6,5.2
		c-2.9,4.9-6.7,9.2-11.3,12.6c-2.3,1.7-4.7,3.2-7.3,4.4c-2.6,1.2-5.3,2.1-8.1,2.8c-2.8,0.7-5.6,1-8.5,1.1l-9,0.1l-18,0.2l-18,0.3
		l-18,0.4c-6,0.1-12,0.3-18,0.4c-3,0.1-6,0.1-9,0.2l-9,0.3l9,0.3c3,0.1,6,0.2,9,0.2c6,0.1,12,0.3,18,0.4l18,0.4l18,0.3l18,0.2l9,0.1
		c3.1,0,6.3-0.3,9.4-0.9c6.2-1.3,12.1-3.8,17.2-7.5c2.6-1.8,5-3.9,7.1-6.2c1.5-1.6,2.9-3.4,4.1-5.2c-1.9,4.7-4.7,9-8.1,12.7
		c-3.9,4.2-8.6,7.5-13.8,9.8c-2.6,1.2-5.3,2-8.1,2.6c-1.4,0.3-2.8,0.5-4.2,0.7c-0.7,0.1-1.4,0.1-2.1,0.2c-0.4,0-0.7,0-1.1,0
		c-0.4,0-0.7,0-1.1,0l-18,0.2l-18,0.2l-18,0.3l-18,0.3c-12,0.2-24,0.5-36,0.8c12,0.3,24,0.6,36,0.8l18,0.3l18,0.3l18,0.2l18,0.2
		l1.2,0c0.4,0,0.8,0,1.2,0c0.8,0,1.6-0.1,2.3-0.1c1.6-0.1,3.1-0.3,4.7-0.6c3.1-0.6,6.1-1.5,9-2.7c5.8-2.4,11.1-6,15.5-10.6
		c1.7-1.8,3.3-3.8,4.7-5.8c-0.6,1.6-1.4,3.1-2.2,4.6c-1.4,2.5-3,4.8-4.9,7c-1.9,2.2-3.9,4.1-6.2,5.9c-1.1,0.9-2.3,1.7-3.5,2.4
		c-1.2,0.8-2.5,1.4-3.7,2.1c-2.6,1.2-5.3,2.2-8,2.9c-2.8,0.7-5.6,1.1-8.5,1.2l-1.1,0l-1.1,0l-2.3,0l-4.5,0c-12,0.1-24,0.3-36,0.4
		c-24,0.4-48,0.7-72,1.4c24,0.6,48,1,72,1.4c12,0.2,24,0.3,36,0.4l4.5,0l2.3,0l1.1,0l1.2,0c3.1,0,6.3-0.4,9.3-1.1
		c6.1-1.4,12-4,17.1-7.8c2.5-1.9,4.9-4,7-6.4c1.3-1.4,2.5-2.9,3.5-4.5c-1.6,3.9-3.8,7.6-6.5,10.9c-1.9,2.2-3.9,4.3-6.2,6.1
		c-2.3,1.8-4.8,3.4-7.4,4.7c-2.6,1.3-5.4,2.3-8.2,3.1c-2.8,0.7-5.8,1.2-8.7,1.3l-1.1,0l-1.2,0l-2.3,0l-4.6,0l-9.2,0.1l-18.5,0.2
		l-18.5,0.2l-18.5,0.3l-18.5,0.3l-18.5,0.3l-9.2,0.2l-9.2,0.2l9.2,0.2l9.2,0.2l18.5,0.3l18.5,0.3l18.5,0.3l18.5,0.2l18.5,0.2
		l9.2,0.1l4.6,0l2.3,0l1.2,0l1.2,0c3.2,0,6.4-0.4,9.6-1.1c3.1-0.7,6.2-1.8,9.1-3.2c5.9-2.7,11.1-6.8,15.3-11.7
		c4.2-4.9,7.4-10.8,9.2-17c1.6-5.7,2.1-11.8,1.5-17.7C205.7,103.7,205.8,64.6,205.7,63.6z"/>
	<path class="st0" d="M650.2,70.1c0-0.3,0-0.6,0-1c0.1-7.2-3.5-12.5-10.8-14.7c-5.5-1.7-11.4-3-17.2-3.2
		c-16.3-0.5-32.6-0.3-48.9-0.5c-3.5-0.1-7.1-0.6-10.5-1.4c-1.8-0.4-3.7-1.7-4.7-3.1c-3.9-6-0.3-14.2,7.1-15.7
		c5.3-1,10.7-1.6,16.1-1.6c19.1-0.2,38.3-0.1,57.4-0.2c1.4,0,3.2-0.4,4-1.2c1.8-2.1,3.1-4.7,4.7-7.3L573,20.2
		c-5,0-10.1,0.5-15.1,1.3c-14.6,2.1-21.1,10.7-18.8,24c1.1,6.3,4.9,10.6,11.6,12c5.3,1.1,10.7,1.9,16.1,2c15.3,0.3,30.7,0.1,46,0.4
		c4.1,0.1,8.3,0.6,12.2,1.6c5.4,1.4,7.2,5.1,7,12c-0.2,5.2-2.3,8.1-7.5,9.3c-3.9,0.9-7.9,1.3-11.9,1.3c-22.6,0.1-45.1,0.1-67.7,0.1
		c-1.1,0-2.8,0-3.2,0.6c-2,2.6-3.6,5.4-5.5,8.5l75.5,0c5.3,0,10.6-0.1,15.9-0.7C641.1,91.2,651.5,87.1,650.2,70.1z"/>
	<path class="st0" d="M450.3,93.3l28.4,0.1c4,0,7.7-2.2,9.6-5.7c11.6-21.5,33-61.7,36.1-67.6c-6.7,0-2.3-0.2-8.2,0.1
		c-1.3,0.1-2.9,1.5-3.7,2.7c-12.3,21.5-16.2,27.9-28.4,49.4c-2.4,4.2-4.8,8.5-7.3,12.9c-1.2,2-3.3,3.3-5.7,3.3h-3
		c-2.3,0-4.5-1.3-5.7-3.3c-2.5-4.4-4.9-8.6-7.3-12.9c-12.2-21.6-16.5-27.9-28.8-49.4c-0.7-1.2-2.4-2.6-3.7-2.7
		c-5.8-0.3-11.7-0.1-18.4-0.1c3.2,5.9,24.9,46.1,36.4,67.5C442.6,91.1,446.3,93.3,450.3,93.3z"/>
	<path class="st0" d="M357.8,20.5h-92.2l7.8,9.1l76.2,1.2c11.8,0.2,21.3,9.8,21.3,21.6l0.1,9.7c0,11.9-9.5,21.6-21.5,21.7L293,84.5
		c-0.8,0-1.4-0.6-1.4-1.4V50.9l-18.3-21.4v61.6c0,1.2,1,2.3,2.3,2.3h82.1c18.8,0,34.1-15.3,34.1-34.1v-4.8
		C391.8,35.7,376.6,20.5,357.8,20.5z"/>
	<path class="st0" d="M282.8,131.3h-9.9v15.3h10.4c2.6,0,5-1,5.9-2c1.7-1.8,2.6-3.5,2.6-5.8C291.7,134.5,288.2,131.3,282.8,131.3z
		 M283.5,143.9h-7.6V134h7.1c3.3,0,5.5,2,5.5,5C288.5,141.9,286.4,143.9,283.5,143.9z"/>
	<rect x="295.8" y="131.3" class="st0" width="3" height="15.3"/>
	<path class="st0" d="M312.5,140.9h6.9c-1,2.2-3.2,3.4-6.3,3.4c-4.2,0-7-2.3-7-5.5c0-3.1,2.9-5.4,7-5.4c2.3,0,4.2,0.7,5.8,2.2
		l2.8-1.4c-2.3-2.4-5-3.6-8.4-3.6c-2.8,0-5.3,0.8-7,2.1c-2.1,1.6-3.2,3.6-3.2,6.1c0,2.5,1.1,4.6,3.2,6.1c1.7,1.2,4.1,2,6.8,2
		c6.1,0,10-3.4,10-8.4v-0.5h-10.6V140.9z"/>
	<rect x="327.4" y="131.3" class="st0" width="3" height="15.3"/>
	<polygon class="st0" points="351,131.3 333.4,131.3 333.4,134 340.7,134 340.7,146.6 343.7,146.6 343.7,134 351,134 	"/>
	<path class="st0" d="M356.9,131.3l-8.3,15.3h3.3l1.8-3.3h10.3l1.8,3.3h3.3l-8.3-15.3H356.9z M355.1,140.6l3.7-6.8l3.6,6.8H355.1z"
		/>
	<polygon class="st0" points="374.6,131.3 371.6,131.3 371.6,146.6 386.5,146.6 386.5,143.9 374.6,143.9 	"/>
	<polygon class="st0" points="411.7,131.3 404.9,144 398,131.3 394.7,131.3 403.2,146.6 406.6,146.6 415.1,131.3 	"/>
	<path class="st0" d="M422.7,131.3l-8.3,15.3h3.3l1.8-3.3h10.3l1.8,3.3h3.3l-8.3-15.3H422.7z M420.9,140.6l3.7-6.8l3.6,6.8H420.9z"
		/>
	<path class="st0" d="M452.1,141c0,2.2-2,3.4-5.9,3.4c-3.9,0-5.9-1.2-5.9-3.4v-9.7h-3v10.3c0,3.2,3.4,5.5,8.9,5.5
		c5.5,0,8.9-2.3,8.9-5.5v-10.3h-3V141z"/>
	<polygon class="st0" points="463.2,131.3 460.2,131.3 460.2,146.6 475,146.6 475,143.9 463.2,143.9 	"/>
	<polygon class="st0" points="471.7,134 479.1,134 479.1,146.6 482,146.6 482,134 489.4,134 489.4,131.3 471.7,131.3 	"/>
	<path class="st0" d="M509.5,137.2c-4.4-0.4-7.1-0.2-7.1-1.9c0-1.2,1.7-1.8,5.1-1.8c2.3,0,4.5,0.5,6.5,1.6l1.8-1.9
		c-2.1-1.5-5-2.2-8.4-2.2c-5.3,0-8.2,1.9-8.2,4.8c0,2.4,1.8,3.6,5.5,4c2.9,0.3,5.3,0.1,6.9,0.6c1.2,0.3,1.7,0.9,1.7,1.7
		c0,1.4-1.9,2.4-5.4,2.4c-3.1,0-5.7-0.8-7.8-2.2l-1.6,2.1c2.4,1.8,5.5,2.7,9.4,2.7c5.6,0,8.6-1.9,8.6-5.2
		C516.6,138.8,514.3,137.7,509.5,137.2z"/>
	<polygon class="st0" points="523.3,140 532.3,140 532.3,137.3 523.3,137.3 523.3,134 536.3,134 536.3,131.3 520.4,131.3 
		520.4,146.6 536.8,146.6 536.8,143.9 523.3,143.9 	"/>
	<path class="st0" d="M558.4,136.2c0-2.9-2.1-4.9-5.3-4.9h-12.4v15.3h3V141h7.6l4,5.6h3.4l-4.1-5.8
		C557.1,140.3,558.4,138.6,558.4,136.2z M543.7,138.3V134h8.8c2,0,2.9,0.7,2.9,2.2c0,1.3-0.9,2.1-2.7,2.1H543.7z"/>
	<polygon class="st0" points="570.7,144 563.8,131.3 560.5,131.3 568.9,146.6 572.4,146.6 580.9,131.3 577.5,131.3 	"/>
	<rect x="583.4" y="131.3" class="st0" width="3" height="15.3"/>
	<path class="st0" d="M601,133.5c2.7,0,4.7,0.9,6.3,2.4l2.7-0.9c-2.4-2.8-5.4-4.2-9.2-4.2c-2.7,0-5.1,0.8-6.8,2
		c-2.1,1.6-3.2,3.6-3.2,6.1c0,4.7,4.1,8.1,10.2,8.1c3.8,0,6.5-1.1,8.9-3.8l-2.6-1.4c-1.7,1.7-3.6,2.5-6.3,2.5
		c-4.5,0-7.2-2.2-7.2-5.5C593.8,135.7,596.6,133.5,601,133.5z"/>
	<polygon class="st0" points="617.1,140 626.1,140 626.1,137.3 617.1,137.3 617.1,134 630.1,134 630.1,131.3 614.1,131.3 
		614.1,146.6 630.6,146.6 630.6,143.9 617.1,143.9 	"/>
	<path class="st0" d="M643.3,137.2c-4.4-0.4-7.1-0.2-7.1-1.9c0-1.2,1.7-1.8,5.1-1.8c2.3,0,4.5,0.5,6.5,1.6l1.8-1.9
		c-2.1-1.5-5-2.2-8.4-2.2c-5.3,0-8.2,1.9-8.2,4.8c0,2.4,1.8,3.6,5.5,4c2.9,0.3,5.3,0.1,6.9,0.6c1.2,0.3,1.7,0.9,1.7,1.7
		c0,1.4-1.9,2.4-5.4,2.4c-3.1,0-5.7-0.8-7.8-2.2l-1.6,2.1c2.4,1.8,5.5,2.7,9.4,2.7c5.6,0,8.6-1.9,8.6-5.2
		C650.4,138.8,648.1,137.7,643.3,137.2z"/>
</g>
</svg>
