<svg width="1314" height="1311" viewBox="0 0 1314 1311" fill="none" xmlns="http://www.w3.org/2000/svg">
<path d="M846.293 656.293C845.902 656.683 845.902 657.317 846.293 657.707L852.657 664.071C853.047 664.462 853.681 664.462 854.071 664.071C854.462 663.681 854.462 663.047 854.071 662.657L848.414 657L854.071 651.343C854.462 650.953 854.462 650.319 854.071 649.929C853.681 649.538 853.047 649.538 852.657 649.929L846.293 656.293ZM1050 656H1043.66V658H1050V656ZM1030.97 656H1018.28V658H1030.97V656ZM1005.59 656H992.906V658H1005.59V656ZM980.219 656H967.531V658H980.219V656ZM954.844 656H942.156V658H954.844V656ZM929.469 656H916.781V658H929.469V656ZM904.094 656H891.406V658H904.094V656ZM878.719 656H866.031V658H878.719V656ZM853.344 656H847V658H853.344V656ZM845.586 655.586C844.805 656.367 844.805 657.633 845.586 658.414L858.314 671.142C859.095 671.923 860.361 671.923 861.142 671.142C861.923 670.361 861.923 669.095 861.142 668.314L849.828 657L861.142 645.686C861.923 644.905 861.923 643.639 861.142 642.858C860.361 642.077 859.095 642.077 858.314 642.858L845.586 655.586ZM1050 655H1043.66V659H1050V655ZM1030.97 655H1018.28V659H1030.97V655ZM1005.59 655H992.906V659H1005.59V655ZM980.219 655H967.531V659H980.219V655ZM954.844 655H942.156V659H954.844V655ZM929.469 655H916.781V659H929.469V655ZM904.094 655H891.406V659H904.094V655ZM878.719 655H866.031V659H878.719V655ZM853.344 655H847V659H853.344V655Z" fill="#001540"/>
<path d="M657.207 842.293C656.817 841.902 656.183 841.902 655.793 842.293L649.429 848.657C649.038 849.047 649.038 849.681 649.429 850.071C649.819 850.462 650.453 850.462 650.843 850.071L656.5 844.414L662.157 850.071C662.547 850.462 663.181 850.462 663.571 850.071C663.962 849.681 663.962 849.047 663.571 848.657L657.207 842.293ZM657.5 1046L657.5 1039.66L655.5 1039.66L655.5 1046L657.5 1046ZM657.5 1026.97L657.5 1014.28L655.5 1014.28L655.5 1026.97L657.5 1026.97ZM657.5 1001.59L657.5 988.906L655.5 988.906L655.5 1001.59L657.5 1001.59ZM657.5 976.219L657.5 963.531L655.5 963.531L655.5 976.219L657.5 976.219ZM657.5 950.844L657.5 938.156L655.5 938.156L655.5 950.844L657.5 950.844ZM657.5 925.469L657.5 912.781L655.5 912.781L655.5 925.469L657.5 925.469ZM657.5 900.094L657.5 887.406L655.5 887.406L655.5 900.094L657.5 900.094ZM657.5 874.719L657.5 862.031L655.5 862.031L655.5 874.719L657.5 874.719ZM657.5 849.344L657.5 843L655.5 843L655.5 849.344L657.5 849.344ZM657.914 841.586C657.133 840.805 655.867 840.805 655.086 841.586L642.358 854.314C641.577 855.095 641.577 856.361 642.358 857.142C643.139 857.923 644.405 857.923 645.186 857.142L656.5 845.828L667.814 857.142C668.595 857.923 669.861 857.923 670.642 857.142C671.423 856.361 671.423 855.095 670.642 854.314L657.914 841.586ZM658.5 1046L658.5 1039.66L654.5 1039.66L654.5 1046L658.5 1046ZM658.5 1026.97L658.5 1014.28L654.5 1014.28L654.5 1026.97L658.5 1026.97ZM658.5 1001.59L658.5 988.906L654.5 988.906L654.5 1001.59L658.5 1001.59ZM658.5 976.219L658.5 963.531L654.5 963.531L654.5 976.219L658.5 976.219ZM658.5 950.844L658.5 938.156L654.5 938.156L654.5 950.844L658.5 950.844ZM658.5 925.469L658.5 912.781L654.5 912.781L654.5 925.469L658.5 925.469ZM658.5 900.094L658.5 887.406L654.5 887.406L654.5 900.094L658.5 900.094ZM658.5 874.719L658.5 862.031L654.5 862.031L654.5 874.719L658.5 874.719ZM658.5 849.344L658.5 843L654.5 843L654.5 849.344L658.5 849.344Z" fill="#001540"/>
<path d="M657.207 470.707C656.817 471.098 656.183 471.098 655.793 470.707L649.429 464.343C649.038 463.953 649.038 463.319 649.429 462.929C649.819 462.538 650.453 462.538 650.843 462.929L656.5 468.586L662.157 462.929C662.547 462.538 663.181 462.538 663.571 462.929C663.962 463.319 663.962 463.953 663.571 464.343L657.207 470.707ZM657.5 267L657.5 273.344L655.5 273.344L655.5 267L657.5 267ZM657.5 286.031L657.5 298.719L655.5 298.719L655.5 286.031L657.5 286.031ZM657.5 311.406L657.5 324.094L655.5 324.094L655.5 311.406L657.5 311.406ZM657.5 336.781L657.5 349.469L655.5 349.469L655.5 336.781L657.5 336.781ZM657.5 362.156L657.5 374.844L655.5 374.844L655.5 362.156L657.5 362.156ZM657.5 387.531L657.5 400.219L655.5 400.219L655.5 387.531L657.5 387.531ZM657.5 412.906L657.5 425.594L655.5 425.594L655.5 412.906L657.5 412.906ZM657.5 438.281L657.5 450.969L655.5 450.969L655.5 438.281L657.5 438.281ZM657.5 463.656L657.5 470L655.5 470L655.5 463.656L657.5 463.656ZM657.914 471.414C657.133 472.195 655.867 472.195 655.086 471.414L642.358 458.686C641.577 457.905 641.577 456.639 642.358 455.858C643.139 455.077 644.405 455.077 645.186 455.858L656.5 467.172L667.814 455.858C668.595 455.077 669.861 455.077 670.642 455.858C671.423 456.639 671.423 457.905 670.642 458.686L657.914 471.414ZM658.5 267L658.5 273.344L654.5 273.344L654.5 267L658.5 267ZM658.5 286.031L658.5 298.719L654.5 298.719L654.5 286.031L658.5 286.031ZM658.5 311.406L658.5 324.094L654.5 324.094L654.5 311.406L658.5 311.406ZM658.5 336.781L658.5 349.469L654.5 349.469L654.5 336.781L658.5 336.781ZM658.5 362.156L658.5 374.844L654.5 374.844L654.5 362.156L658.5 362.156ZM658.5 387.531L658.5 400.219L654.5 400.219L654.5 387.531L658.5 387.531ZM658.5 412.906L658.5 425.594L654.5 425.594L654.5 412.906L658.5 412.906ZM658.5 438.281L658.5 450.969L654.5 450.969L654.5 438.281L658.5 438.281ZM658.5 463.656L658.5 470L654.5 470L654.5 463.656L658.5 463.656Z" fill="#001540"/>
<path d="M788 791C787.448 791 787 791.448 787 792L787 801C787 801.553 787.448 802 788 802C788.553 802 789 801.553 789 801L789 793L797 793C797.553 793 798 792.553 798 792C798 791.448 797.553 791 797 791L788 791ZM932.25 934.836L927.764 930.35L926.35 931.764L930.836 936.25L932.25 934.836ZM918.793 921.379L909.822 912.407L908.407 913.822L917.379 922.793L918.793 921.379ZM900.85 903.436L891.879 894.464L890.464 895.879L899.436 904.85L900.85 903.436ZM882.907 885.493L873.936 876.522L872.522 877.936L881.493 886.907L882.907 885.493ZM864.964 867.55L855.993 858.579L854.579 859.993L863.55 868.964L864.964 867.55ZM847.022 849.607L838.05 840.636L836.636 842.05L845.607 851.022L847.022 849.607ZM829.079 831.665L820.107 822.693L818.693 824.107L827.665 833.079L829.079 831.665ZM811.136 813.722L802.165 804.75L800.75 806.165L809.722 815.136L811.136 813.722ZM793.193 795.779L788.707 791.293L787.293 792.707L791.779 797.193L793.193 795.779ZM788 790C786.896 790 786 790.896 786 792L786 810C786 811.105 786.896 812 788 812C789.105 812 790 811.105 790 810L790 794L806 794C807.105 794 808 793.105 808 792C808 790.896 807.105 790 806 790L788 790ZM932.957 934.129L928.471 929.643L925.643 932.471L930.129 936.957L932.957 934.129ZM919.5 920.672L910.529 911.7L907.7 914.529L916.672 923.5L919.5 920.672ZM901.557 902.729L892.586 893.757L889.757 896.586L898.729 905.557L901.557 902.729ZM883.614 884.786L874.643 875.815L871.815 878.643L880.786 887.614L883.614 884.786ZM865.672 866.843L856.7 857.872L853.872 860.7L862.843 869.672L865.672 866.843ZM847.729 848.9L838.757 839.929L835.929 842.757L844.9 851.729L847.729 848.9ZM829.786 830.957L820.814 821.986L817.986 824.814L826.957 833.786L829.786 830.957ZM811.843 813.015L802.872 804.043L800.043 806.872L809.015 815.843L811.843 813.015ZM793.9 795.072L789.414 790.586L786.586 793.415L791.072 797.9L793.9 795.072Z" fill="#001540"/>
<path d="M788 522C787.448 522 787 521.552 787 521L787 512C787 511.447 787.448 511 788 511C788.553 511 789 511.447 789 512L789 520L797 520C797.553 520 798 520.447 798 521C798 521.552 797.553 522 797 522L788 522ZM932.25 378.164L927.764 382.65L926.35 381.236L930.836 376.75L932.25 378.164ZM918.793 391.621L909.822 400.593L908.407 399.178L917.379 390.207L918.793 391.621ZM900.85 409.564L891.879 418.536L890.464 417.121L899.436 408.15L900.85 409.564ZM882.907 427.507L873.936 436.478L872.522 435.064L881.493 426.093L882.907 427.507ZM864.964 445.45L855.993 454.421L854.579 453.007L863.55 444.036L864.964 445.45ZM847.022 463.393L838.05 472.364L836.636 470.95L845.607 461.978L847.022 463.393ZM829.079 481.335L820.107 490.307L818.693 488.893L827.665 479.921L829.079 481.335ZM811.136 499.278L802.165 508.25L800.75 506.835L809.722 497.864L811.136 499.278ZM793.193 517.221L788.707 521.707L787.293 520.293L791.779 515.807L793.193 517.221ZM788 523C786.896 523 786 522.104 786 521L786 503C786 501.895 786.896 501 788 501C789.105 501 790 501.895 790 503L790 519L806 519C807.105 519 808 519.895 808 521C808 522.104 807.105 523 806 523L788 523ZM932.957 378.871L928.471 383.357L925.643 380.529L930.129 376.043L932.957 378.871ZM919.5 392.328L910.529 401.3L907.7 398.471L916.672 389.5L919.5 392.328ZM901.557 410.271L892.586 419.243L889.757 416.414L898.729 407.443L901.557 410.271ZM883.614 428.214L874.643 437.185L871.815 434.357L880.786 425.386L883.614 428.214ZM865.672 446.157L856.7 455.128L853.872 452.3L862.843 443.328L865.672 446.157ZM847.729 464.1L838.757 473.071L835.929 470.243L844.9 461.271L847.729 464.1ZM829.786 482.043L820.814 491.014L817.986 488.186L826.957 479.214L829.786 482.043ZM811.843 499.985L802.872 508.957L800.043 506.128L809.015 497.157L811.843 499.985ZM793.9 517.928L789.414 522.414L786.586 519.585L791.072 515.1L793.9 517.928Z" fill="#001540"/>
<path d="M528.543 791C529.095 791 529.543 791.448 529.543 792L529.543 801C529.543 801.553 529.095 802 528.543 802C527.99 802 527.543 801.553 527.543 801L527.543 793L519.543 793C518.99 793 518.543 792.553 518.543 792C518.543 791.448 518.99 791 519.543 791L528.543 791ZM384.293 934.836L388.779 930.35L390.193 931.764L385.707 936.25L384.293 934.836ZM397.75 921.379L406.721 912.407L408.136 913.822L399.164 922.793L397.75 921.379ZM415.693 903.436L424.664 894.464L426.078 895.879L417.107 904.85L415.693 903.436ZM433.636 885.493L442.607 876.522L444.021 877.936L435.05 886.907L433.636 885.493ZM451.579 867.55L460.55 858.579L461.964 859.993L452.993 868.964L451.579 867.55ZM469.521 849.607L478.493 840.636L479.907 842.05L470.936 851.022L469.521 849.607ZM487.464 831.665L496.436 822.693L497.85 824.107L488.878 833.079L487.464 831.665ZM505.407 813.722L514.378 804.75L515.793 806.165L506.821 815.136L505.407 813.722ZM523.35 795.779L527.836 791.293L529.25 792.707L524.764 797.193L523.35 795.779ZM528.543 790C529.647 790 530.543 790.896 530.543 792L530.543 810C530.543 811.105 529.647 812 528.543 812C527.438 812 526.543 811.105 526.543 810L526.543 794L510.543 794C509.438 794 508.543 793.105 508.543 792C508.543 790.896 509.438 790 510.543 790L528.543 790ZM383.586 934.129L388.071 929.643L390.9 932.471L386.414 936.957L383.586 934.129ZM397.043 920.672L406.014 911.7L408.843 914.529L399.871 923.5L397.043 920.672ZM414.986 902.729L423.957 893.757L426.786 896.586L417.814 905.557L414.986 902.729ZM432.929 884.786L441.9 875.815L444.728 878.643L435.757 887.614L432.929 884.786ZM450.871 866.843L459.843 857.872L462.671 860.7L453.7 869.672L450.871 866.843ZM468.814 848.9L477.786 839.929L480.614 842.757L471.643 851.729L468.814 848.9ZM486.757 830.957L495.729 821.986L498.557 824.814L489.586 833.786L486.757 830.957ZM504.7 813.015L513.671 804.043L516.5 806.872L507.528 815.843L504.7 813.015ZM522.643 795.072L527.128 790.586L529.957 793.415L525.471 797.9L522.643 795.072Z" fill="#001540"/>
<path d="M528.543 522C529.095 522 529.543 521.552 529.543 521L529.543 512C529.543 511.447 529.095 511 528.543 511C527.99 511 527.543 511.447 527.543 512L527.543 520L519.543 520C518.99 520 518.543 520.447 518.543 521C518.543 521.552 518.99 522 519.543 522L528.543 522ZM384.293 378.164L388.779 382.65L390.193 381.236L385.707 376.75L384.293 378.164ZM397.75 391.621L406.721 400.593L408.136 399.178L399.164 390.207L397.75 391.621ZM415.693 409.564L424.664 418.536L426.078 417.121L417.107 408.15L415.693 409.564ZM433.636 427.507L442.607 436.478L444.021 435.064L435.05 426.093L433.636 427.507ZM451.579 445.45L460.55 454.421L461.964 453.007L452.993 444.036L451.579 445.45ZM469.521 463.393L478.493 472.364L479.907 470.95L470.936 461.978L469.521 463.393ZM487.464 481.335L496.436 490.307L497.85 488.893L488.878 479.921L487.464 481.335ZM505.407 499.278L514.378 508.25L515.793 506.835L506.821 497.864L505.407 499.278ZM523.35 517.221L527.836 521.707L529.25 520.293L524.764 515.807L523.35 517.221ZM528.543 523C529.647 523 530.543 522.104 530.543 521L530.543 503C530.543 501.895 529.647 501 528.543 501C527.438 501 526.543 501.895 526.543 503L526.543 519L510.543 519C509.438 519 508.543 519.895 508.543 521C508.543 522.104 509.438 523 510.543 523L528.543 523ZM383.586 378.871L388.071 383.357L390.9 380.529L386.414 376.043L383.586 378.871ZM397.043 392.328L406.014 401.3L408.843 398.471L399.871 389.5L397.043 392.328ZM414.986 410.271L423.957 419.243L426.786 416.414L417.814 407.443L414.986 410.271ZM432.929 428.214L441.9 437.185L444.728 434.357L435.757 425.386L432.929 428.214ZM450.871 446.157L459.843 455.128L462.671 452.3L453.7 443.328L450.871 446.157ZM468.814 464.1L477.786 473.071L480.614 470.243L471.643 461.271L468.814 464.1ZM486.757 482.043L495.729 491.014L498.557 488.186L489.586 479.214L486.757 482.043ZM504.7 499.985L513.671 508.957L516.5 506.128L507.528 497.157L504.7 499.985ZM522.643 517.928L527.128 522.414L529.957 519.585L525.471 515.1L522.643 517.928Z" fill="#001540"/>
<path d="M471.707 656.293C472.098 656.683 472.098 657.317 471.707 657.707L465.343 664.071C464.953 664.462 464.319 664.462 463.929 664.071C463.538 663.681 463.538 663.047 463.929 662.657L469.586 657L463.929 651.343C463.538 650.953 463.538 650.319 463.929 649.929C464.319 649.538 464.953 649.538 465.343 649.929L471.707 656.293ZM268 656H274.344V658H268V656ZM287.031 656H299.719V658H287.031V656ZM312.406 656H325.094V658H312.406V656ZM337.781 656H350.469V658H337.781V656ZM363.156 656H375.844V658H363.156V656ZM388.531 656H401.219V658H388.531V656ZM413.906 656H426.594V658H413.906V656ZM439.281 656H451.969V658H439.281V656ZM464.656 656H471V658H464.656V656ZM472.414 655.586C473.195 656.367 473.195 657.633 472.414 658.414L459.686 671.142C458.905 671.923 457.639 671.923 456.858 671.142C456.077 670.361 456.077 669.095 456.858 668.314L468.172 657L456.858 645.686C456.077 644.905 456.077 643.639 456.858 642.858C457.639 642.077 458.905 642.077 459.686 642.858L472.414 655.586ZM268 655H274.344V659H268V655ZM287.031 655H299.719V659H287.031V655ZM312.406 655H325.094V659H312.406V655ZM337.781 655H350.469V659H337.781V655ZM363.156 655H375.844V659H363.156V655ZM388.531 655H401.219V659H388.531V655ZM413.906 655H426.594V659H413.906V655ZM439.281 655H451.969V659H439.281V655ZM464.656 655H471V659H464.656V655Z" fill="#001540"/>
<circle cx="659.5" cy="656.5" r="184.5" fill="#001540"/>
<circle cx="659" cy="694" r="128" fill="#001540" stroke="white" stroke-width="2" stroke-dasharray="8 8"/>
<circle cx="1132" cy="656" r="75" fill="#B6CEFF" stroke="#001540" stroke-width="2" stroke-dasharray="8 8"/>
<path d="M1078.93 663H1081.57V658.085H1084.35C1087.71 658.085 1089.52 656.068 1089.52 653.27C1089.52 650.493 1087.73 648.455 1084.39 648.455H1078.93V663ZM1081.57 655.919V650.656H1083.98C1085.96 650.656 1086.83 651.722 1086.83 653.27C1086.83 654.818 1085.96 655.919 1084 655.919H1081.57ZM1091.8 663H1100.84V660.791H1094.44V648.455H1091.8V663ZM1105.55 663L1106.75 659.413H1112.22L1113.42 663H1116.24L1111.11 648.455H1107.85L1102.73 663H1105.55ZM1107.46 657.297L1109.42 651.438H1109.54L1111.51 657.297H1107.46ZM1115.75 650.663H1120.25V663H1122.86V650.663H1127.36V648.455H1115.75V650.663ZM1129.6 663H1132.23V656.821H1138.28V654.612H1132.23V650.663H1138.91V648.455H1129.6V663ZM1154.31 655.727C1154.31 651.026 1151.44 648.256 1147.63 648.256C1143.81 648.256 1140.95 651.026 1140.95 655.727C1140.95 660.422 1143.81 663.199 1147.63 663.199C1151.44 663.199 1154.31 660.429 1154.31 655.727ZM1151.66 655.727C1151.66 659.037 1150 660.834 1147.63 660.834C1145.26 660.834 1143.6 659.037 1143.6 655.727C1143.6 652.418 1145.26 650.621 1147.63 650.621C1150 650.621 1151.66 652.418 1151.66 655.727ZM1156.8 663H1159.44V657.673H1162.12L1164.98 663H1167.92L1164.77 657.233C1166.48 656.544 1167.39 655.081 1167.39 653.107C1167.39 650.33 1165.6 648.455 1162.26 648.455H1156.8V663ZM1159.44 655.486V650.656H1161.85C1163.82 650.656 1164.7 651.558 1164.7 653.107C1164.7 654.655 1163.82 655.486 1161.87 655.486H1159.44ZM1169.81 648.455V663H1172.34V652.986H1172.47L1176.49 662.957H1178.38L1182.4 653.007H1182.54V663H1185.07V648.455H1181.84L1177.52 658.994H1177.35L1173.04 648.455H1169.81Z" fill="#001540"/>
<circle cx="312" cy="342" r="75" fill="#B6CEFF" stroke="#001540" stroke-width="2" stroke-dasharray="8 8"/>
<path d="M258.933 349H261.568V344.085H264.352C267.711 344.085 269.515 342.068 269.515 339.27C269.515 336.493 267.732 334.455 264.387 334.455H258.933V349ZM261.568 341.919V336.656H263.982C265.957 336.656 266.83 337.722 266.83 339.27C266.83 340.818 265.957 341.919 263.997 341.919H261.568ZM271.804 349H280.845V346.791H274.439V334.455H271.804V349ZM285.547 349L286.747 345.413H292.216L293.423 349H296.236L291.108 334.455H287.855L282.734 349H285.547ZM287.457 343.297L289.425 337.438H289.538L291.506 343.297H287.457ZM295.754 336.663H300.25V349H302.864V336.663H307.36V334.455H295.754V336.663ZM309.597 349H312.232V342.821H318.276V340.612H312.232V336.663H318.915V334.455H309.597V349ZM334.313 341.727C334.313 337.026 331.443 334.256 327.629 334.256C323.808 334.256 320.946 337.026 320.946 341.727C320.946 346.422 323.808 349.199 327.629 349.199C331.443 349.199 334.313 346.429 334.313 341.727ZM331.664 341.727C331.664 345.037 330.002 346.834 327.629 346.834C325.264 346.834 323.595 345.037 323.595 341.727C323.595 338.418 325.264 336.621 327.629 336.621C330.002 336.621 331.664 338.418 331.664 341.727ZM336.804 349H339.439V343.673H342.123L344.979 349H347.919L344.773 343.233C346.484 342.544 347.386 341.081 347.386 339.107C347.386 336.33 345.596 334.455 342.258 334.455H336.804V349ZM339.439 341.486V336.656H341.854C343.821 336.656 344.702 337.558 344.702 339.107C344.702 340.655 343.821 341.486 341.868 341.486H339.439ZM349.812 334.455V349H352.34V338.986H352.475L356.495 348.957H358.384L362.404 339.007H362.539V349H365.067V334.455H361.843L357.525 344.994H357.354L353.036 334.455H349.812Z" fill="#001540"/>
<circle cx="323" cy="990" r="75" fill="#B6CEFF" stroke="#001540" stroke-width="2" stroke-dasharray="8 8"/>
<path d="M269.933 997H272.568V992.085H275.352C278.711 992.085 280.515 990.068 280.515 987.27C280.515 984.493 278.732 982.455 275.387 982.455H269.933V997ZM272.568 989.919V984.656H274.982C276.957 984.656 277.83 985.722 277.83 987.27C277.83 988.818 276.957 989.919 274.997 989.919H272.568ZM282.804 997H291.845V994.791H285.439V982.455H282.804V997ZM296.547 997L297.747 993.413H303.216L304.423 997H307.236L302.108 982.455H298.855L293.734 997H296.547ZM298.457 991.297L300.425 985.438H300.538L302.506 991.297H298.457ZM306.754 984.663H311.25V997H313.864V984.663H318.36V982.455H306.754V984.663ZM320.597 997H323.232V990.821H329.276V988.612H323.232V984.663H329.915V982.455H320.597V997ZM345.313 989.727C345.313 985.026 342.443 982.256 338.629 982.256C334.808 982.256 331.946 985.026 331.946 989.727C331.946 994.422 334.808 997.199 338.629 997.199C342.443 997.199 345.313 994.429 345.313 989.727ZM342.664 989.727C342.664 993.037 341.002 994.834 338.629 994.834C336.264 994.834 334.595 993.037 334.595 989.727C334.595 986.418 336.264 984.621 338.629 984.621C341.002 984.621 342.664 986.418 342.664 989.727ZM347.804 997H350.439V991.673H353.123L355.979 997H358.919L355.773 991.233C357.484 990.544 358.386 989.081 358.386 987.107C358.386 984.33 356.596 982.455 353.258 982.455H347.804V997ZM350.439 989.486V984.656H352.854C354.821 984.656 355.702 985.558 355.702 987.107C355.702 988.655 354.821 989.486 352.868 989.486H350.439ZM360.812 982.455V997H363.34V986.986H363.475L367.495 996.957H369.384L373.404 987.007H373.539V997H376.067V982.455H372.843L368.525 992.994H368.354L364.036 982.455H360.812Z" fill="#001540"/>
<circle cx="1013" cy="342" r="75" fill="#B6CEFF" stroke="#001540" stroke-width="2" stroke-dasharray="8 8"/>
<path d="M967.167 322.455H964.532V337H967.167V322.455ZM981.974 322.455H979.353V332.369H979.225L972.379 322.455H970.021V337H972.656V327.092H972.776L979.63 337H981.974V322.455ZM991.343 328.669H984.795V330.786H991.343V328.669ZM994.161 337H996.796V330.821H1003.54V337H1006.18V322.455H1003.54V328.612H996.796V322.455H994.161V337ZM1022.04 329.727C1022.04 325.026 1019.17 322.256 1015.36 322.256C1011.54 322.256 1008.67 325.026 1008.67 329.727C1008.67 334.422 1011.54 337.199 1015.36 337.199C1019.17 337.199 1022.04 334.429 1022.04 329.727ZM1019.39 329.727C1019.39 333.037 1017.73 334.834 1015.36 334.834C1012.99 334.834 1011.32 333.037 1011.32 329.727C1011.32 326.418 1012.99 324.621 1015.36 324.621C1017.73 324.621 1019.39 326.418 1019.39 329.727ZM1033.7 322.455V331.737C1033.7 333.562 1032.43 334.869 1030.43 334.869C1028.43 334.869 1027.17 333.562 1027.17 331.737V322.455H1024.53V331.957C1024.53 335.082 1026.88 337.22 1030.43 337.22C1033.98 337.22 1036.34 335.082 1036.34 331.957V322.455H1033.7ZM1047.11 326.453H1049.64C1049.59 323.996 1047.5 322.256 1044.4 322.256C1041.35 322.256 1039.05 323.974 1039.06 326.545C1039.06 328.634 1040.54 329.834 1042.94 330.452L1044.59 330.878C1046.16 331.276 1047.2 331.766 1047.2 332.895C1047.2 334.138 1046.02 334.969 1044.3 334.969C1042.65 334.969 1041.37 334.23 1041.27 332.703H1038.67C1038.78 335.594 1040.93 337.22 1044.32 337.22C1047.81 337.22 1049.83 335.48 1049.84 332.916C1049.83 330.395 1047.75 329.244 1045.56 328.726L1044.2 328.385C1043.01 328.101 1041.71 327.597 1041.73 326.382C1041.74 325.288 1042.72 324.486 1044.36 324.486C1045.93 324.486 1046.97 325.217 1047.11 326.453ZM1052.19 337H1061.71V334.791H1054.82V330.821H1061.16V328.612H1054.82V324.663H1061.65V322.455H1052.19V337ZM980.572 350.453H983.107C983.058 347.996 980.963 346.256 977.866 346.256C974.812 346.256 972.518 347.974 972.525 350.545C972.525 352.634 974.009 353.834 976.403 354.452L978.058 354.878C979.627 355.276 980.664 355.766 980.671 356.895C980.664 358.138 979.485 358.969 977.767 358.969C976.119 358.969 974.84 358.23 974.734 356.703H972.142C972.248 359.594 974.4 361.22 977.788 361.22C981.275 361.22 983.299 359.48 983.306 356.916C983.299 354.395 981.218 353.244 979.031 352.726L977.667 352.385C976.474 352.101 975.181 351.597 975.195 350.382C975.203 349.288 976.183 348.486 977.83 348.486C979.4 348.486 980.437 349.217 980.572 350.453ZM984.661 346.455L989.952 355.574V361H992.58V355.574L997.871 346.455H994.895L991.337 352.889H991.195L987.637 346.455H984.661ZM1007.64 350.453H1010.18C1010.13 347.996 1008.03 346.256 1004.94 346.256C1001.88 346.256 999.588 347.974 999.595 350.545C999.595 352.634 1001.08 353.834 1003.47 354.452L1005.13 354.878C1006.7 355.276 1007.73 355.766 1007.74 356.895C1007.73 358.138 1006.56 358.969 1004.84 358.969C1003.19 358.969 1001.91 358.23 1001.8 356.703H999.212C999.318 359.594 1001.47 361.22 1004.86 361.22C1008.35 361.22 1010.37 359.48 1010.38 356.916C1010.37 354.395 1008.29 353.244 1006.1 352.726L1004.74 352.385C1003.54 352.101 1002.25 351.597 1002.27 350.382C1002.27 349.288 1003.25 348.486 1004.9 348.486C1006.47 348.486 1007.51 349.217 1007.64 350.453ZM1012.09 348.663H1016.58V361H1019.2V348.663H1023.69V346.455H1012.09V348.663ZM1025.93 361H1035.45V358.791H1028.56V354.821H1034.9V352.612H1028.56V348.663H1035.39V346.455H1025.93V361ZM1038.08 346.455V361H1040.61V350.986H1040.74L1044.76 360.957H1046.65L1050.67 351.007H1050.8V361H1053.33V346.455H1050.11L1045.79 356.994H1045.62L1041.3 346.455H1038.08Z" fill="#001540"/>
<circle cx="656" cy="1124" r="75" fill="#B6CEFF" stroke="#001540" stroke-width="2" stroke-dasharray="8 8"/>
<path d="M610.167 1104.45H607.532V1119H610.167V1104.45ZM624.974 1104.45H622.353V1114.37H622.225L615.379 1104.45H613.021V1119H615.656V1109.09H615.776L622.63 1119H624.974V1104.45ZM634.343 1110.67H627.795V1112.79H634.343V1110.67ZM637.161 1119H639.796V1112.82H646.536V1119H649.178V1104.45H646.536V1110.61H639.796V1104.45H637.161V1119ZM665.041 1111.73C665.041 1107.03 662.172 1104.26 658.358 1104.26C654.537 1104.26 651.675 1107.03 651.675 1111.73C651.675 1116.42 654.537 1119.2 658.358 1119.2C662.172 1119.2 665.041 1116.43 665.041 1111.73ZM662.392 1111.73C662.392 1115.04 660.73 1116.83 658.358 1116.83C655.993 1116.83 654.324 1115.04 654.324 1111.73C654.324 1108.42 655.993 1106.62 658.358 1106.62C660.73 1106.62 662.392 1108.42 662.392 1111.73ZM676.701 1104.45V1113.74C676.701 1115.56 675.43 1116.87 673.434 1116.87C671.431 1116.87 670.167 1115.56 670.167 1113.74V1104.45H667.532V1113.96C667.532 1117.08 669.876 1119.22 673.434 1119.22C676.978 1119.22 679.336 1117.08 679.336 1113.96V1104.45H676.701ZM690.105 1108.45H692.641C692.591 1106 690.496 1104.26 687.399 1104.26C684.345 1104.26 682.051 1105.97 682.058 1108.55C682.058 1110.63 683.543 1111.83 685.936 1112.45L687.591 1112.88C689.161 1113.28 690.197 1113.77 690.205 1114.89C690.197 1116.14 689.018 1116.97 687.3 1116.97C685.652 1116.97 684.374 1116.23 684.267 1114.7H681.675C681.781 1117.59 683.933 1119.22 687.321 1119.22C690.808 1119.22 692.832 1117.48 692.839 1114.92C692.832 1112.39 690.751 1111.24 688.564 1110.73L687.2 1110.38C686.007 1110.1 684.714 1109.6 684.729 1108.38C684.736 1107.29 685.716 1106.49 687.364 1106.49C688.933 1106.49 689.97 1107.22 690.105 1108.45ZM695.189 1119H704.706V1116.79H697.824V1112.82H704.159V1110.61H697.824V1106.66H704.649V1104.45H695.189V1119ZM623.572 1132.45H626.107C626.058 1130 623.963 1128.26 620.866 1128.26C617.812 1128.26 615.518 1129.97 615.525 1132.55C615.525 1134.63 617.009 1135.83 619.403 1136.45L621.058 1136.88C622.627 1137.28 623.664 1137.77 623.671 1138.89C623.664 1140.14 622.485 1140.97 620.767 1140.97C619.119 1140.97 617.84 1140.23 617.734 1138.7H615.142C615.248 1141.59 617.4 1143.22 620.788 1143.22C624.275 1143.22 626.299 1141.48 626.306 1138.92C626.299 1136.39 624.218 1135.24 622.031 1134.73L620.667 1134.38C619.474 1134.1 618.181 1133.6 618.195 1132.38C618.203 1131.29 619.183 1130.49 620.83 1130.49C622.4 1130.49 623.437 1131.22 623.572 1132.45ZM627.661 1128.45L632.952 1137.57V1143H635.58V1137.57L640.871 1128.45H637.895L634.337 1134.89H634.195L630.637 1128.45H627.661ZM650.642 1132.45H653.178C653.128 1130 651.033 1128.26 647.936 1128.26C644.882 1128.26 642.588 1129.97 642.595 1132.55C642.595 1134.63 644.08 1135.83 646.473 1136.45L648.128 1136.88C649.698 1137.28 650.735 1137.77 650.742 1138.89C650.735 1140.14 649.556 1140.97 647.837 1140.97C646.189 1140.97 644.911 1140.23 644.804 1138.7H642.212C642.318 1141.59 644.47 1143.22 647.858 1143.22C651.345 1143.22 653.369 1141.48 653.377 1138.92C653.369 1136.39 651.289 1135.24 649.101 1134.73L647.737 1134.38C646.544 1134.1 645.252 1133.6 645.266 1132.38C645.273 1131.29 646.253 1130.49 647.901 1130.49C649.47 1130.49 650.507 1131.22 650.642 1132.45ZM655.086 1130.66H659.582V1143H662.196V1130.66H666.692V1128.45H655.086V1130.66ZM668.929 1143H678.446V1140.79H671.564V1136.82H677.899V1134.61H671.564V1130.66H678.389V1128.45H668.929V1143ZM681.077 1128.45V1143H683.606V1132.99H683.741L687.76 1142.96H689.65L693.67 1133.01H693.805V1143H696.333V1128.45H693.108L688.79 1138.99H688.62L684.302 1128.45H681.077Z" fill="#001540"/>
<circle cx="654" cy="192" r="75" fill="#B6CEFF" stroke="#001540" stroke-width="2" stroke-dasharray="8 8"/>
<path d="M616.628 199H619.263V194.085H622.047C625.406 194.085 627.21 192.068 627.21 189.27C627.21 186.493 625.428 184.455 622.083 184.455H616.628V199ZM619.263 191.919V186.656H621.678C623.652 186.656 624.526 187.722 624.526 189.27C624.526 190.818 623.652 191.919 621.692 191.919H619.263ZM642.496 191.727C642.496 187.026 639.627 184.256 635.813 184.256C631.992 184.256 629.13 187.026 629.13 191.727C629.13 196.422 631.992 199.199 635.813 199.199C639.627 199.199 642.496 196.429 642.496 191.727ZM639.847 191.727C639.847 195.037 638.185 196.834 635.813 196.834C633.448 196.834 631.779 195.037 631.779 191.727C631.779 188.418 633.448 186.621 635.813 186.621C638.185 186.621 639.847 188.418 639.847 191.727ZM644.987 199H647.622V193.673H650.307L653.162 199H656.102L652.956 193.233C654.668 192.544 655.57 191.081 655.57 189.107C655.57 186.33 653.78 184.455 650.442 184.455H644.987V199ZM647.622 191.486V186.656H650.037C652.004 186.656 652.885 187.558 652.885 189.107C652.885 190.655 652.004 191.486 650.051 191.486H647.622ZM657.356 186.663H661.852V199H664.465V186.663H668.961V184.455H657.356V186.663ZM671.308 199L672.509 195.413H677.977L679.185 199H681.997L676.869 184.455H673.617L668.496 199H671.308ZM673.219 193.297L675.186 187.438H675.3L677.267 193.297H673.219ZM683.913 199H692.954V196.791H686.548V184.455H683.913V199Z" fill="#001540"/>
<circle cx="182" cy="656" r="75" fill="#B6CEFF" stroke="#001540" stroke-width="2" stroke-dasharray="8 8"/>
<path d="M144.628 663H147.263V658.085H150.047C153.406 658.085 155.21 656.068 155.21 653.27C155.21 650.493 153.428 648.455 150.083 648.455H144.628V663ZM147.263 655.919V650.656H149.678C151.652 650.656 152.526 651.722 152.526 653.27C152.526 654.818 151.652 655.919 149.692 655.919H147.263ZM170.496 655.727C170.496 651.026 167.627 648.256 163.813 648.256C159.992 648.256 157.13 651.026 157.13 655.727C157.13 660.422 159.992 663.199 163.813 663.199C167.627 663.199 170.496 660.429 170.496 655.727ZM167.847 655.727C167.847 659.037 166.185 660.834 163.813 660.834C161.448 660.834 159.779 659.037 159.779 655.727C159.779 652.418 161.448 650.621 163.813 650.621C166.185 650.621 167.847 652.418 167.847 655.727ZM172.987 663H175.622V657.673H178.307L181.162 663H184.102L180.956 657.233C182.668 656.544 183.57 655.081 183.57 653.107C183.57 650.33 181.78 648.455 178.442 648.455H172.987V663ZM175.622 655.486V650.656H178.037C180.004 650.656 180.885 651.558 180.885 653.107C180.885 654.655 180.004 655.486 178.051 655.486H175.622ZM185.356 650.663H189.852V663H192.465V650.663H196.961V648.455H185.356V650.663ZM199.308 663L200.509 659.413H205.977L207.185 663H209.997L204.869 648.455H201.617L196.496 663H199.308ZM201.219 657.297L203.186 651.438H203.3L205.267 657.297H201.219ZM211.913 663H220.954V660.791H214.548V648.455H211.913V663Z" fill="#001540"/>
<circle cx="988" cy="990" r="75" fill="#B6CEFF" stroke="#001540" stroke-width="2" stroke-dasharray="8 8"/>
<path d="M950.628 997H953.263V992.085H956.047C959.406 992.085 961.21 990.068 961.21 987.27C961.21 984.493 959.428 982.455 956.083 982.455H950.628V997ZM953.263 989.919V984.656H955.678C957.652 984.656 958.526 985.722 958.526 987.27C958.526 988.818 957.652 989.919 955.692 989.919H953.263ZM976.496 989.727C976.496 985.026 973.627 982.256 969.813 982.256C965.992 982.256 963.13 985.026 963.13 989.727C963.13 994.422 965.992 997.199 969.813 997.199C973.627 997.199 976.496 994.429 976.496 989.727ZM973.847 989.727C973.847 993.037 972.185 994.834 969.813 994.834C967.448 994.834 965.779 993.037 965.779 989.727C965.779 986.418 967.448 984.621 969.813 984.621C972.185 984.621 973.847 986.418 973.847 989.727ZM978.987 997H981.622V991.673H984.307L987.162 997H990.102L986.956 991.233C988.668 990.544 989.57 989.081 989.57 987.107C989.57 984.33 987.78 982.455 984.442 982.455H978.987V997ZM981.622 989.486V984.656H984.037C986.004 984.656 986.885 985.558 986.885 987.107C986.885 988.655 986.004 989.486 984.051 989.486H981.622ZM991.356 984.663H995.852V997H998.465V984.663H1002.96V982.455H991.356V984.663ZM1005.31 997L1006.51 993.413H1011.98L1013.18 997H1016L1010.87 982.455H1007.62L1002.5 997H1005.31ZM1007.22 991.297L1009.19 985.438H1009.3L1011.27 991.297H1007.22ZM1017.91 997H1026.95V994.791H1020.55V982.455H1017.91V997Z" fill="#001540"/>
<path d="M590.901 743H594.412V734.193H599.185C599.264 734.193 599.332 734.193 599.412 734.193L604.139 743H608.139L602.98 733.58C605.832 732.523 607.253 730.148 607.253 727.023C607.253 722.739 604.594 719.727 599.196 719.727H590.901V743ZM594.412 731.17V722.739H598.821C602.287 722.739 603.719 724.386 603.719 727.023C603.719 729.648 602.287 731.17 598.866 731.17H594.412ZM611.526 743H626.253V739.977H615.037V732.852H625.355V729.841H615.037V722.75H626.116V719.727H611.526V743ZM643.5 725.841H646.886C646.784 722.114 643.489 719.409 638.761 719.409C634.091 719.409 630.511 722.08 630.511 726.091C630.511 729.33 632.83 731.227 636.568 732.239L639.318 732.989C641.807 733.648 643.727 734.466 643.727 736.534C643.727 738.807 641.557 740.307 638.568 740.307C635.864 740.307 633.614 739.102 633.409 736.568H629.886C630.114 740.784 633.375 743.386 638.591 743.386C644.057 743.386 647.205 740.511 647.205 736.568C647.205 732.375 643.466 730.75 640.511 730.023L638.239 729.432C636.42 728.966 634 728.114 634.011 725.886C634.011 723.909 635.818 722.443 638.682 722.443C641.352 722.443 643.25 723.693 643.5 725.841ZM650.253 722.75H657.503V743H661.003V722.75H668.264V719.727H650.253V722.75ZM682.679 743L684.815 736.841H693.906L696.031 743H699.759L691.384 719.727H687.327L678.952 743H682.679ZM685.838 733.886L689.27 723.955H689.452L692.884 733.886H685.838ZM703.119 743H706.631V734.818H711.403C716.801 734.818 719.472 731.557 719.472 727.261C719.472 722.977 716.824 719.727 711.415 719.727H703.119V743ZM706.631 731.841V722.739H711.04C714.517 722.739 715.938 724.625 715.938 727.261C715.938 729.898 714.517 731.841 711.085 731.841H706.631ZM727.099 719.727H723.588V743H727.099V719.727Z" fill="white"/>
<path d="M584.045 531.636C584.045 526.229 580.746 523.044 576.36 523.044C571.965 523.044 568.674 526.229 568.674 531.636C568.674 537.035 571.965 540.229 576.36 540.229C580.746 540.229 584.045 537.043 584.045 531.636ZM580.999 531.636C580.999 535.442 579.088 537.509 576.36 537.509C573.64 537.509 571.72 535.442 571.72 531.636C571.72 527.83 573.64 525.764 576.36 525.764C579.088 525.764 580.999 527.83 580.999 531.636ZM586.779 544.705H589.736V538.023H589.859C590.324 538.938 591.296 540.221 593.452 540.221C596.409 540.221 598.622 537.876 598.622 533.744C598.622 529.562 596.344 527.291 593.444 527.291C591.231 527.291 590.308 528.623 589.859 529.529H589.687V527.455H586.779V544.705ZM589.679 533.727C589.679 531.293 590.724 529.717 592.627 529.717C594.596 529.717 595.609 531.391 595.609 533.727C595.609 536.08 594.58 537.795 592.627 537.795C590.741 537.795 589.679 536.161 589.679 533.727ZM606.708 540.245C609.632 540.245 611.642 538.816 612.164 536.635L609.404 536.325C609.004 537.386 608.023 537.942 606.749 537.942C604.838 537.942 603.572 536.684 603.548 534.536H612.287V533.629C612.287 529.227 609.641 527.291 606.553 527.291C602.959 527.291 600.615 529.929 600.615 533.801C600.615 537.738 602.927 540.245 606.708 540.245ZM603.556 532.543C603.646 530.942 604.83 529.594 606.594 529.594C608.293 529.594 609.436 530.836 609.453 532.543H603.556ZM617.745 532.649C617.745 530.836 618.839 529.79 620.399 529.79C621.927 529.79 622.841 530.795 622.841 532.469V540H625.798V532.012C625.806 529.006 624.091 527.291 621.502 527.291C619.623 527.291 618.333 528.19 617.761 529.586H617.614V527.455H614.788V540H617.745V532.649ZM631.965 523.273H628.935V540H631.965V523.273ZM639.771 540.221C641.927 540.221 642.899 538.938 643.365 538.023H643.544V540H646.452V523.273H643.487V529.529H643.365C642.915 528.623 641.992 527.291 639.779 527.291C636.88 527.291 634.601 529.562 634.601 533.744C634.601 537.876 636.814 540.221 639.771 540.221ZM640.596 537.795C638.644 537.795 637.615 536.08 637.615 533.727C637.615 531.391 638.627 529.717 640.596 529.717C642.499 529.717 643.544 531.293 643.544 533.727C643.544 536.161 642.483 537.795 640.596 537.795ZM669.756 528.917C669.242 525.2 666.383 523.044 662.675 523.044C658.305 523.044 655.014 526.229 655.014 531.636C655.014 537.035 658.264 540.229 662.675 540.229C666.653 540.229 669.291 537.656 669.756 534.462L666.702 534.446C666.318 536.406 664.717 537.509 662.716 537.509C660.004 537.509 658.06 535.475 658.06 531.636C658.06 527.863 659.988 525.764 662.724 525.764C664.758 525.764 666.35 526.915 666.702 528.917H669.756ZM677.873 540.245C681.548 540.245 683.884 537.656 683.884 533.776C683.884 529.888 681.548 527.291 677.873 527.291C674.197 527.291 671.861 529.888 671.861 533.776C671.861 537.656 674.197 540.245 677.873 540.245ZM677.889 537.876C675.855 537.876 674.859 536.063 674.859 533.768C674.859 531.473 675.855 529.635 677.889 529.635C679.89 529.635 680.887 531.473 680.887 533.768C680.887 536.063 679.89 537.876 677.889 537.876ZM689.35 532.649C689.35 530.836 690.445 529.79 692.005 529.79C693.532 529.79 694.447 530.795 694.447 532.469V540H697.404V532.012C697.412 529.006 695.697 527.291 693.107 527.291C691.229 527.291 689.938 528.19 689.367 529.586H689.22V527.455H686.394V540H689.35V532.649ZM703.366 532.649C703.366 530.836 704.46 529.79 706.02 529.79C707.548 529.79 708.463 530.795 708.463 532.469V540H711.419V532.012C711.427 529.006 709.712 527.291 707.123 527.291C705.245 527.291 703.954 528.19 703.382 529.586H703.235V527.455H700.409V540H703.366V532.649ZM719.979 540.245C722.903 540.245 724.912 538.816 725.435 536.635L722.674 536.325C722.274 537.386 721.294 537.942 720.02 537.942C718.109 537.942 716.843 536.684 716.818 534.536H725.557V533.629C725.557 529.227 722.911 527.291 719.824 527.291C716.23 527.291 713.886 529.929 713.886 533.801C713.886 537.738 716.197 540.245 719.979 540.245ZM716.826 532.543C716.916 530.942 718.1 529.594 719.865 529.594C721.563 529.594 722.707 530.836 722.723 532.543H716.826ZM733.531 540.245C736.684 540.245 738.693 538.375 738.905 535.712H736.079C735.826 537.06 734.854 537.836 733.556 537.836C731.71 537.836 730.517 536.292 730.517 533.727C730.517 531.195 731.734 529.676 733.556 529.676C734.977 529.676 735.851 530.591 736.079 531.8H738.905C738.701 529.08 736.578 527.291 733.515 527.291C729.839 527.291 727.52 529.946 727.52 533.776C727.52 537.574 729.782 540.245 733.531 540.245ZM747.598 527.455H745.123V524.449H742.166V527.455H740.386V529.741H742.166V536.717C742.15 539.077 743.865 540.237 746.087 540.172C746.928 540.147 747.508 539.984 747.826 539.877L747.328 537.566C747.165 537.607 746.83 537.68 746.462 537.68C745.719 537.68 745.123 537.419 745.123 536.227V529.741H747.598V527.455Z" fill="white"/>
<path d="M698.284 642.621C698.61 639.57 698.393 636.52 697.633 633.578C696.764 630.145 695.082 626.931 692.91 624.207C690.685 621.483 687.863 619.195 684.769 617.615C683.194 616.852 681.566 616.199 679.829 615.763C678.147 615.327 676.41 615.109 674.672 615H674.021H673.37H672.122L669.625 615.055L664.631 615.163L659.637 615.272L654.643 615.381C647.967 615.545 641.29 615.763 634.614 616.035C641.29 616.362 647.967 616.525 654.643 616.689L659.637 616.798L664.631 616.907L669.625 617.016L672.122 617.07H673.37H673.967L674.564 617.125C677.767 617.343 680.861 618.214 683.683 619.685C685.095 620.448 686.397 621.32 687.645 622.355C688.894 623.39 689.98 624.534 690.957 625.733C692.259 627.421 693.345 629.274 694.159 631.235C693.834 630.745 693.508 630.309 693.128 629.819C692.042 628.457 690.848 627.258 689.545 626.114C688.243 625.024 686.777 624.044 685.257 623.226C683.738 622.409 682.163 621.81 680.481 621.32C678.852 620.829 677.169 620.557 675.432 620.448C674.999 620.394 674.564 620.394 674.184 620.394C673.967 620.394 673.75 620.394 673.533 620.394C673.315 620.394 673.098 620.394 672.935 620.394L670.493 620.448C667.236 620.502 663.979 620.611 660.722 620.666C657.466 620.775 654.209 620.884 650.952 620.993L646.067 621.211C645.253 621.265 644.439 621.265 643.624 621.32C642.81 621.374 641.996 621.374 641.182 621.429C641.996 621.483 642.81 621.538 643.624 621.538C644.439 621.592 645.253 621.647 646.067 621.647L650.952 621.864C654.209 621.973 657.466 622.082 660.722 622.191C663.979 622.3 667.236 622.355 670.493 622.409L672.935 622.464H673.533C673.75 622.464 673.913 622.464 674.13 622.464C674.51 622.464 674.89 622.518 675.27 622.573C676.844 622.736 678.364 623.063 679.829 623.499C682.814 624.425 685.528 625.95 687.917 627.966C690.251 629.982 692.205 632.488 693.562 635.266C693.779 635.702 693.996 636.193 694.159 636.629C693.67 635.866 693.128 635.158 692.53 634.504C690.305 631.889 687.537 629.764 684.443 628.239C682.923 627.476 681.295 626.931 679.612 626.495C677.929 626.114 676.247 625.896 674.564 625.841C674.13 625.841 673.695 625.841 673.315 625.841H672.067L669.625 625.896L664.739 626.005L659.854 626.168L654.969 626.332C651.712 626.441 648.455 626.604 645.199 626.822C648.455 627.04 651.712 627.149 654.969 627.312L659.854 627.476L664.739 627.639L669.625 627.748L672.067 627.803H673.315C673.695 627.803 674.075 627.803 674.51 627.857C677.604 628.021 680.697 628.892 683.411 630.309C688.297 632.76 692.15 637.01 694.214 642.076C693.779 641.477 693.345 640.823 692.856 640.279C691.771 638.971 690.522 637.718 689.165 636.683C687.808 635.593 686.397 634.667 684.823 633.905C683.303 633.142 681.674 632.543 680.046 632.107C678.418 631.671 676.681 631.398 674.999 631.344C674.781 631.344 674.564 631.344 674.347 631.344C674.13 631.344 673.913 631.344 673.695 631.344H673.37H673.044H672.447L670.005 631.398C666.748 631.507 663.491 631.616 660.234 631.78C658.605 631.834 656.977 631.943 655.349 632.052C653.72 632.161 652.092 632.27 650.464 632.379C652.092 632.488 653.72 632.597 655.349 632.706C656.977 632.815 658.605 632.869 660.234 632.978C663.491 633.142 666.748 633.251 670.005 633.36L672.447 633.414L673.641 633.469C673.858 633.469 674.021 633.469 674.238 633.469C674.455 633.469 674.619 633.469 674.835 633.523C676.41 633.632 677.929 633.959 679.395 634.34C682.38 635.212 685.149 636.683 687.537 638.699C688.731 639.679 689.817 640.823 690.793 642.022C691.771 643.221 692.585 644.528 693.29 645.89C693.562 646.435 693.834 647.034 694.105 647.633C693.508 646.762 692.856 645.945 692.15 645.127C689.871 642.567 687.048 640.442 683.954 639.026C682.38 638.317 680.752 637.773 679.124 637.391C677.441 637.01 675.758 636.846 674.075 636.792H673.424H672.827L671.578 636.846C670.765 636.901 669.95 636.901 669.136 636.955L666.693 637.064L664.251 637.173C660.994 637.337 657.737 637.555 654.48 637.827C657.737 638.154 660.994 638.317 664.251 638.481L666.693 638.59L669.136 638.699C669.95 638.753 670.765 638.753 671.578 638.808L672.827 638.862L674.021 638.917C675.595 638.971 677.115 639.189 678.635 639.57C680.155 639.952 681.621 640.497 682.978 641.15C684.389 641.804 685.691 642.621 686.94 643.602C688.188 644.528 689.274 645.618 690.305 646.762C691.337 647.96 692.259 649.268 693.019 650.684C692.91 650.848 692.856 651.011 692.748 651.175C691.119 649.213 689.22 647.524 687.157 646.162C684.226 644.256 680.861 643.003 677.387 642.458C676.518 642.349 675.65 642.24 674.781 642.24H674.13H673.478C673.044 642.24 672.664 642.294 672.23 642.294C670.547 642.349 668.865 642.458 667.236 642.512C663.871 642.73 660.56 642.894 657.194 643.275C660.56 643.602 663.871 643.82 667.236 644.038C668.919 644.147 670.601 644.201 672.23 644.256L673.478 644.31H674.075L674.672 644.365C675.487 644.419 676.247 644.528 677.061 644.637C678.635 644.909 680.155 645.345 681.621 645.945C683.086 646.544 684.497 647.307 685.8 648.178C687.917 649.595 689.762 651.338 691.282 653.354C689.654 655.533 687.645 657.386 685.366 658.857C684.009 659.728 682.598 660.436 681.132 660.981C679.666 661.526 678.092 661.962 676.518 662.18C675.704 662.289 674.944 662.398 674.13 662.398C673.913 662.398 673.75 662.398 673.533 662.398H672.935H671.687L666.693 662.452C660.017 662.561 653.34 662.67 646.664 662.833C643.299 662.888 639.988 662.997 636.622 663.106C633.257 663.215 629.946 663.324 626.58 663.433C629.946 663.542 633.257 663.651 636.622 663.76C639.988 663.869 643.299 663.923 646.664 664.032C653.34 664.195 660.017 664.304 666.693 664.413L671.687 664.468H672.935H673.587C673.804 664.468 674.021 664.468 674.238 664.468C675.107 664.468 675.975 664.413 676.844 664.304C680.317 663.869 683.683 662.724 686.723 660.872C688.243 659.946 689.6 658.857 690.902 657.657C691.608 657.004 692.259 656.296 692.856 655.587C692.965 655.751 693.019 655.914 693.128 656.078C692.91 656.514 692.694 656.895 692.422 657.277C691.608 658.584 690.631 659.782 689.545 660.926C687.428 663.16 684.823 664.958 681.946 666.156C680.535 666.756 679.015 667.192 677.495 667.518C676.735 667.682 675.975 667.791 675.161 667.845C674.944 667.845 674.781 667.9 674.564 667.9C674.347 667.9 674.184 667.9 673.967 667.954H673.37H672.773L663.002 668.063C656.488 668.172 649.975 668.281 643.462 668.445L638.576 668.554L633.691 668.663C630.434 668.772 627.178 668.826 623.921 668.935C627.178 669.044 630.434 669.153 633.691 669.207L638.576 669.316L643.462 669.425C649.975 669.589 656.488 669.698 663.002 669.807L672.773 669.916H673.37H674.021C674.238 669.916 674.455 669.916 674.672 669.916C674.89 669.916 675.107 669.916 675.324 669.861C676.192 669.807 677.007 669.698 677.875 669.589C679.558 669.316 681.241 668.881 682.814 668.227C684.389 667.627 685.963 666.81 687.374 665.884C688.785 664.958 690.142 663.869 691.337 662.615C692.422 661.526 693.399 660.382 694.214 659.129C693.834 660.109 693.345 661.035 692.802 661.962C691.228 664.631 689.165 666.974 686.668 668.826C685.42 669.752 684.117 670.57 682.706 671.223C681.295 671.877 679.829 672.367 678.309 672.749C676.789 673.13 675.27 673.294 673.695 673.348L668.81 673.403L659.04 673.512L649.269 673.675L639.499 673.892C636.242 673.947 632.986 674.056 629.729 674.11C628.1 674.165 626.472 674.165 624.844 674.219L619.958 674.383L624.844 674.546C626.472 674.601 628.1 674.655 629.729 674.655C632.986 674.71 636.242 674.819 639.499 674.873L649.269 675.092L659.04 675.255L668.81 675.364L673.695 675.419C675.378 675.419 677.115 675.255 678.798 674.928C682.163 674.219 685.366 672.858 688.134 670.842C689.545 669.861 690.848 668.717 691.988 667.464C692.802 666.592 693.562 665.612 694.214 664.631C693.182 667.192 691.662 669.534 689.817 671.55C687.7 673.839 685.149 675.636 682.326 676.889C680.915 677.543 679.449 677.979 677.929 678.306C677.169 678.469 676.41 678.578 675.65 678.687C675.27 678.742 674.89 678.742 674.51 678.796C674.293 678.796 674.13 678.796 673.913 678.796C673.695 678.796 673.533 678.796 673.315 678.796L663.545 678.905L653.775 679.014L644.004 679.177L634.234 679.341C627.72 679.45 621.207 679.613 614.693 679.777C621.207 679.94 627.72 680.104 634.234 680.213L644.004 680.376L653.775 680.539L663.545 680.648L673.315 680.757H673.967C674.184 680.757 674.401 680.757 674.619 680.757C675.052 680.757 675.487 680.703 675.867 680.703C676.735 680.648 677.549 680.539 678.418 680.376C680.101 680.049 681.729 679.559 683.303 678.905C686.451 677.597 689.328 675.636 691.717 673.13C692.639 672.15 693.508 671.06 694.267 669.97C693.942 670.842 693.508 671.659 693.074 672.476C692.314 673.839 691.445 675.091 690.413 676.29C689.382 677.488 688.297 678.524 687.048 679.504C686.451 679.995 685.8 680.43 685.149 680.812C684.497 681.248 683.791 681.575 683.14 681.956C681.729 682.609 680.263 683.154 678.798 683.536C677.278 683.917 675.758 684.135 674.184 684.189H673.587H672.99H671.742H669.299C662.785 684.244 656.272 684.353 649.758 684.407C636.731 684.625 623.704 684.789 610.676 685.17C623.704 685.497 636.731 685.715 649.758 685.933C656.272 686.042 662.785 686.096 669.299 686.151H671.742H672.99H673.587H674.238C675.921 686.151 677.658 685.933 679.286 685.551C682.598 684.789 685.8 683.373 688.568 681.302C689.925 680.267 691.228 679.123 692.368 677.815C693.074 677.053 693.725 676.235 694.267 675.364C693.399 677.488 692.205 679.504 690.74 681.302C689.708 682.5 688.623 683.644 687.374 684.625C686.126 685.606 684.769 686.478 683.358 687.186C681.946 687.894 680.426 688.439 678.906 688.875C677.387 689.256 675.758 689.529 674.184 689.583H673.587H672.935H671.687H669.19L664.196 689.638L654.155 689.747L644.113 689.856L634.071 690.019L624.029 690.182L613.987 690.345L608.994 690.454L604 690.563L608.994 690.672L613.987 690.781L624.029 690.945L634.071 691.108L644.113 691.272L654.155 691.381L664.196 691.49L669.19 691.545H671.687H672.935H673.587H674.238C675.975 691.545 677.712 691.326 679.449 690.945C681.132 690.563 682.814 689.965 684.389 689.202C687.591 687.731 690.413 685.497 692.694 682.827C694.973 680.158 696.71 676.944 697.687 673.566C698.556 670.461 698.827 667.138 698.501 663.923C698.284 664.468 698.339 643.166 698.284 642.621Z" fill="white"/>
<path d="M1284.92 624.444C1284.92 636.287 1277.97 645.888 1269.41 645.888C1260.84 645.888 1253.89 636.287 1253.89 624.444C1253.19 608.396 1260.84 603 1269.41 603C1277.97 603 1286.61 610.527 1284.92 624.444Z" fill="#001540"/>
<path d="M1286.05 627C1286.05 629.431 1285.04 631.402 1283.79 631.402C1282.54 631.402 1281.53 629.431 1281.53 627C1281.53 624.569 1282.54 622.598 1283.79 622.598C1285.04 622.598 1286.05 624.569 1286.05 627Z" fill="#001540"/>
<path d="M1257 627C1257 629.431 1255.99 631.402 1254.74 631.402C1253.49 631.402 1252.48 629.431 1252.48 627C1252.48 624.569 1253.49 622.598 1254.74 622.598C1255.99 622.598 1257 624.569 1257 627Z" fill="#001540"/>
<path d="M1263.66 649.522C1263.3 648.592 1263.98 647.592 1264.97 647.592H1273.28C1274.27 647.592 1274.95 648.592 1274.59 649.522L1272.51 654.976H1265.74L1263.66 649.522Z" fill="#001540"/>
<path d="M1266.02 656.396H1272.23L1272.79 660.657H1265.46L1266.02 656.396Z" fill="#001540"/>
<path fill-rule="evenodd" clip-rule="evenodd" d="M1242.02 662.077C1240.37 662.077 1239.07 663.5 1239.21 665.157L1241.77 695.592H1295.92L1298.48 665.157C1298.62 663.5 1297.32 662.077 1295.67 662.077H1242.02ZM1269 680.446C1271.22 680.446 1273.02 678.64 1273.02 676.412C1273.02 674.185 1271.22 672.379 1269 672.379C1266.78 672.379 1264.98 674.185 1264.98 676.412C1264.98 678.64 1266.78 680.446 1269 680.446Z" fill="#001540"/>
<path fill-rule="evenodd" clip-rule="evenodd" d="M1281.25 647.591L1278.04 660.373H1297.37C1299.02 660.373 1300.32 661.788 1300.18 663.441L1299.43 672.802C1300.38 673.81 1300.99 675.437 1300.99 677.272C1300.99 679.566 1300.03 681.535 1298.67 682.375L1297.68 694.732C1300.07 694.479 1305.57 693.262 1309.03 690.337C1313.4 686.645 1314.67 680.254 1313.68 675.71C1312.7 671.165 1309.74 662.929 1302.83 654.976C1297.3 648.614 1286.14 647.402 1281.25 647.591Z" fill="#001540"/>
<path fill-rule="evenodd" clip-rule="evenodd" d="M1256.75 647.591L1259.96 660.373H1240.63C1238.98 660.373 1237.68 661.788 1237.82 663.441L1238.57 672.802C1237.62 673.81 1237.01 675.437 1237.01 677.272C1237.01 679.566 1237.97 681.535 1239.33 682.375L1240.32 694.732C1237.93 694.479 1232.43 693.262 1228.97 690.337C1224.6 686.645 1223.33 680.254 1224.32 675.71C1225.3 671.165 1228.26 662.929 1235.17 654.976C1240.7 648.614 1251.86 647.402 1256.75 647.591Z" fill="#001540"/>
<path d="M1241.77 696.728C1241.77 697.983 1242.78 699 1244.02 699H1293.66C1294.91 699 1295.92 697.983 1295.92 696.728H1241.77Z" fill="#001540"/>
<path d="M1139.92 957.444C1139.92 969.287 1132.97 978.888 1124.41 978.888C1115.84 978.888 1108.89 969.287 1108.89 957.444C1108.19 941.396 1115.84 936 1124.41 936C1132.97 936 1141.61 943.527 1139.92 957.444Z" fill="#001540"/>
<path d="M1141.05 960C1141.05 962.431 1140.04 964.402 1138.79 964.402C1137.54 964.402 1136.53 962.431 1136.53 960C1136.53 957.569 1137.54 955.598 1138.79 955.598C1140.04 955.598 1141.05 957.569 1141.05 960Z" fill="#001540"/>
<path d="M1112 960C1112 962.431 1110.99 964.402 1109.74 964.402C1108.49 964.402 1107.48 962.431 1107.48 960C1107.48 957.569 1108.49 955.598 1109.74 955.598C1110.99 955.598 1112 957.569 1112 960Z" fill="#001540"/>
<path d="M1118.66 982.522C1118.3 981.592 1118.98 980.592 1119.97 980.592H1128.28C1129.27 980.592 1129.95 981.592 1129.59 982.522L1127.51 987.976H1120.74L1118.66 982.522Z" fill="#001540"/>
<path d="M1121.02 989.396H1127.23L1127.79 993.657H1120.46L1121.02 989.396Z" fill="#001540"/>
<path fill-rule="evenodd" clip-rule="evenodd" d="M1097.02 995.077C1095.37 995.077 1094.07 996.5 1094.21 998.157L1096.77 1028.59H1150.92L1153.48 998.157C1153.62 996.5 1152.32 995.077 1150.67 995.077H1097.02ZM1124 1013.45C1126.22 1013.45 1128.02 1011.64 1128.02 1009.41C1128.02 1007.18 1126.22 1005.38 1124 1005.38C1121.78 1005.38 1119.98 1007.18 1119.98 1009.41C1119.98 1011.64 1121.78 1013.45 1124 1013.45Z" fill="#001540"/>
<path fill-rule="evenodd" clip-rule="evenodd" d="M1136.25 980.591L1133.04 993.373H1152.37C1154.02 993.373 1155.32 994.788 1155.18 996.441L1154.43 1005.8C1155.38 1006.81 1155.99 1008.44 1155.99 1010.27C1155.99 1012.57 1155.03 1014.53 1153.67 1015.38L1152.68 1027.73C1155.07 1027.48 1160.57 1026.26 1164.03 1023.34C1168.4 1019.64 1169.67 1013.25 1168.68 1008.71C1167.7 1004.17 1164.74 995.929 1157.83 987.976C1152.3 981.614 1141.14 980.402 1136.25 980.591Z" fill="#001540"/>
<path fill-rule="evenodd" clip-rule="evenodd" d="M1111.75 980.591L1114.96 993.373H1095.63C1093.98 993.373 1092.68 994.788 1092.82 996.441L1093.57 1005.8C1092.62 1006.81 1092.01 1008.44 1092.01 1010.27C1092.01 1012.57 1092.97 1014.53 1094.33 1015.38L1095.32 1027.73C1092.93 1027.48 1087.43 1026.26 1083.97 1023.34C1079.6 1019.64 1078.33 1013.25 1079.32 1008.71C1080.3 1004.17 1083.26 995.929 1090.17 987.976C1095.7 981.614 1106.86 980.402 1111.75 980.591Z" fill="#001540"/>
<path d="M1096.77 1029.73C1096.77 1030.98 1097.78 1032 1099.02 1032H1148.66C1149.91 1032 1150.92 1030.98 1150.92 1029.73H1096.77Z" fill="#001540"/>
<path d="M671.918 1236.44C671.918 1248.29 664.973 1257.89 656.406 1257.89C647.839 1257.89 640.895 1248.29 640.895 1236.44C640.19 1220.4 647.839 1215 656.406 1215C664.973 1215 673.61 1222.53 671.918 1236.44Z" fill="#001540"/>
<path d="M673.046 1239C673.046 1241.43 672.035 1243.4 670.789 1243.4C669.543 1243.4 668.533 1241.43 668.533 1239C668.533 1236.57 669.543 1234.6 670.789 1234.6C672.035 1234.6 673.046 1236.57 673.046 1239Z" fill="#001540"/>
<path d="M643.997 1239C643.997 1241.43 642.987 1243.4 641.741 1243.4C640.495 1243.4 639.484 1241.43 639.484 1239C639.484 1236.57 640.495 1234.6 641.741 1234.6C642.987 1234.6 643.997 1236.57 643.997 1239Z" fill="#001540"/>
<path d="M650.656 1261.52C650.301 1260.59 650.982 1259.59 651.972 1259.59H660.275C661.264 1259.59 661.946 1260.59 661.591 1261.52L659.508 1266.98H652.739L650.656 1261.52Z" fill="#001540"/>
<path d="M653.023 1268.4H659.228L659.792 1272.66H652.459L653.023 1268.4Z" fill="#001540"/>
<path fill-rule="evenodd" clip-rule="evenodd" d="M629.018 1274.08C627.366 1274.08 626.068 1275.5 626.208 1277.16L628.769 1307.59H682.917L685.478 1277.16C685.618 1275.5 684.32 1274.08 682.668 1274.08H629.018ZM656.001 1292.45C658.22 1292.45 660.019 1290.64 660.019 1288.41C660.019 1286.18 658.22 1284.38 656.001 1284.38C653.782 1284.38 651.983 1286.18 651.983 1288.41C651.983 1290.64 653.782 1292.45 656.001 1292.45Z" fill="#001540"/>
<path fill-rule="evenodd" clip-rule="evenodd" d="M668.252 1259.59L665.037 1272.37H684.373C686.02 1272.37 687.317 1273.79 687.184 1275.44L686.435 1284.8C687.38 1285.81 687.993 1287.44 687.993 1289.27C687.993 1291.57 687.035 1293.53 685.668 1294.38L684.678 1306.73C687.067 1306.48 692.568 1305.26 696.032 1302.34C700.403 1298.64 701.672 1292.25 700.685 1287.71C699.698 1283.17 696.737 1274.93 689.827 1266.98C684.299 1260.61 673.141 1259.4 668.252 1259.59Z" fill="#001540"/>
<path fill-rule="evenodd" clip-rule="evenodd" d="M643.748 1259.59L646.963 1272.37H627.627C625.98 1272.37 624.683 1273.79 624.816 1275.44L625.565 1284.8C624.62 1285.81 624.007 1287.44 624.007 1289.27C624.007 1291.57 624.965 1293.53 626.332 1294.38L627.322 1306.73C624.933 1306.48 619.432 1305.26 615.968 1302.34C611.597 1298.64 610.328 1292.25 611.315 1287.71C612.302 1283.17 615.263 1274.93 622.173 1266.98C627.701 1260.61 638.859 1259.4 643.748 1259.59Z" fill="#001540"/>
<path d="M628.768 1308.73C628.768 1309.98 629.778 1311 631.024 1311H680.66C681.906 1311 682.916 1309.98 682.916 1308.73H628.768Z" fill="#001540"/>
<path d="M202.918 957.444C202.918 969.287 195.973 978.888 187.406 978.888C178.839 978.888 171.895 969.287 171.895 957.444C171.19 941.396 178.839 936 187.406 936C195.973 936 204.61 943.527 202.918 957.444Z" fill="#001540"/>
<path d="M204.046 960C204.046 962.431 203.035 964.402 201.789 964.402C200.543 964.402 199.533 962.431 199.533 960C199.533 957.569 200.543 955.598 201.789 955.598C203.035 955.598 204.046 957.569 204.046 960Z" fill="#001540"/>
<path d="M174.997 960C174.997 962.431 173.987 964.402 172.741 964.402C171.495 964.402 170.484 962.431 170.484 960C170.484 957.569 171.495 955.598 172.741 955.598C173.987 955.598 174.997 957.569 174.997 960Z" fill="#001540"/>
<path d="M181.656 982.522C181.301 981.592 181.982 980.592 182.972 980.592H191.275C192.264 980.592 192.946 981.592 192.591 982.522L190.508 987.976H183.739L181.656 982.522Z" fill="#001540"/>
<path d="M184.023 989.396H190.228L190.792 993.657H183.459L184.023 989.396Z" fill="#001540"/>
<path fill-rule="evenodd" clip-rule="evenodd" d="M160.018 995.077C158.366 995.077 157.068 996.5 157.208 998.157L159.769 1028.59H213.917L216.478 998.157C216.618 996.5 215.32 995.077 213.668 995.077H160.018ZM187.001 1013.45C189.22 1013.45 191.019 1011.64 191.019 1009.41C191.019 1007.18 189.22 1005.38 187.001 1005.38C184.782 1005.38 182.983 1007.18 182.983 1009.41C182.983 1011.64 184.782 1013.45 187.001 1013.45Z" fill="#001540"/>
<path fill-rule="evenodd" clip-rule="evenodd" d="M199.252 980.591L196.037 993.373H215.373C217.02 993.373 218.317 994.788 218.184 996.441L217.435 1005.8C218.38 1006.81 218.993 1008.44 218.993 1010.27C218.993 1012.57 218.035 1014.53 216.668 1015.38L215.678 1027.73C218.067 1027.48 223.568 1026.26 227.032 1023.34C231.403 1019.64 232.672 1013.25 231.685 1008.71C230.698 1004.17 227.737 995.929 220.827 987.976C215.299 981.614 204.141 980.402 199.252 980.591Z" fill="#001540"/>
<path fill-rule="evenodd" clip-rule="evenodd" d="M174.748 980.591L177.963 993.373H158.627C156.98 993.373 155.683 994.788 155.816 996.441L156.565 1005.8C155.62 1006.81 155.007 1008.44 155.007 1010.27C155.007 1012.57 155.965 1014.53 157.332 1015.38L158.322 1027.73C155.933 1027.48 150.432 1026.26 146.968 1023.34C142.597 1019.64 141.328 1013.25 142.315 1008.71C143.302 1004.17 146.263 995.929 153.173 987.976C158.701 981.614 169.859 980.402 174.748 980.591Z" fill="#001540"/>
<path d="M159.768 1029.73C159.768 1030.98 160.778 1032 162.024 1032H211.66C212.906 1032 213.916 1030.98 213.916 1029.73H159.768Z" fill="#001540"/>
<path d="M60.9175 624.444C60.9175 636.287 53.9729 645.888 45.4062 645.888C36.8395 645.888 29.8948 636.287 29.8948 624.444C29.1897 608.396 36.8395 603 45.4062 603C53.9729 603 62.6097 610.527 60.9175 624.444Z" fill="#001540"/>
<path d="M62.0456 627C62.0456 629.431 61.0355 631.402 59.7894 631.402C58.5433 631.402 57.5332 629.431 57.5332 627C57.5332 624.569 58.5433 622.598 59.7894 622.598C61.0355 622.598 62.0456 624.569 62.0456 627Z" fill="#001540"/>
<path d="M32.9968 627C32.9968 629.431 31.9866 631.402 30.7406 631.402C29.4945 631.402 28.4844 629.431 28.4844 627C28.4844 624.569 29.4945 622.598 30.7406 622.598C31.9866 622.598 32.9968 624.569 32.9968 627Z" fill="#001540"/>
<path d="M39.6559 649.522C39.3006 648.592 39.9824 647.592 40.972 647.592H49.2747C50.2643 647.592 50.9461 648.592 50.5909 649.522L48.5077 654.976H41.7391L39.6559 649.522Z" fill="#001540"/>
<path d="M42.023 656.396H48.2276L48.7916 660.657H41.459L42.023 656.396Z" fill="#001540"/>
<path fill-rule="evenodd" clip-rule="evenodd" d="M18.0177 662.077C16.3662 662.077 15.0681 663.5 15.2075 665.157L17.7686 695.592H71.9174L74.4784 665.157C74.6179 663.5 73.3198 662.077 71.6683 662.077H18.0177ZM45.0008 680.446C47.2198 680.446 49.0187 678.64 49.0187 676.412C49.0187 674.185 47.2198 672.379 45.0008 672.379C42.7818 672.379 40.983 674.185 40.983 676.412C40.983 678.64 42.7818 680.446 45.0008 680.446Z" fill="#001540"/>
<path fill-rule="evenodd" clip-rule="evenodd" d="M57.2522 647.591L54.0371 660.373H73.3731C75.02 660.373 76.3166 661.788 76.1842 663.441L75.4346 672.802C76.3798 673.81 76.9935 675.437 76.9935 677.272C76.9935 679.566 76.0346 681.535 74.668 682.375L73.6785 694.732C76.0671 694.479 81.5682 693.262 85.0317 690.337C89.403 686.645 90.6721 680.254 89.6851 675.71C88.698 671.165 85.7367 662.929 78.8271 654.976C73.2994 648.614 62.1407 647.402 57.2522 647.591Z" fill="#001540"/>
<path fill-rule="evenodd" clip-rule="evenodd" d="M32.7478 647.591L35.9629 660.373H16.6269C14.98 660.373 13.6834 661.788 13.8158 663.441L14.5654 672.802C13.6202 673.81 13.0065 675.437 13.0065 677.272C13.0065 679.566 13.9654 681.535 15.332 682.375L16.3215 694.732C13.9329 694.479 8.43176 693.262 4.96833 690.337C0.596947 686.645 -0.672165 680.254 0.314922 675.71C1.30201 671.165 4.26327 662.929 11.1729 654.976C16.7006 648.614 27.8593 647.402 32.7478 647.591Z" fill="#001540"/>
<path d="M17.7676 696.728C17.7676 697.983 18.7777 699 20.0238 699H69.6601C70.9062 699 71.9163 697.983 71.9163 696.728H17.7676Z" fill="#001540"/>
<path d="M192.918 311.444C192.918 323.287 185.973 332.888 177.406 332.888C168.839 332.888 161.895 323.287 161.895 311.444C161.19 295.396 168.839 290 177.406 290C185.973 290 194.61 297.527 192.918 311.444Z" fill="#001540"/>
<path d="M194.046 314C194.046 316.431 193.035 318.402 191.789 318.402C190.543 318.402 189.533 316.431 189.533 314C189.533 311.569 190.543 309.598 191.789 309.598C193.035 309.598 194.046 311.569 194.046 314Z" fill="#001540"/>
<path d="M164.997 314C164.997 316.431 163.987 318.402 162.741 318.402C161.495 318.402 160.484 316.431 160.484 314C160.484 311.569 161.495 309.598 162.741 309.598C163.987 309.598 164.997 311.569 164.997 314Z" fill="#001540"/>
<path d="M171.656 336.522C171.301 335.592 171.982 334.592 172.972 334.592H181.275C182.264 334.592 182.946 335.592 182.591 336.522L180.508 341.976H173.739L171.656 336.522Z" fill="#001540"/>
<path d="M174.023 343.396H180.228L180.792 347.657H173.459L174.023 343.396Z" fill="#001540"/>
<path fill-rule="evenodd" clip-rule="evenodd" d="M150.018 349.077C148.366 349.077 147.068 350.5 147.208 352.157L149.769 382.592H203.917L206.478 352.157C206.618 350.5 205.32 349.077 203.668 349.077H150.018ZM177.001 367.446C179.22 367.446 181.019 365.64 181.019 363.412C181.019 361.185 179.22 359.379 177.001 359.379C174.782 359.379 172.983 361.185 172.983 363.412C172.983 365.64 174.782 367.446 177.001 367.446Z" fill="#001540"/>
<path fill-rule="evenodd" clip-rule="evenodd" d="M189.252 334.591L186.037 347.373H205.373C207.02 347.373 208.317 348.788 208.184 350.441L207.435 359.802C208.38 360.81 208.993 362.437 208.993 364.272C208.993 366.566 208.035 368.535 206.668 369.375L205.678 381.732C208.067 381.479 213.568 380.262 217.032 377.337C221.403 373.645 222.672 367.254 221.685 362.71C220.698 358.165 217.737 349.929 210.827 341.976C205.299 335.614 194.141 334.402 189.252 334.591Z" fill="#001540"/>
<path fill-rule="evenodd" clip-rule="evenodd" d="M164.748 334.591L167.963 347.373H148.627C146.98 347.373 145.683 348.788 145.816 350.441L146.565 359.802C145.62 360.81 145.007 362.437 145.007 364.272C145.007 366.566 145.965 368.535 147.332 369.375L148.322 381.732C145.933 381.479 140.432 380.262 136.968 377.337C132.597 373.645 131.328 367.254 132.315 362.71C133.302 358.165 136.263 349.929 143.173 341.976C148.701 335.614 159.859 334.402 164.748 334.591Z" fill="#001540"/>
<path d="M149.768 383.728C149.768 384.983 150.778 386 152.024 386H201.66C202.906 386 203.916 384.983 203.916 383.728H149.768Z" fill="#001540"/>
<path d="M669.918 21.4438C669.918 33.2869 662.973 42.8876 654.406 42.8876C645.839 42.8876 638.895 33.2869 638.895 21.4438C638.19 5.39645 645.839 0 654.406 0C662.973 0 671.61 7.52663 669.918 21.4438Z" fill="#001540"/>
<path d="M671.046 24C671.046 26.4314 670.035 28.4024 668.789 28.4024C667.543 28.4024 666.533 26.4314 666.533 24C666.533 21.5687 667.543 19.5977 668.789 19.5977C670.035 19.5977 671.046 21.5687 671.046 24Z" fill="#001540"/>
<path d="M641.997 24C641.997 26.4314 640.987 28.4024 639.741 28.4024C638.495 28.4024 637.484 26.4314 637.484 24C637.484 21.5687 638.495 19.5977 639.741 19.5977C640.987 19.5977 641.997 21.5687 641.997 24Z" fill="#001540"/>
<path d="M648.656 46.5217C648.301 45.5915 648.982 44.5918 649.972 44.5918H658.275C659.264 44.5918 659.946 45.5915 659.591 46.5217L657.508 51.9764H650.739L648.656 46.5217Z" fill="#001540"/>
<path d="M651.023 53.3965H657.228L657.792 57.6568H650.459L651.023 53.3965Z" fill="#001540"/>
<path fill-rule="evenodd" clip-rule="evenodd" d="M627.018 59.0771C625.366 59.0771 624.068 60.4999 624.208 62.1572L626.769 92.5919H680.917L683.478 62.1572C683.618 60.4999 682.32 59.0771 680.668 59.0771H627.018ZM654.001 77.4459C656.22 77.4459 658.019 75.6399 658.019 73.4122C658.019 71.1845 656.22 69.3786 654.001 69.3786C651.782 69.3786 649.983 71.1845 649.983 73.4122C649.983 75.6399 651.782 77.4459 654.001 77.4459Z" fill="#001540"/>
<path fill-rule="evenodd" clip-rule="evenodd" d="M666.252 44.5914L663.037 57.3726H682.373C684.02 57.3726 685.317 58.7879 685.184 60.4412L684.435 69.802C685.38 70.8098 685.993 72.4366 685.993 74.272C685.993 76.5662 685.035 78.5346 683.668 79.3753L682.678 91.7322C685.067 91.4791 690.568 90.2623 694.032 87.337C698.403 83.6446 699.672 77.2541 698.685 72.7097C697.698 68.1654 694.737 59.9287 687.827 51.976C682.299 45.6139 671.141 44.4021 666.252 44.5914Z" fill="#001540"/>
<path fill-rule="evenodd" clip-rule="evenodd" d="M641.748 44.5914L644.963 57.3726H625.627C623.98 57.3726 622.683 58.7879 622.816 60.4412L623.565 69.802C622.62 70.8098 622.007 72.4366 622.007 74.272C622.007 76.5662 622.965 78.5346 624.332 79.3753L625.322 91.7322C622.933 91.4791 617.432 90.2623 613.968 87.337C609.597 83.6446 608.328 77.2541 609.315 72.7097C610.302 68.1654 613.263 59.9287 620.173 51.976C625.701 45.6139 636.859 44.4021 641.748 44.5914Z" fill="#001540"/>
<path d="M626.768 93.7278C626.768 94.9827 627.778 96 629.024 96H678.66C679.906 96 680.916 94.9827 680.916 93.7278H626.768Z" fill="#001540"/>
<path d="M1164.92 306.444C1164.92 318.287 1157.97 327.888 1149.41 327.888C1140.84 327.888 1133.89 318.287 1133.89 306.444C1133.19 290.396 1140.84 285 1149.41 285C1157.97 285 1166.61 292.527 1164.92 306.444Z" fill="#001540"/>
<path d="M1166.05 309C1166.05 311.431 1165.04 313.402 1163.79 313.402C1162.54 313.402 1161.53 311.431 1161.53 309C1161.53 306.569 1162.54 304.598 1163.79 304.598C1165.04 304.598 1166.05 306.569 1166.05 309Z" fill="#001540"/>
<path d="M1137 309C1137 311.431 1135.99 313.402 1134.74 313.402C1133.49 313.402 1132.48 311.431 1132.48 309C1132.48 306.569 1133.49 304.598 1134.74 304.598C1135.99 304.598 1137 306.569 1137 309Z" fill="#001540"/>
<path d="M1143.66 331.522C1143.3 330.592 1143.98 329.592 1144.97 329.592H1153.28C1154.27 329.592 1154.95 330.592 1154.59 331.522L1152.51 336.976H1145.74L1143.66 331.522Z" fill="#001540"/>
<path d="M1146.02 338.396H1152.23L1152.79 342.657H1145.46L1146.02 338.396Z" fill="#001540"/>
<path fill-rule="evenodd" clip-rule="evenodd" d="M1122.02 344.077C1120.37 344.077 1119.07 345.5 1119.21 347.157L1121.77 377.592H1175.92L1178.48 347.157C1178.62 345.5 1177.32 344.077 1175.67 344.077H1122.02ZM1149 362.446C1151.22 362.446 1153.02 360.64 1153.02 358.412C1153.02 356.185 1151.22 354.379 1149 354.379C1146.78 354.379 1144.98 356.185 1144.98 358.412C1144.98 360.64 1146.78 362.446 1149 362.446Z" fill="#001540"/>
<path fill-rule="evenodd" clip-rule="evenodd" d="M1161.25 329.591L1158.04 342.373H1177.37C1179.02 342.373 1180.32 343.788 1180.18 345.441L1179.43 354.802C1180.38 355.81 1180.99 357.437 1180.99 359.272C1180.99 361.566 1180.03 363.535 1178.67 364.375L1177.68 376.732C1180.07 376.479 1185.57 375.262 1189.03 372.337C1193.4 368.645 1194.67 362.254 1193.68 357.71C1192.7 353.165 1189.74 344.929 1182.83 336.976C1177.3 330.614 1166.14 329.402 1161.25 329.591Z" fill="#001540"/>
<path fill-rule="evenodd" clip-rule="evenodd" d="M1136.75 329.591L1139.96 342.373H1120.63C1118.98 342.373 1117.68 343.788 1117.82 345.441L1118.57 354.802C1117.62 355.81 1117.01 357.437 1117.01 359.272C1117.01 361.566 1117.97 363.535 1119.33 364.375L1120.32 376.732C1117.93 376.479 1112.43 375.262 1108.97 372.337C1104.6 368.645 1103.33 362.254 1104.32 357.71C1105.3 353.165 1108.26 344.929 1115.17 336.976C1120.7 330.614 1131.86 329.402 1136.75 329.591Z" fill="#001540"/>
<path d="M1121.77 378.728C1121.77 379.983 1122.78 381 1124.02 381H1173.66C1174.91 381 1175.92 379.983 1175.92 378.728H1121.77Z" fill="#001540"/>
</svg>
