<svg width="660" height="390" viewBox="0 0 660 390" fill="none" xmlns="http://www.w3.org/2000/svg">
<rect x="170" width="150" height="70" rx="4" fill="#B6CEFF"/>
<path d="M212.833 34.0938H214.708C214.469 32.3679 212.948 31.1534 210.975 31.1534C208.669 31.1534 206.892 32.8153 206.892 35.6449C206.892 38.4062 208.554 40.1193 211.013 40.1193C213.216 40.1193 214.789 38.7259 214.789 36.429V35.3295H211.137V36.7188H213.012C212.986 37.8011 212.249 38.4872 211.021 38.4872C209.637 38.4872 208.763 37.4517 208.763 35.6278C208.763 33.8125 209.671 32.7855 211.004 32.7855C211.955 32.7855 212.598 33.2756 212.833 34.0938ZM221.565 31.2727V36.7827C221.565 37.7798 220.866 38.5 219.792 38.5C218.723 38.5 218.02 37.7798 218.02 36.7827V31.2727H216.175V36.9403C216.175 38.8494 217.615 40.1236 219.792 40.1236C221.961 40.1236 223.41 38.8494 223.41 36.9403V31.2727H221.565ZM226.433 40L227.08 38.0099H230.23L230.877 40H232.855L229.846 31.2727H227.468L224.455 40H226.433ZM227.549 36.5696L228.623 33.267H228.691L229.765 36.5696H227.549ZM233.905 40H235.75V36.9062H237.097L238.75 40H240.787L238.933 36.608C239.926 36.1818 240.476 35.3168 240.476 34.1236C240.476 32.3892 239.33 31.2727 237.348 31.2727H233.905V40ZM235.75 35.4233V32.7812H236.994C238.06 32.7812 238.575 33.2543 238.575 34.1236C238.575 34.9886 238.06 35.4233 237.003 35.4233H235.75ZM243.284 40L243.932 38.0099H247.081L247.729 40H249.706L246.698 31.2727H244.32L241.307 40H243.284ZM244.401 36.5696L245.475 33.267H245.543L246.617 36.5696H244.401ZM258.056 31.2727H256.22V36.7614H256.143L252.376 31.2727H250.757V40H252.602V34.5071H252.666L256.463 40H258.056V31.2727ZM259.248 32.794H261.92V40H263.744V32.794H266.416V31.2727H259.248V32.794ZM275.23 35.6364C275.23 32.7812 273.457 31.1534 271.143 31.1534C268.816 31.1534 267.056 32.7812 267.056 35.6364C267.056 38.4787 268.816 40.1193 271.143 40.1193C273.457 40.1193 275.23 38.4915 275.23 35.6364ZM273.359 35.6364C273.359 37.4858 272.481 38.4872 271.143 38.4872C269.801 38.4872 268.927 37.4858 268.927 35.6364C268.927 33.7869 269.801 32.7855 271.143 32.7855C272.481 32.7855 273.359 33.7869 273.359 35.6364ZM276.596 40H278.442V36.9062H279.788L281.442 40H283.479L281.625 36.608C282.618 36.1818 283.167 35.3168 283.167 34.1236C283.167 32.3892 282.021 31.2727 280.04 31.2727H276.596V40ZM278.442 35.4233V32.7812H279.686C280.751 32.7812 281.267 33.2543 281.267 34.1236C281.267 34.9886 280.751 35.4233 279.694 35.4233H278.442Z" fill="#001540"/>
<rect x="340" width="150" height="70" rx="4" fill="#B6CEFF"/>
<path d="M382.833 34.0938H384.708C384.469 32.3679 382.948 31.1534 380.975 31.1534C378.669 31.1534 376.892 32.8153 376.892 35.6449C376.892 38.4062 378.554 40.1193 381.013 40.1193C383.216 40.1193 384.789 38.7259 384.789 36.429V35.3295H381.137V36.7188H383.012C382.986 37.8011 382.249 38.4872 381.021 38.4872C379.637 38.4872 378.763 37.4517 378.763 35.6278C378.763 33.8125 379.671 32.7855 381.004 32.7855C381.955 32.7855 382.598 33.2756 382.833 34.0938ZM391.565 31.2727V36.7827C391.565 37.7798 390.866 38.5 389.792 38.5C388.723 38.5 388.02 37.7798 388.02 36.7827V31.2727H386.175V36.9403C386.175 38.8494 387.615 40.1236 389.792 40.1236C391.961 40.1236 393.41 38.8494 393.41 36.9403V31.2727H391.565ZM396.433 40L397.08 38.0099H400.23L400.877 40H402.855L399.846 31.2727H397.468L394.455 40H396.433ZM397.549 36.5696L398.623 33.267H398.691L399.765 36.5696H397.549ZM403.905 40H405.75V36.9062H407.097L408.75 40H410.787L408.933 36.608C409.926 36.1818 410.476 35.3168 410.476 34.1236C410.476 32.3892 409.33 31.2727 407.348 31.2727H403.905V40ZM405.75 35.4233V32.7812H406.994C408.06 32.7812 408.575 33.2543 408.575 34.1236C408.575 34.9886 408.06 35.4233 407.003 35.4233H405.75ZM413.284 40L413.932 38.0099H417.081L417.729 40H419.706L416.698 31.2727H414.32L411.307 40H413.284ZM414.401 36.5696L415.475 33.267H415.543L416.617 36.5696H414.401ZM428.056 31.2727H426.22V36.7614H426.143L422.376 31.2727H420.757V40H422.602V34.5071H422.666L426.463 40H428.056V31.2727ZM429.248 32.794H431.92V40H433.744V32.794H436.416V31.2727H429.248V32.794ZM445.23 35.6364C445.23 32.7812 443.457 31.1534 441.143 31.1534C438.816 31.1534 437.056 32.7812 437.056 35.6364C437.056 38.4787 438.816 40.1193 441.143 40.1193C443.457 40.1193 445.23 38.4915 445.23 35.6364ZM443.359 35.6364C443.359 37.4858 442.481 38.4872 441.143 38.4872C439.801 38.4872 438.927 37.4858 438.927 35.6364C438.927 33.7869 439.801 32.7855 441.143 32.7855C442.481 32.7855 443.359 33.7869 443.359 35.6364ZM446.596 40H448.442V36.9062H449.788L451.442 40H453.479L451.625 36.608C452.618 36.1818 453.167 35.3168 453.167 34.1236C453.167 32.3892 452.021 31.2727 450.04 31.2727H446.596V40ZM448.442 35.4233V32.7812H449.686C450.751 32.7812 451.267 33.2543 451.267 34.1236C451.267 34.9886 450.751 35.4233 449.694 35.4233H448.442Z" fill="#001540"/>
<rect x="510" y="80" width="150" height="70" rx="4" fill="#B6CEFF"/>
<path d="M546.055 120H549.784C551.744 120 552.788 118.977 552.788 117.588C552.788 116.297 551.864 115.517 550.871 115.47V115.385C551.778 115.18 552.447 114.537 552.447 113.51C552.447 112.202 551.476 111.273 549.55 111.273H546.055V120ZM547.901 118.491V116.173H549.447C550.334 116.173 550.884 116.685 550.884 117.405C550.884 118.061 550.436 118.491 549.405 118.491H547.901ZM547.901 114.925V112.764H549.303C550.121 112.764 550.585 113.186 550.585 113.817C550.585 114.507 550.023 114.925 549.268 114.925H547.901ZM553.989 120H559.887V118.479H555.834V116.395H559.567V114.874H555.834V112.794H559.87V111.273H553.989V120ZM568.636 111.273H566.8V116.761H566.723L562.956 111.273H561.337V120H563.182V114.507H563.246L567.043 120H568.636V111.273ZM570.161 120H576.059V118.479H572.006V116.395H575.739V114.874H572.006V112.794H576.042V111.273H570.161V120ZM577.509 120H579.354V116.395H582.903V114.874H579.354V112.794H583.287V111.273H577.509V120ZM586.373 111.273H584.528V120H586.373V111.273ZM595.592 114.328C595.349 112.312 593.823 111.153 591.803 111.153C589.498 111.153 587.738 112.781 587.738 115.636C587.738 118.483 589.468 120.119 591.803 120.119C594.04 120.119 595.391 118.632 595.592 117.026L593.725 117.017C593.55 117.95 592.817 118.487 591.833 118.487C590.508 118.487 589.609 117.503 589.609 115.636C589.609 113.821 590.495 112.786 591.846 112.786C592.856 112.786 593.585 113.369 593.725 114.328H595.592ZM598.76 111.273H596.915V120H598.76V111.273ZM601.782 120L602.43 118.01H605.579L606.227 120H608.204L605.196 111.273H602.818L599.805 120H601.782ZM602.899 116.57L603.973 113.267H604.041L605.115 116.57H602.899ZM609.255 120H611.1V116.906H612.446L614.1 120H616.137L614.283 116.608C615.276 116.182 615.826 115.317 615.826 114.124C615.826 112.389 614.679 111.273 612.698 111.273H609.255V120ZM611.1 115.423V112.781H612.344C613.409 112.781 613.925 113.254 613.925 114.124C613.925 114.989 613.409 115.423 612.353 115.423H611.1ZM616.255 111.273L619.438 116.915V120H621.271V116.915L624.454 111.273H622.387L620.397 115.031H620.312L618.322 111.273H616.255Z" fill="#001540"/>
<rect x="510" y="160" width="150" height="70" rx="4" fill="#B6CEFF"/>
<path d="M546.055 200H549.784C551.744 200 552.788 198.977 552.788 197.588C552.788 196.297 551.864 195.517 550.871 195.47V195.385C551.778 195.18 552.447 194.537 552.447 193.51C552.447 192.202 551.476 191.273 549.55 191.273H546.055V200ZM547.901 198.491V196.173H549.447C550.334 196.173 550.884 196.685 550.884 197.405C550.884 198.061 550.436 198.491 549.405 198.491H547.901ZM547.901 194.925V192.764H549.303C550.121 192.764 550.585 193.186 550.585 193.817C550.585 194.507 550.023 194.925 549.268 194.925H547.901ZM553.989 200H559.887V198.479H555.834V196.395H559.567V194.874H555.834V192.794H559.87V191.273H553.989V200ZM568.636 191.273H566.8V196.761H566.723L562.956 191.273H561.337V200H563.182V194.507H563.246L567.043 200H568.636V191.273ZM570.161 200H576.059V198.479H572.006V196.395H575.739V194.874H572.006V192.794H576.042V191.273H570.161V200ZM577.509 200H579.354V196.395H582.903V194.874H579.354V192.794H583.287V191.273H577.509V200ZM586.373 191.273H584.528V200H586.373V191.273ZM595.592 194.328C595.349 192.312 593.823 191.153 591.803 191.153C589.498 191.153 587.738 192.781 587.738 195.636C587.738 198.483 589.468 200.119 591.803 200.119C594.04 200.119 595.391 198.632 595.592 197.026L593.725 197.017C593.55 197.95 592.817 198.487 591.833 198.487C590.508 198.487 589.609 197.503 589.609 195.636C589.609 193.821 590.495 192.786 591.846 192.786C592.856 192.786 593.585 193.369 593.725 194.328H595.592ZM598.76 191.273H596.915V200H598.76V191.273ZM601.782 200L602.43 198.01H605.579L606.227 200H608.204L605.196 191.273H602.818L599.805 200H601.782ZM602.899 196.57L603.973 193.267H604.041L605.115 196.57H602.899ZM609.255 200H611.1V196.906H612.446L614.1 200H616.137L614.283 196.608C615.276 196.182 615.826 195.317 615.826 194.124C615.826 192.389 614.679 191.273 612.698 191.273H609.255V200ZM611.1 195.423V192.781H612.344C613.409 192.781 613.925 193.254 613.925 194.124C613.925 194.989 613.409 195.423 612.353 195.423H611.1ZM616.255 191.273L619.438 196.915V200H621.271V196.915L624.454 191.273H622.387L620.397 195.031H620.312L618.322 191.273H616.255Z" fill="#001540"/>
<rect x="510" y="240" width="150" height="70" rx="4" fill="#B6CEFF"/>
<path d="M546.055 280H549.784C551.744 280 552.788 278.977 552.788 277.588C552.788 276.297 551.864 275.517 550.871 275.47V275.385C551.778 275.18 552.447 274.537 552.447 273.51C552.447 272.202 551.476 271.273 549.55 271.273H546.055V280ZM547.901 278.491V276.173H549.447C550.334 276.173 550.884 276.685 550.884 277.405C550.884 278.061 550.436 278.491 549.405 278.491H547.901ZM547.901 274.925V272.764H549.303C550.121 272.764 550.585 273.186 550.585 273.817C550.585 274.507 550.023 274.925 549.268 274.925H547.901ZM553.989 280H559.887V278.479H555.834V276.395H559.567V274.874H555.834V272.794H559.87V271.273H553.989V280ZM568.636 271.273H566.8V276.761H566.723L562.956 271.273H561.337V280H563.182V274.507H563.246L567.043 280H568.636V271.273ZM570.161 280H576.059V278.479H572.006V276.395H575.739V274.874H572.006V272.794H576.042V271.273H570.161V280ZM577.509 280H579.354V276.395H582.903V274.874H579.354V272.794H583.287V271.273H577.509V280ZM586.373 271.273H584.528V280H586.373V271.273ZM595.592 274.328C595.349 272.312 593.823 271.153 591.803 271.153C589.498 271.153 587.738 272.781 587.738 275.636C587.738 278.483 589.468 280.119 591.803 280.119C594.04 280.119 595.391 278.632 595.592 277.026L593.725 277.017C593.55 277.95 592.817 278.487 591.833 278.487C590.508 278.487 589.609 277.503 589.609 275.636C589.609 273.821 590.495 272.786 591.846 272.786C592.856 272.786 593.585 273.369 593.725 274.328H595.592ZM598.76 271.273H596.915V280H598.76V271.273ZM601.782 280L602.43 278.01H605.579L606.227 280H608.204L605.196 271.273H602.818L599.805 280H601.782ZM602.899 276.57L603.973 273.267H604.041L605.115 276.57H602.899ZM609.255 280H611.1V276.906H612.446L614.1 280H616.137L614.283 276.608C615.276 276.182 615.826 275.317 615.826 274.124C615.826 272.389 614.679 271.273 612.698 271.273H609.255V280ZM611.1 275.423V272.781H612.344C613.409 272.781 613.925 273.254 613.925 274.124C613.925 274.989 613.409 275.423 612.353 275.423H611.1ZM616.255 271.273L619.438 276.915V280H621.271V276.915L624.454 271.273H622.387L620.397 275.031H620.312L618.322 271.273H616.255Z" fill="#001540"/>
<rect x="340" y="320" width="150" height="70" rx="4" fill="#B6CEFF"/>
<path d="M382.833 354.094H384.708C384.469 352.368 382.948 351.153 380.975 351.153C378.669 351.153 376.892 352.815 376.892 355.645C376.892 358.406 378.554 360.119 381.013 360.119C383.216 360.119 384.789 358.726 384.789 356.429V355.33H381.137V356.719H383.012C382.986 357.801 382.249 358.487 381.021 358.487C379.637 358.487 378.763 357.452 378.763 355.628C378.763 353.812 379.671 352.786 381.004 352.786C381.955 352.786 382.598 353.276 382.833 354.094ZM391.565 351.273V356.783C391.565 357.78 390.866 358.5 389.792 358.5C388.723 358.5 388.02 357.78 388.02 356.783V351.273H386.175V356.94C386.175 358.849 387.615 360.124 389.792 360.124C391.961 360.124 393.41 358.849 393.41 356.94V351.273H391.565ZM396.433 360L397.08 358.01H400.23L400.877 360H402.855L399.846 351.273H397.468L394.455 360H396.433ZM397.549 356.57L398.623 353.267H398.691L399.765 356.57H397.549ZM403.905 360H405.75V356.906H407.097L408.75 360H410.787L408.933 356.608C409.926 356.182 410.476 355.317 410.476 354.124C410.476 352.389 409.33 351.273 407.348 351.273H403.905V360ZM405.75 355.423V352.781H406.994C408.06 352.781 408.575 353.254 408.575 354.124C408.575 354.989 408.06 355.423 407.003 355.423H405.75ZM413.284 360L413.932 358.01H417.081L417.729 360H419.706L416.698 351.273H414.32L411.307 360H413.284ZM414.401 356.57L415.475 353.267H415.543L416.617 356.57H414.401ZM428.056 351.273H426.22V356.761H426.143L422.376 351.273H420.757V360H422.602V354.507H422.666L426.463 360H428.056V351.273ZM429.248 352.794H431.92V360H433.744V352.794H436.416V351.273H429.248V352.794ZM445.23 355.636C445.23 352.781 443.457 351.153 441.143 351.153C438.816 351.153 437.056 352.781 437.056 355.636C437.056 358.479 438.816 360.119 441.143 360.119C443.457 360.119 445.23 358.491 445.23 355.636ZM443.359 355.636C443.359 357.486 442.481 358.487 441.143 358.487C439.801 358.487 438.927 357.486 438.927 355.636C438.927 353.787 439.801 352.786 441.143 352.786C442.481 352.786 443.359 353.787 443.359 355.636ZM446.596 360H448.442V356.906H449.788L451.442 360H453.479L451.625 356.608C452.618 356.182 453.167 355.317 453.167 354.124C453.167 352.389 452.021 351.273 450.04 351.273H446.596V360ZM448.442 355.423V352.781H449.686C450.751 352.781 451.267 353.254 451.267 354.124C451.267 354.989 450.751 355.423 449.694 355.423H448.442Z" fill="#001540"/>
<rect x="170" y="320" width="150" height="70" rx="4" fill="#B6CEFF"/>
<path d="M212.833 354.094H214.708C214.469 352.368 212.948 351.153 210.975 351.153C208.669 351.153 206.892 352.815 206.892 355.645C206.892 358.406 208.554 360.119 211.013 360.119C213.216 360.119 214.789 358.726 214.789 356.429V355.33H211.137V356.719H213.012C212.986 357.801 212.249 358.487 211.021 358.487C209.637 358.487 208.763 357.452 208.763 355.628C208.763 353.812 209.671 352.786 211.004 352.786C211.955 352.786 212.598 353.276 212.833 354.094ZM221.565 351.273V356.783C221.565 357.78 220.866 358.5 219.792 358.5C218.723 358.5 218.02 357.78 218.02 356.783V351.273H216.175V356.94C216.175 358.849 217.615 360.124 219.792 360.124C221.961 360.124 223.41 358.849 223.41 356.94V351.273H221.565ZM226.433 360L227.08 358.01H230.23L230.877 360H232.855L229.846 351.273H227.468L224.455 360H226.433ZM227.549 356.57L228.623 353.267H228.691L229.765 356.57H227.549ZM233.905 360H235.75V356.906H237.097L238.75 360H240.787L238.933 356.608C239.926 356.182 240.476 355.317 240.476 354.124C240.476 352.389 239.33 351.273 237.348 351.273H233.905V360ZM235.75 355.423V352.781H236.994C238.06 352.781 238.575 353.254 238.575 354.124C238.575 354.989 238.06 355.423 237.003 355.423H235.75ZM243.284 360L243.932 358.01H247.081L247.729 360H249.706L246.698 351.273H244.32L241.307 360H243.284ZM244.401 356.57L245.475 353.267H245.543L246.617 356.57H244.401ZM258.056 351.273H256.22V356.761H256.143L252.376 351.273H250.757V360H252.602V354.507H252.666L256.463 360H258.056V351.273ZM259.248 352.794H261.92V360H263.744V352.794H266.416V351.273H259.248V352.794ZM275.23 355.636C275.23 352.781 273.457 351.153 271.143 351.153C268.816 351.153 267.056 352.781 267.056 355.636C267.056 358.479 268.816 360.119 271.143 360.119C273.457 360.119 275.23 358.491 275.23 355.636ZM273.359 355.636C273.359 357.486 272.481 358.487 271.143 358.487C269.801 358.487 268.927 357.486 268.927 355.636C268.927 353.787 269.801 352.786 271.143 352.786C272.481 352.786 273.359 353.787 273.359 355.636ZM276.596 360H278.442V356.906H279.788L281.442 360H283.479L281.625 356.608C282.618 356.182 283.167 355.317 283.167 354.124C283.167 352.389 282.021 351.273 280.04 351.273H276.596V360ZM278.442 355.423V352.781H279.686C280.751 352.781 281.267 353.254 281.267 354.124C281.267 354.989 280.751 355.423 279.694 355.423H278.442Z" fill="#001540"/>
<rect y="240" width="150" height="70" rx="4" fill="#B6CEFF"/>
<path d="M42.5811 280L43.2289 278.01H46.378L47.0257 280H49.003L45.9945 271.273H43.6167L40.6039 280H42.5811ZM43.6976 276.57L44.7715 273.267H44.8397L45.9135 276.57H43.6976ZM50.0534 280H51.8986V277.17H53.4498C55.4569 277.17 56.6245 275.973 56.6245 274.23C56.6245 272.496 55.4782 271.273 53.4966 271.273H50.0534V280ZM51.8986 275.692V272.781H53.1429C54.2083 272.781 54.7239 273.361 54.7239 274.23C54.7239 275.095 54.2083 275.692 53.1515 275.692H51.8986ZM57.823 280H59.6681V277.17H61.2193C63.2264 277.17 64.394 275.973 64.394 274.23C64.394 272.496 63.2477 271.273 61.2662 271.273H57.823V280ZM59.6681 275.692V272.781H60.9125C61.9778 272.781 62.4934 273.361 62.4934 274.23C62.4934 275.095 61.9778 275.692 60.921 275.692H59.6681ZM65.5925 280H71.1792V278.479H67.4377V271.273H65.5925V280ZM74.2463 271.273H72.4011V280H74.2463V271.273ZM83.4647 274.328C83.2218 272.312 81.6962 271.153 79.6763 271.153C77.3709 271.153 75.611 272.781 75.611 275.636C75.611 278.483 77.3411 280.119 79.6763 280.119C81.9135 280.119 83.2644 278.632 83.4647 277.026L81.5982 277.017C81.4235 277.95 80.6905 278.487 79.7061 278.487C78.3809 278.487 77.4817 277.503 77.4817 275.636C77.4817 273.821 78.3681 272.786 79.7189 272.786C80.7289 272.786 81.4576 273.369 81.5982 274.328H83.4647ZM86.128 280L86.7757 278.01H89.9249L90.5726 280H92.5499L89.5414 271.273H87.1635L84.1507 280H86.128ZM87.2445 276.57L88.3184 273.267H88.3865L89.4604 276.57H87.2445ZM100.9 271.273H99.0634V276.761H98.9867L95.2196 271.273H93.6003V280H95.4455V274.507H95.5094L99.3063 280H100.9V271.273ZM102.092 272.794H104.764V280H106.588V272.794H109.26V271.273H102.092V272.794Z" fill="#001540"/>
<rect y="160" width="150" height="70" rx="4" fill="#B6CEFF"/>
<path d="M42.5811 200L43.2289 198.01H46.378L47.0257 200H49.003L45.9945 191.273H43.6167L40.6039 200H42.5811ZM43.6976 196.57L44.7715 193.267H44.8397L45.9135 196.57H43.6976ZM50.0534 200H51.8986V197.17H53.4498C55.4569 197.17 56.6245 195.973 56.6245 194.23C56.6245 192.496 55.4782 191.273 53.4966 191.273H50.0534V200ZM51.8986 195.692V192.781H53.1429C54.2083 192.781 54.7239 193.361 54.7239 194.23C54.7239 195.095 54.2083 195.692 53.1515 195.692H51.8986ZM57.823 200H59.6681V197.17H61.2193C63.2264 197.17 64.394 195.973 64.394 194.23C64.394 192.496 63.2477 191.273 61.2662 191.273H57.823V200ZM59.6681 195.692V192.781H60.9125C61.9778 192.781 62.4934 193.361 62.4934 194.23C62.4934 195.095 61.9778 195.692 60.921 195.692H59.6681ZM65.5925 200H71.1792V198.479H67.4377V191.273H65.5925V200ZM74.2463 191.273H72.4011V200H74.2463V191.273ZM83.4647 194.328C83.2218 192.312 81.6962 191.153 79.6763 191.153C77.3709 191.153 75.611 192.781 75.611 195.636C75.611 198.483 77.3411 200.119 79.6763 200.119C81.9135 200.119 83.2644 198.632 83.4647 197.026L81.5982 197.017C81.4235 197.95 80.6905 198.487 79.7061 198.487C78.3809 198.487 77.4817 197.503 77.4817 195.636C77.4817 193.821 78.3681 192.786 79.7189 192.786C80.7289 192.786 81.4576 193.369 81.5982 194.328H83.4647ZM86.128 200L86.7757 198.01H89.9249L90.5726 200H92.5499L89.5414 191.273H87.1635L84.1507 200H86.128ZM87.2445 196.57L88.3184 193.267H88.3865L89.4604 196.57H87.2445ZM100.9 191.273H99.0634V196.761H98.9867L95.2196 191.273H93.6003V200H95.4455V194.507H95.5094L99.3063 200H100.9V191.273ZM102.092 192.794H104.764V200H106.588V192.794H109.26V191.273H102.092V192.794Z" fill="#001540"/>
<rect y="80" width="150" height="70" rx="4" fill="#B6CEFF"/>
<path d="M42.5811 120L43.2289 118.01H46.378L47.0257 120H49.003L45.9945 111.273H43.6167L40.6039 120H42.5811ZM43.6976 116.57L44.7715 113.267H44.8397L45.9135 116.57H43.6976ZM50.0534 120H51.8986V117.17H53.4498C55.4569 117.17 56.6245 115.973 56.6245 114.23C56.6245 112.496 55.4782 111.273 53.4966 111.273H50.0534V120ZM51.8986 115.692V112.781H53.1429C54.2083 112.781 54.7239 113.361 54.7239 114.23C54.7239 115.095 54.2083 115.692 53.1515 115.692H51.8986ZM57.823 120H59.6681V117.17H61.2193C63.2264 117.17 64.394 115.973 64.394 114.23C64.394 112.496 63.2477 111.273 61.2662 111.273H57.823V120ZM59.6681 115.692V112.781H60.9125C61.9778 112.781 62.4934 113.361 62.4934 114.23C62.4934 115.095 61.9778 115.692 60.921 115.692H59.6681ZM65.5925 120H71.1792V118.479H67.4377V111.273H65.5925V120ZM74.2463 111.273H72.4011V120H74.2463V111.273ZM83.4647 114.328C83.2218 112.312 81.6962 111.153 79.6763 111.153C77.3709 111.153 75.611 112.781 75.611 115.636C75.611 118.483 77.3411 120.119 79.6763 120.119C81.9135 120.119 83.2644 118.632 83.4647 117.026L81.5982 117.017C81.4235 117.95 80.6905 118.487 79.7061 118.487C78.3809 118.487 77.4817 117.503 77.4817 115.636C77.4817 113.821 78.3681 112.786 79.7189 112.786C80.7289 112.786 81.4576 113.369 81.5982 114.328H83.4647ZM86.128 120L86.7757 118.01H89.9249L90.5726 120H92.5499L89.5414 111.273H87.1635L84.1507 120H86.128ZM87.2445 116.57L88.3184 113.267H88.3865L89.4604 116.57H87.2445ZM100.9 111.273H99.0634V116.761H98.9867L95.2196 111.273H93.6003V120H95.4455V114.507H95.5094L99.3063 120H100.9V111.273ZM102.092 112.794H104.764V120H106.588V112.794H109.26V111.273H102.092V112.794Z" fill="#001540"/>
<line x1="150" y1="114.5" x2="180" y2="114.5" stroke="black"/>
<line y1="-0.5" x2="30" y2="-0.5" transform="matrix(-1 0 0 1 510 115)" stroke="black"/>
<line x1="414.5" y1="320" x2="414.5" y2="290" stroke="black"/>
<line y1="-0.5" x2="30" y2="-0.5" transform="matrix(1.54476e-09 1 1 -1.54476e-09 415 70)" stroke="black"/>
<line x1="150" y1="194.5" x2="245" y2="194.5" stroke="black"/>
<line x1="329.5" y1="225" x2="329.5" y2="291" stroke="black"/>
<line x1="329.5" y1="100" x2="329.5" y2="166" stroke="black"/>
<line x1="510" y1="195.5" x2="415" y2="195.5" stroke="black"/>
<line x1="150" y1="275.5" x2="180" y2="275.5" stroke="black"/>
<line y1="-0.5" x2="30" y2="-0.5" transform="matrix(-1 0 0 1 510 276)" stroke="black"/>
<line y1="-0.5" x2="30" y2="-0.5" transform="matrix(4.37114e-08 -1 -1 -4.37114e-08 245 320)" stroke="black"/>
<line x1="245.5" y1="70" x2="245.5" y2="100" stroke="black"/>
<line x1="179.5" y1="114" x2="179.5" y2="275" stroke="black"/>
<line y1="-0.5" x2="161" y2="-0.5" transform="matrix(4.37114e-08 1 1 -4.37114e-08 481 114)" stroke="black"/>
<line x1="415" y1="290.5" x2="246" y2="290.5" stroke="black"/>
<line y1="-0.5" x2="169" y2="-0.5" transform="matrix(-1 0 0 1 415 100)" stroke="black"/>
<rect x="244" y="153" width="171" height="84" rx="4" fill="#001540"/>
<path d="M394.836 191.87C394.836 191.805 394.836 191.74 394.836 191.653C394.858 190.09 394.082 188.939 392.51 188.461C391.326 188.092 390.055 187.81 388.806 187.766C385.295 187.658 381.784 187.701 378.273 187.658C377.52 187.636 376.744 187.527 376.012 187.354C375.624 187.267 375.215 186.984 375 186.68C374.16 185.377 374.935 183.597 376.529 183.271C377.671 183.054 378.833 182.923 379.997 182.923C384.11 182.88 388.246 182.902 392.359 182.88C392.661 182.88 393.049 182.793 393.221 182.619C393.609 182.163 393.889 181.599 394.233 181.034H378.209C377.132 181.034 376.033 181.143 374.957 181.316C371.812 181.773 370.412 183.64 370.907 186.528C371.145 187.896 371.963 188.83 373.406 189.134C374.547 189.373 375.711 189.547 376.873 189.569C380.169 189.634 383.486 189.59 386.781 189.655C387.664 189.677 388.569 189.786 389.409 190.003C390.572 190.307 390.959 191.11 390.916 192.609C390.873 193.738 390.421 194.368 389.301 194.628C388.461 194.824 387.599 194.911 386.738 194.911C381.87 194.932 377.024 194.932 372.157 194.932C371.92 194.932 371.554 194.932 371.467 195.063C371.037 195.627 370.692 196.235 370.283 196.909H386.544C387.686 196.909 388.827 196.887 389.969 196.756C392.876 196.453 395.116 195.562 394.836 191.87Z" fill="white"/>
<path d="M351.783 196.91L357.9 196.932C358.761 196.932 359.558 196.454 359.967 195.694C362.466 191.025 367.075 182.295 367.743 181.014C366.299 181.014 367.247 180.971 365.977 181.036C365.697 181.058 365.352 181.362 365.179 181.622C362.53 186.291 361.691 187.681 359.063 192.35C358.546 193.262 358.029 194.196 357.491 195.151C357.232 195.586 356.78 195.868 356.263 195.868H355.617C355.121 195.868 354.647 195.586 354.389 195.151C353.851 194.196 353.334 193.284 352.817 192.35C350.189 187.659 349.263 186.291 346.614 181.622C346.463 181.362 346.097 181.058 345.817 181.036C344.568 180.971 343.297 181.014 341.854 181.014C342.543 182.295 347.217 191.025 349.694 195.673C350.125 196.433 350.921 196.91 351.783 196.91Z" fill="white"/>
<path d="M331.858 181.1H312L313.68 183.076L330.092 183.336C332.633 183.38 334.679 185.465 334.679 188.027L334.701 190.134C334.701 192.718 332.655 194.824 330.07 194.846L317.901 194.998C317.729 194.998 317.6 194.868 317.6 194.694V187.701L313.658 183.054V196.431C313.658 196.692 313.874 196.931 314.154 196.931H331.837C335.885 196.931 339.181 193.608 339.181 189.525V188.483C339.181 184.4 335.907 181.1 331.858 181.1Z" fill="white"/>
<path d="M317.525 206.963C317.347 207.197 317.1 207.374 316.785 207.494C316.469 207.614 316.111 207.674 315.71 207.674C315.297 207.674 314.932 207.58 314.615 207.392C314.297 207.203 314.051 206.935 313.878 206.586C313.707 206.234 313.617 205.825 313.611 205.358V204.97C313.611 204.222 313.789 203.638 314.145 203.219C314.501 202.797 314.998 202.586 315.635 202.586C316.183 202.586 316.618 202.722 316.94 202.994C317.263 203.266 317.456 203.658 317.522 204.171H316.683C316.589 203.574 316.245 203.276 315.652 203.276C315.269 203.276 314.977 203.416 314.777 203.695C314.579 203.971 314.476 204.378 314.469 204.916V205.296C314.469 205.832 314.581 206.248 314.804 206.545C315.029 206.84 315.341 206.987 315.74 206.987C316.177 206.987 316.488 206.887 316.673 206.688V205.718H315.659V205.065H317.525V206.963Z" fill="white"/>
<path d="M323.449 202.654V205.963C323.449 206.489 323.281 206.907 322.945 207.215C322.612 207.521 322.167 207.674 321.61 207.674C321.047 207.674 320.599 207.523 320.268 207.222C319.937 206.918 319.771 206.497 319.771 205.96V202.654H320.623V205.967C320.623 206.298 320.706 206.551 320.873 206.725C321.04 206.9 321.286 206.987 321.61 206.987C322.268 206.987 322.597 206.638 322.597 205.94V202.654H323.449Z" fill="white"/>
<path d="M328.43 206.453H326.524L326.125 207.606H325.236L327.095 202.654H327.862L329.725 207.606H328.832L328.43 206.453ZM326.764 205.759H328.19L327.477 203.705L326.764 205.759Z" fill="white"/>
<path d="M333.478 205.698H332.525V207.606H331.67V202.654H333.401C333.969 202.654 334.407 202.782 334.716 203.039C335.024 203.295 335.179 203.666 335.179 204.151C335.179 204.482 335.099 204.76 334.939 204.984C334.781 205.206 334.56 205.377 334.276 205.497L335.382 207.562V207.606H334.465L333.478 205.698ZM332.525 205.008H333.404C333.693 205.008 333.918 204.935 334.08 204.79C334.242 204.643 334.323 204.442 334.323 204.188C334.323 203.923 334.248 203.718 334.097 203.572C333.948 203.428 333.725 203.353 333.428 203.348H332.525V205.008Z" fill="white"/>
<path d="M340.129 206.453H338.223L337.824 207.606H336.935L338.794 202.654H339.562L341.424 207.606H340.532L340.129 206.453ZM338.463 205.759H339.889L339.176 203.705L338.463 205.759Z" fill="white"/>
<path d="M347.273 207.606H346.418L344.224 204.093V207.606H343.369V202.654H344.224L346.425 206.181V202.654H347.273V207.606Z" fill="white"/>
<path d="M353.123 203.348H351.589V207.606H350.74V203.348H349.219V202.654H353.123V203.348Z" fill="white"/>
<path d="M358.033 205.395H356.012V206.919H358.375V207.606H355.157V202.654H358.351V203.348H356.012V204.715H358.033V205.395Z" fill="white"/>
<path d="M363.332 205.395H361.31V206.919H363.673V207.606H360.455V202.654H363.649V203.348H361.31V204.715H363.332V205.395Z" fill="white"/>
<path d="M370.596 206.528L371.847 202.654H372.787L371.015 207.606H370.187L368.423 202.654H369.359L370.596 206.528Z" fill="white"/>
<path d="M377.227 206.453H375.32L374.921 207.606H374.032L375.892 202.654H376.659L378.521 207.606H377.629L377.227 206.453ZM375.56 205.759H376.987L376.274 203.705L375.56 205.759Z" fill="white"/>
<path d="M384.006 202.654V205.963C384.006 206.489 383.838 206.907 383.502 207.215C383.169 207.521 382.724 207.674 382.167 207.674C381.604 207.674 381.157 207.523 380.825 207.222C380.494 206.918 380.328 206.497 380.328 205.96V202.654H381.18V205.967C381.18 206.298 381.264 206.551 381.431 206.725C381.597 206.9 381.843 206.987 382.167 206.987C382.826 206.987 383.154 206.638 383.154 205.94V202.654H384.006Z" fill="white"/>
<path d="M387.162 206.919H389.396V207.606H386.307V202.654H387.162V206.919Z" fill="white"/>
<path d="M394.296 203.348H392.762V207.606H391.913V203.348H390.392V202.654H394.296V203.348Z" fill="white"/>
<path d="M301.867 190.826C301.991 189.63 301.908 188.434 301.619 187.281C301.289 185.936 300.649 184.676 299.823 183.609C298.976 182.541 297.902 181.644 296.725 181.025C296.126 180.726 295.507 180.47 294.846 180.299C294.206 180.128 293.546 180.043 292.884 180H292.637H292.389H291.914L290.964 180.021L289.065 180.064L287.165 180.107L285.265 180.149C282.725 180.214 280.186 180.299 277.646 180.406C280.186 180.534 282.725 180.598 285.265 180.662L287.165 180.705L289.065 180.747L290.964 180.79L291.914 180.811H292.389H292.616L292.843 180.833C294.062 180.918 295.239 181.26 296.312 181.836C296.849 182.135 297.345 182.477 297.82 182.883C298.295 183.288 298.708 183.737 299.079 184.206C299.575 184.868 299.988 185.594 300.298 186.363C300.174 186.171 300.05 186 299.905 185.808C299.492 185.274 299.038 184.804 298.542 184.356C298.047 183.929 297.489 183.544 296.911 183.224C296.333 182.904 295.734 182.669 295.094 182.477C294.475 182.285 293.834 182.178 293.174 182.135C293.009 182.114 292.843 182.114 292.699 182.114C292.616 182.114 292.534 182.114 292.451 182.114C292.368 182.114 292.286 182.114 292.224 182.114L291.295 182.135C290.056 182.157 288.817 182.199 287.578 182.221C286.339 182.263 285.1 182.306 283.861 182.349L282.003 182.434C281.693 182.455 281.383 182.455 281.074 182.477C280.764 182.498 280.454 182.498 280.144 182.52C280.454 182.541 280.764 182.562 281.074 182.562C281.383 182.584 281.693 182.605 282.003 182.605L283.861 182.69C285.1 182.733 286.339 182.776 287.578 182.819C288.817 182.861 290.056 182.883 291.295 182.904L292.224 182.925H292.451C292.534 182.925 292.596 182.925 292.678 182.925C292.823 182.925 292.967 182.947 293.112 182.968C293.71 183.032 294.289 183.16 294.846 183.331C295.982 183.694 297.014 184.292 297.923 185.082C298.811 185.872 299.554 186.854 300.07 187.943C300.153 188.114 300.236 188.306 300.298 188.477C300.112 188.178 299.905 187.9 299.678 187.644C298.832 186.619 297.778 185.786 296.602 185.189C296.023 184.89 295.404 184.676 294.764 184.505C294.124 184.356 293.483 184.27 292.843 184.249C292.678 184.249 292.513 184.249 292.368 184.249H291.894L290.964 184.27L289.106 184.313L287.248 184.377L285.389 184.441C284.15 184.484 282.911 184.548 281.672 184.633C282.911 184.719 284.15 184.762 285.389 184.826L287.248 184.89L289.106 184.954L290.964 184.996L291.894 185.018H292.368C292.513 185.018 292.657 185.018 292.823 185.039C294 185.103 295.177 185.445 296.209 186C298.068 186.961 299.533 188.626 300.318 190.612C300.153 190.377 299.988 190.121 299.802 189.907C299.389 189.395 298.914 188.904 298.398 188.498C297.882 188.071 297.345 187.708 296.746 187.409C296.168 187.11 295.548 186.875 294.929 186.705C294.309 186.534 293.649 186.427 293.009 186.406C292.926 186.406 292.843 186.406 292.761 186.406C292.678 186.406 292.596 186.406 292.513 186.406H292.389H292.265H292.038L291.109 186.427C289.87 186.47 288.631 186.512 287.392 186.576C286.772 186.598 286.153 186.641 285.534 186.683C284.914 186.726 284.295 186.769 283.675 186.811C284.295 186.854 284.914 186.897 285.534 186.939C286.153 186.982 286.772 187.004 287.392 187.046C288.631 187.11 289.87 187.153 291.109 187.196L292.038 187.217L292.492 187.238C292.575 187.238 292.637 187.238 292.72 187.238C292.802 187.238 292.864 187.238 292.947 187.26C293.546 187.302 294.123 187.431 294.681 187.58C295.817 187.922 296.87 188.498 297.778 189.288C298.233 189.673 298.646 190.121 299.017 190.591C299.389 191.06 299.699 191.573 299.967 192.107C300.07 192.32 300.174 192.555 300.277 192.79C300.05 192.448 299.802 192.128 299.533 191.808C298.666 190.804 297.593 189.972 296.416 189.416C295.817 189.139 295.197 188.925 294.578 188.776C293.938 188.626 293.297 188.562 292.657 188.541H292.41H292.183L291.708 188.562C291.398 188.584 291.088 188.584 290.778 188.605L289.849 188.648L288.92 188.69C287.681 188.754 286.442 188.84 285.203 188.947C286.442 189.075 287.681 189.139 288.92 189.203L289.849 189.246L290.778 189.288C291.088 189.31 291.398 189.31 291.708 189.331L292.183 189.352L292.637 189.374C293.236 189.395 293.814 189.48 294.392 189.63C294.97 189.779 295.528 189.993 296.044 190.249C296.581 190.505 297.076 190.826 297.551 191.21C298.026 191.573 298.439 192 298.832 192.448C299.224 192.918 299.575 193.431 299.864 193.986C299.823 194.05 299.802 194.114 299.761 194.178C299.141 193.409 298.419 192.747 297.634 192.213C296.519 191.466 295.239 190.975 293.917 190.762C293.587 190.719 293.256 190.676 292.926 190.676H292.678H292.43C292.265 190.676 292.121 190.697 291.955 190.697C291.315 190.719 290.675 190.762 290.056 190.783C288.775 190.868 287.516 190.932 286.236 191.082C287.516 191.21 288.775 191.295 290.056 191.381C290.696 191.423 291.336 191.445 291.955 191.466L292.43 191.488H292.657L292.884 191.509C293.194 191.53 293.483 191.573 293.793 191.616C294.392 191.722 294.97 191.893 295.528 192.128C296.085 192.363 296.622 192.662 297.118 193.004C297.923 193.559 298.625 194.242 299.203 195.032C298.584 195.886 297.82 196.612 296.952 197.189C296.436 197.53 295.899 197.808 295.342 198.021C294.784 198.235 294.186 198.406 293.587 198.491C293.277 198.534 292.988 198.577 292.678 198.577C292.596 198.577 292.534 198.577 292.451 198.577H292.224H291.749L289.849 198.598C287.309 198.64 284.77 198.683 282.23 198.747C280.95 198.769 279.69 198.811 278.41 198.854C277.13 198.897 275.87 198.939 274.59 198.982C275.87 199.025 277.13 199.068 278.41 199.11C279.69 199.153 280.95 199.174 282.23 199.217C284.77 199.281 287.309 199.324 289.849 199.366L291.749 199.388H292.224H292.472C292.554 199.388 292.637 199.388 292.72 199.388C293.05 199.388 293.38 199.366 293.71 199.324C295.032 199.153 296.312 198.704 297.469 197.978C298.047 197.616 298.563 197.189 299.059 196.719C299.327 196.463 299.575 196.185 299.802 195.907C299.843 195.971 299.864 196.036 299.905 196.1C299.823 196.27 299.74 196.42 299.637 196.569C299.327 197.082 298.955 197.551 298.542 198C297.737 198.875 296.746 199.58 295.652 200.05C295.115 200.285 294.537 200.456 293.958 200.583C293.669 200.648 293.38 200.69 293.07 200.712C292.988 200.712 292.926 200.733 292.843 200.733C292.761 200.733 292.699 200.733 292.616 200.754H292.389H292.162L288.445 200.797C285.967 200.84 283.489 200.883 281.012 200.947L279.153 200.989L277.295 201.032C276.056 201.075 274.817 201.096 273.578 201.139C274.817 201.181 276.056 201.224 277.295 201.245L279.153 201.288L281.012 201.331C283.489 201.395 285.967 201.438 288.445 201.48L292.162 201.523H292.389H292.637C292.72 201.523 292.802 201.523 292.884 201.523C292.967 201.523 293.05 201.523 293.133 201.502C293.463 201.48 293.773 201.438 294.103 201.395C294.743 201.288 295.383 201.117 295.982 200.861C296.581 200.626 297.18 200.306 297.716 199.943C298.253 199.58 298.769 199.153 299.224 198.662C299.637 198.235 300.008 197.786 300.318 197.295C300.174 197.68 299.988 198.043 299.781 198.406C299.182 199.452 298.398 200.37 297.448 201.096C296.973 201.459 296.477 201.779 295.94 202.035C295.404 202.292 294.846 202.484 294.268 202.633C293.69 202.783 293.112 202.847 292.513 202.868L290.654 202.89L286.938 202.932L283.221 202.996L279.504 203.082C278.265 203.103 277.026 203.146 275.787 203.167C275.168 203.188 274.549 203.188 273.929 203.21L272.071 203.274L273.929 203.338C274.549 203.359 275.168 203.381 275.787 203.381C277.026 203.402 278.265 203.445 279.504 203.466L283.221 203.552L286.938 203.616L290.654 203.658L292.513 203.68C293.153 203.68 293.814 203.616 294.454 203.488C295.734 203.21 296.952 202.676 298.006 201.886C298.542 201.502 299.038 201.053 299.472 200.562C299.781 200.221 300.07 199.836 300.318 199.452C299.926 200.456 299.348 201.374 298.646 202.164C297.84 203.061 296.87 203.765 295.796 204.256C295.259 204.512 294.702 204.683 294.123 204.811C293.834 204.875 293.546 204.918 293.256 204.961C293.112 204.982 292.967 204.982 292.823 205.003C292.74 205.003 292.678 205.003 292.596 205.003C292.513 205.003 292.451 205.003 292.368 205.003L288.652 205.046L284.935 205.089L281.218 205.153L277.501 205.217C275.023 205.26 272.546 205.324 270.068 205.388C272.546 205.452 275.023 205.516 277.501 205.559L281.218 205.623L284.935 205.687L288.652 205.729L292.368 205.772H292.616C292.699 205.772 292.781 205.772 292.864 205.772C293.029 205.772 293.194 205.751 293.339 205.751C293.669 205.729 293.979 205.687 294.309 205.623C294.95 205.495 295.569 205.302 296.168 205.046C297.365 204.534 298.46 203.765 299.368 202.783C299.719 202.399 300.05 201.971 300.339 201.544C300.215 201.886 300.05 202.206 299.885 202.527C299.595 203.061 299.265 203.552 298.873 204.021C298.48 204.491 298.068 204.897 297.593 205.281C297.365 205.473 297.118 205.644 296.87 205.793C296.622 205.964 296.353 206.093 296.106 206.242C295.569 206.498 295.011 206.712 294.454 206.861C293.876 207.01 293.297 207.096 292.699 207.117H292.472H292.244H291.77H290.84C288.362 207.139 285.885 207.181 283.407 207.203C278.451 207.288 273.495 207.352 268.54 207.502C273.495 207.63 278.451 207.715 283.407 207.801C285.885 207.843 288.362 207.865 290.84 207.886H291.77H292.244H292.472H292.72C293.36 207.886 294.02 207.801 294.64 207.651C295.899 207.352 297.118 206.797 298.171 205.986C298.687 205.58 299.182 205.132 299.616 204.619C299.885 204.32 300.132 204 300.339 203.658C300.008 204.491 299.554 205.281 298.997 205.986C298.604 206.455 298.191 206.904 297.716 207.288C297.242 207.672 296.725 208.014 296.189 208.292C295.652 208.569 295.073 208.783 294.495 208.954C293.917 209.103 293.297 209.21 292.699 209.231H292.472H292.224H291.749H290.799L288.899 209.253L285.079 209.295L281.259 209.338L277.439 209.402L273.619 209.466L269.799 209.53L267.9 209.573L266 209.615L267.9 209.658L269.799 209.701L273.619 209.765L277.439 209.829L281.259 209.893L285.079 209.936L288.899 209.979L290.799 210H291.749H292.224H292.472H292.72C293.38 210 294.041 209.915 294.702 209.765C295.342 209.615 295.982 209.381 296.581 209.082C297.799 208.505 298.873 207.63 299.74 206.584C300.607 205.537 301.268 204.278 301.64 202.954C301.97 201.737 302.073 200.434 301.949 199.174C301.867 199.388 301.888 191.039 301.867 190.826Z" fill="white"/>
</svg>
