<svg width="660" height="390" viewBox="0 0 660 390" fill="none" xmlns="http://www.w3.org/2000/svg">
<rect x="170" width="150" height="70" rx="4" fill="#B6CEFF"/>
<path d="M225.782 34.0938H227.657C227.418 32.3679 225.897 31.1534 223.924 31.1534C221.618 31.1534 219.841 32.8153 219.841 35.6449C219.841 38.4062 221.503 40.1193 223.962 40.1193C226.165 40.1193 227.738 38.7259 227.738 36.429V35.3295H224.086V36.7188H225.961C225.935 37.8011 225.198 38.4872 223.971 38.4872C222.586 38.4872 221.712 37.4517 221.712 35.6278C221.712 33.8125 222.62 32.7855 223.954 32.7855C224.904 32.7855 225.547 33.2756 225.782 34.0938ZM230.358 40L231.006 38.0099H234.155L234.803 40H236.78L233.772 31.2727H231.394L228.381 40H230.358ZM231.475 36.5696L232.549 33.267H232.617L233.691 36.5696H231.475ZM237.831 40H239.676V36.9062H241.023L242.676 40H244.713L242.859 36.608C243.852 36.1818 244.402 35.3168 244.402 34.1236C244.402 32.3892 243.256 31.2727 241.274 31.2727H237.831V40ZM239.676 35.4233V32.7812H240.92C241.986 32.7812 242.501 33.2543 242.501 34.1236C242.501 34.9886 241.986 35.4233 240.929 35.4233H239.676ZM247.21 40L247.858 38.0099H251.007L251.655 40H253.632L250.623 31.2727H248.246L245.233 40H247.21ZM248.327 36.5696L249.4 33.267H249.469L250.542 36.5696H248.327ZM261.982 31.2727H260.145V36.7614H260.069L256.302 31.2727H254.682V40H256.528V34.5071H256.591L260.388 40H261.982V31.2727ZM263.174 32.794H265.846V40H267.67V32.794H270.342V31.2727H263.174V32.794Z" fill="#001540"/>
<rect x="340" width="150" height="70" rx="4" fill="#B6CEFF"/>
<path d="M395.782 34.0938H397.657C397.418 32.3679 395.897 31.1534 393.924 31.1534C391.618 31.1534 389.841 32.8153 389.841 35.6449C389.841 38.4062 391.503 40.1193 393.962 40.1193C396.165 40.1193 397.738 38.7259 397.738 36.429V35.3295H394.086V36.7188H395.961C395.935 37.8011 395.198 38.4872 393.971 38.4872C392.586 38.4872 391.712 37.4517 391.712 35.6278C391.712 33.8125 392.62 32.7855 393.954 32.7855C394.904 32.7855 395.547 33.2756 395.782 34.0938ZM400.358 40L401.006 38.0099H404.155L404.803 40H406.78L403.772 31.2727H401.394L398.381 40H400.358ZM401.475 36.5696L402.549 33.267H402.617L403.691 36.5696H401.475ZM407.831 40H409.676V36.9062H411.023L412.676 40H414.713L412.859 36.608C413.852 36.1818 414.402 35.3168 414.402 34.1236C414.402 32.3892 413.256 31.2727 411.274 31.2727H407.831V40ZM409.676 35.4233V32.7812H410.92C411.986 32.7812 412.501 33.2543 412.501 34.1236C412.501 34.9886 411.986 35.4233 410.929 35.4233H409.676ZM417.21 40L417.858 38.0099H421.007L421.655 40H423.632L420.623 31.2727H418.246L415.233 40H417.21ZM418.327 36.5696L419.4 33.267H419.469L420.542 36.5696H418.327ZM431.982 31.2727H430.145V36.7614H430.069L426.302 31.2727H424.682V40H426.528V34.5071H426.591L430.388 40H431.982V31.2727ZM433.174 32.794H435.846V40H437.67V32.794H440.342V31.2727H433.174V32.794Z" fill="#001540"/>
<rect x="510" y="80" width="150" height="70" rx="4" fill="#B6CEFF"/>
<path d="M539.147 120H542.876C544.836 120 545.88 118.977 545.88 117.588C545.88 116.297 544.955 115.517 543.963 115.47V115.385C544.87 115.18 545.539 114.537 545.539 113.51C545.539 112.202 544.568 111.273 542.642 111.273H539.147V120ZM540.992 118.491V116.173H542.539C543.426 116.173 543.975 116.685 543.975 117.405C543.975 118.061 543.528 118.491 542.497 118.491H540.992ZM540.992 114.925V112.764H542.394C543.213 112.764 543.677 113.186 543.677 113.817C543.677 114.507 543.115 114.925 542.36 114.925H540.992ZM547.081 120H552.979V118.479H548.926V116.395H552.659V114.874H548.926V112.794H552.961V111.273H547.081V120ZM560.215 114.094H562.09C561.852 112.368 560.33 111.153 558.357 111.153C556.052 111.153 554.275 112.815 554.275 115.645C554.275 118.406 555.937 120.119 558.396 120.119C560.599 120.119 562.171 118.726 562.171 116.429V115.33H558.519V116.719H560.394C560.369 117.801 559.632 118.487 558.404 118.487C557.019 118.487 556.146 117.452 556.146 115.628C556.146 113.812 557.053 112.786 558.387 112.786C559.338 112.786 559.981 113.276 560.215 114.094ZM568.948 111.273V116.783C568.948 117.78 568.249 118.5 567.175 118.5C566.106 118.5 565.403 117.78 565.403 116.783V111.273H563.557V116.94C563.557 118.849 564.998 120.124 567.175 120.124C569.344 120.124 570.793 118.849 570.793 116.94V111.273H568.948ZM565.876 110.378C566.37 110.378 566.762 109.982 566.762 109.509C566.762 109.027 566.37 108.643 565.876 108.643C565.385 108.643 564.981 109.027 564.981 109.509C564.981 109.982 565.385 110.378 565.876 110.378ZM568.483 110.378C568.978 110.378 569.37 109.982 569.37 109.509C569.37 109.027 568.978 108.643 568.483 108.643C567.993 108.643 567.589 109.027 567.589 109.509C567.589 109.982 567.993 110.378 568.483 110.378ZM579.611 111.273H577.774V116.761H577.698L573.931 111.273H572.311V120H574.156V114.507H574.22L578.017 120H579.611V111.273ZM585.87 113.783H587.638C587.613 112.227 586.334 111.153 584.391 111.153C582.478 111.153 581.076 112.21 581.084 113.795C581.08 115.082 581.988 115.82 583.462 116.173L584.412 116.412C585.363 116.642 585.891 116.915 585.895 117.503C585.891 118.142 585.286 118.577 584.349 118.577C583.39 118.577 582.699 118.134 582.64 117.26H580.854C580.901 119.148 582.252 120.124 584.37 120.124C586.501 120.124 587.753 119.105 587.758 117.507C587.753 116.054 586.658 115.283 585.141 114.942L584.357 114.754C583.599 114.58 582.964 114.298 582.976 113.672C582.976 113.109 583.475 112.696 584.378 112.696C585.26 112.696 585.802 113.097 585.87 113.783ZM588.666 112.794H591.338V120H593.162V112.794H595.834V111.273H588.666V112.794ZM598.86 111.273H597.014V120H598.86V111.273ZM606.165 114.094H608.04C607.801 112.368 606.28 111.153 604.307 111.153C602.001 111.153 600.224 112.815 600.224 115.645C600.224 118.406 601.886 120.119 604.345 120.119C606.548 120.119 608.121 118.726 608.121 116.429V115.33H604.469V116.719H606.344C606.318 117.801 605.581 118.487 604.354 118.487C602.969 118.487 602.095 117.452 602.095 115.628C602.095 113.812 603.003 112.786 604.336 112.786C605.287 112.786 605.93 113.276 606.165 114.094ZM608.799 112.794H611.471V120H613.295V112.794H615.967V111.273H608.799V112.794ZM617.147 120H623.045V118.479H618.992V116.395H622.725V114.874H618.992V112.794H623.028V111.273H617.147V120ZM624.495 120H626.34V116.906H627.687L629.34 120H631.377L629.523 116.608C630.516 116.182 631.066 115.317 631.066 114.124C631.066 112.389 629.92 111.273 627.938 111.273H624.495V120ZM626.34 115.423V112.781H627.584C628.65 112.781 629.165 113.254 629.165 114.124C629.165 114.989 628.65 115.423 627.593 115.423H626.34Z" fill="#001540"/>
<rect x="510" y="160" width="150" height="70" rx="4" fill="#B6CEFF"/>
<path d="M539.147 200H542.876C544.836 200 545.88 198.977 545.88 197.588C545.88 196.297 544.955 195.517 543.963 195.47V195.385C544.87 195.18 545.539 194.537 545.539 193.51C545.539 192.202 544.568 191.273 542.642 191.273H539.147V200ZM540.992 198.491V196.173H542.539C543.426 196.173 543.975 196.685 543.975 197.405C543.975 198.061 543.528 198.491 542.497 198.491H540.992ZM540.992 194.925V192.764H542.394C543.213 192.764 543.677 193.186 543.677 193.817C543.677 194.507 543.115 194.925 542.36 194.925H540.992ZM547.081 200H552.979V198.479H548.926V196.395H552.659V194.874H548.926V192.794H552.961V191.273H547.081V200ZM560.215 194.094H562.09C561.852 192.368 560.33 191.153 558.357 191.153C556.052 191.153 554.275 192.815 554.275 195.645C554.275 198.406 555.937 200.119 558.396 200.119C560.599 200.119 562.171 198.726 562.171 196.429V195.33H558.519V196.719H560.394C560.369 197.801 559.632 198.487 558.404 198.487C557.019 198.487 556.146 197.452 556.146 195.628C556.146 193.812 557.053 192.786 558.387 192.786C559.338 192.786 559.981 193.276 560.215 194.094ZM568.948 191.273V196.783C568.948 197.78 568.249 198.5 567.175 198.5C566.106 198.5 565.403 197.78 565.403 196.783V191.273H563.557V196.94C563.557 198.849 564.998 200.124 567.175 200.124C569.344 200.124 570.793 198.849 570.793 196.94V191.273H568.948ZM565.876 190.378C566.37 190.378 566.762 189.982 566.762 189.509C566.762 189.027 566.37 188.643 565.876 188.643C565.385 188.643 564.981 189.027 564.981 189.509C564.981 189.982 565.385 190.378 565.876 190.378ZM568.483 190.378C568.978 190.378 569.37 189.982 569.37 189.509C569.37 189.027 568.978 188.643 568.483 188.643C567.993 188.643 567.589 189.027 567.589 189.509C567.589 189.982 567.993 190.378 568.483 190.378ZM579.611 191.273H577.774V196.761H577.698L573.931 191.273H572.311V200H574.156V194.507H574.22L578.017 200H579.611V191.273ZM585.87 193.783H587.638C587.613 192.227 586.334 191.153 584.391 191.153C582.478 191.153 581.076 192.21 581.084 193.795C581.08 195.082 581.988 195.82 583.462 196.173L584.412 196.412C585.363 196.642 585.891 196.915 585.895 197.503C585.891 198.142 585.286 198.577 584.349 198.577C583.39 198.577 582.699 198.134 582.64 197.26H580.854C580.901 199.148 582.252 200.124 584.37 200.124C586.501 200.124 587.753 199.105 587.758 197.507C587.753 196.054 586.658 195.283 585.141 194.942L584.357 194.754C583.599 194.58 582.964 194.298 582.976 193.672C582.976 193.109 583.475 192.696 584.378 192.696C585.26 192.696 585.802 193.097 585.87 193.783ZM588.666 192.794H591.338V200H593.162V192.794H595.834V191.273H588.666V192.794ZM598.86 191.273H597.014V200H598.86V191.273ZM606.165 194.094H608.04C607.801 192.368 606.28 191.153 604.307 191.153C602.001 191.153 600.224 192.815 600.224 195.645C600.224 198.406 601.886 200.119 604.345 200.119C606.548 200.119 608.121 198.726 608.121 196.429V195.33H604.469V196.719H606.344C606.318 197.801 605.581 198.487 604.354 198.487C602.969 198.487 602.095 197.452 602.095 195.628C602.095 193.812 603.003 192.786 604.336 192.786C605.287 192.786 605.93 193.276 606.165 194.094ZM608.799 192.794H611.471V200H613.295V192.794H615.967V191.273H608.799V192.794ZM617.147 200H623.045V198.479H618.992V196.395H622.725V194.874H618.992V192.794H623.028V191.273H617.147V200ZM624.495 200H626.34V196.906H627.687L629.34 200H631.377L629.523 196.608C630.516 196.182 631.066 195.317 631.066 194.124C631.066 192.389 629.92 191.273 627.938 191.273H624.495V200ZM626.34 195.423V192.781H627.584C628.65 192.781 629.165 193.254 629.165 194.124C629.165 194.989 628.65 195.423 627.593 195.423H626.34Z" fill="#001540"/>
<rect x="510" y="240" width="150" height="70" rx="4" fill="#B6CEFF"/>
<path d="M539.147 280H542.876C544.836 280 545.88 278.977 545.88 277.588C545.88 276.297 544.955 275.517 543.963 275.47V275.385C544.87 275.18 545.539 274.537 545.539 273.51C545.539 272.202 544.568 271.273 542.642 271.273H539.147V280ZM540.992 278.491V276.173H542.539C543.426 276.173 543.975 276.685 543.975 277.405C543.975 278.061 543.528 278.491 542.497 278.491H540.992ZM540.992 274.925V272.764H542.394C543.213 272.764 543.677 273.186 543.677 273.817C543.677 274.507 543.115 274.925 542.36 274.925H540.992ZM547.081 280H552.979V278.479H548.926V276.395H552.659V274.874H548.926V272.794H552.961V271.273H547.081V280ZM560.215 274.094H562.09C561.852 272.368 560.33 271.153 558.357 271.153C556.052 271.153 554.275 272.815 554.275 275.645C554.275 278.406 555.937 280.119 558.396 280.119C560.599 280.119 562.171 278.726 562.171 276.429V275.33H558.519V276.719H560.394C560.369 277.801 559.632 278.487 558.404 278.487C557.019 278.487 556.146 277.452 556.146 275.628C556.146 273.812 557.053 272.786 558.387 272.786C559.338 272.786 559.981 273.276 560.215 274.094ZM568.948 271.273V276.783C568.948 277.78 568.249 278.5 567.175 278.5C566.106 278.5 565.403 277.78 565.403 276.783V271.273H563.557V276.94C563.557 278.849 564.998 280.124 567.175 280.124C569.344 280.124 570.793 278.849 570.793 276.94V271.273H568.948ZM565.876 270.378C566.37 270.378 566.762 269.982 566.762 269.509C566.762 269.027 566.37 268.643 565.876 268.643C565.385 268.643 564.981 269.027 564.981 269.509C564.981 269.982 565.385 270.378 565.876 270.378ZM568.483 270.378C568.978 270.378 569.37 269.982 569.37 269.509C569.37 269.027 568.978 268.643 568.483 268.643C567.993 268.643 567.589 269.027 567.589 269.509C567.589 269.982 567.993 270.378 568.483 270.378ZM579.611 271.273H577.774V276.761H577.698L573.931 271.273H572.311V280H574.156V274.507H574.22L578.017 280H579.611V271.273ZM585.87 273.783H587.638C587.613 272.227 586.334 271.153 584.391 271.153C582.478 271.153 581.076 272.21 581.084 273.795C581.08 275.082 581.988 275.82 583.462 276.173L584.412 276.412C585.363 276.642 585.891 276.915 585.895 277.503C585.891 278.142 585.286 278.577 584.349 278.577C583.39 278.577 582.699 278.134 582.64 277.26H580.854C580.901 279.148 582.252 280.124 584.37 280.124C586.501 280.124 587.753 279.105 587.758 277.507C587.753 276.054 586.658 275.283 585.141 274.942L584.357 274.754C583.599 274.58 582.964 274.298 582.976 273.672C582.976 273.109 583.475 272.696 584.378 272.696C585.26 272.696 585.802 273.097 585.87 273.783ZM588.666 272.794H591.338V280H593.162V272.794H595.834V271.273H588.666V272.794ZM598.86 271.273H597.014V280H598.86V271.273ZM606.165 274.094H608.04C607.801 272.368 606.28 271.153 604.307 271.153C602.001 271.153 600.224 272.815 600.224 275.645C600.224 278.406 601.886 280.119 604.345 280.119C606.548 280.119 608.121 278.726 608.121 276.429V275.33H604.469V276.719H606.344C606.318 277.801 605.581 278.487 604.354 278.487C602.969 278.487 602.095 277.452 602.095 275.628C602.095 273.812 603.003 272.786 604.336 272.786C605.287 272.786 605.93 273.276 606.165 274.094ZM608.799 272.794H611.471V280H613.295V272.794H615.967V271.273H608.799V272.794ZM617.147 280H623.045V278.479H618.992V276.395H622.725V274.874H618.992V272.794H623.028V271.273H617.147V280ZM624.495 280H626.34V276.906H627.687L629.34 280H631.377L629.523 276.608C630.516 276.182 631.066 275.317 631.066 274.124C631.066 272.389 629.92 271.273 627.938 271.273H624.495V280ZM626.34 275.423V272.781H627.584C628.65 272.781 629.165 273.254 629.165 274.124C629.165 274.989 628.65 275.423 627.593 275.423H626.34Z" fill="#001540"/>
<rect x="340" y="320" width="150" height="70" rx="4" fill="#B6CEFF"/>
<path d="M395.782 354.094H397.657C397.418 352.368 395.897 351.153 393.924 351.153C391.618 351.153 389.841 352.815 389.841 355.645C389.841 358.406 391.503 360.119 393.962 360.119C396.165 360.119 397.738 358.726 397.738 356.429V355.33H394.086V356.719H395.961C395.935 357.801 395.198 358.487 393.971 358.487C392.586 358.487 391.712 357.452 391.712 355.628C391.712 353.812 392.62 352.786 393.954 352.786C394.904 352.786 395.547 353.276 395.782 354.094ZM400.358 360L401.006 358.01H404.155L404.803 360H406.78L403.772 351.273H401.394L398.381 360H400.358ZM401.475 356.57L402.549 353.267H402.617L403.691 356.57H401.475ZM407.831 360H409.676V356.906H411.023L412.676 360H414.713L412.859 356.608C413.852 356.182 414.402 355.317 414.402 354.124C414.402 352.389 413.256 351.273 411.274 351.273H407.831V360ZM409.676 355.423V352.781H410.92C411.986 352.781 412.501 353.254 412.501 354.124C412.501 354.989 411.986 355.423 410.929 355.423H409.676ZM417.21 360L417.858 358.01H421.007L421.655 360H423.632L420.623 351.273H418.246L415.233 360H417.21ZM418.327 356.57L419.4 353.267H419.469L420.542 356.57H418.327ZM431.982 351.273H430.145V356.761H430.069L426.302 351.273H424.682V360H426.528V354.507H426.591L430.388 360H431.982V351.273ZM433.174 352.794H435.846V360H437.67V352.794H440.342V351.273H433.174V352.794Z" fill="#001540"/>
<rect x="170" y="320" width="150" height="70" rx="4" fill="#B6CEFF"/>
<path d="M225.782 354.094H227.657C227.418 352.368 225.897 351.153 223.924 351.153C221.618 351.153 219.841 352.815 219.841 355.645C219.841 358.406 221.503 360.119 223.962 360.119C226.165 360.119 227.738 358.726 227.738 356.429V355.33H224.086V356.719H225.961C225.935 357.801 225.198 358.487 223.971 358.487C222.586 358.487 221.712 357.452 221.712 355.628C221.712 353.812 222.62 352.786 223.954 352.786C224.904 352.786 225.547 353.276 225.782 354.094ZM230.358 360L231.006 358.01H234.155L234.803 360H236.78L233.772 351.273H231.394L228.381 360H230.358ZM231.475 356.57L232.549 353.267H232.617L233.691 356.57H231.475ZM237.831 360H239.676V356.906H241.023L242.676 360H244.713L242.859 356.608C243.852 356.182 244.402 355.317 244.402 354.124C244.402 352.389 243.256 351.273 241.274 351.273H237.831V360ZM239.676 355.423V352.781H240.92C241.986 352.781 242.501 353.254 242.501 354.124C242.501 354.989 241.986 355.423 240.929 355.423H239.676ZM247.21 360L247.858 358.01H251.007L251.655 360H253.632L250.623 351.273H248.246L245.233 360H247.21ZM248.327 356.57L249.4 353.267H249.469L250.542 356.57H248.327ZM261.982 351.273H260.145V356.761H260.069L256.302 351.273H254.682V360H256.528V354.507H256.591L260.388 360H261.982V351.273ZM263.174 352.794H265.846V360H267.67V352.794H270.342V351.273H263.174V352.794Z" fill="#001540"/>
<rect y="240" width="150" height="70" rx="4" fill="#B6CEFF"/>
<path d="M28.2784 280L28.9261 278.01H32.0753L32.723 280H34.7003L31.6918 271.273H29.3139L26.3011 280H28.2784ZM29.3949 276.57L30.4688 273.267H30.5369L31.6108 276.57H29.3949ZM41.1413 271.273V276.783C41.1413 277.78 40.4425 278.5 39.3686 278.5C38.299 278.5 37.5959 277.78 37.5959 276.783V271.273H35.7507V276.94C35.7507 278.849 37.1911 280.124 39.3686 280.124C41.5376 280.124 42.9865 278.849 42.9865 276.94V271.273H41.1413ZM44.5046 280H46.3498V276.395H49.8995V274.874H46.3498V272.794H50.283V271.273H44.5046V280ZM51.1918 272.794H53.8636V280H55.6875V272.794H58.3594V271.273H51.1918V272.794ZM59.5398 280H61.3849V276.906H62.7315L64.3849 280H66.4219L64.5682 276.608C65.5611 276.182 66.1108 275.317 66.1108 274.124C66.1108 272.389 64.9645 271.273 62.983 271.273H59.5398V280ZM61.3849 275.423V272.781H62.6293C63.6946 272.781 64.2102 273.254 64.2102 274.124C64.2102 274.989 63.6946 275.423 62.6378 275.423H61.3849ZM68.919 280L69.5668 278.01H72.7159L73.3636 280H75.3409L72.3324 271.273H69.9545L66.9418 280H68.919ZM70.0355 276.57L71.1094 273.267H71.1776L72.2514 276.57H70.0355ZM81.7681 274.094H83.6431C83.4045 272.368 81.8832 271.153 79.9102 271.153C77.6048 271.153 75.8278 272.815 75.8278 275.645C75.8278 278.406 77.4897 280.119 79.9485 280.119C82.1516 280.119 83.7241 278.726 83.7241 276.429V275.33H80.0721V276.719H81.9471C81.9215 277.801 81.1843 278.487 79.957 278.487C78.5721 278.487 77.6985 277.452 77.6985 275.628C77.6985 273.812 78.6062 272.786 79.94 272.786C80.8903 272.786 81.5337 273.276 81.7681 274.094ZM90.897 274.094H92.772C92.5334 272.368 91.0121 271.153 89.0391 271.153C86.7337 271.153 84.9567 272.815 84.9567 275.645C84.9567 278.406 86.6186 280.119 89.0774 280.119C91.2805 280.119 92.853 278.726 92.853 276.429V275.33H89.201V276.719H91.076C91.0504 277.801 90.3132 278.487 89.0859 278.487C87.701 278.487 86.8274 277.452 86.8274 275.628C86.8274 273.812 87.7351 272.786 89.0689 272.786C90.0192 272.786 90.6626 273.276 90.897 274.094ZM94.239 280H100.137V278.479H96.0842V276.395H99.8171V274.874H96.0842V272.794H100.12V271.273H94.239V280ZM101.587 280H105.315C107.276 280 108.32 278.977 108.32 277.588C108.32 276.297 107.395 275.517 106.402 275.47V275.385C107.31 275.18 107.979 274.537 107.979 273.51C107.979 272.202 107.007 271.273 105.081 271.273H101.587V280ZM103.432 278.491V276.173H104.979C105.865 276.173 106.415 276.685 106.415 277.405C106.415 278.061 105.967 278.491 104.936 278.491H103.432ZM103.432 274.925V272.764H104.834C105.652 272.764 106.116 273.186 106.116 273.817C106.116 274.507 105.554 274.925 104.8 274.925H103.432ZM109.52 280H115.418V278.479H111.365V276.395H115.098V274.874H111.365V272.794H115.401V271.273H109.52V280ZM116.868 280H118.713V276.906H120.06L121.713 280H123.75L121.896 276.608C122.889 276.182 123.439 275.317 123.439 274.124C123.439 272.389 122.293 271.273 120.311 271.273H116.868V280ZM118.713 275.423V272.781H119.957C121.023 272.781 121.538 273.254 121.538 274.124C121.538 274.989 121.023 275.423 119.966 275.423H118.713Z" fill="#001540"/>
<rect y="160" width="150" height="70" rx="4" fill="#B6CEFF"/>
<path d="M28.2784 200L28.9261 198.01H32.0753L32.723 200H34.7003L31.6918 191.273H29.3139L26.3011 200H28.2784ZM29.3949 196.57L30.4688 193.267H30.5369L31.6108 196.57H29.3949ZM41.1413 191.273V196.783C41.1413 197.78 40.4425 198.5 39.3686 198.5C38.299 198.5 37.5959 197.78 37.5959 196.783V191.273H35.7507V196.94C35.7507 198.849 37.1911 200.124 39.3686 200.124C41.5376 200.124 42.9865 198.849 42.9865 196.94V191.273H41.1413ZM44.5046 200H46.3498V196.395H49.8995V194.874H46.3498V192.794H50.283V191.273H44.5046V200ZM51.1918 192.794H53.8636V200H55.6875V192.794H58.3594V191.273H51.1918V192.794ZM59.5398 200H61.3849V196.906H62.7315L64.3849 200H66.4219L64.5682 196.608C65.5611 196.182 66.1108 195.317 66.1108 194.124C66.1108 192.389 64.9645 191.273 62.983 191.273H59.5398V200ZM61.3849 195.423V192.781H62.6293C63.6946 192.781 64.2102 193.254 64.2102 194.124C64.2102 194.989 63.6946 195.423 62.6378 195.423H61.3849ZM68.919 200L69.5668 198.01H72.7159L73.3636 200H75.3409L72.3324 191.273H69.9545L66.9418 200H68.919ZM70.0355 196.57L71.1094 193.267H71.1776L72.2514 196.57H70.0355ZM81.7681 194.094H83.6431C83.4045 192.368 81.8832 191.153 79.9102 191.153C77.6048 191.153 75.8278 192.815 75.8278 195.645C75.8278 198.406 77.4897 200.119 79.9485 200.119C82.1516 200.119 83.7241 198.726 83.7241 196.429V195.33H80.0721V196.719H81.9471C81.9215 197.801 81.1843 198.487 79.957 198.487C78.5721 198.487 77.6985 197.452 77.6985 195.628C77.6985 193.812 78.6062 192.786 79.94 192.786C80.8903 192.786 81.5337 193.276 81.7681 194.094ZM90.897 194.094H92.772C92.5334 192.368 91.0121 191.153 89.0391 191.153C86.7337 191.153 84.9567 192.815 84.9567 195.645C84.9567 198.406 86.6186 200.119 89.0774 200.119C91.2805 200.119 92.853 198.726 92.853 196.429V195.33H89.201V196.719H91.076C91.0504 197.801 90.3132 198.487 89.0859 198.487C87.701 198.487 86.8274 197.452 86.8274 195.628C86.8274 193.812 87.7351 192.786 89.0689 192.786C90.0192 192.786 90.6626 193.276 90.897 194.094ZM94.239 200H100.137V198.479H96.0842V196.395H99.8171V194.874H96.0842V192.794H100.12V191.273H94.239V200ZM101.587 200H105.315C107.276 200 108.32 198.977 108.32 197.588C108.32 196.297 107.395 195.517 106.402 195.47V195.385C107.31 195.18 107.979 194.537 107.979 193.51C107.979 192.202 107.007 191.273 105.081 191.273H101.587V200ZM103.432 198.491V196.173H104.979C105.865 196.173 106.415 196.685 106.415 197.405C106.415 198.061 105.967 198.491 104.936 198.491H103.432ZM103.432 194.925V192.764H104.834C105.652 192.764 106.116 193.186 106.116 193.817C106.116 194.507 105.554 194.925 104.8 194.925H103.432ZM109.52 200H115.418V198.479H111.365V196.395H115.098V194.874H111.365V192.794H115.401V191.273H109.52V200ZM116.868 200H118.713V196.906H120.06L121.713 200H123.75L121.896 196.608C122.889 196.182 123.439 195.317 123.439 194.124C123.439 192.389 122.293 191.273 120.311 191.273H116.868V200ZM118.713 195.423V192.781H119.957C121.023 192.781 121.538 193.254 121.538 194.124C121.538 194.989 121.023 195.423 119.966 195.423H118.713Z" fill="#001540"/>
<rect y="80" width="150" height="70" rx="4" fill="#B6CEFF"/>
<path d="M28.2784 120L28.9261 118.01H32.0753L32.723 120H34.7003L31.6918 111.273H29.3139L26.3011 120H28.2784ZM29.3949 116.57L30.4688 113.267H30.5369L31.6108 116.57H29.3949ZM41.1413 111.273V116.783C41.1413 117.78 40.4425 118.5 39.3686 118.5C38.299 118.5 37.5959 117.78 37.5959 116.783V111.273H35.7507V116.94C35.7507 118.849 37.1911 120.124 39.3686 120.124C41.5376 120.124 42.9865 118.849 42.9865 116.94V111.273H41.1413ZM44.5046 120H46.3498V116.395H49.8995V114.874H46.3498V112.794H50.283V111.273H44.5046V120ZM51.1918 112.794H53.8636V120H55.6875V112.794H58.3594V111.273H51.1918V112.794ZM59.5398 120H61.3849V116.906H62.7315L64.3849 120H66.4219L64.5682 116.608C65.5611 116.182 66.1108 115.317 66.1108 114.124C66.1108 112.389 64.9645 111.273 62.983 111.273H59.5398V120ZM61.3849 115.423V112.781H62.6293C63.6946 112.781 64.2102 113.254 64.2102 114.124C64.2102 114.989 63.6946 115.423 62.6378 115.423H61.3849ZM68.919 120L69.5668 118.01H72.7159L73.3636 120H75.3409L72.3324 111.273H69.9545L66.9418 120H68.919ZM70.0355 116.57L71.1094 113.267H71.1776L72.2514 116.57H70.0355ZM81.7681 114.094H83.6431C83.4045 112.368 81.8832 111.153 79.9102 111.153C77.6048 111.153 75.8278 112.815 75.8278 115.645C75.8278 118.406 77.4897 120.119 79.9485 120.119C82.1516 120.119 83.7241 118.726 83.7241 116.429V115.33H80.0721V116.719H81.9471C81.9215 117.801 81.1843 118.487 79.957 118.487C78.5721 118.487 77.6985 117.452 77.6985 115.628C77.6985 113.812 78.6062 112.786 79.94 112.786C80.8903 112.786 81.5337 113.276 81.7681 114.094ZM90.897 114.094H92.772C92.5334 112.368 91.0121 111.153 89.0391 111.153C86.7337 111.153 84.9567 112.815 84.9567 115.645C84.9567 118.406 86.6186 120.119 89.0774 120.119C91.2805 120.119 92.853 118.726 92.853 116.429V115.33H89.201V116.719H91.076C91.0504 117.801 90.3132 118.487 89.0859 118.487C87.701 118.487 86.8274 117.452 86.8274 115.628C86.8274 113.812 87.7351 112.786 89.0689 112.786C90.0192 112.786 90.6626 113.276 90.897 114.094ZM94.239 120H100.137V118.479H96.0842V116.395H99.8171V114.874H96.0842V112.794H100.12V111.273H94.239V120ZM101.587 120H105.315C107.276 120 108.32 118.977 108.32 117.588C108.32 116.297 107.395 115.517 106.402 115.47V115.385C107.31 115.18 107.979 114.537 107.979 113.51C107.979 112.202 107.007 111.273 105.081 111.273H101.587V120ZM103.432 118.491V116.173H104.979C105.865 116.173 106.415 116.685 106.415 117.405C106.415 118.061 105.967 118.491 104.936 118.491H103.432ZM103.432 114.925V112.764H104.834C105.652 112.764 106.116 113.186 106.116 113.817C106.116 114.507 105.554 114.925 104.8 114.925H103.432ZM109.52 120H115.418V118.479H111.365V116.395H115.098V114.874H111.365V112.794H115.401V111.273H109.52V120ZM116.868 120H118.713V116.906H120.06L121.713 120H123.75L121.896 116.608C122.889 116.182 123.439 115.317 123.439 114.124C123.439 112.389 122.293 111.273 120.311 111.273H116.868V120ZM118.713 115.423V112.781H119.957C121.023 112.781 121.538 113.254 121.538 114.124C121.538 114.989 121.023 115.423 119.966 115.423H118.713Z" fill="#001540"/>
<line x1="150" y1="114.5" x2="180" y2="114.5" stroke="black"/>
<line y1="-0.5" x2="30" y2="-0.5" transform="matrix(-1 0 0 1 510 115)" stroke="black"/>
<line x1="414.5" y1="320" x2="414.5" y2="290" stroke="black"/>
<line y1="-0.5" x2="30" y2="-0.5" transform="matrix(1.54476e-09 1 1 -1.54476e-09 415 70)" stroke="black"/>
<line x1="150" y1="194.5" x2="245" y2="194.5" stroke="black"/>
<line x1="329.5" y1="225" x2="329.5" y2="291" stroke="black"/>
<line x1="329.5" y1="100" x2="329.5" y2="166" stroke="black"/>
<line x1="510" y1="195.5" x2="415" y2="195.5" stroke="black"/>
<line x1="150" y1="275.5" x2="180" y2="275.5" stroke="black"/>
<line y1="-0.5" x2="30" y2="-0.5" transform="matrix(-1 0 0 1 510 276)" stroke="black"/>
<line y1="-0.5" x2="30" y2="-0.5" transform="matrix(4.37114e-08 -1 -1 -4.37114e-08 245 320)" stroke="black"/>
<line x1="245.5" y1="70" x2="245.5" y2="100" stroke="black"/>
<line x1="179.5" y1="114" x2="179.5" y2="275" stroke="black"/>
<line y1="-0.5" x2="161" y2="-0.5" transform="matrix(4.37114e-08 1 1 -4.37114e-08 481 114)" stroke="black"/>
<line x1="415" y1="290.5" x2="246" y2="290.5" stroke="black"/>
<line y1="-0.5" x2="169" y2="-0.5" transform="matrix(-1 0 0 1 415 100)" stroke="black"/>
<rect x="244" y="153" width="171" height="84" rx="4" fill="#001540"/>
<path d="M394.836 191.87C394.836 191.805 394.836 191.74 394.836 191.653C394.858 190.09 394.082 188.939 392.51 188.461C391.326 188.092 390.055 187.81 388.806 187.766C385.295 187.658 381.784 187.701 378.273 187.658C377.52 187.636 376.744 187.527 376.012 187.354C375.624 187.267 375.215 186.984 375 186.68C374.16 185.377 374.935 183.597 376.529 183.271C377.671 183.054 378.833 182.923 379.997 182.923C384.11 182.88 388.246 182.902 392.359 182.88C392.661 182.88 393.049 182.793 393.221 182.619C393.609 182.163 393.889 181.599 394.233 181.034H378.209C377.132 181.034 376.033 181.143 374.957 181.316C371.812 181.773 370.412 183.64 370.907 186.528C371.145 187.896 371.963 188.83 373.406 189.134C374.547 189.373 375.711 189.547 376.873 189.569C380.169 189.634 383.486 189.59 386.781 189.655C387.664 189.677 388.569 189.786 389.409 190.003C390.572 190.307 390.959 191.11 390.916 192.609C390.873 193.738 390.421 194.368 389.301 194.628C388.461 194.824 387.599 194.911 386.738 194.911C381.87 194.932 377.024 194.932 372.157 194.932C371.92 194.932 371.554 194.932 371.467 195.063C371.037 195.627 370.692 196.235 370.283 196.909H386.544C387.686 196.909 388.827 196.887 389.969 196.756C392.876 196.453 395.116 195.562 394.836 191.87Z" fill="white"/>
<path d="M351.783 196.91L357.9 196.932C358.761 196.932 359.558 196.454 359.967 195.694C362.466 191.025 367.075 182.295 367.743 181.014C366.299 181.014 367.247 180.971 365.977 181.036C365.697 181.058 365.352 181.362 365.179 181.622C362.53 186.291 361.691 187.681 359.063 192.35C358.546 193.262 358.029 194.196 357.491 195.151C357.232 195.586 356.78 195.868 356.263 195.868H355.617C355.121 195.868 354.647 195.586 354.389 195.151C353.851 194.196 353.334 193.284 352.817 192.35C350.189 187.659 349.263 186.291 346.614 181.622C346.463 181.362 346.097 181.058 345.817 181.036C344.568 180.971 343.297 181.014 341.854 181.014C342.543 182.295 347.217 191.025 349.694 195.673C350.125 196.433 350.921 196.91 351.783 196.91Z" fill="white"/>
<path d="M331.858 181.1H312L313.68 183.076L330.092 183.336C332.633 183.38 334.679 185.465 334.679 188.027L334.701 190.134C334.701 192.718 332.655 194.824 330.07 194.846L317.901 194.998C317.729 194.998 317.6 194.868 317.6 194.694V187.701L313.658 183.054V196.431C313.658 196.692 313.874 196.931 314.154 196.931H331.837C335.885 196.931 339.181 193.608 339.181 189.525V188.483C339.181 184.4 335.907 181.1 331.858 181.1Z" fill="white"/>
<path d="M317.525 206.963C317.347 207.197 317.1 207.374 316.785 207.494C316.469 207.614 316.111 207.674 315.71 207.674C315.297 207.674 314.932 207.58 314.615 207.392C314.297 207.203 314.051 206.935 313.878 206.586C313.707 206.234 313.617 205.825 313.611 205.358V204.97C313.611 204.222 313.789 203.638 314.145 203.219C314.501 202.797 314.998 202.586 315.635 202.586C316.183 202.586 316.618 202.722 316.94 202.994C317.263 203.266 317.456 203.658 317.522 204.171H316.683C316.589 203.574 316.245 203.276 315.652 203.276C315.269 203.276 314.977 203.416 314.777 203.695C314.579 203.971 314.476 204.378 314.469 204.916V205.296C314.469 205.832 314.581 206.248 314.804 206.545C315.029 206.84 315.341 206.987 315.74 206.987C316.177 206.987 316.488 206.887 316.673 206.688V205.718H315.659V205.065H317.525V206.963Z" fill="white"/>
<path d="M323.449 202.654V205.963C323.449 206.489 323.281 206.907 322.945 207.215C322.612 207.521 322.167 207.674 321.61 207.674C321.047 207.674 320.599 207.523 320.268 207.222C319.937 206.918 319.771 206.497 319.771 205.96V202.654H320.623V205.967C320.623 206.298 320.706 206.551 320.873 206.725C321.04 206.9 321.286 206.987 321.61 206.987C322.268 206.987 322.597 206.638 322.597 205.94V202.654H323.449Z" fill="white"/>
<path d="M328.43 206.453H326.524L326.125 207.606H325.236L327.095 202.654H327.862L329.725 207.606H328.832L328.43 206.453ZM326.764 205.759H328.19L327.477 203.705L326.764 205.759Z" fill="white"/>
<path d="M333.478 205.698H332.525V207.606H331.67V202.654H333.401C333.969 202.654 334.407 202.782 334.716 203.039C335.024 203.295 335.179 203.666 335.179 204.151C335.179 204.482 335.099 204.76 334.939 204.984C334.781 205.206 334.56 205.377 334.276 205.497L335.382 207.562V207.606H334.465L333.478 205.698ZM332.525 205.008H333.404C333.693 205.008 333.918 204.935 334.08 204.79C334.242 204.643 334.323 204.442 334.323 204.188C334.323 203.923 334.248 203.718 334.097 203.572C333.948 203.428 333.725 203.353 333.428 203.348H332.525V205.008Z" fill="white"/>
<path d="M340.129 206.453H338.223L337.824 207.606H336.935L338.794 202.654H339.562L341.424 207.606H340.532L340.129 206.453ZM338.463 205.759H339.889L339.176 203.705L338.463 205.759Z" fill="white"/>
<path d="M347.273 207.606H346.418L344.224 204.093V207.606H343.369V202.654H344.224L346.425 206.181V202.654H347.273V207.606Z" fill="white"/>
<path d="M353.123 203.348H351.589V207.606H350.74V203.348H349.219V202.654H353.123V203.348Z" fill="white"/>
<path d="M358.033 205.395H356.012V206.919H358.375V207.606H355.157V202.654H358.351V203.348H356.012V204.715H358.033V205.395Z" fill="white"/>
<path d="M363.332 205.395H361.31V206.919H363.673V207.606H360.455V202.654H363.649V203.348H361.31V204.715H363.332V205.395Z" fill="white"/>
<path d="M370.596 206.528L371.847 202.654H372.787L371.015 207.606H370.187L368.423 202.654H369.359L370.596 206.528Z" fill="white"/>
<path d="M377.227 206.453H375.32L374.921 207.606H374.032L375.892 202.654H376.659L378.521 207.606H377.629L377.227 206.453ZM375.56 205.759H376.987L376.274 203.705L375.56 205.759Z" fill="white"/>
<path d="M384.006 202.654V205.963C384.006 206.489 383.838 206.907 383.502 207.215C383.169 207.521 382.724 207.674 382.167 207.674C381.604 207.674 381.157 207.523 380.825 207.222C380.494 206.918 380.328 206.497 380.328 205.96V202.654H381.18V205.967C381.18 206.298 381.264 206.551 381.431 206.725C381.597 206.9 381.843 206.987 382.167 206.987C382.826 206.987 383.154 206.638 383.154 205.94V202.654H384.006Z" fill="white"/>
<path d="M387.162 206.919H389.396V207.606H386.307V202.654H387.162V206.919Z" fill="white"/>
<path d="M394.296 203.348H392.762V207.606H391.913V203.348H390.392V202.654H394.296V203.348Z" fill="white"/>
<path d="M301.867 190.826C301.991 189.63 301.908 188.434 301.619 187.281C301.289 185.936 300.649 184.676 299.823 183.609C298.976 182.541 297.902 181.644 296.725 181.025C296.126 180.726 295.507 180.47 294.846 180.299C294.206 180.128 293.546 180.043 292.884 180H292.637H292.389H291.914L290.964 180.021L289.065 180.064L287.165 180.107L285.265 180.149C282.725 180.214 280.186 180.299 277.646 180.406C280.186 180.534 282.725 180.598 285.265 180.662L287.165 180.705L289.065 180.747L290.964 180.79L291.914 180.811H292.389H292.616L292.843 180.833C294.062 180.918 295.239 181.26 296.312 181.836C296.849 182.135 297.345 182.477 297.82 182.883C298.295 183.288 298.708 183.737 299.079 184.206C299.575 184.868 299.988 185.594 300.298 186.363C300.174 186.171 300.05 186 299.905 185.808C299.492 185.274 299.038 184.804 298.542 184.356C298.047 183.929 297.489 183.544 296.911 183.224C296.333 182.904 295.734 182.669 295.094 182.477C294.475 182.285 293.834 182.178 293.174 182.135C293.009 182.114 292.843 182.114 292.699 182.114C292.616 182.114 292.534 182.114 292.451 182.114C292.368 182.114 292.286 182.114 292.224 182.114L291.295 182.135C290.056 182.157 288.817 182.199 287.578 182.221C286.339 182.263 285.1 182.306 283.861 182.349L282.003 182.434C281.693 182.455 281.383 182.455 281.074 182.477C280.764 182.498 280.454 182.498 280.144 182.52C280.454 182.541 280.764 182.562 281.074 182.562C281.383 182.584 281.693 182.605 282.003 182.605L283.861 182.69C285.1 182.733 286.339 182.776 287.578 182.819C288.817 182.861 290.056 182.883 291.295 182.904L292.224 182.925H292.451C292.534 182.925 292.596 182.925 292.678 182.925C292.823 182.925 292.967 182.947 293.112 182.968C293.71 183.032 294.289 183.16 294.846 183.331C295.982 183.694 297.014 184.292 297.923 185.082C298.811 185.872 299.554 186.854 300.07 187.943C300.153 188.114 300.236 188.306 300.298 188.477C300.112 188.178 299.905 187.9 299.678 187.644C298.832 186.619 297.778 185.786 296.602 185.189C296.023 184.89 295.404 184.676 294.764 184.505C294.124 184.356 293.483 184.27 292.843 184.249C292.678 184.249 292.513 184.249 292.368 184.249H291.894L290.964 184.27L289.106 184.313L287.248 184.377L285.389 184.441C284.15 184.484 282.911 184.548 281.672 184.633C282.911 184.719 284.15 184.762 285.389 184.826L287.248 184.89L289.106 184.954L290.964 184.996L291.894 185.018H292.368C292.513 185.018 292.657 185.018 292.823 185.039C294 185.103 295.177 185.445 296.209 186C298.068 186.961 299.533 188.626 300.318 190.612C300.153 190.377 299.988 190.121 299.802 189.907C299.389 189.395 298.914 188.904 298.398 188.498C297.882 188.071 297.345 187.708 296.746 187.409C296.168 187.11 295.548 186.875 294.929 186.705C294.309 186.534 293.649 186.427 293.009 186.406C292.926 186.406 292.843 186.406 292.761 186.406C292.678 186.406 292.596 186.406 292.513 186.406H292.389H292.265H292.038L291.109 186.427C289.87 186.47 288.631 186.512 287.392 186.576C286.772 186.598 286.153 186.641 285.534 186.683C284.914 186.726 284.295 186.769 283.675 186.811C284.295 186.854 284.914 186.897 285.534 186.939C286.153 186.982 286.772 187.004 287.392 187.046C288.631 187.11 289.87 187.153 291.109 187.196L292.038 187.217L292.492 187.238C292.575 187.238 292.637 187.238 292.72 187.238C292.802 187.238 292.864 187.238 292.947 187.26C293.546 187.302 294.123 187.431 294.681 187.58C295.817 187.922 296.87 188.498 297.778 189.288C298.233 189.673 298.646 190.121 299.017 190.591C299.389 191.06 299.699 191.573 299.967 192.107C300.07 192.32 300.174 192.555 300.277 192.79C300.05 192.448 299.802 192.128 299.533 191.808C298.666 190.804 297.593 189.972 296.416 189.416C295.817 189.139 295.197 188.925 294.578 188.776C293.938 188.626 293.297 188.562 292.657 188.541H292.41H292.183L291.708 188.562C291.398 188.584 291.088 188.584 290.778 188.605L289.849 188.648L288.92 188.69C287.681 188.754 286.442 188.84 285.203 188.947C286.442 189.075 287.681 189.139 288.92 189.203L289.849 189.246L290.778 189.288C291.088 189.31 291.398 189.31 291.708 189.331L292.183 189.352L292.637 189.374C293.236 189.395 293.814 189.48 294.392 189.63C294.97 189.779 295.528 189.993 296.044 190.249C296.581 190.505 297.076 190.826 297.551 191.21C298.026 191.573 298.439 192 298.832 192.448C299.224 192.918 299.575 193.431 299.864 193.986C299.823 194.05 299.802 194.114 299.761 194.178C299.141 193.409 298.419 192.747 297.634 192.213C296.519 191.466 295.239 190.975 293.917 190.762C293.587 190.719 293.256 190.676 292.926 190.676H292.678H292.43C292.265 190.676 292.121 190.697 291.955 190.697C291.315 190.719 290.675 190.762 290.056 190.783C288.775 190.868 287.516 190.932 286.236 191.082C287.516 191.21 288.775 191.295 290.056 191.381C290.696 191.423 291.336 191.445 291.955 191.466L292.43 191.488H292.657L292.884 191.509C293.194 191.53 293.483 191.573 293.793 191.616C294.392 191.722 294.97 191.893 295.528 192.128C296.085 192.363 296.622 192.662 297.118 193.004C297.923 193.559 298.625 194.242 299.203 195.032C298.584 195.886 297.82 196.612 296.952 197.189C296.436 197.53 295.899 197.808 295.342 198.021C294.784 198.235 294.186 198.406 293.587 198.491C293.277 198.534 292.988 198.577 292.678 198.577C292.596 198.577 292.534 198.577 292.451 198.577H292.224H291.749L289.849 198.598C287.309 198.64 284.77 198.683 282.23 198.747C280.95 198.769 279.69 198.811 278.41 198.854C277.13 198.897 275.87 198.939 274.59 198.982C275.87 199.025 277.13 199.068 278.41 199.11C279.69 199.153 280.95 199.174 282.23 199.217C284.77 199.281 287.309 199.324 289.849 199.366L291.749 199.388H292.224H292.472C292.554 199.388 292.637 199.388 292.72 199.388C293.05 199.388 293.38 199.366 293.71 199.324C295.032 199.153 296.312 198.704 297.469 197.978C298.047 197.616 298.563 197.189 299.059 196.719C299.327 196.463 299.575 196.185 299.802 195.907C299.843 195.971 299.864 196.036 299.905 196.1C299.823 196.27 299.74 196.42 299.637 196.569C299.327 197.082 298.955 197.551 298.542 198C297.737 198.875 296.746 199.58 295.652 200.05C295.115 200.285 294.537 200.456 293.958 200.583C293.669 200.648 293.38 200.69 293.07 200.712C292.988 200.712 292.926 200.733 292.843 200.733C292.761 200.733 292.699 200.733 292.616 200.754H292.389H292.162L288.445 200.797C285.967 200.84 283.489 200.883 281.012 200.947L279.153 200.989L277.295 201.032C276.056 201.075 274.817 201.096 273.578 201.139C274.817 201.181 276.056 201.224 277.295 201.245L279.153 201.288L281.012 201.331C283.489 201.395 285.967 201.438 288.445 201.48L292.162 201.523H292.389H292.637C292.72 201.523 292.802 201.523 292.884 201.523C292.967 201.523 293.05 201.523 293.133 201.502C293.463 201.48 293.773 201.438 294.103 201.395C294.743 201.288 295.383 201.117 295.982 200.861C296.581 200.626 297.18 200.306 297.716 199.943C298.253 199.58 298.769 199.153 299.224 198.662C299.637 198.235 300.008 197.786 300.318 197.295C300.174 197.68 299.988 198.043 299.781 198.406C299.182 199.452 298.398 200.37 297.448 201.096C296.973 201.459 296.477 201.779 295.94 202.035C295.404 202.292 294.846 202.484 294.268 202.633C293.69 202.783 293.112 202.847 292.513 202.868L290.654 202.89L286.938 202.932L283.221 202.996L279.504 203.082C278.265 203.103 277.026 203.146 275.787 203.167C275.168 203.188 274.549 203.188 273.929 203.21L272.071 203.274L273.929 203.338C274.549 203.359 275.168 203.381 275.787 203.381C277.026 203.402 278.265 203.445 279.504 203.466L283.221 203.552L286.938 203.616L290.654 203.658L292.513 203.68C293.153 203.68 293.814 203.616 294.454 203.488C295.734 203.21 296.952 202.676 298.006 201.886C298.542 201.502 299.038 201.053 299.472 200.562C299.781 200.221 300.07 199.836 300.318 199.452C299.926 200.456 299.348 201.374 298.646 202.164C297.84 203.061 296.87 203.765 295.796 204.256C295.259 204.512 294.702 204.683 294.123 204.811C293.834 204.875 293.546 204.918 293.256 204.961C293.112 204.982 292.967 204.982 292.823 205.003C292.74 205.003 292.678 205.003 292.596 205.003C292.513 205.003 292.451 205.003 292.368 205.003L288.652 205.046L284.935 205.089L281.218 205.153L277.501 205.217C275.023 205.26 272.546 205.324 270.068 205.388C272.546 205.452 275.023 205.516 277.501 205.559L281.218 205.623L284.935 205.687L288.652 205.729L292.368 205.772H292.616C292.699 205.772 292.781 205.772 292.864 205.772C293.029 205.772 293.194 205.751 293.339 205.751C293.669 205.729 293.979 205.687 294.309 205.623C294.95 205.495 295.569 205.302 296.168 205.046C297.365 204.534 298.46 203.765 299.368 202.783C299.719 202.399 300.05 201.971 300.339 201.544C300.215 201.886 300.05 202.206 299.885 202.527C299.595 203.061 299.265 203.552 298.873 204.021C298.48 204.491 298.068 204.897 297.593 205.281C297.365 205.473 297.118 205.644 296.87 205.793C296.622 205.964 296.353 206.093 296.106 206.242C295.569 206.498 295.011 206.712 294.454 206.861C293.876 207.01 293.297 207.096 292.699 207.117H292.472H292.244H291.77H290.84C288.362 207.139 285.885 207.181 283.407 207.203C278.451 207.288 273.495 207.352 268.54 207.502C273.495 207.63 278.451 207.715 283.407 207.801C285.885 207.843 288.362 207.865 290.84 207.886H291.77H292.244H292.472H292.72C293.36 207.886 294.02 207.801 294.64 207.651C295.899 207.352 297.118 206.797 298.171 205.986C298.687 205.58 299.182 205.132 299.616 204.619C299.885 204.32 300.132 204 300.339 203.658C300.008 204.491 299.554 205.281 298.997 205.986C298.604 206.455 298.191 206.904 297.716 207.288C297.242 207.672 296.725 208.014 296.189 208.292C295.652 208.569 295.073 208.783 294.495 208.954C293.917 209.103 293.297 209.21 292.699 209.231H292.472H292.224H291.749H290.799L288.899 209.253L285.079 209.295L281.259 209.338L277.439 209.402L273.619 209.466L269.799 209.53L267.9 209.573L266 209.615L267.9 209.658L269.799 209.701L273.619 209.765L277.439 209.829L281.259 209.893L285.079 209.936L288.899 209.979L290.799 210H291.749H292.224H292.472H292.72C293.38 210 294.041 209.915 294.702 209.765C295.342 209.615 295.982 209.381 296.581 209.082C297.799 208.505 298.873 207.63 299.74 206.584C300.607 205.537 301.268 204.278 301.64 202.954C301.97 201.737 302.073 200.434 301.949 199.174C301.867 199.388 301.888 191.039 301.867 190.826Z" fill="white"/>
</svg>
