<svg width="869" height="317" viewBox="0 0 869 317" fill="none" xmlns="http://www.w3.org/2000/svg">
<path d="M219.243 316.44V260.156H256V195.644H219.243V6.44043H139.676L0 198.242V260.156H144.432V316.44H219.243ZM150.486 195.644H75.2432L150.486 92.1667V195.644Z" fill="#001540"/>
<path d="M407.78 0.969849C399.409 0.0683594 391.039 0.669678 382.968 2.77332C373.552 5.17761 364.733 9.83641 357.26 15.8472C349.786 22.0088 343.509 29.823 339.174 38.3889C337.082 42.747 335.288 47.255 334.093 52.0641C332.897 56.7224 332.299 61.5315 332 66.3401V68.1436V69.9471V73.4032L332.149 80.316L332.448 94.1415L332.747 107.967L333.046 121.792C333.495 140.276 334.093 158.76 334.84 177.244C335.737 158.76 336.185 140.276 336.633 121.792L336.932 107.967L337.231 94.1415L337.53 80.316L337.68 73.4032V69.9471V68.2939L337.829 66.6408C338.427 57.7742 340.819 49.2088 344.854 41.3946C346.947 37.4869 349.338 33.8805 352.178 30.4244C355.018 26.9677 358.157 23.9621 361.445 21.2571C366.078 17.6507 371.16 14.645 376.541 12.3911C375.196 13.2925 374 14.1945 372.655 15.2463C368.918 18.252 365.63 21.5578 362.491 25.1647C359.502 28.7712 356.811 32.8286 354.569 37.0364C352.327 41.2442 350.683 45.6018 349.338 50.2606C347.993 54.7691 347.246 59.4274 346.947 64.2365C346.797 65.4387 346.797 66.6408 346.797 67.6926C346.797 68.294 346.797 68.8948 346.797 69.4961C346.797 70.0969 346.797 70.6983 346.797 71.1493L346.947 77.9117C347.096 86.9281 347.395 95.9445 347.544 104.961C347.843 113.978 348.142 122.994 348.441 132.011L349.039 145.536C349.189 147.79 349.189 150.044 349.338 152.298C349.488 154.552 349.488 156.807 349.637 159.061C349.786 156.807 349.936 154.552 349.936 152.298C350.085 150.044 350.235 147.79 350.235 145.536L350.833 132.011C351.132 122.994 351.431 113.978 351.73 104.961C352.028 95.9445 352.178 86.9281 352.327 77.9117L352.477 71.1493V69.4961C352.477 68.8948 352.477 68.4443 352.477 67.843C352.477 66.7911 352.626 65.7393 352.776 64.687C353.224 60.3294 354.121 56.1216 355.317 52.0641C357.858 43.7989 362.043 36.2848 367.573 29.6727C373.103 23.2109 379.979 17.801 387.601 14.0442C388.797 13.4429 390.142 12.8421 391.338 12.3911C389.245 13.7435 387.302 15.2464 385.509 16.8995C378.335 23.0606 372.505 30.7245 368.32 39.2904C366.228 43.4982 364.733 48.0067 363.537 52.6649C362.491 57.3237 361.893 61.982 361.744 66.6408C361.744 67.843 361.744 69.0451 361.744 70.0969V73.5536L361.893 80.316L362.192 93.8408L362.641 107.366L363.089 120.891C363.388 129.907 363.836 138.924 364.434 147.94C365.032 138.924 365.331 129.907 365.779 120.891L366.228 107.366L366.676 93.8408L366.975 80.316L367.125 73.5536V70.0969C367.125 69.0451 367.125 67.9933 367.274 66.7911C367.722 58.2252 370.114 49.6593 374 42.1458C380.726 28.6209 392.384 17.9513 406.285 12.2407C404.641 13.4429 402.847 14.645 401.353 15.9975C397.765 19.0031 394.327 22.4598 391.488 26.2166C388.498 29.9733 385.957 33.8805 383.865 38.2386C381.772 42.4464 380.128 46.9543 378.932 51.4628C377.737 55.9712 376.989 60.7799 376.84 65.4387C376.84 66.0395 376.84 66.6408 376.84 67.2416C376.84 67.8429 376.84 68.4443 376.84 69.0451V69.9471V70.8486V72.5017L376.989 79.2642C377.288 88.2805 377.587 97.297 378.036 106.314C378.185 110.822 378.484 115.33 378.783 119.839C379.082 124.347 379.381 128.855 379.68 133.364C379.979 128.855 380.278 124.347 380.577 119.839C380.875 115.33 381.025 110.822 381.324 106.314C381.772 97.297 382.071 88.2805 382.37 79.2642L382.52 72.5017L382.669 69.1954C382.669 68.5946 382.669 68.1436 382.669 67.5423C382.669 66.9415 382.669 66.4905 382.819 65.8896C383.117 61.5315 384.014 57.3237 385.061 53.2663C387.452 45.0011 391.488 37.3371 397.018 30.7245C399.708 27.4187 402.847 24.4131 406.135 21.7081C409.423 19.0032 413.011 16.7492 416.747 14.7953C418.242 14.0442 419.886 13.2925 421.53 12.5414C419.139 14.1945 416.897 15.9975 414.655 17.9514C407.63 24.2628 401.801 32.077 397.915 40.6429C395.972 45.001 394.477 49.5095 393.431 54.0175C392.384 58.6763 391.936 63.3345 391.786 67.9933V69.7968V71.4494L391.936 74.906C392.085 77.16 392.085 79.4145 392.235 81.6685L392.534 88.4309L392.833 95.1933C393.281 104.21 393.879 113.227 394.626 122.243C395.523 113.227 395.972 104.21 396.42 95.1933L396.719 88.4309L397.018 81.6685C397.167 79.4145 397.167 77.16 397.317 74.906L397.466 71.4494L397.616 68.1436C397.765 63.7855 398.363 59.5777 399.409 55.3699C400.455 51.1621 401.95 47.1047 403.744 43.3479C405.537 39.4408 407.78 35.8343 410.47 32.3777C413.011 28.9216 416 25.9159 419.139 23.0606C422.427 20.2053 426.014 17.6507 429.9 15.5471C430.349 15.8472 430.797 15.9975 431.245 16.2982C425.865 20.8066 421.231 26.0662 417.495 31.7769C412.264 39.8918 408.826 49.2088 407.331 58.8266C407.032 61.2309 406.733 63.6352 406.733 66.0395V67.843V69.6464C406.733 70.8486 406.882 71.9004 406.882 73.1025C407.032 77.7613 407.331 82.4196 407.48 86.9281C408.078 96.2451 408.527 105.412 409.573 114.729C410.47 105.412 411.068 96.2451 411.666 86.9281C411.964 82.2693 412.114 77.611 412.264 73.1025L412.413 69.6464V67.9933L412.562 66.3401C412.712 64.0862 413.011 61.982 413.309 59.728C414.057 55.3699 415.252 51.1621 416.897 47.1047C418.541 43.0472 420.634 39.1401 423.025 35.5336C426.911 29.6727 431.694 24.5634 437.224 20.3557C443.203 24.8641 448.285 30.4244 452.32 36.7358C454.712 40.4926 456.655 44.3997 458.15 48.4572C459.644 52.5146 460.84 56.8727 461.438 61.2309C461.736 63.4848 462.036 65.589 462.036 67.843C462.036 68.4443 462.036 68.8948 462.036 69.4961V71.1493V74.6054L462.185 88.4309C462.484 106.915 462.783 125.399 463.231 143.883C463.381 153.2 463.679 162.367 463.979 171.684C464.277 181.001 464.577 190.168 464.875 199.485C465.174 190.168 465.473 181.001 465.772 171.684C466.071 162.367 466.22 153.2 466.52 143.883C466.968 125.399 467.267 106.915 467.566 88.4309L467.715 74.6054V71.1493V69.3458C467.715 68.7444 467.715 68.1436 467.715 67.5423C467.715 65.138 467.566 62.7337 467.267 60.3294C466.071 50.7116 462.932 41.3946 457.85 32.979C455.309 28.7712 452.32 25.0145 449.032 21.4075C447.239 19.4542 445.296 17.6507 443.352 15.9975C443.801 15.6968 444.249 15.547 444.698 15.2463C445.894 15.8472 446.939 16.4485 447.986 17.1996C451.573 19.4541 454.861 22.1591 458 25.1647C464.128 31.0251 469.061 38.2386 472.349 46.2032C473.993 50.1103 475.189 54.3181 476.085 58.5259C476.534 60.6295 476.833 62.7337 476.982 64.9876C476.982 65.589 477.132 66.0395 477.132 66.6408C477.132 67.2416 477.132 67.6926 477.281 68.2939V69.9471V71.5997L477.58 98.6494C477.879 116.683 478.178 134.716 478.626 152.749L478.925 166.274L479.224 179.799C479.523 188.815 479.673 197.832 479.972 206.849C480.27 197.832 480.569 188.815 480.719 179.799L481.018 166.274L481.317 152.749C481.765 134.716 482.064 116.683 482.363 98.6494L482.662 71.5997V69.9471V68.1436C482.662 67.5423 482.662 66.9415 482.662 66.3401C482.662 65.7393 482.662 65.138 482.512 64.5372C482.363 62.1323 482.064 59.8784 481.765 57.4741C481.018 52.8153 479.822 48.157 478.028 43.7989C476.384 39.4408 474.142 35.0827 471.601 31.1755C469.061 27.2684 466.071 23.5116 462.634 20.2053C459.644 17.1997 456.505 14.4947 453.068 12.2407C455.758 13.2925 458.299 14.645 460.84 16.1478C468.163 20.506 474.591 26.2166 479.673 33.1293C482.214 36.5854 484.455 40.1919 486.249 44.0995C488.043 48.0067 489.388 52.0641 490.434 56.2719C491.48 60.4797 491.929 64.687 492.078 69.0451L492.228 82.5699L492.527 109.62L492.975 136.669L493.573 163.719C493.723 172.736 494.021 181.752 494.171 190.769C494.32 195.277 494.32 199.786 494.47 204.294L494.918 217.819L495.366 204.294C495.516 199.786 495.666 195.277 495.666 190.769C495.815 181.752 496.114 172.736 496.264 163.719L496.861 136.669L497.309 109.62L497.609 82.5699L497.758 69.0451C497.758 64.3868 497.309 59.5777 496.413 54.9194C494.47 45.6019 490.733 36.7358 485.203 29.0719C482.512 25.1648 479.374 21.5578 475.936 18.4018C473.545 16.1478 470.854 14.0442 468.163 12.2407C475.188 15.096 481.616 19.3038 487.146 24.4131C493.423 30.274 498.356 37.3371 501.793 45.1514C503.587 49.0585 504.783 53.1159 505.68 57.3237C506.128 59.4274 506.427 61.5315 506.726 63.6352C506.875 64.687 506.875 65.7393 507.025 66.7911C507.025 67.392 507.025 67.8429 507.025 68.4443C507.025 69.0451 507.025 69.4961 507.025 70.0969L507.324 97.1466L507.623 124.197L508.071 151.247L508.52 178.296C508.818 196.329 509.267 214.362 509.715 232.396C510.163 214.362 510.612 196.329 510.911 178.296L511.359 151.247L511.808 124.197L512.107 97.1466L512.406 70.0969V68.2939C512.406 67.6926 512.406 67.0918 512.406 66.4904C512.406 65.2883 512.256 64.0862 512.256 63.0343C512.106 60.6295 511.808 58.3755 511.359 55.9713C510.463 51.3125 509.118 46.8045 507.324 42.4464C503.736 33.7302 498.356 25.7656 491.48 19.1535C488.79 16.5989 485.801 14.1945 482.811 12.0904C485.203 12.9919 487.445 14.1945 489.687 15.3967C493.423 17.5003 496.861 19.9046 500.15 22.7599C503.438 25.6152 506.277 28.6209 508.968 32.077C510.313 33.7302 511.509 35.5336 512.555 37.3371C513.751 39.1401 514.648 41.0939 515.694 42.8969C517.488 46.8045 518.982 50.862 520.028 54.9194C521.075 59.1267 521.673 63.3345 521.822 67.6926V69.3458V70.9989V74.455V81.2175C521.972 99.2508 522.27 117.284 522.42 135.317C523.018 171.383 523.466 207.45 524.512 243.516C525.409 207.45 526.007 171.383 526.605 135.317C526.904 117.284 527.053 99.2508 527.203 81.2175V74.455V70.9989V69.3458V67.5423C527.203 62.884 526.605 58.0749 525.559 53.567C523.466 44.3997 519.58 35.5337 513.9 27.8698C511.061 24.1124 507.922 20.506 504.334 17.35C502.242 15.3967 500 13.5932 497.609 12.0904C503.438 14.4947 508.968 17.801 513.9 21.8585C517.188 24.7138 520.327 27.7194 523.018 31.1755C525.708 34.6322 528.1 38.389 530.043 42.2961C531.986 46.2032 533.48 50.411 534.676 54.6188C535.723 58.8266 536.47 63.3345 536.619 67.6926V69.3458V71.1493V74.6054V81.5181L536.769 95.3437L537.068 123.145L537.366 150.946L537.815 178.747L538.264 206.548L538.712 234.349L539.011 248.175L539.309 262L539.609 248.175L539.907 234.349L540.356 206.548L540.804 178.747L541.253 150.946L541.552 123.145L541.85 95.3437L542 81.5181V74.6054V71.1493V69.3458V67.5423C542 62.7337 541.402 57.9246 540.356 53.116C539.309 48.4572 537.666 43.7989 535.573 39.4407C531.537 30.5742 525.409 22.7599 518.085 16.4485C510.761 10.1371 501.943 5.32794 492.676 2.62299C484.157 0.218689 475.039 -0.53299 466.22 0.369019C467.715 0.969818 409.274 0.819519 407.78 0.969849Z" fill="#001540"/>
<path d="M466.22 315.03C474.591 315.932 482.961 315.33 491.032 313.227C500.448 310.822 509.267 306.164 516.74 300.153C524.214 293.991 530.491 286.177 534.826 277.611C536.918 273.253 538.712 268.745 539.907 263.936C541.103 259.278 541.701 254.468 542 249.66V247.856V246.053V242.597L541.851 235.684L541.552 221.858L541.253 208.033L540.954 194.208C540.505 175.724 539.907 157.24 539.16 138.756C538.263 157.24 537.815 175.724 537.367 194.208L537.068 208.033L536.769 221.858L536.47 235.684L536.32 242.597V246.053V247.706L536.171 249.359C535.573 258.226 533.181 266.791 529.146 274.605C527.053 278.513 524.662 282.12 521.822 285.576C518.982 289.032 515.843 292.038 512.555 294.743C507.922 298.349 502.84 301.355 497.459 303.609C498.804 302.707 500 301.805 501.345 300.754C505.082 297.748 508.37 294.442 511.509 290.835C514.498 287.229 517.189 283.171 519.431 278.964C521.673 274.756 523.317 270.398 524.662 265.739C526.007 261.231 526.754 256.573 527.053 251.763C527.203 250.561 527.203 249.359 527.203 248.307C527.203 247.706 527.203 247.105 527.203 246.504C527.203 245.903 527.203 245.302 527.203 244.851L527.053 238.088C526.904 229.072 526.605 220.056 526.456 211.039C526.157 202.022 525.858 193.006 525.559 183.989L524.961 170.464C524.811 168.21 524.811 165.956 524.662 163.702C524.512 161.448 524.512 159.193 524.363 156.939C524.214 159.193 524.064 161.448 524.064 163.702C523.915 165.956 523.765 168.21 523.765 170.464L523.167 183.989C522.868 193.006 522.569 202.022 522.27 211.039C521.972 220.056 521.822 229.072 521.673 238.088L521.523 244.851V246.504C521.523 247.105 521.523 247.556 521.523 248.157C521.523 249.209 521.374 250.261 521.224 251.313C520.776 255.671 519.879 259.878 518.683 263.936C516.142 272.201 511.957 279.715 506.427 286.327C500.897 292.789 494.021 298.199 486.399 301.956C485.203 302.557 483.858 303.158 482.662 303.609C484.755 302.256 486.698 300.754 488.491 299.1C495.665 292.939 501.495 285.276 505.68 276.71C507.772 272.502 509.267 267.993 510.463 263.335C511.509 258.676 512.107 254.018 512.256 249.359C512.256 248.157 512.256 246.955 512.256 245.903V242.446L512.107 235.684L511.808 222.159L511.359 208.634L510.911 195.109C510.612 186.093 510.164 177.076 509.566 168.06C508.968 177.076 508.669 186.093 508.221 195.109L507.772 208.634L507.324 222.159L507.025 235.684L506.875 242.446V245.903C506.875 246.955 506.875 248.007 506.726 249.209C506.278 257.775 503.886 266.341 500 273.854C493.274 287.379 481.616 298.049 467.715 303.759C469.359 302.557 471.153 301.355 472.648 300.003C476.235 296.997 479.673 293.54 482.512 289.783C485.502 286.027 488.043 282.12 490.135 277.761C492.228 273.554 493.872 269.046 495.068 264.537C496.263 260.029 497.011 255.22 497.16 250.561C497.16 249.961 497.16 249.359 497.16 248.758C497.16 248.157 497.16 247.556 497.16 246.955V246.053V245.151V243.498L497.011 236.736C496.712 227.719 496.413 218.703 495.964 209.686C495.815 205.178 495.516 200.67 495.217 196.161C494.918 191.653 494.619 187.145 494.32 182.636C494.021 187.145 493.722 191.653 493.423 196.161C493.125 200.67 492.975 205.178 492.676 209.686C492.228 218.703 491.929 227.719 491.63 236.736L491.48 243.498L491.331 246.805C491.331 247.405 491.331 247.856 491.331 248.458C491.331 249.059 491.331 249.51 491.181 250.11C490.883 254.468 489.986 258.676 488.939 262.734C486.548 270.999 482.512 278.663 476.982 285.276C474.292 288.581 471.153 291.587 467.865 294.292C464.577 296.997 460.989 299.251 457.253 301.205C455.758 301.956 454.114 302.707 452.47 303.459C454.861 301.805 457.103 300.002 459.345 298.049C466.37 291.737 472.199 283.923 476.085 275.357C478.028 270.999 479.523 266.49 480.569 261.983C481.616 257.324 482.064 252.666 482.214 248.007V246.203V244.551L482.064 241.094C481.915 238.84 481.915 236.586 481.765 234.332L481.466 227.569L481.167 220.807C480.719 211.79 480.121 202.773 479.374 193.757C478.477 202.773 478.028 211.79 477.58 220.807L477.281 227.569L476.982 234.332C476.833 236.586 476.833 238.84 476.683 241.094L476.534 244.551L476.384 247.856C476.235 252.215 475.637 256.422 474.591 260.63C473.545 264.838 472.05 268.895 470.256 272.652C468.463 276.559 466.22 280.166 463.53 283.622C460.989 287.078 458 290.084 454.861 292.939C451.573 295.795 447.986 298.349 444.1 300.453C443.651 300.153 443.203 300.003 442.755 299.702C448.135 295.193 452.769 289.934 456.505 284.223C461.736 276.108 465.174 266.791 466.669 257.173C466.968 254.769 467.267 252.365 467.267 249.961V248.157L467.267 246.354C467.267 245.151 467.118 244.1 467.118 242.897C466.968 238.239 466.669 233.58 466.52 229.072C465.922 219.755 465.473 210.588 464.427 201.271C463.53 210.588 462.932 219.755 462.334 229.072C462.036 233.731 461.886 238.389 461.736 242.897L461.587 246.354L461.587 248.007L461.438 249.66C461.288 251.914 460.989 254.018 460.691 256.272C459.943 260.63 458.748 264.838 457.103 268.895C455.459 272.953 453.366 276.86 450.975 280.466C447.089 286.327 442.306 291.437 436.776 295.644C430.797 291.136 425.715 285.576 421.68 279.264C419.288 275.507 417.345 271.6 415.85 267.543C414.356 263.485 413.16 259.127 412.562 254.769C412.264 252.515 411.964 250.411 411.964 248.157C411.964 247.556 411.964 247.105 411.964 246.504V244.851V241.395L411.815 227.569C411.516 209.085 411.217 190.601 410.769 172.117C410.619 162.8 410.321 153.633 410.021 144.316C409.723 134.999 409.423 125.832 409.125 116.515C408.826 125.832 408.527 134.999 408.228 144.316C407.929 153.633 407.78 162.8 407.48 172.117C407.032 190.601 406.733 209.085 406.434 227.569L406.285 241.395V244.851V246.654C406.285 247.256 406.285 247.856 406.285 248.458C406.285 250.862 406.434 253.266 406.733 255.671C407.929 265.288 411.068 274.605 416.15 283.021C418.691 287.229 421.68 290.986 424.968 294.593C426.761 296.546 428.704 298.349 430.648 300.003C430.199 300.303 429.751 300.453 429.302 300.754C428.106 300.153 427.061 299.551 426.014 298.8C422.427 296.546 419.139 293.841 416 290.835C409.872 284.975 404.939 277.761 401.651 269.797C400.007 265.89 398.811 261.682 397.915 257.474C397.466 255.37 397.167 253.266 397.018 251.012C397.018 250.411 396.868 249.961 396.868 249.359C396.868 248.758 396.868 248.307 396.719 247.706V246.053V244.4L396.42 217.351C396.121 199.317 395.822 181.284 395.374 163.251L395.075 149.726L394.776 136.201C394.477 127.185 394.327 118.168 394.028 109.151C393.73 118.168 393.431 127.185 393.281 136.201L392.982 149.726L392.683 163.251C392.235 181.284 391.936 199.317 391.637 217.351L391.338 244.4V246.053V247.856C391.338 248.458 391.338 249.059 391.338 249.66C391.338 250.261 391.338 250.862 391.488 251.463C391.637 253.868 391.936 256.122 392.235 258.526C392.982 263.185 394.178 267.843 395.972 272.201C397.616 276.559 399.858 280.917 402.399 284.824C404.939 288.732 407.929 292.488 411.366 295.795C414.356 298.8 417.495 301.505 420.932 303.759C418.242 302.707 415.701 301.355 413.16 299.852C405.837 295.494 399.409 289.783 394.327 282.871C391.786 279.415 389.545 275.808 387.751 271.9C385.957 267.993 384.612 263.936 383.566 259.728C382.52 255.52 382.071 251.313 381.922 246.955L381.772 233.43L381.473 206.38L381.025 179.331L380.427 152.281C380.277 143.264 379.979 134.248 379.829 125.231C379.68 120.723 379.68 116.214 379.53 111.706L379.082 98.1812L378.634 111.706C378.484 116.214 378.334 120.723 378.334 125.231C378.185 134.248 377.886 143.264 377.736 152.281L377.139 179.331L376.691 206.38L376.391 233.43L376.242 246.955C376.242 251.613 376.691 256.422 377.587 261.081C379.53 270.398 383.267 279.264 388.797 286.928C391.488 290.835 394.626 294.442 398.064 297.598C400.455 299.852 403.146 301.956 405.837 303.759C398.812 300.904 392.384 296.696 386.854 291.587C380.577 285.726 375.644 278.663 372.207 270.849C370.413 266.942 369.217 262.884 368.32 258.676C367.872 256.573 367.573 254.468 367.274 252.365C367.125 251.313 367.125 250.261 366.975 249.209C366.975 248.608 366.975 248.157 366.975 247.556C366.975 246.955 366.975 246.504 366.975 245.903L366.676 218.853L366.377 191.803L365.929 164.753L365.48 137.704C365.182 119.671 364.733 101.638 364.285 83.6044C363.837 101.638 363.388 119.671 363.089 137.704L362.641 164.753L362.192 191.803L361.893 218.853L361.594 245.903V247.706C361.594 248.307 361.594 248.908 361.594 249.51C361.594 250.712 361.744 251.914 361.744 252.966C361.893 255.37 362.192 257.624 362.641 260.029C363.537 264.688 364.882 269.195 366.676 273.554C370.264 282.27 375.644 290.234 382.52 296.846C385.21 299.401 388.199 301.805 391.189 303.91C388.797 303.008 386.555 301.805 384.313 300.603C380.577 298.5 377.139 296.095 373.85 293.24C370.562 290.385 367.723 287.379 365.032 283.923C363.687 282.27 362.491 280.466 361.445 278.663C360.249 276.86 359.353 274.906 358.306 273.103C356.512 269.195 355.018 265.138 353.972 261.081C352.925 256.873 352.327 252.665 352.178 248.307V246.654V245.001V241.545V234.783C352.028 216.749 351.729 198.716 351.58 180.683C350.982 144.617 350.534 108.55 349.488 72.484C348.591 108.55 347.993 144.617 347.395 180.683C347.096 198.716 346.947 216.749 346.797 234.783V241.545V245.001V246.654V248.458C346.797 253.116 347.395 257.925 348.441 262.433C350.534 271.6 354.42 280.466 360.1 288.13C362.939 291.888 366.078 295.494 369.666 298.65C371.758 300.603 374 302.407 376.391 303.91C370.562 301.505 365.032 298.199 360.1 294.142C356.812 291.286 353.673 288.281 350.982 284.824C348.292 281.368 345.9 277.611 343.957 273.704C342.014 269.797 340.52 265.589 339.324 261.381C338.277 257.173 337.53 252.665 337.381 248.307V246.654V244.851V241.395V234.482L337.231 220.656L336.932 192.855L336.634 165.054L336.185 137.253L335.736 109.452L335.288 81.6508L334.989 67.8254L334.691 54L334.391 67.8254L334.093 81.6508L333.644 109.452L333.196 137.253L332.747 165.054L332.448 192.855L332.15 220.656L332 234.482V241.395V244.851V246.654V248.458C332 253.266 332.598 258.075 333.644 262.884C334.691 267.543 336.334 272.201 338.427 276.559C342.463 285.426 348.591 293.24 355.915 299.552C363.239 305.863 372.057 310.672 381.324 313.377C389.843 315.781 398.961 316.533 407.78 315.631C406.285 315.03 464.726 315.18 466.22 315.03Z" fill="#001540"/>
<path d="M832.243 316.44V260.156H869V195.644H832.243V6.44043H752.676L613 198.242V260.156H757.432V316.44H832.243ZM763.487 195.644H688.243L763.487 92.1667V195.644Z" fill="#001540"/>
</svg>
