<svg width="629" height="505" viewBox="0 0 629 505" fill="none" xmlns="http://www.w3.org/2000/svg">
<path opacity="0.1" d="M626.671 182.231C628.836 162.103 627.393 141.975 622.342 122.566C616.57 99.9217 605.385 78.7153 590.954 60.7438C576.162 42.7722 557.402 27.6762 536.838 17.2527C526.375 12.2206 515.552 7.90748 504.007 5.03203C492.823 2.15659 481.278 0.718861 469.733 0H465.404H461.074H452.776L436.181 0.359432L402.989 1.07829L369.797 1.79715L336.606 2.51602C292.23 3.59431 247.854 5.03203 203.479 6.82918C247.854 8.98577 292.23 10.0641 336.606 11.1424L369.797 11.8612L402.989 12.5801L436.181 13.2989L452.776 13.6584H461.074H465.043L469.011 14.0178C490.297 15.4555 510.862 21.2064 529.622 30.911C539.002 35.9431 547.661 41.694 555.959 48.5231C564.257 55.3523 571.472 62.9004 577.966 70.8078C586.625 81.9502 593.841 94.1708 599.252 107.11C597.088 103.875 594.923 101 592.397 97.7651C585.182 88.7794 577.245 80.8719 568.586 73.3238C559.927 66.1352 550.186 59.6655 540.085 54.274C529.983 48.8826 519.52 44.9288 508.336 41.694C497.513 38.4591 486.329 36.6619 474.784 35.9431C471.898 35.5836 469.011 35.5836 466.486 35.5836C465.043 35.5836 463.6 35.5836 462.157 35.5836C460.714 35.5836 459.27 35.5836 458.188 35.5836L441.953 35.9431C420.306 36.3025 398.66 37.0214 377.013 37.3808C355.366 38.0996 333.72 38.8185 312.073 39.5374L279.603 40.9751C274.191 41.3345 268.78 41.3345 263.368 41.694C257.956 42.0534 252.545 42.0534 247.133 42.4128C252.545 42.7722 257.956 43.1317 263.368 43.1317C268.78 43.4911 274.191 43.8505 279.603 43.8505L312.073 45.2883C333.72 46.0071 355.366 46.726 377.013 47.4448C398.66 48.1637 420.306 48.5231 441.953 48.8826L458.188 49.242H462.157C463.6 49.242 464.682 49.242 466.125 49.242C468.651 49.242 471.176 49.6014 473.701 49.9609C484.164 51.0391 494.266 53.1957 504.007 56.0712C523.85 62.1815 541.889 72.2456 557.763 85.5445C573.276 98.8434 586.264 115.377 595.284 133.708C596.727 136.584 598.17 139.818 599.252 142.694C596.005 137.662 592.397 132.989 588.429 128.676C573.637 111.423 555.237 97.4057 534.673 87.3416C524.571 82.3096 513.748 78.7153 502.564 75.8399C491.38 73.3238 480.195 71.8861 469.011 71.5267C466.125 71.5267 463.239 71.5267 460.713 71.5267H452.416L436.181 71.8861L403.711 72.605L371.241 73.6833L338.771 74.7616C317.124 75.4804 295.477 76.5587 273.83 77.9964C295.477 79.4342 317.124 80.153 338.771 81.2313L371.241 82.3096L403.711 83.3879L436.181 84.1068L452.416 84.4662H460.713C463.239 84.4662 465.764 84.4662 468.651 84.8256C489.215 85.9039 509.779 91.6548 527.818 101C560.288 117.174 585.903 145.21 599.613 178.637C596.727 174.683 593.841 170.37 590.594 166.776C583.378 158.149 575.08 149.883 566.061 143.053C557.041 135.865 547.661 129.754 537.198 124.722C527.097 119.69 516.273 115.737 505.45 112.861C494.627 109.986 483.082 108.189 471.898 107.829C470.454 107.829 469.011 107.829 467.568 107.829C466.125 107.829 464.682 107.829 463.239 107.829H461.074H458.91H454.941L438.706 108.189C417.059 108.907 395.413 109.626 373.766 110.705C362.943 111.064 352.119 111.783 341.296 112.502C330.473 113.221 319.649 113.939 308.826 114.658C319.649 115.377 330.473 116.096 341.296 116.815C352.119 117.534 362.943 117.893 373.766 118.612C395.413 119.69 417.059 120.409 438.706 121.128L454.941 121.488L462.878 121.847C464.321 121.847 465.404 121.847 466.847 121.847C468.29 121.847 469.372 121.847 470.815 122.206C481.278 122.925 491.38 125.082 501.121 127.598C520.963 133.349 539.363 143.053 555.237 156.352C563.174 162.822 570.39 170.37 576.884 178.278C583.378 186.185 588.79 194.811 593.48 203.797C595.284 207.391 597.088 211.345 598.891 215.299C594.923 209.548 590.594 204.157 585.903 198.765C570.751 181.872 551.99 167.854 531.426 158.509C520.963 153.836 510.14 150.242 499.317 147.726C488.133 145.21 476.949 144.132 465.764 143.772H461.435H457.466L449.169 144.132C443.757 144.491 438.345 144.491 432.934 144.851L416.699 145.569L400.464 146.288C378.817 147.367 357.17 148.804 335.524 150.601C357.17 152.758 378.817 153.836 400.464 154.915L416.699 155.633L432.934 156.352C438.345 156.712 443.757 156.712 449.169 157.071L457.466 157.431L465.404 157.79C475.866 158.149 485.968 159.587 496.07 162.103C506.172 164.619 515.912 168.214 524.932 172.527C534.312 176.84 542.971 182.231 551.269 188.701C559.567 194.811 566.782 202 573.637 209.548C580.492 217.455 586.625 226.082 591.676 235.427C590.954 236.505 590.594 237.584 589.872 238.662C579.049 225.722 566.421 214.58 552.712 205.594C533.23 193.014 510.862 184.747 487.772 181.153C481.999 180.434 476.227 179.715 470.454 179.715H466.125H461.796C458.91 179.715 456.384 180.075 453.498 180.075C442.314 180.434 431.13 181.153 420.306 181.512C397.938 182.95 375.931 184.028 353.562 186.544C375.931 188.701 397.938 190.139 420.306 191.576C431.49 192.295 442.675 192.655 453.498 193.014L461.796 193.374H465.764L469.733 193.733C475.145 194.093 480.195 194.811 485.607 195.53C496.07 197.327 506.172 200.203 515.912 204.157C525.654 208.11 535.034 213.142 543.692 218.893C557.763 228.238 570.029 239.74 580.131 253.039C569.308 267.416 555.959 279.637 540.806 289.342C531.787 295.093 522.407 299.765 512.666 303.359C502.925 306.954 492.462 309.829 481.999 311.267C476.588 311.986 471.537 312.705 466.125 312.705C464.682 312.705 463.6 312.705 462.157 312.705H458.188H449.89L416.699 313.064C372.323 313.783 327.947 314.502 283.571 315.58C261.203 315.939 239.196 316.658 216.828 317.377C194.459 318.096 172.452 318.815 150.084 319.534C172.452 320.253 194.459 320.972 216.828 321.69C239.196 322.409 261.203 322.769 283.571 323.488C327.947 324.566 372.323 325.285 416.699 326.004L449.89 326.363H458.188H462.517C463.96 326.363 465.404 326.363 466.847 326.363C472.619 326.363 478.392 326.004 484.164 325.285C507.254 322.409 529.622 314.861 549.826 302.641C559.927 296.53 568.947 289.342 577.606 281.434C582.296 277.121 586.625 272.448 590.594 267.776C591.315 268.854 591.676 269.932 592.397 271.011C590.954 273.886 589.511 276.402 587.707 278.918C582.296 287.544 575.802 295.452 568.586 303C554.516 317.737 537.198 329.598 518.077 337.505C508.697 341.459 498.595 344.335 488.493 346.491C483.442 347.569 478.392 348.288 472.98 348.648C471.537 348.648 470.454 349.007 469.011 349.007C467.568 349.007 466.486 349.007 465.043 349.367H461.074H457.106L392.166 350.085C348.872 350.804 305.579 351.523 262.286 352.601L229.816 353.32L197.346 354.039C175.699 354.758 154.052 355.117 132.406 355.836C154.052 356.555 175.699 357.274 197.346 357.633L229.816 358.352L262.286 359.071C305.579 360.149 348.872 360.868 392.166 361.587L457.106 362.306H461.074H465.404C466.847 362.306 468.29 362.306 469.733 362.306C471.176 362.306 472.619 362.306 474.062 361.947C479.835 361.587 485.246 360.868 491.019 360.149C502.203 358.352 513.387 355.477 523.85 351.164C534.312 347.21 544.775 341.819 554.155 335.708C563.535 329.598 572.555 322.409 580.492 314.142C587.707 306.954 594.201 299.406 599.613 291.139C597.088 297.609 593.841 303.719 590.233 309.829C579.77 327.441 566.061 342.897 549.465 355.117C541.167 361.228 532.508 366.619 523.128 370.932C513.748 375.246 504.007 378.48 493.905 380.996C483.803 383.512 473.701 384.591 463.239 384.95L430.769 385.31L365.829 386.028L300.889 387.107L235.949 388.544C214.302 388.904 192.655 389.623 171.009 389.982C160.185 390.342 149.362 390.342 138.539 390.701L106.069 391.779L138.539 392.858C149.362 393.217 160.185 393.577 171.009 393.577C192.655 393.936 214.302 394.655 235.949 395.014L300.889 396.452L365.829 397.53L430.769 398.249L463.239 398.609C474.423 398.609 485.968 397.53 497.152 395.374C519.52 390.701 540.806 381.715 559.206 368.416C568.586 361.947 577.245 354.399 584.821 346.132C590.233 340.381 595.284 333.911 599.613 327.441C592.758 344.335 582.656 359.79 570.39 373.089C556.32 388.185 539.363 400.046 520.603 408.313C511.222 412.626 501.481 415.502 491.38 417.658C486.329 418.737 481.278 419.456 476.227 420.174C473.701 420.534 471.176 420.534 468.651 420.893C467.207 420.893 466.125 420.893 464.682 420.893C463.239 420.893 462.157 420.893 460.713 420.893L395.773 421.612L330.833 422.331L265.893 423.409L200.953 424.488C157.66 425.206 114.367 426.285 71.0733 427.363C114.367 428.441 157.66 429.52 200.953 430.238L265.893 431.317L330.833 432.395L395.773 433.114L460.713 433.833H465.043C466.486 433.833 467.929 433.833 469.372 433.833C472.258 433.833 475.145 433.473 477.67 433.473C483.442 433.114 488.854 432.395 494.627 431.317C505.811 429.16 516.634 425.925 527.097 421.612C548.022 412.986 567.143 400.046 583.017 383.512C589.15 377.043 594.923 369.854 599.974 362.665C597.809 368.416 594.923 373.808 592.037 379.199C586.986 388.185 581.213 396.452 574.359 404.359C567.504 412.267 560.288 419.096 551.99 425.566C548.022 428.801 543.692 431.676 539.363 434.192C535.034 437.068 530.344 439.224 526.014 441.74C516.634 446.053 506.893 449.648 497.152 452.164C487.05 454.68 476.948 456.117 466.486 456.477H462.517H458.549H450.251H434.016C390.723 456.836 347.429 457.555 304.136 457.915C217.549 459.352 130.962 460.431 44.3757 462.947C130.962 465.103 217.549 466.541 304.136 467.979C347.429 468.698 390.723 469.057 434.016 469.416H450.251H458.549H462.517H466.847C478.031 469.416 489.576 467.979 500.399 465.463C522.406 460.431 543.692 451.085 562.092 437.427C571.112 430.598 579.77 423.05 587.347 414.423C592.037 409.391 596.366 404 599.974 398.249C594.201 412.267 586.264 425.566 576.523 437.427C569.668 445.335 562.453 452.883 554.155 459.352C545.857 465.822 536.838 471.573 527.457 476.246C518.077 480.918 507.975 484.512 497.874 487.388C487.772 489.904 476.948 491.701 466.486 492.061H462.517H458.188H449.89H433.294L400.103 492.42L333.359 493.139L266.615 493.858L199.871 494.936L133.127 496.014L66.3832 497.093L33.1916 497.811L0 498.53L33.1916 499.249L66.3832 499.968L133.127 501.046L199.871 502.125L266.615 503.203L333.359 503.922L400.103 504.641L433.294 505H449.89H458.188H462.517H466.847C478.392 505 489.936 503.562 501.481 501.046C512.666 498.53 523.85 494.577 534.312 489.545C555.598 479.84 574.359 465.103 589.511 447.491C604.664 429.879 616.209 408.673 622.703 386.388C628.475 365.9 630.279 343.975 628.115 322.769C626.671 326.363 627.032 185.826 626.671 182.231Z" fill="white"/>
</svg>
