<svg width="177" height="40" viewBox="0 0 177 40" fill="none" xmlns="http://www.w3.org/2000/svg">
<path d="M49.659 14.4342C49.8305 12.8399 49.7161 11.2456 49.3159 9.70818C48.8585 7.91459 47.9722 6.23488 46.8287 4.81139C45.6565 3.3879 44.1699 2.19217 42.5403 1.36655C41.7112 0.967972 40.8536 0.626335 39.9387 0.398577C39.0525 0.170819 38.1376 0.0569395 37.2228 0H36.8797H36.5366H35.8791L34.564 0.0284699L31.9338 0.0854093L29.3036 0.142349L26.6735 0.199288C23.157 0.284698 19.6406 0.398577 16.1242 0.540925C19.6406 0.711744 23.157 0.797153 26.6735 0.882562L29.3036 0.939502L31.9338 0.996441L34.564 1.05338L35.8791 1.08185H36.5366H36.8511L37.1656 1.11032C38.8524 1.2242 40.4819 1.67972 41.9685 2.4484C42.7119 2.84698 43.398 3.30249 44.0555 3.84342C44.7131 4.38434 45.2849 4.98221 45.7995 5.60854C46.4856 6.4911 47.0574 7.45907 47.4862 8.48399C47.3147 8.22776 47.1431 8 46.943 7.74377C46.3712 7.03203 45.7423 6.40569 45.0561 5.80783C44.37 5.23843 43.5981 4.72598 42.7976 4.29893C41.9971 3.87189 41.1681 3.55872 40.2818 3.30249C39.4241 3.04626 38.5379 2.90391 37.623 2.84698C37.3943 2.81851 37.1656 2.81851 36.9655 2.81851C36.8511 2.81851 36.7368 2.81851 36.6224 2.81851C36.5081 2.81851 36.3937 2.81851 36.3079 2.81851L35.0214 2.84698C33.3061 2.87544 31.5908 2.93238 29.8754 2.96085C28.1601 3.01779 26.4448 3.07473 24.7294 3.13167L22.1564 3.24555C21.7276 3.27402 21.2987 3.27402 20.8699 3.30249C20.4411 3.33096 20.0122 3.33096 19.5834 3.35943C20.0122 3.3879 20.4411 3.41637 20.8699 3.41637C21.2987 3.44484 21.7276 3.47331 22.1564 3.47331L24.7294 3.58719C26.4448 3.64413 28.1601 3.70107 29.8754 3.75801C31.5908 3.81495 33.3061 3.84342 35.0214 3.87189L36.3079 3.90036H36.6224C36.7368 3.90036 36.8225 3.90036 36.9369 3.90036C37.137 3.90036 37.3371 3.92883 37.5373 3.9573C38.3663 4.0427 39.1668 4.21352 39.9387 4.44128C41.5111 4.92527 42.9406 5.72242 44.1985 6.7758C45.4278 7.82918 46.457 9.13879 47.1717 10.5907C47.2861 10.8185 47.4004 11.0747 47.4862 11.3025C47.2289 10.9039 46.943 10.5338 46.6285 10.1922C45.4564 8.82562 43.9984 7.7153 42.3688 6.91815C41.5683 6.51957 40.7106 6.23488 39.8244 6.00712C38.9381 5.80783 38.0519 5.69395 37.1656 5.66548C36.9369 5.66548 36.7082 5.66548 36.5081 5.66548H35.8505L34.564 5.69395L31.991 5.75089L29.418 5.8363L26.845 5.92171C25.1297 5.97865 23.4143 6.06406 21.699 6.17794C23.4143 6.29181 25.1297 6.34875 26.845 6.43416L29.418 6.51957L31.991 6.60498L34.564 6.66192L35.8505 6.69039H36.5081C36.7082 6.69039 36.9083 6.69039 37.137 6.71886C38.7666 6.80427 40.3962 7.25979 41.8256 8C44.3986 9.28114 46.4284 11.5018 47.5148 14.1495C47.2861 13.8363 47.0574 13.4947 46.8001 13.21C46.2283 12.5267 45.5707 11.8719 44.856 11.331C44.1413 10.7616 43.398 10.2776 42.5689 9.879C41.7684 9.48043 40.9108 9.16726 40.0531 8.9395C39.1954 8.71174 38.2806 8.5694 37.3943 8.54093C37.28 8.54093 37.1656 8.54093 37.0513 8.54093C36.9369 8.54093 36.8225 8.54093 36.7082 8.54093H36.5366H36.3651H36.0506L34.7641 8.5694C33.0488 8.62633 31.3335 8.68327 29.6181 8.76868C28.7605 8.79715 27.9028 8.85409 27.0451 8.91103C26.1875 8.96797 25.3298 9.02491 24.4721 9.08185C25.3298 9.13879 26.1875 9.19573 27.0451 9.25267C27.9028 9.30961 28.7605 9.33808 29.6181 9.39502C31.3335 9.48043 33.0488 9.53737 34.7641 9.59431L36.0506 9.62278L36.6796 9.65125C36.7939 9.65125 36.8797 9.65125 36.9941 9.65125C37.1084 9.65125 37.1942 9.65125 37.3085 9.67972C38.1376 9.73665 38.9381 9.90747 39.71 10.1068C41.2824 10.5623 42.7404 11.331 43.9984 12.3843C44.6273 12.8968 45.1991 13.4947 45.7137 14.121C46.2283 14.7473 46.6571 15.4306 47.0288 16.1423C47.1717 16.427 47.3147 16.7402 47.4576 17.0534C47.1431 16.5979 46.8001 16.1708 46.4284 15.7438C45.2277 14.4057 43.7411 13.2954 42.1115 12.5552C41.2824 12.1851 40.4247 11.9004 39.5671 11.7011C38.6808 11.5018 37.7946 11.4164 36.9083 11.3879H36.5652H36.2508L35.5932 11.4164C35.1644 11.4448 34.7355 11.4448 34.3067 11.4733L33.0202 11.5302L31.7337 11.5872C30.0184 11.6726 28.303 11.7865 26.5877 11.9288C28.303 12.0996 30.0184 12.1851 31.7337 12.2705L33.0202 12.3274L34.3067 12.3843C34.7355 12.4128 35.1644 12.4128 35.5932 12.4413L36.2508 12.4698L36.8797 12.4982C37.7088 12.5267 38.5093 12.6406 39.3098 12.8399C40.1103 13.0391 40.8822 13.3238 41.5969 13.6655C42.3402 14.0071 43.0263 14.4342 43.6839 14.9466C44.3414 15.4306 44.9132 16 45.4564 16.5979C45.9996 17.2242 46.4856 17.9075 46.8858 18.6477C46.8287 18.7331 46.8001 18.8185 46.7429 18.9039C45.8852 17.879 44.8846 16.9964 43.7982 16.2847C42.2544 15.2883 40.4819 14.6335 38.6522 14.3488C38.1948 14.2918 37.7374 14.2349 37.28 14.2349H36.9369H36.5938C36.3651 14.2349 36.165 14.2633 35.9363 14.2633C35.05 14.2918 34.1638 14.3488 33.3061 14.3772C31.5336 14.4911 29.7897 14.5765 28.0171 14.7758C29.7897 14.9466 31.5336 15.0605 33.3061 15.1744C34.1924 15.2313 35.0786 15.2598 35.9363 15.2883L36.5938 15.3167H36.9083L37.2228 15.3452C37.6516 15.3737 38.0519 15.4306 38.4807 15.4875C39.3098 15.6299 40.1103 15.8576 40.8822 16.1708C41.6541 16.484 42.3974 16.8826 43.0835 17.3381C44.1985 18.0783 45.1705 18.9893 45.971 20.0427C45.1133 21.1815 44.0555 22.1495 42.8548 22.9181C42.1401 23.3737 41.3968 23.7438 40.6249 24.0285C39.853 24.3132 39.0239 24.5409 38.1948 24.6548C37.766 24.7117 37.3657 24.7687 36.9369 24.7687C36.8225 24.7687 36.7368 24.7687 36.6224 24.7687H36.3079H35.6504L33.0202 24.7972C29.5038 24.8541 25.9873 24.911 22.4709 24.9964C20.6984 25.0249 18.9545 25.0818 17.1819 25.1388C15.4094 25.1957 13.6655 25.2527 11.893 25.3096C13.6655 25.3665 15.4094 25.4235 17.1819 25.4804C18.9545 25.5374 20.6984 25.5658 22.4709 25.6228C25.9873 25.7082 29.5038 25.7651 33.0202 25.8221L35.6504 25.8505H36.3079H36.651C36.7654 25.8505 36.8797 25.8505 36.9941 25.8505C37.4515 25.8505 37.9089 25.8221 38.3663 25.7651C40.196 25.5374 41.9685 24.9395 43.5695 23.9715C44.37 23.4875 45.0847 22.9181 45.7709 22.2918C46.1425 21.9502 46.4856 21.5801 46.8001 21.21C46.8573 21.2954 46.8858 21.3808 46.943 21.4662C46.8287 21.694 46.7143 21.8932 46.5714 22.0925C46.1425 22.7758 45.6279 23.4021 45.0561 24C43.9412 25.1673 42.5689 26.1068 41.0537 26.7331C40.3104 27.0463 39.5099 27.274 38.7094 27.4448C38.3092 27.5302 37.9089 27.5872 37.4801 27.6157C37.3657 27.6157 37.28 27.6441 37.1656 27.6441C37.0513 27.6441 36.9655 27.6441 36.8511 27.6726H36.5366H36.2222L31.0762 27.7295C27.6455 27.7865 24.2148 27.8434 20.7841 27.9288L18.2111 27.9858L15.6381 28.0427C13.9228 28.0996 12.2075 28.1281 10.4921 28.1851C12.2075 28.242 13.9228 28.2989 15.6381 28.3274L18.2111 28.3843L20.7841 28.4413C24.2148 28.5267 27.6455 28.5836 31.0762 28.6406L36.2222 28.6975H36.5366H36.8797C36.9941 28.6975 37.1084 28.6975 37.2228 28.6975C37.3371 28.6975 37.4515 28.6975 37.5658 28.669C38.0233 28.6406 38.4521 28.5836 38.9095 28.5267C39.7958 28.3843 40.682 28.1566 41.5111 27.8149C42.3402 27.5018 43.1693 27.0747 43.9126 26.5907C44.6559 26.1068 45.3706 25.5374 45.9996 24.8826C46.5714 24.3132 47.086 23.7153 47.5148 23.0605C47.3147 23.573 47.0574 24.0569 46.7715 24.5409C45.9424 25.9359 44.856 27.1601 43.5409 28.1281C42.8834 28.6121 42.1973 29.0391 41.4539 29.3808C40.7106 29.7224 39.9387 29.9786 39.1382 30.1779C38.3377 30.3772 37.5373 30.4626 36.7082 30.4911L34.1352 30.5196L28.9892 30.5765L23.8432 30.6619L18.6972 30.7758C16.9818 30.8043 15.2665 30.8612 13.5512 30.8897C12.6935 30.9181 11.8358 30.9181 10.9781 30.9466L8.40514 31.032L10.9781 31.1174C11.8358 31.1459 12.6935 31.1744 13.5512 31.1744C15.2665 31.2028 16.9818 31.2598 18.6972 31.2883L23.8432 31.4021L28.9892 31.4875L34.1352 31.5445L36.7082 31.573C37.5944 31.573 38.5093 31.4875 39.3955 31.3167C41.1681 30.9466 42.8548 30.2349 44.3128 29.1815C45.0561 28.669 45.7423 28.0712 46.3427 27.4164C46.7715 26.9609 47.1717 26.4484 47.5148 25.9359C46.9716 27.274 46.1711 28.4982 45.1991 29.5516C44.0841 30.7473 42.7404 31.6868 41.2538 32.3416C40.5105 32.6833 39.7386 32.911 38.9381 33.0819C38.5379 33.1673 38.1376 33.2242 37.7374 33.2811C37.5373 33.3096 37.3371 33.3096 37.137 33.3381C37.0227 33.3381 36.9369 33.3381 36.8225 33.3381C36.7082 33.3381 36.6224 33.3381 36.5081 33.3381L31.3621 33.395L26.216 33.452L21.07 33.5374L15.924 33.6228C12.4934 33.6797 9.06269 33.7651 5.63202 33.8505C9.06269 33.9359 12.4934 34.0214 15.924 34.0783L21.07 34.1637L26.216 34.2491L31.3621 34.306L36.5081 34.363H36.8511C36.9655 34.363 37.0798 34.363 37.1942 34.363C37.4229 34.363 37.6516 34.3345 37.8517 34.3345C38.3092 34.306 38.738 34.2491 39.1954 34.1637C40.0817 33.9929 40.9393 33.7367 41.7684 33.395C43.4266 32.7117 44.9418 31.6868 46.1997 30.3772C46.6857 29.8648 47.1431 29.2954 47.5434 28.726C47.3719 29.1815 47.1431 29.6085 46.9144 30.0356C46.5142 30.7473 46.0568 31.4021 45.5136 32.0285C44.9704 32.6548 44.3986 33.1957 43.7411 33.7082C43.4266 33.9644 43.0835 34.1922 42.7404 34.3915C42.3974 34.6192 42.0257 34.79 41.6827 34.9893C40.9393 35.331 40.1674 35.6157 39.3955 35.8149C38.5951 36.0142 37.7946 36.1281 36.9655 36.1566H36.651H36.3365H35.679H34.3925C30.9618 36.1851 27.5311 36.242 24.1005 36.2705C17.2391 36.3843 10.3778 36.4697 3.51644 36.669C10.3778 36.8399 17.2391 36.9537 24.1005 37.0676C27.5311 37.1246 30.9618 37.153 34.3925 37.1815H35.679H36.3365H36.651H36.9941C37.8803 37.1815 38.7952 37.0676 39.6528 36.8683C41.3968 36.4697 43.0835 35.7295 44.5415 34.6477C45.2563 34.1068 45.9424 33.5089 46.5428 32.8256C46.9144 32.427 47.2575 32 47.5434 31.5445C47.086 32.6548 46.457 33.7082 45.6851 34.6477C45.1419 35.274 44.5701 35.8719 43.9126 36.3843C43.255 36.8968 42.5403 37.3523 41.797 37.7224C41.0537 38.0925 40.2532 38.3772 39.4527 38.605C38.6522 38.8043 37.7946 38.9466 36.9655 38.9751H36.651H36.3079H35.6504H34.3353L31.7051 39.0036L26.4162 39.0605L21.1272 39.1174L15.8383 39.2029L10.5493 39.2883L5.26036 39.3737L2.63018 39.4306L0 39.4875L2.63018 39.5445L5.26036 39.6014L10.5493 39.6868L15.8383 39.7722L21.1272 39.8577L26.4162 39.9146L31.7051 39.9715L34.3353 40H35.6504H36.3079H36.651H36.9941C37.9089 40 38.8238 39.8861 39.7386 39.6868C40.6249 39.4875 41.5111 39.1744 42.3402 38.7758C44.027 38.0071 45.5136 36.8399 46.7143 35.4448C47.915 34.0498 48.8299 32.3701 49.3445 30.605C49.8019 28.9822 49.9449 27.2456 49.7733 25.5658C49.659 25.8505 49.6876 14.7189 49.659 14.4342Z" fill="#001540"/>
<path d="M176.738 16.2845C176.738 16.1991 176.738 16.1137 176.738 15.9998C176.766 13.95 175.737 12.4411 173.65 11.8148C172.078 11.3308 170.391 10.9607 168.733 10.9037C164.073 10.7614 159.413 10.8183 154.753 10.7614C153.752 10.7329 152.723 10.5906 151.751 10.3628C151.237 10.2489 150.693 9.87884 150.407 9.48026C149.292 7.77208 150.322 5.43756 152.437 5.01051C153.952 4.72581 155.496 4.55499 157.04 4.55499C162.501 4.49805 167.99 4.52652 173.45 4.49805C173.85 4.49805 174.365 4.38417 174.594 4.15642C175.108 3.55855 175.48 2.81834 175.937 2.07812H154.667C153.238 2.07812 151.78 2.22047 150.35 2.44823C146.176 3.0461 144.318 5.4945 144.976 9.28097C145.29 11.0746 146.376 12.2988 148.292 12.6973C149.807 13.0105 151.351 13.2383 152.895 13.2667C157.269 13.3521 161.671 13.2952 166.046 13.3806C167.218 13.4091 168.418 13.5514 169.533 13.8361C171.077 14.2347 171.592 15.2881 171.535 17.2525C171.477 18.7329 170.877 19.5586 169.39 19.9002C168.276 20.1564 167.132 20.2703 165.988 20.2703C159.527 20.2988 153.095 20.2988 146.634 20.2988C146.319 20.2988 145.833 20.2988 145.719 20.4696C145.147 21.2098 144.69 22.007 144.146 22.8895H165.731C167.246 22.8895 168.762 22.861 170.277 22.6902C174.136 22.2916 177.11 21.1244 176.738 16.2845Z" fill="#001540"/>
<path d="M119.588 22.8897L127.707 22.9182C128.85 22.9182 129.908 22.2918 130.451 21.2954C133.768 15.1744 139.886 3.72956 140.772 2.04984C138.857 2.04984 140.115 1.9929 138.428 2.07831C138.056 2.10678 137.599 2.50536 137.37 2.847C133.854 8.96799 132.739 10.7901 129.251 16.911C128.565 18.1068 127.878 19.331 127.164 20.5836C126.821 21.153 126.22 21.5231 125.534 21.5231H124.677C124.019 21.5231 123.39 21.153 123.047 20.5836C122.332 19.331 121.646 18.1352 120.96 16.911C117.472 10.7616 116.243 8.96799 112.726 2.847C112.526 2.50536 112.04 2.10678 111.669 2.07831C110.01 1.9929 108.324 2.04984 106.408 2.04984C107.323 3.72956 113.527 15.1744 116.815 21.2669C117.386 22.2634 118.444 22.8897 119.588 22.8897Z" fill="#001540"/>
<path d="M93.1441 2.16382H66.7852L69.0151 4.75456L90.7999 5.0962C94.1734 5.15314 96.8893 7.88624 96.8893 11.2457L96.9179 14.0072C96.9179 17.3951 94.2019 20.1567 90.7713 20.1852L74.6185 20.3845C74.3898 20.3845 74.2183 20.2136 74.2183 19.9859V10.8186L68.9865 4.72609V22.2635C68.9865 22.6051 69.2724 22.9183 69.644 22.9183H93.1156C98.4903 22.9183 102.864 18.5624 102.864 13.2101V11.8435C102.864 6.49122 98.5189 2.16382 93.1441 2.16382Z" fill="#001540"/>
<path d="M71.7014 33.7083H68.8711V38.0641H71.8443C72.5877 38.0641 73.2738 37.7794 73.5311 37.4947C74.0171 36.9823 74.2744 36.4983 74.2744 35.8435C74.2458 34.6193 73.2452 33.7083 71.7014 33.7083ZM71.9015 37.2954H69.7288V34.4769H71.7586C72.702 34.4769 73.331 35.0463 73.331 35.9004C73.331 36.726 72.7306 37.2954 71.9015 37.2954Z" fill="#001540"/>
<path d="M76.2737 33.7083H75.416V38.0641H76.2737V33.7083Z" fill="#001540"/>
<path d="M80.1932 36.4412H82.1658C81.88 37.0675 81.251 37.4091 80.3648 37.4091C79.164 37.4091 78.3635 36.7543 78.3635 35.8433C78.3635 34.9607 79.1926 34.3059 80.3648 34.3059C81.0223 34.3059 81.5655 34.5052 82.0229 34.9323L82.8234 34.5337C82.1659 33.8504 81.3939 33.5088 80.4219 33.5088C79.6214 33.5088 78.9067 33.7365 78.4207 34.1067C77.8203 34.5622 77.5059 35.1316 77.5059 35.8433C77.5059 36.555 77.8203 37.1529 78.4207 37.58C78.9067 37.9216 79.5929 38.1494 80.3648 38.1494C82.1087 38.1494 83.2236 37.1814 83.2236 35.7579V35.6155H80.1932V36.4412Z" fill="#001540"/>
<path d="M85.3088 33.7083H84.4512V38.0641H85.3088V33.7083Z" fill="#001540"/>
<path d="M91.1977 33.7083H86.166V34.4769H88.253V38.0641H89.1107V34.4769H91.1977V33.7083Z" fill="#001540"/>
<path d="M92.8846 33.7083L90.5117 38.0641H91.4551L91.9698 37.1246H94.9144L95.429 38.0641H96.3724L93.9996 33.7083H92.8846ZM92.37 36.3559L93.4278 34.42L94.457 36.3559H92.37Z" fill="#001540"/>
<path d="M97.9456 33.7083H97.0879V38.0641H101.348V37.2954H97.9456V33.7083Z" fill="#001540"/>
<path d="M108.552 33.7083L106.607 37.3239L104.635 33.7083H103.691L106.121 38.0641H107.093L109.524 33.7083H108.552Z" fill="#001540"/>
<path d="M111.697 33.7083L109.324 38.0641H110.268L110.782 37.1246H113.727L114.242 38.0641H115.185L112.812 33.7083H111.697ZM111.182 36.3559L112.24 34.42L113.269 36.3559H111.182Z" fill="#001540"/>
<path d="M120.102 36.4698C120.102 37.0962 119.53 37.4378 118.416 37.4378C117.301 37.4378 116.729 37.0962 116.729 36.4698V33.7083H115.871V36.6406C115.871 37.5517 116.843 38.2065 118.416 38.2065C119.988 38.2065 120.96 37.5517 120.96 36.6406V33.7083H120.102V36.4698Z" fill="#001540"/>
<path d="M123.276 33.7083H122.418V38.0641H126.649V37.2954H123.276V33.7083Z" fill="#001540"/>
<path d="M125.707 34.4769H127.823V38.0641H128.652V34.4769H130.767V33.7083H125.707V34.4769Z" fill="#001540"/>
<path d="M136.512 35.3877C135.254 35.2738 134.482 35.3307 134.482 34.8468C134.482 34.5051 134.968 34.3343 135.94 34.3343C136.598 34.3343 137.227 34.4767 137.798 34.7898L138.313 34.2489C137.713 33.8218 136.884 33.6226 135.912 33.6226C134.396 33.6226 133.567 34.1635 133.567 34.9891C133.567 35.6724 134.082 36.014 135.14 36.1279C135.969 36.2133 136.655 36.1564 137.112 36.2987C137.455 36.3841 137.598 36.5549 137.598 36.7827C137.598 37.1813 137.055 37.466 136.055 37.466C135.168 37.466 134.425 37.2382 133.825 36.8396L133.367 37.4375C134.053 37.95 134.94 38.2062 136.055 38.2062C137.656 38.2062 138.513 37.6653 138.513 36.7258C138.542 35.8432 137.884 35.53 136.512 35.3877Z" fill="#001540"/>
<path d="M140.458 36.1851H143.031V35.4164H140.458V34.4769H144.175V33.7083H139.629V38.0641H144.317V37.2954H140.458V36.1851Z" fill="#001540"/>
<path d="M150.492 35.1033C150.492 34.2776 149.891 33.7083 148.977 33.7083H145.432V38.0641H146.289V36.4698H148.462L149.606 38.0641H150.578L149.405 36.4129C150.12 36.2705 150.492 35.7865 150.492 35.1033ZM146.289 35.7011V34.4769H148.805C149.377 34.4769 149.634 34.6762 149.634 35.1033C149.634 35.4734 149.377 35.7011 148.862 35.7011H146.289Z" fill="#001540"/>
<path d="M154.01 37.3239L152.037 33.7083H151.094L153.495 38.0641H154.496L156.926 33.7083H155.954L154.01 37.3239Z" fill="#001540"/>
<path d="M158.496 33.7083H157.639V38.0641H158.496V33.7083Z" fill="#001540"/>
<path d="M162.672 34.3346C163.444 34.3346 164.016 34.5908 164.473 35.0179L165.245 34.7616C164.559 33.9645 163.701 33.5659 162.615 33.5659C161.843 33.5659 161.157 33.7937 160.671 34.1353C160.07 34.5908 159.756 35.1602 159.756 35.872C159.756 37.21 160.928 38.178 162.672 38.178C163.758 38.178 164.53 37.8649 165.216 37.0962L164.473 36.6976C163.987 37.1816 163.444 37.4093 162.672 37.4093C161.385 37.4093 160.614 36.783 160.614 35.8435C160.614 34.9609 161.414 34.3346 162.672 34.3346Z" fill="#001540"/>
<path d="M167.272 36.1851H169.845V35.4164H167.272V34.4769H170.988V33.7083H166.414V38.0641H171.131V37.2954H167.272V36.1851Z" fill="#001540"/>
<path d="M174.764 35.3877C173.506 35.2738 172.734 35.3307 172.734 34.8468C172.734 34.5051 173.22 34.3343 174.192 34.3343C174.85 34.3343 175.479 34.4767 176.05 34.7898L176.565 34.2489C175.965 33.8218 175.136 33.6226 174.164 33.6226C172.648 33.6226 171.819 34.1635 171.819 34.9891C171.819 35.6724 172.334 36.014 173.392 36.1279C174.221 36.2133 174.907 36.1564 175.364 36.2987C175.707 36.3841 175.85 36.5549 175.85 36.7827C175.85 37.1813 175.307 37.466 174.307 37.466C173.42 37.466 172.677 37.2382 172.077 36.8396L171.619 37.4375C172.305 37.95 173.192 38.2062 174.307 38.2062C175.907 38.2062 176.765 37.6653 176.765 36.7258C176.794 35.8432 176.136 35.53 174.764 35.3877Z" fill="#001540"/>
</svg>
